%TF.GenerationSoftware,KiCad,Pcbnew,8.0.2-1*%
%TF.CreationDate,2024-08-24T15:03:41-05:00*%
%TF.ProjectId,BeagleBonePC104,42656167-6c65-4426-9f6e-655043313034,rev?*%
%TF.SameCoordinates,Original*%
%TF.FileFunction,Copper,L1,Top*%
%TF.FilePolarity,Positive*%
%FSLAX46Y46*%
G04 Gerber Fmt 4.6, Leading zero omitted, Abs format (unit mm)*
G04 Created by KiCad (PCBNEW 8.0.2-1) date 2024-08-24 15:03:41*
%MOMM*%
%LPD*%
G01*
G04 APERTURE LIST*
%TA.AperFunction,ComponentPad*%
%ADD10C,1.524000*%
%TD*%
%TA.AperFunction,ComponentPad*%
%ADD11C,1.600000*%
%TD*%
%TA.AperFunction,ComponentPad*%
%ADD12O,1.600000X1.600000*%
%TD*%
%TA.AperFunction,ComponentPad*%
%ADD13C,6.400000*%
%TD*%
%TA.AperFunction,ComponentPad*%
%ADD14R,1.700000X1.700000*%
%TD*%
%TA.AperFunction,ComponentPad*%
%ADD15O,1.700000X1.700000*%
%TD*%
%TA.AperFunction,ViaPad*%
%ADD16C,0.600000*%
%TD*%
%TA.AperFunction,Conductor*%
%ADD17C,0.300000*%
%TD*%
%TA.AperFunction,Conductor*%
%ADD18C,0.200000*%
%TD*%
%TA.AperFunction,Conductor*%
%ADD19C,0.500000*%
%TD*%
G04 APERTURE END LIST*
D10*
%TO.P,U1,1,GND*%
%TO.N,GND*%
X149770000Y-140960000D03*
X149770000Y-92700000D03*
%TO.P,U1,2,GND*%
X149770000Y-143500000D03*
X149770000Y-95240000D03*
%TO.P,U1,3,DC_3.3V*%
%TO.N,unconnected-(U1-DC_3.3V-Pad3)_0*%
X147230000Y-140960000D03*
%TO.N,unconnected-(U1-DC_3.3V-Pad3)*%
X147230000Y-92700000D03*
%TO.P,U1,4,DC_3.3V*%
%TO.N,unconnected-(U1-DC_3.3V-Pad4)_0*%
X147230000Y-143500000D03*
%TO.N,unconnected-(U1-DC_3.3V-Pad4)*%
X147230000Y-95240000D03*
%TO.P,U1,5,VDD_5V*%
%TO.N,/5V*%
X144690000Y-140960000D03*
X144690000Y-92700000D03*
%TO.P,U1,6,VDD_5V*%
X144690000Y-143500000D03*
X144690000Y-95240000D03*
%TO.P,U1,7,SYS_5V*%
%TO.N,unconnected-(U1-SYS_5V-Pad7)*%
X142150000Y-140960000D03*
%TO.N,unconnected-(U1-SYS_5V-Pad7)_0*%
X142150000Y-92700000D03*
%TO.P,U1,8,SYS_5V*%
%TO.N,unconnected-(U1-SYS_5V-Pad8)*%
X142150000Y-143500000D03*
%TO.N,unconnected-(U1-SYS_5V-Pad8)_0*%
X142150000Y-95240000D03*
%TO.P,U1,9,PWR_BUT*%
%TO.N,unconnected-(U1-PWR_BUT-Pad9)*%
X139610000Y-140960000D03*
%TO.N,unconnected-(U1-PWR_BUT-Pad9)_0*%
X139610000Y-92700000D03*
%TO.P,U1,10,SYS_RESETn*%
%TO.N,/SYS_RESETn*%
X139610000Y-143500000D03*
X139610000Y-95240000D03*
%TO.P,U1,11,GPIO1_13*%
%TO.N,/GPIO1_13*%
X137070000Y-140960000D03*
X137070000Y-92700000D03*
%TO.P,U1,12,GPIO1_12*%
%TO.N,/GPIO1_12*%
X137070000Y-143500000D03*
X137070000Y-95240000D03*
%TO.P,U1,13,EHRPWM2B*%
%TO.N,unconnected-(U1-EHRPWM2B-Pad13)*%
X134530000Y-140960000D03*
%TO.N,unconnected-(U1-EHRPWM2B-Pad13)_0*%
X134530000Y-92700000D03*
%TO.P,U1,14,GPIO0_26*%
%TO.N,/GPIO1_26*%
X134530000Y-143500000D03*
X134530000Y-95240000D03*
%TO.P,U1,15,GPIO1_15*%
%TO.N,/GPIO1_15*%
X131990000Y-140960000D03*
X131990000Y-92700000D03*
%TO.P,U1,16,GPIO1_14*%
%TO.N,/GPIO1_14*%
X131990000Y-143500000D03*
X131990000Y-95240000D03*
%TO.P,U1,17,GPIO0_27*%
%TO.N,/GPIO1_27*%
X129450000Y-140960000D03*
X129450000Y-92700000D03*
%TO.P,U1,18,GPIO2_1*%
%TO.N,/GPIO2_1*%
X129450000Y-143500000D03*
X129450000Y-95240000D03*
%TO.P,U1,19,EHRPWM2A*%
%TO.N,unconnected-(U1-EHRPWM2A-Pad19)*%
X126910000Y-140960000D03*
%TO.N,unconnected-(U1-EHRPWM2A-Pad19)_0*%
X126910000Y-92700000D03*
%TO.P,U1,20,GPIO1_31*%
%TO.N,unconnected-(U1-GPIO1_31-Pad20)_0*%
X126910000Y-143500000D03*
%TO.N,unconnected-(U1-GPIO1_31-Pad20)*%
X126910000Y-95240000D03*
%TO.P,U1,21,UART2_TXD*%
%TO.N,/UART_TX*%
X124370000Y-140960000D03*
X124370000Y-92700000D03*
%TO.P,U1,22,UART2_RXD*%
%TO.N,/UART_RX*%
X124370000Y-143500000D03*
X124370000Y-95240000D03*
%TO.P,U1,23,GPIO1_17*%
%TO.N,/GPIO1_17*%
X121830000Y-140960000D03*
X121830000Y-92700000D03*
%TO.P,U1,24,DCAN1_RX*%
%TO.N,/CAN1_RX*%
X121830000Y-143500000D03*
X121830000Y-95240000D03*
%TO.P,U1,25,GPIO3_21*%
%TO.N,/CAN_SLNT*%
X119290000Y-140960000D03*
X119290000Y-92700000D03*
%TO.P,U1,26,DCAN1_TX*%
%TO.N,/CAN1_TX*%
X119290000Y-143500000D03*
X119290000Y-95240000D03*
%TO.P,U1,27,GPIO2_22*%
%TO.N,/GPI02_22*%
X116750000Y-140960000D03*
X116750000Y-92700000D03*
%TO.P,U1,28,GPIO2_24*%
%TO.N,/GPIO2_24*%
X116750000Y-143500000D03*
X116750000Y-95240000D03*
%TO.P,U1,29,GPIO2_23*%
%TO.N,/GPIO2_23*%
X114210000Y-140960000D03*
X114210000Y-92700000D03*
%TO.P,U1,30,GPIO2_25*%
%TO.N,/GPIO2_25*%
X114210000Y-143500000D03*
X114210000Y-95240000D03*
%TO.P,U1,31,SPI1_SCLK*%
%TO.N,unconnected-(U1-SPI1_SCLK-Pad31)*%
X111670000Y-140960000D03*
%TO.N,unconnected-(U1-SPI1_SCLK-Pad31)_0*%
X111670000Y-92700000D03*
%TO.P,U1,32,UART5_RTSN*%
%TO.N,unconnected-(U1-UART5_RTSN-Pad32)*%
X111670000Y-143500000D03*
%TO.N,unconnected-(U1-UART5_RTSN-Pad32)_0*%
X111670000Y-95240000D03*
%TO.P,U1,33,AIN4*%
%TO.N,unconnected-(U1-AIN4-Pad33)_0*%
X109130000Y-140960000D03*
%TO.N,unconnected-(U1-AIN4-Pad33)*%
X109130000Y-92700000D03*
%TO.P,U1,34,AGND*%
%TO.N,unconnected-(U1-AGND-Pad34)_0*%
X109130000Y-143500000D03*
%TO.N,unconnected-(U1-AGND-Pad34)*%
X109130000Y-95240000D03*
%TO.P,U1,35,AIN6*%
%TO.N,unconnected-(U1-AIN6-Pad35)*%
X106590000Y-140960000D03*
%TO.N,unconnected-(U1-AIN6-Pad35)_0*%
X106590000Y-92700000D03*
%TO.P,U1,36,AIN5*%
%TO.N,unconnected-(U1-AIN5-Pad36)_0*%
X106590000Y-143500000D03*
%TO.N,unconnected-(U1-AIN5-Pad36)*%
X106590000Y-95240000D03*
%TO.P,U1,37,AIN2*%
%TO.N,unconnected-(U1-AIN2-Pad37)*%
X104050000Y-140960000D03*
%TO.N,unconnected-(U1-AIN2-Pad37)_0*%
X104050000Y-92700000D03*
%TO.P,U1,38,AIN3*%
%TO.N,unconnected-(U1-AIN3-Pad38)*%
X104050000Y-143500000D03*
%TO.N,unconnected-(U1-AIN3-Pad38)_0*%
X104050000Y-95240000D03*
%TO.P,U1,39,GPIO2_12*%
%TO.N,/GPIO2_12*%
X101510000Y-140960000D03*
X101510000Y-92700000D03*
%TO.P,U1,40,GPIO2_13*%
%TO.N,/GPIO2_13*%
X101510000Y-143500000D03*
X101510000Y-95240000D03*
%TO.P,U1,41,GPIO2_10*%
%TO.N,/GPIO2_10*%
X98970000Y-140960000D03*
X98970000Y-92700000D03*
%TO.P,U1,42,GPIO0_7*%
%TO.N,/GPIO0_7*%
X98970000Y-143500000D03*
X98970000Y-95240000D03*
%TO.P,U1,43,GPIO2_8*%
%TO.N,/GPIO2_8*%
X96430000Y-140960000D03*
X96430000Y-92700000D03*
%TO.P,U1,44,GPIO2_9*%
%TO.N,/GPIO2_9*%
X96430000Y-143500000D03*
X96430000Y-95240000D03*
%TO.P,U1,45,GPIO2_6*%
%TO.N,/GPIO2_6*%
X93890000Y-140960000D03*
X93890000Y-92700000D03*
%TO.P,U1,46,GPIO2_7*%
%TO.N,/GPIO2_7*%
X93890000Y-143500000D03*
X93890000Y-95240000D03*
%TD*%
D11*
%TO.P,R1,1*%
%TO.N,/5V*%
X113010000Y-150000000D03*
D12*
%TO.P,R1,2*%
%TO.N,/I2C_SCL*%
X123170000Y-150000000D03*
%TD*%
D10*
%TO.P,U3,1,Vcc*%
%TO.N,/3V3*%
X107530000Y-150480000D03*
%TO.P,U3,2,GND*%
%TO.N,GND*%
X104990000Y-150480000D03*
%TO.P,U3,3,RX*%
%TO.N,/CAN1_TX*%
X102450000Y-150480000D03*
%TO.P,U3,4,TX*%
%TO.N,/CAN1_RX*%
X99910000Y-150480000D03*
%TO.P,U3,5,SLNT*%
%TO.N,/CAN_SLNT*%
X97370000Y-150480000D03*
%TO.P,U3,6,CANH*%
%TO.N,/CAN_H*%
X94830000Y-150480000D03*
%TO.P,U3,7,CANL*%
%TO.N,/CAN_L*%
X92290000Y-150480000D03*
%TD*%
D13*
%TO.P,U2,*%
%TO.N,*%
X85110000Y-164920000D03*
X88920000Y-79190000D03*
X162580000Y-79190000D03*
X165120000Y-164920000D03*
D14*
%TO.P,U2,1,CANL1*%
%TO.N,/CAN_L*%
X94000000Y-81730000D03*
D15*
%TO.P,U2,2,CANL2*%
%TO.N,unconnected-(U2-CANL2-Pad2)*%
X94000000Y-79190000D03*
%TO.P,U2,3,CANH1*%
%TO.N,/CAN_H*%
X96540000Y-81730000D03*
%TO.P,U2,4,CANH2*%
%TO.N,unconnected-(U2-CANH2-Pad4)*%
X96540000Y-79190000D03*
%TO.P,U2,5,UART_A_TX*%
%TO.N,unconnected-(U2-UART_A_TX-Pad5)*%
X99080000Y-81730000D03*
%TO.P,U2,6,UART_B_TX*%
%TO.N,unconnected-(U2-UART_B_TX-Pad6)*%
X99080000Y-79190000D03*
%TO.P,U2,7,UART_A_RX*%
%TO.N,unconnected-(U2-UART_A_RX-Pad7)*%
X101620000Y-81730000D03*
%TO.P,U2,8,UART_B_RX*%
%TO.N,unconnected-(U2-UART_B_RX-Pad8)*%
X101620000Y-79190000D03*
%TO.P,U2,9*%
%TO.N,unconnected-(U2-Pad9)*%
X104160000Y-81730000D03*
%TO.P,U2,10*%
%TO.N,unconnected-(U2-Pad10)*%
X104160000Y-79190000D03*
%TO.P,U2,11*%
%TO.N,/GPIO1_13*%
X106700000Y-81730000D03*
%TO.P,U2,12,BGLBON_RST*%
%TO.N,/SYS_RESETn*%
X106700000Y-79190000D03*
%TO.P,U2,13*%
%TO.N,/GPIO1_12*%
X109240000Y-81730000D03*
%TO.P,U2,14*%
%TO.N,unconnected-(U2-Pad14)*%
X109240000Y-79190000D03*
%TO.P,U2,15*%
%TO.N,/GPIO1_26*%
X111780000Y-81730000D03*
%TO.P,U2,16*%
%TO.N,unconnected-(U2-Pad16)*%
X111780000Y-79190000D03*
%TO.P,U2,17*%
%TO.N,/GPIO1_15*%
X114320000Y-81730000D03*
%TO.P,U2,18*%
%TO.N,unconnected-(U2-Pad18)*%
X114320000Y-79190000D03*
%TO.P,U2,19,UART_1_TX*%
%TO.N,unconnected-(U2-UART_1_TX-Pad19)*%
X116860000Y-81730000D03*
%TO.P,U2,20,UART_1_RX*%
%TO.N,unconnected-(U2-UART_1_RX-Pad20)*%
X116860000Y-79190000D03*
%TO.P,U2,21*%
%TO.N,/GPIO1_27*%
X119400000Y-81730000D03*
%TO.P,U2,22*%
%TO.N,/GPIO2_13*%
X119400000Y-79190000D03*
%TO.P,U2,23*%
%TO.N,/GPIO2_1*%
X121940000Y-81730000D03*
%TO.P,U2,24*%
%TO.N,/GPIO2_10*%
X121940000Y-79190000D03*
%TO.P,U2,25,3V3_MAIN*%
%TO.N,/3V3*%
X124480000Y-81730000D03*
%TO.P,U2,26,3V3_MAIN*%
X124480000Y-79190000D03*
%TO.P,U2,27*%
%TO.N,/GPIO1_29*%
X127020000Y-81730000D03*
%TO.P,U2,28*%
%TO.N,/GPIO2_11*%
X127020000Y-79190000D03*
%TO.P,U2,29*%
%TO.N,/GPI02_22*%
X129560000Y-81730000D03*
%TO.P,U2,30*%
%TO.N,/GPIO2_8*%
X129560000Y-79190000D03*
%TO.P,U2,31,CHARGE*%
%TO.N,unconnected-(U2-CHARGE-Pad31)*%
X132100000Y-81730000D03*
%TO.P,U2,32,CHARGE*%
%TO.N,unconnected-(U2-CHARGE-Pad32)*%
X132100000Y-79190000D03*
%TO.P,U2,33,GNSS_UART_TX*%
%TO.N,/UART_TX*%
X134640000Y-81730000D03*
%TO.P,U2,34*%
%TO.N,/GPIO2_9*%
X134640000Y-79190000D03*
%TO.P,U2,35,GNSS_UART_RX*%
%TO.N,/UART_RX*%
X137180000Y-81730000D03*
%TO.P,U2,36*%
%TO.N,/GPIO2_6*%
X137180000Y-79190000D03*
%TO.P,U2,37,CAN_H*%
%TO.N,unconnected-(U2-CAN_H-Pad37)*%
X139720000Y-81730000D03*
%TO.P,U2,38,CAN_L*%
%TO.N,unconnected-(U2-CAN_L-Pad38)*%
X139720000Y-79190000D03*
%TO.P,U2,39*%
%TO.N,unconnected-(U2-Pad39)*%
X142260000Y-81730000D03*
%TO.P,U2,40*%
%TO.N,unconnected-(U2-Pad40)*%
X142260000Y-79190000D03*
%TO.P,U2,41,I2C1_SDA*%
%TO.N,/I2C_SDA*%
X144800000Y-81730000D03*
%TO.P,U2,42*%
%TO.N,/GPIO2_25*%
X144800000Y-79190000D03*
%TO.P,U2,43,I2C1_SCL*%
%TO.N,/I2C_SCL*%
X147340000Y-81730000D03*
%TO.P,U2,44*%
%TO.N,/GPIO2_12*%
X147340000Y-79190000D03*
%TO.P,U2,45*%
%TO.N,/GPIO2_24*%
X149880000Y-81730000D03*
%TO.P,U2,46*%
%TO.N,/GPIO2_23*%
X149880000Y-79190000D03*
%TO.P,U2,47*%
%TO.N,unconnected-(U2-Pad47)*%
X152420000Y-81730000D03*
%TO.P,U2,48*%
%TO.N,unconnected-(U2-Pad48)*%
X152420000Y-79190000D03*
%TO.P,U2,49*%
%TO.N,unconnected-(U2-Pad49)*%
X154960000Y-81730000D03*
%TO.P,U2,50*%
%TO.N,unconnected-(U2-Pad50)*%
X154960000Y-79190000D03*
%TO.P,U2,51*%
%TO.N,unconnected-(U2-Pad51)*%
X157500000Y-81730000D03*
%TO.P,U2,52*%
%TO.N,unconnected-(U2-Pad52)*%
X157500000Y-79190000D03*
%TD*%
D11*
%TO.P,R2,1*%
%TO.N,/5V*%
X126510000Y-150000000D03*
D12*
%TO.P,R2,2*%
%TO.N,/I2C_SDA*%
X136670000Y-150000000D03*
%TD*%
D14*
%TO.P,U4,1,TEMP_1*%
%TO.N,unconnected-(U4-TEMP_1-Pad1)*%
X94012500Y-87040000D03*
D15*
%TO.P,U4,2,TEMP_2*%
%TO.N,unconnected-(U4-TEMP_2-Pad2)*%
X94012500Y-84500000D03*
%TO.P,U4,3,TEMP_3*%
%TO.N,unconnected-(U4-TEMP_3-Pad3)*%
X96552500Y-87040000D03*
%TO.P,U4,4,TEMP_4*%
%TO.N,unconnected-(U4-TEMP_4-Pad4)*%
X96552500Y-84500000D03*
%TO.P,U4,5,TEMP_5*%
%TO.N,unconnected-(U4-TEMP_5-Pad5)*%
X99092500Y-87040000D03*
%TO.P,U4,6,TEMP_6*%
%TO.N,unconnected-(U4-TEMP_6-Pad6)*%
X99092500Y-84500000D03*
%TO.P,U4,7,TEMP_7*%
%TO.N,unconnected-(U4-TEMP_7-Pad7)*%
X101632500Y-87040000D03*
%TO.P,U4,8,TEMP_8*%
%TO.N,unconnected-(U4-TEMP_8-Pad8)*%
X101632500Y-84500000D03*
%TO.P,U4,9,TEMP_9*%
%TO.N,unconnected-(U4-TEMP_9-Pad9)*%
X104172500Y-87040000D03*
%TO.P,U4,10,TEMP_10*%
%TO.N,unconnected-(U4-TEMP_10-Pad10)*%
X104172500Y-84500000D03*
%TO.P,U4,11,TEMP_11*%
%TO.N,unconnected-(U4-TEMP_11-Pad11)*%
X106712500Y-87040000D03*
%TO.P,U4,12,TEMP_12*%
%TO.N,unconnected-(U4-TEMP_12-Pad12)*%
X106712500Y-84500000D03*
%TO.P,U4,13,TEMP_13*%
%TO.N,unconnected-(U4-TEMP_13-Pad13)*%
X109252500Y-87040000D03*
%TO.P,U4,14,TEMP_14*%
%TO.N,unconnected-(U4-TEMP_14-Pad14)*%
X109252500Y-84500000D03*
%TO.P,U4,15,TEMP_15*%
%TO.N,unconnected-(U4-TEMP_15-Pad15)*%
X111792500Y-87040000D03*
%TO.P,U4,16*%
%TO.N,/GPIO2_7*%
X111792500Y-84500000D03*
%TO.P,U4,17*%
%TO.N,/GPIO1_14*%
X114332500Y-87040000D03*
%TO.P,U4,18,ADCS_ENABLE*%
%TO.N,unconnected-(U4-ADCS_ENABLE-Pad18)*%
X114332500Y-84500000D03*
%TO.P,U4,19*%
%TO.N,/GPIO0_7*%
X116872500Y-87040000D03*
%TO.P,U4,20,ADCS_BOOT*%
%TO.N,unconnected-(U4-ADCS_BOOT-Pad20)*%
X116872500Y-84500000D03*
%TO.P,U4,21*%
%TO.N,/GPIO3_20*%
X119412500Y-87040000D03*
%TO.P,U4,22*%
%TO.N,/GPIO3_19*%
X119412500Y-84500000D03*
%TO.P,U4,23,5V_MAIN_STAT*%
%TO.N,unconnected-(U4-5V_MAIN_STAT-Pad23)*%
X121952500Y-87040000D03*
%TO.P,U4,24,3.3V_MAIN_STAT*%
%TO.N,unconnected-(U4-3.3V_MAIN_STAT-Pad24)*%
X121952500Y-84500000D03*
%TO.P,U4,25,5V_MAIN*%
%TO.N,/5V*%
X124492500Y-87040000D03*
%TO.P,U4,26,5V_MAIN*%
X124492500Y-84500000D03*
%TO.P,U4,27,3V3_MAIN*%
%TO.N,/3V3*%
X127032500Y-87040000D03*
%TO.P,U4,28,3V3_MAIN*%
X127032500Y-84500000D03*
%TO.P,U4,29,GND*%
%TO.N,GND*%
X129572500Y-87040000D03*
%TO.P,U4,30,GND*%
X129572500Y-84500000D03*
%TO.P,U4,31,GND*%
X132112500Y-87040000D03*
%TO.P,U4,32,GND*%
X132112500Y-84500000D03*
%TO.P,U4,33,PLOD_STAT_1*%
%TO.N,unconnected-(U4-PLOD_STAT_1-Pad33)*%
X134652500Y-87040000D03*
%TO.P,U4,34,PLOD_STAT_2*%
%TO.N,unconnected-(U4-PLOD_STAT_2-Pad34)*%
X134652500Y-84500000D03*
%TO.P,U4,35,PLOD_STAT_3*%
%TO.N,unconnected-(U4-PLOD_STAT_3-Pad35)*%
X137192500Y-87040000D03*
%TO.P,U4,36,PLOD_STAT_4*%
%TO.N,unconnected-(U4-PLOD_STAT_4-Pad36)*%
X137192500Y-84500000D03*
%TO.P,U4,37,PLOD_STAT_5*%
%TO.N,unconnected-(U4-PLOD_STAT_5-Pad37)*%
X139732500Y-87040000D03*
%TO.P,U4,38,PLOD_COMP_RST*%
%TO.N,unconnected-(U4-PLOD_COMP_RST-Pad38)*%
X139732500Y-84500000D03*
%TO.P,U4,39*%
%TO.N,unconnected-(U4-Pad39)*%
X142272500Y-87040000D03*
%TO.P,U4,40*%
%TO.N,/GPIO1_16*%
X142272500Y-84500000D03*
%TO.P,U4,41,BURN_ENABLE_1*%
%TO.N,unconnected-(U4-BURN_ENABLE_1-Pad41)*%
X144812500Y-87040000D03*
%TO.P,U4,42,BURN_ENABLE_2*%
%TO.N,unconnected-(U4-BURN_ENABLE_2-Pad42)*%
X144812500Y-84500000D03*
%TO.P,U4,43*%
%TO.N,/GPIO1_28*%
X147352500Y-87040000D03*
%TO.P,U4,44*%
%TO.N,/GPIO1_17*%
X147352500Y-84500000D03*
%TO.P,U4,45,V_BAT*%
%TO.N,unconnected-(U4-V_BAT-Pad45)*%
X149892500Y-87040000D03*
%TO.P,U4,46,V_BAT*%
%TO.N,unconnected-(U4-V_BAT-Pad46)*%
X149892500Y-84500000D03*
%TO.P,U4,47,BATT_V_SENS*%
%TO.N,unconnected-(U4-BATT_V_SENS-Pad47)*%
X152432500Y-87040000D03*
%TO.P,U4,48,V_BAT*%
%TO.N,unconnected-(U4-V_BAT-Pad48)*%
X152432500Y-84500000D03*
%TO.P,U4,49,BATT_CUR_IN*%
%TO.N,unconnected-(U4-BATT_CUR_IN-Pad49)*%
X154972500Y-87040000D03*
%TO.P,U4,50*%
%TO.N,/CAN_SNLT*%
X154972500Y-84500000D03*
%TO.P,U4,51,BATT_CUR_OUT*%
%TO.N,unconnected-(U4-BATT_CUR_OUT-Pad51)*%
X157512500Y-87040000D03*
%TO.P,U4,52,BURN_FET*%
%TO.N,unconnected-(U4-BURN_FET-Pad52)*%
X157512500Y-84500000D03*
%TD*%
D16*
%TO.N,/I2C_SCL*%
X148500000Y-94000000D03*
X139500000Y-147000000D03*
X143500000Y-94000000D03*
%TO.N,/I2C_SDA*%
X134500000Y-98000000D03*
X151500000Y-97500000D03*
%TO.N,/GPIO2_1*%
X127500000Y-98000000D03*
%TO.N,/SYS_RESETn*%
X105000000Y-91000000D03*
X120000000Y-101000000D03*
%TO.N,/UART_TX*%
X123000000Y-97500000D03*
%TO.N,/GPIO2_12*%
X101500000Y-99000000D03*
X138500000Y-78000000D03*
X135500000Y-77500000D03*
%TO.N,GND*%
X144500000Y-89500000D03*
%TO.N,/GPIO2_23*%
X115000000Y-90500000D03*
X115500000Y-88000000D03*
%TO.N,/GPIO2_8*%
X96500000Y-98500000D03*
X122000000Y-77000000D03*
X125500000Y-77500000D03*
%TO.N,/GPIO2_10*%
X99000000Y-98500000D03*
%TO.N,/CAN1_RX*%
X100000000Y-153000000D03*
%TO.N,/UART_RX*%
X124500000Y-97500000D03*
%TO.N,/GPIO2_6*%
X94500000Y-99000000D03*
X118500000Y-76350000D03*
%TO.N,/GPIO2_7*%
X93500000Y-98500000D03*
%TO.N,/GPIO1_13*%
X138000000Y-102500000D03*
X106500000Y-99000000D03*
X111500000Y-104000000D03*
%TO.N,/GPIO2_9*%
X99432000Y-96716000D03*
X95500000Y-98500000D03*
%TO.N,/GPIO2_25*%
X126500000Y-89000000D03*
X113000000Y-98000000D03*
%TO.N,/GPIO1_15*%
X111000000Y-90500000D03*
X111500000Y-100500000D03*
X132000000Y-97000000D03*
%TO.N,/GPIO2_13*%
X101500000Y-97500000D03*
X102500000Y-100000000D03*
X103000000Y-98000000D03*
%TO.N,/GPIO1_12*%
X137000000Y-99500000D03*
X107500000Y-99000000D03*
X111500000Y-102500000D03*
%TO.N,/GPIO1_17*%
X128500000Y-97000000D03*
X122000000Y-96500000D03*
%TO.N,/GPIO1_26*%
X134000000Y-99000000D03*
X111500000Y-101500000D03*
X109500000Y-91000000D03*
%TO.N,/GPIO1_14*%
X113500000Y-90500000D03*
X130365000Y-96865000D03*
X111500000Y-99500000D03*
%TO.N,/3V3*%
X111000000Y-77000000D03*
%TD*%
D17*
%TO.N,/I2C_SCL*%
X143500000Y-94000000D02*
X148500000Y-94000000D01*
X123170000Y-150000000D02*
X126170000Y-147000000D01*
X126170000Y-147000000D02*
X139500000Y-147000000D01*
D18*
%TO.N,/I2C_SDA*%
X139267895Y-97500000D02*
X151500000Y-97500000D01*
X138767895Y-98000000D02*
X139267895Y-97500000D01*
X134500000Y-98000000D02*
X138767895Y-98000000D01*
D17*
%TO.N,/GPIO2_1*%
X129340761Y-95240000D02*
X127500000Y-97080761D01*
X129450000Y-95240000D02*
X129340761Y-95240000D01*
X127500000Y-97080761D02*
X127500000Y-98000000D01*
%TO.N,/GPIO2_24*%
X130562000Y-93160606D02*
X129910606Y-93812000D01*
X149880000Y-81730000D02*
X148680000Y-82930000D01*
X128022000Y-94779394D02*
X128022000Y-95700606D01*
X135852500Y-87537057D02*
X135149557Y-88240000D01*
X120010000Y-98500000D02*
X116750000Y-95240000D01*
X148680000Y-82930000D02*
X139570000Y-82930000D01*
X134561394Y-88240000D02*
X130562000Y-92239394D01*
X135149557Y-88240000D02*
X134561394Y-88240000D01*
X135852500Y-86647500D02*
X135852500Y-87537057D01*
X128022000Y-95700606D02*
X125222606Y-98500000D01*
X139570000Y-82930000D02*
X138392500Y-84107500D01*
X136800000Y-85700000D02*
X135852500Y-86647500D01*
X137689557Y-85700000D02*
X136800000Y-85700000D01*
X128989394Y-93812000D02*
X128022000Y-94779394D01*
X130562000Y-92239394D02*
X130562000Y-93160606D01*
X138392500Y-84997057D02*
X137689557Y-85700000D01*
X125222606Y-98500000D02*
X120010000Y-98500000D01*
X129910606Y-93812000D02*
X128989394Y-93812000D01*
X138392500Y-84107500D02*
X138392500Y-84997057D01*
D18*
%TO.N,/SYS_RESETn*%
X103022500Y-89022500D02*
X105000000Y-91000000D01*
X106700000Y-79190000D02*
X105550000Y-80340000D01*
X120000000Y-101000000D02*
X130651471Y-101000000D01*
X135151471Y-96500000D02*
X138350000Y-96500000D01*
X138350000Y-96500000D02*
X139610000Y-95240000D01*
X105550000Y-84988846D02*
X104648846Y-85890000D01*
X104648846Y-85890000D02*
X103696154Y-85890000D01*
X130651471Y-101000000D02*
X135151471Y-96500000D01*
X105550000Y-80340000D02*
X105550000Y-84988846D01*
X103696154Y-85890000D02*
X103022500Y-86563654D01*
X103022500Y-86563654D02*
X103022500Y-89022500D01*
D17*
%TO.N,/UART_TX*%
X128232500Y-88837500D02*
X124370000Y-92700000D01*
X134640000Y-81730000D02*
X133070000Y-83300000D01*
X123258000Y-93812000D02*
X123258000Y-97242000D01*
X130772500Y-84997057D02*
X129929557Y-85840000D01*
X128232500Y-86542943D02*
X128232500Y-88837500D01*
X130772500Y-84002943D02*
X130772500Y-84997057D01*
X128935443Y-85840000D02*
X128232500Y-86542943D01*
X131475443Y-83300000D02*
X130772500Y-84002943D01*
X124370000Y-92700000D02*
X123258000Y-93812000D01*
X133070000Y-83300000D02*
X131475443Y-83300000D01*
X129929557Y-85840000D02*
X128935443Y-85840000D01*
X123258000Y-97242000D02*
X123000000Y-97500000D01*
%TO.N,/GPIO2_12*%
X121455443Y-83300000D02*
X120752500Y-84002943D01*
X115412000Y-91588000D02*
X111209394Y-91588000D01*
X99850000Y-100150000D02*
X101000000Y-99000000D01*
X120752500Y-84997057D02*
X119909557Y-85840000D01*
X108018000Y-94779394D02*
X108018000Y-96518000D01*
X138510000Y-77990000D02*
X146140000Y-77990000D01*
X124977057Y-80530000D02*
X123982943Y-80530000D01*
X111209394Y-91588000D02*
X110500000Y-92297394D01*
X130067057Y-78000000D02*
X130057057Y-77990000D01*
X99810000Y-91000000D02*
X91292894Y-91000000D01*
X102938000Y-94128000D02*
X101510000Y-92700000D01*
X109372000Y-94128000D02*
X108669394Y-94128000D01*
X135500000Y-77500000D02*
X135010000Y-77990000D01*
X135010000Y-77990000D02*
X131602943Y-77990000D01*
X110500000Y-92297394D02*
X110500000Y-93000000D01*
X131602943Y-77990000D02*
X131592943Y-78000000D01*
X123280000Y-82227057D02*
X122207057Y-83300000D01*
X101000000Y-99000000D02*
X101500000Y-99000000D01*
X91292894Y-91000000D02*
X91000000Y-91292894D01*
X104197394Y-97571049D02*
X102938000Y-96311655D01*
X110396447Y-98896447D02*
X109292894Y-100000000D01*
X93523654Y-100150000D02*
X99850000Y-100150000D01*
X122207057Y-83300000D02*
X121455443Y-83300000D01*
X120752500Y-84002943D02*
X120752500Y-84997057D01*
X119909557Y-85840000D02*
X118915443Y-85840000D01*
X109292894Y-100000000D02*
X104197394Y-100000000D01*
X138500000Y-78000000D02*
X138510000Y-77990000D01*
X110500000Y-93000000D02*
X109372000Y-94128000D01*
X110292894Y-98000000D02*
X110396447Y-98103553D01*
X91000000Y-97626346D02*
X93523654Y-100150000D01*
X101510000Y-92700000D02*
X99810000Y-91000000D01*
X102938000Y-96311655D02*
X102938000Y-94128000D01*
X146140000Y-77990000D02*
X147340000Y-79190000D01*
X104197394Y-100000000D02*
X104197394Y-97571049D01*
X125820000Y-78180000D02*
X125820000Y-79687057D01*
X109500000Y-98000000D02*
X110292894Y-98000000D01*
X123280000Y-81232943D02*
X123280000Y-82227057D01*
X108669394Y-94128000D02*
X108018000Y-94779394D01*
X117000000Y-90000000D02*
X115412000Y-91588000D01*
X118915443Y-85840000D02*
X118212500Y-86542943D01*
X118212500Y-88712500D02*
X119500000Y-90000000D01*
X123982943Y-80530000D02*
X123280000Y-81232943D01*
X110396447Y-98103553D02*
X110396447Y-98896447D01*
X130057057Y-77990000D02*
X126010000Y-77990000D01*
X131592943Y-78000000D02*
X130067057Y-78000000D01*
X108018000Y-96518000D02*
X109500000Y-98000000D01*
X119500000Y-90000000D02*
X117000000Y-90000000D01*
X126010000Y-77990000D02*
X125820000Y-78180000D01*
X125820000Y-79687057D02*
X124977057Y-80530000D01*
X118212500Y-86542943D02*
X118212500Y-88712500D01*
X91000000Y-91292894D02*
X91000000Y-97626346D01*
D19*
%TO.N,GND*%
X148558000Y-144712000D02*
X110758000Y-144712000D01*
X110758000Y-144712000D02*
X104990000Y-150480000D01*
X146570000Y-89500000D02*
X144500000Y-89500000D01*
X149770000Y-92700000D02*
X146570000Y-89500000D01*
X149770000Y-143500000D02*
X148558000Y-144712000D01*
D17*
%TO.N,/CAN_SLNT*%
X97370000Y-150480000D02*
X102622000Y-145228000D01*
X102622000Y-145228000D02*
X102622000Y-140815394D01*
X102622000Y-140815394D02*
X103937394Y-139500000D01*
X103937394Y-139500000D02*
X117830000Y-139500000D01*
X117830000Y-139500000D02*
X119290000Y-140960000D01*
%TO.N,/GPIO2_23*%
X115000000Y-90500000D02*
X115000000Y-88500000D01*
X115000000Y-88500000D02*
X115500000Y-88000000D01*
%TO.N,/GPIO2_8*%
X97542000Y-93812000D02*
X96430000Y-92700000D01*
X97542000Y-97458000D02*
X97542000Y-93812000D01*
X125000000Y-77000000D02*
X125500000Y-77500000D01*
X122000000Y-77000000D02*
X125000000Y-77000000D01*
X96500000Y-98500000D02*
X97542000Y-97458000D01*
%TO.N,/GPIO2_10*%
X98970000Y-92700000D02*
X97858000Y-91588000D01*
X91588000Y-91588000D02*
X91588000Y-97507239D01*
X97850000Y-99650000D02*
X99000000Y-98500000D01*
X97858000Y-91588000D02*
X91588000Y-91588000D01*
X91588000Y-97507239D02*
X93730761Y-99650000D01*
X93730761Y-99650000D02*
X97850000Y-99650000D01*
D18*
%TO.N,/CAN1_RX*%
X100000000Y-153000000D02*
X100000000Y-152500000D01*
X100000000Y-152500000D02*
X99910000Y-152410000D01*
X99910000Y-152410000D02*
X99910000Y-150480000D01*
D17*
%TO.N,/UART_RX*%
X130772500Y-86682943D02*
X130772500Y-87727500D01*
X132609557Y-85700000D02*
X131755443Y-85700000D01*
X133452500Y-84002943D02*
X133452500Y-84857057D01*
X125482000Y-92518000D02*
X125482000Y-94128000D01*
X126412000Y-91588000D02*
X125482000Y-92518000D01*
X133452500Y-84857057D02*
X132609557Y-85700000D01*
X131755443Y-85700000D02*
X130772500Y-86682943D01*
D18*
X124370000Y-96370000D02*
X124370000Y-95240000D01*
D17*
X135610000Y-83300000D02*
X134155443Y-83300000D01*
X137180000Y-81730000D02*
X135610000Y-83300000D01*
D18*
X124500000Y-97500000D02*
X124500000Y-96500000D01*
D17*
X134155443Y-83300000D02*
X133452500Y-84002943D01*
X125482000Y-94128000D02*
X124370000Y-95240000D01*
D18*
X124500000Y-96500000D02*
X124370000Y-96370000D01*
D17*
X130772500Y-87727500D02*
X126912000Y-91588000D01*
X126912000Y-91588000D02*
X126412000Y-91588000D01*
%TO.N,/GPIO2_6*%
X125419239Y-76500000D02*
X125919239Y-77000000D01*
X135080761Y-77000000D02*
X135230761Y-76850000D01*
X122419239Y-76500000D02*
X125419239Y-76500000D01*
X135230761Y-76850000D02*
X135769239Y-76850000D01*
X95002000Y-95700606D02*
X95002000Y-93812000D01*
X94500000Y-96202606D02*
X95002000Y-95700606D01*
X121580761Y-76500000D02*
X121730761Y-76350000D01*
X125919239Y-77000000D02*
X135080761Y-77000000D01*
X137180000Y-78260761D02*
X137180000Y-79190000D01*
X135769239Y-76850000D02*
X137180000Y-78260761D01*
X95002000Y-93812000D02*
X93890000Y-92700000D01*
X94500000Y-99000000D02*
X94500000Y-96202606D01*
X118650000Y-76500000D02*
X121580761Y-76500000D01*
X118500000Y-76350000D02*
X118650000Y-76500000D01*
X121730761Y-76350000D02*
X122269239Y-76350000D01*
X122269239Y-76350000D02*
X122419239Y-76500000D01*
%TO.N,/GPIO2_7*%
X93500000Y-98500000D02*
X93890000Y-98110000D01*
X93500000Y-98500000D02*
X93390000Y-98390000D01*
X93890000Y-98110000D02*
X93890000Y-95240000D01*
D18*
%TO.N,/GPIO1_13*%
X107188846Y-85890000D02*
X107862500Y-85216346D01*
X106500000Y-91000000D02*
X106500000Y-88500000D01*
X107862500Y-82892500D02*
X106700000Y-81730000D01*
X107862500Y-85216346D02*
X107862500Y-82892500D01*
X106500000Y-91000000D02*
X105112000Y-92388000D01*
X106500000Y-88500000D02*
X105562500Y-87562500D01*
X105562500Y-87562500D02*
X105562500Y-86563654D01*
X105112000Y-92388000D02*
X105112000Y-97612000D01*
X134565686Y-102500000D02*
X138000000Y-102500000D01*
X133065686Y-104000000D02*
X134565686Y-102500000D01*
X111500000Y-104000000D02*
X133065686Y-104000000D01*
X105562500Y-86563654D02*
X106236154Y-85890000D01*
X105112000Y-97612000D02*
X106500000Y-99000000D01*
X106236154Y-85890000D02*
X107188846Y-85890000D01*
D17*
%TO.N,/GPIO2_9*%
X96430000Y-95240000D02*
X95500000Y-96170000D01*
X103269239Y-97350000D02*
X102730761Y-97350000D01*
X101730762Y-98350000D02*
X101230761Y-98350000D01*
X112592606Y-93350000D02*
X111814606Y-94128000D01*
X110242000Y-95095394D02*
X110242000Y-95700606D01*
X102730761Y-97350000D02*
X101730762Y-98350000D01*
X101080760Y-98500000D02*
X101000000Y-98500000D01*
X123292500Y-84857057D02*
X122449557Y-85700000D01*
X115638000Y-92239394D02*
X115638000Y-93160606D01*
X123995443Y-83300000D02*
X123292500Y-84002943D01*
X123292500Y-84002943D02*
X123292500Y-84857057D01*
X120612500Y-86682943D02*
X120612500Y-89680394D01*
X125820000Y-82680001D02*
X125200001Y-83300000D01*
X95500000Y-96500000D02*
X95500000Y-98500000D01*
X120612500Y-89680394D02*
X119396447Y-90896447D01*
X111814606Y-94128000D02*
X111209394Y-94128000D01*
X134640000Y-79190000D02*
X133300000Y-80530000D01*
X122449557Y-85700000D02*
X121595443Y-85700000D01*
X103697394Y-97778155D02*
X103269239Y-97350000D01*
X116980947Y-90896447D02*
X115638000Y-92239394D01*
X103697394Y-100500000D02*
X103697394Y-97778155D01*
X114986606Y-93812000D02*
X113731239Y-93812000D01*
X111209394Y-94128000D02*
X110242000Y-95095394D01*
X100398000Y-95234000D02*
X100082000Y-94918000D01*
X125820000Y-81232943D02*
X125820000Y-82680001D01*
X110000000Y-97000000D02*
X111500000Y-98500000D01*
X101230761Y-98350000D02*
X101080760Y-98500000D01*
X109500000Y-100500000D02*
X103697394Y-100500000D01*
X121595443Y-85700000D02*
X120612500Y-86682943D01*
X125200001Y-83300000D02*
X123995443Y-83300000D01*
X133300000Y-80530000D02*
X126522943Y-80530000D01*
X100082000Y-94918000D02*
X100082000Y-96066000D01*
X101000000Y-98500000D02*
X100398000Y-97898000D01*
X110242000Y-95700606D02*
X110000000Y-95942606D01*
X115638000Y-93160606D02*
X114986606Y-93812000D01*
X113731239Y-93812000D02*
X113269239Y-93350000D01*
X100398000Y-97898000D02*
X100398000Y-95234000D01*
X126522943Y-80530000D02*
X125820000Y-81232943D01*
X100082000Y-96066000D02*
X99432000Y-96716000D01*
X113269239Y-93350000D02*
X112592606Y-93350000D01*
X119396447Y-90896447D02*
X116980947Y-90896447D01*
X110000000Y-95942606D02*
X110000000Y-97000000D01*
X111500000Y-98500000D02*
X109500000Y-100500000D01*
X95500000Y-96170000D02*
X95500000Y-96500000D01*
%TO.N,/GPIO2_25*%
X123641394Y-89000000D02*
X120402000Y-92239394D01*
X120402000Y-92239394D02*
X120402000Y-93226000D01*
X114210000Y-95790000D02*
X114210000Y-95240000D01*
X113000000Y-97000000D02*
X114210000Y-95790000D01*
X113000000Y-98000000D02*
X113000000Y-97000000D01*
X120402000Y-93226000D02*
X119500000Y-94128000D01*
X114760000Y-95240000D02*
X114210000Y-95240000D01*
X119500000Y-94128000D02*
X115872000Y-94128000D01*
X126500000Y-89000000D02*
X123641394Y-89000000D01*
X115872000Y-94128000D02*
X114760000Y-95240000D01*
D18*
%TO.N,/GPIO1_15*%
X111500000Y-100500000D02*
X111600000Y-100400000D01*
X115482500Y-85017500D02*
X115482500Y-82892500D01*
X113000000Y-88500000D02*
X113000000Y-86500000D01*
X111600000Y-100400000D02*
X128600000Y-100400000D01*
X128600000Y-100400000D02*
X132000000Y-97000000D01*
X113610000Y-85890000D02*
X114610000Y-85890000D01*
X114610000Y-85890000D02*
X115482500Y-85017500D01*
X115482500Y-82892500D02*
X114320000Y-81730000D01*
X113000000Y-86500000D02*
X113610000Y-85890000D01*
X111000000Y-90500000D02*
X113000000Y-88500000D01*
D17*
%TO.N,/GPI02_22*%
X123152500Y-86347499D02*
X123152500Y-87847500D01*
X123659999Y-85840000D02*
X123152500Y-86347499D01*
X125692500Y-85307499D02*
X125159999Y-85840000D01*
X125159999Y-85840000D02*
X123659999Y-85840000D01*
X125692500Y-83997057D02*
X125692500Y-85307499D01*
X127990000Y-83300000D02*
X126389557Y-83300000D01*
X117862000Y-91588000D02*
X116750000Y-92700000D01*
X129560000Y-81730000D02*
X127990000Y-83300000D01*
X123152500Y-87847500D02*
X119412000Y-91588000D01*
X126389557Y-83300000D02*
X125692500Y-83997057D01*
X119412000Y-91588000D02*
X117862000Y-91588000D01*
%TO.N,/GPIO2_13*%
X102500000Y-100000000D02*
X103000000Y-99500000D01*
X101500000Y-95250000D02*
X101510000Y-95240000D01*
X103000000Y-99500000D02*
X103000000Y-98000000D01*
X101500000Y-97500000D02*
X101500000Y-95250000D01*
D18*
%TO.N,/GPIO1_12*%
X108000000Y-88205000D02*
X108000000Y-92791895D01*
X106150105Y-94178000D02*
X105528000Y-94800105D01*
X109240000Y-81730000D02*
X110500000Y-82990000D01*
X105528000Y-97028000D02*
X107500000Y-99000000D01*
X134000000Y-102500000D02*
X137000000Y-99500000D01*
X108776154Y-85890000D02*
X108102500Y-86563654D01*
X108102500Y-86563654D02*
X108102500Y-88102500D01*
X109610000Y-85890000D02*
X108776154Y-85890000D01*
X111500000Y-102500000D02*
X134000000Y-102500000D01*
X108000000Y-92791895D02*
X106613895Y-94178000D01*
X110500000Y-85000000D02*
X109610000Y-85890000D01*
X110500000Y-82990000D02*
X110500000Y-85000000D01*
X108102500Y-88102500D02*
X108000000Y-88205000D01*
X105528000Y-94800105D02*
X105528000Y-97028000D01*
X106613895Y-94178000D02*
X106150105Y-94178000D01*
D17*
%TO.N,/GPIO1_17*%
X120500000Y-95482606D02*
X120500000Y-94030000D01*
X140800000Y-85700000D02*
X141000000Y-85500000D01*
X122000000Y-96500000D02*
X121517394Y-96500000D01*
X141200000Y-85700000D02*
X146152500Y-85700000D01*
X129262606Y-97000000D02*
X130562000Y-95700606D01*
X132450606Y-93812000D02*
X133102000Y-93160606D01*
X121517394Y-96500000D02*
X120500000Y-95482606D01*
X133102000Y-92398000D02*
X137260000Y-88240000D01*
X131688000Y-93812000D02*
X132450606Y-93812000D01*
X138532500Y-87397057D02*
X138532500Y-86542943D01*
X120500000Y-94030000D02*
X121830000Y-92700000D01*
X141000000Y-85500000D02*
X141200000Y-85700000D01*
X130562000Y-95700606D02*
X130562000Y-94938000D01*
X128500000Y-97000000D02*
X129262606Y-97000000D01*
X138532500Y-86542943D02*
X139375443Y-85700000D01*
X133102000Y-93160606D02*
X133102000Y-92398000D01*
X137689557Y-88240000D02*
X138532500Y-87397057D01*
X137260000Y-88240000D02*
X137689557Y-88240000D01*
X130562000Y-94938000D02*
X131688000Y-93812000D01*
X139375443Y-85700000D02*
X140800000Y-85700000D01*
X146152500Y-85700000D02*
X147352500Y-84500000D01*
D18*
%TO.N,/GPIO1_26*%
X110642500Y-86563654D02*
X111316154Y-85890000D01*
X111316154Y-85890000D02*
X112268846Y-85890000D01*
X109500000Y-89285000D02*
X110642500Y-88142500D01*
X113000000Y-85158846D02*
X113000000Y-82950000D01*
X112268846Y-85890000D02*
X113000000Y-85158846D01*
X109500000Y-91000000D02*
X109500000Y-89285000D01*
X110642500Y-88142500D02*
X110642500Y-86563654D01*
X111600000Y-101600000D02*
X131400000Y-101600000D01*
X113000000Y-82950000D02*
X111780000Y-81730000D01*
X131400000Y-101600000D02*
X134000000Y-99000000D01*
X111500000Y-101500000D02*
X111600000Y-101600000D01*
D17*
%TO.N,/GPIO1_14*%
X113500000Y-90500000D02*
X114332500Y-89667500D01*
X130365000Y-96865000D02*
X127730000Y-99500000D01*
X114332500Y-89667500D02*
X114332500Y-87040000D01*
X127730000Y-99500000D02*
X111500000Y-99500000D01*
D18*
%TO.N,unconnected-(U1-GPIO1_31-Pad20)*%
X126910000Y-95910000D02*
X127000000Y-96000000D01*
D19*
%TO.N,/3V3*%
X123180000Y-77890000D02*
X111890000Y-77890000D01*
X111890000Y-77890000D02*
X111000000Y-77000000D01*
X124480000Y-79190000D02*
X123180000Y-77890000D01*
X127032500Y-84500000D02*
X127032500Y-84282500D01*
%TD*%
%TA.AperFunction,Conductor*%
%TO.N,GND*%
G36*
X149389000Y-141010160D02*
G01*
X149414964Y-141107061D01*
X149465124Y-141193940D01*
X149536060Y-141264876D01*
X149622939Y-141315036D01*
X149719840Y-141341000D01*
X149742553Y-141341000D01*
X149071810Y-142011740D01*
X149136589Y-142057098D01*
X149266373Y-142117618D01*
X149318812Y-142163790D01*
X149337964Y-142230984D01*
X149317748Y-142297865D01*
X149266373Y-142342382D01*
X149136590Y-142402901D01*
X149071811Y-142448258D01*
X149742553Y-143119000D01*
X149719840Y-143119000D01*
X149622939Y-143144964D01*
X149536060Y-143195124D01*
X149465124Y-143266060D01*
X149414964Y-143352939D01*
X149389000Y-143449840D01*
X149389000Y-143472553D01*
X148718258Y-142801811D01*
X148672901Y-142866590D01*
X148612658Y-142995781D01*
X148566485Y-143048220D01*
X148499292Y-143067372D01*
X148432411Y-143047156D01*
X148387894Y-142995781D01*
X148327534Y-142866340D01*
X148327533Y-142866338D01*
X148200827Y-142685381D01*
X148200823Y-142685377D01*
X148044620Y-142529174D01*
X148044616Y-142529171D01*
X148044615Y-142529170D01*
X147863666Y-142402468D01*
X147863658Y-142402464D01*
X147734811Y-142342382D01*
X147682371Y-142296210D01*
X147663219Y-142229017D01*
X147683435Y-142162135D01*
X147734811Y-142117618D01*
X147740802Y-142114824D01*
X147863662Y-142057534D01*
X148044620Y-141930826D01*
X148200826Y-141774620D01*
X148327534Y-141593662D01*
X148387894Y-141464218D01*
X148434066Y-141411779D01*
X148501259Y-141392627D01*
X148568141Y-141412843D01*
X148612658Y-141464219D01*
X148672898Y-141593405D01*
X148672901Y-141593411D01*
X148718258Y-141658187D01*
X148718259Y-141658188D01*
X149389000Y-140987447D01*
X149389000Y-141010160D01*
G37*
%TD.AperFunction*%
%TA.AperFunction,Conductor*%
G36*
X132362500Y-88370633D02*
G01*
X132575983Y-88313433D01*
X132575992Y-88313429D01*
X132790078Y-88213600D01*
X132983582Y-88078105D01*
X133150605Y-87911082D01*
X133280619Y-87725405D01*
X133335196Y-87681781D01*
X133404695Y-87674588D01*
X133467049Y-87706110D01*
X133483769Y-87725405D01*
X133614005Y-87911401D01*
X133614006Y-87911402D01*
X133704344Y-88001740D01*
X133737829Y-88063063D01*
X133732845Y-88132755D01*
X133704344Y-88177102D01*
X130272114Y-91609332D01*
X130210791Y-91642817D01*
X130141099Y-91637833D01*
X130113312Y-91623227D01*
X130083662Y-91602466D01*
X129883450Y-91509106D01*
X129883447Y-91509105D01*
X129883445Y-91509104D01*
X129670070Y-91451930D01*
X129670062Y-91451929D01*
X129450002Y-91432677D01*
X129449998Y-91432677D01*
X129229937Y-91451929D01*
X129229929Y-91451930D01*
X129016554Y-91509104D01*
X129016548Y-91509107D01*
X128816340Y-91602465D01*
X128816338Y-91602466D01*
X128635377Y-91729175D01*
X128479175Y-91885377D01*
X128352466Y-92066338D01*
X128352465Y-92066340D01*
X128292382Y-92195189D01*
X128246209Y-92247628D01*
X128179016Y-92266780D01*
X128112135Y-92246564D01*
X128067618Y-92195189D01*
X128007534Y-92066340D01*
X128007533Y-92066338D01*
X127962350Y-92001810D01*
X127880826Y-91885380D01*
X127880824Y-91885377D01*
X127795377Y-91799930D01*
X127761892Y-91738607D01*
X127766876Y-91668915D01*
X127795377Y-91624568D01*
X129483644Y-89936301D01*
X131226910Y-88193035D01*
X131288231Y-88159552D01*
X131357923Y-88164536D01*
X131385713Y-88179144D01*
X131434914Y-88213596D01*
X131434920Y-88213599D01*
X131649007Y-88313429D01*
X131649016Y-88313433D01*
X131862500Y-88370634D01*
X131862500Y-87473012D01*
X131919507Y-87505925D01*
X132046674Y-87540000D01*
X132178326Y-87540000D01*
X132305493Y-87505925D01*
X132362500Y-87473012D01*
X132362500Y-88370633D01*
G37*
%TD.AperFunction*%
%TA.AperFunction,Conductor*%
G36*
X131646575Y-86847007D02*
G01*
X131612500Y-86974174D01*
X131612500Y-87105826D01*
X131646575Y-87232993D01*
X131679488Y-87290000D01*
X131547000Y-87290000D01*
X131479961Y-87270315D01*
X131434206Y-87217511D01*
X131423000Y-87166000D01*
X131423000Y-87003751D01*
X131442685Y-86936712D01*
X131459319Y-86916070D01*
X131549070Y-86826319D01*
X131610393Y-86792834D01*
X131636751Y-86790000D01*
X131679488Y-86790000D01*
X131646575Y-86847007D01*
G37*
%TD.AperFunction*%
%TA.AperFunction,Conductor*%
G36*
X130065039Y-86809685D02*
G01*
X130110794Y-86862489D01*
X130122000Y-86914000D01*
X130122000Y-87166000D01*
X130102315Y-87233039D01*
X130049511Y-87278794D01*
X130006591Y-87288131D01*
X130038425Y-87232993D01*
X130072500Y-87105826D01*
X130072500Y-86974174D01*
X130038425Y-86847007D01*
X130007045Y-86792656D01*
X130065039Y-86809685D01*
G37*
%TD.AperFunction*%
%TA.AperFunction,Conductor*%
G36*
X132305539Y-86370185D02*
G01*
X132351294Y-86422989D01*
X132362500Y-86474500D01*
X132362500Y-86606988D01*
X132305493Y-86574075D01*
X132178326Y-86540000D01*
X132046674Y-86540000D01*
X131919507Y-86574075D01*
X131862500Y-86606988D01*
X131862500Y-86564251D01*
X131882185Y-86497212D01*
X131898819Y-86476570D01*
X131988570Y-86386819D01*
X132049893Y-86353334D01*
X132076251Y-86350500D01*
X132238500Y-86350500D01*
X132305539Y-86370185D01*
G37*
%TD.AperFunction*%
%TA.AperFunction,Conductor*%
G36*
X129765539Y-86510185D02*
G01*
X129811294Y-86562989D01*
X129820631Y-86605908D01*
X129765493Y-86574075D01*
X129638326Y-86540000D01*
X129506674Y-86540000D01*
X129379507Y-86574075D01*
X129325156Y-86605454D01*
X129342185Y-86547461D01*
X129394989Y-86501706D01*
X129446500Y-86490500D01*
X129698500Y-86490500D01*
X129765539Y-86510185D01*
G37*
%TD.AperFunction*%
%TA.AperFunction,Conductor*%
G36*
X129822500Y-84975749D02*
G01*
X129802815Y-85042788D01*
X129786181Y-85063430D01*
X129696430Y-85153181D01*
X129635107Y-85186666D01*
X129608749Y-85189500D01*
X129446500Y-85189500D01*
X129379461Y-85169815D01*
X129333706Y-85117011D01*
X129322500Y-85065500D01*
X129322500Y-84933012D01*
X129379507Y-84965925D01*
X129506674Y-85000000D01*
X129638326Y-85000000D01*
X129765493Y-84965925D01*
X129822500Y-84933012D01*
X129822500Y-84975749D01*
G37*
%TD.AperFunction*%
%TA.AperFunction,Conductor*%
G36*
X131919507Y-84965925D02*
G01*
X132046674Y-85000000D01*
X132178326Y-85000000D01*
X132305493Y-84965925D01*
X132359843Y-84934545D01*
X132342815Y-84992539D01*
X132290011Y-85038294D01*
X132238500Y-85049500D01*
X131986500Y-85049500D01*
X131919461Y-85029815D01*
X131873706Y-84977011D01*
X131864368Y-84934091D01*
X131919507Y-84965925D01*
G37*
%TD.AperFunction*%
%TA.AperFunction,Conductor*%
G36*
X131646575Y-84307007D02*
G01*
X131612500Y-84434174D01*
X131612500Y-84565826D01*
X131646575Y-84692993D01*
X131679488Y-84750000D01*
X131547000Y-84750000D01*
X131479961Y-84730315D01*
X131434206Y-84677511D01*
X131423000Y-84626000D01*
X131423000Y-84374000D01*
X131442685Y-84306961D01*
X131495489Y-84261206D01*
X131547000Y-84250000D01*
X131679488Y-84250000D01*
X131646575Y-84307007D01*
G37*
%TD.AperFunction*%
%TA.AperFunction,Conductor*%
G36*
X130065039Y-84269685D02*
G01*
X130110794Y-84322489D01*
X130122000Y-84374000D01*
X130122000Y-84626000D01*
X130102315Y-84693039D01*
X130049511Y-84738794D01*
X130006591Y-84748131D01*
X130038425Y-84692993D01*
X130072500Y-84565826D01*
X130072500Y-84434174D01*
X130038425Y-84307007D01*
X130007045Y-84252656D01*
X130065039Y-84269685D01*
G37*
%TD.AperFunction*%
%TA.AperFunction,Conductor*%
G36*
X85027671Y-74600510D02*
G01*
X85090312Y-74601286D01*
X85103573Y-74600500D01*
X165134108Y-74600500D01*
X165197177Y-74600500D01*
X165202827Y-74600628D01*
X165604022Y-74618931D01*
X165615272Y-74619959D01*
X166010336Y-74674328D01*
X166021441Y-74676376D01*
X166409932Y-74766492D01*
X166420788Y-74769538D01*
X166713308Y-74866188D01*
X166799454Y-74894651D01*
X166810010Y-74898681D01*
X167175712Y-75057750D01*
X167185845Y-75062720D01*
X167535530Y-75254416D01*
X167545176Y-75260291D01*
X167875970Y-75483041D01*
X167885047Y-75489774D01*
X168194165Y-75741699D01*
X168202591Y-75749230D01*
X168487499Y-76028263D01*
X168495201Y-76036527D01*
X168696716Y-76273534D01*
X168753520Y-76340342D01*
X168760437Y-76349272D01*
X168826454Y-76443035D01*
X168990025Y-76675352D01*
X168996102Y-76684877D01*
X169195043Y-77030498D01*
X169200224Y-77040530D01*
X169366871Y-77402830D01*
X169371121Y-77413301D01*
X169504089Y-77789265D01*
X169507368Y-77800081D01*
X169605553Y-78186594D01*
X169607833Y-78197663D01*
X169670416Y-78591492D01*
X169671680Y-78602723D01*
X169698142Y-79000548D01*
X169698415Y-79008774D01*
X169698728Y-87944984D01*
X169699311Y-104629816D01*
X169699539Y-111125496D01*
X169679857Y-111192536D01*
X169627054Y-111238293D01*
X169575539Y-111249500D01*
X149684108Y-111249500D01*
X149556812Y-111283608D01*
X149442686Y-111349500D01*
X149442683Y-111349502D01*
X149349502Y-111442683D01*
X149349500Y-111442686D01*
X149283608Y-111556812D01*
X149249500Y-111684108D01*
X149249500Y-129565891D01*
X149283608Y-129693187D01*
X149316554Y-129750250D01*
X149349500Y-129807314D01*
X149442686Y-129900500D01*
X149556814Y-129966392D01*
X149684108Y-130000500D01*
X163625500Y-130000500D01*
X163692539Y-130020185D01*
X163738294Y-130072989D01*
X163749500Y-130124500D01*
X163749500Y-145565892D01*
X163766554Y-145629539D01*
X163783608Y-145693187D01*
X163816554Y-145750250D01*
X163849500Y-145807314D01*
X163942686Y-145900500D01*
X164056814Y-145966392D01*
X164184108Y-146000500D01*
X164315892Y-146000500D01*
X169622933Y-146000500D01*
X169689972Y-146020185D01*
X169735727Y-146072989D01*
X169746932Y-146125009D01*
X169669806Y-164924165D01*
X169669500Y-164928711D01*
X169669500Y-164997282D01*
X169669382Y-165002691D01*
X169652614Y-165386750D01*
X169651671Y-165397526D01*
X169601849Y-165775957D01*
X169599971Y-165786610D01*
X169517354Y-166159272D01*
X169514554Y-166169721D01*
X169399775Y-166533755D01*
X169396075Y-166543921D01*
X169250002Y-166896572D01*
X169245430Y-166906376D01*
X169069183Y-167244942D01*
X169063775Y-167254310D01*
X168858681Y-167576244D01*
X168852476Y-167585105D01*
X168620110Y-167887930D01*
X168613156Y-167896217D01*
X168355284Y-168177635D01*
X168347635Y-168185284D01*
X168066217Y-168443156D01*
X168057930Y-168450110D01*
X167755105Y-168682476D01*
X167746244Y-168688681D01*
X167424310Y-168893775D01*
X167414942Y-168899183D01*
X167076376Y-169075430D01*
X167066572Y-169080002D01*
X166713921Y-169226075D01*
X166703755Y-169229775D01*
X166339721Y-169344554D01*
X166329272Y-169347354D01*
X165956610Y-169429971D01*
X165945957Y-169431849D01*
X165567526Y-169481671D01*
X165556750Y-169482614D01*
X165172703Y-169499382D01*
X165167294Y-169499500D01*
X135561562Y-169499500D01*
X135494523Y-169479815D01*
X135448768Y-169427011D01*
X135440272Y-169401281D01*
X135402239Y-169222352D01*
X135402238Y-169222350D01*
X135402238Y-169222348D01*
X135305053Y-168923241D01*
X135177134Y-168635932D01*
X135177131Y-168635928D01*
X135177130Y-168635924D01*
X135019887Y-168363571D01*
X135019884Y-168363566D01*
X134835032Y-168109139D01*
X134835025Y-168109130D01*
X134737214Y-168000500D01*
X134624586Y-167875414D01*
X134400653Y-167673784D01*
X134390869Y-167664974D01*
X134390860Y-167664967D01*
X134136433Y-167480115D01*
X134136428Y-167480112D01*
X133864075Y-167322869D01*
X133864068Y-167322866D01*
X133576759Y-167194947D01*
X133576754Y-167194945D01*
X133576751Y-167194944D01*
X133277649Y-167097761D01*
X133277647Y-167097760D01*
X133012415Y-167041384D01*
X132970026Y-167032374D01*
X132657250Y-166999500D01*
X132565892Y-166999500D01*
X117565892Y-166999500D01*
X117500000Y-166999500D01*
X117342750Y-166999500D01*
X117029974Y-167032374D01*
X117029970Y-167032374D01*
X117029968Y-167032375D01*
X116722352Y-167097760D01*
X116722350Y-167097761D01*
X116423248Y-167194944D01*
X116135931Y-167322866D01*
X116135924Y-167322869D01*
X115863571Y-167480112D01*
X115863566Y-167480115D01*
X115609139Y-167664967D01*
X115609130Y-167664974D01*
X115375414Y-167875414D01*
X115164974Y-168109130D01*
X115164967Y-168109139D01*
X114980115Y-168363566D01*
X114980112Y-168363571D01*
X114822869Y-168635924D01*
X114822866Y-168635931D01*
X114694944Y-168923248D01*
X114597761Y-169222350D01*
X114597760Y-169222352D01*
X114559728Y-169401281D01*
X114526535Y-169462763D01*
X114465372Y-169496539D01*
X114438438Y-169499500D01*
X85002706Y-169499500D01*
X84997297Y-169499382D01*
X84613249Y-169482614D01*
X84602473Y-169481671D01*
X84224042Y-169431849D01*
X84213389Y-169429971D01*
X83840727Y-169347354D01*
X83830278Y-169344554D01*
X83466244Y-169229775D01*
X83456078Y-169226075D01*
X83103427Y-169080002D01*
X83093623Y-169075430D01*
X82755057Y-168899183D01*
X82745689Y-168893775D01*
X82423755Y-168688681D01*
X82414894Y-168682476D01*
X82112069Y-168450110D01*
X82103782Y-168443156D01*
X81822364Y-168185284D01*
X81814715Y-168177635D01*
X81556843Y-167896217D01*
X81549889Y-167887930D01*
X81317523Y-167585105D01*
X81311318Y-167576244D01*
X81106224Y-167254310D01*
X81100816Y-167244942D01*
X80973924Y-167001185D01*
X80924566Y-166906369D01*
X80919997Y-166896572D01*
X80868726Y-166772793D01*
X80773920Y-166543911D01*
X80770224Y-166533755D01*
X80736626Y-166427194D01*
X80655442Y-166169710D01*
X80652648Y-166159284D01*
X80570025Y-165786597D01*
X80568152Y-165775971D01*
X80518326Y-165397506D01*
X80517386Y-165386771D01*
X80500618Y-165002702D01*
X80500500Y-164997293D01*
X80500500Y-164919999D01*
X81404422Y-164919999D01*
X81404422Y-164920000D01*
X81424722Y-165307339D01*
X81485397Y-165690427D01*
X81485398Y-165690433D01*
X81511168Y-165786610D01*
X81585788Y-166065094D01*
X81724787Y-166427197D01*
X81900877Y-166772793D01*
X82112122Y-167098082D01*
X82190562Y-167194947D01*
X82356219Y-167399516D01*
X82630484Y-167673781D01*
X82630488Y-167673784D01*
X82931917Y-167917877D01*
X83164058Y-168068631D01*
X83257211Y-168129125D01*
X83602806Y-168305214D01*
X83964913Y-168444214D01*
X84339567Y-168544602D01*
X84722662Y-168605278D01*
X85088576Y-168624455D01*
X85109999Y-168625578D01*
X85110000Y-168625578D01*
X85110001Y-168625578D01*
X85130301Y-168624514D01*
X85497338Y-168605278D01*
X85880433Y-168544602D01*
X86255087Y-168444214D01*
X86617194Y-168305214D01*
X86962789Y-168129125D01*
X87288084Y-167917876D01*
X87589516Y-167673781D01*
X87863781Y-167399516D01*
X88107876Y-167098084D01*
X88319125Y-166772789D01*
X88495214Y-166427194D01*
X88634214Y-166065087D01*
X88734602Y-165690433D01*
X88795278Y-165307338D01*
X88815578Y-164920000D01*
X88815578Y-164919999D01*
X161414422Y-164919999D01*
X161414422Y-164920000D01*
X161434722Y-165307339D01*
X161495397Y-165690427D01*
X161495398Y-165690433D01*
X161521168Y-165786610D01*
X161595788Y-166065094D01*
X161734787Y-166427197D01*
X161910877Y-166772793D01*
X162122122Y-167098082D01*
X162200562Y-167194947D01*
X162366219Y-167399516D01*
X162640484Y-167673781D01*
X162640488Y-167673784D01*
X162941917Y-167917877D01*
X163174058Y-168068631D01*
X163267211Y-168129125D01*
X163612806Y-168305214D01*
X163974913Y-168444214D01*
X164349567Y-168544602D01*
X164732662Y-168605278D01*
X165098576Y-168624455D01*
X165119999Y-168625578D01*
X165120000Y-168625578D01*
X165120001Y-168625578D01*
X165140301Y-168624514D01*
X165507338Y-168605278D01*
X165890433Y-168544602D01*
X166265087Y-168444214D01*
X166627194Y-168305214D01*
X166972789Y-168129125D01*
X167298084Y-167917876D01*
X167599516Y-167673781D01*
X167873781Y-167399516D01*
X168117876Y-167098084D01*
X168329125Y-166772789D01*
X168505214Y-166427194D01*
X168644214Y-166065087D01*
X168744602Y-165690433D01*
X168805278Y-165307338D01*
X168825578Y-164920000D01*
X168805278Y-164532662D01*
X168744602Y-164149567D01*
X168644214Y-163774913D01*
X168505214Y-163412806D01*
X168329125Y-163067211D01*
X168117876Y-162741916D01*
X167873781Y-162440484D01*
X167599516Y-162166219D01*
X167298084Y-161922124D01*
X167298082Y-161922122D01*
X166972793Y-161710877D01*
X166627197Y-161534787D01*
X166265094Y-161395788D01*
X166265087Y-161395786D01*
X165890433Y-161295398D01*
X165890429Y-161295397D01*
X165890428Y-161295397D01*
X165507339Y-161234722D01*
X165120001Y-161214422D01*
X165119999Y-161214422D01*
X164732660Y-161234722D01*
X164349572Y-161295397D01*
X164349570Y-161295397D01*
X163974905Y-161395788D01*
X163612802Y-161534787D01*
X163267206Y-161710877D01*
X162941917Y-161922122D01*
X162640488Y-162166215D01*
X162640480Y-162166222D01*
X162366222Y-162440480D01*
X162366215Y-162440488D01*
X162122122Y-162741917D01*
X161910877Y-163067206D01*
X161734787Y-163412802D01*
X161595788Y-163774905D01*
X161495397Y-164149570D01*
X161495397Y-164149572D01*
X161434722Y-164532660D01*
X161414422Y-164919999D01*
X88815578Y-164919999D01*
X88795278Y-164532662D01*
X88734602Y-164149567D01*
X88634214Y-163774913D01*
X88495214Y-163412806D01*
X88319125Y-163067211D01*
X88107876Y-162741916D01*
X87863781Y-162440484D01*
X87589516Y-162166219D01*
X87288084Y-161922124D01*
X87288082Y-161922122D01*
X86962793Y-161710877D01*
X86617197Y-161534787D01*
X86255094Y-161395788D01*
X86255087Y-161395786D01*
X85880433Y-161295398D01*
X85880429Y-161295397D01*
X85880428Y-161295397D01*
X85497339Y-161234722D01*
X85110001Y-161214422D01*
X85109999Y-161214422D01*
X84722660Y-161234722D01*
X84339572Y-161295397D01*
X84339570Y-161295397D01*
X83964905Y-161395788D01*
X83602802Y-161534787D01*
X83257206Y-161710877D01*
X82931917Y-161922122D01*
X82630488Y-162166215D01*
X82630480Y-162166222D01*
X82356222Y-162440480D01*
X82356215Y-162440488D01*
X82112122Y-162741917D01*
X81900877Y-163067206D01*
X81724787Y-163412802D01*
X81585788Y-163774905D01*
X81485397Y-164149570D01*
X81485397Y-164149572D01*
X81424722Y-164532660D01*
X81404422Y-164919999D01*
X80500500Y-164919999D01*
X80500500Y-150479997D01*
X91022677Y-150479997D01*
X91022677Y-150480002D01*
X91041929Y-150700062D01*
X91041930Y-150700070D01*
X91099104Y-150913445D01*
X91099105Y-150913447D01*
X91099106Y-150913450D01*
X91132106Y-150984218D01*
X91192466Y-151113662D01*
X91192468Y-151113666D01*
X91319170Y-151294615D01*
X91319175Y-151294621D01*
X91475378Y-151450824D01*
X91475384Y-151450829D01*
X91656333Y-151577531D01*
X91656335Y-151577532D01*
X91656338Y-151577534D01*
X91856550Y-151670894D01*
X92069932Y-151728070D01*
X92227123Y-151741822D01*
X92289998Y-151747323D01*
X92290000Y-151747323D01*
X92290002Y-151747323D01*
X92345017Y-151742509D01*
X92510068Y-151728070D01*
X92723450Y-151670894D01*
X92923662Y-151577534D01*
X93104620Y-151450826D01*
X93260826Y-151294620D01*
X93387534Y-151113662D01*
X93447618Y-150984811D01*
X93493790Y-150932371D01*
X93560983Y-150913219D01*
X93627865Y-150933435D01*
X93672382Y-150984811D01*
X93732464Y-151113658D01*
X93732468Y-151113666D01*
X93859170Y-151294615D01*
X93859175Y-151294621D01*
X94015378Y-151450824D01*
X94015384Y-151450829D01*
X94196333Y-151577531D01*
X94196335Y-151577532D01*
X94196338Y-151577534D01*
X94396550Y-151670894D01*
X94609932Y-151728070D01*
X94767123Y-151741822D01*
X94829998Y-151747323D01*
X94830000Y-151747323D01*
X94830002Y-151747323D01*
X94885017Y-151742509D01*
X95050068Y-151728070D01*
X95263450Y-151670894D01*
X95463662Y-151577534D01*
X95644620Y-151450826D01*
X95800826Y-151294620D01*
X95927534Y-151113662D01*
X95987618Y-150984811D01*
X96033790Y-150932371D01*
X96100983Y-150913219D01*
X96167865Y-150933435D01*
X96212382Y-150984811D01*
X96272464Y-151113658D01*
X96272468Y-151113666D01*
X96399170Y-151294615D01*
X96399175Y-151294621D01*
X96555378Y-151450824D01*
X96555384Y-151450829D01*
X96736333Y-151577531D01*
X96736335Y-151577532D01*
X96736338Y-151577534D01*
X96936550Y-151670894D01*
X97149932Y-151728070D01*
X97307123Y-151741822D01*
X97369998Y-151747323D01*
X97370000Y-151747323D01*
X97370002Y-151747323D01*
X97425017Y-151742509D01*
X97590068Y-151728070D01*
X97803450Y-151670894D01*
X98003662Y-151577534D01*
X98184620Y-151450826D01*
X98340826Y-151294620D01*
X98467534Y-151113662D01*
X98527618Y-150984811D01*
X98573790Y-150932371D01*
X98640983Y-150913219D01*
X98707865Y-150933435D01*
X98752382Y-150984811D01*
X98812464Y-151113658D01*
X98812468Y-151113666D01*
X98939170Y-151294615D01*
X98939174Y-151294620D01*
X99095380Y-151450826D01*
X99256623Y-151563729D01*
X99300248Y-151618306D01*
X99309500Y-151665304D01*
X99309500Y-152323330D01*
X99309499Y-152323348D01*
X99309499Y-152330943D01*
X99309499Y-152489057D01*
X99315270Y-152510594D01*
X99313605Y-152580444D01*
X99300489Y-152608655D01*
X99274209Y-152650480D01*
X99214633Y-152820737D01*
X99214630Y-152820750D01*
X99194435Y-152999996D01*
X99194435Y-153000003D01*
X99214630Y-153179249D01*
X99214631Y-153179254D01*
X99274211Y-153349523D01*
X99370184Y-153502262D01*
X99497738Y-153629816D01*
X99650478Y-153725789D01*
X99820745Y-153785368D01*
X99820750Y-153785369D01*
X99999996Y-153805565D01*
X100000000Y-153805565D01*
X100000004Y-153805565D01*
X100179249Y-153785369D01*
X100179252Y-153785368D01*
X100179255Y-153785368D01*
X100349522Y-153725789D01*
X100502262Y-153629816D01*
X100629816Y-153502262D01*
X100725789Y-153349522D01*
X100785368Y-153179255D01*
X100805565Y-153000000D01*
X100785368Y-152820745D01*
X100725789Y-152650478D01*
X100629816Y-152497738D01*
X100629814Y-152497736D01*
X100629813Y-152497734D01*
X100627550Y-152494896D01*
X100626659Y-152492715D01*
X100626111Y-152491842D01*
X100626264Y-152491745D01*
X100601144Y-152430209D01*
X100600779Y-152423068D01*
X100600499Y-152420939D01*
X100591487Y-152387305D01*
X100591487Y-152387304D01*
X100559577Y-152268215D01*
X100559575Y-152268211D01*
X100527113Y-152211985D01*
X100510500Y-152149985D01*
X100510500Y-151665304D01*
X100530185Y-151598265D01*
X100563375Y-151563730D01*
X100724620Y-151450826D01*
X100880826Y-151294620D01*
X101007534Y-151113662D01*
X101067618Y-150984811D01*
X101113790Y-150932371D01*
X101180983Y-150913219D01*
X101247865Y-150933435D01*
X101292382Y-150984811D01*
X101352464Y-151113658D01*
X101352468Y-151113666D01*
X101479170Y-151294615D01*
X101479175Y-151294621D01*
X101635378Y-151450824D01*
X101635384Y-151450829D01*
X101816333Y-151577531D01*
X101816335Y-151577532D01*
X101816338Y-151577534D01*
X102016550Y-151670894D01*
X102229932Y-151728070D01*
X102387123Y-151741822D01*
X102449998Y-151747323D01*
X102450000Y-151747323D01*
X102450002Y-151747323D01*
X102505017Y-151742509D01*
X102670068Y-151728070D01*
X102883450Y-151670894D01*
X103083662Y-151577534D01*
X103264620Y-151450826D01*
X103420826Y-151294620D01*
X103547534Y-151113662D01*
X103607894Y-150984218D01*
X103654066Y-150931779D01*
X103721259Y-150912627D01*
X103788141Y-150932843D01*
X103832658Y-150984219D01*
X103892898Y-151113405D01*
X103892901Y-151113411D01*
X103938258Y-151178187D01*
X103938259Y-151178188D01*
X104609000Y-150507447D01*
X104609000Y-150530160D01*
X104634964Y-150627061D01*
X104685124Y-150713940D01*
X104756060Y-150784876D01*
X104842939Y-150835036D01*
X104939840Y-150861000D01*
X104962553Y-150861000D01*
X104291810Y-151531740D01*
X104356590Y-151577099D01*
X104356592Y-151577100D01*
X104556715Y-151670419D01*
X104556729Y-151670424D01*
X104770013Y-151727573D01*
X104770023Y-151727575D01*
X104989999Y-151746821D01*
X104990001Y-151746821D01*
X105209976Y-151727575D01*
X105209986Y-151727573D01*
X105423270Y-151670424D01*
X105423284Y-151670419D01*
X105623407Y-151577100D01*
X105623417Y-151577094D01*
X105688188Y-151531741D01*
X105017448Y-150861000D01*
X105040160Y-150861000D01*
X105137061Y-150835036D01*
X105223940Y-150784876D01*
X105294876Y-150713940D01*
X105345036Y-150627061D01*
X105371000Y-150530160D01*
X105371000Y-150507447D01*
X106041741Y-151178188D01*
X106087094Y-151113417D01*
X106087095Y-151113416D01*
X106147340Y-150984219D01*
X106193512Y-150931780D01*
X106260706Y-150912627D01*
X106327587Y-150932842D01*
X106372105Y-150984218D01*
X106432466Y-151113662D01*
X106432468Y-151113666D01*
X106559170Y-151294615D01*
X106559175Y-151294621D01*
X106715378Y-151450824D01*
X106715384Y-151450829D01*
X106896333Y-151577531D01*
X106896335Y-151577532D01*
X106896338Y-151577534D01*
X107096550Y-151670894D01*
X107309932Y-151728070D01*
X107467123Y-151741822D01*
X107529998Y-151747323D01*
X107530000Y-151747323D01*
X107530002Y-151747323D01*
X107585017Y-151742509D01*
X107750068Y-151728070D01*
X107963450Y-151670894D01*
X108163662Y-151577534D01*
X108344620Y-151450826D01*
X108500826Y-151294620D01*
X108627534Y-151113662D01*
X108720894Y-150913450D01*
X108778070Y-150700068D01*
X108797323Y-150480000D01*
X108778070Y-150259932D01*
X108720894Y-150046550D01*
X108699186Y-149999998D01*
X111704532Y-149999998D01*
X111704532Y-150000001D01*
X111724364Y-150226686D01*
X111724366Y-150226697D01*
X111783258Y-150446488D01*
X111783261Y-150446497D01*
X111879431Y-150652732D01*
X111879432Y-150652734D01*
X112009954Y-150839141D01*
X112170858Y-151000045D01*
X112170861Y-151000047D01*
X112357266Y-151130568D01*
X112563504Y-151226739D01*
X112783308Y-151285635D01*
X112945230Y-151299801D01*
X113009998Y-151305468D01*
X113010000Y-151305468D01*
X113010002Y-151305468D01*
X113066673Y-151300509D01*
X113236692Y-151285635D01*
X113456496Y-151226739D01*
X113662734Y-151130568D01*
X113849139Y-151000047D01*
X114010047Y-150839139D01*
X114140568Y-150652734D01*
X114236739Y-150446496D01*
X114295635Y-150226692D01*
X114315468Y-150000000D01*
X114315468Y-149999998D01*
X121864532Y-149999998D01*
X121864532Y-150000001D01*
X121884364Y-150226686D01*
X121884366Y-150226697D01*
X121943258Y-150446488D01*
X121943261Y-150446497D01*
X122039431Y-150652732D01*
X122039432Y-150652734D01*
X122169954Y-150839141D01*
X122330858Y-151000045D01*
X122330861Y-151000047D01*
X122517266Y-151130568D01*
X122723504Y-151226739D01*
X122943308Y-151285635D01*
X123105230Y-151299801D01*
X123169998Y-151305468D01*
X123170000Y-151305468D01*
X123170002Y-151305468D01*
X123226673Y-151300509D01*
X123396692Y-151285635D01*
X123616496Y-151226739D01*
X123822734Y-151130568D01*
X124009139Y-151000047D01*
X124170047Y-150839139D01*
X124300568Y-150652734D01*
X124396739Y-150446496D01*
X124455635Y-150226692D01*
X124475468Y-150000000D01*
X124475468Y-149999998D01*
X125204532Y-149999998D01*
X125204532Y-150000001D01*
X125224364Y-150226686D01*
X125224366Y-150226697D01*
X125283258Y-150446488D01*
X125283261Y-150446497D01*
X125379431Y-150652732D01*
X125379432Y-150652734D01*
X125509954Y-150839141D01*
X125670858Y-151000045D01*
X125670861Y-151000047D01*
X125857266Y-151130568D01*
X126063504Y-151226739D01*
X126283308Y-151285635D01*
X126445230Y-151299801D01*
X126509998Y-151305468D01*
X126510000Y-151305468D01*
X126510002Y-151305468D01*
X126566673Y-151300509D01*
X126736692Y-151285635D01*
X126956496Y-151226739D01*
X127162734Y-151130568D01*
X127349139Y-151000047D01*
X127510047Y-150839139D01*
X127640568Y-150652734D01*
X127736739Y-150446496D01*
X127795635Y-150226692D01*
X127815468Y-150000000D01*
X127815468Y-149999998D01*
X135364532Y-149999998D01*
X135364532Y-150000001D01*
X135384364Y-150226686D01*
X135384366Y-150226697D01*
X135443258Y-150446488D01*
X135443261Y-150446497D01*
X135539431Y-150652732D01*
X135539432Y-150652734D01*
X135669954Y-150839141D01*
X135830858Y-151000045D01*
X135830861Y-151000047D01*
X136017266Y-151130568D01*
X136223504Y-151226739D01*
X136443308Y-151285635D01*
X136605230Y-151299801D01*
X136669998Y-151305468D01*
X136670000Y-151305468D01*
X136670002Y-151305468D01*
X136726673Y-151300509D01*
X136896692Y-151285635D01*
X137116496Y-151226739D01*
X137322734Y-151130568D01*
X137509139Y-151000047D01*
X137670047Y-150839139D01*
X137800568Y-150652734D01*
X137896739Y-150446496D01*
X137955635Y-150226692D01*
X137975468Y-150000000D01*
X137955635Y-149773308D01*
X137896739Y-149553504D01*
X137800568Y-149347266D01*
X137670047Y-149160861D01*
X137670045Y-149160858D01*
X137509141Y-148999954D01*
X137322734Y-148869432D01*
X137322732Y-148869431D01*
X137116497Y-148773261D01*
X137116488Y-148773258D01*
X136896697Y-148714366D01*
X136896693Y-148714365D01*
X136896692Y-148714365D01*
X136896691Y-148714364D01*
X136896686Y-148714364D01*
X136670002Y-148694532D01*
X136669998Y-148694532D01*
X136443313Y-148714364D01*
X136443302Y-148714366D01*
X136223511Y-148773258D01*
X136223502Y-148773261D01*
X136017267Y-148869431D01*
X136017265Y-148869432D01*
X135830858Y-148999954D01*
X135669954Y-149160858D01*
X135539432Y-149347265D01*
X135539431Y-149347267D01*
X135443261Y-149553502D01*
X135443258Y-149553511D01*
X135384366Y-149773302D01*
X135384364Y-149773313D01*
X135364532Y-149999998D01*
X127815468Y-149999998D01*
X127795635Y-149773308D01*
X127736739Y-149553504D01*
X127640568Y-149347266D01*
X127510047Y-149160861D01*
X127510045Y-149160858D01*
X127349141Y-148999954D01*
X127162734Y-148869432D01*
X127162732Y-148869431D01*
X126956497Y-148773261D01*
X126956488Y-148773258D01*
X126736697Y-148714366D01*
X126736693Y-148714365D01*
X126736692Y-148714365D01*
X126736691Y-148714364D01*
X126736686Y-148714364D01*
X126510002Y-148694532D01*
X126509998Y-148694532D01*
X126283313Y-148714364D01*
X126283302Y-148714366D01*
X126063511Y-148773258D01*
X126063502Y-148773261D01*
X125857267Y-148869431D01*
X125857265Y-148869432D01*
X125670858Y-148999954D01*
X125509954Y-149160858D01*
X125379432Y-149347265D01*
X125379431Y-149347267D01*
X125283261Y-149553502D01*
X125283258Y-149553511D01*
X125224366Y-149773302D01*
X125224364Y-149773313D01*
X125204532Y-149999998D01*
X124475468Y-149999998D01*
X124455635Y-149773308D01*
X124444790Y-149732834D01*
X124446453Y-149662984D01*
X124476882Y-149613062D01*
X126403127Y-147686819D01*
X126464450Y-147653334D01*
X126490808Y-147650500D01*
X138994932Y-147650500D01*
X139060904Y-147669506D01*
X139150477Y-147725789D01*
X139150481Y-147725790D01*
X139320737Y-147785366D01*
X139320743Y-147785367D01*
X139320745Y-147785368D01*
X139320746Y-147785368D01*
X139320750Y-147785369D01*
X139499996Y-147805565D01*
X139500000Y-147805565D01*
X139500004Y-147805565D01*
X139679249Y-147785369D01*
X139679252Y-147785368D01*
X139679255Y-147785368D01*
X139849522Y-147725789D01*
X140002262Y-147629816D01*
X140129816Y-147502262D01*
X140225789Y-147349522D01*
X140285368Y-147179255D01*
X140305565Y-147000000D01*
X140285368Y-146820745D01*
X140225789Y-146650478D01*
X140129816Y-146497738D01*
X140002262Y-146370184D01*
X139939096Y-146330494D01*
X139849523Y-146274211D01*
X139679254Y-146214631D01*
X139679249Y-146214630D01*
X139500004Y-146194435D01*
X139499996Y-146194435D01*
X139320750Y-146214630D01*
X139320737Y-146214633D01*
X139150481Y-146274209D01*
X139150477Y-146274210D01*
X139060904Y-146330494D01*
X138994932Y-146349500D01*
X126105929Y-146349500D01*
X125980261Y-146374497D01*
X125980255Y-146374499D01*
X125861874Y-146423534D01*
X125755326Y-146494726D01*
X123556937Y-148693115D01*
X123495614Y-148726600D01*
X123437163Y-148725209D01*
X123396697Y-148714366D01*
X123396693Y-148714365D01*
X123396692Y-148714365D01*
X123396691Y-148714364D01*
X123396686Y-148714364D01*
X123170002Y-148694532D01*
X123169998Y-148694532D01*
X122943313Y-148714364D01*
X122943302Y-148714366D01*
X122723511Y-148773258D01*
X122723502Y-148773261D01*
X122517267Y-148869431D01*
X122517265Y-148869432D01*
X122330858Y-148999954D01*
X122169954Y-149160858D01*
X122039432Y-149347265D01*
X122039431Y-149347267D01*
X121943261Y-149553502D01*
X121943258Y-149553511D01*
X121884366Y-149773302D01*
X121884364Y-149773313D01*
X121864532Y-149999998D01*
X114315468Y-149999998D01*
X114295635Y-149773308D01*
X114236739Y-149553504D01*
X114140568Y-149347266D01*
X114010047Y-149160861D01*
X114010045Y-149160858D01*
X113849141Y-148999954D01*
X113662734Y-148869432D01*
X113662732Y-148869431D01*
X113456497Y-148773261D01*
X113456488Y-148773258D01*
X113236697Y-148714366D01*
X113236693Y-148714365D01*
X113236692Y-148714365D01*
X113236691Y-148714364D01*
X113236686Y-148714364D01*
X113010002Y-148694532D01*
X113009998Y-148694532D01*
X112783313Y-148714364D01*
X112783302Y-148714366D01*
X112563511Y-148773258D01*
X112563502Y-148773261D01*
X112357267Y-148869431D01*
X112357265Y-148869432D01*
X112170858Y-148999954D01*
X112009954Y-149160858D01*
X111879432Y-149347265D01*
X111879431Y-149347267D01*
X111783261Y-149553502D01*
X111783258Y-149553511D01*
X111724366Y-149773302D01*
X111724364Y-149773313D01*
X111704532Y-149999998D01*
X108699186Y-149999998D01*
X108627534Y-149846339D01*
X108564180Y-149755859D01*
X108500827Y-149665381D01*
X108448506Y-149613060D01*
X108344620Y-149509174D01*
X108344616Y-149509171D01*
X108344615Y-149509170D01*
X108163666Y-149382468D01*
X108163662Y-149382466D01*
X108088175Y-149347266D01*
X107963450Y-149289106D01*
X107963447Y-149289105D01*
X107963445Y-149289104D01*
X107750070Y-149231930D01*
X107750062Y-149231929D01*
X107530002Y-149212677D01*
X107529998Y-149212677D01*
X107309937Y-149231929D01*
X107309929Y-149231930D01*
X107096554Y-149289104D01*
X107096548Y-149289107D01*
X106896340Y-149382465D01*
X106896338Y-149382466D01*
X106715377Y-149509175D01*
X106559175Y-149665377D01*
X106432467Y-149846337D01*
X106372105Y-149975782D01*
X106325932Y-150028221D01*
X106258738Y-150047372D01*
X106191857Y-150027156D01*
X106147341Y-149975780D01*
X106087098Y-149846589D01*
X106087097Y-149846587D01*
X106041741Y-149781811D01*
X106041740Y-149781810D01*
X105371000Y-150452551D01*
X105371000Y-150429840D01*
X105345036Y-150332939D01*
X105294876Y-150246060D01*
X105223940Y-150175124D01*
X105137061Y-150124964D01*
X105040160Y-150099000D01*
X105017448Y-150099000D01*
X105688188Y-149428259D01*
X105688187Y-149428258D01*
X105623411Y-149382901D01*
X105623405Y-149382898D01*
X105423284Y-149289580D01*
X105423270Y-149289575D01*
X105209986Y-149232426D01*
X105209976Y-149232424D01*
X104990001Y-149213179D01*
X104989999Y-149213179D01*
X104770023Y-149232424D01*
X104770013Y-149232426D01*
X104556729Y-149289575D01*
X104556720Y-149289579D01*
X104356590Y-149382901D01*
X104291811Y-149428258D01*
X104962553Y-150099000D01*
X104939840Y-150099000D01*
X104842939Y-150124964D01*
X104756060Y-150175124D01*
X104685124Y-150246060D01*
X104634964Y-150332939D01*
X104609000Y-150429840D01*
X104609000Y-150452552D01*
X103938258Y-149781811D01*
X103892901Y-149846590D01*
X103832658Y-149975781D01*
X103786485Y-150028220D01*
X103719292Y-150047372D01*
X103652411Y-150027156D01*
X103607894Y-149975781D01*
X103547651Y-149846590D01*
X103547534Y-149846339D01*
X103484180Y-149755859D01*
X103420827Y-149665381D01*
X103368506Y-149613060D01*
X103264620Y-149509174D01*
X103264616Y-149509171D01*
X103264615Y-149509170D01*
X103083666Y-149382468D01*
X103083662Y-149382466D01*
X103008175Y-149347266D01*
X102883450Y-149289106D01*
X102883447Y-149289105D01*
X102883445Y-149289104D01*
X102670070Y-149231930D01*
X102670062Y-149231929D01*
X102450002Y-149212677D01*
X102449998Y-149212677D01*
X102229937Y-149231929D01*
X102229929Y-149231930D01*
X102016554Y-149289104D01*
X102016548Y-149289107D01*
X101816340Y-149382465D01*
X101816338Y-149382466D01*
X101635377Y-149509175D01*
X101479175Y-149665377D01*
X101352466Y-149846338D01*
X101352465Y-149846340D01*
X101292382Y-149975189D01*
X101246209Y-150027628D01*
X101179016Y-150046780D01*
X101112135Y-150026564D01*
X101067618Y-149975189D01*
X101007651Y-149846590D01*
X101007534Y-149846339D01*
X100944180Y-149755859D01*
X100880827Y-149665381D01*
X100828506Y-149613060D01*
X100724620Y-149509174D01*
X100724616Y-149509171D01*
X100724615Y-149509170D01*
X100543666Y-149382468D01*
X100543662Y-149382466D01*
X100468175Y-149347266D01*
X100343450Y-149289106D01*
X100343447Y-149289105D01*
X100343445Y-149289104D01*
X100130070Y-149231930D01*
X100130062Y-149231929D01*
X99910002Y-149212677D01*
X99909995Y-149212677D01*
X99862837Y-149216802D01*
X99794338Y-149203034D01*
X99744155Y-149154418D01*
X99728223Y-149086389D01*
X99751600Y-149020546D01*
X99764344Y-149005600D01*
X103127277Y-145642669D01*
X103198466Y-145536126D01*
X103247501Y-145417743D01*
X103272500Y-145292069D01*
X103272500Y-145163931D01*
X103272500Y-144725101D01*
X103292185Y-144658062D01*
X103344989Y-144612307D01*
X103414147Y-144602363D01*
X103448898Y-144612716D01*
X103616550Y-144690894D01*
X103829932Y-144748070D01*
X103987123Y-144761822D01*
X104049998Y-144767323D01*
X104050000Y-144767323D01*
X104050002Y-144767323D01*
X104105017Y-144762509D01*
X104270068Y-144748070D01*
X104483450Y-144690894D01*
X104683662Y-144597534D01*
X104864620Y-144470826D01*
X105020826Y-144314620D01*
X105147534Y-144133662D01*
X105207618Y-144004811D01*
X105253790Y-143952371D01*
X105320983Y-143933219D01*
X105387865Y-143953435D01*
X105432382Y-144004811D01*
X105492464Y-144133658D01*
X105492468Y-144133666D01*
X105619170Y-144314615D01*
X105619175Y-144314621D01*
X105775378Y-144470824D01*
X105775384Y-144470829D01*
X105956333Y-144597531D01*
X105956335Y-144597532D01*
X105956338Y-144597534D01*
X106156550Y-144690894D01*
X106369932Y-144748070D01*
X106527123Y-144761822D01*
X106589998Y-144767323D01*
X106590000Y-144767323D01*
X106590002Y-144767323D01*
X106645017Y-144762509D01*
X106810068Y-144748070D01*
X107023450Y-144690894D01*
X107223662Y-144597534D01*
X107404620Y-144470826D01*
X107560826Y-144314620D01*
X107687534Y-144133662D01*
X107747618Y-144004811D01*
X107793790Y-143952371D01*
X107860983Y-143933219D01*
X107927865Y-143953435D01*
X107972382Y-144004811D01*
X108032464Y-144133658D01*
X108032468Y-144133666D01*
X108159170Y-144314615D01*
X108159175Y-144314621D01*
X108315378Y-144470824D01*
X108315384Y-144470829D01*
X108496333Y-144597531D01*
X108496335Y-144597532D01*
X108496338Y-144597534D01*
X108696550Y-144690894D01*
X108909932Y-144748070D01*
X109067123Y-144761822D01*
X109129998Y-144767323D01*
X109130000Y-144767323D01*
X109130002Y-144767323D01*
X109185017Y-144762509D01*
X109350068Y-144748070D01*
X109563450Y-144690894D01*
X109763662Y-144597534D01*
X109944620Y-144470826D01*
X110100826Y-144314620D01*
X110227534Y-144133662D01*
X110287618Y-144004811D01*
X110333790Y-143952371D01*
X110400983Y-143933219D01*
X110467865Y-143953435D01*
X110512382Y-144004811D01*
X110572464Y-144133658D01*
X110572468Y-144133666D01*
X110699170Y-144314615D01*
X110699175Y-144314621D01*
X110855378Y-144470824D01*
X110855384Y-144470829D01*
X111036333Y-144597531D01*
X111036335Y-144597532D01*
X111036338Y-144597534D01*
X111236550Y-144690894D01*
X111449932Y-144748070D01*
X111607123Y-144761822D01*
X111669998Y-144767323D01*
X111670000Y-144767323D01*
X111670002Y-144767323D01*
X111725017Y-144762509D01*
X111890068Y-144748070D01*
X112103450Y-144690894D01*
X112303662Y-144597534D01*
X112484620Y-144470826D01*
X112640826Y-144314620D01*
X112767534Y-144133662D01*
X112827618Y-144004811D01*
X112873790Y-143952371D01*
X112940983Y-143933219D01*
X113007865Y-143953435D01*
X113052382Y-144004811D01*
X113112464Y-144133658D01*
X113112468Y-144133666D01*
X113239170Y-144314615D01*
X113239175Y-144314621D01*
X113395378Y-144470824D01*
X113395384Y-144470829D01*
X113576333Y-144597531D01*
X113576335Y-144597532D01*
X113576338Y-144597534D01*
X113776550Y-144690894D01*
X113989932Y-144748070D01*
X114147123Y-144761822D01*
X114209998Y-144767323D01*
X114210000Y-144767323D01*
X114210002Y-144767323D01*
X114265017Y-144762509D01*
X114430068Y-144748070D01*
X114643450Y-144690894D01*
X114843662Y-144597534D01*
X115024620Y-144470826D01*
X115180826Y-144314620D01*
X115307534Y-144133662D01*
X115367618Y-144004811D01*
X115413790Y-143952371D01*
X115480983Y-143933219D01*
X115547865Y-143953435D01*
X115592382Y-144004811D01*
X115652464Y-144133658D01*
X115652468Y-144133666D01*
X115779170Y-144314615D01*
X115779175Y-144314621D01*
X115935378Y-144470824D01*
X115935384Y-144470829D01*
X116116333Y-144597531D01*
X116116335Y-144597532D01*
X116116338Y-144597534D01*
X116316550Y-144690894D01*
X116529932Y-144748070D01*
X116687123Y-144761822D01*
X116749998Y-144767323D01*
X116750000Y-144767323D01*
X116750002Y-144767323D01*
X116805017Y-144762509D01*
X116970068Y-144748070D01*
X117183450Y-144690894D01*
X117383662Y-144597534D01*
X117564620Y-144470826D01*
X117720826Y-144314620D01*
X117847534Y-144133662D01*
X117907618Y-144004811D01*
X117953790Y-143952371D01*
X118020983Y-143933219D01*
X118087865Y-143953435D01*
X118132382Y-144004811D01*
X118192464Y-144133658D01*
X118192468Y-144133666D01*
X118319170Y-144314615D01*
X118319175Y-144314621D01*
X118475378Y-144470824D01*
X118475384Y-144470829D01*
X118656333Y-144597531D01*
X118656335Y-144597532D01*
X118656338Y-144597534D01*
X118856550Y-144690894D01*
X119069932Y-144748070D01*
X119227123Y-144761822D01*
X119289998Y-144767323D01*
X119290000Y-144767323D01*
X119290002Y-144767323D01*
X119345017Y-144762509D01*
X119510068Y-144748070D01*
X119723450Y-144690894D01*
X119923662Y-144597534D01*
X120104620Y-144470826D01*
X120260826Y-144314620D01*
X120387534Y-144133662D01*
X120447618Y-144004811D01*
X120493790Y-143952371D01*
X120560983Y-143933219D01*
X120627865Y-143953435D01*
X120672382Y-144004811D01*
X120732464Y-144133658D01*
X120732468Y-144133666D01*
X120859170Y-144314615D01*
X120859175Y-144314621D01*
X121015378Y-144470824D01*
X121015384Y-144470829D01*
X121196333Y-144597531D01*
X121196335Y-144597532D01*
X121196338Y-144597534D01*
X121396550Y-144690894D01*
X121609932Y-144748070D01*
X121767123Y-144761822D01*
X121829998Y-144767323D01*
X121830000Y-144767323D01*
X121830002Y-144767323D01*
X121885017Y-144762509D01*
X122050068Y-144748070D01*
X122263450Y-144690894D01*
X122463662Y-144597534D01*
X122644620Y-144470826D01*
X122800826Y-144314620D01*
X122927534Y-144133662D01*
X122987618Y-144004811D01*
X123033790Y-143952371D01*
X123100983Y-143933219D01*
X123167865Y-143953435D01*
X123212382Y-144004811D01*
X123272464Y-144133658D01*
X123272468Y-144133666D01*
X123399170Y-144314615D01*
X123399175Y-144314621D01*
X123555378Y-144470824D01*
X123555384Y-144470829D01*
X123736333Y-144597531D01*
X123736335Y-144597532D01*
X123736338Y-144597534D01*
X123936550Y-144690894D01*
X124149932Y-144748070D01*
X124307123Y-144761822D01*
X124369998Y-144767323D01*
X124370000Y-144767323D01*
X124370002Y-144767323D01*
X124425017Y-144762509D01*
X124590068Y-144748070D01*
X124803450Y-144690894D01*
X125003662Y-144597534D01*
X125184620Y-144470826D01*
X125340826Y-144314620D01*
X125467534Y-144133662D01*
X125527618Y-144004811D01*
X125573790Y-143952371D01*
X125640983Y-143933219D01*
X125707865Y-143953435D01*
X125752382Y-144004811D01*
X125812464Y-144133658D01*
X125812468Y-144133666D01*
X125939170Y-144314615D01*
X125939175Y-144314621D01*
X126095378Y-144470824D01*
X126095384Y-144470829D01*
X126276333Y-144597531D01*
X126276335Y-144597532D01*
X126276338Y-144597534D01*
X126476550Y-144690894D01*
X126689932Y-144748070D01*
X126847123Y-144761822D01*
X126909998Y-144767323D01*
X126910000Y-144767323D01*
X126910002Y-144767323D01*
X126965017Y-144762509D01*
X127130068Y-144748070D01*
X127343450Y-144690894D01*
X127543662Y-144597534D01*
X127724620Y-144470826D01*
X127880826Y-144314620D01*
X128007534Y-144133662D01*
X128067618Y-144004811D01*
X128113790Y-143952371D01*
X128180983Y-143933219D01*
X128247865Y-143953435D01*
X128292382Y-144004811D01*
X128352464Y-144133658D01*
X128352468Y-144133666D01*
X128479170Y-144314615D01*
X128479175Y-144314621D01*
X128635378Y-144470824D01*
X128635384Y-144470829D01*
X128816333Y-144597531D01*
X128816335Y-144597532D01*
X128816338Y-144597534D01*
X129016550Y-144690894D01*
X129229932Y-144748070D01*
X129387123Y-144761822D01*
X129449998Y-144767323D01*
X129450000Y-144767323D01*
X129450002Y-144767323D01*
X129505017Y-144762509D01*
X129670068Y-144748070D01*
X129883450Y-144690894D01*
X130083662Y-144597534D01*
X130264620Y-144470826D01*
X130420826Y-144314620D01*
X130547534Y-144133662D01*
X130607618Y-144004811D01*
X130653790Y-143952371D01*
X130720983Y-143933219D01*
X130787865Y-143953435D01*
X130832382Y-144004811D01*
X130892464Y-144133658D01*
X130892468Y-144133666D01*
X131019170Y-144314615D01*
X131019175Y-144314621D01*
X131175378Y-144470824D01*
X131175384Y-144470829D01*
X131356333Y-144597531D01*
X131356335Y-144597532D01*
X131356338Y-144597534D01*
X131556550Y-144690894D01*
X131769932Y-144748070D01*
X131927123Y-144761822D01*
X131989998Y-144767323D01*
X131990000Y-144767323D01*
X131990002Y-144767323D01*
X132045017Y-144762509D01*
X132210068Y-144748070D01*
X132423450Y-144690894D01*
X132623662Y-144597534D01*
X132804620Y-144470826D01*
X132960826Y-144314620D01*
X133087534Y-144133662D01*
X133147618Y-144004811D01*
X133193790Y-143952371D01*
X133260983Y-143933219D01*
X133327865Y-143953435D01*
X133372382Y-144004811D01*
X133432464Y-144133658D01*
X133432468Y-144133666D01*
X133559170Y-144314615D01*
X133559175Y-144314621D01*
X133715378Y-144470824D01*
X133715384Y-144470829D01*
X133896333Y-144597531D01*
X133896335Y-144597532D01*
X133896338Y-144597534D01*
X134096550Y-144690894D01*
X134309932Y-144748070D01*
X134467123Y-144761822D01*
X134529998Y-144767323D01*
X134530000Y-144767323D01*
X134530002Y-144767323D01*
X134585017Y-144762509D01*
X134750068Y-144748070D01*
X134963450Y-144690894D01*
X135163662Y-144597534D01*
X135344620Y-144470826D01*
X135500826Y-144314620D01*
X135627534Y-144133662D01*
X135687618Y-144004811D01*
X135733790Y-143952371D01*
X135800983Y-143933219D01*
X135867865Y-143953435D01*
X135912382Y-144004811D01*
X135972464Y-144133658D01*
X135972468Y-144133666D01*
X136099170Y-144314615D01*
X136099175Y-144314621D01*
X136255378Y-144470824D01*
X136255384Y-144470829D01*
X136436333Y-144597531D01*
X136436335Y-144597532D01*
X136436338Y-144597534D01*
X136636550Y-144690894D01*
X136849932Y-144748070D01*
X137007123Y-144761822D01*
X137069998Y-144767323D01*
X137070000Y-144767323D01*
X137070002Y-144767323D01*
X137125017Y-144762509D01*
X137290068Y-144748070D01*
X137503450Y-144690894D01*
X137703662Y-144597534D01*
X137884620Y-144470826D01*
X138040826Y-144314620D01*
X138167534Y-144133662D01*
X138227618Y-144004811D01*
X138273790Y-143952371D01*
X138340983Y-143933219D01*
X138407865Y-143953435D01*
X138452382Y-144004811D01*
X138512464Y-144133658D01*
X138512468Y-144133666D01*
X138639170Y-144314615D01*
X138639175Y-144314621D01*
X138795378Y-144470824D01*
X138795384Y-144470829D01*
X138976333Y-144597531D01*
X138976335Y-144597532D01*
X138976338Y-144597534D01*
X139176550Y-144690894D01*
X139389932Y-144748070D01*
X139547123Y-144761822D01*
X139609998Y-144767323D01*
X139610000Y-144767323D01*
X139610002Y-144767323D01*
X139665017Y-144762509D01*
X139830068Y-144748070D01*
X140043450Y-144690894D01*
X140243662Y-144597534D01*
X140424620Y-144470826D01*
X140580826Y-144314620D01*
X140707534Y-144133662D01*
X140767618Y-144004811D01*
X140813790Y-143952371D01*
X140880983Y-143933219D01*
X140947865Y-143953435D01*
X140992382Y-144004811D01*
X141052464Y-144133658D01*
X141052468Y-144133666D01*
X141179170Y-144314615D01*
X141179175Y-144314621D01*
X141335378Y-144470824D01*
X141335384Y-144470829D01*
X141516333Y-144597531D01*
X141516335Y-144597532D01*
X141516338Y-144597534D01*
X141716550Y-144690894D01*
X141929932Y-144748070D01*
X142087123Y-144761822D01*
X142149998Y-144767323D01*
X142150000Y-144767323D01*
X142150002Y-144767323D01*
X142205017Y-144762509D01*
X142370068Y-144748070D01*
X142583450Y-144690894D01*
X142783662Y-144597534D01*
X142964620Y-144470826D01*
X143120826Y-144314620D01*
X143247534Y-144133662D01*
X143307618Y-144004811D01*
X143353790Y-143952371D01*
X143420983Y-143933219D01*
X143487865Y-143953435D01*
X143532382Y-144004811D01*
X143592464Y-144133658D01*
X143592468Y-144133666D01*
X143719170Y-144314615D01*
X143719175Y-144314621D01*
X143875378Y-144470824D01*
X143875384Y-144470829D01*
X144056333Y-144597531D01*
X144056335Y-144597532D01*
X144056338Y-144597534D01*
X144256550Y-144690894D01*
X144469932Y-144748070D01*
X144627123Y-144761822D01*
X144689998Y-144767323D01*
X144690000Y-144767323D01*
X144690002Y-144767323D01*
X144745017Y-144762509D01*
X144910068Y-144748070D01*
X145123450Y-144690894D01*
X145323662Y-144597534D01*
X145504620Y-144470826D01*
X145660826Y-144314620D01*
X145787534Y-144133662D01*
X145847618Y-144004811D01*
X145893790Y-143952371D01*
X145960983Y-143933219D01*
X146027865Y-143953435D01*
X146072382Y-144004811D01*
X146132464Y-144133658D01*
X146132468Y-144133666D01*
X146259170Y-144314615D01*
X146259175Y-144314621D01*
X146415378Y-144470824D01*
X146415384Y-144470829D01*
X146596333Y-144597531D01*
X146596335Y-144597532D01*
X146596338Y-144597534D01*
X146796550Y-144690894D01*
X147009932Y-144748070D01*
X147167123Y-144761822D01*
X147229998Y-144767323D01*
X147230000Y-144767323D01*
X147230002Y-144767323D01*
X147285017Y-144762509D01*
X147450068Y-144748070D01*
X147663450Y-144690894D01*
X147863662Y-144597534D01*
X148044620Y-144470826D01*
X148200826Y-144314620D01*
X148327534Y-144133662D01*
X148387894Y-144004218D01*
X148434066Y-143951779D01*
X148501259Y-143932627D01*
X148568141Y-143952843D01*
X148612658Y-144004219D01*
X148672898Y-144133405D01*
X148672901Y-144133411D01*
X148718258Y-144198187D01*
X148718259Y-144198188D01*
X149389000Y-143527447D01*
X149389000Y-143550160D01*
X149414964Y-143647061D01*
X149465124Y-143733940D01*
X149536060Y-143804876D01*
X149622939Y-143855036D01*
X149719840Y-143881000D01*
X149742553Y-143881000D01*
X149071810Y-144551740D01*
X149136590Y-144597099D01*
X149136592Y-144597100D01*
X149336715Y-144690419D01*
X149336729Y-144690424D01*
X149550013Y-144747573D01*
X149550023Y-144747575D01*
X149769999Y-144766821D01*
X149770001Y-144766821D01*
X149989976Y-144747575D01*
X149989986Y-144747573D01*
X150203270Y-144690424D01*
X150203284Y-144690419D01*
X150403407Y-144597100D01*
X150403417Y-144597094D01*
X150468188Y-144551741D01*
X149797448Y-143881000D01*
X149820160Y-143881000D01*
X149917061Y-143855036D01*
X150003940Y-143804876D01*
X150074876Y-143733940D01*
X150125036Y-143647061D01*
X150151000Y-143550160D01*
X150151000Y-143527447D01*
X150821741Y-144198188D01*
X150867094Y-144133417D01*
X150867100Y-144133407D01*
X150960419Y-143933284D01*
X150960424Y-143933270D01*
X151017573Y-143719986D01*
X151017575Y-143719976D01*
X151036821Y-143500000D01*
X151036821Y-143499999D01*
X151017575Y-143280023D01*
X151017573Y-143280013D01*
X150960424Y-143066729D01*
X150960420Y-143066720D01*
X150867096Y-142866586D01*
X150821741Y-142801811D01*
X150821740Y-142801810D01*
X150151000Y-143472551D01*
X150151000Y-143449840D01*
X150125036Y-143352939D01*
X150074876Y-143266060D01*
X150003940Y-143195124D01*
X149917061Y-143144964D01*
X149820160Y-143119000D01*
X149797448Y-143119000D01*
X150468188Y-142448259D01*
X150468187Y-142448258D01*
X150403411Y-142402901D01*
X150403405Y-142402898D01*
X150273627Y-142342382D01*
X150221187Y-142296210D01*
X150202035Y-142229017D01*
X150222251Y-142162135D01*
X150273627Y-142117618D01*
X150403407Y-142057100D01*
X150403417Y-142057094D01*
X150468188Y-142011741D01*
X149797448Y-141341000D01*
X149820160Y-141341000D01*
X149917061Y-141315036D01*
X150003940Y-141264876D01*
X150074876Y-141193940D01*
X150125036Y-141107061D01*
X150151000Y-141010160D01*
X150151000Y-140987447D01*
X150821741Y-141658188D01*
X150867094Y-141593417D01*
X150867100Y-141593407D01*
X150960419Y-141393284D01*
X150960424Y-141393270D01*
X151017573Y-141179986D01*
X151017575Y-141179976D01*
X151036821Y-140960000D01*
X151036821Y-140959999D01*
X151017575Y-140740023D01*
X151017573Y-140740013D01*
X150960424Y-140526729D01*
X150960420Y-140526720D01*
X150867096Y-140326586D01*
X150821741Y-140261811D01*
X150821740Y-140261810D01*
X150151000Y-140932551D01*
X150151000Y-140909840D01*
X150125036Y-140812939D01*
X150074876Y-140726060D01*
X150003940Y-140655124D01*
X149917061Y-140604964D01*
X149820160Y-140579000D01*
X149797448Y-140579000D01*
X150468188Y-139908259D01*
X150468187Y-139908258D01*
X150403411Y-139862901D01*
X150403405Y-139862898D01*
X150203284Y-139769580D01*
X150203270Y-139769575D01*
X149989986Y-139712426D01*
X149989976Y-139712424D01*
X149770001Y-139693179D01*
X149769999Y-139693179D01*
X149550023Y-139712424D01*
X149550013Y-139712426D01*
X149336729Y-139769575D01*
X149336720Y-139769579D01*
X149136590Y-139862901D01*
X149071811Y-139908258D01*
X149742553Y-140579000D01*
X149719840Y-140579000D01*
X149622939Y-140604964D01*
X149536060Y-140655124D01*
X149465124Y-140726060D01*
X149414964Y-140812939D01*
X149389000Y-140909840D01*
X149389000Y-140932553D01*
X148718258Y-140261811D01*
X148672901Y-140326590D01*
X148612658Y-140455781D01*
X148566485Y-140508220D01*
X148499292Y-140527372D01*
X148432411Y-140507156D01*
X148387894Y-140455781D01*
X148327534Y-140326340D01*
X148327533Y-140326338D01*
X148200827Y-140145381D01*
X148146447Y-140091001D01*
X148044620Y-139989174D01*
X148044616Y-139989171D01*
X148044615Y-139989170D01*
X147863666Y-139862468D01*
X147863662Y-139862466D01*
X147863660Y-139862465D01*
X147663450Y-139769106D01*
X147663447Y-139769105D01*
X147663445Y-139769104D01*
X147450070Y-139711930D01*
X147450062Y-139711929D01*
X147230002Y-139692677D01*
X147229998Y-139692677D01*
X147009937Y-139711929D01*
X147009929Y-139711930D01*
X146796554Y-139769104D01*
X146796548Y-139769107D01*
X146596340Y-139862465D01*
X146596338Y-139862466D01*
X146415377Y-139989175D01*
X146259175Y-140145377D01*
X146132466Y-140326338D01*
X146132465Y-140326340D01*
X146072382Y-140455189D01*
X146026209Y-140507628D01*
X145959016Y-140526780D01*
X145892135Y-140506564D01*
X145847618Y-140455189D01*
X145787534Y-140326340D01*
X145787533Y-140326338D01*
X145660827Y-140145381D01*
X145606447Y-140091001D01*
X145504620Y-139989174D01*
X145504616Y-139989171D01*
X145504615Y-139989170D01*
X145323666Y-139862468D01*
X145323662Y-139862466D01*
X145323660Y-139862465D01*
X145123450Y-139769106D01*
X145123447Y-139769105D01*
X145123445Y-139769104D01*
X144910070Y-139711930D01*
X144910062Y-139711929D01*
X144690002Y-139692677D01*
X144689998Y-139692677D01*
X144469937Y-139711929D01*
X144469929Y-139711930D01*
X144256554Y-139769104D01*
X144256548Y-139769107D01*
X144056340Y-139862465D01*
X144056338Y-139862466D01*
X143875377Y-139989175D01*
X143719175Y-140145377D01*
X143592466Y-140326338D01*
X143592465Y-140326340D01*
X143532382Y-140455189D01*
X143486209Y-140507628D01*
X143419016Y-140526780D01*
X143352135Y-140506564D01*
X143307618Y-140455189D01*
X143247534Y-140326340D01*
X143247533Y-140326338D01*
X143120827Y-140145381D01*
X143066447Y-140091001D01*
X142964620Y-139989174D01*
X142964616Y-139989171D01*
X142964615Y-139989170D01*
X142783666Y-139862468D01*
X142783662Y-139862466D01*
X142783660Y-139862465D01*
X142583450Y-139769106D01*
X142583447Y-139769105D01*
X142583445Y-139769104D01*
X142370070Y-139711930D01*
X142370062Y-139711929D01*
X142150002Y-139692677D01*
X142149998Y-139692677D01*
X141929937Y-139711929D01*
X141929929Y-139711930D01*
X141716554Y-139769104D01*
X141716548Y-139769107D01*
X141516340Y-139862465D01*
X141516338Y-139862466D01*
X141335377Y-139989175D01*
X141179175Y-140145377D01*
X141052466Y-140326338D01*
X141052465Y-140326340D01*
X140992382Y-140455189D01*
X140946209Y-140507628D01*
X140879016Y-140526780D01*
X140812135Y-140506564D01*
X140767618Y-140455189D01*
X140707534Y-140326340D01*
X140707533Y-140326338D01*
X140580827Y-140145381D01*
X140526447Y-140091001D01*
X140424620Y-139989174D01*
X140424616Y-139989171D01*
X140424615Y-139989170D01*
X140243666Y-139862468D01*
X140243662Y-139862466D01*
X140243660Y-139862465D01*
X140043450Y-139769106D01*
X140043447Y-139769105D01*
X140043445Y-139769104D01*
X139830070Y-139711930D01*
X139830062Y-139711929D01*
X139610002Y-139692677D01*
X139609998Y-139692677D01*
X139389937Y-139711929D01*
X139389929Y-139711930D01*
X139176554Y-139769104D01*
X139176548Y-139769107D01*
X138976340Y-139862465D01*
X138976338Y-139862466D01*
X138795377Y-139989175D01*
X138639175Y-140145377D01*
X138512466Y-140326338D01*
X138512465Y-140326340D01*
X138452382Y-140455189D01*
X138406209Y-140507628D01*
X138339016Y-140526780D01*
X138272135Y-140506564D01*
X138227618Y-140455189D01*
X138167534Y-140326340D01*
X138167533Y-140326338D01*
X138040827Y-140145381D01*
X137986447Y-140091001D01*
X137884620Y-139989174D01*
X137884616Y-139989171D01*
X137884615Y-139989170D01*
X137703666Y-139862468D01*
X137703662Y-139862466D01*
X137703660Y-139862465D01*
X137503450Y-139769106D01*
X137503447Y-139769105D01*
X137503445Y-139769104D01*
X137290070Y-139711930D01*
X137290062Y-139711929D01*
X137070002Y-139692677D01*
X137069998Y-139692677D01*
X136849937Y-139711929D01*
X136849929Y-139711930D01*
X136636554Y-139769104D01*
X136636548Y-139769107D01*
X136436340Y-139862465D01*
X136436338Y-139862466D01*
X136255377Y-139989175D01*
X136099175Y-140145377D01*
X135972466Y-140326338D01*
X135972465Y-140326340D01*
X135912382Y-140455189D01*
X135866209Y-140507628D01*
X135799016Y-140526780D01*
X135732135Y-140506564D01*
X135687618Y-140455189D01*
X135627534Y-140326340D01*
X135627533Y-140326338D01*
X135500827Y-140145381D01*
X135446447Y-140091001D01*
X135344620Y-139989174D01*
X135344616Y-139989171D01*
X135344615Y-139989170D01*
X135163666Y-139862468D01*
X135163662Y-139862466D01*
X135163660Y-139862465D01*
X134963450Y-139769106D01*
X134963447Y-139769105D01*
X134963445Y-139769104D01*
X134750070Y-139711930D01*
X134750062Y-139711929D01*
X134530002Y-139692677D01*
X134529998Y-139692677D01*
X134309937Y-139711929D01*
X134309929Y-139711930D01*
X134096554Y-139769104D01*
X134096548Y-139769107D01*
X133896340Y-139862465D01*
X133896338Y-139862466D01*
X133715377Y-139989175D01*
X133559175Y-140145377D01*
X133432466Y-140326338D01*
X133432465Y-140326340D01*
X133372382Y-140455189D01*
X133326209Y-140507628D01*
X133259016Y-140526780D01*
X133192135Y-140506564D01*
X133147618Y-140455189D01*
X133087534Y-140326340D01*
X133087533Y-140326338D01*
X132960827Y-140145381D01*
X132906447Y-140091001D01*
X132804620Y-139989174D01*
X132804616Y-139989171D01*
X132804615Y-139989170D01*
X132623666Y-139862468D01*
X132623662Y-139862466D01*
X132623660Y-139862465D01*
X132423450Y-139769106D01*
X132423447Y-139769105D01*
X132423445Y-139769104D01*
X132210070Y-139711930D01*
X132210062Y-139711929D01*
X131990002Y-139692677D01*
X131989998Y-139692677D01*
X131769937Y-139711929D01*
X131769929Y-139711930D01*
X131556554Y-139769104D01*
X131556548Y-139769107D01*
X131356340Y-139862465D01*
X131356338Y-139862466D01*
X131175377Y-139989175D01*
X131019175Y-140145377D01*
X130892466Y-140326338D01*
X130892465Y-140326340D01*
X130832382Y-140455189D01*
X130786209Y-140507628D01*
X130719016Y-140526780D01*
X130652135Y-140506564D01*
X130607618Y-140455189D01*
X130547534Y-140326340D01*
X130547533Y-140326338D01*
X130420827Y-140145381D01*
X130366447Y-140091001D01*
X130264620Y-139989174D01*
X130264616Y-139989171D01*
X130264615Y-139989170D01*
X130083666Y-139862468D01*
X130083662Y-139862466D01*
X130083660Y-139862465D01*
X129883450Y-139769106D01*
X129883447Y-139769105D01*
X129883445Y-139769104D01*
X129670070Y-139711930D01*
X129670062Y-139711929D01*
X129450002Y-139692677D01*
X129449998Y-139692677D01*
X129229937Y-139711929D01*
X129229929Y-139711930D01*
X129016554Y-139769104D01*
X129016548Y-139769107D01*
X128816340Y-139862465D01*
X128816338Y-139862466D01*
X128635377Y-139989175D01*
X128479175Y-140145377D01*
X128352466Y-140326338D01*
X128352465Y-140326340D01*
X128292382Y-140455189D01*
X128246209Y-140507628D01*
X128179016Y-140526780D01*
X128112135Y-140506564D01*
X128067618Y-140455189D01*
X128007534Y-140326340D01*
X128007533Y-140326338D01*
X127880827Y-140145381D01*
X127826447Y-140091001D01*
X127724620Y-139989174D01*
X127724616Y-139989171D01*
X127724615Y-139989170D01*
X127543666Y-139862468D01*
X127543662Y-139862466D01*
X127543660Y-139862465D01*
X127343450Y-139769106D01*
X127343447Y-139769105D01*
X127343445Y-139769104D01*
X127130070Y-139711930D01*
X127130062Y-139711929D01*
X126910002Y-139692677D01*
X126909998Y-139692677D01*
X126689937Y-139711929D01*
X126689929Y-139711930D01*
X126476554Y-139769104D01*
X126476548Y-139769107D01*
X126276340Y-139862465D01*
X126276338Y-139862466D01*
X126095377Y-139989175D01*
X125939175Y-140145377D01*
X125812466Y-140326338D01*
X125812465Y-140326340D01*
X125752382Y-140455189D01*
X125706209Y-140507628D01*
X125639016Y-140526780D01*
X125572135Y-140506564D01*
X125527618Y-140455189D01*
X125467534Y-140326340D01*
X125467533Y-140326338D01*
X125340827Y-140145381D01*
X125286447Y-140091001D01*
X125184620Y-139989174D01*
X125184616Y-139989171D01*
X125184615Y-139989170D01*
X125003666Y-139862468D01*
X125003662Y-139862466D01*
X125003660Y-139862465D01*
X124803450Y-139769106D01*
X124803447Y-139769105D01*
X124803445Y-139769104D01*
X124590070Y-139711930D01*
X124590062Y-139711929D01*
X124370002Y-139692677D01*
X124369998Y-139692677D01*
X124149937Y-139711929D01*
X124149929Y-139711930D01*
X123936554Y-139769104D01*
X123936548Y-139769107D01*
X123736340Y-139862465D01*
X123736338Y-139862466D01*
X123555377Y-139989175D01*
X123399175Y-140145377D01*
X123272466Y-140326338D01*
X123272465Y-140326340D01*
X123212382Y-140455189D01*
X123166209Y-140507628D01*
X123099016Y-140526780D01*
X123032135Y-140506564D01*
X122987618Y-140455189D01*
X122927534Y-140326340D01*
X122927533Y-140326338D01*
X122800827Y-140145381D01*
X122746447Y-140091001D01*
X122644620Y-139989174D01*
X122644616Y-139989171D01*
X122644615Y-139989170D01*
X122463666Y-139862468D01*
X122463662Y-139862466D01*
X122463660Y-139862465D01*
X122263450Y-139769106D01*
X122263447Y-139769105D01*
X122263445Y-139769104D01*
X122050070Y-139711930D01*
X122050062Y-139711929D01*
X121830002Y-139692677D01*
X121829998Y-139692677D01*
X121609937Y-139711929D01*
X121609929Y-139711930D01*
X121396554Y-139769104D01*
X121396548Y-139769107D01*
X121196340Y-139862465D01*
X121196338Y-139862466D01*
X121015377Y-139989175D01*
X120859175Y-140145377D01*
X120732466Y-140326338D01*
X120732465Y-140326340D01*
X120672382Y-140455189D01*
X120626209Y-140507628D01*
X120559016Y-140526780D01*
X120492135Y-140506564D01*
X120447618Y-140455189D01*
X120387534Y-140326340D01*
X120387533Y-140326338D01*
X120260827Y-140145381D01*
X120206447Y-140091001D01*
X120104620Y-139989174D01*
X120104616Y-139989171D01*
X120104615Y-139989170D01*
X119923666Y-139862468D01*
X119923662Y-139862466D01*
X119923660Y-139862465D01*
X119723450Y-139769106D01*
X119723447Y-139769105D01*
X119723445Y-139769104D01*
X119510070Y-139711930D01*
X119510062Y-139711929D01*
X119290002Y-139692677D01*
X119289998Y-139692677D01*
X119069937Y-139711929D01*
X119069920Y-139711932D01*
X119053857Y-139716236D01*
X118984007Y-139714570D01*
X118934088Y-139684141D01*
X118244673Y-138994726D01*
X118244669Y-138994723D01*
X118138127Y-138923535D01*
X118019744Y-138874499D01*
X118019738Y-138874497D01*
X117894071Y-138849500D01*
X117894069Y-138849500D01*
X103873325Y-138849500D01*
X103873323Y-138849500D01*
X103747655Y-138874497D01*
X103747649Y-138874499D01*
X103629268Y-138923534D01*
X103522720Y-138994726D01*
X102514127Y-140003319D01*
X102452804Y-140036804D01*
X102383112Y-140031820D01*
X102338765Y-140003319D01*
X102324621Y-139989175D01*
X102324615Y-139989170D01*
X102143666Y-139862468D01*
X102143662Y-139862466D01*
X102143660Y-139862465D01*
X101943450Y-139769106D01*
X101943447Y-139769105D01*
X101943445Y-139769104D01*
X101730070Y-139711930D01*
X101730062Y-139711929D01*
X101510002Y-139692677D01*
X101509998Y-139692677D01*
X101289937Y-139711929D01*
X101289929Y-139711930D01*
X101076554Y-139769104D01*
X101076548Y-139769107D01*
X100876340Y-139862465D01*
X100876338Y-139862466D01*
X100695377Y-139989175D01*
X100539175Y-140145377D01*
X100412466Y-140326338D01*
X100412465Y-140326340D01*
X100352382Y-140455189D01*
X100306209Y-140507628D01*
X100239016Y-140526780D01*
X100172135Y-140506564D01*
X100127618Y-140455189D01*
X100067534Y-140326340D01*
X100067533Y-140326338D01*
X99940827Y-140145381D01*
X99886447Y-140091001D01*
X99784620Y-139989174D01*
X99784616Y-139989171D01*
X99784615Y-139989170D01*
X99603666Y-139862468D01*
X99603662Y-139862466D01*
X99603660Y-139862465D01*
X99403450Y-139769106D01*
X99403447Y-139769105D01*
X99403445Y-139769104D01*
X99190070Y-139711930D01*
X99190062Y-139711929D01*
X98970002Y-139692677D01*
X98969998Y-139692677D01*
X98749937Y-139711929D01*
X98749929Y-139711930D01*
X98536554Y-139769104D01*
X98536548Y-139769107D01*
X98336340Y-139862465D01*
X98336338Y-139862466D01*
X98155377Y-139989175D01*
X97999175Y-140145377D01*
X97872466Y-140326338D01*
X97872465Y-140326340D01*
X97812382Y-140455189D01*
X97766209Y-140507628D01*
X97699016Y-140526780D01*
X97632135Y-140506564D01*
X97587618Y-140455189D01*
X97527534Y-140326340D01*
X97527533Y-140326338D01*
X97400827Y-140145381D01*
X97346447Y-140091001D01*
X97244620Y-139989174D01*
X97244616Y-139989171D01*
X97244615Y-139989170D01*
X97063666Y-139862468D01*
X97063662Y-139862466D01*
X97063660Y-139862465D01*
X96863450Y-139769106D01*
X96863447Y-139769105D01*
X96863445Y-139769104D01*
X96650070Y-139711930D01*
X96650062Y-139711929D01*
X96430002Y-139692677D01*
X96429998Y-139692677D01*
X96209937Y-139711929D01*
X96209929Y-139711930D01*
X95996554Y-139769104D01*
X95996548Y-139769107D01*
X95796340Y-139862465D01*
X95796338Y-139862466D01*
X95615377Y-139989175D01*
X95459175Y-140145377D01*
X95332466Y-140326338D01*
X95332465Y-140326340D01*
X95272382Y-140455189D01*
X95226209Y-140507628D01*
X95159016Y-140526780D01*
X95092135Y-140506564D01*
X95047618Y-140455189D01*
X94987534Y-140326340D01*
X94987533Y-140326338D01*
X94860827Y-140145381D01*
X94806447Y-140091001D01*
X94704620Y-139989174D01*
X94704616Y-139989171D01*
X94704615Y-139989170D01*
X94523666Y-139862468D01*
X94523662Y-139862466D01*
X94523660Y-139862465D01*
X94323450Y-139769106D01*
X94323447Y-139769105D01*
X94323445Y-139769104D01*
X94110070Y-139711930D01*
X94110062Y-139711929D01*
X93890002Y-139692677D01*
X93889998Y-139692677D01*
X93669937Y-139711929D01*
X93669929Y-139711930D01*
X93456554Y-139769104D01*
X93456548Y-139769107D01*
X93256340Y-139862465D01*
X93256338Y-139862466D01*
X93075377Y-139989175D01*
X92919175Y-140145377D01*
X92792466Y-140326338D01*
X92792465Y-140326340D01*
X92699107Y-140526548D01*
X92699104Y-140526554D01*
X92641930Y-140739929D01*
X92641929Y-140739937D01*
X92622677Y-140959997D01*
X92622677Y-140960002D01*
X92641929Y-141180062D01*
X92641930Y-141180070D01*
X92699104Y-141393445D01*
X92699105Y-141393447D01*
X92699106Y-141393450D01*
X92732106Y-141464219D01*
X92792466Y-141593662D01*
X92792468Y-141593666D01*
X92919170Y-141774615D01*
X92919175Y-141774621D01*
X93075378Y-141930824D01*
X93075384Y-141930829D01*
X93256333Y-142057531D01*
X93256335Y-142057532D01*
X93256338Y-142057534D01*
X93375748Y-142113215D01*
X93385189Y-142117618D01*
X93437628Y-142163790D01*
X93456780Y-142230984D01*
X93436564Y-142297865D01*
X93385189Y-142342382D01*
X93256340Y-142402465D01*
X93256338Y-142402466D01*
X93075377Y-142529175D01*
X92919175Y-142685377D01*
X92792466Y-142866338D01*
X92792465Y-142866340D01*
X92699107Y-143066548D01*
X92699104Y-143066554D01*
X92641930Y-143279929D01*
X92641929Y-143279937D01*
X92622677Y-143499997D01*
X92622677Y-143500002D01*
X92641929Y-143720062D01*
X92641930Y-143720070D01*
X92699104Y-143933445D01*
X92699105Y-143933447D01*
X92699106Y-143933450D01*
X92732106Y-144004219D01*
X92792466Y-144133662D01*
X92792468Y-144133666D01*
X92919170Y-144314615D01*
X92919175Y-144314621D01*
X93075378Y-144470824D01*
X93075384Y-144470829D01*
X93256333Y-144597531D01*
X93256335Y-144597532D01*
X93256338Y-144597534D01*
X93456550Y-144690894D01*
X93669932Y-144748070D01*
X93827123Y-144761822D01*
X93889998Y-144767323D01*
X93890000Y-144767323D01*
X93890002Y-144767323D01*
X93945017Y-144762509D01*
X94110068Y-144748070D01*
X94323450Y-144690894D01*
X94523662Y-144597534D01*
X94704620Y-144470826D01*
X94860826Y-144314620D01*
X94987534Y-144133662D01*
X95047618Y-144004811D01*
X95093790Y-143952371D01*
X95160983Y-143933219D01*
X95227865Y-143953435D01*
X95272382Y-144004811D01*
X95332464Y-144133658D01*
X95332468Y-144133666D01*
X95459170Y-144314615D01*
X95459175Y-144314621D01*
X95615378Y-144470824D01*
X95615384Y-144470829D01*
X95796333Y-144597531D01*
X95796335Y-144597532D01*
X95796338Y-144597534D01*
X95996550Y-144690894D01*
X96209932Y-144748070D01*
X96367123Y-144761822D01*
X96429998Y-144767323D01*
X96430000Y-144767323D01*
X96430002Y-144767323D01*
X96485017Y-144762509D01*
X96650068Y-144748070D01*
X96863450Y-144690894D01*
X97063662Y-144597534D01*
X97244620Y-144470826D01*
X97400826Y-144314620D01*
X97527534Y-144133662D01*
X97587618Y-144004811D01*
X97633790Y-143952371D01*
X97700983Y-143933219D01*
X97767865Y-143953435D01*
X97812382Y-144004811D01*
X97872464Y-144133658D01*
X97872468Y-144133666D01*
X97999170Y-144314615D01*
X97999175Y-144314621D01*
X98155378Y-144470824D01*
X98155384Y-144470829D01*
X98336333Y-144597531D01*
X98336335Y-144597532D01*
X98336338Y-144597534D01*
X98536550Y-144690894D01*
X98749932Y-144748070D01*
X98907123Y-144761822D01*
X98969998Y-144767323D01*
X98970000Y-144767323D01*
X98970002Y-144767323D01*
X99025017Y-144762509D01*
X99190068Y-144748070D01*
X99403450Y-144690894D01*
X99603662Y-144597534D01*
X99784620Y-144470826D01*
X99940826Y-144314620D01*
X100067534Y-144133662D01*
X100127618Y-144004811D01*
X100173790Y-143952371D01*
X100240983Y-143933219D01*
X100307865Y-143953435D01*
X100352382Y-144004811D01*
X100412464Y-144133658D01*
X100412468Y-144133666D01*
X100539170Y-144314615D01*
X100539175Y-144314621D01*
X100695378Y-144470824D01*
X100695384Y-144470829D01*
X100876333Y-144597531D01*
X100876335Y-144597532D01*
X100876338Y-144597534D01*
X101076550Y-144690894D01*
X101289932Y-144748070D01*
X101447123Y-144761822D01*
X101509998Y-144767323D01*
X101510000Y-144767323D01*
X101510002Y-144767323D01*
X101565017Y-144762509D01*
X101730068Y-144748070D01*
X101815407Y-144725203D01*
X101885255Y-144726864D01*
X101943118Y-144766026D01*
X101970623Y-144830254D01*
X101971500Y-144844977D01*
X101971500Y-144907191D01*
X101951815Y-144974230D01*
X101935181Y-144994872D01*
X97725911Y-149204141D01*
X97664588Y-149237626D01*
X97606141Y-149236236D01*
X97590075Y-149231931D01*
X97590062Y-149231929D01*
X97370002Y-149212677D01*
X97369998Y-149212677D01*
X97149937Y-149231929D01*
X97149929Y-149231930D01*
X96936554Y-149289104D01*
X96936548Y-149289107D01*
X96736340Y-149382465D01*
X96736338Y-149382466D01*
X96555377Y-149509175D01*
X96399175Y-149665377D01*
X96272466Y-149846338D01*
X96272465Y-149846340D01*
X96212382Y-149975189D01*
X96166209Y-150027628D01*
X96099016Y-150046780D01*
X96032135Y-150026564D01*
X95987618Y-149975189D01*
X95927651Y-149846590D01*
X95927534Y-149846339D01*
X95864180Y-149755859D01*
X95800827Y-149665381D01*
X95748506Y-149613060D01*
X95644620Y-149509174D01*
X95644616Y-149509171D01*
X95644615Y-149509170D01*
X95463666Y-149382468D01*
X95463662Y-149382466D01*
X95388175Y-149347266D01*
X95263450Y-149289106D01*
X95263447Y-149289105D01*
X95263445Y-149289104D01*
X95050070Y-149231930D01*
X95050062Y-149231929D01*
X94830002Y-149212677D01*
X94829998Y-149212677D01*
X94609937Y-149231929D01*
X94609929Y-149231930D01*
X94396554Y-149289104D01*
X94396548Y-149289107D01*
X94196340Y-149382465D01*
X94196338Y-149382466D01*
X94015377Y-149509175D01*
X93859175Y-149665377D01*
X93732466Y-149846338D01*
X93732465Y-149846340D01*
X93672382Y-149975189D01*
X93626209Y-150027628D01*
X93559016Y-150046780D01*
X93492135Y-150026564D01*
X93447618Y-149975189D01*
X93387651Y-149846590D01*
X93387534Y-149846339D01*
X93324180Y-149755859D01*
X93260827Y-149665381D01*
X93208506Y-149613060D01*
X93104620Y-149509174D01*
X93104616Y-149509171D01*
X93104615Y-149509170D01*
X92923666Y-149382468D01*
X92923662Y-149382466D01*
X92848175Y-149347266D01*
X92723450Y-149289106D01*
X92723447Y-149289105D01*
X92723445Y-149289104D01*
X92510070Y-149231930D01*
X92510062Y-149231929D01*
X92290002Y-149212677D01*
X92289998Y-149212677D01*
X92069937Y-149231929D01*
X92069929Y-149231930D01*
X91856554Y-149289104D01*
X91856548Y-149289107D01*
X91656340Y-149382465D01*
X91656338Y-149382466D01*
X91475377Y-149509175D01*
X91319175Y-149665377D01*
X91192466Y-149846338D01*
X91192465Y-149846340D01*
X91099107Y-150046548D01*
X91099104Y-150046554D01*
X91041930Y-150259929D01*
X91041929Y-150259937D01*
X91022677Y-150479997D01*
X80500500Y-150479997D01*
X80500500Y-132561561D01*
X80520185Y-132494522D01*
X80572989Y-132448767D01*
X80598719Y-132440271D01*
X80777652Y-132402238D01*
X81076759Y-132305053D01*
X81364068Y-132177134D01*
X81636432Y-132019885D01*
X81890867Y-131835027D01*
X82124586Y-131624586D01*
X82335027Y-131390867D01*
X82519885Y-131136432D01*
X82677134Y-130864068D01*
X82805053Y-130576759D01*
X82902238Y-130277652D01*
X82967626Y-129970026D01*
X83000500Y-129657250D01*
X83000500Y-129500000D01*
X83000500Y-129434108D01*
X83000500Y-114434108D01*
X83000500Y-114342750D01*
X82967626Y-114029974D01*
X82902238Y-113722348D01*
X82805053Y-113423241D01*
X82677134Y-113135932D01*
X82677131Y-113135928D01*
X82677130Y-113135924D01*
X82519887Y-112863571D01*
X82519884Y-112863566D01*
X82335032Y-112609139D01*
X82335025Y-112609130D01*
X82237157Y-112500437D01*
X82124586Y-112375414D01*
X81921938Y-112192949D01*
X81890869Y-112164974D01*
X81890860Y-112164967D01*
X81636433Y-111980115D01*
X81636428Y-111980112D01*
X81364075Y-111822869D01*
X81364068Y-111822866D01*
X81348404Y-111815892D01*
X81076759Y-111694947D01*
X81076754Y-111694945D01*
X81076751Y-111694944D01*
X80777649Y-111597761D01*
X80777647Y-111597760D01*
X80599254Y-111559842D01*
X80537772Y-111526649D01*
X80503996Y-111465486D01*
X80501035Y-111438442D01*
X80531834Y-79189999D01*
X85214422Y-79189999D01*
X85214422Y-79190000D01*
X85234722Y-79577339D01*
X85295397Y-79960424D01*
X85295398Y-79960433D01*
X85362692Y-80211580D01*
X85395788Y-80335094D01*
X85534787Y-80697197D01*
X85710877Y-81042793D01*
X85922122Y-81368082D01*
X85922124Y-81368084D01*
X86166219Y-81669516D01*
X86440484Y-81943781D01*
X86608375Y-82079737D01*
X86741917Y-82187877D01*
X87067206Y-82399122D01*
X87067211Y-82399125D01*
X87412806Y-82575214D01*
X87774913Y-82714214D01*
X88149567Y-82814602D01*
X88532662Y-82875278D01*
X88898576Y-82894455D01*
X88919999Y-82895578D01*
X88920000Y-82895578D01*
X88920001Y-82895578D01*
X88940301Y-82894514D01*
X89307338Y-82875278D01*
X89690433Y-82814602D01*
X90065087Y-82714214D01*
X90427194Y-82575214D01*
X90772789Y-82399125D01*
X91098084Y-82187876D01*
X91399516Y-81943781D01*
X91673781Y-81669516D01*
X91917876Y-81368084D01*
X92129125Y-81042789D01*
X92305214Y-80697194D01*
X92444214Y-80335087D01*
X92544602Y-79960433D01*
X92563439Y-79841496D01*
X92593368Y-79778363D01*
X92652679Y-79741431D01*
X92722542Y-79742429D01*
X92780775Y-79781038D01*
X92798293Y-79808487D01*
X92813686Y-79841497D01*
X92825967Y-79867834D01*
X92890806Y-79960433D01*
X92961501Y-80061396D01*
X92961506Y-80061402D01*
X93083430Y-80183326D01*
X93116915Y-80244649D01*
X93111931Y-80314341D01*
X93070059Y-80370274D01*
X93039083Y-80387189D01*
X92907669Y-80436203D01*
X92907664Y-80436206D01*
X92792455Y-80522452D01*
X92792452Y-80522455D01*
X92706206Y-80637664D01*
X92706202Y-80637671D01*
X92655908Y-80772517D01*
X92649501Y-80832116D01*
X92649500Y-80832135D01*
X92649500Y-82627870D01*
X92649501Y-82627876D01*
X92655908Y-82687483D01*
X92706202Y-82822328D01*
X92706206Y-82822335D01*
X92792452Y-82937544D01*
X92792455Y-82937547D01*
X92907664Y-83023793D01*
X92907671Y-83023797D01*
X93042517Y-83074091D01*
X93042516Y-83074091D01*
X93049444Y-83074835D01*
X93102127Y-83080500D01*
X93301746Y-83080499D01*
X93368783Y-83100183D01*
X93414538Y-83152987D01*
X93424482Y-83222145D01*
X93395457Y-83285701D01*
X93354153Y-83316879D01*
X93334674Y-83325962D01*
X93334669Y-83325965D01*
X93141097Y-83461505D01*
X92974005Y-83628597D01*
X92838465Y-83822169D01*
X92838464Y-83822171D01*
X92738598Y-84036335D01*
X92738594Y-84036344D01*
X92677438Y-84264586D01*
X92677436Y-84264596D01*
X92656841Y-84499999D01*
X92656841Y-84500000D01*
X92677436Y-84735403D01*
X92677438Y-84735413D01*
X92738594Y-84963655D01*
X92738596Y-84963659D01*
X92738597Y-84963663D01*
X92818504Y-85135023D01*
X92838465Y-85177830D01*
X92838467Y-85177834D01*
X92936832Y-85318312D01*
X92974001Y-85371396D01*
X92974006Y-85371402D01*
X93095930Y-85493326D01*
X93129415Y-85554649D01*
X93124431Y-85624341D01*
X93082559Y-85680274D01*
X93051583Y-85697189D01*
X92920169Y-85746203D01*
X92920164Y-85746206D01*
X92804955Y-85832452D01*
X92804952Y-85832455D01*
X92718706Y-85947664D01*
X92718702Y-85947671D01*
X92668408Y-86082517D01*
X92662001Y-86142116D01*
X92662000Y-86142135D01*
X92662000Y-87937870D01*
X92662001Y-87937876D01*
X92668408Y-87997483D01*
X92718702Y-88132328D01*
X92718706Y-88132335D01*
X92804952Y-88247544D01*
X92804955Y-88247547D01*
X92920164Y-88333793D01*
X92920171Y-88333797D01*
X93055017Y-88384091D01*
X93055016Y-88384091D01*
X93061944Y-88384835D01*
X93114627Y-88390500D01*
X94910372Y-88390499D01*
X94969983Y-88384091D01*
X95104831Y-88333796D01*
X95220046Y-88247546D01*
X95306296Y-88132331D01*
X95355310Y-88000916D01*
X95397181Y-87944984D01*
X95462645Y-87920566D01*
X95530918Y-87935417D01*
X95559173Y-87956569D01*
X95681099Y-88078495D01*
X95758590Y-88132755D01*
X95874665Y-88214032D01*
X95874667Y-88214033D01*
X95874670Y-88214035D01*
X96088837Y-88313903D01*
X96088843Y-88313904D01*
X96088844Y-88313905D01*
X96136824Y-88326761D01*
X96317092Y-88375063D01*
X96493534Y-88390500D01*
X96552499Y-88395659D01*
X96552500Y-88395659D01*
X96552501Y-88395659D01*
X96611466Y-88390500D01*
X96787908Y-88375063D01*
X97016163Y-88313903D01*
X97230330Y-88214035D01*
X97423901Y-88078495D01*
X97590995Y-87911401D01*
X97720925Y-87725842D01*
X97775502Y-87682217D01*
X97845000Y-87675023D01*
X97907355Y-87706546D01*
X97924075Y-87725842D01*
X98054000Y-87911395D01*
X98054005Y-87911401D01*
X98221099Y-88078495D01*
X98298590Y-88132755D01*
X98414665Y-88214032D01*
X98414667Y-88214033D01*
X98414670Y-88214035D01*
X98628837Y-88313903D01*
X98628843Y-88313904D01*
X98628844Y-88313905D01*
X98676824Y-88326761D01*
X98857092Y-88375063D01*
X99033534Y-88390500D01*
X99092499Y-88395659D01*
X99092500Y-88395659D01*
X99092501Y-88395659D01*
X99151466Y-88390500D01*
X99327908Y-88375063D01*
X99556163Y-88313903D01*
X99770330Y-88214035D01*
X99963901Y-88078495D01*
X100130995Y-87911401D01*
X100260925Y-87725842D01*
X100315502Y-87682217D01*
X100385000Y-87675023D01*
X100447355Y-87706546D01*
X100464075Y-87725842D01*
X100594000Y-87911395D01*
X100594005Y-87911401D01*
X100761099Y-88078495D01*
X100838590Y-88132755D01*
X100954665Y-88214032D01*
X100954667Y-88214033D01*
X100954670Y-88214035D01*
X101168837Y-88313903D01*
X101168843Y-88313904D01*
X101168844Y-88313905D01*
X101216824Y-88326761D01*
X101397092Y-88375063D01*
X101573534Y-88390500D01*
X101632499Y-88395659D01*
X101632500Y-88395659D01*
X101632501Y-88395659D01*
X101691466Y-88390500D01*
X101867908Y-88375063D01*
X102096163Y-88313903D01*
X102245596Y-88244220D01*
X102314672Y-88233729D01*
X102378456Y-88262249D01*
X102416696Y-88320725D01*
X102422000Y-88356603D01*
X102422000Y-88935830D01*
X102421999Y-88935848D01*
X102421999Y-89101554D01*
X102421998Y-89101554D01*
X102459817Y-89242692D01*
X102462923Y-89254285D01*
X102482946Y-89288965D01*
X102522302Y-89357132D01*
X102541979Y-89391215D01*
X102660849Y-89510085D01*
X102660855Y-89510090D01*
X104169298Y-91018533D01*
X104202783Y-91079856D01*
X104204837Y-91092330D01*
X104214630Y-91179251D01*
X104247897Y-91274324D01*
X104251458Y-91344103D01*
X104216728Y-91404730D01*
X104154735Y-91436956D01*
X104120048Y-91438805D01*
X104050002Y-91432677D01*
X104049998Y-91432677D01*
X103829937Y-91451929D01*
X103829929Y-91451930D01*
X103616554Y-91509104D01*
X103616548Y-91509107D01*
X103416340Y-91602465D01*
X103416338Y-91602466D01*
X103235377Y-91729175D01*
X103079175Y-91885377D01*
X102952466Y-92066338D01*
X102952465Y-92066340D01*
X102892382Y-92195189D01*
X102846209Y-92247628D01*
X102779016Y-92266780D01*
X102712135Y-92246564D01*
X102667618Y-92195189D01*
X102607534Y-92066340D01*
X102607533Y-92066338D01*
X102480827Y-91885381D01*
X102426447Y-91831001D01*
X102324620Y-91729174D01*
X102324616Y-91729171D01*
X102324615Y-91729170D01*
X102143666Y-91602468D01*
X102143662Y-91602466D01*
X102143094Y-91602201D01*
X101943450Y-91509106D01*
X101943447Y-91509105D01*
X101943445Y-91509104D01*
X101730070Y-91451930D01*
X101730062Y-91451929D01*
X101510002Y-91432677D01*
X101509998Y-91432677D01*
X101289937Y-91451929D01*
X101289920Y-91451932D01*
X101273857Y-91456236D01*
X101204007Y-91454570D01*
X101154088Y-91424141D01*
X100224673Y-90494726D01*
X100224666Y-90494721D01*
X100118127Y-90423535D01*
X100103767Y-90417587D01*
X99999744Y-90374499D01*
X99999738Y-90374497D01*
X99874071Y-90349500D01*
X99874069Y-90349500D01*
X91228825Y-90349500D01*
X91228823Y-90349500D01*
X91103155Y-90374497D01*
X91103145Y-90374500D01*
X91054114Y-90394810D01*
X90984775Y-90423530D01*
X90984757Y-90423540D01*
X90878226Y-90494721D01*
X90878219Y-90494727D01*
X90494725Y-90878222D01*
X90494724Y-90878223D01*
X90494723Y-90878225D01*
X90456669Y-90935179D01*
X90455118Y-90937500D01*
X90455117Y-90937501D01*
X90423534Y-90984767D01*
X90374499Y-91103149D01*
X90374497Y-91103155D01*
X90349500Y-91228822D01*
X90349500Y-97690417D01*
X90366168Y-97774207D01*
X90366168Y-97774209D01*
X90374497Y-97816083D01*
X90374498Y-97816087D01*
X90374499Y-97816090D01*
X90394425Y-97864196D01*
X90421207Y-97928854D01*
X90423535Y-97934473D01*
X90494723Y-98041015D01*
X90494726Y-98041019D01*
X93108980Y-100655273D01*
X93108983Y-100655275D01*
X93108985Y-100655277D01*
X93214515Y-100725789D01*
X93215527Y-100726465D01*
X93333910Y-100775501D01*
X93333914Y-100775501D01*
X93333915Y-100775502D01*
X93459582Y-100800500D01*
X93459585Y-100800500D01*
X99914071Y-100800500D01*
X99998615Y-100783682D01*
X100039744Y-100775501D01*
X100158127Y-100726465D01*
X100159139Y-100725789D01*
X100264669Y-100655277D01*
X101127741Y-99792203D01*
X101189062Y-99758720D01*
X101256375Y-99762844D01*
X101320745Y-99785368D01*
X101320750Y-99785369D01*
X101499996Y-99805565D01*
X101500000Y-99805565D01*
X101500002Y-99805565D01*
X101529449Y-99802246D01*
X101564610Y-99798285D01*
X101633432Y-99810339D01*
X101684811Y-99857688D01*
X101702436Y-99925298D01*
X101701714Y-99935388D01*
X101694435Y-99999995D01*
X101694435Y-100000003D01*
X101714630Y-100179249D01*
X101714631Y-100179254D01*
X101774211Y-100349523D01*
X101828158Y-100435378D01*
X101870184Y-100502262D01*
X101997738Y-100629816D01*
X102150478Y-100725789D01*
X102292544Y-100775500D01*
X102320745Y-100785368D01*
X102320750Y-100785369D01*
X102499996Y-100805565D01*
X102500000Y-100805565D01*
X102500004Y-100805565D01*
X102679249Y-100785369D01*
X102679252Y-100785368D01*
X102679255Y-100785368D01*
X102849522Y-100725789D01*
X102913478Y-100685602D01*
X102980713Y-100666602D01*
X103047549Y-100686969D01*
X103092763Y-100740236D01*
X103094011Y-100743142D01*
X103120929Y-100808127D01*
X103120932Y-100808133D01*
X103192117Y-100914668D01*
X103192120Y-100914672D01*
X103282721Y-101005273D01*
X103282725Y-101005276D01*
X103389260Y-101076461D01*
X103389266Y-101076464D01*
X103389267Y-101076465D01*
X103507650Y-101125501D01*
X103507654Y-101125501D01*
X103507655Y-101125502D01*
X103633322Y-101150500D01*
X103633325Y-101150500D01*
X109564071Y-101150500D01*
X109648615Y-101133682D01*
X109689744Y-101125501D01*
X109808127Y-101076465D01*
X109862068Y-101040423D01*
X109862068Y-101040422D01*
X109862070Y-101040422D01*
X109888368Y-101022850D01*
X109914669Y-101005277D01*
X110484567Y-100435377D01*
X110545890Y-100401893D01*
X110615581Y-100406877D01*
X110671515Y-100448748D01*
X110695468Y-100509175D01*
X110714630Y-100679250D01*
X110714633Y-100679262D01*
X110774209Y-100849520D01*
X110827309Y-100934029D01*
X110846309Y-101001266D01*
X110827309Y-101065971D01*
X110774209Y-101150479D01*
X110714633Y-101320737D01*
X110714630Y-101320750D01*
X110694435Y-101499996D01*
X110694435Y-101500003D01*
X110714630Y-101679249D01*
X110714633Y-101679262D01*
X110774209Y-101849520D01*
X110827309Y-101934029D01*
X110846309Y-102001266D01*
X110827309Y-102065971D01*
X110774209Y-102150479D01*
X110714633Y-102320737D01*
X110714630Y-102320750D01*
X110694435Y-102499996D01*
X110694435Y-102500003D01*
X110714630Y-102679249D01*
X110714631Y-102679254D01*
X110774211Y-102849523D01*
X110870184Y-103002262D01*
X110997738Y-103129816D01*
X111021911Y-103145005D01*
X111021913Y-103145006D01*
X111068204Y-103197341D01*
X111078852Y-103266395D01*
X111050477Y-103330243D01*
X111021913Y-103354994D01*
X110997737Y-103370184D01*
X110870184Y-103497737D01*
X110774211Y-103650476D01*
X110714631Y-103820745D01*
X110714630Y-103820750D01*
X110694435Y-103999996D01*
X110694435Y-104000003D01*
X110714630Y-104179249D01*
X110714631Y-104179254D01*
X110774211Y-104349523D01*
X110870184Y-104502262D01*
X110997738Y-104629816D01*
X111150478Y-104725789D01*
X111320745Y-104785368D01*
X111320750Y-104785369D01*
X111499996Y-104805565D01*
X111500000Y-104805565D01*
X111500004Y-104805565D01*
X111679249Y-104785369D01*
X111679252Y-104785368D01*
X111679255Y-104785368D01*
X111849522Y-104725789D01*
X112002262Y-104629816D01*
X112002267Y-104629810D01*
X112005097Y-104627555D01*
X112007275Y-104626665D01*
X112008158Y-104626111D01*
X112008255Y-104626265D01*
X112069783Y-104601145D01*
X112082412Y-104600500D01*
X132979017Y-104600500D01*
X132979033Y-104600501D01*
X132986629Y-104600501D01*
X133144740Y-104600501D01*
X133144743Y-104600501D01*
X133297471Y-104559577D01*
X133347590Y-104530639D01*
X133434402Y-104480520D01*
X133546206Y-104368716D01*
X133546206Y-104368714D01*
X133556414Y-104358507D01*
X133556415Y-104358504D01*
X134778102Y-103136819D01*
X134839425Y-103103334D01*
X134865783Y-103100500D01*
X137417588Y-103100500D01*
X137484627Y-103120185D01*
X137494903Y-103127555D01*
X137497736Y-103129814D01*
X137497738Y-103129816D01*
X137650478Y-103225789D01*
X137788860Y-103274211D01*
X137820745Y-103285368D01*
X137820750Y-103285369D01*
X137999996Y-103305565D01*
X138000000Y-103305565D01*
X138000004Y-103305565D01*
X138179249Y-103285369D01*
X138179252Y-103285368D01*
X138179255Y-103285368D01*
X138349522Y-103225789D01*
X138502262Y-103129816D01*
X138629816Y-103002262D01*
X138725789Y-102849522D01*
X138785368Y-102679255D01*
X138805565Y-102500000D01*
X138785368Y-102320745D01*
X138725789Y-102150478D01*
X138629816Y-101997738D01*
X138502262Y-101870184D01*
X138469379Y-101849522D01*
X138349523Y-101774211D01*
X138179254Y-101714631D01*
X138179249Y-101714630D01*
X138000004Y-101694435D01*
X137999996Y-101694435D01*
X137820750Y-101714630D01*
X137820745Y-101714631D01*
X137650476Y-101774211D01*
X137497736Y-101870185D01*
X137494903Y-101872445D01*
X137492724Y-101873334D01*
X137491842Y-101873889D01*
X137491744Y-101873734D01*
X137430217Y-101898855D01*
X137417588Y-101899500D01*
X135749097Y-101899500D01*
X135682058Y-101879815D01*
X135636303Y-101827011D01*
X135626359Y-101757853D01*
X135655384Y-101694297D01*
X135661416Y-101687819D01*
X136308813Y-101040422D01*
X137018536Y-100330698D01*
X137079857Y-100297215D01*
X137092310Y-100295163D01*
X137179255Y-100285368D01*
X137349522Y-100225789D01*
X137502262Y-100129816D01*
X137629816Y-100002262D01*
X137725789Y-99849522D01*
X137785368Y-99679255D01*
X137785369Y-99679249D01*
X137805565Y-99500003D01*
X137805565Y-99499996D01*
X137785369Y-99320750D01*
X137785368Y-99320745D01*
X137762127Y-99254325D01*
X137725789Y-99150478D01*
X137629816Y-98997738D01*
X137502262Y-98870184D01*
X137437503Y-98829493D01*
X137391213Y-98777159D01*
X137380565Y-98708106D01*
X137408940Y-98644257D01*
X137467330Y-98605885D01*
X137503476Y-98600500D01*
X138681226Y-98600500D01*
X138681242Y-98600501D01*
X138688838Y-98600501D01*
X138846949Y-98600501D01*
X138846952Y-98600501D01*
X138999680Y-98559577D01*
X139069128Y-98519481D01*
X139136611Y-98480520D01*
X139248415Y-98368716D01*
X139248416Y-98368714D01*
X139480313Y-98136816D01*
X139541635Y-98103334D01*
X139567993Y-98100500D01*
X150917588Y-98100500D01*
X150984627Y-98120185D01*
X150994903Y-98127555D01*
X150997736Y-98129814D01*
X150997738Y-98129816D01*
X151076410Y-98179249D01*
X151132718Y-98214630D01*
X151150478Y-98225789D01*
X151288857Y-98274210D01*
X151320745Y-98285368D01*
X151320750Y-98285369D01*
X151499996Y-98305565D01*
X151500000Y-98305565D01*
X151500004Y-98305565D01*
X151679249Y-98285369D01*
X151679252Y-98285368D01*
X151679255Y-98285368D01*
X151849522Y-98225789D01*
X152002262Y-98129816D01*
X152129816Y-98002262D01*
X152225789Y-97849522D01*
X152285368Y-97679255D01*
X152285369Y-97679249D01*
X152305565Y-97500003D01*
X152305565Y-97499996D01*
X152285369Y-97320750D01*
X152285368Y-97320745D01*
X152252141Y-97225789D01*
X152225789Y-97150478D01*
X152217206Y-97136819D01*
X152180156Y-97077853D01*
X152129816Y-96997738D01*
X152002262Y-96870184D01*
X151932143Y-96826125D01*
X151849523Y-96774211D01*
X151679254Y-96714631D01*
X151679249Y-96714630D01*
X151500004Y-96694435D01*
X151499996Y-96694435D01*
X151320750Y-96714630D01*
X151320745Y-96714631D01*
X151150476Y-96774211D01*
X150997736Y-96870185D01*
X150994903Y-96872445D01*
X150992724Y-96873334D01*
X150991842Y-96873889D01*
X150991744Y-96873734D01*
X150930217Y-96898855D01*
X150917588Y-96899500D01*
X139354565Y-96899500D01*
X139354549Y-96899499D01*
X139346953Y-96899499D01*
X139188838Y-96899499D01*
X139104316Y-96922146D01*
X139034467Y-96920484D01*
X138976604Y-96881322D01*
X138949100Y-96817093D01*
X138960686Y-96748191D01*
X138984539Y-96714694D01*
X139198321Y-96500912D01*
X139259642Y-96467429D01*
X139318095Y-96468821D01*
X139389924Y-96488068D01*
X139389925Y-96488068D01*
X139389932Y-96488070D01*
X139577226Y-96504455D01*
X139609998Y-96507323D01*
X139610000Y-96507323D01*
X139610002Y-96507323D01*
X139677713Y-96501399D01*
X139830068Y-96488070D01*
X140043450Y-96430894D01*
X140243662Y-96337534D01*
X140424620Y-96210826D01*
X140580826Y-96054620D01*
X140707534Y-95873662D01*
X140767618Y-95744811D01*
X140813790Y-95692371D01*
X140880983Y-95673219D01*
X140947865Y-95693435D01*
X140992382Y-95744811D01*
X141052464Y-95873658D01*
X141052468Y-95873666D01*
X141179170Y-96054615D01*
X141179175Y-96054621D01*
X141335378Y-96210824D01*
X141335384Y-96210829D01*
X141516333Y-96337531D01*
X141516335Y-96337532D01*
X141516338Y-96337534D01*
X141716550Y-96430894D01*
X141929932Y-96488070D01*
X142076743Y-96500914D01*
X142149998Y-96507323D01*
X142150000Y-96507323D01*
X142150002Y-96507323D01*
X142217713Y-96501399D01*
X142370068Y-96488070D01*
X142583450Y-96430894D01*
X142783662Y-96337534D01*
X142964620Y-96210826D01*
X143120826Y-96054620D01*
X143247534Y-95873662D01*
X143307618Y-95744811D01*
X143353790Y-95692371D01*
X143420983Y-95673219D01*
X143487865Y-95693435D01*
X143532382Y-95744811D01*
X143592464Y-95873658D01*
X143592468Y-95873666D01*
X143719170Y-96054615D01*
X143719175Y-96054621D01*
X143875378Y-96210824D01*
X143875384Y-96210829D01*
X144056333Y-96337531D01*
X144056335Y-96337532D01*
X144056338Y-96337534D01*
X144256550Y-96430894D01*
X144469932Y-96488070D01*
X144616743Y-96500914D01*
X144689998Y-96507323D01*
X144690000Y-96507323D01*
X144690002Y-96507323D01*
X144757713Y-96501399D01*
X144910068Y-96488070D01*
X145123450Y-96430894D01*
X145323662Y-96337534D01*
X145504620Y-96210826D01*
X145660826Y-96054620D01*
X145787534Y-95873662D01*
X145847618Y-95744811D01*
X145893790Y-95692371D01*
X145960983Y-95673219D01*
X146027865Y-95693435D01*
X146072382Y-95744811D01*
X146132464Y-95873658D01*
X146132468Y-95873666D01*
X146259170Y-96054615D01*
X146259175Y-96054621D01*
X146415378Y-96210824D01*
X146415384Y-96210829D01*
X146596333Y-96337531D01*
X146596335Y-96337532D01*
X146596338Y-96337534D01*
X146796550Y-96430894D01*
X147009932Y-96488070D01*
X147156743Y-96500914D01*
X147229998Y-96507323D01*
X147230000Y-96507323D01*
X147230002Y-96507323D01*
X147297713Y-96501399D01*
X147450068Y-96488070D01*
X147663450Y-96430894D01*
X147863662Y-96337534D01*
X148044620Y-96210826D01*
X148200826Y-96054620D01*
X148327534Y-95873662D01*
X148387894Y-95744218D01*
X148434066Y-95691779D01*
X148501259Y-95672627D01*
X148568141Y-95692843D01*
X148612658Y-95744219D01*
X148672898Y-95873405D01*
X148672901Y-95873411D01*
X148718258Y-95938187D01*
X148718258Y-95938188D01*
X149389000Y-95267446D01*
X149389000Y-95290160D01*
X149414964Y-95387061D01*
X149465124Y-95473940D01*
X149536060Y-95544876D01*
X149622939Y-95595036D01*
X149719840Y-95621000D01*
X149742553Y-95621000D01*
X149071810Y-96291740D01*
X149136590Y-96337099D01*
X149136592Y-96337100D01*
X149336715Y-96430419D01*
X149336729Y-96430424D01*
X149550013Y-96487573D01*
X149550023Y-96487575D01*
X149769999Y-96506821D01*
X149770001Y-96506821D01*
X149989976Y-96487575D01*
X149989986Y-96487573D01*
X150203270Y-96430424D01*
X150203284Y-96430419D01*
X150403407Y-96337100D01*
X150403417Y-96337094D01*
X150468188Y-96291741D01*
X149797448Y-95621000D01*
X149820160Y-95621000D01*
X149917061Y-95595036D01*
X150003940Y-95544876D01*
X150074876Y-95473940D01*
X150125036Y-95387061D01*
X150151000Y-95290160D01*
X150151000Y-95267447D01*
X150821741Y-95938188D01*
X150867094Y-95873417D01*
X150867100Y-95873407D01*
X150960419Y-95673284D01*
X150960424Y-95673270D01*
X151017573Y-95459986D01*
X151017575Y-95459976D01*
X151036821Y-95240000D01*
X151036821Y-95239999D01*
X151017575Y-95020023D01*
X151017573Y-95020013D01*
X150960424Y-94806729D01*
X150960420Y-94806720D01*
X150867096Y-94606586D01*
X150821741Y-94541811D01*
X150821740Y-94541810D01*
X150151000Y-95212551D01*
X150151000Y-95189840D01*
X150125036Y-95092939D01*
X150074876Y-95006060D01*
X150003940Y-94935124D01*
X149917061Y-94884964D01*
X149820160Y-94859000D01*
X149797446Y-94859000D01*
X150468188Y-94188258D01*
X150403411Y-94142901D01*
X150403405Y-94142898D01*
X150273627Y-94082382D01*
X150221187Y-94036210D01*
X150202035Y-93969017D01*
X150222251Y-93902135D01*
X150273627Y-93857618D01*
X150403407Y-93797100D01*
X150403417Y-93797094D01*
X150468188Y-93751741D01*
X149797447Y-93081000D01*
X149820160Y-93081000D01*
X149917061Y-93055036D01*
X150003940Y-93004876D01*
X150074876Y-92933940D01*
X150125036Y-92847061D01*
X150151000Y-92750160D01*
X150151000Y-92727447D01*
X150821741Y-93398188D01*
X150867094Y-93333417D01*
X150867100Y-93333407D01*
X150960419Y-93133284D01*
X150960424Y-93133270D01*
X151017573Y-92919986D01*
X151017575Y-92919976D01*
X151036821Y-92700000D01*
X151036821Y-92699999D01*
X151017575Y-92480023D01*
X151017573Y-92480013D01*
X150960424Y-92266729D01*
X150960420Y-92266720D01*
X150867096Y-92066586D01*
X150821741Y-92001811D01*
X150821740Y-92001810D01*
X150151000Y-92672551D01*
X150151000Y-92649840D01*
X150125036Y-92552939D01*
X150074876Y-92466060D01*
X150003940Y-92395124D01*
X149917061Y-92344964D01*
X149820160Y-92319000D01*
X149797448Y-92319000D01*
X150468188Y-91648259D01*
X150468187Y-91648258D01*
X150403411Y-91602901D01*
X150403405Y-91602898D01*
X150203284Y-91509580D01*
X150203270Y-91509575D01*
X149989986Y-91452426D01*
X149989976Y-91452424D01*
X149770001Y-91433179D01*
X149769999Y-91433179D01*
X149550023Y-91452424D01*
X149550013Y-91452426D01*
X149336729Y-91509575D01*
X149336720Y-91509579D01*
X149136590Y-91602901D01*
X149071811Y-91648258D01*
X149742553Y-92319000D01*
X149719840Y-92319000D01*
X149622939Y-92344964D01*
X149536060Y-92395124D01*
X149465124Y-92466060D01*
X149414964Y-92552939D01*
X149389000Y-92649840D01*
X149389000Y-92672553D01*
X148718258Y-92001811D01*
X148672901Y-92066590D01*
X148612658Y-92195781D01*
X148566485Y-92248220D01*
X148499292Y-92267372D01*
X148432411Y-92247156D01*
X148387894Y-92195781D01*
X148327534Y-92066340D01*
X148327533Y-92066338D01*
X148200827Y-91885381D01*
X148146447Y-91831001D01*
X148044620Y-91729174D01*
X148044616Y-91729171D01*
X148044615Y-91729170D01*
X147863666Y-91602468D01*
X147863662Y-91602466D01*
X147863094Y-91602201D01*
X147663450Y-91509106D01*
X147663447Y-91509105D01*
X147663445Y-91509104D01*
X147450070Y-91451930D01*
X147450062Y-91451929D01*
X147230002Y-91432677D01*
X147229998Y-91432677D01*
X147009937Y-91451929D01*
X147009929Y-91451930D01*
X146796554Y-91509104D01*
X146796548Y-91509107D01*
X146596340Y-91602465D01*
X146596338Y-91602466D01*
X146415377Y-91729175D01*
X146259175Y-91885377D01*
X146132466Y-92066338D01*
X146132465Y-92066340D01*
X146072382Y-92195189D01*
X146026209Y-92247628D01*
X145959016Y-92266780D01*
X145892135Y-92246564D01*
X145847618Y-92195189D01*
X145787534Y-92066340D01*
X145787533Y-92066338D01*
X145660827Y-91885381D01*
X145606447Y-91831001D01*
X145504620Y-91729174D01*
X145504616Y-91729171D01*
X145504615Y-91729170D01*
X145323666Y-91602468D01*
X145323662Y-91602466D01*
X145323094Y-91602201D01*
X145123450Y-91509106D01*
X145123447Y-91509105D01*
X145123445Y-91509104D01*
X144910070Y-91451930D01*
X144910062Y-91451929D01*
X144690002Y-91432677D01*
X144689998Y-91432677D01*
X144469937Y-91451929D01*
X144469929Y-91451930D01*
X144256554Y-91509104D01*
X144256548Y-91509107D01*
X144056340Y-91602465D01*
X144056338Y-91602466D01*
X143875377Y-91729175D01*
X143719175Y-91885377D01*
X143592466Y-92066338D01*
X143592465Y-92066340D01*
X143532382Y-92195189D01*
X143486209Y-92247628D01*
X143419016Y-92266780D01*
X143352135Y-92246564D01*
X143307618Y-92195189D01*
X143247534Y-92066340D01*
X143247533Y-92066338D01*
X143120827Y-91885381D01*
X143066447Y-91831001D01*
X142964620Y-91729174D01*
X142964616Y-91729171D01*
X142964615Y-91729170D01*
X142783666Y-91602468D01*
X142783662Y-91602466D01*
X142783094Y-91602201D01*
X142583450Y-91509106D01*
X142583447Y-91509105D01*
X142583445Y-91509104D01*
X142370070Y-91451930D01*
X142370062Y-91451929D01*
X142150002Y-91432677D01*
X142149998Y-91432677D01*
X141929937Y-91451929D01*
X141929929Y-91451930D01*
X141716554Y-91509104D01*
X141716548Y-91509107D01*
X141516340Y-91602465D01*
X141516338Y-91602466D01*
X141335377Y-91729175D01*
X141179175Y-91885377D01*
X141052466Y-92066338D01*
X141052465Y-92066340D01*
X140992382Y-92195189D01*
X140946209Y-92247628D01*
X140879016Y-92266780D01*
X140812135Y-92246564D01*
X140767618Y-92195189D01*
X140707534Y-92066340D01*
X140707533Y-92066338D01*
X140580827Y-91885381D01*
X140526447Y-91831001D01*
X140424620Y-91729174D01*
X140424616Y-91729171D01*
X140424615Y-91729170D01*
X140243666Y-91602468D01*
X140243662Y-91602466D01*
X140243094Y-91602201D01*
X140043450Y-91509106D01*
X140043447Y-91509105D01*
X140043445Y-91509104D01*
X139830070Y-91451930D01*
X139830062Y-91451929D01*
X139610002Y-91432677D01*
X139609998Y-91432677D01*
X139389937Y-91451929D01*
X139389929Y-91451930D01*
X139176554Y-91509104D01*
X139176548Y-91509107D01*
X138976340Y-91602465D01*
X138976338Y-91602466D01*
X138795377Y-91729175D01*
X138639175Y-91885377D01*
X138512466Y-92066338D01*
X138512465Y-92066340D01*
X138452382Y-92195189D01*
X138406209Y-92247628D01*
X138339016Y-92266780D01*
X138272135Y-92246564D01*
X138227618Y-92195189D01*
X138167534Y-92066340D01*
X138167533Y-92066338D01*
X138040827Y-91885381D01*
X137986447Y-91831001D01*
X137884620Y-91729174D01*
X137884616Y-91729171D01*
X137884615Y-91729170D01*
X137703666Y-91602468D01*
X137703662Y-91602466D01*
X137703094Y-91602201D01*
X137503450Y-91509106D01*
X137503447Y-91509105D01*
X137503445Y-91509104D01*
X137290070Y-91451930D01*
X137290062Y-91451929D01*
X137070002Y-91432677D01*
X137069998Y-91432677D01*
X136849937Y-91451929D01*
X136849929Y-91451930D01*
X136636554Y-91509104D01*
X136636548Y-91509107D01*
X136436340Y-91602465D01*
X136436338Y-91602466D01*
X136255377Y-91729175D01*
X136099175Y-91885377D01*
X135972466Y-92066338D01*
X135972465Y-92066340D01*
X135912382Y-92195189D01*
X135866209Y-92247628D01*
X135799016Y-92266780D01*
X135732135Y-92246564D01*
X135687618Y-92195189D01*
X135627534Y-92066340D01*
X135627533Y-92066338D01*
X135500827Y-91885381D01*
X135446447Y-91831001D01*
X135344620Y-91729174D01*
X135344616Y-91729171D01*
X135344615Y-91729170D01*
X135163666Y-91602468D01*
X135163658Y-91602464D01*
X135088068Y-91567216D01*
X135035628Y-91521044D01*
X135016476Y-91453851D01*
X135036692Y-91386969D01*
X135052786Y-91367158D01*
X137493127Y-88926819D01*
X137554450Y-88893334D01*
X137580808Y-88890500D01*
X137753628Y-88890500D01*
X137838172Y-88873682D01*
X137879301Y-88865501D01*
X137997684Y-88816465D01*
X138104226Y-88745277D01*
X138734538Y-88114963D01*
X138795859Y-88081480D01*
X138865550Y-88086464D01*
X138893340Y-88101071D01*
X139054665Y-88214032D01*
X139054667Y-88214033D01*
X139054670Y-88214035D01*
X139268837Y-88313903D01*
X139268843Y-88313904D01*
X139268844Y-88313905D01*
X139316824Y-88326761D01*
X139497092Y-88375063D01*
X139673534Y-88390500D01*
X139732499Y-88395659D01*
X139732500Y-88395659D01*
X139732501Y-88395659D01*
X139791466Y-88390500D01*
X139967908Y-88375063D01*
X140196163Y-88313903D01*
X140410330Y-88214035D01*
X140603901Y-88078495D01*
X140770995Y-87911401D01*
X140900925Y-87725842D01*
X140955502Y-87682217D01*
X141025000Y-87675023D01*
X141087355Y-87706546D01*
X141104075Y-87725842D01*
X141234000Y-87911395D01*
X141234005Y-87911401D01*
X141401099Y-88078495D01*
X141478590Y-88132755D01*
X141594665Y-88214032D01*
X141594667Y-88214033D01*
X141594670Y-88214035D01*
X141808837Y-88313903D01*
X141808843Y-88313904D01*
X141808844Y-88313905D01*
X141856824Y-88326761D01*
X142037092Y-88375063D01*
X142213534Y-88390500D01*
X142272499Y-88395659D01*
X142272500Y-88395659D01*
X142272501Y-88395659D01*
X142331466Y-88390500D01*
X142507908Y-88375063D01*
X142736163Y-88313903D01*
X142950330Y-88214035D01*
X143143901Y-88078495D01*
X143310995Y-87911401D01*
X143440925Y-87725842D01*
X143495502Y-87682217D01*
X143565000Y-87675023D01*
X143627355Y-87706546D01*
X143644075Y-87725842D01*
X143774000Y-87911395D01*
X143774005Y-87911401D01*
X143941099Y-88078495D01*
X144018590Y-88132755D01*
X144134665Y-88214032D01*
X144134667Y-88214033D01*
X144134670Y-88214035D01*
X144348837Y-88313903D01*
X144348843Y-88313904D01*
X144348844Y-88313905D01*
X144396824Y-88326761D01*
X144577092Y-88375063D01*
X144753534Y-88390500D01*
X144812499Y-88395659D01*
X144812500Y-88395659D01*
X144812501Y-88395659D01*
X144871466Y-88390500D01*
X145047908Y-88375063D01*
X145276163Y-88313903D01*
X145490330Y-88214035D01*
X145683901Y-88078495D01*
X145850995Y-87911401D01*
X145980925Y-87725842D01*
X146035502Y-87682217D01*
X146105000Y-87675023D01*
X146167355Y-87706546D01*
X146184075Y-87725842D01*
X146314000Y-87911395D01*
X146314005Y-87911401D01*
X146481099Y-88078495D01*
X146558590Y-88132755D01*
X146674665Y-88214032D01*
X146674667Y-88214033D01*
X146674670Y-88214035D01*
X146888837Y-88313903D01*
X146888843Y-88313904D01*
X146888844Y-88313905D01*
X146936824Y-88326761D01*
X147117092Y-88375063D01*
X147293534Y-88390500D01*
X147352499Y-88395659D01*
X147352500Y-88395659D01*
X147352501Y-88395659D01*
X147411466Y-88390500D01*
X147587908Y-88375063D01*
X147816163Y-88313903D01*
X148030330Y-88214035D01*
X148223901Y-88078495D01*
X148390995Y-87911401D01*
X148520925Y-87725842D01*
X148575502Y-87682217D01*
X148645000Y-87675023D01*
X148707355Y-87706546D01*
X148724075Y-87725842D01*
X148854000Y-87911395D01*
X148854005Y-87911401D01*
X149021099Y-88078495D01*
X149098590Y-88132755D01*
X149214665Y-88214032D01*
X149214667Y-88214033D01*
X149214670Y-88214035D01*
X149428837Y-88313903D01*
X149428843Y-88313904D01*
X149428844Y-88313905D01*
X149476824Y-88326761D01*
X149657092Y-88375063D01*
X149833534Y-88390500D01*
X149892499Y-88395659D01*
X149892500Y-88395659D01*
X149892501Y-88395659D01*
X149951466Y-88390500D01*
X150127908Y-88375063D01*
X150356163Y-88313903D01*
X150570330Y-88214035D01*
X150763901Y-88078495D01*
X150930995Y-87911401D01*
X151060925Y-87725842D01*
X151115502Y-87682217D01*
X151185000Y-87675023D01*
X151247355Y-87706546D01*
X151264075Y-87725842D01*
X151394000Y-87911395D01*
X151394005Y-87911401D01*
X151561099Y-88078495D01*
X151638590Y-88132755D01*
X151754665Y-88214032D01*
X151754667Y-88214033D01*
X151754670Y-88214035D01*
X151968837Y-88313903D01*
X151968843Y-88313904D01*
X151968844Y-88313905D01*
X152016824Y-88326761D01*
X152197092Y-88375063D01*
X152373534Y-88390500D01*
X152432499Y-88395659D01*
X152432500Y-88395659D01*
X152432501Y-88395659D01*
X152491466Y-88390500D01*
X152667908Y-88375063D01*
X152896163Y-88313903D01*
X153110330Y-88214035D01*
X153303901Y-88078495D01*
X153470995Y-87911401D01*
X153600925Y-87725842D01*
X153655502Y-87682217D01*
X153725000Y-87675023D01*
X153787355Y-87706546D01*
X153804075Y-87725842D01*
X153934000Y-87911395D01*
X153934005Y-87911401D01*
X154101099Y-88078495D01*
X154178590Y-88132755D01*
X154294665Y-88214032D01*
X154294667Y-88214033D01*
X154294670Y-88214035D01*
X154508837Y-88313903D01*
X154508843Y-88313904D01*
X154508844Y-88313905D01*
X154556824Y-88326761D01*
X154737092Y-88375063D01*
X154913534Y-88390500D01*
X154972499Y-88395659D01*
X154972500Y-88395659D01*
X154972501Y-88395659D01*
X155031466Y-88390500D01*
X155207908Y-88375063D01*
X155436163Y-88313903D01*
X155650330Y-88214035D01*
X155843901Y-88078495D01*
X156010995Y-87911401D01*
X156140925Y-87725842D01*
X156195502Y-87682217D01*
X156265000Y-87675023D01*
X156327355Y-87706546D01*
X156344075Y-87725842D01*
X156474000Y-87911395D01*
X156474005Y-87911401D01*
X156641099Y-88078495D01*
X156718590Y-88132755D01*
X156834665Y-88214032D01*
X156834667Y-88214033D01*
X156834670Y-88214035D01*
X157048837Y-88313903D01*
X157048843Y-88313904D01*
X157048844Y-88313905D01*
X157096824Y-88326761D01*
X157277092Y-88375063D01*
X157453534Y-88390500D01*
X157512499Y-88395659D01*
X157512500Y-88395659D01*
X157512501Y-88395659D01*
X157571466Y-88390500D01*
X157747908Y-88375063D01*
X157976163Y-88313903D01*
X158190330Y-88214035D01*
X158383901Y-88078495D01*
X158550995Y-87911401D01*
X158686535Y-87717830D01*
X158786403Y-87503663D01*
X158847563Y-87275408D01*
X158868159Y-87040000D01*
X158847563Y-86804592D01*
X158786403Y-86576337D01*
X158686535Y-86362171D01*
X158681231Y-86354595D01*
X158550994Y-86168597D01*
X158383902Y-86001506D01*
X158383896Y-86001501D01*
X158198342Y-85871575D01*
X158154717Y-85816998D01*
X158147523Y-85747500D01*
X158179046Y-85685145D01*
X158198342Y-85668425D01*
X158261300Y-85624341D01*
X158383901Y-85538495D01*
X158550995Y-85371401D01*
X158686535Y-85177830D01*
X158786403Y-84963663D01*
X158847563Y-84735408D01*
X158868159Y-84500000D01*
X158847563Y-84264592D01*
X158786403Y-84036337D01*
X158686535Y-83822171D01*
X158680925Y-83814158D01*
X158550994Y-83628597D01*
X158383902Y-83461506D01*
X158383895Y-83461501D01*
X158190334Y-83325967D01*
X158190330Y-83325965D01*
X157972668Y-83224467D01*
X157920229Y-83178294D01*
X157901077Y-83111101D01*
X157921293Y-83044220D01*
X157972665Y-82999704D01*
X158177830Y-82904035D01*
X158371401Y-82768495D01*
X158538495Y-82601401D01*
X158674035Y-82407830D01*
X158773903Y-82193663D01*
X158835063Y-81965408D01*
X158855659Y-81730000D01*
X158835063Y-81494592D01*
X158773903Y-81266337D01*
X158674035Y-81052171D01*
X158668425Y-81044158D01*
X158538494Y-80858597D01*
X158371402Y-80691506D01*
X158371396Y-80691501D01*
X158185842Y-80561575D01*
X158142217Y-80506998D01*
X158135023Y-80437500D01*
X158166546Y-80375145D01*
X158185842Y-80358425D01*
X158248800Y-80314341D01*
X158371401Y-80228495D01*
X158538495Y-80061401D01*
X158674035Y-79867830D01*
X158701705Y-79808490D01*
X158747877Y-79756051D01*
X158815070Y-79736899D01*
X158881951Y-79757114D01*
X158927286Y-79810279D01*
X158936560Y-79841497D01*
X158955397Y-79960424D01*
X158955398Y-79960433D01*
X159022692Y-80211580D01*
X159055788Y-80335094D01*
X159194787Y-80697197D01*
X159370877Y-81042793D01*
X159582122Y-81368082D01*
X159582124Y-81368084D01*
X159826219Y-81669516D01*
X160100484Y-81943781D01*
X160268375Y-82079737D01*
X160401917Y-82187877D01*
X160727206Y-82399122D01*
X160727211Y-82399125D01*
X161072806Y-82575214D01*
X161434913Y-82714214D01*
X161809567Y-82814602D01*
X162192662Y-82875278D01*
X162558576Y-82894455D01*
X162579999Y-82895578D01*
X162580000Y-82895578D01*
X162580001Y-82895578D01*
X162600301Y-82894514D01*
X162967338Y-82875278D01*
X163350433Y-82814602D01*
X163725087Y-82714214D01*
X164087194Y-82575214D01*
X164432789Y-82399125D01*
X164758084Y-82187876D01*
X165059516Y-81943781D01*
X165333781Y-81669516D01*
X165577876Y-81368084D01*
X165789125Y-81042789D01*
X165965214Y-80697194D01*
X166104214Y-80335087D01*
X166204602Y-79960433D01*
X166265278Y-79577338D01*
X166285578Y-79190000D01*
X166265278Y-78802662D01*
X166204602Y-78419567D01*
X166104214Y-78044913D01*
X165965214Y-77682806D01*
X165789125Y-77337211D01*
X165778269Y-77320494D01*
X165577877Y-77011917D01*
X165333784Y-76710488D01*
X165333781Y-76710484D01*
X165059516Y-76436219D01*
X164953048Y-76350003D01*
X164758082Y-76192122D01*
X164432793Y-75980877D01*
X164087197Y-75804787D01*
X163725094Y-75665788D01*
X163725087Y-75665786D01*
X163350433Y-75565398D01*
X163350429Y-75565397D01*
X163350428Y-75565397D01*
X162967339Y-75504722D01*
X162580001Y-75484422D01*
X162579999Y-75484422D01*
X162192660Y-75504722D01*
X161809572Y-75565397D01*
X161809570Y-75565397D01*
X161434905Y-75665788D01*
X161072802Y-75804787D01*
X160727206Y-75980877D01*
X160401917Y-76192122D01*
X160100488Y-76436215D01*
X160100480Y-76436222D01*
X159826222Y-76710480D01*
X159826215Y-76710488D01*
X159582122Y-77011917D01*
X159370877Y-77337206D01*
X159194787Y-77682802D01*
X159055788Y-78044905D01*
X158955397Y-78419570D01*
X158955397Y-78419572D01*
X158936560Y-78538502D01*
X158906630Y-78601637D01*
X158847319Y-78638568D01*
X158777456Y-78637570D01*
X158719224Y-78598960D01*
X158701705Y-78571509D01*
X158674035Y-78512171D01*
X158674034Y-78512169D01*
X158538494Y-78318597D01*
X158371402Y-78151506D01*
X158371395Y-78151501D01*
X158177834Y-78015967D01*
X158177830Y-78015965D01*
X158085807Y-77973054D01*
X157963663Y-77916097D01*
X157963659Y-77916096D01*
X157963655Y-77916094D01*
X157735413Y-77854938D01*
X157735403Y-77854936D01*
X157500001Y-77834341D01*
X157499999Y-77834341D01*
X157264596Y-77854936D01*
X157264586Y-77854938D01*
X157036344Y-77916094D01*
X157036335Y-77916098D01*
X156822171Y-78015964D01*
X156822169Y-78015965D01*
X156628597Y-78151505D01*
X156461505Y-78318597D01*
X156331575Y-78504158D01*
X156276998Y-78547783D01*
X156207500Y-78554977D01*
X156145145Y-78523454D01*
X156128425Y-78504158D01*
X155998494Y-78318597D01*
X155831402Y-78151506D01*
X155831395Y-78151501D01*
X155637834Y-78015967D01*
X155637830Y-78015965D01*
X155545807Y-77973054D01*
X155423663Y-77916097D01*
X155423659Y-77916096D01*
X155423655Y-77916094D01*
X155195413Y-77854938D01*
X155195403Y-77854936D01*
X154960001Y-77834341D01*
X154959999Y-77834341D01*
X154724596Y-77854936D01*
X154724586Y-77854938D01*
X154496344Y-77916094D01*
X154496335Y-77916098D01*
X154282171Y-78015964D01*
X154282169Y-78015965D01*
X154088597Y-78151505D01*
X153921505Y-78318597D01*
X153791575Y-78504158D01*
X153736998Y-78547783D01*
X153667500Y-78554977D01*
X153605145Y-78523454D01*
X153588425Y-78504158D01*
X153458494Y-78318597D01*
X153291402Y-78151506D01*
X153291395Y-78151501D01*
X153097834Y-78015967D01*
X153097830Y-78015965D01*
X153005807Y-77973054D01*
X152883663Y-77916097D01*
X152883659Y-77916096D01*
X152883655Y-77916094D01*
X152655413Y-77854938D01*
X152655403Y-77854936D01*
X152420001Y-77834341D01*
X152419999Y-77834341D01*
X152184596Y-77854936D01*
X152184586Y-77854938D01*
X151956344Y-77916094D01*
X151956335Y-77916098D01*
X151742171Y-78015964D01*
X151742169Y-78015965D01*
X151548597Y-78151505D01*
X151381505Y-78318597D01*
X151251575Y-78504158D01*
X151196998Y-78547783D01*
X151127500Y-78554977D01*
X151065145Y-78523454D01*
X151048425Y-78504158D01*
X150918494Y-78318597D01*
X150751402Y-78151506D01*
X150751395Y-78151501D01*
X150557834Y-78015967D01*
X150557830Y-78015965D01*
X150465807Y-77973054D01*
X150343663Y-77916097D01*
X150343659Y-77916096D01*
X150343655Y-77916094D01*
X150115413Y-77854938D01*
X150115403Y-77854936D01*
X149880001Y-77834341D01*
X149879999Y-77834341D01*
X149644596Y-77854936D01*
X149644586Y-77854938D01*
X149416344Y-77916094D01*
X149416335Y-77916098D01*
X149202171Y-78015964D01*
X149202169Y-78015965D01*
X149008597Y-78151505D01*
X148841505Y-78318597D01*
X148711575Y-78504158D01*
X148656998Y-78547783D01*
X148587500Y-78554977D01*
X148525145Y-78523454D01*
X148508425Y-78504158D01*
X148378494Y-78318597D01*
X148211402Y-78151506D01*
X148211395Y-78151501D01*
X148017834Y-78015967D01*
X148017830Y-78015965D01*
X147925807Y-77973054D01*
X147803663Y-77916097D01*
X147803659Y-77916096D01*
X147803655Y-77916094D01*
X147575413Y-77854938D01*
X147575403Y-77854936D01*
X147340001Y-77834341D01*
X147339999Y-77834341D01*
X147104590Y-77854937D01*
X147104589Y-77854937D01*
X147032008Y-77874384D01*
X146962158Y-77872720D01*
X146912236Y-77842290D01*
X146554674Y-77484727D01*
X146554673Y-77484726D01*
X146554669Y-77484723D01*
X146448127Y-77413535D01*
X146329744Y-77364499D01*
X146329738Y-77364497D01*
X146204071Y-77339500D01*
X146204069Y-77339500D01*
X138989153Y-77339500D01*
X138923181Y-77320494D01*
X138849522Y-77274210D01*
X138849518Y-77274209D01*
X138679262Y-77214633D01*
X138679249Y-77214630D01*
X138500004Y-77194435D01*
X138499996Y-77194435D01*
X138320750Y-77214630D01*
X138320745Y-77214631D01*
X138150476Y-77274211D01*
X137997737Y-77370184D01*
X137870184Y-77497737D01*
X137774210Y-77650478D01*
X137765630Y-77674998D01*
X137724907Y-77731773D01*
X137659953Y-77757519D01*
X137591392Y-77744061D01*
X137560908Y-77721722D01*
X136183912Y-76344726D01*
X136161596Y-76329815D01*
X136077366Y-76273535D01*
X135958983Y-76224499D01*
X135958977Y-76224497D01*
X135833310Y-76199500D01*
X135833308Y-76199500D01*
X135166692Y-76199500D01*
X135166690Y-76199500D01*
X135041022Y-76224497D01*
X135041016Y-76224499D01*
X134922632Y-76273535D01*
X134840219Y-76328602D01*
X134773542Y-76349480D01*
X134771329Y-76349500D01*
X126240047Y-76349500D01*
X126173008Y-76329815D01*
X126152366Y-76313181D01*
X125833913Y-75994727D01*
X125833912Y-75994726D01*
X125833908Y-75994723D01*
X125727366Y-75923535D01*
X125608983Y-75874499D01*
X125608977Y-75874497D01*
X125483310Y-75849500D01*
X125483308Y-75849500D01*
X122728671Y-75849500D01*
X122661632Y-75829815D01*
X122659781Y-75828602D01*
X122577367Y-75773535D01*
X122577368Y-75773535D01*
X122458983Y-75724499D01*
X122458977Y-75724497D01*
X122333310Y-75699500D01*
X122333308Y-75699500D01*
X121666692Y-75699500D01*
X121666690Y-75699500D01*
X121541022Y-75724497D01*
X121541016Y-75724499D01*
X121422632Y-75773535D01*
X121340219Y-75828602D01*
X121273542Y-75849480D01*
X121271329Y-75849500D01*
X119182941Y-75849500D01*
X119115902Y-75829815D01*
X119095260Y-75813182D01*
X119055613Y-75773535D01*
X119002262Y-75720184D01*
X118957961Y-75692348D01*
X118849523Y-75624211D01*
X118679254Y-75564631D01*
X118679249Y-75564630D01*
X118500004Y-75544435D01*
X118499996Y-75544435D01*
X118320750Y-75564630D01*
X118320745Y-75564631D01*
X118150476Y-75624211D01*
X117997737Y-75720184D01*
X117870184Y-75847737D01*
X117774211Y-76000476D01*
X117714631Y-76170745D01*
X117714630Y-76170750D01*
X117694435Y-76349996D01*
X117694435Y-76350003D01*
X117714630Y-76529249D01*
X117714631Y-76529254D01*
X117774211Y-76699523D01*
X117870184Y-76852262D01*
X117945741Y-76927819D01*
X117979226Y-76989142D01*
X117974242Y-77058834D01*
X117932370Y-77114767D01*
X117866906Y-77139184D01*
X117858060Y-77139500D01*
X112252230Y-77139500D01*
X112185191Y-77119815D01*
X112164549Y-77103181D01*
X111753307Y-76691939D01*
X111730653Y-76655869D01*
X111728813Y-76656756D01*
X111725792Y-76650484D01*
X111725789Y-76650480D01*
X111725789Y-76650478D01*
X111629816Y-76497738D01*
X111502262Y-76370184D01*
X111470144Y-76350003D01*
X111349523Y-76274211D01*
X111179254Y-76214631D01*
X111179249Y-76214630D01*
X111000004Y-76194435D01*
X110999996Y-76194435D01*
X110820750Y-76214630D01*
X110820745Y-76214631D01*
X110650476Y-76274211D01*
X110497737Y-76370184D01*
X110370184Y-76497737D01*
X110274211Y-76650476D01*
X110214631Y-76820745D01*
X110214630Y-76820750D01*
X110194435Y-76999996D01*
X110194435Y-77000003D01*
X110214630Y-77179249D01*
X110214631Y-77179254D01*
X110274211Y-77349523D01*
X110359165Y-77484726D01*
X110370184Y-77502262D01*
X110497738Y-77629816D01*
X110650478Y-77725789D01*
X110650480Y-77725789D01*
X110650484Y-77725792D01*
X110656756Y-77728813D01*
X110655869Y-77730653D01*
X110691939Y-77753307D01*
X110911686Y-77973054D01*
X110945171Y-78034377D01*
X110940187Y-78104069D01*
X110911686Y-78148416D01*
X110741506Y-78318596D01*
X110611575Y-78504158D01*
X110556998Y-78547783D01*
X110487500Y-78554977D01*
X110425145Y-78523454D01*
X110408425Y-78504158D01*
X110278494Y-78318597D01*
X110111402Y-78151506D01*
X110111395Y-78151501D01*
X109917834Y-78015967D01*
X109917830Y-78015965D01*
X109825807Y-77973054D01*
X109703663Y-77916097D01*
X109703659Y-77916096D01*
X109703655Y-77916094D01*
X109475413Y-77854938D01*
X109475403Y-77854936D01*
X109240001Y-77834341D01*
X109239999Y-77834341D01*
X109004596Y-77854936D01*
X109004586Y-77854938D01*
X108776344Y-77916094D01*
X108776335Y-77916098D01*
X108562171Y-78015964D01*
X108562169Y-78015965D01*
X108368597Y-78151505D01*
X108201505Y-78318597D01*
X108071575Y-78504158D01*
X108016998Y-78547783D01*
X107947500Y-78554977D01*
X107885145Y-78523454D01*
X107868425Y-78504158D01*
X107738494Y-78318597D01*
X107571402Y-78151506D01*
X107571395Y-78151501D01*
X107377834Y-78015967D01*
X107377830Y-78015965D01*
X107285807Y-77973054D01*
X107163663Y-77916097D01*
X107163659Y-77916096D01*
X107163655Y-77916094D01*
X106935413Y-77854938D01*
X106935403Y-77854936D01*
X106700001Y-77834341D01*
X106699999Y-77834341D01*
X106464596Y-77854936D01*
X106464586Y-77854938D01*
X106236344Y-77916094D01*
X106236335Y-77916098D01*
X106022171Y-78015964D01*
X106022169Y-78015965D01*
X105828597Y-78151505D01*
X105661505Y-78318597D01*
X105531575Y-78504158D01*
X105476998Y-78547783D01*
X105407500Y-78554977D01*
X105345145Y-78523454D01*
X105328425Y-78504158D01*
X105198494Y-78318597D01*
X105031402Y-78151506D01*
X105031395Y-78151501D01*
X104837834Y-78015967D01*
X104837830Y-78015965D01*
X104745807Y-77973054D01*
X104623663Y-77916097D01*
X104623659Y-77916096D01*
X104623655Y-77916094D01*
X104395413Y-77854938D01*
X104395403Y-77854936D01*
X104160001Y-77834341D01*
X104159999Y-77834341D01*
X103924596Y-77854936D01*
X103924586Y-77854938D01*
X103696344Y-77916094D01*
X103696335Y-77916098D01*
X103482171Y-78015964D01*
X103482169Y-78015965D01*
X103288597Y-78151505D01*
X103121505Y-78318597D01*
X102991575Y-78504158D01*
X102936998Y-78547783D01*
X102867500Y-78554977D01*
X102805145Y-78523454D01*
X102788425Y-78504158D01*
X102658494Y-78318597D01*
X102491402Y-78151506D01*
X102491395Y-78151501D01*
X102297834Y-78015967D01*
X102297830Y-78015965D01*
X102205807Y-77973054D01*
X102083663Y-77916097D01*
X102083659Y-77916096D01*
X102083655Y-77916094D01*
X101855413Y-77854938D01*
X101855403Y-77854936D01*
X101620001Y-77834341D01*
X101619999Y-77834341D01*
X101384596Y-77854936D01*
X101384586Y-77854938D01*
X101156344Y-77916094D01*
X101156335Y-77916098D01*
X100942171Y-78015964D01*
X100942169Y-78015965D01*
X100748597Y-78151505D01*
X100581505Y-78318597D01*
X100451575Y-78504158D01*
X100396998Y-78547783D01*
X100327500Y-78554977D01*
X100265145Y-78523454D01*
X100248425Y-78504158D01*
X100118494Y-78318597D01*
X99951402Y-78151506D01*
X99951395Y-78151501D01*
X99757834Y-78015967D01*
X99757830Y-78015965D01*
X99665807Y-77973054D01*
X99543663Y-77916097D01*
X99543659Y-77916096D01*
X99543655Y-77916094D01*
X99315413Y-77854938D01*
X99315403Y-77854936D01*
X99080001Y-77834341D01*
X99079999Y-77834341D01*
X98844596Y-77854936D01*
X98844586Y-77854938D01*
X98616344Y-77916094D01*
X98616335Y-77916098D01*
X98402171Y-78015964D01*
X98402169Y-78015965D01*
X98208597Y-78151505D01*
X98041505Y-78318597D01*
X97911575Y-78504158D01*
X97856998Y-78547783D01*
X97787500Y-78554977D01*
X97725145Y-78523454D01*
X97708425Y-78504158D01*
X97578494Y-78318597D01*
X97411402Y-78151506D01*
X97411395Y-78151501D01*
X97217834Y-78015967D01*
X97217830Y-78015965D01*
X97125807Y-77973054D01*
X97003663Y-77916097D01*
X97003659Y-77916096D01*
X97003655Y-77916094D01*
X96775413Y-77854938D01*
X96775403Y-77854936D01*
X96540001Y-77834341D01*
X96539999Y-77834341D01*
X96304596Y-77854936D01*
X96304586Y-77854938D01*
X96076344Y-77916094D01*
X96076335Y-77916098D01*
X95862171Y-78015964D01*
X95862169Y-78015965D01*
X95668597Y-78151505D01*
X95501505Y-78318597D01*
X95371575Y-78504158D01*
X95316998Y-78547783D01*
X95247500Y-78554977D01*
X95185145Y-78523454D01*
X95168425Y-78504158D01*
X95038494Y-78318597D01*
X94871402Y-78151506D01*
X94871395Y-78151501D01*
X94677834Y-78015967D01*
X94677830Y-78015965D01*
X94585807Y-77973054D01*
X94463663Y-77916097D01*
X94463659Y-77916096D01*
X94463655Y-77916094D01*
X94235413Y-77854938D01*
X94235403Y-77854936D01*
X94000001Y-77834341D01*
X93999999Y-77834341D01*
X93764596Y-77854936D01*
X93764586Y-77854938D01*
X93536344Y-77916094D01*
X93536335Y-77916098D01*
X93322171Y-78015964D01*
X93322169Y-78015965D01*
X93128597Y-78151505D01*
X92961505Y-78318597D01*
X92825965Y-78512169D01*
X92825961Y-78512176D01*
X92798293Y-78571510D01*
X92752120Y-78623949D01*
X92684927Y-78643100D01*
X92618046Y-78622883D01*
X92572712Y-78569717D01*
X92563439Y-78538501D01*
X92559269Y-78512171D01*
X92544602Y-78419567D01*
X92444214Y-78044913D01*
X92305214Y-77682806D01*
X92129125Y-77337211D01*
X92118269Y-77320494D01*
X91917877Y-77011917D01*
X91673784Y-76710488D01*
X91673781Y-76710484D01*
X91399516Y-76436219D01*
X91293048Y-76350003D01*
X91098082Y-76192122D01*
X90772793Y-75980877D01*
X90427197Y-75804787D01*
X90065094Y-75665788D01*
X90065087Y-75665786D01*
X89690433Y-75565398D01*
X89690429Y-75565397D01*
X89690428Y-75565397D01*
X89307339Y-75504722D01*
X88920001Y-75484422D01*
X88919999Y-75484422D01*
X88532660Y-75504722D01*
X88149572Y-75565397D01*
X88149570Y-75565397D01*
X87774905Y-75665788D01*
X87412802Y-75804787D01*
X87067206Y-75980877D01*
X86741917Y-76192122D01*
X86440488Y-76436215D01*
X86440480Y-76436222D01*
X86166222Y-76710480D01*
X86166215Y-76710488D01*
X85922122Y-77011917D01*
X85710877Y-77337206D01*
X85534787Y-77682802D01*
X85395788Y-78044905D01*
X85295397Y-78419570D01*
X85295397Y-78419572D01*
X85234722Y-78802660D01*
X85214422Y-79189999D01*
X80531834Y-79189999D01*
X80532030Y-78984965D01*
X80532224Y-78978193D01*
X80553377Y-78601087D01*
X80554450Y-78590354D01*
X80608188Y-78217918D01*
X80610191Y-78207328D01*
X80696189Y-77840977D01*
X80699107Y-77830604D01*
X80816705Y-77473144D01*
X80820515Y-77463067D01*
X80968825Y-77117211D01*
X80973493Y-77107517D01*
X81151375Y-76775911D01*
X81156884Y-76766637D01*
X81362990Y-76451801D01*
X81369279Y-76443052D01*
X81602035Y-76147382D01*
X81609065Y-76139211D01*
X81866713Y-75864943D01*
X81874434Y-75857412D01*
X82154996Y-75606652D01*
X82163340Y-75599825D01*
X82464692Y-75374468D01*
X82473605Y-75368391D01*
X82793435Y-75170167D01*
X82802859Y-75164880D01*
X83138757Y-74995282D01*
X83148614Y-74990835D01*
X83497997Y-74851164D01*
X83508175Y-74847601D01*
X83868422Y-74738907D01*
X83878887Y-74736242D01*
X84247239Y-74659357D01*
X84257889Y-74657616D01*
X84631516Y-74613131D01*
X84642292Y-74612322D01*
X85018709Y-74600560D01*
X85022582Y-74600500D01*
X85026135Y-74600500D01*
X85027671Y-74600510D01*
G37*
%TD.AperFunction*%
%TD*%
M02*
