%TF.GenerationSoftware,KiCad,Pcbnew,8.0.2-1*%
%TF.CreationDate,2024-08-24T15:03:42-05:00*%
%TF.ProjectId,BeagleBonePC104,42656167-6c65-4426-9f6e-655043313034,rev?*%
%TF.SameCoordinates,Original*%
%TF.FileFunction,Soldermask,Bot*%
%TF.FilePolarity,Negative*%
%FSLAX46Y46*%
G04 Gerber Fmt 4.6, Leading zero omitted, Abs format (unit mm)*
G04 Created by KiCad (PCBNEW 8.0.2-1) date 2024-08-24 15:03:42*
%MOMM*%
%LPD*%
G01*
G04 APERTURE LIST*
%ADD10C,1.524000*%
%ADD11C,1.600000*%
%ADD12O,1.600000X1.600000*%
%ADD13C,6.400000*%
%ADD14R,1.700000X1.700000*%
%ADD15O,1.700000X1.700000*%
G04 APERTURE END LIST*
D10*
%TO.C,U1*%
X149770000Y-140960000D03*
X149770000Y-92700000D03*
X149770000Y-143500000D03*
X149770000Y-95240000D03*
X147230000Y-140960000D03*
X147230000Y-92700000D03*
X147230000Y-143500000D03*
X147230000Y-95240000D03*
X144690000Y-140960000D03*
X144690000Y-92700000D03*
X144690000Y-143500000D03*
X144690000Y-95240000D03*
X142150000Y-140960000D03*
X142150000Y-92700000D03*
X142150000Y-143500000D03*
X142150000Y-95240000D03*
X139610000Y-140960000D03*
X139610000Y-92700000D03*
X139610000Y-143500000D03*
X139610000Y-95240000D03*
X137070000Y-140960000D03*
X137070000Y-92700000D03*
X137070000Y-143500000D03*
X137070000Y-95240000D03*
X134530000Y-140960000D03*
X134530000Y-92700000D03*
X134530000Y-143500000D03*
X134530000Y-95240000D03*
X131990000Y-140960000D03*
X131990000Y-92700000D03*
X131990000Y-143500000D03*
X131990000Y-95240000D03*
X129450000Y-140960000D03*
X129450000Y-92700000D03*
X129450000Y-143500000D03*
X129450000Y-95240000D03*
X126910000Y-140960000D03*
X126910000Y-92700000D03*
X126910000Y-143500000D03*
X126910000Y-95240000D03*
X124370000Y-140960000D03*
X124370000Y-92700000D03*
X124370000Y-143500000D03*
X124370000Y-95240000D03*
X121830000Y-140960000D03*
X121830000Y-92700000D03*
X121830000Y-143500000D03*
X121830000Y-95240000D03*
X119290000Y-140960000D03*
X119290000Y-92700000D03*
X119290000Y-143500000D03*
X119290000Y-95240000D03*
X116750000Y-140960000D03*
X116750000Y-92700000D03*
X116750000Y-143500000D03*
X116750000Y-95240000D03*
X114210000Y-140960000D03*
X114210000Y-92700000D03*
X114210000Y-143500000D03*
X114210000Y-95240000D03*
X111670000Y-140960000D03*
X111670000Y-92700000D03*
X111670000Y-143500000D03*
X111670000Y-95240000D03*
X109130000Y-140960000D03*
X109130000Y-92700000D03*
X109130000Y-143500000D03*
X109130000Y-95240000D03*
X106590000Y-140960000D03*
X106590000Y-92700000D03*
X106590000Y-143500000D03*
X106590000Y-95240000D03*
X104050000Y-140960000D03*
X104050000Y-92700000D03*
X104050000Y-143500000D03*
X104050000Y-95240000D03*
X101510000Y-140960000D03*
X101510000Y-92700000D03*
X101510000Y-143500000D03*
X101510000Y-95240000D03*
X98970000Y-140960000D03*
X98970000Y-92700000D03*
X98970000Y-143500000D03*
X98970000Y-95240000D03*
X96430000Y-140960000D03*
X96430000Y-92700000D03*
X96430000Y-143500000D03*
X96430000Y-95240000D03*
X93890000Y-140960000D03*
X93890000Y-92700000D03*
X93890000Y-143500000D03*
X93890000Y-95240000D03*
%TD*%
D11*
%TO.C,R1*%
X113010000Y-150000000D03*
D12*
X123170000Y-150000000D03*
%TD*%
D10*
%TO.C,U3*%
X107530000Y-150480000D03*
X104990000Y-150480000D03*
X102450000Y-150480000D03*
X99910000Y-150480000D03*
X97370000Y-150480000D03*
X94830000Y-150480000D03*
X92290000Y-150480000D03*
%TD*%
D13*
%TO.C,U2*%
X85110000Y-164920000D03*
X88920000Y-79190000D03*
X162580000Y-79190000D03*
X165120000Y-164920000D03*
D14*
X94000000Y-81730000D03*
D15*
X94000000Y-79190000D03*
X96540000Y-81730000D03*
X96540000Y-79190000D03*
X99080000Y-81730000D03*
X99080000Y-79190000D03*
X101620000Y-81730000D03*
X101620000Y-79190000D03*
X104160000Y-81730000D03*
X104160000Y-79190000D03*
X106700000Y-81730000D03*
X106700000Y-79190000D03*
X109240000Y-81730000D03*
X109240000Y-79190000D03*
X111780000Y-81730000D03*
X111780000Y-79190000D03*
X114320000Y-81730000D03*
X114320000Y-79190000D03*
X116860000Y-81730000D03*
X116860000Y-79190000D03*
X119400000Y-81730000D03*
X119400000Y-79190000D03*
X121940000Y-81730000D03*
X121940000Y-79190000D03*
X124480000Y-81730000D03*
X124480000Y-79190000D03*
X127020000Y-81730000D03*
X127020000Y-79190000D03*
X129560000Y-81730000D03*
X129560000Y-79190000D03*
X132100000Y-81730000D03*
X132100000Y-79190000D03*
X134640000Y-81730000D03*
X134640000Y-79190000D03*
X137180000Y-81730000D03*
X137180000Y-79190000D03*
X139720000Y-81730000D03*
X139720000Y-79190000D03*
X142260000Y-81730000D03*
X142260000Y-79190000D03*
X144800000Y-81730000D03*
X144800000Y-79190000D03*
X147340000Y-81730000D03*
X147340000Y-79190000D03*
X149880000Y-81730000D03*
X149880000Y-79190000D03*
X152420000Y-81730000D03*
X152420000Y-79190000D03*
X154960000Y-81730000D03*
X154960000Y-79190000D03*
X157500000Y-81730000D03*
X157500000Y-79190000D03*
%TD*%
D11*
%TO.C,R2*%
X126510000Y-150000000D03*
D12*
X136670000Y-150000000D03*
%TD*%
D14*
%TO.C,U4*%
X94012500Y-87040000D03*
D15*
X94012500Y-84500000D03*
X96552500Y-87040000D03*
X96552500Y-84500000D03*
X99092500Y-87040000D03*
X99092500Y-84500000D03*
X101632500Y-87040000D03*
X101632500Y-84500000D03*
X104172500Y-87040000D03*
X104172500Y-84500000D03*
X106712500Y-87040000D03*
X106712500Y-84500000D03*
X109252500Y-87040000D03*
X109252500Y-84500000D03*
X111792500Y-87040000D03*
X111792500Y-84500000D03*
X114332500Y-87040000D03*
X114332500Y-84500000D03*
X116872500Y-87040000D03*
X116872500Y-84500000D03*
X119412500Y-87040000D03*
X119412500Y-84500000D03*
X121952500Y-87040000D03*
X121952500Y-84500000D03*
X124492500Y-87040000D03*
X124492500Y-84500000D03*
X127032500Y-87040000D03*
X127032500Y-84500000D03*
X129572500Y-87040000D03*
X129572500Y-84500000D03*
X132112500Y-87040000D03*
X132112500Y-84500000D03*
X134652500Y-87040000D03*
X134652500Y-84500000D03*
X137192500Y-87040000D03*
X137192500Y-84500000D03*
X139732500Y-87040000D03*
X139732500Y-84500000D03*
X142272500Y-87040000D03*
X142272500Y-84500000D03*
X144812500Y-87040000D03*
X144812500Y-84500000D03*
X147352500Y-87040000D03*
X147352500Y-84500000D03*
X149892500Y-87040000D03*
X149892500Y-84500000D03*
X152432500Y-87040000D03*
X152432500Y-84500000D03*
X154972500Y-87040000D03*
X154972500Y-84500000D03*
X157512500Y-87040000D03*
X157512500Y-84500000D03*
%TD*%
M02*
