%TF.GenerationSoftware,KiCad,Pcbnew,8.0.2-1*%
%TF.CreationDate,2024-09-16T16:57:07-05:00*%
%TF.ProjectId,BeagleBonePC104,42656167-6c65-4426-9f6e-655043313034,rev?*%
%TF.SameCoordinates,Original*%
%TF.FileFunction,Legend,Bot*%
%TF.FilePolarity,Positive*%
%FSLAX46Y46*%
G04 Gerber Fmt 4.6, Leading zero omitted, Abs format (unit mm)*
G04 Created by KiCad (PCBNEW 8.0.2-1) date 2024-09-16 16:57:07*
%MOMM*%
%LPD*%
G01*
G04 APERTURE LIST*
%ADD10C,0.250000*%
%ADD11C,0.000000*%
G04 APERTURE END LIST*
D10*
G36*
X140442790Y-74776739D02*
G01*
X140217989Y-74776739D01*
X140256677Y-75278805D01*
X140404981Y-75278805D01*
X140442790Y-74776739D01*
G37*
G36*
X140530131Y-74776739D02*
G01*
X140569699Y-75278805D01*
X140718296Y-75278805D01*
X140755226Y-74776739D01*
X140530131Y-74776739D01*
G37*
G36*
X139968275Y-75996000D02*
G01*
X139444814Y-75996000D01*
X139394471Y-75994001D01*
X139331266Y-75985116D01*
X139272540Y-75969124D01*
X139218293Y-75946025D01*
X139156783Y-75907156D01*
X139112613Y-75868065D01*
X139072922Y-75821867D01*
X139037710Y-75768561D01*
X139020320Y-75736252D01*
X138995138Y-75679497D01*
X138974708Y-75619107D01*
X138959029Y-75555082D01*
X138948101Y-75487422D01*
X138941924Y-75416127D01*
X138940844Y-75373766D01*
X139198324Y-75373766D01*
X139199684Y-75423665D01*
X139205729Y-75486094D01*
X139218310Y-75550720D01*
X139237012Y-75609412D01*
X139241551Y-75620502D01*
X139273246Y-75679647D01*
X139312587Y-75726118D01*
X139368148Y-75764315D01*
X139424054Y-75783326D01*
X139487605Y-75789663D01*
X139721785Y-75789663D01*
X139721785Y-74983076D01*
X139487605Y-74983076D01*
X139476909Y-74983174D01*
X139408287Y-74989359D01*
X139350605Y-75005165D01*
X139298077Y-75035010D01*
X139256063Y-75083606D01*
X139239429Y-75117429D01*
X139218679Y-75180416D01*
X139206443Y-75244486D01*
X139200354Y-75306055D01*
X139198324Y-75373766D01*
X138940844Y-75373766D01*
X138940403Y-75356474D01*
X138940607Y-75338416D01*
X138944225Y-75276959D01*
X138952365Y-75213555D01*
X138963558Y-75154827D01*
X138971696Y-75122121D01*
X138991359Y-75065052D01*
X139017467Y-75010302D01*
X139050020Y-74957870D01*
X139092628Y-74905993D01*
X139141318Y-74862908D01*
X139196089Y-74828616D01*
X139256942Y-74803117D01*
X139266469Y-74800129D01*
X139324145Y-74786887D01*
X139384332Y-74779537D01*
X139444814Y-74776739D01*
X139968275Y-74776739D01*
X139968275Y-75996000D01*
G37*
G36*
X138427040Y-75079090D02*
G01*
X138491991Y-75088132D01*
X138551175Y-75104129D01*
X138614582Y-75132506D01*
X138669684Y-75170899D01*
X138716482Y-75219307D01*
X138736805Y-75246416D01*
X138771453Y-75303370D01*
X138798106Y-75363971D01*
X138816764Y-75428220D01*
X138827425Y-75496116D01*
X138830201Y-75555483D01*
X138829202Y-75592020D01*
X138823094Y-75650683D01*
X138808434Y-75717394D01*
X138785779Y-75780087D01*
X138755128Y-75838762D01*
X138716482Y-75893418D01*
X138678061Y-75933778D01*
X138624342Y-75973180D01*
X138562319Y-76002732D01*
X138504289Y-76019834D01*
X138440492Y-76030095D01*
X138370927Y-76033515D01*
X138314882Y-76031326D01*
X138250004Y-76022433D01*
X138190879Y-76006700D01*
X138127524Y-75978790D01*
X138072452Y-75941029D01*
X138025665Y-75893418D01*
X138005342Y-75866592D01*
X137970693Y-75809927D01*
X137944040Y-75749243D01*
X137925383Y-75684541D01*
X137914722Y-75615820D01*
X137911946Y-75555483D01*
X137911957Y-75554897D01*
X138158436Y-75554897D01*
X138158922Y-75578829D01*
X138164981Y-75637534D01*
X138182292Y-75700457D01*
X138213830Y-75756251D01*
X138257392Y-75796633D01*
X138312313Y-75820252D01*
X138372099Y-75827179D01*
X138431788Y-75820252D01*
X138486801Y-75796633D01*
X138530662Y-75756251D01*
X138546704Y-75732633D01*
X138570633Y-75676682D01*
X138582869Y-75616391D01*
X138586349Y-75554897D01*
X138585860Y-75530918D01*
X138579769Y-75472162D01*
X138562367Y-75409331D01*
X138530662Y-75353836D01*
X138486801Y-75313621D01*
X138431788Y-75290099D01*
X138372099Y-75283201D01*
X138312313Y-75290099D01*
X138257392Y-75313621D01*
X138213830Y-75353836D01*
X138197872Y-75377292D01*
X138174069Y-75433048D01*
X138161898Y-75493311D01*
X138158436Y-75554897D01*
X137911957Y-75554897D01*
X137912390Y-75531432D01*
X137919053Y-75461712D01*
X137933712Y-75395640D01*
X137956367Y-75333214D01*
X137987018Y-75274437D01*
X138025665Y-75219307D01*
X138064079Y-75178272D01*
X138117770Y-75138210D01*
X138179745Y-75108163D01*
X138237719Y-75090775D01*
X138301446Y-75080342D01*
X138370927Y-75076865D01*
X138427040Y-75079090D01*
G37*
G36*
X137522720Y-76080117D02*
G01*
X137543823Y-76136976D01*
X137577821Y-76185630D01*
X137622111Y-76225266D01*
X137673099Y-76254598D01*
X137680403Y-76257730D01*
X137737445Y-76278042D01*
X137761590Y-76282057D01*
X137761590Y-76191491D01*
X137706708Y-76169004D01*
X137661572Y-76130938D01*
X137657249Y-76125253D01*
X137631018Y-76069932D01*
X137620279Y-76011279D01*
X137619147Y-75996000D01*
X137761590Y-75996000D01*
X137761590Y-75752147D01*
X137507773Y-75752147D01*
X137507773Y-75963173D01*
X137511991Y-76024059D01*
X137522720Y-76080117D01*
G37*
G36*
X136468017Y-75079090D02*
G01*
X136532968Y-75088132D01*
X136592152Y-75104129D01*
X136655559Y-75132506D01*
X136710661Y-75170899D01*
X136757459Y-75219307D01*
X136777782Y-75246416D01*
X136812430Y-75303370D01*
X136839083Y-75363971D01*
X136857741Y-75428220D01*
X136868402Y-75496116D01*
X136871178Y-75555483D01*
X136870179Y-75592020D01*
X136864071Y-75650683D01*
X136849411Y-75717394D01*
X136826756Y-75780087D01*
X136796105Y-75838762D01*
X136757459Y-75893418D01*
X136719038Y-75933778D01*
X136665319Y-75973180D01*
X136603296Y-76002732D01*
X136545266Y-76019834D01*
X136481469Y-76030095D01*
X136411904Y-76033515D01*
X136355859Y-76031326D01*
X136290981Y-76022433D01*
X136231856Y-76006700D01*
X136168501Y-75978790D01*
X136113429Y-75941029D01*
X136066642Y-75893418D01*
X136046319Y-75866592D01*
X136011670Y-75809927D01*
X135985017Y-75749243D01*
X135966360Y-75684541D01*
X135955699Y-75615820D01*
X135952923Y-75555483D01*
X135952934Y-75554897D01*
X136199413Y-75554897D01*
X136199899Y-75578829D01*
X136205958Y-75637534D01*
X136223269Y-75700457D01*
X136254807Y-75756251D01*
X136298369Y-75796633D01*
X136353290Y-75820252D01*
X136413076Y-75827179D01*
X136472765Y-75820252D01*
X136527778Y-75796633D01*
X136571639Y-75756251D01*
X136587681Y-75732633D01*
X136611610Y-75676682D01*
X136623846Y-75616391D01*
X136627326Y-75554897D01*
X136626837Y-75530918D01*
X136620746Y-75472162D01*
X136603343Y-75409331D01*
X136571639Y-75353836D01*
X136527778Y-75313621D01*
X136472765Y-75290099D01*
X136413076Y-75283201D01*
X136353290Y-75290099D01*
X136298369Y-75313621D01*
X136254807Y-75353836D01*
X136238849Y-75377292D01*
X136215046Y-75433048D01*
X136202875Y-75493311D01*
X136199413Y-75554897D01*
X135952934Y-75554897D01*
X135953367Y-75531432D01*
X135960030Y-75461712D01*
X135974689Y-75395640D01*
X135997344Y-75333214D01*
X136027995Y-75274437D01*
X136066642Y-75219307D01*
X136105056Y-75178272D01*
X136158747Y-75138210D01*
X136220722Y-75108163D01*
X136278696Y-75090775D01*
X136342423Y-75080342D01*
X136411904Y-75076865D01*
X136468017Y-75079090D01*
G37*
G36*
X135338603Y-75313683D02*
G01*
X135403578Y-75319453D01*
X135462792Y-75339739D01*
X135511347Y-75379409D01*
X135528819Y-75406006D01*
X135547452Y-75462314D01*
X135554773Y-75521511D01*
X135556077Y-75566034D01*
X135556077Y-75996000D01*
X135792602Y-75996000D01*
X135792602Y-75095623D01*
X135568387Y-75095623D01*
X135568387Y-75254771D01*
X135535843Y-75204242D01*
X135497559Y-75155070D01*
X135473718Y-75131966D01*
X135423705Y-75100595D01*
X135364341Y-75082246D01*
X135302260Y-75076865D01*
X135291122Y-75076865D01*
X135270899Y-75076865D01*
X135270899Y-75317786D01*
X135310466Y-75314562D01*
X135338603Y-75313683D01*
G37*
G36*
X134091206Y-75212859D02*
G01*
X134104158Y-75193572D01*
X134143324Y-75149788D01*
X134194374Y-75112915D01*
X134222955Y-75098868D01*
X134280722Y-75081934D01*
X134339454Y-75076865D01*
X134350449Y-75076995D01*
X134413510Y-75083232D01*
X134471583Y-75098825D01*
X134533032Y-75128843D01*
X134580300Y-75164708D01*
X134622581Y-75209928D01*
X134653062Y-75253929D01*
X134682820Y-75313115D01*
X134705138Y-75379267D01*
X134718054Y-75439714D01*
X134725804Y-75504999D01*
X134728387Y-75575120D01*
X134727441Y-75612235D01*
X134721664Y-75671254D01*
X134707798Y-75737392D01*
X134686369Y-75798419D01*
X134657377Y-75854336D01*
X134620822Y-75905141D01*
X134593153Y-75935229D01*
X134540984Y-75978229D01*
X134484047Y-76008944D01*
X134422341Y-76027372D01*
X134355868Y-76033515D01*
X134315452Y-76031706D01*
X134253216Y-76020186D01*
X134195840Y-75995706D01*
X134160824Y-75970822D01*
X134117527Y-75926391D01*
X134081241Y-75874367D01*
X134081241Y-75996000D01*
X133852923Y-75996000D01*
X133852923Y-75561345D01*
X134084465Y-75561345D01*
X134084668Y-75575902D01*
X134090595Y-75637188D01*
X134106807Y-75697180D01*
X134136342Y-75753320D01*
X134169325Y-75789023D01*
X134225132Y-75818451D01*
X134288163Y-75827179D01*
X134334802Y-75822489D01*
X134392806Y-75797870D01*
X134436468Y-75752147D01*
X134450737Y-75727836D01*
X134472021Y-75671828D01*
X134482904Y-75613002D01*
X134486000Y-75554018D01*
X134485812Y-75539766D01*
X134480320Y-75479261D01*
X134465299Y-75418994D01*
X134437933Y-75361163D01*
X134398209Y-75316777D01*
X134345533Y-75290815D01*
X134286405Y-75283201D01*
X134278041Y-75283368D01*
X134219330Y-75295278D01*
X134167703Y-75325993D01*
X134162582Y-75330499D01*
X134123808Y-75379327D01*
X134100397Y-75435225D01*
X134088448Y-75493783D01*
X134084465Y-75561345D01*
X133852923Y-75561345D01*
X133852923Y-74784360D01*
X134091206Y-74784360D01*
X134091206Y-75212859D01*
G37*
G36*
X133296768Y-75079090D02*
G01*
X133361719Y-75088132D01*
X133420902Y-75104129D01*
X133484310Y-75132506D01*
X133539412Y-75170899D01*
X133586209Y-75219307D01*
X133606532Y-75246416D01*
X133641181Y-75303370D01*
X133667834Y-75363971D01*
X133686491Y-75428220D01*
X133697153Y-75496116D01*
X133699929Y-75555483D01*
X133698929Y-75592020D01*
X133692821Y-75650683D01*
X133678162Y-75717394D01*
X133655507Y-75780087D01*
X133624856Y-75838762D01*
X133586209Y-75893418D01*
X133547788Y-75933778D01*
X133494070Y-75973180D01*
X133432047Y-76002732D01*
X133374017Y-76019834D01*
X133310220Y-76030095D01*
X133240655Y-76033515D01*
X133184610Y-76031326D01*
X133119732Y-76022433D01*
X133060607Y-76006700D01*
X132997251Y-75978790D01*
X132942180Y-75941029D01*
X132895393Y-75893418D01*
X132875070Y-75866592D01*
X132840421Y-75809927D01*
X132813768Y-75749243D01*
X132795111Y-75684541D01*
X132784450Y-75615820D01*
X132781674Y-75555483D01*
X132781685Y-75554897D01*
X133028163Y-75554897D01*
X133028650Y-75578829D01*
X133034709Y-75637534D01*
X133052020Y-75700457D01*
X133083558Y-75756251D01*
X133127120Y-75796633D01*
X133182041Y-75820252D01*
X133241827Y-75827179D01*
X133301516Y-75820252D01*
X133356529Y-75796633D01*
X133400390Y-75756251D01*
X133416432Y-75732633D01*
X133440360Y-75676682D01*
X133452596Y-75616391D01*
X133456077Y-75554897D01*
X133455587Y-75530918D01*
X133449497Y-75472162D01*
X133432094Y-75409331D01*
X133400390Y-75353836D01*
X133356529Y-75313621D01*
X133301516Y-75290099D01*
X133241827Y-75283201D01*
X133182041Y-75290099D01*
X133127120Y-75313621D01*
X133083558Y-75353836D01*
X133067599Y-75377292D01*
X133043797Y-75433048D01*
X133031626Y-75493311D01*
X133028163Y-75554897D01*
X132781685Y-75554897D01*
X132782118Y-75531432D01*
X132788781Y-75461712D01*
X132803440Y-75395640D01*
X132826095Y-75333214D01*
X132856746Y-75274437D01*
X132895393Y-75219307D01*
X132933807Y-75178272D01*
X132987498Y-75138210D01*
X133049473Y-75108163D01*
X133107447Y-75090775D01*
X133171174Y-75080342D01*
X133240655Y-75076865D01*
X133296768Y-75079090D01*
G37*
G36*
X131729475Y-75271478D02*
G01*
X131790805Y-75279499D01*
X131845027Y-75307228D01*
X131884594Y-75354764D01*
X131893607Y-75372887D01*
X131910226Y-75429675D01*
X131916399Y-75489414D01*
X131916761Y-75509761D01*
X131916761Y-75996000D01*
X132150648Y-75996000D01*
X132150648Y-75099726D01*
X131924088Y-75099726D01*
X131924088Y-75230738D01*
X131887999Y-75180923D01*
X131845840Y-75137142D01*
X131838212Y-75131087D01*
X131783836Y-75100216D01*
X131726408Y-75083272D01*
X131661367Y-75076918D01*
X131654444Y-75076865D01*
X131588004Y-75081426D01*
X131527902Y-75095110D01*
X131467863Y-75121408D01*
X131426712Y-75149845D01*
X131383783Y-75198335D01*
X131357418Y-75254206D01*
X131343456Y-75312950D01*
X131337992Y-75380894D01*
X131337905Y-75391352D01*
X131337905Y-75996000D01*
X131578533Y-75996000D01*
X131578533Y-75449384D01*
X131582719Y-75390166D01*
X131597584Y-75340647D01*
X131636036Y-75295862D01*
X131695191Y-75273909D01*
X131729475Y-75271478D01*
G37*
G36*
X130778527Y-75079090D02*
G01*
X130843477Y-75088132D01*
X130902661Y-75104129D01*
X130966068Y-75132506D01*
X131021171Y-75170899D01*
X131067968Y-75219307D01*
X131088291Y-75246416D01*
X131122940Y-75303370D01*
X131149593Y-75363971D01*
X131168250Y-75428220D01*
X131178911Y-75496116D01*
X131181688Y-75555483D01*
X131180688Y-75592020D01*
X131174580Y-75650683D01*
X131159921Y-75717394D01*
X131137266Y-75780087D01*
X131106615Y-75838762D01*
X131067968Y-75893418D01*
X131029547Y-75933778D01*
X130975829Y-75973180D01*
X130913806Y-76002732D01*
X130855776Y-76019834D01*
X130791978Y-76030095D01*
X130722413Y-76033515D01*
X130666369Y-76031326D01*
X130601491Y-76022433D01*
X130542366Y-76006700D01*
X130479010Y-75978790D01*
X130423939Y-75941029D01*
X130377152Y-75893418D01*
X130356829Y-75866592D01*
X130322180Y-75809927D01*
X130295527Y-75749243D01*
X130276870Y-75684541D01*
X130266208Y-75615820D01*
X130263432Y-75555483D01*
X130263443Y-75554897D01*
X130509922Y-75554897D01*
X130510409Y-75578829D01*
X130516468Y-75637534D01*
X130533778Y-75700457D01*
X130565316Y-75756251D01*
X130608878Y-75796633D01*
X130663800Y-75820252D01*
X130723586Y-75827179D01*
X130783274Y-75820252D01*
X130838287Y-75796633D01*
X130882148Y-75756251D01*
X130898191Y-75732633D01*
X130922119Y-75676682D01*
X130934355Y-75616391D01*
X130937835Y-75554897D01*
X130937346Y-75530918D01*
X130931255Y-75472162D01*
X130913853Y-75409331D01*
X130882148Y-75353836D01*
X130838287Y-75313621D01*
X130783274Y-75290099D01*
X130723586Y-75283201D01*
X130663800Y-75290099D01*
X130608878Y-75313621D01*
X130565316Y-75353836D01*
X130549358Y-75377292D01*
X130525556Y-75433048D01*
X130513384Y-75493311D01*
X130509922Y-75554897D01*
X130263443Y-75554897D01*
X130263876Y-75531432D01*
X130270540Y-75461712D01*
X130285199Y-75395640D01*
X130307854Y-75333214D01*
X130338505Y-75274437D01*
X130377152Y-75219307D01*
X130415565Y-75178272D01*
X130469256Y-75138210D01*
X130531231Y-75108163D01*
X130589205Y-75090775D01*
X130652933Y-75080342D01*
X130722413Y-75076865D01*
X130778527Y-75079090D01*
G37*
G36*
X129689266Y-75827179D02*
G01*
X129689266Y-75996000D01*
X129800641Y-76000103D01*
X129859360Y-75999859D01*
X129918489Y-75993401D01*
X129979674Y-75975331D01*
X130028080Y-75942364D01*
X130057755Y-75891000D01*
X130067492Y-75828144D01*
X130067647Y-75817800D01*
X130067647Y-75264443D01*
X130193090Y-75264443D01*
X130193090Y-75095623D01*
X130067647Y-75095623D01*
X130067647Y-74845030D01*
X129835226Y-74845030D01*
X129835226Y-75095623D01*
X129689266Y-75095623D01*
X129689266Y-75264443D01*
X129835226Y-75264443D01*
X129835226Y-75745406D01*
X129828109Y-75804075D01*
X129821450Y-75815162D01*
X129764227Y-75828278D01*
X129735574Y-75828937D01*
X129713006Y-75828644D01*
X129689266Y-75827179D01*
G37*
G36*
X129545651Y-75752147D02*
G01*
X129295937Y-75752147D01*
X129295937Y-75996000D01*
X129545651Y-75996000D01*
X129545651Y-75752147D01*
G37*
G36*
X127706503Y-74776739D02*
G01*
X127706503Y-74983076D01*
X128069936Y-74983076D01*
X128069936Y-75996000D01*
X128325512Y-75996000D01*
X128325512Y-74983076D01*
X128690704Y-74983076D01*
X128690704Y-74776739D01*
X127706503Y-74776739D01*
G37*
G36*
X126770662Y-75469900D02*
G01*
X126770662Y-75996000D01*
X127010410Y-75996000D01*
X127010410Y-75445574D01*
X127015123Y-75386902D01*
X127033515Y-75330288D01*
X127035030Y-75327458D01*
X127077942Y-75282228D01*
X127135657Y-75265428D01*
X127157249Y-75264443D01*
X127216028Y-75271855D01*
X127271830Y-75299724D01*
X127298812Y-75327165D01*
X127328103Y-75381707D01*
X127342185Y-75438620D01*
X127346832Y-75498749D01*
X127346879Y-75505951D01*
X127346879Y-75996000D01*
X127580766Y-75996000D01*
X127580766Y-74781722D01*
X127346879Y-74781722D01*
X127346879Y-75211394D01*
X127309914Y-75165178D01*
X127265242Y-75127005D01*
X127228764Y-75106760D01*
X127172880Y-75087404D01*
X127114770Y-75077916D01*
X127087200Y-75076865D01*
X127026915Y-75080904D01*
X126966443Y-75094396D01*
X126935965Y-75105588D01*
X126881124Y-75136555D01*
X126835595Y-75179190D01*
X126824297Y-75193515D01*
X126794329Y-75244367D01*
X126778868Y-75296683D01*
X126773258Y-75355949D01*
X126771054Y-75420539D01*
X126770662Y-75469900D01*
G37*
G36*
X126225677Y-75077354D02*
G01*
X126292336Y-75084687D01*
X126354051Y-75100819D01*
X126410819Y-75125752D01*
X126462641Y-75159483D01*
X126509517Y-75202015D01*
X126543545Y-75243709D01*
X126576765Y-75300807D01*
X126601680Y-75365612D01*
X126616098Y-75425504D01*
X126624749Y-75490748D01*
X126627633Y-75561345D01*
X126627505Y-75576853D01*
X126624435Y-75636165D01*
X126614839Y-75704187D01*
X126598846Y-75765411D01*
X126576457Y-75819838D01*
X126541145Y-75876177D01*
X126496621Y-75922727D01*
X126480051Y-75936142D01*
X126428459Y-75971197D01*
X126374044Y-75998461D01*
X126316805Y-76017936D01*
X126256743Y-76029620D01*
X126193858Y-76033515D01*
X126155759Y-76032379D01*
X126095855Y-76025437D01*
X126029903Y-76008775D01*
X125970421Y-75983026D01*
X125917411Y-75948188D01*
X125870871Y-75904262D01*
X125834307Y-75858546D01*
X125803597Y-75802985D01*
X125787633Y-75742769D01*
X126027382Y-75742769D01*
X126034722Y-75756998D01*
X126071052Y-75804611D01*
X126076838Y-75809615D01*
X126130785Y-75838027D01*
X126189168Y-75845937D01*
X126193417Y-75845901D01*
X126252549Y-75836704D01*
X126306112Y-75809007D01*
X126341429Y-75773763D01*
X126369951Y-75720976D01*
X126385338Y-75662376D01*
X126391108Y-75602085D01*
X125775909Y-75602085D01*
X125775773Y-75554999D01*
X125777599Y-75491265D01*
X125781294Y-75452022D01*
X126020055Y-75452022D01*
X126385246Y-75452022D01*
X126380859Y-75425883D01*
X126361815Y-75366159D01*
X126328973Y-75315148D01*
X126317121Y-75303264D01*
X126262561Y-75272812D01*
X126202357Y-75264443D01*
X126183980Y-75265190D01*
X126125644Y-75279559D01*
X126076621Y-75312217D01*
X126054071Y-75338870D01*
X126029383Y-75393980D01*
X126020055Y-75452022D01*
X125781294Y-75452022D01*
X125783530Y-75428281D01*
X125785617Y-75415519D01*
X125800415Y-75354628D01*
X125822482Y-75298603D01*
X125851820Y-75247444D01*
X125859270Y-75236565D01*
X125900194Y-75187736D01*
X125947243Y-75148180D01*
X126000417Y-75117898D01*
X126017432Y-75110565D01*
X126077012Y-75091330D01*
X126141000Y-75080111D01*
X126202357Y-75076865D01*
X126225677Y-75077354D01*
G37*
G36*
X125170676Y-75313683D02*
G01*
X125235650Y-75319453D01*
X125294865Y-75339739D01*
X125343420Y-75379409D01*
X125360892Y-75406006D01*
X125379525Y-75462314D01*
X125386845Y-75521511D01*
X125388149Y-75566034D01*
X125388149Y-75996000D01*
X125624674Y-75996000D01*
X125624674Y-75095623D01*
X125400459Y-75095623D01*
X125400459Y-75254771D01*
X125367916Y-75204242D01*
X125329632Y-75155070D01*
X125305791Y-75131966D01*
X125255778Y-75100595D01*
X125196414Y-75082246D01*
X125134332Y-75076865D01*
X125123195Y-75076865D01*
X125102972Y-75076865D01*
X125102972Y-75317786D01*
X125142539Y-75314562D01*
X125170676Y-75313683D01*
G37*
G36*
X124638293Y-75077354D02*
G01*
X124704953Y-75084687D01*
X124766667Y-75100819D01*
X124823436Y-75125752D01*
X124875258Y-75159483D01*
X124922134Y-75202015D01*
X124956162Y-75243709D01*
X124989382Y-75300807D01*
X125014297Y-75365612D01*
X125028715Y-75425504D01*
X125037366Y-75490748D01*
X125040250Y-75561345D01*
X125040122Y-75576853D01*
X125037051Y-75636165D01*
X125027456Y-75704187D01*
X125011463Y-75765411D01*
X124989073Y-75819838D01*
X124953762Y-75876177D01*
X124909238Y-75922727D01*
X124892668Y-75936142D01*
X124841076Y-75971197D01*
X124786661Y-75998461D01*
X124729422Y-76017936D01*
X124669360Y-76029620D01*
X124606475Y-76033515D01*
X124568376Y-76032379D01*
X124508472Y-76025437D01*
X124442520Y-76008775D01*
X124383038Y-75983026D01*
X124330028Y-75948188D01*
X124283488Y-75904262D01*
X124246924Y-75858546D01*
X124216214Y-75802985D01*
X124200250Y-75742769D01*
X124439999Y-75742769D01*
X124447339Y-75756998D01*
X124483669Y-75804611D01*
X124489454Y-75809615D01*
X124543402Y-75838027D01*
X124601785Y-75845937D01*
X124606034Y-75845901D01*
X124665166Y-75836704D01*
X124718729Y-75809007D01*
X124754046Y-75773763D01*
X124782568Y-75720976D01*
X124797955Y-75662376D01*
X124803725Y-75602085D01*
X124188526Y-75602085D01*
X124188390Y-75554999D01*
X124190216Y-75491265D01*
X124193911Y-75452022D01*
X124432671Y-75452022D01*
X124797863Y-75452022D01*
X124793476Y-75425883D01*
X124774432Y-75366159D01*
X124741590Y-75315148D01*
X124729738Y-75303264D01*
X124675178Y-75272812D01*
X124614974Y-75264443D01*
X124596597Y-75265190D01*
X124538261Y-75279559D01*
X124489238Y-75312217D01*
X124466688Y-75338870D01*
X124442000Y-75393980D01*
X124432671Y-75452022D01*
X124193911Y-75452022D01*
X124196147Y-75428281D01*
X124198234Y-75415519D01*
X124213031Y-75354628D01*
X124235099Y-75298603D01*
X124264437Y-75247444D01*
X124271887Y-75236565D01*
X124312811Y-75187736D01*
X124359860Y-75148180D01*
X124413034Y-75117898D01*
X124430049Y-75110565D01*
X124489629Y-75091330D01*
X124553617Y-75080111D01*
X124614974Y-75076865D01*
X124638293Y-75077354D01*
G37*
G36*
X123326838Y-75095623D02*
G01*
X123326838Y-75996000D01*
X123565121Y-75996000D01*
X123565121Y-75095623D01*
X123326838Y-75095623D01*
G37*
G36*
X123326838Y-74776739D02*
G01*
X123326838Y-75001833D01*
X123565121Y-75001833D01*
X123565121Y-74776739D01*
X123326838Y-74776739D01*
G37*
G36*
X122482734Y-75146621D02*
G01*
X122435583Y-75187946D01*
X122399643Y-75241289D01*
X122377391Y-75297821D01*
X122363723Y-75363554D01*
X122361394Y-75384025D01*
X122596454Y-75384025D01*
X122612665Y-75326597D01*
X122621953Y-75312217D01*
X122670201Y-75277926D01*
X122731395Y-75265190D01*
X122753844Y-75264443D01*
X122812564Y-75268987D01*
X122863167Y-75288184D01*
X122895414Y-75337953D01*
X122895700Y-75343871D01*
X122869221Y-75397086D01*
X122861115Y-75401903D01*
X122803992Y-75421594D01*
X122739988Y-75438135D01*
X122677560Y-75452753D01*
X122616091Y-75466383D01*
X122558150Y-75482344D01*
X122500141Y-75504500D01*
X122445347Y-75534417D01*
X122405944Y-75565448D01*
X122366564Y-75615575D01*
X122343530Y-75673666D01*
X122336775Y-75733390D01*
X122342985Y-75796587D01*
X122361614Y-75853704D01*
X122392664Y-75904738D01*
X122436133Y-75949691D01*
X122492571Y-75986364D01*
X122553044Y-76009858D01*
X122613117Y-76023610D01*
X122680793Y-76031469D01*
X122742999Y-76033515D01*
X122806515Y-76031261D01*
X122875593Y-76022606D01*
X122936881Y-76007459D01*
X122998539Y-75981583D01*
X123049593Y-75946871D01*
X123056021Y-75941191D01*
X123100131Y-75892007D01*
X123131639Y-75837071D01*
X123150543Y-75776382D01*
X123156845Y-75709942D01*
X122918854Y-75709942D01*
X122904903Y-75769005D01*
X122886614Y-75799042D01*
X122834209Y-75831099D01*
X122773120Y-75843693D01*
X122725121Y-75845937D01*
X122666311Y-75841429D01*
X122614918Y-75825420D01*
X122576128Y-75780841D01*
X122574179Y-75763871D01*
X122599311Y-75709503D01*
X122607005Y-75704080D01*
X122663421Y-75682525D01*
X122727471Y-75664404D01*
X122790174Y-75648385D01*
X122852029Y-75633445D01*
X122914416Y-75616121D01*
X122975205Y-75594088D01*
X123030192Y-75566456D01*
X123067159Y-75539363D01*
X123105379Y-75490632D01*
X123124919Y-75433724D01*
X123129880Y-75378456D01*
X123123780Y-75318793D01*
X123102335Y-75256884D01*
X123070310Y-75206487D01*
X123032281Y-75165965D01*
X122978370Y-75126983D01*
X122923054Y-75102011D01*
X122860136Y-75085566D01*
X122800157Y-75078257D01*
X122757068Y-75076865D01*
X122696254Y-75079317D01*
X122630773Y-75088377D01*
X122571184Y-75104113D01*
X122510294Y-75130272D01*
X122482734Y-75146621D01*
G37*
G36*
X121277835Y-75271478D02*
G01*
X121339165Y-75279499D01*
X121393387Y-75307228D01*
X121432954Y-75354764D01*
X121441967Y-75372887D01*
X121458586Y-75429675D01*
X121464759Y-75489414D01*
X121465121Y-75509761D01*
X121465121Y-75996000D01*
X121699008Y-75996000D01*
X121699008Y-75099726D01*
X121472448Y-75099726D01*
X121472448Y-75230738D01*
X121436359Y-75180923D01*
X121394200Y-75137142D01*
X121386572Y-75131087D01*
X121332196Y-75100216D01*
X121274768Y-75083272D01*
X121209727Y-75076918D01*
X121202804Y-75076865D01*
X121136364Y-75081426D01*
X121076262Y-75095110D01*
X121016223Y-75121408D01*
X120975072Y-75149845D01*
X120932143Y-75198335D01*
X120905779Y-75254206D01*
X120891816Y-75312950D01*
X120886352Y-75380894D01*
X120886265Y-75391352D01*
X120886265Y-75996000D01*
X121126893Y-75996000D01*
X121126893Y-75449384D01*
X121131079Y-75390166D01*
X121145944Y-75340647D01*
X121184396Y-75295862D01*
X121243551Y-75273909D01*
X121277835Y-75271478D01*
G37*
G36*
X120326887Y-75079090D02*
G01*
X120391838Y-75088132D01*
X120451021Y-75104129D01*
X120514428Y-75132506D01*
X120569531Y-75170899D01*
X120616328Y-75219307D01*
X120636651Y-75246416D01*
X120671300Y-75303370D01*
X120697953Y-75363971D01*
X120716610Y-75428220D01*
X120727271Y-75496116D01*
X120730048Y-75555483D01*
X120729048Y-75592020D01*
X120722940Y-75650683D01*
X120708281Y-75717394D01*
X120685626Y-75780087D01*
X120654975Y-75838762D01*
X120616328Y-75893418D01*
X120577907Y-75933778D01*
X120524189Y-75973180D01*
X120462166Y-76002732D01*
X120404136Y-76019834D01*
X120340338Y-76030095D01*
X120270773Y-76033515D01*
X120214729Y-76031326D01*
X120149851Y-76022433D01*
X120090726Y-76006700D01*
X120027370Y-75978790D01*
X119972299Y-75941029D01*
X119925512Y-75893418D01*
X119905189Y-75866592D01*
X119870540Y-75809927D01*
X119843887Y-75749243D01*
X119825230Y-75684541D01*
X119814569Y-75615820D01*
X119811792Y-75555483D01*
X119811803Y-75554897D01*
X120058282Y-75554897D01*
X120058769Y-75578829D01*
X120064828Y-75637534D01*
X120082138Y-75700457D01*
X120113676Y-75756251D01*
X120157238Y-75796633D01*
X120212160Y-75820252D01*
X120271946Y-75827179D01*
X120331634Y-75820252D01*
X120386647Y-75796633D01*
X120430508Y-75756251D01*
X120446551Y-75732633D01*
X120470479Y-75676682D01*
X120482715Y-75616391D01*
X120486196Y-75554897D01*
X120485706Y-75530918D01*
X120479615Y-75472162D01*
X120462213Y-75409331D01*
X120430508Y-75353836D01*
X120386647Y-75313621D01*
X120331634Y-75290099D01*
X120271946Y-75283201D01*
X120212160Y-75290099D01*
X120157238Y-75313621D01*
X120113676Y-75353836D01*
X120097718Y-75377292D01*
X120073916Y-75433048D01*
X120061744Y-75493311D01*
X120058282Y-75554897D01*
X119811803Y-75554897D01*
X119812236Y-75531432D01*
X119818900Y-75461712D01*
X119833559Y-75395640D01*
X119856214Y-75333214D01*
X119886865Y-75274437D01*
X119925512Y-75219307D01*
X119963926Y-75178272D01*
X120017616Y-75138210D01*
X120079591Y-75108163D01*
X120137566Y-75090775D01*
X120201293Y-75080342D01*
X120270773Y-75076865D01*
X120326887Y-75079090D01*
G37*
G36*
X118771025Y-75827179D02*
G01*
X118771025Y-75996000D01*
X118882399Y-76000103D01*
X118941118Y-75999859D01*
X119000247Y-75993401D01*
X119061432Y-75975331D01*
X119109838Y-75942364D01*
X119139514Y-75891000D01*
X119149251Y-75828144D01*
X119149406Y-75817800D01*
X119149406Y-75264443D01*
X119274849Y-75264443D01*
X119274849Y-75095623D01*
X119149406Y-75095623D01*
X119149406Y-74845030D01*
X118916984Y-74845030D01*
X118916984Y-75095623D01*
X118771025Y-75095623D01*
X118771025Y-75264443D01*
X118916984Y-75264443D01*
X118916984Y-75745406D01*
X118909868Y-75804075D01*
X118903209Y-75815162D01*
X118845986Y-75828278D01*
X118817333Y-75828937D01*
X118794765Y-75828644D01*
X118771025Y-75827179D01*
G37*
G36*
X118171653Y-75313683D02*
G01*
X118236627Y-75319453D01*
X118295842Y-75339739D01*
X118344397Y-75379409D01*
X118361869Y-75406006D01*
X118380502Y-75462314D01*
X118387822Y-75521511D01*
X118389126Y-75566034D01*
X118389126Y-75996000D01*
X118625651Y-75996000D01*
X118625651Y-75095623D01*
X118401436Y-75095623D01*
X118401436Y-75254771D01*
X118368893Y-75204242D01*
X118330609Y-75155070D01*
X118306768Y-75131966D01*
X118256755Y-75100595D01*
X118197391Y-75082246D01*
X118135309Y-75076865D01*
X118124172Y-75076865D01*
X118103948Y-75076865D01*
X118103948Y-75317786D01*
X118143516Y-75314562D01*
X118171653Y-75313683D01*
G37*
G36*
X117605107Y-75755665D02*
G01*
X117419580Y-75095623D01*
X117169866Y-75095623D01*
X117478198Y-75975483D01*
X117499892Y-76036130D01*
X117525373Y-76103425D01*
X117549036Y-76161261D01*
X117575033Y-76218177D01*
X117605624Y-76272875D01*
X117619175Y-76291143D01*
X117667136Y-76326018D01*
X117724665Y-76343785D01*
X117789622Y-76351442D01*
X117826977Y-76352399D01*
X117877096Y-76352399D01*
X117933955Y-76352399D01*
X117933955Y-76164820D01*
X117904353Y-76166286D01*
X117844316Y-76164659D01*
X117838408Y-76163941D01*
X117785651Y-76145183D01*
X117750872Y-76094650D01*
X117747549Y-76086565D01*
X117732895Y-76032343D01*
X118062623Y-75095623D01*
X117801185Y-75095623D01*
X117605107Y-75755665D01*
G37*
G36*
X117102162Y-75752147D02*
G01*
X116852448Y-75752147D01*
X116852448Y-75996000D01*
X117102162Y-75996000D01*
X117102162Y-75752147D01*
G37*
G36*
X116353020Y-74776739D02*
G01*
X116128219Y-74776739D01*
X116166907Y-75278805D01*
X116315212Y-75278805D01*
X116353020Y-74776739D01*
G37*
G36*
X116440362Y-74776739D02*
G01*
X116479929Y-75278805D01*
X116628526Y-75278805D01*
X116665456Y-74776739D01*
X116440362Y-74776739D01*
G37*
G36*
X115501883Y-75414506D02*
G01*
X115028540Y-75414506D01*
X115028540Y-75639600D01*
X115501883Y-75639600D01*
X115501883Y-75414506D01*
G37*
G36*
X113871708Y-74776739D02*
G01*
X114278226Y-75537605D01*
X114278226Y-75996000D01*
X114532043Y-75996000D01*
X114532043Y-75537605D01*
X114952630Y-74776739D01*
X114653383Y-74776739D01*
X114401032Y-75307821D01*
X114159524Y-74776739D01*
X113871708Y-74776739D01*
G37*
G36*
X113466203Y-75079090D02*
G01*
X113531154Y-75088132D01*
X113590337Y-75104129D01*
X113653745Y-75132506D01*
X113708847Y-75170899D01*
X113755644Y-75219307D01*
X113775967Y-75246416D01*
X113810616Y-75303370D01*
X113837269Y-75363971D01*
X113855926Y-75428220D01*
X113866587Y-75496116D01*
X113869364Y-75555483D01*
X113868364Y-75592020D01*
X113862256Y-75650683D01*
X113847597Y-75717394D01*
X113824942Y-75780087D01*
X113794291Y-75838762D01*
X113755644Y-75893418D01*
X113717223Y-75933778D01*
X113663505Y-75973180D01*
X113601482Y-76002732D01*
X113543452Y-76019834D01*
X113479654Y-76030095D01*
X113410089Y-76033515D01*
X113354045Y-76031326D01*
X113289167Y-76022433D01*
X113230042Y-76006700D01*
X113166686Y-75978790D01*
X113111615Y-75941029D01*
X113064828Y-75893418D01*
X113044505Y-75866592D01*
X113009856Y-75809927D01*
X112983203Y-75749243D01*
X112964546Y-75684541D01*
X112953885Y-75615820D01*
X112951108Y-75555483D01*
X112951119Y-75554897D01*
X113197598Y-75554897D01*
X113198085Y-75578829D01*
X113204144Y-75637534D01*
X113221455Y-75700457D01*
X113252992Y-75756251D01*
X113296554Y-75796633D01*
X113351476Y-75820252D01*
X113411262Y-75827179D01*
X113470951Y-75820252D01*
X113525963Y-75796633D01*
X113569824Y-75756251D01*
X113585867Y-75732633D01*
X113609795Y-75676682D01*
X113622031Y-75616391D01*
X113625512Y-75554897D01*
X113625022Y-75530918D01*
X113618931Y-75472162D01*
X113601529Y-75409331D01*
X113569824Y-75353836D01*
X113525963Y-75313621D01*
X113470951Y-75290099D01*
X113411262Y-75283201D01*
X113351476Y-75290099D01*
X113296554Y-75313621D01*
X113252992Y-75353836D01*
X113237034Y-75377292D01*
X113213232Y-75433048D01*
X113201060Y-75493311D01*
X113197598Y-75554897D01*
X112951119Y-75554897D01*
X112951553Y-75531432D01*
X112958216Y-75461712D01*
X112972875Y-75395640D01*
X112995530Y-75333214D01*
X113026181Y-75274437D01*
X113064828Y-75219307D01*
X113103242Y-75178272D01*
X113156932Y-75138210D01*
X113218907Y-75108163D01*
X113276882Y-75090775D01*
X113340609Y-75080342D01*
X113410089Y-75076865D01*
X113466203Y-75079090D01*
G37*
G36*
X112271136Y-75212859D02*
G01*
X112284088Y-75193572D01*
X112323254Y-75149788D01*
X112374304Y-75112915D01*
X112402885Y-75098868D01*
X112460652Y-75081934D01*
X112519385Y-75076865D01*
X112530380Y-75076995D01*
X112593440Y-75083232D01*
X112651513Y-75098825D01*
X112712962Y-75128843D01*
X112760230Y-75164708D01*
X112802511Y-75209928D01*
X112832992Y-75253929D01*
X112862750Y-75313115D01*
X112885069Y-75379267D01*
X112897984Y-75439714D01*
X112905734Y-75504999D01*
X112908317Y-75575120D01*
X112907372Y-75612235D01*
X112901594Y-75671254D01*
X112887728Y-75737392D01*
X112866300Y-75798419D01*
X112837308Y-75854336D01*
X112800752Y-75905141D01*
X112773083Y-75935229D01*
X112720914Y-75978229D01*
X112663977Y-76008944D01*
X112602272Y-76027372D01*
X112535798Y-76033515D01*
X112495382Y-76031706D01*
X112433146Y-76020186D01*
X112375770Y-75995706D01*
X112340754Y-75970822D01*
X112297457Y-75926391D01*
X112261171Y-75874367D01*
X112261171Y-75996000D01*
X112032853Y-75996000D01*
X112032853Y-75561345D01*
X112264395Y-75561345D01*
X112264598Y-75575902D01*
X112270525Y-75637188D01*
X112286737Y-75697180D01*
X112316272Y-75753320D01*
X112349255Y-75789023D01*
X112405062Y-75818451D01*
X112468094Y-75827179D01*
X112514732Y-75822489D01*
X112572736Y-75797870D01*
X112616398Y-75752147D01*
X112630668Y-75727836D01*
X112651951Y-75671828D01*
X112662835Y-75613002D01*
X112665930Y-75554018D01*
X112665743Y-75539766D01*
X112660251Y-75479261D01*
X112645230Y-75418994D01*
X112617863Y-75361163D01*
X112578139Y-75316777D01*
X112525463Y-75290815D01*
X112466335Y-75283201D01*
X112457972Y-75283368D01*
X112399260Y-75295278D01*
X112347633Y-75325993D01*
X112342512Y-75330499D01*
X112303738Y-75379327D01*
X112280327Y-75435225D01*
X112268378Y-75493783D01*
X112264395Y-75561345D01*
X112032853Y-75561345D01*
X112032853Y-74784360D01*
X112271136Y-74784360D01*
X112271136Y-75212859D01*
G37*
G36*
X111498831Y-75077325D02*
G01*
X111563849Y-75082503D01*
X111633257Y-75096310D01*
X111693268Y-75118402D01*
X111743881Y-75148778D01*
X111791052Y-75194688D01*
X111801543Y-75209237D01*
X111830073Y-75263092D01*
X111848701Y-75325191D01*
X111856998Y-75388128D01*
X111630145Y-75388128D01*
X111624231Y-75360639D01*
X111597319Y-75305769D01*
X111592805Y-75300765D01*
X111538994Y-75271264D01*
X111479203Y-75264443D01*
X111424904Y-75267974D01*
X111366949Y-75285839D01*
X111345090Y-75304468D01*
X111328554Y-75362922D01*
X111334476Y-75391683D01*
X111378673Y-75430626D01*
X111413165Y-75441475D01*
X111471876Y-75451436D01*
X111551890Y-75461401D01*
X111584858Y-75466163D01*
X111644612Y-75477887D01*
X111701982Y-75494580D01*
X111757933Y-75520019D01*
X111794747Y-75545735D01*
X111835804Y-75589358D01*
X111864631Y-75641873D01*
X111881228Y-75703280D01*
X111885721Y-75762992D01*
X111883782Y-75802037D01*
X111870518Y-75865069D01*
X111844688Y-75918781D01*
X111806293Y-75963173D01*
X111780350Y-75983438D01*
X111728459Y-76011259D01*
X111669891Y-76027951D01*
X111604646Y-76033515D01*
X111546847Y-76029222D01*
X111487697Y-76014582D01*
X111433188Y-75989551D01*
X111413678Y-75977441D01*
X111366366Y-75942339D01*
X111320934Y-75898693D01*
X111314486Y-75948812D01*
X111299538Y-75996000D01*
X111043962Y-75996000D01*
X111043962Y-75961415D01*
X111078840Y-75934157D01*
X111081556Y-75929591D01*
X111092616Y-75871729D01*
X111093687Y-75828562D01*
X111094374Y-75767974D01*
X111094374Y-75651617D01*
X111329433Y-75651617D01*
X111335621Y-75712238D01*
X111356407Y-75770525D01*
X111395672Y-75814283D01*
X111420055Y-75829323D01*
X111475783Y-75851236D01*
X111535477Y-75858540D01*
X111561167Y-75856407D01*
X111616077Y-75831575D01*
X111638090Y-75804532D01*
X111650075Y-75744820D01*
X111638097Y-75689350D01*
X111595560Y-75645169D01*
X111549477Y-75626582D01*
X111489168Y-75612929D01*
X111436412Y-75603257D01*
X111431532Y-75602301D01*
X111374276Y-75587137D01*
X111329433Y-75564276D01*
X111329433Y-75651617D01*
X111094374Y-75651617D01*
X111094374Y-75356181D01*
X111094486Y-75346134D01*
X111101537Y-75281498D01*
X111123024Y-75219820D01*
X111158836Y-75171149D01*
X111208973Y-75135483D01*
X111223426Y-75128385D01*
X111283803Y-75104571D01*
X111348283Y-75088085D01*
X111408069Y-75079670D01*
X111470997Y-75076865D01*
X111498831Y-75077325D01*
G37*
D11*
%TO.C,G\u002A\u002A\u002A*%
G36*
X107774219Y-165632414D02*
G01*
X107774073Y-165642930D01*
X107764276Y-165728416D01*
X107740809Y-165821675D01*
X107706041Y-165916135D01*
X107662341Y-166005220D01*
X107612079Y-166082356D01*
X107592889Y-166106654D01*
X107576149Y-166123629D01*
X107564151Y-166127259D01*
X107552434Y-166120388D01*
X107510516Y-166084302D01*
X107446749Y-166028817D01*
X107377076Y-165967680D01*
X107306070Y-165904934D01*
X107238301Y-165844622D01*
X107178342Y-165790786D01*
X107130764Y-165747470D01*
X107094114Y-165713467D01*
X107060098Y-165680607D01*
X107038447Y-165656958D01*
X107026700Y-165639377D01*
X107022398Y-165624720D01*
X107023079Y-165609841D01*
X107028053Y-165575953D01*
X107401136Y-165575953D01*
X107774219Y-165575953D01*
X107774219Y-165632414D01*
G37*
G36*
X106101122Y-165536359D02*
G01*
X106170075Y-165605141D01*
X106294924Y-165728647D01*
X106409492Y-165840387D01*
X106517025Y-165943426D01*
X106620768Y-166040827D01*
X106723965Y-166135652D01*
X106829863Y-166230965D01*
X106941707Y-166329829D01*
X106980863Y-166364569D01*
X107013628Y-166394391D01*
X107036346Y-166415920D01*
X107045591Y-166425987D01*
X107037789Y-166431950D01*
X107011647Y-166439475D01*
X106971049Y-166447714D01*
X106919946Y-166455957D01*
X106862287Y-166463498D01*
X106802023Y-166469628D01*
X106749834Y-166473978D01*
X106697495Y-166477545D01*
X106654282Y-166478890D01*
X106612845Y-166478013D01*
X106565832Y-166474912D01*
X106505895Y-166469586D01*
X106502476Y-166469262D01*
X106342498Y-166444840D01*
X106195306Y-166403723D01*
X106061706Y-166346404D01*
X105942506Y-166273377D01*
X105838512Y-166185133D01*
X105750533Y-166082166D01*
X105679375Y-165964968D01*
X105644954Y-165889672D01*
X105619511Y-165814376D01*
X105603993Y-165737002D01*
X105597123Y-165651076D01*
X105597626Y-165550124D01*
X105600585Y-165491570D01*
X105610196Y-165405166D01*
X105626691Y-165332246D01*
X105651420Y-165267528D01*
X105685735Y-165205730D01*
X105718698Y-165153985D01*
X106101122Y-165536359D01*
G37*
G36*
X106824684Y-163514142D02*
G01*
X106984827Y-163530736D01*
X107128460Y-163560877D01*
X107256845Y-163604890D01*
X107371244Y-163663099D01*
X107454844Y-163718656D01*
X107553875Y-163802201D01*
X107632965Y-163894034D01*
X107692962Y-163995676D01*
X107734711Y-164108649D01*
X107759059Y-164234476D01*
X107766851Y-164374677D01*
X107766684Y-164395912D01*
X107759920Y-164509153D01*
X107742172Y-164607404D01*
X107711933Y-164695253D01*
X107667695Y-164777282D01*
X107607952Y-164858079D01*
X107564831Y-164905760D01*
X107512808Y-164953555D01*
X107453339Y-164998265D01*
X107384357Y-165040952D01*
X107303793Y-165082683D01*
X107209580Y-165124520D01*
X107099651Y-165167528D01*
X106971938Y-165212770D01*
X106824373Y-165261311D01*
X106815048Y-165264283D01*
X106762856Y-165280659D01*
X106718680Y-165294092D01*
X106686936Y-165303263D01*
X106672035Y-165306853D01*
X106671735Y-165306816D01*
X106660317Y-165298056D01*
X106636184Y-165275642D01*
X106601706Y-165242025D01*
X106559255Y-165199657D01*
X106511204Y-165150988D01*
X106459923Y-165098472D01*
X106407785Y-165044558D01*
X106357162Y-164991698D01*
X106310424Y-164942345D01*
X106269944Y-164898950D01*
X106238093Y-164863964D01*
X106217243Y-164839838D01*
X106209766Y-164829025D01*
X106211275Y-164826428D01*
X106218209Y-164821906D01*
X106232577Y-164815170D01*
X106256329Y-164805481D01*
X106291414Y-164792096D01*
X106339786Y-164774274D01*
X106403393Y-164751274D01*
X106484186Y-164722355D01*
X106584118Y-164686775D01*
X106693411Y-164645905D01*
X106788170Y-164605431D01*
X106864185Y-164566319D01*
X106923155Y-164527443D01*
X106966779Y-164487675D01*
X106996758Y-164445886D01*
X107014790Y-164400948D01*
X107022280Y-164360340D01*
X107019686Y-164289400D01*
X106998638Y-164222935D01*
X106961234Y-164164815D01*
X106909572Y-164118911D01*
X106845749Y-164089092D01*
X106794416Y-164080073D01*
X106730487Y-164078156D01*
X106664114Y-164083330D01*
X106604674Y-164095351D01*
X106592148Y-164099414D01*
X106532408Y-164130053D01*
X106478903Y-164174758D01*
X106436982Y-164228258D01*
X106411993Y-164285280D01*
X106406750Y-164305436D01*
X106398461Y-164336760D01*
X106393407Y-164355121D01*
X106391501Y-164357430D01*
X106379581Y-164361378D01*
X106355233Y-164364401D01*
X106316473Y-164366591D01*
X106261318Y-164368041D01*
X106187784Y-164368843D01*
X106093889Y-164369089D01*
X105798515Y-164369089D01*
X105739349Y-164299248D01*
X105732606Y-164291286D01*
X105703183Y-164256500D01*
X105678766Y-164227564D01*
X105664079Y-164210075D01*
X105661364Y-164206579D01*
X105655830Y-164193980D01*
X105656385Y-164176120D01*
X105663735Y-164147823D01*
X105678588Y-164103916D01*
X105690176Y-164072917D01*
X105749206Y-163952715D01*
X105825447Y-163846137D01*
X105918218Y-163753547D01*
X106026840Y-163675308D01*
X106150630Y-163611786D01*
X106288910Y-163563344D01*
X106440998Y-163530348D01*
X106606214Y-163513161D01*
X106783876Y-163512148D01*
X106824684Y-163514142D01*
G37*
G36*
X105159348Y-164502941D02*
G01*
X105159348Y-165475258D01*
X105159348Y-166447576D01*
X104807347Y-166447576D01*
X104455345Y-166447576D01*
X104455345Y-165927954D01*
X104455345Y-165408333D01*
X104184359Y-165408115D01*
X104088630Y-165407467D01*
X103972556Y-165404510D01*
X103872897Y-165398828D01*
X103786263Y-165390053D01*
X103709261Y-165377815D01*
X103638500Y-165361747D01*
X103570589Y-165341480D01*
X103556439Y-165336665D01*
X103425188Y-165280084D01*
X103306159Y-165205531D01*
X103196677Y-165111359D01*
X103172433Y-165086985D01*
X103134327Y-165045443D01*
X103104798Y-165006388D01*
X103078303Y-164962042D01*
X103049295Y-164904627D01*
X103031165Y-164865677D01*
X102994384Y-164771834D01*
X102970375Y-164680785D01*
X102957366Y-164584574D01*
X102953805Y-164481626D01*
X103678706Y-164481626D01*
X103678708Y-164485944D01*
X103679284Y-164539320D01*
X103681732Y-164577382D01*
X103687255Y-164606715D01*
X103697058Y-164633902D01*
X103712346Y-164665528D01*
X103713073Y-164666942D01*
X103760408Y-164735396D01*
X103822904Y-164787515D01*
X103899899Y-164822742D01*
X103907974Y-164825109D01*
X103939088Y-164831632D01*
X103980724Y-164836802D01*
X104035839Y-164840855D01*
X104107389Y-164844028D01*
X104198328Y-164846555D01*
X104225179Y-164847103D01*
X104293958Y-164847982D01*
X104353902Y-164848000D01*
X104401635Y-164847201D01*
X104433781Y-164845628D01*
X104446964Y-164843327D01*
X104448083Y-164838994D01*
X104450040Y-164815210D01*
X104451782Y-164773287D01*
X104453246Y-164715964D01*
X104454370Y-164645979D01*
X104455091Y-164566070D01*
X104455345Y-164478974D01*
X104455345Y-164123247D01*
X104213029Y-164123247D01*
X104149576Y-164123475D01*
X104064549Y-164125032D01*
X103996466Y-164128559D01*
X103942018Y-164134630D01*
X103897899Y-164143818D01*
X103860801Y-164156697D01*
X103827417Y-164173839D01*
X103794438Y-164195819D01*
X103748553Y-164238571D01*
X103710628Y-164298491D01*
X103696829Y-164328329D01*
X103687163Y-164356405D01*
X103681692Y-164386883D01*
X103679260Y-164426408D01*
X103678706Y-164481626D01*
X102953805Y-164481626D01*
X102953584Y-164475249D01*
X102954274Y-164429361D01*
X102961801Y-164325887D01*
X102979012Y-164232574D01*
X103007658Y-164141570D01*
X103049489Y-164045024D01*
X103073715Y-163996293D01*
X103098556Y-163952613D01*
X103125144Y-163915122D01*
X103158497Y-163876843D01*
X103203635Y-163830804D01*
X103246916Y-163789017D01*
X103286148Y-163755069D01*
X103324783Y-163727560D01*
X103369900Y-163701485D01*
X103428578Y-163671843D01*
X103435332Y-163668552D01*
X103492286Y-163641505D01*
X103543116Y-163619410D01*
X103590985Y-163601732D01*
X103639058Y-163587937D01*
X103690498Y-163577488D01*
X103748469Y-163569850D01*
X103816134Y-163564488D01*
X103896656Y-163560866D01*
X103993201Y-163558450D01*
X104108931Y-163556702D01*
X104472107Y-163552130D01*
X104596419Y-163739910D01*
X104618546Y-163773162D01*
X104760125Y-163978602D01*
X104907739Y-164181138D01*
X105054766Y-164371642D01*
X105140258Y-164478974D01*
X105159348Y-164502941D01*
G37*
G36*
X112043132Y-164455693D02*
G01*
X112043135Y-164467560D01*
X112043197Y-164637048D01*
X112043359Y-164785849D01*
X112043704Y-164915522D01*
X112044316Y-165027629D01*
X112045279Y-165123728D01*
X112046678Y-165205379D01*
X112048595Y-165274144D01*
X112051114Y-165331580D01*
X112054320Y-165379249D01*
X112058295Y-165418711D01*
X112063125Y-165451525D01*
X112068892Y-165479251D01*
X112075681Y-165503449D01*
X112083574Y-165525679D01*
X112092657Y-165547502D01*
X112103013Y-165570476D01*
X112106543Y-165577948D01*
X112151123Y-165648945D01*
X112209477Y-165711241D01*
X112275352Y-165758029D01*
X112311050Y-165775255D01*
X112402616Y-165804486D01*
X112503151Y-165819359D01*
X112606813Y-165819675D01*
X112707761Y-165805236D01*
X112800153Y-165775843D01*
X112818345Y-165766887D01*
X112870206Y-165731392D01*
X112921892Y-165684019D01*
X112966988Y-165631113D01*
X112999078Y-165579024D01*
X113000772Y-165575439D01*
X113011013Y-165553313D01*
X113019987Y-165532085D01*
X113027778Y-165510205D01*
X113034471Y-165486124D01*
X113040148Y-165458291D01*
X113044895Y-165425156D01*
X113048795Y-165385171D01*
X113051932Y-165336784D01*
X113054390Y-165278447D01*
X113056253Y-165208609D01*
X113057604Y-165125721D01*
X113058529Y-165028233D01*
X113059111Y-164914594D01*
X113059434Y-164783256D01*
X113059582Y-164632668D01*
X113059638Y-164461280D01*
X113059832Y-163553339D01*
X113411834Y-163553339D01*
X113763836Y-163553339D01*
X113763836Y-164485615D01*
X113763828Y-164570812D01*
X113763736Y-164735225D01*
X113763491Y-164879668D01*
X113763031Y-165005755D01*
X113762295Y-165115102D01*
X113761219Y-165209323D01*
X113759742Y-165290034D01*
X113757803Y-165358849D01*
X113755338Y-165417382D01*
X113752287Y-165467250D01*
X113748587Y-165510067D01*
X113744175Y-165547448D01*
X113738991Y-165581008D01*
X113732972Y-165612362D01*
X113726056Y-165643124D01*
X113718182Y-165674910D01*
X113697428Y-165740778D01*
X113662953Y-165824796D01*
X113620464Y-165911335D01*
X113573671Y-165992913D01*
X113526282Y-166062050D01*
X113508171Y-166084787D01*
X113412065Y-166184429D01*
X113299494Y-166271397D01*
X113172824Y-166344481D01*
X113034422Y-166402469D01*
X112886657Y-166444151D01*
X112731896Y-166468316D01*
X112675014Y-166473547D01*
X112622811Y-166477424D01*
X112579037Y-166478898D01*
X112536258Y-166477987D01*
X112487039Y-166474711D01*
X112423946Y-166469086D01*
X112375282Y-166463846D01*
X112206920Y-166433956D01*
X112052548Y-166386959D01*
X111911545Y-166322587D01*
X111783290Y-166240569D01*
X111667161Y-166140636D01*
X111576761Y-166040649D01*
X111493825Y-165920937D01*
X111429124Y-165790955D01*
X111381676Y-165648694D01*
X111350499Y-165492143D01*
X111348885Y-165473151D01*
X111347038Y-165430645D01*
X111345347Y-165368191D01*
X111343829Y-165287114D01*
X111342497Y-165188737D01*
X111341366Y-165074381D01*
X111340452Y-164945369D01*
X111339769Y-164803025D01*
X111339332Y-164648671D01*
X111339156Y-164483630D01*
X111338935Y-163553339D01*
X111690937Y-163553339D01*
X112042938Y-163553339D01*
X112043132Y-164455693D01*
G37*
G36*
X109620944Y-163525749D02*
G01*
X109707767Y-163529955D01*
X109783039Y-163536620D01*
X109841531Y-163545746D01*
X109939424Y-163569702D01*
X110105936Y-163626206D01*
X110259053Y-163700023D01*
X110399948Y-163791759D01*
X110529794Y-163902023D01*
X110560438Y-163932003D01*
X110633398Y-164009998D01*
X110694440Y-164087655D01*
X110749038Y-164172384D01*
X110802660Y-164271596D01*
X110826093Y-164319568D01*
X110877072Y-164440298D01*
X110914673Y-164559614D01*
X110941920Y-164686530D01*
X110963872Y-164864917D01*
X110967910Y-165048497D01*
X110953141Y-165227269D01*
X110920148Y-165399671D01*
X110869515Y-165564141D01*
X110801825Y-165719115D01*
X110717660Y-165863033D01*
X110617606Y-165994331D01*
X110502243Y-166111446D01*
X110372157Y-166212818D01*
X110342384Y-166232439D01*
X110187453Y-166318883D01*
X110022078Y-166386932D01*
X109849738Y-166435339D01*
X109673911Y-166462859D01*
X109673500Y-166462897D01*
X109621869Y-166465525D01*
X109554386Y-166465825D01*
X109477332Y-166464073D01*
X109396988Y-166460544D01*
X109319636Y-166455514D01*
X109251559Y-166449257D01*
X109199037Y-166442049D01*
X109141354Y-166430539D01*
X108977311Y-166383584D01*
X108822673Y-166317942D01*
X108679047Y-166234781D01*
X108548043Y-166135272D01*
X108431270Y-166020582D01*
X108330337Y-165891881D01*
X108246854Y-165750338D01*
X108245650Y-165747931D01*
X108226779Y-165707704D01*
X108205629Y-165658971D01*
X108184090Y-165606554D01*
X108164049Y-165555278D01*
X108147396Y-165509965D01*
X108136020Y-165475438D01*
X108131808Y-165456522D01*
X108139609Y-165455832D01*
X108167348Y-165455094D01*
X108212744Y-165454455D01*
X108273257Y-165453937D01*
X108346351Y-165453561D01*
X108429487Y-165453347D01*
X108520127Y-165453317D01*
X108908447Y-165453603D01*
X108958733Y-165532927D01*
X108961162Y-165536721D01*
X108993303Y-165582069D01*
X109029119Y-165625947D01*
X109061302Y-165659347D01*
X109104414Y-165693556D01*
X109178254Y-165739403D01*
X109259293Y-165778182D01*
X109338671Y-165805235D01*
X109377088Y-165813250D01*
X109455831Y-165821823D01*
X109541902Y-165823506D01*
X109626440Y-165818278D01*
X109700582Y-165806117D01*
X109809733Y-165769640D01*
X109912775Y-165712930D01*
X110004999Y-165638240D01*
X110084840Y-165547085D01*
X110150733Y-165440979D01*
X110201114Y-165321438D01*
X110206905Y-165304076D01*
X110218098Y-165268971D01*
X110226171Y-165238646D01*
X110231641Y-165208578D01*
X110235025Y-165174247D01*
X110236841Y-165131131D01*
X110237605Y-165074708D01*
X110237836Y-165000458D01*
X110237846Y-164984224D01*
X110236987Y-164896361D01*
X110233877Y-164825153D01*
X110227595Y-164765731D01*
X110217219Y-164713226D01*
X110201829Y-164662767D01*
X110180502Y-164609485D01*
X110152318Y-164548512D01*
X110128242Y-164501995D01*
X110099564Y-164457262D01*
X110064001Y-164413500D01*
X110016164Y-164363381D01*
X110003722Y-164351151D01*
X109918845Y-164279179D01*
X109831112Y-164226020D01*
X109736633Y-164190138D01*
X109631518Y-164169994D01*
X109511878Y-164164052D01*
X109499500Y-164164142D01*
X109439141Y-164165932D01*
X109391080Y-164170768D01*
X109346804Y-164179856D01*
X109297801Y-164194404D01*
X109284646Y-164198851D01*
X109178701Y-164246765D01*
X109083738Y-164311598D01*
X109002838Y-164390880D01*
X108939084Y-164482136D01*
X108908447Y-164536687D01*
X108518932Y-164536698D01*
X108446951Y-164536656D01*
X108355812Y-164536385D01*
X108283648Y-164535789D01*
X108228431Y-164534784D01*
X108188133Y-164533285D01*
X108160727Y-164531206D01*
X108144184Y-164528464D01*
X108136478Y-164524972D01*
X108135581Y-164520646D01*
X108137232Y-164516006D01*
X108145025Y-164490875D01*
X108154277Y-164458041D01*
X108166840Y-164416409D01*
X108209878Y-164309003D01*
X108267683Y-164198196D01*
X108336938Y-164089401D01*
X108414325Y-163988033D01*
X108496527Y-163899506D01*
X108583936Y-163821738D01*
X108713828Y-163727811D01*
X108853441Y-163651502D01*
X109005518Y-163591379D01*
X109172800Y-163546007D01*
X109196650Y-163541527D01*
X109262765Y-163533470D01*
X109343482Y-163527862D01*
X109433572Y-163524704D01*
X109527803Y-163523999D01*
X109620944Y-163525749D01*
G37*
G36*
X105084270Y-160980855D02*
G01*
X105276682Y-161000116D01*
X105418452Y-161023127D01*
X105638638Y-161071769D01*
X105870738Y-161137438D01*
X106113825Y-161219649D01*
X106366973Y-161317918D01*
X106629258Y-161431762D01*
X106899754Y-161560696D01*
X107177536Y-161704237D01*
X107461677Y-161861899D01*
X107751253Y-162033200D01*
X108045337Y-162217655D01*
X108343005Y-162414779D01*
X108643331Y-162624090D01*
X108945390Y-162845103D01*
X109248255Y-163077333D01*
X109342221Y-163151052D01*
X109161289Y-163151052D01*
X108980356Y-163151052D01*
X108765607Y-162990761D01*
X108496317Y-162794105D01*
X108195401Y-162584612D01*
X107897226Y-162387771D01*
X107602748Y-162204067D01*
X107312924Y-162033986D01*
X107028711Y-161878012D01*
X106751066Y-161736631D01*
X106480944Y-161610327D01*
X106219303Y-161499585D01*
X105967100Y-161404891D01*
X105725291Y-161326729D01*
X105494833Y-161265585D01*
X105276682Y-161221943D01*
X105244424Y-161217111D01*
X105148549Y-161207073D01*
X105046369Y-161201731D01*
X104943524Y-161201040D01*
X104845654Y-161204958D01*
X104758400Y-161213441D01*
X104687401Y-161226447D01*
X104594626Y-161254983D01*
X104490536Y-161303790D01*
X104403997Y-161366270D01*
X104334764Y-161442651D01*
X104282593Y-161533164D01*
X104247238Y-161638037D01*
X104235965Y-161702739D01*
X104229478Y-161793158D01*
X104230328Y-161892230D01*
X104238419Y-161993236D01*
X104253657Y-162089459D01*
X104257223Y-162106474D01*
X104305800Y-162292748D01*
X104373391Y-162488479D01*
X104459274Y-162692851D01*
X104562724Y-162905045D01*
X104683016Y-163124244D01*
X104819427Y-163349632D01*
X104971233Y-163580391D01*
X105137709Y-163815703D01*
X105318131Y-164054753D01*
X105511775Y-164296721D01*
X105717917Y-164540792D01*
X105935833Y-164786148D01*
X106164799Y-165031971D01*
X106404089Y-165277445D01*
X106652981Y-165521752D01*
X106910750Y-165764075D01*
X107176672Y-166003597D01*
X107450022Y-166239500D01*
X107730077Y-166470968D01*
X108016112Y-166697183D01*
X108307404Y-166917327D01*
X108603228Y-167130585D01*
X108902859Y-167336138D01*
X108987702Y-167392420D01*
X109288682Y-167584956D01*
X109585296Y-167763603D01*
X109876458Y-167927828D01*
X110161082Y-168077103D01*
X110438082Y-168210894D01*
X110706370Y-168328671D01*
X110964860Y-168429903D01*
X111212467Y-168514059D01*
X111448103Y-168580607D01*
X111454299Y-168582157D01*
X111651038Y-168625467D01*
X111832875Y-168653631D01*
X111999607Y-168666703D01*
X112151037Y-168664736D01*
X112286962Y-168647780D01*
X112407184Y-168615890D01*
X112511502Y-168569118D01*
X112599716Y-168507516D01*
X112671625Y-168431137D01*
X112727030Y-168340034D01*
X112765730Y-168234260D01*
X112772313Y-168204801D01*
X112781704Y-168129519D01*
X112784976Y-168041853D01*
X112782217Y-167947966D01*
X112773515Y-167854022D01*
X112758961Y-167766186D01*
X112724620Y-167627220D01*
X112677559Y-167478775D01*
X112617476Y-167321290D01*
X112543490Y-167152462D01*
X112454722Y-166969991D01*
X112371076Y-166805165D01*
X112497462Y-166805165D01*
X112623848Y-166805165D01*
X112689608Y-166936467D01*
X112728397Y-167015772D01*
X112822961Y-167229292D01*
X112897906Y-167432457D01*
X112953277Y-167625440D01*
X112989119Y-167808414D01*
X113005476Y-167981554D01*
X113002393Y-168145032D01*
X113002046Y-168149237D01*
X112980615Y-168285572D01*
X112940844Y-168409512D01*
X112883342Y-168520494D01*
X112808720Y-168617958D01*
X112717589Y-168701341D01*
X112610559Y-168770084D01*
X112488240Y-168823623D01*
X112351242Y-168861398D01*
X112200177Y-168882847D01*
X112027726Y-168888268D01*
X111839060Y-168876917D01*
X111637856Y-168848917D01*
X111424877Y-168804637D01*
X111200888Y-168744445D01*
X110966651Y-168668709D01*
X110722930Y-168577798D01*
X110470490Y-168472080D01*
X110210095Y-168351924D01*
X109942506Y-168217696D01*
X109668490Y-168069766D01*
X109388809Y-167908502D01*
X109104227Y-167734272D01*
X108815508Y-167547445D01*
X108523415Y-167348388D01*
X108228713Y-167137470D01*
X107932165Y-166915059D01*
X107634535Y-166681523D01*
X107487059Y-166561900D01*
X107156919Y-166284215D01*
X106837283Y-166001511D01*
X106529129Y-165714871D01*
X106233435Y-165425379D01*
X105951177Y-165134117D01*
X105683335Y-164842168D01*
X105430886Y-164550614D01*
X105194807Y-164260540D01*
X104976077Y-163973028D01*
X104775673Y-163689160D01*
X104594573Y-163410020D01*
X104433755Y-163136690D01*
X104347107Y-162975181D01*
X104247375Y-162769692D01*
X104165595Y-162574912D01*
X104101424Y-162389835D01*
X104054525Y-162213450D01*
X104024557Y-162044751D01*
X104011180Y-161882728D01*
X104010292Y-161843931D01*
X104014312Y-161709890D01*
X104030484Y-161591524D01*
X104059541Y-161485950D01*
X104102218Y-161390285D01*
X104159251Y-161301646D01*
X104164234Y-161295068D01*
X104249320Y-161202235D01*
X104350002Y-161125345D01*
X104466191Y-161064420D01*
X104597800Y-161019486D01*
X104744742Y-160990564D01*
X104906928Y-160977679D01*
X105084270Y-160980855D01*
G37*
G36*
X101115275Y-165867200D02*
G01*
X101115275Y-166098010D01*
X95378018Y-166098010D01*
X89640762Y-166098010D01*
X89640762Y-165867200D01*
X89640762Y-165636391D01*
X95378018Y-165636391D01*
X101115275Y-165636391D01*
X101115275Y-165867200D01*
G37*
G36*
X101115275Y-166806924D02*
G01*
X101115275Y-167043228D01*
X95378018Y-167043228D01*
X89640762Y-167043228D01*
X89640762Y-166806924D01*
X89640762Y-166570619D01*
X95378018Y-166570619D01*
X101115275Y-166570619D01*
X101115275Y-166806924D01*
G37*
G36*
X101115275Y-167741151D02*
G01*
X101115275Y-167977456D01*
X95378018Y-167977456D01*
X89640762Y-167977456D01*
X89640762Y-167741151D01*
X89640762Y-167504846D01*
X95378018Y-167504846D01*
X101115275Y-167504846D01*
X101115275Y-167741151D01*
G37*
G36*
X101115275Y-162501589D02*
G01*
X101115275Y-162823543D01*
X101115275Y-163162691D01*
X101115275Y-163480172D01*
X101115275Y-163526136D01*
X101115275Y-163810483D01*
X101115275Y-164141628D01*
X101115275Y-164465859D01*
X101115275Y-164789693D01*
X101115275Y-165163782D01*
X95378018Y-165163782D01*
X89640762Y-165163782D01*
X89640762Y-164932973D01*
X89640762Y-164804052D01*
X96753578Y-164804052D01*
X96759210Y-164812127D01*
X96760822Y-164812390D01*
X96776975Y-164820873D01*
X96800113Y-164837583D01*
X96806103Y-164842428D01*
X96822765Y-164859172D01*
X96825945Y-164876173D01*
X96818463Y-164903570D01*
X96809364Y-164937410D01*
X96811178Y-164954532D01*
X96825548Y-164954424D01*
X96853584Y-164938181D01*
X96894764Y-164910199D01*
X96935784Y-164938072D01*
X96954355Y-164950209D01*
X96980015Y-164963569D01*
X96990966Y-164962347D01*
X96988218Y-164946711D01*
X96985034Y-164938805D01*
X96971131Y-164899694D01*
X96967396Y-164873565D01*
X96973975Y-164854742D01*
X96991014Y-164837547D01*
X96994410Y-164834805D01*
X97016127Y-164819092D01*
X97029403Y-164812468D01*
X97033155Y-164810469D01*
X97036505Y-164799366D01*
X97521278Y-164799366D01*
X97521572Y-164800517D01*
X97532445Y-164812234D01*
X97554126Y-164828559D01*
X97566749Y-164837455D01*
X97588254Y-164859478D01*
X97592382Y-164884047D01*
X97581443Y-164918788D01*
X97578309Y-164926647D01*
X97570697Y-164951178D01*
X97570338Y-164963746D01*
X97575004Y-164963772D01*
X97593807Y-164955558D01*
X97620747Y-164939387D01*
X97665741Y-164909612D01*
X97702669Y-164937779D01*
X97711760Y-164944543D01*
X97734481Y-164959839D01*
X97747200Y-164965946D01*
X97747576Y-164965915D01*
X97750487Y-164954976D01*
X97746094Y-164926039D01*
X97734762Y-164881570D01*
X97733194Y-164868243D01*
X97742022Y-164851458D01*
X97767334Y-164832110D01*
X97781879Y-164822268D01*
X97802599Y-164804208D01*
X97803528Y-164793320D01*
X97786286Y-164789030D01*
X98296761Y-164789030D01*
X98296816Y-164793320D01*
X98296821Y-164793693D01*
X98307991Y-164809997D01*
X98330209Y-164830717D01*
X98348866Y-164846102D01*
X98362237Y-164862095D01*
X98363590Y-164879959D01*
X98355918Y-164908785D01*
X98352393Y-164921623D01*
X98347480Y-164948079D01*
X98348577Y-164961631D01*
X98352258Y-164962220D01*
X98369603Y-164954810D01*
X98394411Y-164938190D01*
X98433711Y-164908215D01*
X98477330Y-164937080D01*
X98504519Y-164954404D01*
X98524177Y-164964107D01*
X98530844Y-164961382D01*
X98527008Y-164946711D01*
X98526664Y-164945835D01*
X98519817Y-164920990D01*
X98514054Y-164889009D01*
X98512553Y-164866201D01*
X98519989Y-164846593D01*
X98542582Y-164828559D01*
X98564705Y-164811860D01*
X98574508Y-164795686D01*
X98568728Y-164790464D01*
X99070524Y-164790464D01*
X99072258Y-164795686D01*
X99075517Y-164805499D01*
X99099366Y-164828661D01*
X99141329Y-164863891D01*
X99127367Y-164910493D01*
X99123708Y-164923653D01*
X99118456Y-164949721D01*
X99118940Y-164962630D01*
X99122333Y-164962923D01*
X99139174Y-164955006D01*
X99163775Y-164938190D01*
X99203075Y-164908215D01*
X99246693Y-164937080D01*
X99270249Y-164952189D01*
X99292020Y-164963671D01*
X99300484Y-164962811D01*
X99298099Y-164950240D01*
X99297810Y-164949466D01*
X99291573Y-164927301D01*
X99285034Y-164897018D01*
X99282487Y-164875447D01*
X99288548Y-164854320D01*
X99309445Y-164833040D01*
X99310976Y-164831748D01*
X99336669Y-164807721D01*
X99339663Y-164801082D01*
X99829338Y-164801082D01*
X99829562Y-164803628D01*
X99837581Y-164812127D01*
X99838981Y-164812364D01*
X99854440Y-164820712D01*
X99877187Y-164837279D01*
X99888700Y-164846761D01*
X99901166Y-164861581D01*
X99902416Y-164879226D01*
X99894660Y-164908736D01*
X99891089Y-164921649D01*
X99885985Y-164947875D01*
X99886738Y-164961064D01*
X99890276Y-164961594D01*
X99907877Y-164954728D01*
X99933521Y-164939334D01*
X99974336Y-164911637D01*
X100014297Y-164938791D01*
X100031444Y-164950017D01*
X100057280Y-164963539D01*
X100068425Y-164962386D01*
X100065883Y-164946711D01*
X100059054Y-164923978D01*
X100052480Y-164893000D01*
X100050834Y-164873163D01*
X100058258Y-164853374D01*
X100080893Y-164833231D01*
X100092427Y-164824333D01*
X100111590Y-164804941D01*
X100110860Y-164793681D01*
X100101624Y-164791995D01*
X100604833Y-164791995D01*
X100614020Y-164804941D01*
X100615078Y-164806432D01*
X100637254Y-164824504D01*
X100645336Y-164830314D01*
X100669121Y-164856242D01*
X100674969Y-164887035D01*
X100664340Y-164928286D01*
X100657846Y-164950275D01*
X100657836Y-164962798D01*
X100662251Y-164962622D01*
X100680715Y-164954153D01*
X100707493Y-164937904D01*
X100752356Y-164908215D01*
X100790200Y-164937080D01*
X100816481Y-164956084D01*
X100833510Y-164964115D01*
X100838990Y-164957353D01*
X100835508Y-164935721D01*
X100829533Y-164911187D01*
X100822601Y-164882624D01*
X100821731Y-164873308D01*
X100830715Y-164853229D01*
X100856985Y-164829307D01*
X100863043Y-164824582D01*
X100885196Y-164803113D01*
X100887437Y-164789693D01*
X100869951Y-164783662D01*
X100850488Y-164782316D01*
X100821709Y-164780774D01*
X100819892Y-164780682D01*
X100797183Y-164776600D01*
X100783813Y-164763403D01*
X100773166Y-164734831D01*
X100763601Y-164709425D01*
X100751222Y-164696264D01*
X100738431Y-164705044D01*
X100724884Y-164735771D01*
X100715617Y-164757518D01*
X100699075Y-164772760D01*
X100669172Y-164780635D01*
X100660686Y-164781925D01*
X100633409Y-164784457D01*
X100618695Y-164783232D01*
X100616490Y-164782395D01*
X100605116Y-164788604D01*
X100604833Y-164791995D01*
X100101624Y-164791995D01*
X100090372Y-164789941D01*
X100088270Y-164789921D01*
X100045499Y-164784354D01*
X100017204Y-164766732D01*
X99997831Y-164733679D01*
X99993501Y-164723450D01*
X99981445Y-164700381D01*
X99972766Y-164691173D01*
X99970624Y-164692271D01*
X99961707Y-164707148D01*
X99951916Y-164733871D01*
X99946716Y-164748726D01*
X99929939Y-164773622D01*
X99902678Y-164786273D01*
X99859563Y-164789941D01*
X99840156Y-164792857D01*
X99838825Y-164793057D01*
X99829338Y-164801082D01*
X99339663Y-164801082D01*
X99343373Y-164792857D01*
X99330433Y-164784277D01*
X99297195Y-164779100D01*
X99278243Y-164776917D01*
X99253598Y-164770910D01*
X99240082Y-164758762D01*
X99230492Y-164735800D01*
X99220120Y-164712500D01*
X99207012Y-164695875D01*
X99196299Y-164692792D01*
X99191865Y-164706226D01*
X99188723Y-164724190D01*
X99179110Y-164751106D01*
X99176268Y-164756845D01*
X99159345Y-164774370D01*
X99130550Y-164779100D01*
X99120629Y-164779179D01*
X99085268Y-164782157D01*
X99070524Y-164790464D01*
X98568728Y-164790464D01*
X98563148Y-164785423D01*
X98530586Y-164780909D01*
X98525693Y-164780717D01*
X98496914Y-164778479D01*
X98479829Y-164771269D01*
X98467846Y-164753931D01*
X98454370Y-164721309D01*
X98436780Y-164676333D01*
X98417156Y-164727717D01*
X98407088Y-164752738D01*
X98395363Y-164770953D01*
X98378730Y-164777955D01*
X98350216Y-164779100D01*
X98338052Y-164779424D01*
X98310606Y-164782924D01*
X98296761Y-164789030D01*
X97786286Y-164789030D01*
X97785028Y-164788717D01*
X97771639Y-164787562D01*
X97752055Y-164784596D01*
X97743110Y-164782955D01*
X97719506Y-164780474D01*
X97715063Y-164779814D01*
X97698658Y-164767002D01*
X97686235Y-164735600D01*
X97685935Y-164734490D01*
X97674460Y-164700539D01*
X97663892Y-164688382D01*
X97653445Y-164697899D01*
X97642333Y-164728972D01*
X97635483Y-164751626D01*
X97625195Y-164770139D01*
X97607435Y-164779198D01*
X97575015Y-164784759D01*
X97556161Y-164787812D01*
X97531087Y-164793870D01*
X97528024Y-164795586D01*
X97521278Y-164799366D01*
X97036505Y-164799366D01*
X97037646Y-164795586D01*
X97034543Y-164787349D01*
X97018176Y-164780955D01*
X96984120Y-164779100D01*
X96930594Y-164779100D01*
X96916802Y-164729841D01*
X96916194Y-164727691D01*
X96905154Y-164697395D01*
X96894707Y-164688525D01*
X96883791Y-164701214D01*
X96871346Y-164735598D01*
X96860762Y-164763718D01*
X96847233Y-164776687D01*
X96824331Y-164780368D01*
X96794714Y-164781743D01*
X96771217Y-164784435D01*
X96759746Y-164789481D01*
X96754660Y-164798334D01*
X96753578Y-164804052D01*
X89640762Y-164804052D01*
X89640762Y-164702164D01*
X92056944Y-164702164D01*
X92153542Y-164702158D01*
X92400354Y-164702094D01*
X92649773Y-164701961D01*
X92900158Y-164701763D01*
X93149871Y-164701504D01*
X93397272Y-164701186D01*
X93640723Y-164700814D01*
X93878583Y-164700391D01*
X94109215Y-164699920D01*
X94330978Y-164699405D01*
X94542234Y-164698849D01*
X94741343Y-164698256D01*
X94926666Y-164697629D01*
X95096565Y-164696972D01*
X95249399Y-164696288D01*
X95383529Y-164695581D01*
X95497317Y-164694854D01*
X96521508Y-164687545D01*
X96518543Y-164461297D01*
X96518535Y-164460691D01*
X97131069Y-164460691D01*
X97174494Y-164497427D01*
X97217920Y-164534164D01*
X97203957Y-164580766D01*
X97200290Y-164593932D01*
X97194993Y-164619945D01*
X97195398Y-164632770D01*
X97198890Y-164633103D01*
X97216329Y-164625816D01*
X97241959Y-164610204D01*
X97254236Y-164602487D01*
X97279524Y-164590614D01*
X97295021Y-164589047D01*
X97311953Y-164599757D01*
X97336097Y-164616039D01*
X97342240Y-164620225D01*
X97365936Y-164633823D01*
X97375859Y-164632725D01*
X97374131Y-164616984D01*
X97365712Y-164587835D01*
X97359133Y-164556517D01*
X97361179Y-164535304D01*
X97373040Y-164517647D01*
X97395905Y-164496994D01*
X97425498Y-164471957D01*
X97905928Y-164471957D01*
X97906078Y-164473935D01*
X97914171Y-164482741D01*
X97915561Y-164483024D01*
X97930929Y-164491691D01*
X97953506Y-164508574D01*
X97963792Y-164517226D01*
X97976917Y-164532709D01*
X97978872Y-164550811D01*
X97972018Y-164580729D01*
X97968790Y-164593721D01*
X97964231Y-164619999D01*
X97965023Y-164633031D01*
X97966259Y-164633613D01*
X97980537Y-164629211D01*
X98003163Y-164615435D01*
X98013406Y-164608394D01*
X98041460Y-164594808D01*
X98066645Y-164596794D01*
X98098269Y-164614236D01*
X98106075Y-164619298D01*
X98132943Y-164633628D01*
X98144868Y-164632841D01*
X98142639Y-164616984D01*
X98130382Y-164580296D01*
X98127688Y-164548835D01*
X98138863Y-164523381D01*
X98165200Y-164497052D01*
X98208178Y-164460691D01*
X98669797Y-164460691D01*
X98713614Y-164497756D01*
X98757431Y-164534822D01*
X98744658Y-164582676D01*
X98741100Y-164596799D01*
X98735982Y-164622450D01*
X98735707Y-164634351D01*
X98738744Y-164634208D01*
X98755389Y-164626121D01*
X98780687Y-164610204D01*
X98792964Y-164602487D01*
X98818252Y-164590614D01*
X98833749Y-164589047D01*
X98850681Y-164599757D01*
X98874825Y-164616039D01*
X98888828Y-164625352D01*
X98908476Y-164634684D01*
X98915380Y-164628461D01*
X98912099Y-164605993D01*
X98906123Y-164581460D01*
X98899191Y-164552896D01*
X98898506Y-164542008D01*
X98908544Y-164522185D01*
X98935601Y-164497942D01*
X98977542Y-164465859D01*
X98926907Y-164460691D01*
X99439161Y-164460691D01*
X99445270Y-164465859D01*
X99482587Y-164497428D01*
X99526013Y-164534165D01*
X99514337Y-164585192D01*
X99510840Y-164602344D01*
X99507919Y-164626666D01*
X99509991Y-164636218D01*
X99512651Y-164635495D01*
X99529516Y-164626031D01*
X99554070Y-164609106D01*
X99562899Y-164603023D01*
X99587306Y-164590557D01*
X99602917Y-164588926D01*
X99619969Y-164599710D01*
X99644189Y-164616039D01*
X99653450Y-164622355D01*
X99675123Y-164634844D01*
X99684727Y-164633002D01*
X99683987Y-164614647D01*
X99674634Y-164577598D01*
X99669468Y-164556828D01*
X99669617Y-164538059D01*
X99680406Y-164521263D01*
X99704920Y-164498372D01*
X99741722Y-164465859D01*
X100209929Y-164465859D01*
X100250442Y-164496643D01*
X100258655Y-164503136D01*
X100283686Y-164530902D01*
X100289628Y-164560229D01*
X100278180Y-164597279D01*
X100273113Y-164610108D01*
X100271835Y-164629439D01*
X100284663Y-164632428D01*
X100310326Y-164618246D01*
X100311502Y-164617391D01*
X100335610Y-164600333D01*
X100352318Y-164589288D01*
X100356869Y-164588387D01*
X100377194Y-164594223D01*
X100403942Y-164609227D01*
X100429807Y-164626022D01*
X100448308Y-164634523D01*
X100454565Y-164629634D01*
X100451342Y-164611489D01*
X100444366Y-164586392D01*
X100437728Y-164554545D01*
X100439600Y-164533552D01*
X100451285Y-164516912D01*
X100474088Y-164498125D01*
X100516270Y-164465859D01*
X100462431Y-164460364D01*
X100455289Y-164459614D01*
X100426560Y-164454837D01*
X100408257Y-164444895D01*
X100394355Y-164424639D01*
X100378829Y-164388923D01*
X100365436Y-164355950D01*
X100341852Y-164405409D01*
X100331532Y-164426106D01*
X100316922Y-164446194D01*
X100297231Y-164455643D01*
X100264099Y-164460364D01*
X100255079Y-164461279D01*
X100209929Y-164465859D01*
X99741722Y-164465859D01*
X99746906Y-164461279D01*
X99694982Y-164460821D01*
X99684980Y-164460660D01*
X99656205Y-164457666D01*
X99639313Y-164448037D01*
X99626288Y-164427937D01*
X99626100Y-164427571D01*
X99614383Y-164399576D01*
X99609520Y-164377562D01*
X99607017Y-164366037D01*
X99597428Y-164364019D01*
X99585175Y-164375869D01*
X99575161Y-164398585D01*
X99571537Y-164410850D01*
X99555781Y-164441103D01*
X99530507Y-164456281D01*
X99490022Y-164460527D01*
X99439161Y-164460691D01*
X98926907Y-164460691D01*
X98923703Y-164460364D01*
X98915231Y-164459461D01*
X98886481Y-164454327D01*
X98868025Y-164443578D01*
X98854160Y-164422119D01*
X98839183Y-164384855D01*
X98825404Y-164347814D01*
X98808051Y-164390511D01*
X98803595Y-164401372D01*
X98788306Y-164434050D01*
X98773294Y-164451739D01*
X98752873Y-164459034D01*
X98721355Y-164460527D01*
X98669797Y-164460691D01*
X98208178Y-164460691D01*
X98151385Y-164460527D01*
X98094592Y-164460364D01*
X98075703Y-164410904D01*
X98069017Y-164394459D01*
X98057411Y-164370759D01*
X98049726Y-164361445D01*
X98046955Y-164363483D01*
X98037591Y-164380159D01*
X98026489Y-164408157D01*
X98019148Y-164428244D01*
X98007909Y-164446882D01*
X97990146Y-164454988D01*
X97958135Y-164458218D01*
X97940884Y-164459911D01*
X97937228Y-164460691D01*
X97915792Y-164465265D01*
X97905928Y-164471957D01*
X97425498Y-164471957D01*
X97438814Y-164460691D01*
X97387953Y-164460527D01*
X97371903Y-164460092D01*
X97338778Y-164453502D01*
X97318966Y-164435700D01*
X97306589Y-164402496D01*
X97298781Y-164378981D01*
X97287599Y-164367991D01*
X97274218Y-164378352D01*
X97257766Y-164410201D01*
X97246380Y-164435453D01*
X97233671Y-164452824D01*
X97215363Y-164459419D01*
X97183666Y-164460527D01*
X97131069Y-164460691D01*
X96518535Y-164460691D01*
X96515578Y-164235050D01*
X93078170Y-164232285D01*
X89640762Y-164229520D01*
X89640762Y-164137715D01*
X96751882Y-164137715D01*
X96753812Y-164141622D01*
X96767689Y-164157369D01*
X96790550Y-164178931D01*
X96806714Y-164193580D01*
X96820931Y-164210996D01*
X96823104Y-164228335D01*
X96816186Y-164254275D01*
X96809553Y-164280109D01*
X96810699Y-164300075D01*
X96824207Y-164302068D01*
X96850491Y-164286476D01*
X96858544Y-164280697D01*
X96887991Y-164265354D01*
X96913075Y-164266682D01*
X96941727Y-164284509D01*
X96965449Y-164301087D01*
X96980983Y-164304621D01*
X96984371Y-164290259D01*
X96976685Y-164257160D01*
X96961839Y-164207830D01*
X96999742Y-164178920D01*
X97009572Y-164171111D01*
X97029655Y-164152583D01*
X97037646Y-164140925D01*
X97036410Y-164139482D01*
X97521246Y-164139482D01*
X97521945Y-164140925D01*
X97523169Y-164143452D01*
X97537277Y-164159087D01*
X97560587Y-164180153D01*
X97599928Y-164213183D01*
X97583855Y-164259837D01*
X97576019Y-164287966D01*
X97577819Y-164304489D01*
X97592306Y-164303182D01*
X97620164Y-164284509D01*
X97644232Y-164269418D01*
X97664128Y-164263016D01*
X97683662Y-164269241D01*
X97708092Y-164284509D01*
X97708522Y-164284845D01*
X97730514Y-164299872D01*
X97745186Y-164306246D01*
X97748465Y-164303613D01*
X97749688Y-164286345D01*
X97745117Y-164258819D01*
X97735595Y-164227933D01*
X97734538Y-164223794D01*
X97741503Y-164204429D01*
X97767798Y-164179917D01*
X97778786Y-164171147D01*
X97798996Y-164152285D01*
X97807010Y-164140323D01*
X97806335Y-164139482D01*
X98290685Y-164139482D01*
X98291061Y-164140323D01*
X98291884Y-164142163D01*
X98305419Y-164155473D01*
X98329153Y-164173269D01*
X98347232Y-164186366D01*
X98363366Y-164204788D01*
X98365320Y-164226830D01*
X98355562Y-164260653D01*
X98348335Y-164285140D01*
X98348684Y-164303583D01*
X98361997Y-164304554D01*
X98389218Y-164288844D01*
X98410761Y-164274774D01*
X98435159Y-164264540D01*
X98455766Y-164267910D01*
X98480455Y-164284509D01*
X98492221Y-164293121D01*
X98515705Y-164305062D01*
X98528340Y-164303165D01*
X98527156Y-164287257D01*
X98520325Y-164264519D01*
X98513751Y-164233539D01*
X98513452Y-164231713D01*
X98512714Y-164208651D01*
X98522624Y-164191458D01*
X98547601Y-164172115D01*
X98572695Y-164152408D01*
X98576974Y-164142466D01*
X99066928Y-164142466D01*
X99077843Y-164156383D01*
X99100359Y-164174370D01*
X99124533Y-164193351D01*
X99134411Y-164210919D01*
X99133437Y-164234464D01*
X99127572Y-164262379D01*
X99120183Y-164287257D01*
X99117782Y-164295393D01*
X99122349Y-164305545D01*
X99140445Y-164301228D01*
X99170075Y-164282629D01*
X99186672Y-164271435D01*
X99206835Y-164265078D01*
X99227332Y-164271471D01*
X99249829Y-164284272D01*
X99278878Y-164303386D01*
X99305441Y-164322598D01*
X99297581Y-164291280D01*
X99287599Y-164249983D01*
X99283085Y-164221096D01*
X99285886Y-164202561D01*
X99296951Y-164188723D01*
X99317226Y-164173926D01*
X99327498Y-164166645D01*
X99348331Y-164149560D01*
X99354867Y-164141172D01*
X99841180Y-164141172D01*
X99846484Y-164155003D01*
X99869161Y-164177826D01*
X99887942Y-164195570D01*
X99901234Y-164212994D01*
X99902943Y-164230119D01*
X99895906Y-164255145D01*
X99887150Y-164286746D01*
X99888074Y-164304252D01*
X99901286Y-164304545D01*
X99927946Y-164288844D01*
X99949489Y-164274774D01*
X99973887Y-164264540D01*
X99994494Y-164267910D01*
X100019183Y-164284509D01*
X100030949Y-164293121D01*
X100054433Y-164305062D01*
X100067068Y-164303165D01*
X100065883Y-164287257D01*
X100059212Y-164265236D01*
X100052629Y-164234464D01*
X100051551Y-164211486D01*
X100061047Y-164193858D01*
X100085708Y-164174370D01*
X100095780Y-164167029D01*
X100114265Y-164150029D01*
X100118761Y-164140030D01*
X100612423Y-164140030D01*
X100617313Y-164154314D01*
X100642666Y-164176338D01*
X100667699Y-164202839D01*
X100675116Y-164235594D01*
X100664919Y-164278298D01*
X100661274Y-164289747D01*
X100662631Y-164304834D01*
X100677576Y-164303113D01*
X100705612Y-164284509D01*
X100706209Y-164284042D01*
X100729290Y-164268831D01*
X100746010Y-164262527D01*
X100750922Y-164263573D01*
X100771972Y-164273460D01*
X100799482Y-164290401D01*
X100801751Y-164291935D01*
X100826327Y-164306377D01*
X100838179Y-164306079D01*
X100838904Y-164289120D01*
X100830098Y-164253582D01*
X100827941Y-164245702D01*
X100823965Y-164213719D01*
X100834543Y-164191365D01*
X100862828Y-164170649D01*
X100884852Y-164155527D01*
X100893583Y-164141628D01*
X100881093Y-164133367D01*
X100847343Y-164130636D01*
X100830898Y-164130192D01*
X100799440Y-164123181D01*
X100780944Y-164103873D01*
X100769457Y-164067438D01*
X100761903Y-164041938D01*
X100752494Y-164034046D01*
X100740775Y-164047014D01*
X100725682Y-164081177D01*
X100716626Y-164103778D01*
X100704878Y-164122340D01*
X100687898Y-164129472D01*
X100658243Y-164130636D01*
X100628334Y-164132488D01*
X100614100Y-164139235D01*
X100612423Y-164140030D01*
X100118761Y-164140030D01*
X100119119Y-164139235D01*
X100116157Y-164137026D01*
X100096587Y-164132456D01*
X100066366Y-164130636D01*
X100042323Y-164129987D01*
X100023722Y-164124548D01*
X100010900Y-164109100D01*
X99996919Y-164078429D01*
X99974910Y-164026223D01*
X99962580Y-164059195D01*
X99951679Y-164086376D01*
X99937160Y-164111309D01*
X99919675Y-164123588D01*
X99894175Y-164128312D01*
X99888600Y-164128799D01*
X99854727Y-164133411D01*
X99845182Y-164138879D01*
X99841180Y-164141172D01*
X99354867Y-164141172D01*
X99356654Y-164138879D01*
X99353231Y-164135989D01*
X99333725Y-164132143D01*
X99302690Y-164130636D01*
X99275844Y-164130189D01*
X99255365Y-164125833D01*
X99243855Y-164112888D01*
X99233997Y-164086673D01*
X99230186Y-164076046D01*
X99218693Y-164051200D01*
X99209267Y-164039961D01*
X99205607Y-164041231D01*
X99194950Y-164056532D01*
X99183622Y-164083925D01*
X99177346Y-164101981D01*
X99166614Y-164121738D01*
X99150157Y-164129371D01*
X99120157Y-164130636D01*
X99107367Y-164130940D01*
X99080235Y-164133982D01*
X99066948Y-164139235D01*
X99066946Y-164139549D01*
X99066928Y-164142466D01*
X98576974Y-164142466D01*
X98578229Y-164139549D01*
X98563225Y-164132674D01*
X98527117Y-164130636D01*
X98504923Y-164130004D01*
X98486403Y-164124571D01*
X98473383Y-164109117D01*
X98459074Y-164078429D01*
X98436625Y-164026223D01*
X98424074Y-164059195D01*
X98409628Y-164093597D01*
X98394598Y-164114648D01*
X98373987Y-164124568D01*
X98341691Y-164128491D01*
X98325451Y-164129954D01*
X98300486Y-164134340D01*
X98290685Y-164139482D01*
X97806335Y-164139482D01*
X97804650Y-164137383D01*
X97786795Y-164132546D01*
X97757160Y-164130636D01*
X97730806Y-164129954D01*
X97711922Y-164124469D01*
X97698930Y-164109014D01*
X97684661Y-164078429D01*
X97662012Y-164026223D01*
X97642470Y-164075682D01*
X97633645Y-164096980D01*
X97621159Y-164116612D01*
X97603238Y-164125166D01*
X97572087Y-164128491D01*
X97556072Y-164129937D01*
X97531092Y-164134327D01*
X97521246Y-164139482D01*
X97036410Y-164139482D01*
X97035048Y-164137893D01*
X97016787Y-164132226D01*
X96986805Y-164128491D01*
X96964778Y-164126640D01*
X96943060Y-164120609D01*
X96929540Y-164105572D01*
X96916422Y-164075682D01*
X96896881Y-164026223D01*
X96874231Y-164078429D01*
X96861740Y-164105720D01*
X96849003Y-164123004D01*
X96831391Y-164129589D01*
X96801732Y-164130636D01*
X96786618Y-164130971D01*
X96761717Y-164133506D01*
X96751882Y-164137715D01*
X89640762Y-164137715D01*
X89640762Y-164000551D01*
X89640762Y-163812590D01*
X97142783Y-163812590D01*
X97151397Y-163827831D01*
X97180621Y-163850368D01*
X97182483Y-163851631D01*
X97206563Y-163874739D01*
X97212198Y-163901533D01*
X97200724Y-163937825D01*
X97194151Y-163955138D01*
X97195090Y-163970661D01*
X97210865Y-163970328D01*
X97241806Y-163954270D01*
X97242470Y-163953860D01*
X97269703Y-163939010D01*
X97287960Y-163936085D01*
X97305582Y-163943705D01*
X97326372Y-163956762D01*
X97355440Y-163975395D01*
X97373211Y-163986030D01*
X97378567Y-163982787D01*
X97374143Y-163961442D01*
X97363703Y-163918231D01*
X97358885Y-163889038D01*
X97360891Y-163871014D01*
X97370341Y-163859008D01*
X97387859Y-163847869D01*
X97389954Y-163846665D01*
X97419142Y-163826558D01*
X97427138Y-163812269D01*
X97420509Y-163807987D01*
X97905928Y-163807987D01*
X97908189Y-163812269D01*
X97908200Y-163812290D01*
X97922711Y-163828235D01*
X97946196Y-163849874D01*
X97962777Y-163864598D01*
X97977606Y-163881991D01*
X97980230Y-163898294D01*
X97973673Y-163921372D01*
X97972175Y-163925708D01*
X97961970Y-163960818D01*
X97962450Y-163977653D01*
X97974403Y-163977484D01*
X97998618Y-163961582D01*
X98008078Y-163954667D01*
X98033279Y-163939039D01*
X98049787Y-163932800D01*
X98053093Y-163933320D01*
X98072962Y-163942594D01*
X98098623Y-163959802D01*
X98106859Y-163965837D01*
X98128202Y-163978874D01*
X98139294Y-163981534D01*
X98140359Y-163977535D01*
X98138910Y-163957114D01*
X98133200Y-163926602D01*
X98127636Y-163899611D01*
X98128339Y-163879784D01*
X98139641Y-163863355D01*
X98164755Y-163841672D01*
X98207675Y-163806404D01*
X98158212Y-163801824D01*
X98669797Y-163801824D01*
X98674985Y-163806404D01*
X98713201Y-163840143D01*
X98737091Y-163862066D01*
X98749278Y-163878981D01*
X98750670Y-163897176D01*
X98744245Y-163924769D01*
X98738471Y-163948745D01*
X98736708Y-163971196D01*
X98744790Y-163976905D01*
X98763719Y-163968104D01*
X98778557Y-163958903D01*
X98806263Y-163941721D01*
X98808370Y-163940465D01*
X98824350Y-163935724D01*
X98843894Y-163941436D01*
X98873710Y-163959357D01*
X98920094Y-163990053D01*
X98914261Y-163964174D01*
X98910415Y-163947172D01*
X98902208Y-163908987D01*
X98899513Y-163885169D01*
X98903183Y-163870346D01*
X98914072Y-163859148D01*
X98933037Y-163846203D01*
X98942832Y-163839350D01*
X98963722Y-163822188D01*
X98972047Y-163811085D01*
X98969388Y-163808060D01*
X98951030Y-163802465D01*
X98945094Y-163801734D01*
X99439161Y-163801734D01*
X99450087Y-163811085D01*
X99482457Y-163838788D01*
X99506441Y-163860138D01*
X99518684Y-163877011D01*
X99520237Y-163896211D01*
X99514207Y-163926302D01*
X99508809Y-163957793D01*
X99512226Y-163974749D01*
X99527001Y-163973409D01*
X99554565Y-163954782D01*
X99554815Y-163954587D01*
X99577373Y-163939465D01*
X99593230Y-163933044D01*
X99598513Y-163934294D01*
X99619369Y-163944520D01*
X99646996Y-163961733D01*
X99689575Y-163990666D01*
X99683684Y-163964481D01*
X99679677Y-163946743D01*
X99671531Y-163908725D01*
X99668883Y-163885018D01*
X99672580Y-163870265D01*
X99683470Y-163859112D01*
X99702401Y-163846203D01*
X99712157Y-163839359D01*
X99733074Y-163821968D01*
X99738753Y-163814145D01*
X100219311Y-163814145D01*
X100228991Y-163825394D01*
X100245139Y-163840066D01*
X100271820Y-163861016D01*
X100280398Y-163867445D01*
X100289240Y-163879356D01*
X100289374Y-163897268D01*
X100281918Y-163928685D01*
X100277613Y-163945781D01*
X100272399Y-163971638D01*
X100271994Y-163983446D01*
X100275349Y-163983144D01*
X100292379Y-163974641D01*
X100318034Y-163958418D01*
X100323471Y-163954757D01*
X100349127Y-163939763D01*
X100366560Y-163936707D01*
X100383355Y-163943903D01*
X100403933Y-163956827D01*
X100432831Y-163975353D01*
X100449874Y-163985647D01*
X100456248Y-163983842D01*
X100453229Y-163965430D01*
X100448740Y-163945461D01*
X100440773Y-163907943D01*
X100438267Y-163884566D01*
X100442047Y-163870023D01*
X100452938Y-163859005D01*
X100471765Y-163846203D01*
X100481521Y-163839359D01*
X100502438Y-163821968D01*
X100510775Y-163810483D01*
X100507485Y-163807185D01*
X100488172Y-163802677D01*
X100457313Y-163800909D01*
X100403852Y-163800909D01*
X100383706Y-163748702D01*
X100363560Y-163696495D01*
X100341922Y-163748191D01*
X100330005Y-163775098D01*
X100317072Y-163792715D01*
X100298027Y-163800211D01*
X100265096Y-163803145D01*
X100240327Y-163804843D01*
X100221898Y-163808029D01*
X100220860Y-163810483D01*
X100219311Y-163814145D01*
X99738753Y-163814145D01*
X99741411Y-163810483D01*
X99738194Y-163807212D01*
X99718985Y-163802685D01*
X99688215Y-163800909D01*
X99662712Y-163800502D01*
X99641974Y-163796236D01*
X99630370Y-163783316D01*
X99620511Y-163756945D01*
X99616614Y-163746025D01*
X99605537Y-163722400D01*
X99596681Y-163712981D01*
X99593631Y-163714514D01*
X99582486Y-163730058D01*
X99569769Y-163756945D01*
X99559913Y-163779793D01*
X99548152Y-163794496D01*
X99529203Y-163800195D01*
X99495669Y-163801321D01*
X99439161Y-163801734D01*
X98945094Y-163801734D01*
X98920966Y-163798763D01*
X98890288Y-163795210D01*
X98869124Y-163785817D01*
X98853923Y-163765614D01*
X98838583Y-163729468D01*
X98826032Y-163696495D01*
X98803582Y-163748702D01*
X98781133Y-163800909D01*
X98725465Y-163801366D01*
X98669797Y-163801824D01*
X98158212Y-163801824D01*
X98148330Y-163800909D01*
X98114646Y-163797047D01*
X98094889Y-163790202D01*
X98083463Y-163775688D01*
X98073477Y-163748702D01*
X98068671Y-163735214D01*
X98058031Y-163711414D01*
X98050294Y-163701991D01*
X98047093Y-163704567D01*
X98038088Y-163722344D01*
X98028015Y-163751450D01*
X98013411Y-163800909D01*
X97959670Y-163800909D01*
X97941006Y-163801352D01*
X97915806Y-163803910D01*
X97905928Y-163807987D01*
X97420509Y-163807987D01*
X97413932Y-163803739D01*
X97379513Y-163800909D01*
X97351883Y-163800388D01*
X97331937Y-163795387D01*
X97319592Y-163780550D01*
X97307151Y-163750517D01*
X97305364Y-163745897D01*
X97292384Y-163718342D01*
X97281555Y-163711194D01*
X97270775Y-163724847D01*
X97257940Y-163759693D01*
X97251255Y-163778998D01*
X97241146Y-163794128D01*
X97223466Y-163799953D01*
X97191011Y-163800909D01*
X97188032Y-163800920D01*
X97154941Y-163803876D01*
X97142783Y-163812590D01*
X89640762Y-163812590D01*
X89640762Y-163771582D01*
X91917706Y-163764264D01*
X92097484Y-163763697D01*
X92343490Y-163762955D01*
X92593423Y-163762238D01*
X92845431Y-163761550D01*
X93097666Y-163760894D01*
X93348275Y-163760274D01*
X93595409Y-163759695D01*
X93837217Y-163759160D01*
X94071848Y-163758673D01*
X94297451Y-163758238D01*
X94512177Y-163757859D01*
X94714173Y-163757541D01*
X94901591Y-163757286D01*
X95072579Y-163757099D01*
X95225286Y-163756984D01*
X95357862Y-163756945D01*
X96521073Y-163756945D01*
X96521073Y-163526136D01*
X96521073Y-163481213D01*
X96760369Y-163481213D01*
X96766003Y-163496493D01*
X96791404Y-163520851D01*
X96810021Y-163536938D01*
X96823813Y-163553510D01*
X96825642Y-163570301D01*
X96818496Y-163595553D01*
X96809348Y-163629579D01*
X96811130Y-163646555D01*
X96825315Y-163646136D01*
X96852927Y-163629329D01*
X96893472Y-163600481D01*
X96931136Y-163623758D01*
X96934518Y-163625837D01*
X96965905Y-163642883D01*
X96982189Y-163645127D01*
X96985185Y-163631689D01*
X96976708Y-163601691D01*
X96972355Y-163589232D01*
X96964019Y-163564483D01*
X96960710Y-163553182D01*
X96963726Y-163549824D01*
X96979897Y-163536478D01*
X97005371Y-163517175D01*
X97010347Y-163513493D01*
X97034203Y-163493819D01*
X97038314Y-163484117D01*
X97508570Y-163484117D01*
X97553351Y-163517050D01*
X97575679Y-163535718D01*
X97591351Y-163560413D01*
X97590345Y-163589366D01*
X97573790Y-163628743D01*
X97567985Y-163642797D01*
X97570647Y-163653986D01*
X97588279Y-163649863D01*
X97620365Y-163630411D01*
X97664927Y-163599529D01*
X97694753Y-163621240D01*
X97696792Y-163622723D01*
X97726750Y-163643760D01*
X97743378Y-163652495D01*
X97750528Y-163650015D01*
X97752055Y-163637409D01*
X97749125Y-163615167D01*
X97740478Y-163585044D01*
X97737097Y-163575321D01*
X97735689Y-163558246D01*
X97745542Y-163542231D01*
X97769859Y-163520208D01*
X97786372Y-163505145D01*
X97799790Y-163486262D01*
X97797515Y-163482715D01*
X98297934Y-163482715D01*
X98300362Y-163486262D01*
X98308716Y-163498463D01*
X98330349Y-163519690D01*
X98349092Y-163536386D01*
X98362284Y-163553364D01*
X98363914Y-163572017D01*
X98356970Y-163601533D01*
X98353422Y-163615540D01*
X98348346Y-163641281D01*
X98348215Y-163653350D01*
X98351683Y-163653165D01*
X98368894Y-163644845D01*
X98394624Y-163628691D01*
X98400061Y-163625030D01*
X98425717Y-163610036D01*
X98443151Y-163606980D01*
X98459945Y-163614176D01*
X98480713Y-163627221D01*
X98509627Y-163645759D01*
X98527023Y-163656301D01*
X98532817Y-163654345D01*
X98528596Y-163635836D01*
X98521146Y-163608774D01*
X98514476Y-163576606D01*
X98515904Y-163555099D01*
X98526447Y-163537779D01*
X98547125Y-163518175D01*
X98559275Y-163506845D01*
X98575685Y-163488023D01*
X98577702Y-163482175D01*
X99071716Y-163482175D01*
X99074348Y-163496137D01*
X99097844Y-163516117D01*
X99114898Y-163528750D01*
X99132315Y-163549879D01*
X99134890Y-163575516D01*
X99124649Y-163612984D01*
X99123524Y-163616289D01*
X99117127Y-163640408D01*
X99117030Y-163652801D01*
X99120665Y-163652791D01*
X99138146Y-163644742D01*
X99163988Y-163628691D01*
X99169425Y-163625030D01*
X99195081Y-163610036D01*
X99212515Y-163606980D01*
X99229309Y-163614176D01*
X99249948Y-163627138D01*
X99278850Y-163645668D01*
X99279217Y-163645906D01*
X99297220Y-163656516D01*
X99301957Y-163652396D01*
X99297395Y-163630249D01*
X99290627Y-163602518D01*
X99283703Y-163574030D01*
X99282721Y-163564217D01*
X99291322Y-163543796D01*
X99316907Y-163519440D01*
X99339905Y-163497525D01*
X99343519Y-163483576D01*
X99824461Y-163483576D01*
X99866465Y-163518841D01*
X99888594Y-163538078D01*
X99901161Y-163554539D01*
X99902507Y-163572876D01*
X99895658Y-163601680D01*
X99892144Y-163615550D01*
X99887070Y-163641279D01*
X99886943Y-163653350D01*
X99890127Y-163653266D01*
X99906993Y-163645244D01*
X99932422Y-163629323D01*
X99973807Y-163601202D01*
X100016741Y-163629614D01*
X100047173Y-163648833D01*
X100064514Y-163656316D01*
X100069772Y-163651066D01*
X100065778Y-163633297D01*
X100064970Y-163630761D01*
X100053472Y-163587307D01*
X100052863Y-163557460D01*
X100064285Y-163535375D01*
X100088881Y-163515211D01*
X100129786Y-163487799D01*
X100099061Y-163481972D01*
X100607172Y-163481972D01*
X100609843Y-163487799D01*
X100612572Y-163493751D01*
X100635155Y-163511833D01*
X100645533Y-163519686D01*
X100669420Y-163547013D01*
X100675158Y-163578600D01*
X100664340Y-163620368D01*
X100657910Y-163640968D01*
X100659828Y-163653994D01*
X100674782Y-163650503D01*
X100703805Y-163630769D01*
X100729905Y-163612925D01*
X100749122Y-163607155D01*
X100767302Y-163612582D01*
X100787467Y-163624059D01*
X100815772Y-163642713D01*
X100830356Y-163651341D01*
X100840090Y-163648902D01*
X100839124Y-163629467D01*
X100827756Y-163591772D01*
X100822571Y-163575467D01*
X100821759Y-163558000D01*
X100832050Y-163542176D01*
X100856519Y-163520360D01*
X100863316Y-163514514D01*
X100882812Y-163493483D01*
X100883363Y-163480172D01*
X100864053Y-163473199D01*
X100823969Y-163471181D01*
X100799097Y-163468671D01*
X100784961Y-163457000D01*
X100774081Y-163429965D01*
X100773014Y-163426652D01*
X100760370Y-163393280D01*
X100749867Y-163381023D01*
X100739743Y-163389421D01*
X100728232Y-163418013D01*
X100723371Y-163432130D01*
X100712187Y-163454909D01*
X100696547Y-163465082D01*
X100669293Y-163468818D01*
X100653685Y-163470063D01*
X100620396Y-163474681D01*
X100607172Y-163481972D01*
X100099061Y-163481972D01*
X100071130Y-163476675D01*
X100041174Y-163470330D01*
X100019713Y-163461385D01*
X100007177Y-163445751D01*
X99996606Y-163417946D01*
X99996232Y-163416826D01*
X99984683Y-163388761D01*
X99974491Y-163381095D01*
X99963903Y-163394239D01*
X99951163Y-163428603D01*
X99945025Y-163445921D01*
X99934247Y-163461901D01*
X99915354Y-163470370D01*
X99881451Y-163476016D01*
X99832535Y-163482505D01*
X99824461Y-163483576D01*
X99343519Y-163483576D01*
X99343797Y-163482505D01*
X99327269Y-163474087D01*
X99289800Y-163471350D01*
X99274762Y-163470681D01*
X99251726Y-163463059D01*
X99237593Y-163443187D01*
X99229187Y-163420917D01*
X99224838Y-163399872D01*
X99219257Y-163382130D01*
X99206981Y-163377937D01*
X99196253Y-163390801D01*
X99188086Y-163415566D01*
X99176075Y-163446487D01*
X99164456Y-163463157D01*
X99149464Y-163469978D01*
X99127334Y-163471350D01*
X99090105Y-163473992D01*
X99081745Y-163477712D01*
X99071716Y-163482175D01*
X98577702Y-163482175D01*
X98579241Y-163477712D01*
X98576256Y-163476127D01*
X98556320Y-163472592D01*
X98525992Y-163471181D01*
X98504797Y-163470732D01*
X98485277Y-163465885D01*
X98472799Y-163451194D01*
X98460190Y-163421212D01*
X98458528Y-163416907D01*
X98445690Y-163389268D01*
X98435132Y-163381963D01*
X98424637Y-163395394D01*
X98411986Y-163429965D01*
X98408228Y-163441313D01*
X98398078Y-163461585D01*
X98382023Y-163469702D01*
X98352040Y-163471181D01*
X98340532Y-163471395D01*
X98312649Y-163473919D01*
X98298071Y-163478375D01*
X98297934Y-163482715D01*
X97797515Y-163482715D01*
X97793842Y-163476988D01*
X97768542Y-163477742D01*
X97762814Y-163478578D01*
X97730747Y-163475755D01*
X97705856Y-163456473D01*
X97684253Y-163417974D01*
X97662054Y-163366768D01*
X97643565Y-163416170D01*
X97633251Y-163441613D01*
X97620771Y-163459126D01*
X97601055Y-163468348D01*
X97566823Y-163474845D01*
X97520878Y-163482158D01*
X97508570Y-163484117D01*
X97038314Y-163484117D01*
X97039144Y-163482158D01*
X97024145Y-163475832D01*
X96988187Y-163472166D01*
X96981229Y-163471691D01*
X96954875Y-163468881D01*
X96939367Y-163461599D01*
X96928247Y-163444582D01*
X96915056Y-163412567D01*
X96896881Y-163366768D01*
X96874231Y-163418975D01*
X96863735Y-163442076D01*
X96850814Y-163461728D01*
X96834762Y-163469689D01*
X96809059Y-163471181D01*
X96775098Y-163473335D01*
X96760369Y-163481213D01*
X96521073Y-163481213D01*
X96521073Y-163295327D01*
X93080917Y-163295327D01*
X89640762Y-163295327D01*
X89640762Y-163149697D01*
X97136564Y-163149697D01*
X97138549Y-163153935D01*
X97152777Y-163169949D01*
X97176204Y-163191222D01*
X97195414Y-163207826D01*
X97208379Y-163224186D01*
X97209579Y-163242230D01*
X97201921Y-163270977D01*
X97198355Y-163283967D01*
X97193440Y-163310437D01*
X97194531Y-163323985D01*
X97197611Y-163324691D01*
X97214316Y-163318005D01*
X97238546Y-163301932D01*
X97248137Y-163294808D01*
X97271051Y-163279462D01*
X97283965Y-163273345D01*
X97286635Y-163274035D01*
X97303581Y-163283598D01*
X97327928Y-163300822D01*
X97336180Y-163306972D01*
X97358730Y-163322202D01*
X97371368Y-163328300D01*
X97374337Y-163321490D01*
X97371969Y-163300968D01*
X97364903Y-163274275D01*
X97354763Y-163249152D01*
X97352706Y-163244054D01*
X97355413Y-163225604D01*
X97375405Y-163202441D01*
X97380205Y-163198084D01*
X97401169Y-163181246D01*
X97413972Y-163174427D01*
X97417212Y-163173299D01*
X97420838Y-163163937D01*
X97906302Y-163163937D01*
X97918000Y-163174813D01*
X97934881Y-163185768D01*
X97959201Y-163204214D01*
X97959348Y-163204336D01*
X97974172Y-163219736D01*
X97977534Y-163237116D01*
X97971252Y-163265757D01*
X97971241Y-163265798D01*
X97963279Y-163300981D01*
X97965704Y-163317499D01*
X97980058Y-163316807D01*
X98007883Y-163300363D01*
X98026871Y-163287733D01*
X98045430Y-163278817D01*
X98060071Y-163280852D01*
X98079288Y-163292956D01*
X98099871Y-163306793D01*
X98127034Y-163321812D01*
X98140099Y-163321540D01*
X98140804Y-163305283D01*
X98130889Y-163272346D01*
X98126546Y-163259747D01*
X98121417Y-163236763D01*
X98127015Y-163220748D01*
X98145354Y-163201899D01*
X98149613Y-163198026D01*
X98170494Y-163181242D01*
X98183336Y-163174427D01*
X98185279Y-163174125D01*
X98191692Y-163163436D01*
X98185241Y-163156299D01*
X98165747Y-163152600D01*
X98686283Y-163152600D01*
X98687364Y-163156306D01*
X98692530Y-163163436D01*
X98699715Y-163173351D01*
X98721421Y-163195142D01*
X98735275Y-163207815D01*
X98748829Y-163224924D01*
X98750394Y-163243383D01*
X98742641Y-163272993D01*
X98739019Y-163286016D01*
X98733769Y-163312072D01*
X98734258Y-163324984D01*
X98737080Y-163325424D01*
X98753260Y-163318210D01*
X98777274Y-163301932D01*
X98803793Y-163282739D01*
X98823020Y-163275515D01*
X98841742Y-163281578D01*
X98868610Y-163300822D01*
X98889179Y-163315856D01*
X98908627Y-163326456D01*
X98915692Y-163322314D01*
X98912614Y-163303570D01*
X98905810Y-163279094D01*
X98898852Y-163246486D01*
X98900142Y-163225032D01*
X98910757Y-163208353D01*
X98931771Y-163190075D01*
X98943130Y-163180409D01*
X98960722Y-163161670D01*
X98963994Y-163153328D01*
X99449606Y-163153328D01*
X99449696Y-163156112D01*
X99460721Y-163169288D01*
X99483209Y-163186858D01*
X99503248Y-163201918D01*
X99517748Y-163221234D01*
X99519559Y-163246019D01*
X99510789Y-163283681D01*
X99509434Y-163288596D01*
X99504401Y-163313560D01*
X99504995Y-163326357D01*
X99507846Y-163326611D01*
X99523955Y-163318905D01*
X99548037Y-163302355D01*
X99558156Y-163294844D01*
X99581124Y-163279465D01*
X99594010Y-163273345D01*
X99596681Y-163274035D01*
X99613626Y-163283598D01*
X99637974Y-163300822D01*
X99658543Y-163315856D01*
X99677991Y-163326456D01*
X99685056Y-163322314D01*
X99681978Y-163303570D01*
X99674790Y-163277683D01*
X99668111Y-163245693D01*
X99669802Y-163224675D01*
X99681044Y-163208268D01*
X99703014Y-163190113D01*
X99712443Y-163182829D01*
X99730741Y-163166676D01*
X99733663Y-163157443D01*
X99730766Y-163155641D01*
X100211277Y-163155641D01*
X100213423Y-163157443D01*
X100253326Y-163190943D01*
X100295375Y-163226245D01*
X100281413Y-163272847D01*
X100277780Y-163285986D01*
X100272670Y-163312229D01*
X100273409Y-163325407D01*
X100276956Y-163325816D01*
X100294046Y-163318075D01*
X100318767Y-163301313D01*
X100358167Y-163271261D01*
X100401262Y-163299780D01*
X100432000Y-163319191D01*
X100449257Y-163326571D01*
X100454713Y-163321289D01*
X100451342Y-163303570D01*
X100445239Y-163281679D01*
X100437700Y-163248037D01*
X100438061Y-163226467D01*
X100447119Y-163210961D01*
X100465671Y-163195513D01*
X100487541Y-163177759D01*
X100497712Y-163162691D01*
X100487686Y-163154755D01*
X100457166Y-163152445D01*
X100430584Y-163150676D01*
X100408776Y-163141297D01*
X100393042Y-163119620D01*
X100378255Y-163081004D01*
X100363771Y-163037040D01*
X100341864Y-163089132D01*
X100331001Y-163113590D01*
X100317473Y-163133260D01*
X100298265Y-163142862D01*
X100265617Y-163148432D01*
X100211277Y-163155641D01*
X99730766Y-163155641D01*
X99723343Y-163151023D01*
X99700482Y-163145381D01*
X99668986Y-163142227D01*
X99639627Y-163132826D01*
X99617730Y-163106908D01*
X99609520Y-163069496D01*
X99609515Y-163068769D01*
X99604407Y-163053713D01*
X99593095Y-163054457D01*
X99580576Y-163068067D01*
X99571849Y-163091609D01*
X99565906Y-163117267D01*
X99555941Y-163132799D01*
X99536312Y-163139917D01*
X99500862Y-163143084D01*
X99489190Y-163143997D01*
X99462469Y-163148113D01*
X99457181Y-163150257D01*
X99449606Y-163153328D01*
X98963994Y-163153328D01*
X98965199Y-163150257D01*
X98961712Y-163147797D01*
X98941420Y-163143255D01*
X98910603Y-163141454D01*
X98889089Y-163140699D01*
X98865639Y-163135019D01*
X98855481Y-163122220D01*
X98847472Y-163099830D01*
X98835626Y-163070475D01*
X98821738Y-163037964D01*
X98801976Y-163089709D01*
X98791539Y-163115610D01*
X98779815Y-163133519D01*
X98763043Y-163140358D01*
X98734249Y-163141454D01*
X98720815Y-163141902D01*
X98696088Y-163145867D01*
X98686283Y-163152600D01*
X98165747Y-163152600D01*
X98164930Y-163152445D01*
X98127960Y-163148058D01*
X98092376Y-163128487D01*
X98071017Y-163092677D01*
X98068698Y-163086021D01*
X98058222Y-163062877D01*
X98049717Y-163053527D01*
X98047170Y-163054917D01*
X98037565Y-163070391D01*
X98026828Y-163097490D01*
X98022927Y-163108235D01*
X98010877Y-163132257D01*
X98000339Y-163142196D01*
X97983130Y-163143619D01*
X97949107Y-163148105D01*
X97921003Y-163153670D01*
X97906814Y-163158886D01*
X97906692Y-163160089D01*
X97906302Y-163163937D01*
X97420838Y-163163937D01*
X97422328Y-163160089D01*
X97422013Y-163157989D01*
X97408150Y-163148116D01*
X97375617Y-163143015D01*
X97345910Y-163140452D01*
X97325795Y-163133288D01*
X97313433Y-163116221D01*
X97301870Y-163083651D01*
X97291264Y-163056894D01*
X97281363Y-163049490D01*
X97270718Y-163062670D01*
X97257646Y-163096939D01*
X97250079Y-163118367D01*
X97239612Y-163134430D01*
X97221974Y-163140507D01*
X97189760Y-163141454D01*
X97171592Y-163141952D01*
X97146435Y-163144929D01*
X97136564Y-163149697D01*
X89640762Y-163149697D01*
X89640762Y-163059022D01*
X89640762Y-162828213D01*
X96736804Y-162828213D01*
X96780064Y-162860325D01*
X96794899Y-162871333D01*
X96816726Y-162887512D01*
X96826833Y-162894976D01*
X96827278Y-162897243D01*
X96824346Y-162914540D01*
X96816829Y-162942618D01*
X96809653Y-162971418D01*
X96810192Y-162991373D01*
X96822167Y-162993263D01*
X96846208Y-162977843D01*
X96878384Y-162958749D01*
X96908792Y-162957853D01*
X96941727Y-162976590D01*
X96966493Y-162993719D01*
X96981624Y-162996644D01*
X96984289Y-162981801D01*
X96975293Y-162948517D01*
X96969825Y-162931622D01*
X96963107Y-162906604D01*
X96962221Y-162895450D01*
X96966097Y-162892554D01*
X96983602Y-162879534D01*
X97009465Y-162860325D01*
X97052724Y-162828213D01*
X97000953Y-162823374D01*
X97504760Y-162823374D01*
X97510357Y-162828213D01*
X97552577Y-162864715D01*
X97600395Y-162906056D01*
X97582658Y-162948506D01*
X97578473Y-162959046D01*
X97570674Y-162983745D01*
X97569983Y-162996018D01*
X97572040Y-162996561D01*
X97587933Y-162991291D01*
X97612640Y-162977844D01*
X97628068Y-162968743D01*
X97657273Y-162956948D01*
X97681292Y-162959598D01*
X97708092Y-162976590D01*
X97727291Y-162990396D01*
X97743692Y-162996662D01*
X97749976Y-162987344D01*
X97746864Y-162960806D01*
X97735079Y-162915410D01*
X97734758Y-162899846D01*
X97746821Y-162882552D01*
X97775235Y-162860456D01*
X97821905Y-162828213D01*
X97764352Y-162824868D01*
X97748995Y-162823633D01*
X98285115Y-162823633D01*
X98290299Y-162828213D01*
X98327020Y-162860656D01*
X98348763Y-162880559D01*
X98361431Y-162897635D01*
X98363021Y-162915890D01*
X98356523Y-162943740D01*
X98353442Y-162956120D01*
X98348891Y-162982339D01*
X98349705Y-162995385D01*
X98350941Y-162995967D01*
X98365219Y-162991565D01*
X98387844Y-162977789D01*
X98398088Y-162970748D01*
X98426142Y-162957162D01*
X98451327Y-162959148D01*
X98482951Y-162976590D01*
X98490757Y-162981652D01*
X98517625Y-162995982D01*
X98529550Y-162995195D01*
X98527321Y-162979338D01*
X98515064Y-162942650D01*
X98512370Y-162911189D01*
X98523545Y-162885735D01*
X98549882Y-162859406D01*
X98592271Y-162823543D01*
X99054479Y-162823543D01*
X99097743Y-162860569D01*
X99141007Y-162897595D01*
X99127206Y-162943658D01*
X99123733Y-162956271D01*
X99118776Y-162982645D01*
X99119797Y-162996114D01*
X99121222Y-162996825D01*
X99135946Y-162992597D01*
X99158582Y-162978557D01*
X99169931Y-162970479D01*
X99196813Y-162957145D01*
X99221185Y-162959247D01*
X99252315Y-162976590D01*
X99261489Y-162982527D01*
X99287150Y-162996118D01*
X99298624Y-162995022D01*
X99297541Y-162979338D01*
X99289609Y-162951924D01*
X99282861Y-162920327D01*
X99284771Y-162898931D01*
X99296561Y-162881089D01*
X99319454Y-162860154D01*
X99342550Y-162840384D01*
X99831123Y-162840384D01*
X99848572Y-162855118D01*
X99849756Y-162855808D01*
X99881902Y-162876274D01*
X99897813Y-162893967D01*
X99900840Y-162915712D01*
X99894333Y-162948335D01*
X99890341Y-162965334D01*
X99885639Y-162991432D01*
X99885629Y-163003503D01*
X99887067Y-163003794D01*
X99900775Y-162997067D01*
X99922761Y-162981155D01*
X99932538Y-162973608D01*
X99961734Y-162957753D01*
X99988590Y-162958880D01*
X100021679Y-162976590D01*
X100040097Y-162988245D01*
X100059643Y-162997004D01*
X100065551Y-162991160D01*
X100059875Y-162970379D01*
X100056475Y-162960900D01*
X100049289Y-162920658D01*
X100059832Y-162888637D01*
X100089668Y-162858997D01*
X100130180Y-162828213D01*
X100080558Y-162823543D01*
X100593206Y-162823543D01*
X100598664Y-162828213D01*
X100636877Y-162860910D01*
X100661323Y-162882656D01*
X100673364Y-162899178D01*
X100674564Y-162917426D01*
X100667921Y-162945580D01*
X100664551Y-162959141D01*
X100659776Y-162985160D01*
X100660106Y-162997695D01*
X100661289Y-162998156D01*
X100675070Y-162992974D01*
X100697310Y-162978557D01*
X100701308Y-162975653D01*
X100734222Y-162957964D01*
X100762614Y-162958324D01*
X100793539Y-162976590D01*
X100801902Y-162983042D01*
X100825641Y-162998253D01*
X100836967Y-162997221D01*
X100837151Y-162978619D01*
X100827463Y-162941115D01*
X100821002Y-162917118D01*
X100821381Y-162899234D01*
X100832619Y-162883025D01*
X100857688Y-162860569D01*
X100900952Y-162823543D01*
X100850091Y-162823130D01*
X100833341Y-162822607D01*
X100801638Y-162816163D01*
X100782052Y-162798565D01*
X100767789Y-162765015D01*
X100760003Y-162745413D01*
X100748236Y-162733923D01*
X100735872Y-162744075D01*
X100722350Y-162776006D01*
X100706779Y-162822718D01*
X100649993Y-162823130D01*
X100593206Y-162823543D01*
X100080558Y-162823543D01*
X100071792Y-162822718D01*
X100039706Y-162818982D01*
X100019126Y-162811875D01*
X100006306Y-162796535D01*
X99993871Y-162767763D01*
X99974336Y-162718304D01*
X99951687Y-162770511D01*
X99939196Y-162797802D01*
X99926459Y-162815086D01*
X99908846Y-162821670D01*
X99879188Y-162822718D01*
X99859913Y-162823543D01*
X99858161Y-162823618D01*
X99834601Y-162829586D01*
X99831123Y-162840384D01*
X99342550Y-162840384D01*
X99362224Y-162823543D01*
X99311363Y-162823130D01*
X99297952Y-162822726D01*
X99262322Y-162815587D01*
X99240309Y-162796377D01*
X99226224Y-162760939D01*
X99219546Y-162743797D01*
X99207436Y-162728503D01*
X99196575Y-162726209D01*
X99191865Y-162739916D01*
X99191864Y-162740119D01*
X99186877Y-162762304D01*
X99175096Y-162790291D01*
X99171735Y-162796561D01*
X99158504Y-162813650D01*
X99139398Y-162821229D01*
X99107878Y-162823045D01*
X99106403Y-162823130D01*
X99054479Y-162823543D01*
X98592271Y-162823543D01*
X98592860Y-162823045D01*
X98536530Y-162822881D01*
X98480200Y-162822718D01*
X98458208Y-162770511D01*
X98436216Y-162718304D01*
X98413263Y-162770511D01*
X98400162Y-162798704D01*
X98387235Y-162815516D01*
X98368892Y-162821948D01*
X98337712Y-162823175D01*
X98285115Y-162823633D01*
X97748995Y-162823633D01*
X97732370Y-162822296D01*
X97711866Y-162815725D01*
X97698408Y-162800035D01*
X97684255Y-162769914D01*
X97674363Y-162747883D01*
X97664619Y-162732330D01*
X97656176Y-162733753D01*
X97646135Y-162753393D01*
X97631601Y-162792493D01*
X97626727Y-162804349D01*
X97616275Y-162816535D01*
X97597159Y-162821784D01*
X97562734Y-162823046D01*
X97504760Y-162823374D01*
X97000953Y-162823374D01*
X96993935Y-162822718D01*
X96961756Y-162819014D01*
X96941300Y-162812169D01*
X96929141Y-162797632D01*
X96918180Y-162770511D01*
X96912847Y-162756769D01*
X96901523Y-162733144D01*
X96893536Y-162723799D01*
X96890718Y-162725761D01*
X96881524Y-162742411D01*
X96871078Y-162770511D01*
X96871049Y-162770602D01*
X96861560Y-162797463D01*
X96850499Y-162811938D01*
X96831088Y-162818774D01*
X96796550Y-162822718D01*
X96736804Y-162828213D01*
X89640762Y-162828213D01*
X89640762Y-162822718D01*
X93080917Y-162822718D01*
X96521073Y-162822718D01*
X96521073Y-162591908D01*
X96521073Y-162501233D01*
X97136639Y-162501233D01*
X97137828Y-162504048D01*
X97151358Y-162517684D01*
X97175108Y-162535623D01*
X97195732Y-162550545D01*
X97209958Y-162567512D01*
X97210705Y-162588287D01*
X97200402Y-162621077D01*
X97192844Y-162647525D01*
X97195565Y-162662422D01*
X97211687Y-162660620D01*
X97242230Y-162642647D01*
X97283659Y-162614495D01*
X97317273Y-162639701D01*
X97346443Y-162661057D01*
X97368720Y-162674280D01*
X97377471Y-162671800D01*
X97374702Y-162652540D01*
X97362418Y-162615420D01*
X97346471Y-162570222D01*
X97384399Y-162541292D01*
X97394211Y-162533478D01*
X97414324Y-162514716D01*
X97422328Y-162502677D01*
X97422326Y-162502675D01*
X97908795Y-162502675D01*
X97908796Y-162502677D01*
X97913370Y-162515125D01*
X97938556Y-162533003D01*
X97951149Y-162540868D01*
X97971903Y-162560183D01*
X97977379Y-162583857D01*
X97970413Y-162619596D01*
X97964660Y-162644034D01*
X97965274Y-162662678D01*
X97977598Y-162663577D01*
X98003163Y-162648062D01*
X98011170Y-162642519D01*
X98040225Y-162627817D01*
X98064673Y-162629302D01*
X98092774Y-162646863D01*
X98099369Y-162651908D01*
X98123067Y-162666319D01*
X98134869Y-162664138D01*
X98135698Y-162644230D01*
X98126480Y-162605458D01*
X98124282Y-162597416D01*
X98121988Y-162576499D01*
X98130700Y-162560050D01*
X98153957Y-162539585D01*
X98164130Y-162531184D01*
X98183856Y-162512735D01*
X98191692Y-162501836D01*
X98191067Y-162501233D01*
X98686184Y-162501233D01*
X98686399Y-162501836D01*
X98687185Y-162504036D01*
X98699604Y-162518777D01*
X98721685Y-162538735D01*
X98735946Y-162550774D01*
X98749584Y-162567016D01*
X98751524Y-162585461D01*
X98744586Y-162615574D01*
X98741153Y-162629395D01*
X98736374Y-162655437D01*
X98736697Y-162667967D01*
X98737337Y-162668342D01*
X98750130Y-162664333D01*
X98771598Y-162650873D01*
X98773833Y-162649247D01*
X98802900Y-162629343D01*
X98822405Y-162621956D01*
X98839824Y-162626336D01*
X98862633Y-162641733D01*
X98881429Y-162654916D01*
X98904737Y-162666951D01*
X98914702Y-162663330D01*
X98912614Y-162644115D01*
X98905248Y-162617585D01*
X98898571Y-162585816D01*
X98900139Y-162565404D01*
X98911045Y-162550287D01*
X98932380Y-162534402D01*
X98955361Y-162516712D01*
X98963344Y-162502825D01*
X98950560Y-162495272D01*
X98928881Y-162493815D01*
X99439161Y-162493815D01*
X99449687Y-162502825D01*
X99482054Y-162530530D01*
X99505159Y-162551059D01*
X99517643Y-162567822D01*
X99519182Y-162586317D01*
X99512840Y-162614942D01*
X99509556Y-162628787D01*
X99504920Y-162654720D01*
X99505089Y-162666996D01*
X99507668Y-162667264D01*
X99524149Y-162660789D01*
X99549532Y-162646577D01*
X99565532Y-162636880D01*
X99585784Y-162628064D01*
X99603706Y-162630054D01*
X99629794Y-162642289D01*
X99641235Y-162648117D01*
X99669384Y-162662054D01*
X99683121Y-162667171D01*
X99686446Y-162664392D01*
X99683356Y-162654639D01*
X99683140Y-162654065D01*
X99676496Y-162630963D01*
X99669766Y-162600182D01*
X99668750Y-162594503D01*
X99667791Y-162571638D01*
X99677453Y-162555037D01*
X99702019Y-162536204D01*
X99712189Y-162528997D01*
X99733014Y-162511919D01*
X99739609Y-162503451D01*
X100222605Y-162503451D01*
X100227632Y-162515289D01*
X100250473Y-162533642D01*
X100270852Y-162549020D01*
X100286820Y-162567939D01*
X100288554Y-162590052D01*
X100278695Y-162623802D01*
X100277608Y-162627010D01*
X100271532Y-162651541D01*
X100272161Y-162664704D01*
X100276058Y-162665138D01*
X100294303Y-162658246D01*
X100320842Y-162643316D01*
X100340960Y-162630892D01*
X100359544Y-162622648D01*
X100373375Y-162625029D01*
X100390574Y-162637340D01*
X100413987Y-162654643D01*
X100438194Y-162670405D01*
X100447432Y-162675275D01*
X100455056Y-162674306D01*
X100451505Y-162656353D01*
X100444801Y-162632446D01*
X100437048Y-162595928D01*
X100438129Y-162571600D01*
X100448943Y-162553765D01*
X100470390Y-162536724D01*
X100480462Y-162529383D01*
X100498947Y-162512383D01*
X100503801Y-162501589D01*
X100501024Y-162499460D01*
X100481712Y-162494834D01*
X100451710Y-162492990D01*
X100428344Y-162492343D01*
X100409735Y-162486896D01*
X100396747Y-162471443D01*
X100382484Y-162440783D01*
X100360035Y-162388576D01*
X100347484Y-162421549D01*
X100336118Y-162449397D01*
X100321577Y-162473964D01*
X100304174Y-162486024D01*
X100278857Y-162490666D01*
X100271262Y-162491339D01*
X100236708Y-162496133D01*
X100226879Y-162501233D01*
X100222605Y-162503451D01*
X99739609Y-162503451D01*
X99741336Y-162501233D01*
X99738943Y-162498709D01*
X99721031Y-162494609D01*
X99691334Y-162492990D01*
X99667439Y-162492493D01*
X99647041Y-162487568D01*
X99633538Y-162472924D01*
X99619263Y-162443271D01*
X99605740Y-162416293D01*
X99592121Y-162401562D01*
X99581080Y-162407908D01*
X99571385Y-162435123D01*
X99567489Y-162448890D01*
X99553159Y-162476166D01*
X99529299Y-162489598D01*
X99490022Y-162493403D01*
X99439161Y-162493815D01*
X98928881Y-162493815D01*
X98916606Y-162492990D01*
X98909958Y-162492900D01*
X98878985Y-162487405D01*
X98859188Y-162469849D01*
X98844379Y-162435288D01*
X98840476Y-162424397D01*
X98828135Y-162405208D01*
X98815766Y-162407912D01*
X98803875Y-162432540D01*
X98799144Y-162446295D01*
X98783843Y-162475532D01*
X98762472Y-162489450D01*
X98728901Y-162492990D01*
X98720269Y-162493161D01*
X98695989Y-162496003D01*
X98686184Y-162501233D01*
X98191067Y-162501233D01*
X98188964Y-162499206D01*
X98170497Y-162494278D01*
X98140344Y-162490845D01*
X98119041Y-162489136D01*
X98096900Y-162483497D01*
X98084296Y-162469312D01*
X98073483Y-162440783D01*
X98068675Y-162427294D01*
X98058036Y-162403495D01*
X98050303Y-162394072D01*
X98047370Y-162396102D01*
X98037712Y-162412777D01*
X98026489Y-162440783D01*
X98019148Y-162460870D01*
X98007909Y-162479509D01*
X97990146Y-162487615D01*
X97958135Y-162490845D01*
X97925238Y-162494775D01*
X97908795Y-162502675D01*
X97422326Y-162502675D01*
X97419979Y-162499743D01*
X97402143Y-162494902D01*
X97372524Y-162492990D01*
X97349925Y-162492175D01*
X97326776Y-162486471D01*
X97316753Y-162473756D01*
X97308452Y-162450926D01*
X97296285Y-162421549D01*
X97281784Y-162388576D01*
X97259024Y-162440783D01*
X97246476Y-162468067D01*
X97233699Y-162485352D01*
X97216069Y-162491940D01*
X97186414Y-162492990D01*
X97171289Y-162493381D01*
X97146425Y-162496333D01*
X97136639Y-162501233D01*
X96521073Y-162501233D01*
X96521073Y-162361099D01*
X93080917Y-162361099D01*
X89640762Y-162361099D01*
X89640762Y-162164767D01*
X96735396Y-162164767D01*
X96782554Y-162205231D01*
X96807620Y-162227580D01*
X96821081Y-162244392D01*
X96823324Y-162259979D01*
X96817373Y-162280917D01*
X96808439Y-162312187D01*
X96808701Y-162333647D01*
X96821027Y-162336907D01*
X96845305Y-162321810D01*
X96853467Y-162315452D01*
X96883322Y-162298673D01*
X96909330Y-162299355D01*
X96938728Y-162317136D01*
X96964343Y-162334698D01*
X96980973Y-162338412D01*
X96984705Y-162324428D01*
X96976051Y-162292406D01*
X96959394Y-162245695D01*
X96998520Y-162211557D01*
X97010901Y-162200420D01*
X97030086Y-162181354D01*
X97037366Y-162171328D01*
X97521246Y-162171328D01*
X97523248Y-162175341D01*
X97537063Y-162191353D01*
X97559683Y-162213395D01*
X97598120Y-162248602D01*
X97582153Y-162293860D01*
X97574331Y-162323073D01*
X97577618Y-162338752D01*
X97593813Y-162336726D01*
X97623164Y-162317136D01*
X97624101Y-162316402D01*
X97646088Y-162301370D01*
X97660563Y-162295154D01*
X97664813Y-162296256D01*
X97684285Y-162306167D01*
X97711036Y-162323027D01*
X97715434Y-162325986D01*
X97738951Y-162339426D01*
X97750020Y-162338217D01*
X97750118Y-162320419D01*
X97740727Y-162284090D01*
X97736968Y-162270376D01*
X97735535Y-162250485D01*
X97744884Y-162233683D01*
X97768204Y-162211557D01*
X97780333Y-162200531D01*
X97799466Y-162181159D01*
X97807010Y-162170341D01*
X97804654Y-162168195D01*
X97786800Y-162164659D01*
X97769793Y-162163858D01*
X98285115Y-162163858D01*
X98292092Y-162170341D01*
X98328130Y-162203825D01*
X98371145Y-162243792D01*
X98358001Y-162292933D01*
X98354133Y-162308261D01*
X98348949Y-162333974D01*
X98348584Y-162345800D01*
X98352045Y-162345456D01*
X98369203Y-162336846D01*
X98394969Y-162320538D01*
X98437629Y-162291550D01*
X98480478Y-162316211D01*
X98493260Y-162323178D01*
X98516994Y-162333666D01*
X98528965Y-162335236D01*
X98529833Y-162333177D01*
X98528298Y-162315665D01*
X98520919Y-162288142D01*
X98514863Y-162268401D01*
X98513679Y-162249787D01*
X98523523Y-162233797D01*
X98547301Y-162212052D01*
X98560416Y-162200323D01*
X98579758Y-162181054D01*
X98585593Y-162172837D01*
X99059974Y-162172837D01*
X99061124Y-162175944D01*
X99074602Y-162190305D01*
X99098367Y-162208557D01*
X99117699Y-162222507D01*
X99132951Y-162240012D01*
X99134416Y-162261099D01*
X99124649Y-162294075D01*
X99123565Y-162297275D01*
X99117514Y-162321838D01*
X99118199Y-162335060D01*
X99121882Y-162335661D01*
X99140247Y-162329704D01*
X99167186Y-162316024D01*
X99210361Y-162291175D01*
X99244026Y-162315146D01*
X99273074Y-162333756D01*
X99288977Y-162336815D01*
X99293001Y-162322395D01*
X99287303Y-162289206D01*
X99281682Y-162261963D01*
X99282385Y-162242120D01*
X99293689Y-162225698D01*
X99318801Y-162204026D01*
X99359062Y-162170943D01*
X99829338Y-162170943D01*
X99831304Y-162174704D01*
X99845238Y-162190149D01*
X99868144Y-162211557D01*
X99881735Y-162223798D01*
X99897680Y-162242213D01*
X99901246Y-162259506D01*
X99895621Y-162284090D01*
X99893780Y-162290401D01*
X99885635Y-162324002D01*
X99887190Y-162339347D01*
X99899922Y-162338375D01*
X99925312Y-162323027D01*
X99937107Y-162315260D01*
X99961556Y-162300863D01*
X99975505Y-162295154D01*
X99978368Y-162295814D01*
X99995977Y-162305338D01*
X100020633Y-162322578D01*
X100036615Y-162333868D01*
X100057830Y-162343060D01*
X100065462Y-162335028D01*
X100059445Y-162309794D01*
X100049463Y-162268623D01*
X100056371Y-162234604D01*
X100082129Y-162207226D01*
X100086905Y-162203724D01*
X100106963Y-162186227D01*
X100113396Y-162176647D01*
X100603658Y-162176647D01*
X100615188Y-162187784D01*
X100632689Y-162202293D01*
X100658951Y-162222471D01*
X100663392Y-162225794D01*
X100673748Y-162237913D01*
X100674917Y-162255314D01*
X100668013Y-162285781D01*
X100662411Y-162308888D01*
X100660030Y-162332859D01*
X100667140Y-162339424D01*
X100684409Y-162330406D01*
X100700068Y-162320122D01*
X100727573Y-162304424D01*
X100729951Y-162303245D01*
X100747806Y-162298625D01*
X100767961Y-162304302D01*
X100797742Y-162322123D01*
X100843453Y-162352373D01*
X100835951Y-162322481D01*
X100827662Y-162288310D01*
X100822515Y-162257649D01*
X100824900Y-162238008D01*
X100835862Y-162223580D01*
X100856447Y-162208557D01*
X100866203Y-162201713D01*
X100887120Y-162184322D01*
X100895457Y-162172837D01*
X100891991Y-162169474D01*
X100872425Y-162165011D01*
X100841354Y-162163263D01*
X100815478Y-162162851D01*
X100794577Y-162158773D01*
X100783168Y-162146635D01*
X100774081Y-162122047D01*
X100772595Y-162117441D01*
X100760270Y-162085086D01*
X100749879Y-162073802D01*
X100739219Y-162083164D01*
X100726086Y-162112743D01*
X100715052Y-162139654D01*
X100702999Y-162155761D01*
X100683864Y-162162641D01*
X100650210Y-162165460D01*
X100621162Y-162167429D01*
X100604532Y-162170574D01*
X100604024Y-162174107D01*
X100603658Y-162176647D01*
X100113396Y-162176647D01*
X100115102Y-162174107D01*
X100112504Y-162170901D01*
X100094244Y-162164960D01*
X100064261Y-162161117D01*
X100042215Y-162159266D01*
X100020517Y-162153238D01*
X100007039Y-162138203D01*
X99993992Y-162108308D01*
X99974565Y-162058849D01*
X99961228Y-162091822D01*
X99957517Y-162100945D01*
X99943024Y-162132886D01*
X99929203Y-162150252D01*
X99910264Y-162158008D01*
X99880419Y-162161117D01*
X99864180Y-162162520D01*
X99839185Y-162166487D01*
X99834166Y-162168758D01*
X99829338Y-162170943D01*
X99359062Y-162170943D01*
X99361721Y-162168758D01*
X99302376Y-162163263D01*
X99268661Y-162159396D01*
X99248919Y-162152545D01*
X99237496Y-162138012D01*
X99227500Y-162110987D01*
X99222420Y-162097070D01*
X99211750Y-162075477D01*
X99203858Y-162069221D01*
X99201452Y-162071768D01*
X99191903Y-162090108D01*
X99181056Y-162118748D01*
X99173489Y-162140176D01*
X99163022Y-162156239D01*
X99145383Y-162162316D01*
X99113169Y-162163263D01*
X99094995Y-162163842D01*
X99069843Y-162167299D01*
X99064422Y-162170341D01*
X99059974Y-162172837D01*
X98585593Y-162172837D01*
X98587365Y-162170341D01*
X98585009Y-162168195D01*
X98567155Y-162164659D01*
X98537515Y-162163263D01*
X98513299Y-162162744D01*
X98493282Y-162157743D01*
X98480081Y-162142960D01*
X98466163Y-162113100D01*
X98452952Y-162086268D01*
X98438985Y-162071309D01*
X98427405Y-162077731D01*
X98417340Y-162105395D01*
X98413439Y-162119177D01*
X98399104Y-162146447D01*
X98375244Y-162159840D01*
X98335976Y-162163560D01*
X98285115Y-162163858D01*
X97769793Y-162163858D01*
X97757160Y-162163263D01*
X97730806Y-162162581D01*
X97711922Y-162157095D01*
X97698930Y-162141641D01*
X97684661Y-162111056D01*
X97662012Y-162058849D01*
X97642470Y-162108308D01*
X97633645Y-162129606D01*
X97621159Y-162149238D01*
X97603238Y-162157792D01*
X97572087Y-162161117D01*
X97556068Y-162162524D01*
X97531091Y-162166634D01*
X97522053Y-162170943D01*
X97521246Y-162171328D01*
X97037366Y-162171328D01*
X97037646Y-162170943D01*
X97035044Y-162168731D01*
X97016783Y-162164346D01*
X96986805Y-162161117D01*
X96966092Y-162159419D01*
X96943646Y-162153577D01*
X96929976Y-162138859D01*
X96917083Y-162109324D01*
X96914614Y-162103115D01*
X96902358Y-162078644D01*
X96891807Y-162073658D01*
X96880828Y-162088821D01*
X96867287Y-162124795D01*
X96861437Y-162139817D01*
X96850757Y-162152197D01*
X96831052Y-162158245D01*
X96795846Y-162161267D01*
X96735396Y-162164767D01*
X89640762Y-162164767D01*
X89640762Y-162124795D01*
X89640762Y-161888490D01*
X95378018Y-161888490D01*
X101115275Y-161888490D01*
X101115275Y-162172837D01*
X101115275Y-162501589D01*
G37*
%TD*%
M02*
