%TF.GenerationSoftware,KiCad,Pcbnew,8.0.2-1*%
%TF.CreationDate,2024-08-26T16:01:41-05:00*%
%TF.ProjectId,BeagleBonePC104,42656167-6c65-4426-9f6e-655043313034,rev?*%
%TF.SameCoordinates,Original*%
%TF.FileFunction,Plated,1,2,PTH,Drill*%
%TF.FilePolarity,Positive*%
%FSLAX46Y46*%
G04 Gerber Fmt 4.6, Leading zero omitted, Abs format (unit mm)*
G04 Created by KiCad (PCBNEW 8.0.2-1) date 2024-08-26 16:01:41*
%MOMM*%
%LPD*%
G01*
G04 APERTURE LIST*
%TA.AperFunction,ViaDrill*%
%ADD10C,0.300000*%
%TD*%
%TA.AperFunction,ComponentDrill*%
%ADD11C,0.762000*%
%TD*%
%TA.AperFunction,ComponentDrill*%
%ADD12C,0.800000*%
%TD*%
%TA.AperFunction,ComponentDrill*%
%ADD13C,1.000000*%
%TD*%
%TA.AperFunction,ComponentDrill*%
%ADD14C,3.200000*%
%TD*%
G04 APERTURE END LIST*
D10*
X88900000Y-87900000D03*
X88900000Y-117000000D03*
X93500000Y-98500000D03*
X94500000Y-99000000D03*
X95500000Y-98500000D03*
X96500000Y-98500000D03*
X99000000Y-98500000D03*
X99432000Y-96716000D03*
X99900000Y-152700000D03*
X101500000Y-97500000D03*
X101500000Y-99000000D03*
X102500000Y-100000000D03*
X103000000Y-98000000D03*
X105000000Y-91000000D03*
X106500000Y-99000000D03*
X107500000Y-99000000D03*
X109500000Y-91000000D03*
X110600000Y-145500000D03*
X111000000Y-77000000D03*
X111000000Y-90500000D03*
X111100000Y-123100000D03*
X111500000Y-99500000D03*
X111500000Y-100500000D03*
X111500000Y-101500000D03*
X111500000Y-102500000D03*
X111500000Y-104000000D03*
X113000000Y-98000000D03*
X113500000Y-90500000D03*
X113800000Y-147100000D03*
X115000000Y-90500000D03*
X115500000Y-88000000D03*
X118500000Y-76350000D03*
X120000000Y-101000000D03*
X122000000Y-77000000D03*
X122000000Y-96500000D03*
X123000000Y-97500000D03*
X124500000Y-97500000D03*
X125500000Y-77500000D03*
X126500000Y-89000000D03*
X127500000Y-98000000D03*
X128500000Y-97000000D03*
X130365000Y-96865000D03*
X132000000Y-97000000D03*
X134000000Y-99000000D03*
X134500000Y-98000000D03*
X135500000Y-77500000D03*
X137000000Y-99500000D03*
X138000000Y-102500000D03*
X138500000Y-78000000D03*
X139610000Y-154300000D03*
X140600000Y-148200000D03*
X143500000Y-94000000D03*
X144500000Y-89500000D03*
X144700000Y-150800000D03*
X148500000Y-94000000D03*
X151500000Y-97500000D03*
D11*
%TO.C,U3*%
X92290000Y-150480000D03*
%TO.C,U1*%
X93890000Y-92700000D03*
X93890000Y-95240000D03*
X93890000Y-140960000D03*
X93890000Y-143500000D03*
%TO.C,U3*%
X94830000Y-150480000D03*
%TO.C,U1*%
X96430000Y-92700000D03*
X96430000Y-95240000D03*
X96430000Y-140960000D03*
X96430000Y-143500000D03*
%TO.C,U3*%
X97370000Y-150480000D03*
%TO.C,U1*%
X98970000Y-92700000D03*
X98970000Y-95240000D03*
X98970000Y-140960000D03*
X98970000Y-143500000D03*
%TO.C,U3*%
X99910000Y-150480000D03*
%TO.C,U1*%
X101510000Y-92700000D03*
X101510000Y-95240000D03*
X101510000Y-140960000D03*
X101510000Y-143500000D03*
%TO.C,U3*%
X102450000Y-150480000D03*
%TO.C,U1*%
X104050000Y-92700000D03*
X104050000Y-95240000D03*
X104050000Y-140960000D03*
X104050000Y-143500000D03*
%TO.C,U3*%
X104990000Y-150480000D03*
%TO.C,U1*%
X106590000Y-92700000D03*
X106590000Y-95240000D03*
X106590000Y-140960000D03*
X106590000Y-143500000D03*
%TO.C,U3*%
X107530000Y-150480000D03*
%TO.C,U1*%
X109130000Y-92700000D03*
X109130000Y-95240000D03*
X109130000Y-140960000D03*
X109130000Y-143500000D03*
X111670000Y-92700000D03*
X111670000Y-95240000D03*
X111670000Y-140960000D03*
X111670000Y-143500000D03*
X114210000Y-92700000D03*
X114210000Y-95240000D03*
X114210000Y-140960000D03*
X114210000Y-143500000D03*
X116750000Y-92700000D03*
X116750000Y-95240000D03*
X116750000Y-140960000D03*
X116750000Y-143500000D03*
X119290000Y-92700000D03*
X119290000Y-95240000D03*
X119290000Y-140960000D03*
X119290000Y-143500000D03*
X121830000Y-92700000D03*
X121830000Y-95240000D03*
X121830000Y-140960000D03*
X121830000Y-143500000D03*
X124370000Y-92700000D03*
X124370000Y-95240000D03*
X124370000Y-140960000D03*
X124370000Y-143500000D03*
X126910000Y-92700000D03*
X126910000Y-95240000D03*
X126910000Y-140960000D03*
X126910000Y-143500000D03*
X129450000Y-92700000D03*
X129450000Y-95240000D03*
X129450000Y-140960000D03*
X129450000Y-143500000D03*
X131990000Y-92700000D03*
X131990000Y-95240000D03*
X131990000Y-140960000D03*
X131990000Y-143500000D03*
X134530000Y-92700000D03*
X134530000Y-95240000D03*
X134530000Y-140960000D03*
X134530000Y-143500000D03*
X137070000Y-92700000D03*
X137070000Y-95240000D03*
X137070000Y-140960000D03*
X137070000Y-143500000D03*
X139610000Y-92700000D03*
X139610000Y-95240000D03*
X139610000Y-140960000D03*
X139610000Y-143500000D03*
X142150000Y-92700000D03*
X142150000Y-95240000D03*
X142150000Y-140960000D03*
X142150000Y-143500000D03*
X144690000Y-92700000D03*
X144690000Y-95240000D03*
X144690000Y-140960000D03*
X144690000Y-143500000D03*
X147230000Y-92700000D03*
X147230000Y-95240000D03*
X147230000Y-140960000D03*
X147230000Y-143500000D03*
X149770000Y-92700000D03*
X149770000Y-95240000D03*
X149770000Y-140960000D03*
X149770000Y-143500000D03*
D12*
%TO.C,R1*%
X113010000Y-150000000D03*
X123170000Y-150000000D03*
%TO.C,R2*%
X126510000Y-150000000D03*
X136670000Y-150000000D03*
D13*
%TO.C,U2*%
X94000000Y-79202973D03*
X94000000Y-81742973D03*
%TO.C,U4*%
X94012500Y-84500000D03*
X94012500Y-87040000D03*
%TO.C,U2*%
X96540000Y-79202973D03*
X96540000Y-81742973D03*
%TO.C,U4*%
X96552500Y-84500000D03*
X96552500Y-87040000D03*
%TO.C,U2*%
X99080000Y-79202973D03*
X99080000Y-81742973D03*
%TO.C,U4*%
X99092500Y-84500000D03*
X99092500Y-87040000D03*
%TO.C,U2*%
X101620000Y-79202973D03*
X101620000Y-81742973D03*
%TO.C,U4*%
X101632500Y-84500000D03*
X101632500Y-87040000D03*
%TO.C,U2*%
X104160000Y-79202973D03*
X104160000Y-81742973D03*
%TO.C,U4*%
X104172500Y-84500000D03*
X104172500Y-87040000D03*
%TO.C,U2*%
X106700000Y-79202973D03*
X106700000Y-81742973D03*
%TO.C,U4*%
X106712500Y-84500000D03*
X106712500Y-87040000D03*
%TO.C,U2*%
X109240000Y-79202973D03*
X109240000Y-81742973D03*
%TO.C,U4*%
X109252500Y-84500000D03*
X109252500Y-87040000D03*
%TO.C,U2*%
X111780000Y-79202973D03*
X111780000Y-81742973D03*
%TO.C,U4*%
X111792500Y-84500000D03*
X111792500Y-87040000D03*
%TO.C,U2*%
X114320000Y-79202973D03*
X114320000Y-81742973D03*
%TO.C,U4*%
X114332500Y-84500000D03*
X114332500Y-87040000D03*
%TO.C,U2*%
X116860000Y-79202973D03*
X116860000Y-81742973D03*
%TO.C,U4*%
X116872500Y-84500000D03*
X116872500Y-87040000D03*
%TO.C,U2*%
X119400000Y-79202973D03*
X119400000Y-81742973D03*
%TO.C,U4*%
X119412500Y-84500000D03*
X119412500Y-87040000D03*
%TO.C,U2*%
X121940000Y-79202973D03*
X121940000Y-81742973D03*
%TO.C,U4*%
X121952500Y-84500000D03*
X121952500Y-87040000D03*
%TO.C,U2*%
X124480000Y-79202973D03*
X124480000Y-81742973D03*
%TO.C,U4*%
X124492500Y-84500000D03*
X124492500Y-87040000D03*
%TO.C,U2*%
X127020000Y-79202973D03*
X127020000Y-81742973D03*
%TO.C,U4*%
X127032500Y-84500000D03*
X127032500Y-87040000D03*
%TO.C,U2*%
X129560000Y-79202973D03*
X129560000Y-81742973D03*
%TO.C,U4*%
X129572500Y-84500000D03*
X129572500Y-87040000D03*
%TO.C,U2*%
X132100000Y-79202973D03*
X132100000Y-81742973D03*
%TO.C,U4*%
X132112500Y-84500000D03*
X132112500Y-87040000D03*
%TO.C,U2*%
X134640000Y-79202973D03*
X134640000Y-81742973D03*
%TO.C,U4*%
X134652500Y-84500000D03*
X134652500Y-87040000D03*
%TO.C,U2*%
X137180000Y-79202973D03*
X137180000Y-81742973D03*
%TO.C,U4*%
X137192500Y-84500000D03*
X137192500Y-87040000D03*
%TO.C,U2*%
X139720000Y-79202973D03*
X139720000Y-81742973D03*
%TO.C,U4*%
X139732500Y-84500000D03*
X139732500Y-87040000D03*
%TO.C,U2*%
X142260000Y-79202973D03*
X142260000Y-81742973D03*
%TO.C,U4*%
X142272500Y-84500000D03*
X142272500Y-87040000D03*
%TO.C,U2*%
X144800000Y-79202973D03*
X144800000Y-81742973D03*
%TO.C,U4*%
X144812500Y-84500000D03*
X144812500Y-87040000D03*
%TO.C,U2*%
X147340000Y-79202973D03*
X147340000Y-81742973D03*
%TO.C,U4*%
X147352500Y-84500000D03*
X147352500Y-87040000D03*
%TO.C,U2*%
X149880000Y-79202973D03*
X149880000Y-81742973D03*
%TO.C,U4*%
X149892500Y-84500000D03*
X149892500Y-87040000D03*
%TO.C,U2*%
X152420000Y-79202973D03*
X152420000Y-81742973D03*
%TO.C,U4*%
X152432500Y-84500000D03*
X152432500Y-87040000D03*
%TO.C,U2*%
X154960000Y-79202973D03*
X154960000Y-81742973D03*
%TO.C,U4*%
X154972500Y-84500000D03*
X154972500Y-87040000D03*
%TO.C,U2*%
X157500000Y-79202973D03*
X157500000Y-81742973D03*
%TO.C,U4*%
X157512500Y-84500000D03*
X157512500Y-87040000D03*
D14*
%TO.C,U2*%
X85110000Y-164932973D03*
X88920000Y-79202973D03*
X162580000Y-79202973D03*
X165120000Y-164932973D03*
M02*
