%TF.GenerationSoftware,KiCad,Pcbnew,8.0.2-1*%
%TF.CreationDate,2024-08-24T15:03:41-05:00*%
%TF.ProjectId,BeagleBonePC104,42656167-6c65-4426-9f6e-655043313034,rev?*%
%TF.SameCoordinates,Original*%
%TF.FileFunction,Legend,Top*%
%TF.FilePolarity,Positive*%
%FSLAX46Y46*%
G04 Gerber Fmt 4.6, Leading zero omitted, Abs format (unit mm)*
G04 Created by KiCad (PCBNEW 8.0.2-1) date 2024-08-24 15:03:41*
%MOMM*%
%LPD*%
G01*
G04 APERTURE LIST*
%ADD10C,0.100000*%
%ADD11C,0.600000*%
%ADD12C,0.300000*%
%ADD13C,0.508000*%
%ADD14C,0.150000*%
%ADD15C,0.120000*%
%ADD16C,0.000000*%
%ADD17C,0.050000*%
G04 APERTURE END LIST*
D10*
X145996219Y-157003781D02*
X145996219Y-165814091D01*
D11*
G36*
X127258472Y-156489064D02*
G01*
X127407938Y-156498441D01*
X127558376Y-156524086D01*
X127704850Y-156570809D01*
X127788148Y-156608952D01*
X127914303Y-156686249D01*
X128027250Y-156786964D01*
X128057338Y-156821082D01*
X128146055Y-156949870D01*
X128208967Y-157093244D01*
X128228390Y-157158254D01*
X128256687Y-157302113D01*
X128266120Y-157450083D01*
X128264725Y-157506269D01*
X128245971Y-157662065D01*
X128208967Y-157804724D01*
X128189461Y-157858255D01*
X128117333Y-157997862D01*
X128027250Y-158113935D01*
X127969498Y-158170110D01*
X127843267Y-158261225D01*
X127704850Y-158330090D01*
X127679699Y-158339939D01*
X127529605Y-158382750D01*
X127375875Y-158404990D01*
X127223447Y-158411423D01*
X126527355Y-158411423D01*
X126527355Y-159490000D01*
X125864236Y-159490000D01*
X125864236Y-157895582D01*
X126527355Y-157895582D01*
X127041730Y-157895582D01*
X127112313Y-157894008D01*
X127261549Y-157879462D01*
X127306484Y-157870616D01*
X127446929Y-157814982D01*
X127480649Y-157791966D01*
X127575890Y-157679427D01*
X127607201Y-157599158D01*
X127624250Y-157450083D01*
X127619527Y-157366993D01*
X127575890Y-157221472D01*
X127556621Y-157189916D01*
X127446929Y-157085917D01*
X127405393Y-157063752D01*
X127261549Y-157021437D01*
X127194745Y-157012550D01*
X127041730Y-157004584D01*
X126527355Y-157004584D01*
X126527355Y-157895582D01*
X125864236Y-157895582D01*
X125864236Y-156488743D01*
X127223447Y-156488743D01*
X127258472Y-156489064D01*
G37*
G36*
X131221214Y-158371123D02*
G01*
X131221214Y-156488743D01*
X130558827Y-156488743D01*
X130558827Y-158365994D01*
X130550355Y-158523714D01*
X130520570Y-158674435D01*
X130455043Y-158820240D01*
X130423273Y-158862784D01*
X130304608Y-158952892D01*
X130151651Y-159002351D01*
X129998373Y-159019662D01*
X129933810Y-159021053D01*
X129782919Y-159011621D01*
X129634060Y-158974114D01*
X129610677Y-158963900D01*
X129486577Y-158884149D01*
X129423098Y-158815889D01*
X129354502Y-158684962D01*
X129334438Y-158607062D01*
X129316177Y-158457253D01*
X129313189Y-158365994D01*
X129313189Y-156488743D01*
X128650802Y-156488743D01*
X128650802Y-158371123D01*
X128656046Y-158520874D01*
X128677348Y-158693896D01*
X128715036Y-158851175D01*
X128769111Y-158992712D01*
X128855630Y-159141776D01*
X128965745Y-159268172D01*
X128986392Y-159287034D01*
X129121950Y-159387884D01*
X129276930Y-159467869D01*
X129420918Y-159518584D01*
X129578394Y-159554809D01*
X129749358Y-159576544D01*
X129895841Y-159583499D01*
X129933810Y-159583789D01*
X130080653Y-159579118D01*
X130252680Y-159560141D01*
X130411898Y-159526567D01*
X130558308Y-159478396D01*
X130691909Y-159415628D01*
X130835324Y-159321037D01*
X130879030Y-159284836D01*
X130995319Y-159161625D01*
X131087548Y-159016210D01*
X131146027Y-158878069D01*
X131187798Y-158724507D01*
X131212860Y-158555525D01*
X131221214Y-158371123D01*
G37*
G36*
X131772959Y-156488743D02*
G01*
X131772959Y-159490000D01*
X133904466Y-159490000D01*
X133904466Y-158927264D01*
X132436078Y-158927264D01*
X132436078Y-156488743D01*
X131772959Y-156488743D01*
G37*
G36*
X134713398Y-158464180D02*
G01*
X134071528Y-158464180D01*
X134077749Y-158614888D01*
X134105055Y-158768475D01*
X134153827Y-158907465D01*
X134172645Y-158946315D01*
X134253930Y-159077455D01*
X134352704Y-159191799D01*
X134457676Y-159281172D01*
X134587502Y-159363622D01*
X134730142Y-159429621D01*
X134870935Y-159475345D01*
X135018912Y-159507803D01*
X135169751Y-159528239D01*
X135323452Y-159536654D01*
X135354536Y-159536894D01*
X135504104Y-159532452D01*
X135661201Y-159516835D01*
X135806475Y-159489974D01*
X135896755Y-159465819D01*
X136035859Y-159415430D01*
X136171683Y-159347274D01*
X136289497Y-159265785D01*
X136397174Y-159162916D01*
X136488941Y-159036360D01*
X136527634Y-158961702D01*
X136579820Y-158813388D01*
X136604377Y-158667895D01*
X136608234Y-158579218D01*
X136597716Y-158430168D01*
X136561847Y-158286874D01*
X136500523Y-158165226D01*
X136406357Y-158044418D01*
X136290071Y-157938390D01*
X136244801Y-157906573D01*
X136115371Y-157832041D01*
X135975452Y-157774596D01*
X135947313Y-157765889D01*
X135799786Y-157725008D01*
X135713573Y-157705073D01*
X135562999Y-157666710D01*
X135415681Y-157628843D01*
X135266668Y-157590014D01*
X135255617Y-157587103D01*
X135108023Y-157543827D01*
X134980844Y-157494780D01*
X134860345Y-157411143D01*
X134848220Y-157394396D01*
X134814515Y-157250781D01*
X134848816Y-157103884D01*
X134856280Y-157091779D01*
X134963991Y-156986999D01*
X135099875Y-156929855D01*
X135109804Y-156927648D01*
X135260286Y-156910861D01*
X135270272Y-156910795D01*
X135422672Y-156919946D01*
X135495952Y-156932044D01*
X135637735Y-156980404D01*
X135679135Y-157003852D01*
X135785394Y-157106104D01*
X135808095Y-157143070D01*
X135855888Y-157286796D01*
X135865248Y-157366552D01*
X136507118Y-157366552D01*
X136497386Y-157210647D01*
X136464202Y-157056672D01*
X136407467Y-156921053D01*
X136323386Y-156792391D01*
X136219522Y-156682275D01*
X136139288Y-156619169D01*
X136005989Y-156539416D01*
X135858882Y-156478210D01*
X135753140Y-156447711D01*
X135601692Y-156417674D01*
X135445569Y-156400106D01*
X135299581Y-156394954D01*
X135147803Y-156402682D01*
X134995819Y-156425866D01*
X134894382Y-156449909D01*
X134748581Y-156498921D01*
X134614526Y-156564627D01*
X134531682Y-156617704D01*
X134411339Y-156718819D01*
X134311070Y-156838799D01*
X134271563Y-156900537D01*
X134211285Y-157036584D01*
X134178827Y-157189736D01*
X134172645Y-157301339D01*
X134185463Y-157458119D01*
X134227938Y-157604779D01*
X134250314Y-157651584D01*
X134334442Y-157776444D01*
X134439822Y-157880375D01*
X134455478Y-157892651D01*
X134581562Y-157975437D01*
X134722137Y-158042446D01*
X134741975Y-158050188D01*
X134884067Y-158099756D01*
X135029525Y-158142031D01*
X135071703Y-158152770D01*
X135214977Y-158191619D01*
X135366306Y-158229819D01*
X135396301Y-158237034D01*
X135539334Y-158274965D01*
X135683531Y-158324961D01*
X135816754Y-158393170D01*
X135887962Y-158450258D01*
X135960162Y-158582595D01*
X135966364Y-158647362D01*
X135932979Y-158795052D01*
X135907013Y-158834207D01*
X135791926Y-158932960D01*
X135759735Y-158949979D01*
X135619738Y-158997377D01*
X135569958Y-159006399D01*
X135419566Y-159020352D01*
X135380181Y-159021053D01*
X135227530Y-159009946D01*
X135126657Y-158989546D01*
X134986008Y-158936996D01*
X134913433Y-158892826D01*
X134806134Y-158783449D01*
X134768353Y-158721367D01*
X134722468Y-158579797D01*
X134713398Y-158464180D01*
G37*
G36*
X136987055Y-156488743D02*
G01*
X136987055Y-159490000D01*
X139274633Y-159490000D01*
X139274633Y-158927264D01*
X137650174Y-158927264D01*
X137650174Y-158176950D01*
X139110502Y-158176950D01*
X139110502Y-157661109D01*
X137650174Y-157661109D01*
X137650174Y-157051479D01*
X139240928Y-157051479D01*
X139240928Y-156488743D01*
X136987055Y-156488743D01*
G37*
G36*
X139639532Y-158083161D02*
G01*
X139639532Y-158599002D01*
X140910084Y-158599002D01*
X140910084Y-158083161D01*
X139639532Y-158083161D01*
G37*
G36*
X144045429Y-159490000D02*
G01*
X143357397Y-159490000D01*
X143129518Y-158833475D01*
X142002582Y-158833475D01*
X141766643Y-159490000D01*
X141099128Y-159490000D01*
X141544489Y-158317634D01*
X142175506Y-158317634D01*
X142956594Y-158317634D01*
X142576308Y-157228799D01*
X142568248Y-157228799D01*
X142175506Y-158317634D01*
X141544489Y-158317634D01*
X142239253Y-156488743D01*
X142918493Y-156488743D01*
X144045429Y-159490000D01*
G37*
D12*
G36*
X114106667Y-164224656D02*
G01*
X114180338Y-164233837D01*
X114254558Y-164252220D01*
X114277233Y-164260858D01*
X114342832Y-164296071D01*
X114399724Y-164342773D01*
X114423046Y-164368203D01*
X114467284Y-164429935D01*
X114501081Y-164497896D01*
X114521856Y-164568875D01*
X114529770Y-164642966D01*
X114530024Y-164659829D01*
X114523574Y-164734750D01*
X114504223Y-164808892D01*
X114475436Y-164875617D01*
X114429508Y-164941093D01*
X114366783Y-164991936D01*
X114295185Y-165025460D01*
X114365389Y-165061782D01*
X114421909Y-165112409D01*
X114443928Y-165144528D01*
X114470719Y-165213892D01*
X114483599Y-165289089D01*
X114487849Y-165370288D01*
X114487892Y-165380101D01*
X114487892Y-165481217D01*
X114489435Y-165558855D01*
X114495952Y-165621168D01*
X114528664Y-165686892D01*
X114553838Y-165707264D01*
X114553838Y-165745000D01*
X114204326Y-165745000D01*
X114185493Y-165672671D01*
X114183810Y-165664766D01*
X114173328Y-165589208D01*
X114170621Y-165536172D01*
X114168423Y-165397320D01*
X114162448Y-165317128D01*
X114142527Y-165245549D01*
X114115300Y-165206444D01*
X114047996Y-165172258D01*
X113973776Y-165160491D01*
X113924424Y-165158817D01*
X113596528Y-165158817D01*
X113596528Y-165745000D01*
X113286217Y-165745000D01*
X113286217Y-164900896D01*
X113596528Y-164900896D01*
X113956298Y-164900896D01*
X114034390Y-164896664D01*
X114106266Y-164879834D01*
X114116765Y-164875251D01*
X114174588Y-164829415D01*
X114205723Y-164758953D01*
X114211653Y-164698297D01*
X114204408Y-164625373D01*
X114175876Y-164556474D01*
X114120062Y-164506688D01*
X114045719Y-164484174D01*
X113971841Y-164478872D01*
X113965457Y-164478845D01*
X113596528Y-164478845D01*
X113596528Y-164900896D01*
X113286217Y-164900896D01*
X113286217Y-164220924D01*
X114031402Y-164220924D01*
X114106667Y-164224656D01*
G37*
G36*
X115290357Y-164600138D02*
G01*
X115370342Y-164614163D01*
X115444817Y-164638206D01*
X115466085Y-164647372D01*
X115532553Y-164685225D01*
X115591364Y-164734670D01*
X115642519Y-164795707D01*
X115651831Y-164809305D01*
X115688504Y-164873254D01*
X115716088Y-164943286D01*
X115734585Y-165019399D01*
X115737194Y-165035352D01*
X115744607Y-165114082D01*
X115746890Y-165193749D01*
X115746720Y-165252606D01*
X114977721Y-165252606D01*
X114984934Y-165327970D01*
X115004168Y-165401220D01*
X115039820Y-165467204D01*
X115083967Y-165511259D01*
X115150920Y-165545881D01*
X115224835Y-165557376D01*
X115230146Y-165557421D01*
X115303126Y-165547533D01*
X115370560Y-165512019D01*
X115377791Y-165505764D01*
X115423204Y-165446248D01*
X115432379Y-165428461D01*
X115732065Y-165428461D01*
X115712110Y-165503731D01*
X115673722Y-165573182D01*
X115628018Y-165630327D01*
X115569843Y-165685235D01*
X115503580Y-165728782D01*
X115429228Y-165760969D01*
X115346787Y-165781796D01*
X115271908Y-165790474D01*
X115224284Y-165791894D01*
X115145678Y-165787025D01*
X115070600Y-165772420D01*
X114999052Y-165748076D01*
X114931033Y-165713996D01*
X114866542Y-165670178D01*
X114845830Y-165653408D01*
X114790176Y-165595221D01*
X114746036Y-165524797D01*
X114718049Y-165456764D01*
X114698058Y-165380234D01*
X114686063Y-165295206D01*
X114682225Y-165221066D01*
X114682065Y-165201681D01*
X114685670Y-165113435D01*
X114692089Y-165065027D01*
X114985048Y-165065027D01*
X115441538Y-165065027D01*
X115429877Y-164992475D01*
X115399017Y-164923588D01*
X115370830Y-164890272D01*
X115309551Y-164849449D01*
X115236632Y-164831487D01*
X115213660Y-164830554D01*
X115138405Y-164841015D01*
X115070205Y-164879080D01*
X115055390Y-164893935D01*
X115014338Y-164957698D01*
X114990533Y-165032353D01*
X114985048Y-165065027D01*
X114692089Y-165065027D01*
X114696484Y-165031880D01*
X114714507Y-164957015D01*
X114745651Y-164876008D01*
X114787176Y-164804636D01*
X114829710Y-164752519D01*
X114888305Y-164699354D01*
X114953083Y-164657190D01*
X115024043Y-164626024D01*
X115101186Y-164605858D01*
X115184511Y-164596692D01*
X115213660Y-164596081D01*
X115290357Y-164600138D01*
G37*
G36*
X115828419Y-164619528D02*
G01*
X116158147Y-164619528D01*
X116392254Y-165449710D01*
X116631123Y-164619528D01*
X116946563Y-164619528D01*
X116541364Y-165745000D01*
X116231420Y-165745000D01*
X115828419Y-164619528D01*
G37*
G36*
X117023866Y-165440184D02*
G01*
X117336008Y-165440184D01*
X117336008Y-165745000D01*
X117023866Y-165745000D01*
X117023866Y-165440184D01*
G37*
G36*
X118779483Y-165745000D02*
G01*
X118478332Y-165745000D01*
X118478332Y-164713318D01*
X118126988Y-164713318D01*
X118126988Y-164502292D01*
X118205843Y-164497791D01*
X118278932Y-164490784D01*
X118321894Y-164483607D01*
X118393161Y-164459044D01*
X118455511Y-164415917D01*
X118466242Y-164405205D01*
X118508038Y-164341117D01*
X118523761Y-164298227D01*
X118535118Y-164238510D01*
X118779483Y-164238510D01*
X118779483Y-165745000D01*
G37*
G36*
X119780390Y-165018133D02*
G01*
X120372069Y-165018133D01*
X120372069Y-165299501D01*
X119780390Y-165299501D01*
X119780390Y-165018133D01*
G37*
G36*
X121680762Y-164249300D02*
G01*
X121757498Y-164264085D01*
X121838625Y-164294838D01*
X121907799Y-164339785D01*
X121965021Y-164398926D01*
X121996528Y-164446238D01*
X122029458Y-164513357D01*
X122056806Y-164588777D01*
X122078573Y-164672497D01*
X122091969Y-164745449D01*
X122101792Y-164823714D01*
X122108043Y-164907290D01*
X122110722Y-164996180D01*
X122110834Y-165019232D01*
X122109036Y-165109352D01*
X122103644Y-165194148D01*
X122094656Y-165273620D01*
X122082074Y-165347769D01*
X122061291Y-165432968D01*
X122034890Y-165509849D01*
X122002873Y-165578412D01*
X121995795Y-165591127D01*
X121946791Y-165659356D01*
X121885783Y-165713469D01*
X121812770Y-165753466D01*
X121742757Y-165776013D01*
X121664407Y-165788757D01*
X121595725Y-165791894D01*
X121510592Y-165786993D01*
X121433795Y-165772288D01*
X121352643Y-165741702D01*
X121283494Y-165697000D01*
X121226350Y-165638181D01*
X121194923Y-165591127D01*
X121161887Y-165524227D01*
X121134451Y-165449010D01*
X121112614Y-165365474D01*
X121099176Y-165292657D01*
X121089322Y-165214515D01*
X121083050Y-165131050D01*
X121080363Y-165042261D01*
X121080251Y-165019232D01*
X121080280Y-165017766D01*
X121379937Y-165017766D01*
X121380965Y-165096621D01*
X121384915Y-165183312D01*
X121391828Y-165261347D01*
X121403636Y-165341449D01*
X121422069Y-165418569D01*
X121452958Y-165485690D01*
X121509681Y-165537895D01*
X121587271Y-165557285D01*
X121595359Y-165557421D01*
X121668532Y-165543790D01*
X121728691Y-165497307D01*
X121764898Y-165426424D01*
X121767550Y-165417836D01*
X121785181Y-165341037D01*
X121796477Y-165261140D01*
X121803088Y-165183225D01*
X121806866Y-165096603D01*
X121807850Y-165017766D01*
X121806857Y-164935388D01*
X121803879Y-164859986D01*
X121797684Y-164778714D01*
X121786842Y-164696593D01*
X121769686Y-164619485D01*
X121767184Y-164611102D01*
X121732930Y-164541357D01*
X121674838Y-164494473D01*
X121595359Y-164478845D01*
X121522236Y-164491760D01*
X121461719Y-164535803D01*
X121424811Y-164602965D01*
X121422069Y-164611102D01*
X121403636Y-164685978D01*
X121391828Y-164766145D01*
X121384915Y-164845743D01*
X121381418Y-164919750D01*
X121379978Y-165000733D01*
X121379937Y-165017766D01*
X121080280Y-165017766D01*
X121082043Y-164929015D01*
X121087418Y-164844110D01*
X121096377Y-164764517D01*
X121108919Y-164690237D01*
X121129636Y-164604857D01*
X121155952Y-164527777D01*
X121187868Y-164458998D01*
X121194923Y-164446238D01*
X121244064Y-164377635D01*
X121305210Y-164323226D01*
X121378360Y-164283010D01*
X121448488Y-164260339D01*
X121526952Y-164247526D01*
X121595725Y-164244371D01*
X121680762Y-164249300D01*
G37*
G36*
X122838575Y-164248429D02*
G01*
X122911815Y-164260600D01*
X122988243Y-164285056D01*
X123054959Y-164320557D01*
X123104413Y-164359776D01*
X123158109Y-164420501D01*
X123196462Y-164487271D01*
X123219475Y-164560086D01*
X123227145Y-164638946D01*
X123218994Y-164715241D01*
X123198487Y-164786357D01*
X123194539Y-164796849D01*
X123155767Y-164861685D01*
X123097653Y-164915094D01*
X123053855Y-164943394D01*
X123117447Y-164986063D01*
X123175083Y-165042172D01*
X123219818Y-165107892D01*
X123251523Y-165181188D01*
X123268925Y-165252629D01*
X123275451Y-165328649D01*
X123275506Y-165336503D01*
X123268826Y-165416671D01*
X123248788Y-165491438D01*
X123215391Y-165560806D01*
X123168636Y-165624775D01*
X123135921Y-165658904D01*
X123069540Y-165710723D01*
X123004187Y-165745010D01*
X122931029Y-165769946D01*
X122850065Y-165785530D01*
X122776633Y-165791375D01*
X122745743Y-165791894D01*
X122670516Y-165788638D01*
X122588085Y-165776136D01*
X122514205Y-165754257D01*
X122438821Y-165716881D01*
X122375078Y-165666742D01*
X122366922Y-165658538D01*
X122316673Y-165597815D01*
X122278766Y-165531692D01*
X122253200Y-165460171D01*
X122239977Y-165383249D01*
X122237962Y-165336870D01*
X122238949Y-165323314D01*
X122542777Y-165323314D01*
X122550814Y-165399839D01*
X122580507Y-165471406D01*
X122599930Y-165496238D01*
X122663171Y-165540154D01*
X122739626Y-165556883D01*
X122758199Y-165557421D01*
X122833101Y-165547323D01*
X122901493Y-165510578D01*
X122916469Y-165496238D01*
X122955538Y-165432846D01*
X122972226Y-165356902D01*
X122973621Y-165323314D01*
X122965430Y-165244592D01*
X122935166Y-165172544D01*
X122915369Y-165148192D01*
X122851823Y-165105329D01*
X122776389Y-165089000D01*
X122758199Y-165088475D01*
X122684540Y-165098330D01*
X122616227Y-165134196D01*
X122601029Y-165148192D01*
X122561208Y-165211104D01*
X122544199Y-165288610D01*
X122542777Y-165323314D01*
X122238949Y-165323314D01*
X122243543Y-165260234D01*
X122260287Y-165188320D01*
X122291599Y-165114670D01*
X122295115Y-165108258D01*
X122340685Y-165043751D01*
X122398809Y-164991278D01*
X122462543Y-164954019D01*
X122402365Y-164907537D01*
X122349609Y-164848735D01*
X122321859Y-164797215D01*
X122299820Y-164725267D01*
X122292415Y-164668621D01*
X122569888Y-164668621D01*
X122582436Y-164742902D01*
X122620080Y-164802344D01*
X122683694Y-164842651D01*
X122758199Y-164854002D01*
X122833332Y-164842651D01*
X122896685Y-164802344D01*
X122934991Y-164738694D01*
X122945778Y-164668621D01*
X122934991Y-164593429D01*
X122896685Y-164529036D01*
X122833332Y-164489873D01*
X122758199Y-164478845D01*
X122683613Y-164489873D01*
X122619713Y-164529036D01*
X122580836Y-164593429D01*
X122569888Y-164668621D01*
X122292415Y-164668621D01*
X122289745Y-164648194D01*
X122289619Y-164638946D01*
X122297267Y-164560246D01*
X122320211Y-164487546D01*
X122358450Y-164420845D01*
X122411985Y-164360143D01*
X122470501Y-164315033D01*
X122538660Y-164281002D01*
X122616460Y-164258051D01*
X122690821Y-164247198D01*
X122758199Y-164244371D01*
X122838575Y-164248429D01*
G37*
G36*
X123482135Y-165440184D02*
G01*
X123794277Y-165440184D01*
X123794277Y-165745000D01*
X123482135Y-165745000D01*
X123482135Y-165440184D01*
G37*
G36*
X124667323Y-164564574D02*
G01*
X124607963Y-164519870D01*
X124534693Y-164502839D01*
X124516748Y-164502292D01*
X124441314Y-164512059D01*
X124372895Y-164549566D01*
X124334298Y-164602309D01*
X124312133Y-164676864D01*
X124302963Y-164755140D01*
X124301326Y-164785491D01*
X124015928Y-164785491D01*
X124021728Y-164705597D01*
X124032718Y-164632610D01*
X124051631Y-164557654D01*
X124081010Y-164484113D01*
X124084804Y-164476646D01*
X124126009Y-164409731D01*
X124176123Y-164354158D01*
X124235146Y-164309926D01*
X124303077Y-164277035D01*
X124379917Y-164255486D01*
X124465666Y-164245279D01*
X124502459Y-164244371D01*
X124587811Y-164248995D01*
X124666362Y-164262867D01*
X124738112Y-164285987D01*
X124813225Y-164324648D01*
X124879082Y-164375896D01*
X124933756Y-164437363D01*
X124975002Y-164506999D01*
X125002819Y-164584804D01*
X125015974Y-164657997D01*
X125019399Y-164723576D01*
X125013217Y-164804222D01*
X124994670Y-164880197D01*
X124963758Y-164951500D01*
X124920481Y-165018133D01*
X124871795Y-165073610D01*
X124814028Y-165126782D01*
X124751586Y-165176624D01*
X124707257Y-165209009D01*
X124590021Y-165292173D01*
X124527860Y-165336953D01*
X124467270Y-165382543D01*
X124438712Y-165405746D01*
X124387068Y-165461834D01*
X124370568Y-165487079D01*
X125022697Y-165487079D01*
X125022697Y-165745000D01*
X123999441Y-165745000D01*
X124005257Y-165667033D01*
X124018675Y-165592500D01*
X124039696Y-165521403D01*
X124068318Y-165453740D01*
X124104056Y-165388144D01*
X124156134Y-165320864D01*
X124213776Y-165261857D01*
X124270981Y-165211739D01*
X124336522Y-165160763D01*
X124365073Y-165140132D01*
X124425108Y-165097027D01*
X124487894Y-165050590D01*
X124548381Y-165003707D01*
X124605955Y-164954969D01*
X124628122Y-164933503D01*
X124676422Y-164871035D01*
X124708891Y-164798188D01*
X124719713Y-164721011D01*
X124709686Y-164644726D01*
X124676686Y-164576532D01*
X124667323Y-164564574D01*
G37*
G36*
X126036060Y-165182264D02*
G01*
X126204954Y-165182264D01*
X126204954Y-165416737D01*
X126036060Y-165416737D01*
X126036060Y-165745000D01*
X125748464Y-165745000D01*
X125748464Y-165416737D01*
X125157152Y-165416737D01*
X125157152Y-165182264D01*
X125374406Y-165182264D01*
X125748464Y-165182264D01*
X125748464Y-164537463D01*
X125374406Y-165182264D01*
X125157152Y-165182264D01*
X125157152Y-165155519D01*
X125706332Y-164248768D01*
X126036060Y-164248768D01*
X126036060Y-165182264D01*
G37*
G36*
X126401326Y-165440184D02*
G01*
X126713468Y-165440184D01*
X126713468Y-165745000D01*
X126401326Y-165745000D01*
X126401326Y-165440184D01*
G37*
G36*
X127586514Y-164564574D02*
G01*
X127527153Y-164519870D01*
X127453883Y-164502839D01*
X127435938Y-164502292D01*
X127360504Y-164512059D01*
X127292086Y-164549566D01*
X127253489Y-164602309D01*
X127231324Y-164676864D01*
X127222153Y-164755140D01*
X127220516Y-164785491D01*
X126935118Y-164785491D01*
X126940919Y-164705597D01*
X126951908Y-164632610D01*
X126970822Y-164557654D01*
X127000201Y-164484113D01*
X127003995Y-164476646D01*
X127045200Y-164409731D01*
X127095314Y-164354158D01*
X127154336Y-164309926D01*
X127222268Y-164277035D01*
X127299108Y-164255486D01*
X127384856Y-164245279D01*
X127421650Y-164244371D01*
X127507001Y-164248995D01*
X127585552Y-164262867D01*
X127657302Y-164285987D01*
X127732416Y-164324648D01*
X127798272Y-164375896D01*
X127852947Y-164437363D01*
X127894193Y-164506999D01*
X127922009Y-164584804D01*
X127935164Y-164657997D01*
X127938590Y-164723576D01*
X127932408Y-164804222D01*
X127913860Y-164880197D01*
X127882948Y-164951500D01*
X127839672Y-165018133D01*
X127790985Y-165073610D01*
X127733218Y-165126782D01*
X127670776Y-165176624D01*
X127626448Y-165209009D01*
X127509211Y-165292173D01*
X127447051Y-165336953D01*
X127386461Y-165382543D01*
X127357903Y-165405746D01*
X127306258Y-165461834D01*
X127289759Y-165487079D01*
X127941887Y-165487079D01*
X127941887Y-165745000D01*
X126918632Y-165745000D01*
X126924448Y-165667033D01*
X126937866Y-165592500D01*
X126958886Y-165521403D01*
X126987508Y-165453740D01*
X127023247Y-165388144D01*
X127075324Y-165320864D01*
X127132966Y-165261857D01*
X127190171Y-165211739D01*
X127255713Y-165160763D01*
X127284263Y-165140132D01*
X127344298Y-165097027D01*
X127407084Y-165050590D01*
X127467571Y-165003707D01*
X127525145Y-164954969D01*
X127547313Y-164933503D01*
X127595613Y-164871035D01*
X127628081Y-164798188D01*
X127638904Y-164721011D01*
X127628876Y-164644726D01*
X127595877Y-164576532D01*
X127586514Y-164564574D01*
G37*
G36*
X128955251Y-165182264D02*
G01*
X129124145Y-165182264D01*
X129124145Y-165416737D01*
X128955251Y-165416737D01*
X128955251Y-165745000D01*
X128667655Y-165745000D01*
X128667655Y-165416737D01*
X128076343Y-165416737D01*
X128076343Y-165182264D01*
X128293597Y-165182264D01*
X128667655Y-165182264D01*
X128667655Y-164537463D01*
X128293597Y-165182264D01*
X128076343Y-165182264D01*
X128076343Y-165155519D01*
X128625523Y-164248768D01*
X128955251Y-164248768D01*
X128955251Y-165182264D01*
G37*
G36*
X129820237Y-165018133D02*
G01*
X130411915Y-165018133D01*
X130411915Y-165299501D01*
X129820237Y-165299501D01*
X129820237Y-165018133D01*
G37*
G36*
X131190073Y-164220924D02*
G01*
X131505513Y-164220924D01*
X131505513Y-165745000D01*
X131190073Y-165745000D01*
X131190073Y-164220924D01*
G37*
G36*
X132295285Y-164599587D02*
G01*
X132370018Y-164610106D01*
X132450618Y-164630714D01*
X132526089Y-164660481D01*
X132544155Y-164669354D01*
X132606826Y-164713936D01*
X132651592Y-164774775D01*
X132678451Y-164851872D01*
X132687264Y-164932668D01*
X132687404Y-164945226D01*
X132687404Y-165459968D01*
X132688262Y-165535702D01*
X132689602Y-165589661D01*
X132703426Y-165661989D01*
X132706821Y-165667697D01*
X132750418Y-165701769D01*
X132750418Y-165745000D01*
X132430949Y-165745000D01*
X132412264Y-165686015D01*
X132404204Y-165623367D01*
X132347413Y-165677923D01*
X132288274Y-165721802D01*
X132263887Y-165736939D01*
X132195750Y-165768227D01*
X132121813Y-165786527D01*
X132049563Y-165791894D01*
X131968007Y-165784939D01*
X131894797Y-165764073D01*
X131829934Y-165729297D01*
X131797505Y-165703967D01*
X131749511Y-165648476D01*
X131717224Y-165581336D01*
X131700644Y-165502546D01*
X131698220Y-165453740D01*
X131699929Y-165431025D01*
X131992777Y-165431025D01*
X132007759Y-165505665D01*
X132035275Y-165539469D01*
X132103912Y-165570508D01*
X132136025Y-165573175D01*
X132210643Y-165564045D01*
X132280303Y-165536654D01*
X132310781Y-165517854D01*
X132359863Y-165463157D01*
X132385845Y-165390298D01*
X132393580Y-165314521D01*
X132393580Y-165205345D01*
X132337526Y-165233921D01*
X132265956Y-165252876D01*
X132259857Y-165254071D01*
X132193911Y-165266161D01*
X132118525Y-165283227D01*
X132060921Y-165306461D01*
X132007750Y-165361688D01*
X131992777Y-165431025D01*
X131699929Y-165431025D01*
X131703836Y-165379100D01*
X131724583Y-165302342D01*
X131760617Y-165236698D01*
X131811938Y-165182168D01*
X131857955Y-165150024D01*
X131927894Y-165118225D01*
X131999606Y-165097359D01*
X132074299Y-165082704D01*
X132115509Y-165076751D01*
X132215526Y-165064295D01*
X132288915Y-165051844D01*
X132332030Y-165038283D01*
X132387276Y-164989604D01*
X132394679Y-164953653D01*
X132374009Y-164880586D01*
X132346685Y-164857299D01*
X132274241Y-164834968D01*
X132206367Y-164830554D01*
X132131629Y-164839080D01*
X132064365Y-164875956D01*
X132058723Y-164882212D01*
X132025083Y-164950799D01*
X132017690Y-164985160D01*
X131734124Y-164985160D01*
X131744495Y-164906489D01*
X131767780Y-164828866D01*
X131803443Y-164761546D01*
X131816556Y-164743360D01*
X131875520Y-164685973D01*
X131938787Y-164648003D01*
X132013800Y-164620388D01*
X132100560Y-164603129D01*
X132181832Y-164596656D01*
X132216626Y-164596081D01*
X132295285Y-164599587D01*
G37*
G36*
X133471057Y-164839347D02*
G01*
X133394395Y-164849374D01*
X133326618Y-164884036D01*
X133277159Y-164943455D01*
X133265893Y-164966109D01*
X133245118Y-165037094D01*
X133237402Y-165111767D01*
X133236950Y-165137201D01*
X133236950Y-165745000D01*
X132944591Y-165745000D01*
X132944591Y-164624658D01*
X133227791Y-164624658D01*
X133227791Y-164788422D01*
X133272902Y-164726153D01*
X133325601Y-164671428D01*
X133335136Y-164663859D01*
X133403107Y-164625270D01*
X133474891Y-164604090D01*
X133556193Y-164596147D01*
X133564846Y-164596081D01*
X133647896Y-164601783D01*
X133723024Y-164618887D01*
X133798072Y-164651760D01*
X133849511Y-164687306D01*
X133903172Y-164747919D01*
X133936128Y-164817757D01*
X133953581Y-164891188D01*
X133960411Y-164976118D01*
X133960519Y-164989190D01*
X133960519Y-165745000D01*
X133659734Y-165745000D01*
X133659734Y-165061730D01*
X133654502Y-164987708D01*
X133635921Y-164925809D01*
X133587856Y-164869828D01*
X133513913Y-164842387D01*
X133471057Y-164839347D01*
G37*
G36*
X135763032Y-165717522D02*
G01*
X135696605Y-165750060D01*
X135622989Y-165773301D01*
X135542183Y-165787246D01*
X135465579Y-165791821D01*
X135454187Y-165791894D01*
X135380336Y-165788631D01*
X135292836Y-165775376D01*
X135210685Y-165751923D01*
X135133882Y-165718274D01*
X135062429Y-165674429D01*
X134996324Y-165620386D01*
X134959229Y-165583066D01*
X134901390Y-165513813D01*
X134853355Y-165437029D01*
X134821985Y-165370179D01*
X134796889Y-165298509D01*
X134778067Y-165222019D01*
X134765519Y-165140709D01*
X134759245Y-165054579D01*
X134758461Y-165009706D01*
X134761632Y-164919941D01*
X134771146Y-164834745D01*
X134787003Y-164754116D01*
X134809202Y-164678055D01*
X134837744Y-164606563D01*
X134872629Y-164539638D01*
X134913857Y-164477282D01*
X134961427Y-164419494D01*
X135014212Y-164367458D01*
X135085941Y-164312171D01*
X135164056Y-164267724D01*
X135248558Y-164234118D01*
X135320757Y-164215039D01*
X135397044Y-164202897D01*
X135477418Y-164197694D01*
X135498150Y-164197477D01*
X135585920Y-164201019D01*
X135668109Y-164211645D01*
X135744716Y-164229355D01*
X135815742Y-164254149D01*
X135893606Y-164293252D01*
X135963433Y-164342557D01*
X136024098Y-164399452D01*
X136074201Y-164461603D01*
X136113742Y-164529008D01*
X136142722Y-164601668D01*
X136161141Y-164679584D01*
X136164933Y-164706723D01*
X135852791Y-164706723D01*
X135828313Y-164634755D01*
X135785175Y-164567860D01*
X135725518Y-164515860D01*
X135676570Y-164489469D01*
X135604672Y-164466178D01*
X135532008Y-164456229D01*
X135502547Y-164455397D01*
X135425382Y-164462094D01*
X135354494Y-164482185D01*
X135281164Y-164521546D01*
X135223725Y-164570338D01*
X135201029Y-164595348D01*
X135155062Y-164663309D01*
X135124648Y-164732277D01*
X135102529Y-164811137D01*
X135090433Y-164884410D01*
X135084096Y-164964552D01*
X135083060Y-165015935D01*
X135086181Y-165100286D01*
X135095546Y-165176570D01*
X135115025Y-165257460D01*
X135143494Y-165326733D01*
X135188071Y-165392868D01*
X135210921Y-165416371D01*
X135268525Y-165462195D01*
X135338438Y-165500783D01*
X135412701Y-165524671D01*
X135491315Y-165533859D01*
X135501448Y-165533974D01*
X135577697Y-165527906D01*
X135654829Y-165506573D01*
X135722803Y-165469881D01*
X135763032Y-165436887D01*
X135814297Y-165377494D01*
X135853102Y-165308538D01*
X135877133Y-165239215D01*
X135888695Y-165182264D01*
X135537351Y-165182264D01*
X135537351Y-164924344D01*
X136170062Y-164924344D01*
X136170062Y-165745000D01*
X135959769Y-165745000D01*
X135927896Y-165570610D01*
X135877825Y-165624297D01*
X135820562Y-165676770D01*
X135763032Y-165717522D01*
G37*
G36*
X137032506Y-164600428D02*
G01*
X137112165Y-164613469D01*
X137184633Y-164635204D01*
X137262102Y-164672762D01*
X137329215Y-164722840D01*
X137377233Y-164774134D01*
X137425541Y-164843046D01*
X137463855Y-164916518D01*
X137492174Y-164994550D01*
X137510498Y-165077140D01*
X137518827Y-165164291D01*
X137519382Y-165194354D01*
X137515912Y-165269775D01*
X137502585Y-165355676D01*
X137479264Y-165436554D01*
X137445947Y-165512409D01*
X137402636Y-165583240D01*
X137377233Y-165616772D01*
X137318749Y-165676286D01*
X137249910Y-165723487D01*
X137170715Y-165758375D01*
X137096809Y-165778042D01*
X137015711Y-165789158D01*
X136945656Y-165791894D01*
X136858700Y-165787619D01*
X136778953Y-165774792D01*
X136706415Y-165753415D01*
X136628886Y-165716475D01*
X136561738Y-165667222D01*
X136513712Y-165616772D01*
X136465404Y-165548452D01*
X136427090Y-165475109D01*
X136398771Y-165396743D01*
X136380447Y-165313354D01*
X136372812Y-165240025D01*
X136371563Y-165194354D01*
X136371597Y-165193621D01*
X136676378Y-165193621D01*
X136680728Y-165270489D01*
X136696023Y-165345853D01*
X136725934Y-165415792D01*
X136745987Y-165445314D01*
X136800813Y-165495791D01*
X136869579Y-165525315D01*
X136944190Y-165533974D01*
X137018923Y-165525315D01*
X137087575Y-165495791D01*
X137142027Y-165445314D01*
X137181449Y-165375572D01*
X137203088Y-165296918D01*
X137210661Y-165223536D01*
X137211270Y-165193621D01*
X137206942Y-165116639D01*
X137191728Y-165041310D01*
X137161975Y-164971615D01*
X137142027Y-164942295D01*
X137087575Y-164892027D01*
X137018923Y-164862624D01*
X136944190Y-164854002D01*
X136869579Y-164862624D01*
X136800813Y-164892027D01*
X136745987Y-164942295D01*
X136706356Y-165011663D01*
X136684603Y-165090203D01*
X136676990Y-165163647D01*
X136676378Y-165193621D01*
X136371597Y-165193621D01*
X136375033Y-165120146D01*
X136388360Y-165035275D01*
X136411681Y-164954964D01*
X136444997Y-164879212D01*
X136488308Y-164808020D01*
X136513712Y-164774134D01*
X136572209Y-164713624D01*
X136641087Y-164665633D01*
X136720346Y-164630162D01*
X136794325Y-164610165D01*
X136875514Y-164598863D01*
X136945656Y-164596081D01*
X137032506Y-164600428D01*
G37*
G36*
X137728942Y-164220924D02*
G01*
X138022767Y-164220924D01*
X138022767Y-165745000D01*
X137728942Y-165745000D01*
X137728942Y-164220924D01*
G37*
G36*
X139328122Y-165745000D02*
G01*
X139042725Y-165745000D01*
X139042725Y-165592958D01*
X138997367Y-165657989D01*
X138943246Y-165713528D01*
X138899476Y-165744633D01*
X138827756Y-165775233D01*
X138749961Y-165789633D01*
X138699441Y-165791894D01*
X138616349Y-165784216D01*
X138539217Y-165761180D01*
X138468046Y-165722787D01*
X138402835Y-165669036D01*
X138368248Y-165631427D01*
X138322554Y-165567920D01*
X138286314Y-165498024D01*
X138259528Y-165421740D01*
X138242196Y-165339068D01*
X138234974Y-165265294D01*
X138233792Y-165218900D01*
X138234764Y-165192522D01*
X138536776Y-165192522D01*
X138540645Y-165266253D01*
X138554250Y-165339785D01*
X138580854Y-165409795D01*
X138598691Y-165440184D01*
X138653268Y-165497337D01*
X138725774Y-165528112D01*
X138784071Y-165533974D01*
X138862861Y-165523064D01*
X138932619Y-165486279D01*
X138973848Y-165441650D01*
X139010768Y-165371475D01*
X139031032Y-165296485D01*
X139038441Y-165219878D01*
X139038695Y-165201681D01*
X139033716Y-165117229D01*
X139018779Y-165044032D01*
X138989516Y-164974159D01*
X138941049Y-164913124D01*
X138934647Y-164907491D01*
X138870113Y-164869098D01*
X138796724Y-164854211D01*
X138786270Y-164854002D01*
X138712360Y-164863518D01*
X138646514Y-164895971D01*
X138596859Y-164951454D01*
X138562652Y-165023743D01*
X138543875Y-165099076D01*
X138537010Y-165174708D01*
X138536776Y-165192522D01*
X138234764Y-165192522D01*
X138237021Y-165131248D01*
X138246708Y-165049643D01*
X138262853Y-164974084D01*
X138290751Y-164891394D01*
X138327948Y-164817412D01*
X138366050Y-164762411D01*
X138418901Y-164705885D01*
X138477986Y-164661054D01*
X138554797Y-164623532D01*
X138627389Y-164604040D01*
X138706214Y-164596244D01*
X138719958Y-164596081D01*
X138793374Y-164602418D01*
X138865582Y-164623585D01*
X138901308Y-164641144D01*
X138965121Y-164687236D01*
X139014079Y-164741965D01*
X139030268Y-164766074D01*
X139030268Y-164230450D01*
X139328122Y-164230450D01*
X139328122Y-165745000D01*
G37*
G36*
X139870708Y-164766441D02*
G01*
X139917828Y-164709144D01*
X139976856Y-164658209D01*
X139993440Y-164647372D01*
X140064932Y-164614163D01*
X140143698Y-164598536D01*
X140195307Y-164596081D01*
X140275025Y-164601671D01*
X140347943Y-164618441D01*
X140424419Y-164652136D01*
X140491638Y-164701047D01*
X140541887Y-164755083D01*
X140584469Y-164817955D01*
X140618240Y-164887318D01*
X140643201Y-164963172D01*
X140659353Y-165045519D01*
X140666083Y-165119099D01*
X140667184Y-165165411D01*
X140664161Y-165244639D01*
X140655091Y-165319520D01*
X140636226Y-165403640D01*
X140608654Y-165481499D01*
X140572376Y-165553099D01*
X140543353Y-165597355D01*
X140493602Y-165655499D01*
X140426833Y-165708130D01*
X140350668Y-165744387D01*
X140277905Y-165762432D01*
X140198238Y-165768447D01*
X140124422Y-165764187D01*
X140052466Y-165749461D01*
X139980098Y-165717905D01*
X139974755Y-165714591D01*
X139918762Y-165667180D01*
X139869235Y-165607795D01*
X139865579Y-165602850D01*
X139865579Y-165745000D01*
X139577983Y-165745000D01*
X139577983Y-165199849D01*
X139861182Y-165199849D01*
X139866225Y-165277133D01*
X139883656Y-165353826D01*
X139913537Y-165420859D01*
X139924930Y-165439085D01*
X139976887Y-165493109D01*
X140044602Y-165524707D01*
X140119836Y-165533974D01*
X140197854Y-165521094D01*
X140261550Y-165482454D01*
X140296057Y-165442383D01*
X140331933Y-165372365D01*
X140351625Y-165296917D01*
X140358825Y-165219408D01*
X140359071Y-165200949D01*
X140355435Y-165123686D01*
X140343173Y-165050459D01*
X140328297Y-165003112D01*
X140292645Y-164938197D01*
X140237812Y-164887337D01*
X140167387Y-164859951D01*
X140111776Y-164854734D01*
X140038136Y-164863825D01*
X139970182Y-164895783D01*
X139917992Y-164950752D01*
X139891957Y-165000181D01*
X139870920Y-165076446D01*
X139862264Y-165155547D01*
X139861182Y-165199849D01*
X139577983Y-165199849D01*
X139577983Y-164226420D01*
X139870708Y-164226420D01*
X139870708Y-164766441D01*
G37*
G36*
X141390148Y-164600138D02*
G01*
X141470132Y-164614163D01*
X141544607Y-164638206D01*
X141565875Y-164647372D01*
X141632343Y-164685225D01*
X141691155Y-164734670D01*
X141742310Y-164795707D01*
X141751622Y-164809305D01*
X141788294Y-164873254D01*
X141815879Y-164943286D01*
X141834376Y-165019399D01*
X141836985Y-165035352D01*
X141844398Y-165114082D01*
X141846681Y-165193749D01*
X141846510Y-165252606D01*
X141077512Y-165252606D01*
X141084725Y-165327970D01*
X141103959Y-165401220D01*
X141139611Y-165467204D01*
X141183757Y-165511259D01*
X141250711Y-165545881D01*
X141324626Y-165557376D01*
X141329937Y-165557421D01*
X141402916Y-165547533D01*
X141470350Y-165512019D01*
X141477582Y-165505764D01*
X141522995Y-165446248D01*
X141532170Y-165428461D01*
X141831856Y-165428461D01*
X141811900Y-165503731D01*
X141773513Y-165573182D01*
X141727808Y-165630327D01*
X141669634Y-165685235D01*
X141603370Y-165728782D01*
X141529019Y-165760969D01*
X141446578Y-165781796D01*
X141371699Y-165790474D01*
X141324075Y-165791894D01*
X141245468Y-165787025D01*
X141170391Y-165772420D01*
X141098843Y-165748076D01*
X141030823Y-165713996D01*
X140966333Y-165670178D01*
X140945621Y-165653408D01*
X140889966Y-165595221D01*
X140845826Y-165524797D01*
X140817839Y-165456764D01*
X140797849Y-165380234D01*
X140785854Y-165295206D01*
X140782016Y-165221066D01*
X140781856Y-165201681D01*
X140785460Y-165113435D01*
X140791879Y-165065027D01*
X141084839Y-165065027D01*
X141541329Y-165065027D01*
X141529668Y-164992475D01*
X141498808Y-164923588D01*
X141470621Y-164890272D01*
X141409342Y-164849449D01*
X141336423Y-164831487D01*
X141313450Y-164830554D01*
X141238195Y-164841015D01*
X141169996Y-164879080D01*
X141155181Y-164893935D01*
X141114128Y-164957698D01*
X141090324Y-165032353D01*
X141084839Y-165065027D01*
X140791879Y-165065027D01*
X140796274Y-165031880D01*
X140814297Y-164957015D01*
X140845441Y-164876008D01*
X140886966Y-164804636D01*
X140929501Y-164752519D01*
X140988096Y-164699354D01*
X141052874Y-164657190D01*
X141123834Y-164626024D01*
X141200977Y-164605858D01*
X141284302Y-164596692D01*
X141313450Y-164596081D01*
X141390148Y-164600138D01*
G37*
G36*
X142603053Y-164892103D02*
G01*
X142521834Y-164899316D01*
X142447816Y-164924674D01*
X142387123Y-164974262D01*
X142365282Y-165007508D01*
X142341991Y-165077893D01*
X142332841Y-165151889D01*
X142331210Y-165207543D01*
X142331210Y-165745000D01*
X142035554Y-165745000D01*
X142035554Y-164619528D01*
X142315823Y-164619528D01*
X142315823Y-164818464D01*
X142356502Y-164755302D01*
X142404358Y-164693838D01*
X142434159Y-164664958D01*
X142496675Y-164625744D01*
X142570880Y-164602807D01*
X142648482Y-164596081D01*
X142662404Y-164596081D01*
X142687683Y-164596081D01*
X142687683Y-164897233D01*
X142638224Y-164893203D01*
X142603053Y-164892103D01*
G37*
G36*
X143338302Y-164601233D02*
G01*
X143411252Y-164619528D01*
X143479951Y-164659470D01*
X143533990Y-164711334D01*
X143580014Y-164778009D01*
X143584176Y-164785491D01*
X143584176Y-164619528D01*
X143869574Y-164619528D01*
X143869574Y-165692976D01*
X143866998Y-165771333D01*
X143857481Y-165853146D01*
X143840952Y-165924615D01*
X143813474Y-165993629D01*
X143796301Y-166023070D01*
X143741063Y-166087938D01*
X143669596Y-166139385D01*
X143597644Y-166172005D01*
X143514421Y-166195306D01*
X143439728Y-166207235D01*
X143357823Y-166213200D01*
X143314166Y-166213946D01*
X143236289Y-166210816D01*
X143152433Y-166199253D01*
X143076115Y-166179170D01*
X143007335Y-166150567D01*
X142962822Y-166124919D01*
X142902464Y-166075300D01*
X142857309Y-166015468D01*
X142827359Y-165945424D01*
X142812613Y-165865167D01*
X143132083Y-165865167D01*
X143163700Y-165931377D01*
X143172016Y-165939173D01*
X143240818Y-165970618D01*
X143317990Y-165979315D01*
X143331751Y-165979473D01*
X143412696Y-165970837D01*
X143483192Y-165940984D01*
X143537101Y-165883517D01*
X143544242Y-165870296D01*
X143566777Y-165797957D01*
X143576294Y-165720835D01*
X143579013Y-165645690D01*
X143579047Y-165635457D01*
X143579047Y-165561451D01*
X143538180Y-165623914D01*
X143488555Y-165674658D01*
X143422123Y-165714706D01*
X143350911Y-165736688D01*
X143278010Y-165744725D01*
X143260677Y-165745000D01*
X143182671Y-165739693D01*
X143110771Y-165723773D01*
X143034603Y-165691787D01*
X142966745Y-165645354D01*
X142915195Y-165594057D01*
X142871244Y-165533556D01*
X142836387Y-165465532D01*
X142810622Y-165389987D01*
X142793951Y-165306919D01*
X142787005Y-165231951D01*
X142785868Y-165184462D01*
X142786044Y-165180066D01*
X143089584Y-165180066D01*
X143095026Y-165253716D01*
X143113058Y-165325323D01*
X143122557Y-165348960D01*
X143163654Y-165415726D01*
X143226923Y-165464284D01*
X143299711Y-165484921D01*
X143336880Y-165487079D01*
X143409833Y-165476466D01*
X143478632Y-165441015D01*
X143511270Y-165411608D01*
X143551735Y-165349115D01*
X143573946Y-165273896D01*
X143582067Y-165191210D01*
X143582344Y-165170907D01*
X143576983Y-165089589D01*
X143558450Y-165012967D01*
X143522774Y-164945378D01*
X143514567Y-164934968D01*
X143457569Y-164885629D01*
X143387690Y-164859062D01*
X143333949Y-164854002D01*
X143254547Y-164865159D01*
X143184065Y-164903727D01*
X143136599Y-164961993D01*
X143120359Y-164995052D01*
X143099322Y-165067430D01*
X143090336Y-165146569D01*
X143089584Y-165180066D01*
X142786044Y-165180066D01*
X142788910Y-165108551D01*
X142800587Y-165022581D01*
X142821024Y-164942201D01*
X142850218Y-164867411D01*
X142888171Y-164798212D01*
X142910432Y-164765708D01*
X142960815Y-164708061D01*
X143018538Y-164662342D01*
X143083604Y-164628549D01*
X143156011Y-164606683D01*
X143235759Y-164596744D01*
X143263974Y-164596081D01*
X143338302Y-164601233D01*
G37*
D13*
G36*
X119595632Y-160924177D02*
G01*
X118305869Y-160924177D01*
X118305869Y-161559443D01*
X119434955Y-161559443D01*
X119434955Y-161996188D01*
X118305869Y-161996188D01*
X118305869Y-163068200D01*
X117772345Y-163068200D01*
X117772345Y-160487432D01*
X119595632Y-160487432D01*
X119595632Y-160924177D01*
G37*
G36*
X119913886Y-160487432D02*
G01*
X120411428Y-160487432D01*
X120411428Y-163068200D01*
X119913886Y-163068200D01*
X119913886Y-160487432D01*
G37*
G36*
X121402170Y-161162402D02*
G01*
X121402170Y-163068200D01*
X120897803Y-163068200D01*
X120897803Y-161162402D01*
X121402170Y-161162402D01*
G37*
G36*
X121402170Y-160487432D02*
G01*
X121402170Y-160963881D01*
X120897803Y-160963881D01*
X120897803Y-160487432D01*
X121402170Y-160487432D01*
G37*
G36*
X122697443Y-161131422D02*
G01*
X122820972Y-161162402D01*
X122937302Y-161230037D01*
X123028808Y-161317859D01*
X123106742Y-161430763D01*
X123113789Y-161443433D01*
X123113789Y-161162402D01*
X123597063Y-161162402D01*
X123597063Y-162980106D01*
X123592701Y-163112792D01*
X123576586Y-163251328D01*
X123548596Y-163372349D01*
X123502068Y-163489212D01*
X123472988Y-163539066D01*
X123379451Y-163648909D01*
X123258434Y-163736025D01*
X123136594Y-163791263D01*
X122995671Y-163830718D01*
X122869191Y-163850919D01*
X122730498Y-163861019D01*
X122656572Y-163862282D01*
X122524700Y-163856982D01*
X122382704Y-163837402D01*
X122253472Y-163803395D01*
X122137006Y-163754960D01*
X122061630Y-163711530D01*
X121959423Y-163627508D01*
X121882962Y-163526193D01*
X121832246Y-163407584D01*
X121807276Y-163271683D01*
X122348244Y-163271683D01*
X122401783Y-163383798D01*
X122415866Y-163396999D01*
X122532370Y-163450246D01*
X122663047Y-163464974D01*
X122686350Y-163465241D01*
X122823416Y-163450617D01*
X122942790Y-163400066D01*
X123034076Y-163302755D01*
X123046168Y-163280368D01*
X123084327Y-163157875D01*
X123100442Y-163027281D01*
X123105047Y-162900036D01*
X123105104Y-162882707D01*
X123105104Y-162757391D01*
X123035902Y-162863161D01*
X122951871Y-162949087D01*
X122839379Y-163016902D01*
X122718794Y-163054125D01*
X122595348Y-163067734D01*
X122565997Y-163068200D01*
X122433907Y-163059214D01*
X122312156Y-163032256D01*
X122183179Y-162978092D01*
X122068273Y-162899467D01*
X121980981Y-162812604D01*
X121906558Y-162710155D01*
X121847532Y-162594968D01*
X121803905Y-162467045D01*
X121775675Y-162326384D01*
X121763913Y-162199437D01*
X121761988Y-162119023D01*
X121762286Y-162111578D01*
X122276281Y-162111578D01*
X122285496Y-162236293D01*
X122316030Y-162357548D01*
X122332115Y-162397572D01*
X122401705Y-162510630D01*
X122508841Y-162592855D01*
X122632096Y-162627800D01*
X122695035Y-162631454D01*
X122818568Y-162613483D01*
X122935068Y-162553453D01*
X122990334Y-162503657D01*
X123058856Y-162397836D01*
X123096466Y-162270465D01*
X123110217Y-162130449D01*
X123110688Y-162096069D01*
X123101609Y-161958371D01*
X123070227Y-161828625D01*
X123009816Y-161714174D01*
X122995918Y-161696546D01*
X122899401Y-161612999D01*
X122781074Y-161568012D01*
X122690072Y-161559443D01*
X122555618Y-161578336D01*
X122436268Y-161643645D01*
X122355893Y-161742309D01*
X122328392Y-161798288D01*
X122292769Y-161920849D01*
X122277553Y-162054857D01*
X122276281Y-162111578D01*
X121762286Y-162111578D01*
X121767138Y-161990480D01*
X121786912Y-161844904D01*
X121821518Y-161708795D01*
X121870954Y-161582150D01*
X121935221Y-161464972D01*
X121972916Y-161409932D01*
X122058230Y-161312317D01*
X122155976Y-161234899D01*
X122266154Y-161177676D01*
X122388763Y-161140650D01*
X122523804Y-161123820D01*
X122571580Y-161122698D01*
X122697443Y-161131422D01*
G37*
G36*
X125768382Y-161954623D02*
G01*
X125768382Y-163068200D01*
X125260914Y-163068200D01*
X125260914Y-161903132D01*
X125250939Y-161778943D01*
X125212008Y-161659111D01*
X125208802Y-161653120D01*
X125117972Y-161557383D01*
X124995809Y-161521823D01*
X124950105Y-161519739D01*
X124825691Y-161535426D01*
X124707576Y-161594417D01*
X124650463Y-161652500D01*
X124588464Y-161767948D01*
X124558657Y-161888412D01*
X124548820Y-162015685D01*
X124548721Y-162030929D01*
X124548721Y-163068200D01*
X124053660Y-163068200D01*
X124053660Y-160497978D01*
X124548721Y-160497978D01*
X124548721Y-161407451D01*
X124626965Y-161309627D01*
X124721520Y-161228828D01*
X124798733Y-161185976D01*
X124917021Y-161145006D01*
X125040018Y-161124922D01*
X125098375Y-161122698D01*
X125225979Y-161131247D01*
X125353977Y-161159805D01*
X125418489Y-161183495D01*
X125534570Y-161249041D01*
X125630939Y-161339287D01*
X125654853Y-161369608D01*
X125718286Y-161477243D01*
X125751011Y-161587980D01*
X125762886Y-161713425D01*
X125767551Y-161850141D01*
X125768382Y-161954623D01*
G37*
G36*
X127092266Y-162710862D02*
G01*
X127092266Y-163068200D01*
X126856523Y-163076885D01*
X126732234Y-163076369D01*
X126607078Y-163062700D01*
X126477570Y-163024451D01*
X126375110Y-162954671D01*
X126312297Y-162845950D01*
X126291687Y-162712905D01*
X126291360Y-162691010D01*
X126291360Y-161519739D01*
X126025838Y-161519739D01*
X126025838Y-161162402D01*
X126291360Y-161162402D01*
X126291360Y-160631980D01*
X126783318Y-160631980D01*
X126783318Y-161162402D01*
X127092266Y-161162402D01*
X127092266Y-161519739D01*
X126783318Y-161519739D01*
X126783318Y-162537777D01*
X126798381Y-162661959D01*
X126812476Y-162685427D01*
X126933598Y-162713189D01*
X126994247Y-162714585D01*
X127042016Y-162713964D01*
X127092266Y-162710862D01*
G37*
G36*
X130247503Y-162877123D02*
G01*
X130133908Y-162969046D01*
X130009016Y-163041950D01*
X129872827Y-163095835D01*
X129750705Y-163126212D01*
X129620738Y-163143381D01*
X129511115Y-163147608D01*
X129376164Y-163142034D01*
X129248618Y-163125313D01*
X129099601Y-163088736D01*
X128962155Y-163034740D01*
X128836280Y-162963327D01*
X128721977Y-162874497D01*
X128638866Y-162790891D01*
X128547360Y-162672174D01*
X128471364Y-162540523D01*
X128421734Y-162425889D01*
X128382030Y-162302977D01*
X128352251Y-162171786D01*
X128332399Y-162032318D01*
X128322473Y-161884571D01*
X128321233Y-161807594D01*
X128326874Y-161643533D01*
X128343799Y-161489147D01*
X128372007Y-161344434D01*
X128411497Y-161209395D01*
X128462271Y-161084031D01*
X128524328Y-160968340D01*
X128597669Y-160862324D01*
X128682292Y-160765981D01*
X128784569Y-160674297D01*
X128895207Y-160598152D01*
X129014206Y-160537547D01*
X129141565Y-160492482D01*
X129277284Y-160462957D01*
X129421364Y-160448971D01*
X129481337Y-160447728D01*
X129638118Y-160454639D01*
X129784004Y-160475373D01*
X129918994Y-160509930D01*
X130043088Y-160558310D01*
X130156288Y-160620512D01*
X130258592Y-160696538D01*
X130350001Y-160786386D01*
X130430514Y-160890056D01*
X130503757Y-161010138D01*
X130557846Y-161130297D01*
X130592781Y-161250534D01*
X130608562Y-161370848D01*
X130071316Y-161370848D01*
X130027666Y-161244931D01*
X129966377Y-161130225D01*
X129936694Y-161091679D01*
X129831375Y-161003348D01*
X129712968Y-160951822D01*
X129588931Y-160928267D01*
X129502430Y-160924177D01*
X129363466Y-160938795D01*
X129240011Y-160982648D01*
X129132065Y-161055736D01*
X129039629Y-161158059D01*
X128973879Y-161269373D01*
X128924278Y-161399211D01*
X128894616Y-161525245D01*
X128876819Y-161664888D01*
X128871051Y-161791653D01*
X128870886Y-161818140D01*
X128875248Y-161946475D01*
X128891999Y-162086641D01*
X128921311Y-162211715D01*
X128971387Y-162338559D01*
X129038563Y-162444860D01*
X129049555Y-162458369D01*
X129144977Y-162551464D01*
X129252573Y-162617961D01*
X129372345Y-162657859D01*
X129504291Y-162671158D01*
X129637052Y-162659604D01*
X129766386Y-162618982D01*
X129874520Y-162549114D01*
X129934833Y-162486286D01*
X130001567Y-162380315D01*
X130050073Y-162259051D01*
X130071316Y-162187885D01*
X130603599Y-162187885D01*
X130576421Y-162315616D01*
X130538702Y-162435926D01*
X130479524Y-162570502D01*
X130405166Y-162694391D01*
X130315628Y-162807593D01*
X130247503Y-162877123D01*
G37*
G36*
X131961021Y-161130059D02*
G01*
X132095911Y-161152141D01*
X132218623Y-161188946D01*
X132349803Y-161252544D01*
X132463449Y-161337342D01*
X132544758Y-161424201D01*
X132626561Y-161540892D01*
X132691438Y-161665305D01*
X132739392Y-161797438D01*
X132770420Y-161937291D01*
X132784524Y-162084866D01*
X132785464Y-162135773D01*
X132779588Y-162263487D01*
X132757021Y-162408946D01*
X132717531Y-162545899D01*
X132661115Y-162674346D01*
X132587775Y-162794287D01*
X132544758Y-162851068D01*
X132445726Y-162951845D01*
X132329158Y-163031772D01*
X132195055Y-163090848D01*
X132069907Y-163124151D01*
X131932582Y-163142974D01*
X131813954Y-163147608D01*
X131666709Y-163140368D01*
X131531671Y-163118649D01*
X131408840Y-163082450D01*
X131277558Y-163019899D01*
X131163854Y-162936497D01*
X131082530Y-162851068D01*
X131000727Y-162735379D01*
X130935850Y-162611185D01*
X130887896Y-162478485D01*
X130856868Y-162337279D01*
X130843939Y-162213110D01*
X130841824Y-162135773D01*
X130841882Y-162134532D01*
X131357977Y-162134532D01*
X131365344Y-162264695D01*
X131391244Y-162392312D01*
X131441892Y-162510741D01*
X131475849Y-162560731D01*
X131568688Y-162646206D01*
X131685131Y-162696201D01*
X131811473Y-162710862D01*
X131938020Y-162696201D01*
X132054270Y-162646206D01*
X132146476Y-162560731D01*
X132213231Y-162442635D01*
X132249872Y-162309448D01*
X132262697Y-162185188D01*
X132263727Y-162134532D01*
X132256399Y-162004176D01*
X132230636Y-161876619D01*
X132180255Y-161758602D01*
X132146476Y-161708954D01*
X132054270Y-161623832D01*
X131938020Y-161574044D01*
X131811473Y-161559443D01*
X131685131Y-161574044D01*
X131568688Y-161623832D01*
X131475849Y-161708954D01*
X131408740Y-161826417D01*
X131371905Y-161959410D01*
X131359013Y-162083777D01*
X131357977Y-162134532D01*
X130841882Y-162134532D01*
X130847700Y-162010113D01*
X130870266Y-161866399D01*
X130909757Y-161730406D01*
X130966173Y-161602133D01*
X131039513Y-161481582D01*
X131082530Y-161424201D01*
X131181584Y-161321737D01*
X131298217Y-161240472D01*
X131432430Y-161180407D01*
X131557702Y-161146547D01*
X131695181Y-161127409D01*
X131813954Y-161122698D01*
X131961021Y-161130059D01*
G37*
G36*
X134198062Y-161689722D02*
G01*
X134112430Y-161590868D01*
X133985035Y-161553209D01*
X133951773Y-161551999D01*
X133821974Y-161568273D01*
X133711105Y-161629468D01*
X133665779Y-161689722D01*
X133632110Y-161810184D01*
X133625454Y-161923604D01*
X133625454Y-163068200D01*
X133121088Y-163068200D01*
X133121088Y-161168606D01*
X133604362Y-161168606D01*
X133604362Y-161445914D01*
X133677725Y-161339472D01*
X133763241Y-161246977D01*
X133778688Y-161234366D01*
X133888534Y-161170789D01*
X134018466Y-161133603D01*
X134154016Y-161122698D01*
X134282320Y-161132088D01*
X134404561Y-161164110D01*
X134507010Y-161218856D01*
X134596759Y-161313648D01*
X134659863Y-161422045D01*
X134670789Y-161447775D01*
X134743396Y-161343101D01*
X134835478Y-161252821D01*
X134913357Y-161201486D01*
X135033254Y-161153474D01*
X135163097Y-161127622D01*
X135255184Y-161122698D01*
X135380035Y-161134950D01*
X135502715Y-161171708D01*
X135612383Y-161233739D01*
X135705886Y-161320660D01*
X135724810Y-161342932D01*
X135791810Y-161453669D01*
X135830960Y-161578332D01*
X135832755Y-161587360D01*
X135846309Y-161714566D01*
X135850058Y-161845628D01*
X135850126Y-161868391D01*
X135846404Y-163068200D01*
X135337074Y-163068200D01*
X135337074Y-161857224D01*
X135322112Y-161731843D01*
X135302333Y-161679176D01*
X135215565Y-161583884D01*
X135090307Y-161547582D01*
X135057905Y-161546415D01*
X134931405Y-161566648D01*
X134820843Y-161642729D01*
X134773772Y-161717639D01*
X134740103Y-161838319D01*
X134733448Y-161936012D01*
X134733448Y-163068200D01*
X134232803Y-163068200D01*
X134232803Y-161936012D01*
X134226154Y-161805512D01*
X134198062Y-161689722D01*
G37*
G36*
X137459710Y-161134394D02*
G01*
X137591126Y-161169483D01*
X137712805Y-161227964D01*
X137824746Y-161309838D01*
X137884341Y-161367126D01*
X137962560Y-161466835D01*
X138024595Y-161582639D01*
X138070447Y-161714540D01*
X138096295Y-161836752D01*
X138110905Y-161970142D01*
X138114501Y-162084902D01*
X138108988Y-162235165D01*
X138092449Y-162373826D01*
X138064883Y-162500885D01*
X138017250Y-162638041D01*
X137953739Y-162758492D01*
X137888684Y-162846105D01*
X137799423Y-162935075D01*
X137683706Y-163015609D01*
X137555522Y-163071088D01*
X137414870Y-163101512D01*
X137306771Y-163107904D01*
X137172699Y-163096272D01*
X137053531Y-163061375D01*
X136939660Y-162996119D01*
X136930202Y-162988791D01*
X136839057Y-162895771D01*
X136769524Y-162797095D01*
X136769524Y-163788457D01*
X136277565Y-163788457D01*
X136277565Y-162126467D01*
X136752154Y-162126467D01*
X136760585Y-162262205D01*
X136790867Y-162394141D01*
X136851259Y-162513001D01*
X136928341Y-162592370D01*
X137042645Y-162651461D01*
X137166990Y-162671081D01*
X137175871Y-162671158D01*
X137307023Y-162652172D01*
X137423343Y-162588152D01*
X137492263Y-162510481D01*
X137549842Y-162399697D01*
X137586095Y-162268194D01*
X137600490Y-162132127D01*
X137601450Y-162083041D01*
X137591635Y-161950690D01*
X137562191Y-161828153D01*
X137507132Y-161704699D01*
X137500949Y-161694065D01*
X137417473Y-161597640D01*
X137304381Y-161541241D01*
X137175871Y-161524702D01*
X137051214Y-161540754D01*
X136936280Y-161597188D01*
X136848140Y-161694254D01*
X136804265Y-161781538D01*
X136770525Y-161904008D01*
X136754647Y-162038504D01*
X136752154Y-162126467D01*
X136277565Y-162126467D01*
X136277565Y-161162402D01*
X136753394Y-161162402D01*
X136753394Y-161443433D01*
X136830875Y-161339589D01*
X136924618Y-161249255D01*
X137034263Y-161182516D01*
X137156145Y-161140495D01*
X137290265Y-161123192D01*
X137318558Y-161122698D01*
X137459710Y-161134394D01*
G37*
G36*
X139682193Y-162805780D02*
G01*
X139647452Y-162856651D01*
X139581072Y-162931096D01*
X139480445Y-163008195D01*
X139368932Y-163065774D01*
X139355255Y-163070681D01*
X139228739Y-163099725D01*
X139099660Y-163107904D01*
X138974376Y-163100482D01*
X138841828Y-163071984D01*
X138711723Y-163011721D01*
X138608038Y-162922366D01*
X138530774Y-162803919D01*
X138487590Y-162683721D01*
X138462399Y-162549022D01*
X138450884Y-162408196D01*
X138448884Y-162310099D01*
X138448884Y-161162402D01*
X138958214Y-161162402D01*
X138958214Y-162318164D01*
X138965576Y-162446034D01*
X138996677Y-162565074D01*
X139081019Y-162664734D01*
X139204419Y-162707303D01*
X139263439Y-162710862D01*
X139393853Y-162694423D01*
X139509059Y-162637596D01*
X139593003Y-162540177D01*
X139612091Y-162503036D01*
X139647269Y-162381817D01*
X139660335Y-162250960D01*
X139661101Y-162205876D01*
X139661101Y-161162402D01*
X140165467Y-161162402D01*
X140165467Y-163068200D01*
X139682193Y-163068200D01*
X139682193Y-162805780D01*
G37*
G36*
X141504861Y-162710862D02*
G01*
X141504861Y-163068200D01*
X141269117Y-163076885D01*
X141144829Y-163076369D01*
X141019673Y-163062700D01*
X140890164Y-163024451D01*
X140787705Y-162954671D01*
X140724892Y-162845950D01*
X140704281Y-162712905D01*
X140703954Y-162691010D01*
X140703954Y-161519739D01*
X140438433Y-161519739D01*
X140438433Y-161162402D01*
X140703954Y-161162402D01*
X140703954Y-160631980D01*
X141195913Y-160631980D01*
X141195913Y-161162402D01*
X141504861Y-161162402D01*
X141504861Y-161519739D01*
X141195913Y-161519739D01*
X141195913Y-162537777D01*
X141210976Y-162661959D01*
X141225071Y-162685427D01*
X141346193Y-162713189D01*
X141406841Y-162714585D01*
X141454610Y-162713964D01*
X141504861Y-162710862D01*
G37*
G36*
X142697440Y-161129568D02*
G01*
X142832881Y-161153317D01*
X142958992Y-161194029D01*
X142995006Y-161209551D01*
X143107558Y-161273648D01*
X143207146Y-161357375D01*
X143293768Y-161460730D01*
X143309537Y-161483757D01*
X143371635Y-161592044D01*
X143418345Y-161710631D01*
X143449667Y-161839517D01*
X143454085Y-161866530D01*
X143466638Y-161999845D01*
X143470503Y-162134749D01*
X143470214Y-162234413D01*
X142168043Y-162234413D01*
X142180257Y-162362029D01*
X142212827Y-162486066D01*
X142273197Y-162597799D01*
X142347953Y-162672399D01*
X142461327Y-162731025D01*
X142586489Y-162750490D01*
X142595483Y-162750567D01*
X142719062Y-162733824D01*
X142833250Y-162673686D01*
X142845495Y-162663093D01*
X142922395Y-162562314D01*
X142937931Y-162532194D01*
X143445399Y-162532194D01*
X143411608Y-162659652D01*
X143346606Y-162777255D01*
X143269212Y-162874022D01*
X143170703Y-162966998D01*
X143058497Y-163040738D01*
X142932595Y-163095242D01*
X142792996Y-163130509D01*
X142666200Y-163145203D01*
X142585557Y-163147608D01*
X142452450Y-163139364D01*
X142325319Y-163114631D01*
X142204163Y-163073410D01*
X142088984Y-163015700D01*
X141979781Y-162941502D01*
X141944708Y-162913105D01*
X141850466Y-162814574D01*
X141775723Y-162695324D01*
X141728331Y-162580121D01*
X141694480Y-162450530D01*
X141674170Y-162306549D01*
X141667670Y-162181005D01*
X141667399Y-162148181D01*
X141673503Y-161998751D01*
X141684372Y-161916780D01*
X142180451Y-161916780D01*
X142953441Y-161916780D01*
X142933694Y-161793925D01*
X142881438Y-161677276D01*
X142833708Y-161620860D01*
X142729943Y-161551734D01*
X142606466Y-161521319D01*
X142567566Y-161519739D01*
X142440134Y-161537452D01*
X142324650Y-161601910D01*
X142299563Y-161627064D01*
X142230047Y-161735036D01*
X142189738Y-161861452D01*
X142180451Y-161916780D01*
X141684372Y-161916780D01*
X141691815Y-161860651D01*
X141722334Y-161733879D01*
X141775070Y-161596708D01*
X141845386Y-161475851D01*
X141917411Y-161387599D01*
X142016633Y-161297574D01*
X142126323Y-161226175D01*
X142246482Y-161173401D01*
X142377110Y-161139254D01*
X142518207Y-161123733D01*
X142567566Y-161122698D01*
X142697440Y-161129568D01*
G37*
G36*
X144751293Y-161623962D02*
G01*
X144613763Y-161636176D01*
X144488425Y-161679115D01*
X144385651Y-161763084D01*
X144348668Y-161819381D01*
X144309228Y-161938566D01*
X144293734Y-162063866D01*
X144290973Y-162158107D01*
X144290973Y-163068200D01*
X143790329Y-163068200D01*
X143790329Y-161162402D01*
X144264917Y-161162402D01*
X144264917Y-161499266D01*
X144333801Y-161392312D01*
X144414836Y-161288232D01*
X144465299Y-161239329D01*
X144571160Y-161172926D01*
X144696813Y-161134087D01*
X144828219Y-161122698D01*
X144851794Y-161122698D01*
X144894600Y-161122698D01*
X144894600Y-161632648D01*
X144810849Y-161625823D01*
X144751293Y-161623962D01*
G37*
D10*
X127241115Y-97907580D02*
X127241115Y-98907580D01*
X127241115Y-98431390D02*
X126669687Y-98431390D01*
X126669687Y-97907580D02*
X126669687Y-98907580D01*
X125812544Y-97955200D02*
X125907782Y-97907580D01*
X125907782Y-97907580D02*
X126098258Y-97907580D01*
X126098258Y-97907580D02*
X126193496Y-97955200D01*
X126193496Y-97955200D02*
X126241115Y-98050438D01*
X126241115Y-98050438D02*
X126241115Y-98431390D01*
X126241115Y-98431390D02*
X126193496Y-98526628D01*
X126193496Y-98526628D02*
X126098258Y-98574247D01*
X126098258Y-98574247D02*
X125907782Y-98574247D01*
X125907782Y-98574247D02*
X125812544Y-98526628D01*
X125812544Y-98526628D02*
X125764925Y-98431390D01*
X125764925Y-98431390D02*
X125764925Y-98336152D01*
X125764925Y-98336152D02*
X126241115Y-98240914D01*
X124907782Y-97907580D02*
X124907782Y-98431390D01*
X124907782Y-98431390D02*
X124955401Y-98526628D01*
X124955401Y-98526628D02*
X125050639Y-98574247D01*
X125050639Y-98574247D02*
X125241115Y-98574247D01*
X125241115Y-98574247D02*
X125336353Y-98526628D01*
X124907782Y-97955200D02*
X125003020Y-97907580D01*
X125003020Y-97907580D02*
X125241115Y-97907580D01*
X125241115Y-97907580D02*
X125336353Y-97955200D01*
X125336353Y-97955200D02*
X125383972Y-98050438D01*
X125383972Y-98050438D02*
X125383972Y-98145676D01*
X125383972Y-98145676D02*
X125336353Y-98240914D01*
X125336353Y-98240914D02*
X125241115Y-98288533D01*
X125241115Y-98288533D02*
X125003020Y-98288533D01*
X125003020Y-98288533D02*
X124907782Y-98336152D01*
X124003020Y-97907580D02*
X124003020Y-98907580D01*
X124003020Y-97955200D02*
X124098258Y-97907580D01*
X124098258Y-97907580D02*
X124288734Y-97907580D01*
X124288734Y-97907580D02*
X124383972Y-97955200D01*
X124383972Y-97955200D02*
X124431591Y-98002819D01*
X124431591Y-98002819D02*
X124479210Y-98098057D01*
X124479210Y-98098057D02*
X124479210Y-98383771D01*
X124479210Y-98383771D02*
X124431591Y-98479009D01*
X124431591Y-98479009D02*
X124383972Y-98526628D01*
X124383972Y-98526628D02*
X124288734Y-98574247D01*
X124288734Y-98574247D02*
X124098258Y-98574247D01*
X124098258Y-98574247D02*
X124003020Y-98526628D01*
X123145877Y-97955200D02*
X123241115Y-97907580D01*
X123241115Y-97907580D02*
X123431591Y-97907580D01*
X123431591Y-97907580D02*
X123526829Y-97955200D01*
X123526829Y-97955200D02*
X123574448Y-98050438D01*
X123574448Y-98050438D02*
X123574448Y-98431390D01*
X123574448Y-98431390D02*
X123526829Y-98526628D01*
X123526829Y-98526628D02*
X123431591Y-98574247D01*
X123431591Y-98574247D02*
X123241115Y-98574247D01*
X123241115Y-98574247D02*
X123145877Y-98526628D01*
X123145877Y-98526628D02*
X123098258Y-98431390D01*
X123098258Y-98431390D02*
X123098258Y-98336152D01*
X123098258Y-98336152D02*
X123574448Y-98240914D01*
X122669686Y-97907580D02*
X122669686Y-98574247D01*
X122669686Y-98383771D02*
X122622067Y-98479009D01*
X122622067Y-98479009D02*
X122574448Y-98526628D01*
X122574448Y-98526628D02*
X122479210Y-98574247D01*
X122479210Y-98574247D02*
X122383972Y-98574247D01*
X120955400Y-98431390D02*
X120812543Y-98383771D01*
X120812543Y-98383771D02*
X120764924Y-98336152D01*
X120764924Y-98336152D02*
X120717305Y-98240914D01*
X120717305Y-98240914D02*
X120717305Y-98098057D01*
X120717305Y-98098057D02*
X120764924Y-98002819D01*
X120764924Y-98002819D02*
X120812543Y-97955200D01*
X120812543Y-97955200D02*
X120907781Y-97907580D01*
X120907781Y-97907580D02*
X121288733Y-97907580D01*
X121288733Y-97907580D02*
X121288733Y-98907580D01*
X121288733Y-98907580D02*
X120955400Y-98907580D01*
X120955400Y-98907580D02*
X120860162Y-98859961D01*
X120860162Y-98859961D02*
X120812543Y-98812342D01*
X120812543Y-98812342D02*
X120764924Y-98717104D01*
X120764924Y-98717104D02*
X120764924Y-98621866D01*
X120764924Y-98621866D02*
X120812543Y-98526628D01*
X120812543Y-98526628D02*
X120860162Y-98479009D01*
X120860162Y-98479009D02*
X120955400Y-98431390D01*
X120955400Y-98431390D02*
X121288733Y-98431390D01*
X119860162Y-97907580D02*
X119860162Y-98431390D01*
X119860162Y-98431390D02*
X119907781Y-98526628D01*
X119907781Y-98526628D02*
X120003019Y-98574247D01*
X120003019Y-98574247D02*
X120193495Y-98574247D01*
X120193495Y-98574247D02*
X120288733Y-98526628D01*
X119860162Y-97955200D02*
X119955400Y-97907580D01*
X119955400Y-97907580D02*
X120193495Y-97907580D01*
X120193495Y-97907580D02*
X120288733Y-97955200D01*
X120288733Y-97955200D02*
X120336352Y-98050438D01*
X120336352Y-98050438D02*
X120336352Y-98145676D01*
X120336352Y-98145676D02*
X120288733Y-98240914D01*
X120288733Y-98240914D02*
X120193495Y-98288533D01*
X120193495Y-98288533D02*
X119955400Y-98288533D01*
X119955400Y-98288533D02*
X119860162Y-98336152D01*
X119383971Y-98574247D02*
X119383971Y-97907580D01*
X119383971Y-98479009D02*
X119336352Y-98526628D01*
X119336352Y-98526628D02*
X119241114Y-98574247D01*
X119241114Y-98574247D02*
X119098257Y-98574247D01*
X119098257Y-98574247D02*
X119003019Y-98526628D01*
X119003019Y-98526628D02*
X118955400Y-98431390D01*
X118955400Y-98431390D02*
X118955400Y-97907580D01*
X118479209Y-97907580D02*
X118479209Y-98907580D01*
X118383971Y-98288533D02*
X118098257Y-97907580D01*
X118098257Y-98574247D02*
X118479209Y-98193295D01*
X116907780Y-97907580D02*
X116907780Y-98907580D01*
X116907780Y-98907580D02*
X116526828Y-98907580D01*
X116526828Y-98907580D02*
X116431590Y-98859961D01*
X116431590Y-98859961D02*
X116383971Y-98812342D01*
X116383971Y-98812342D02*
X116336352Y-98717104D01*
X116336352Y-98717104D02*
X116336352Y-98574247D01*
X116336352Y-98574247D02*
X116383971Y-98479009D01*
X116383971Y-98479009D02*
X116431590Y-98431390D01*
X116431590Y-98431390D02*
X116526828Y-98383771D01*
X116526828Y-98383771D02*
X116907780Y-98383771D01*
X115764923Y-98479009D02*
X115860161Y-98526628D01*
X115860161Y-98526628D02*
X115907780Y-98574247D01*
X115907780Y-98574247D02*
X115955399Y-98669485D01*
X115955399Y-98669485D02*
X115955399Y-98717104D01*
X115955399Y-98717104D02*
X115907780Y-98812342D01*
X115907780Y-98812342D02*
X115860161Y-98859961D01*
X115860161Y-98859961D02*
X115764923Y-98907580D01*
X115764923Y-98907580D02*
X115574447Y-98907580D01*
X115574447Y-98907580D02*
X115479209Y-98859961D01*
X115479209Y-98859961D02*
X115431590Y-98812342D01*
X115431590Y-98812342D02*
X115383971Y-98717104D01*
X115383971Y-98717104D02*
X115383971Y-98669485D01*
X115383971Y-98669485D02*
X115431590Y-98574247D01*
X115431590Y-98574247D02*
X115479209Y-98526628D01*
X115479209Y-98526628D02*
X115574447Y-98479009D01*
X115574447Y-98479009D02*
X115764923Y-98479009D01*
X115764923Y-98479009D02*
X115860161Y-98431390D01*
X115860161Y-98431390D02*
X115907780Y-98383771D01*
X115907780Y-98383771D02*
X115955399Y-98288533D01*
X115955399Y-98288533D02*
X115955399Y-98098057D01*
X115955399Y-98098057D02*
X115907780Y-98002819D01*
X115907780Y-98002819D02*
X115860161Y-97955200D01*
X115860161Y-97955200D02*
X115764923Y-97907580D01*
X115764923Y-97907580D02*
X115574447Y-97907580D01*
X115574447Y-97907580D02*
X115479209Y-97955200D01*
X115479209Y-97955200D02*
X115431590Y-98002819D01*
X115431590Y-98002819D02*
X115383971Y-98098057D01*
X115383971Y-98098057D02*
X115383971Y-98288533D01*
X115383971Y-98288533D02*
X115431590Y-98383771D01*
X115431590Y-98383771D02*
X115479209Y-98431390D01*
X115479209Y-98431390D02*
X115574447Y-98479009D01*
X115148884Y-138292419D02*
X115148884Y-137292419D01*
X115148884Y-137768609D02*
X115720312Y-137768609D01*
X115720312Y-138292419D02*
X115720312Y-137292419D01*
X116577455Y-138244800D02*
X116482217Y-138292419D01*
X116482217Y-138292419D02*
X116291741Y-138292419D01*
X116291741Y-138292419D02*
X116196503Y-138244800D01*
X116196503Y-138244800D02*
X116148884Y-138149561D01*
X116148884Y-138149561D02*
X116148884Y-137768609D01*
X116148884Y-137768609D02*
X116196503Y-137673371D01*
X116196503Y-137673371D02*
X116291741Y-137625752D01*
X116291741Y-137625752D02*
X116482217Y-137625752D01*
X116482217Y-137625752D02*
X116577455Y-137673371D01*
X116577455Y-137673371D02*
X116625074Y-137768609D01*
X116625074Y-137768609D02*
X116625074Y-137863847D01*
X116625074Y-137863847D02*
X116148884Y-137959085D01*
X117482217Y-138292419D02*
X117482217Y-137768609D01*
X117482217Y-137768609D02*
X117434598Y-137673371D01*
X117434598Y-137673371D02*
X117339360Y-137625752D01*
X117339360Y-137625752D02*
X117148884Y-137625752D01*
X117148884Y-137625752D02*
X117053646Y-137673371D01*
X117482217Y-138244800D02*
X117386979Y-138292419D01*
X117386979Y-138292419D02*
X117148884Y-138292419D01*
X117148884Y-138292419D02*
X117053646Y-138244800D01*
X117053646Y-138244800D02*
X117006027Y-138149561D01*
X117006027Y-138149561D02*
X117006027Y-138054323D01*
X117006027Y-138054323D02*
X117053646Y-137959085D01*
X117053646Y-137959085D02*
X117148884Y-137911466D01*
X117148884Y-137911466D02*
X117386979Y-137911466D01*
X117386979Y-137911466D02*
X117482217Y-137863847D01*
X118386979Y-138292419D02*
X118386979Y-137292419D01*
X118386979Y-138244800D02*
X118291741Y-138292419D01*
X118291741Y-138292419D02*
X118101265Y-138292419D01*
X118101265Y-138292419D02*
X118006027Y-138244800D01*
X118006027Y-138244800D02*
X117958408Y-138197180D01*
X117958408Y-138197180D02*
X117910789Y-138101942D01*
X117910789Y-138101942D02*
X117910789Y-137816228D01*
X117910789Y-137816228D02*
X117958408Y-137720990D01*
X117958408Y-137720990D02*
X118006027Y-137673371D01*
X118006027Y-137673371D02*
X118101265Y-137625752D01*
X118101265Y-137625752D02*
X118291741Y-137625752D01*
X118291741Y-137625752D02*
X118386979Y-137673371D01*
X119244122Y-138244800D02*
X119148884Y-138292419D01*
X119148884Y-138292419D02*
X118958408Y-138292419D01*
X118958408Y-138292419D02*
X118863170Y-138244800D01*
X118863170Y-138244800D02*
X118815551Y-138149561D01*
X118815551Y-138149561D02*
X118815551Y-137768609D01*
X118815551Y-137768609D02*
X118863170Y-137673371D01*
X118863170Y-137673371D02*
X118958408Y-137625752D01*
X118958408Y-137625752D02*
X119148884Y-137625752D01*
X119148884Y-137625752D02*
X119244122Y-137673371D01*
X119244122Y-137673371D02*
X119291741Y-137768609D01*
X119291741Y-137768609D02*
X119291741Y-137863847D01*
X119291741Y-137863847D02*
X118815551Y-137959085D01*
X119720313Y-138292419D02*
X119720313Y-137625752D01*
X119720313Y-137816228D02*
X119767932Y-137720990D01*
X119767932Y-137720990D02*
X119815551Y-137673371D01*
X119815551Y-137673371D02*
X119910789Y-137625752D01*
X119910789Y-137625752D02*
X120006027Y-137625752D01*
X121434599Y-137768609D02*
X121577456Y-137816228D01*
X121577456Y-137816228D02*
X121625075Y-137863847D01*
X121625075Y-137863847D02*
X121672694Y-137959085D01*
X121672694Y-137959085D02*
X121672694Y-138101942D01*
X121672694Y-138101942D02*
X121625075Y-138197180D01*
X121625075Y-138197180D02*
X121577456Y-138244800D01*
X121577456Y-138244800D02*
X121482218Y-138292419D01*
X121482218Y-138292419D02*
X121101266Y-138292419D01*
X121101266Y-138292419D02*
X121101266Y-137292419D01*
X121101266Y-137292419D02*
X121434599Y-137292419D01*
X121434599Y-137292419D02*
X121529837Y-137340038D01*
X121529837Y-137340038D02*
X121577456Y-137387657D01*
X121577456Y-137387657D02*
X121625075Y-137482895D01*
X121625075Y-137482895D02*
X121625075Y-137578133D01*
X121625075Y-137578133D02*
X121577456Y-137673371D01*
X121577456Y-137673371D02*
X121529837Y-137720990D01*
X121529837Y-137720990D02*
X121434599Y-137768609D01*
X121434599Y-137768609D02*
X121101266Y-137768609D01*
X122529837Y-138292419D02*
X122529837Y-137768609D01*
X122529837Y-137768609D02*
X122482218Y-137673371D01*
X122482218Y-137673371D02*
X122386980Y-137625752D01*
X122386980Y-137625752D02*
X122196504Y-137625752D01*
X122196504Y-137625752D02*
X122101266Y-137673371D01*
X122529837Y-138244800D02*
X122434599Y-138292419D01*
X122434599Y-138292419D02*
X122196504Y-138292419D01*
X122196504Y-138292419D02*
X122101266Y-138244800D01*
X122101266Y-138244800D02*
X122053647Y-138149561D01*
X122053647Y-138149561D02*
X122053647Y-138054323D01*
X122053647Y-138054323D02*
X122101266Y-137959085D01*
X122101266Y-137959085D02*
X122196504Y-137911466D01*
X122196504Y-137911466D02*
X122434599Y-137911466D01*
X122434599Y-137911466D02*
X122529837Y-137863847D01*
X123006028Y-137625752D02*
X123006028Y-138292419D01*
X123006028Y-137720990D02*
X123053647Y-137673371D01*
X123053647Y-137673371D02*
X123148885Y-137625752D01*
X123148885Y-137625752D02*
X123291742Y-137625752D01*
X123291742Y-137625752D02*
X123386980Y-137673371D01*
X123386980Y-137673371D02*
X123434599Y-137768609D01*
X123434599Y-137768609D02*
X123434599Y-138292419D01*
X123910790Y-138292419D02*
X123910790Y-137292419D01*
X124006028Y-137911466D02*
X124291742Y-138292419D01*
X124291742Y-137625752D02*
X123910790Y-138006704D01*
X125482219Y-138292419D02*
X125482219Y-137292419D01*
X125482219Y-137292419D02*
X125863171Y-137292419D01*
X125863171Y-137292419D02*
X125958409Y-137340038D01*
X125958409Y-137340038D02*
X126006028Y-137387657D01*
X126006028Y-137387657D02*
X126053647Y-137482895D01*
X126053647Y-137482895D02*
X126053647Y-137625752D01*
X126053647Y-137625752D02*
X126006028Y-137720990D01*
X126006028Y-137720990D02*
X125958409Y-137768609D01*
X125958409Y-137768609D02*
X125863171Y-137816228D01*
X125863171Y-137816228D02*
X125482219Y-137816228D01*
X126529838Y-138292419D02*
X126720314Y-138292419D01*
X126720314Y-138292419D02*
X126815552Y-138244800D01*
X126815552Y-138244800D02*
X126863171Y-138197180D01*
X126863171Y-138197180D02*
X126958409Y-138054323D01*
X126958409Y-138054323D02*
X127006028Y-137863847D01*
X127006028Y-137863847D02*
X127006028Y-137482895D01*
X127006028Y-137482895D02*
X126958409Y-137387657D01*
X126958409Y-137387657D02*
X126910790Y-137340038D01*
X126910790Y-137340038D02*
X126815552Y-137292419D01*
X126815552Y-137292419D02*
X126625076Y-137292419D01*
X126625076Y-137292419D02*
X126529838Y-137340038D01*
X126529838Y-137340038D02*
X126482219Y-137387657D01*
X126482219Y-137387657D02*
X126434600Y-137482895D01*
X126434600Y-137482895D02*
X126434600Y-137720990D01*
X126434600Y-137720990D02*
X126482219Y-137816228D01*
X126482219Y-137816228D02*
X126529838Y-137863847D01*
X126529838Y-137863847D02*
X126625076Y-137911466D01*
X126625076Y-137911466D02*
X126815552Y-137911466D01*
X126815552Y-137911466D02*
X126910790Y-137863847D01*
X126910790Y-137863847D02*
X126958409Y-137816228D01*
X126958409Y-137816228D02*
X127006028Y-137720990D01*
D14*
X117923333Y-148084819D02*
X117590000Y-147608628D01*
X117351905Y-148084819D02*
X117351905Y-147084819D01*
X117351905Y-147084819D02*
X117732857Y-147084819D01*
X117732857Y-147084819D02*
X117828095Y-147132438D01*
X117828095Y-147132438D02*
X117875714Y-147180057D01*
X117875714Y-147180057D02*
X117923333Y-147275295D01*
X117923333Y-147275295D02*
X117923333Y-147418152D01*
X117923333Y-147418152D02*
X117875714Y-147513390D01*
X117875714Y-147513390D02*
X117828095Y-147561009D01*
X117828095Y-147561009D02*
X117732857Y-147608628D01*
X117732857Y-147608628D02*
X117351905Y-147608628D01*
X118875714Y-148084819D02*
X118304286Y-148084819D01*
X118590000Y-148084819D02*
X118590000Y-147084819D01*
X118590000Y-147084819D02*
X118494762Y-147227676D01*
X118494762Y-147227676D02*
X118399524Y-147322914D01*
X118399524Y-147322914D02*
X118304286Y-147370533D01*
D10*
X90926265Y-166326704D02*
X91402455Y-166326704D01*
X90831027Y-166612419D02*
X91164360Y-165612419D01*
X91164360Y-165612419D02*
X91497693Y-166612419D01*
X92259598Y-166612419D02*
X92259598Y-165612419D01*
X92259598Y-166564800D02*
X92164360Y-166612419D01*
X92164360Y-166612419D02*
X91973884Y-166612419D01*
X91973884Y-166612419D02*
X91878646Y-166564800D01*
X91878646Y-166564800D02*
X91831027Y-166517180D01*
X91831027Y-166517180D02*
X91783408Y-166421942D01*
X91783408Y-166421942D02*
X91783408Y-166136228D01*
X91783408Y-166136228D02*
X91831027Y-166040990D01*
X91831027Y-166040990D02*
X91878646Y-165993371D01*
X91878646Y-165993371D02*
X91973884Y-165945752D01*
X91973884Y-165945752D02*
X92164360Y-165945752D01*
X92164360Y-165945752D02*
X92259598Y-165993371D01*
X93164360Y-166612419D02*
X93164360Y-166088609D01*
X93164360Y-166088609D02*
X93116741Y-165993371D01*
X93116741Y-165993371D02*
X93021503Y-165945752D01*
X93021503Y-165945752D02*
X92831027Y-165945752D01*
X92831027Y-165945752D02*
X92735789Y-165993371D01*
X93164360Y-166564800D02*
X93069122Y-166612419D01*
X93069122Y-166612419D02*
X92831027Y-166612419D01*
X92831027Y-166612419D02*
X92735789Y-166564800D01*
X92735789Y-166564800D02*
X92688170Y-166469561D01*
X92688170Y-166469561D02*
X92688170Y-166374323D01*
X92688170Y-166374323D02*
X92735789Y-166279085D01*
X92735789Y-166279085D02*
X92831027Y-166231466D01*
X92831027Y-166231466D02*
X93069122Y-166231466D01*
X93069122Y-166231466D02*
X93164360Y-166183847D01*
X93497694Y-165945752D02*
X93878646Y-165945752D01*
X93640551Y-166612419D02*
X93640551Y-165755276D01*
X93640551Y-165755276D02*
X93688170Y-165660038D01*
X93688170Y-165660038D02*
X93783408Y-165612419D01*
X93783408Y-165612419D02*
X93878646Y-165612419D01*
X94211980Y-166612419D02*
X94211980Y-165945752D01*
X94211980Y-166136228D02*
X94259599Y-166040990D01*
X94259599Y-166040990D02*
X94307218Y-165993371D01*
X94307218Y-165993371D02*
X94402456Y-165945752D01*
X94402456Y-165945752D02*
X94497694Y-165945752D01*
X95259599Y-165945752D02*
X95259599Y-166612419D01*
X94831028Y-165945752D02*
X94831028Y-166469561D01*
X94831028Y-166469561D02*
X94878647Y-166564800D01*
X94878647Y-166564800D02*
X94973885Y-166612419D01*
X94973885Y-166612419D02*
X95116742Y-166612419D01*
X95116742Y-166612419D02*
X95211980Y-166564800D01*
X95211980Y-166564800D02*
X95259599Y-166517180D01*
X95735790Y-166612419D02*
X95735790Y-165945752D01*
X95735790Y-165612419D02*
X95688171Y-165660038D01*
X95688171Y-165660038D02*
X95735790Y-165707657D01*
X95735790Y-165707657D02*
X95783409Y-165660038D01*
X95783409Y-165660038D02*
X95735790Y-165612419D01*
X95735790Y-165612419D02*
X95735790Y-165707657D01*
X96069123Y-165945752D02*
X96450075Y-165945752D01*
X96211980Y-165612419D02*
X96211980Y-166469561D01*
X96211980Y-166469561D02*
X96259599Y-166564800D01*
X96259599Y-166564800D02*
X96354837Y-166612419D01*
X96354837Y-166612419D02*
X96450075Y-166612419D01*
X98116742Y-166517180D02*
X98069123Y-166564800D01*
X98069123Y-166564800D02*
X97926266Y-166612419D01*
X97926266Y-166612419D02*
X97831028Y-166612419D01*
X97831028Y-166612419D02*
X97688171Y-166564800D01*
X97688171Y-166564800D02*
X97592933Y-166469561D01*
X97592933Y-166469561D02*
X97545314Y-166374323D01*
X97545314Y-166374323D02*
X97497695Y-166183847D01*
X97497695Y-166183847D02*
X97497695Y-166040990D01*
X97497695Y-166040990D02*
X97545314Y-165850514D01*
X97545314Y-165850514D02*
X97592933Y-165755276D01*
X97592933Y-165755276D02*
X97688171Y-165660038D01*
X97688171Y-165660038D02*
X97831028Y-165612419D01*
X97831028Y-165612419D02*
X97926266Y-165612419D01*
X97926266Y-165612419D02*
X98069123Y-165660038D01*
X98069123Y-165660038D02*
X98116742Y-165707657D01*
X98497695Y-166326704D02*
X98973885Y-166326704D01*
X98402457Y-166612419D02*
X98735790Y-165612419D01*
X98735790Y-165612419D02*
X99069123Y-166612419D01*
X99402457Y-166612419D02*
X99402457Y-165612419D01*
X99402457Y-165612419D02*
X99973885Y-166612419D01*
X99973885Y-166612419D02*
X99973885Y-165612419D01*
X101069124Y-165612419D02*
X101640552Y-165612419D01*
X101354838Y-166612419D02*
X101354838Y-165612419D01*
X101973886Y-166612419D02*
X101973886Y-165945752D01*
X101973886Y-166136228D02*
X102021505Y-166040990D01*
X102021505Y-166040990D02*
X102069124Y-165993371D01*
X102069124Y-165993371D02*
X102164362Y-165945752D01*
X102164362Y-165945752D02*
X102259600Y-165945752D01*
X103021505Y-166612419D02*
X103021505Y-166088609D01*
X103021505Y-166088609D02*
X102973886Y-165993371D01*
X102973886Y-165993371D02*
X102878648Y-165945752D01*
X102878648Y-165945752D02*
X102688172Y-165945752D01*
X102688172Y-165945752D02*
X102592934Y-165993371D01*
X103021505Y-166564800D02*
X102926267Y-166612419D01*
X102926267Y-166612419D02*
X102688172Y-166612419D01*
X102688172Y-166612419D02*
X102592934Y-166564800D01*
X102592934Y-166564800D02*
X102545315Y-166469561D01*
X102545315Y-166469561D02*
X102545315Y-166374323D01*
X102545315Y-166374323D02*
X102592934Y-166279085D01*
X102592934Y-166279085D02*
X102688172Y-166231466D01*
X102688172Y-166231466D02*
X102926267Y-166231466D01*
X102926267Y-166231466D02*
X103021505Y-166183847D01*
X103497696Y-165945752D02*
X103497696Y-166612419D01*
X103497696Y-166040990D02*
X103545315Y-165993371D01*
X103545315Y-165993371D02*
X103640553Y-165945752D01*
X103640553Y-165945752D02*
X103783410Y-165945752D01*
X103783410Y-165945752D02*
X103878648Y-165993371D01*
X103878648Y-165993371D02*
X103926267Y-166088609D01*
X103926267Y-166088609D02*
X103926267Y-166612419D01*
X104354839Y-166564800D02*
X104450077Y-166612419D01*
X104450077Y-166612419D02*
X104640553Y-166612419D01*
X104640553Y-166612419D02*
X104735791Y-166564800D01*
X104735791Y-166564800D02*
X104783410Y-166469561D01*
X104783410Y-166469561D02*
X104783410Y-166421942D01*
X104783410Y-166421942D02*
X104735791Y-166326704D01*
X104735791Y-166326704D02*
X104640553Y-166279085D01*
X104640553Y-166279085D02*
X104497696Y-166279085D01*
X104497696Y-166279085D02*
X104402458Y-166231466D01*
X104402458Y-166231466D02*
X104354839Y-166136228D01*
X104354839Y-166136228D02*
X104354839Y-166088609D01*
X104354839Y-166088609D02*
X104402458Y-165993371D01*
X104402458Y-165993371D02*
X104497696Y-165945752D01*
X104497696Y-165945752D02*
X104640553Y-165945752D01*
X104640553Y-165945752D02*
X104735791Y-165993371D01*
X105640553Y-166564800D02*
X105545315Y-166612419D01*
X105545315Y-166612419D02*
X105354839Y-166612419D01*
X105354839Y-166612419D02*
X105259601Y-166564800D01*
X105259601Y-166564800D02*
X105211982Y-166517180D01*
X105211982Y-166517180D02*
X105164363Y-166421942D01*
X105164363Y-166421942D02*
X105164363Y-166136228D01*
X105164363Y-166136228D02*
X105211982Y-166040990D01*
X105211982Y-166040990D02*
X105259601Y-165993371D01*
X105259601Y-165993371D02*
X105354839Y-165945752D01*
X105354839Y-165945752D02*
X105545315Y-165945752D01*
X105545315Y-165945752D02*
X105640553Y-165993371D01*
X106450077Y-166564800D02*
X106354839Y-166612419D01*
X106354839Y-166612419D02*
X106164363Y-166612419D01*
X106164363Y-166612419D02*
X106069125Y-166564800D01*
X106069125Y-166564800D02*
X106021506Y-166469561D01*
X106021506Y-166469561D02*
X106021506Y-166088609D01*
X106021506Y-166088609D02*
X106069125Y-165993371D01*
X106069125Y-165993371D02*
X106164363Y-165945752D01*
X106164363Y-165945752D02*
X106354839Y-165945752D01*
X106354839Y-165945752D02*
X106450077Y-165993371D01*
X106450077Y-165993371D02*
X106497696Y-166088609D01*
X106497696Y-166088609D02*
X106497696Y-166183847D01*
X106497696Y-166183847D02*
X106021506Y-166279085D01*
X106926268Y-166612419D02*
X106926268Y-165945752D01*
X106926268Y-165612419D02*
X106878649Y-165660038D01*
X106878649Y-165660038D02*
X106926268Y-165707657D01*
X106926268Y-165707657D02*
X106973887Y-165660038D01*
X106973887Y-165660038D02*
X106926268Y-165612419D01*
X106926268Y-165612419D02*
X106926268Y-165707657D01*
X107307220Y-165945752D02*
X107545315Y-166612419D01*
X107545315Y-166612419D02*
X107783410Y-165945752D01*
X108545315Y-166564800D02*
X108450077Y-166612419D01*
X108450077Y-166612419D02*
X108259601Y-166612419D01*
X108259601Y-166612419D02*
X108164363Y-166564800D01*
X108164363Y-166564800D02*
X108116744Y-166469561D01*
X108116744Y-166469561D02*
X108116744Y-166088609D01*
X108116744Y-166088609D02*
X108164363Y-165993371D01*
X108164363Y-165993371D02*
X108259601Y-165945752D01*
X108259601Y-165945752D02*
X108450077Y-165945752D01*
X108450077Y-165945752D02*
X108545315Y-165993371D01*
X108545315Y-165993371D02*
X108592934Y-166088609D01*
X108592934Y-166088609D02*
X108592934Y-166183847D01*
X108592934Y-166183847D02*
X108116744Y-166279085D01*
X109021506Y-166612419D02*
X109021506Y-165945752D01*
X109021506Y-166136228D02*
X109069125Y-166040990D01*
X109069125Y-166040990D02*
X109116744Y-165993371D01*
X109116744Y-165993371D02*
X109211982Y-165945752D01*
X109211982Y-165945752D02*
X109307220Y-165945752D01*
X120308884Y-76527419D02*
X120308884Y-75527419D01*
X120308884Y-76003609D02*
X120880312Y-76003609D01*
X120880312Y-76527419D02*
X120880312Y-75527419D01*
X121308884Y-75622657D02*
X121356503Y-75575038D01*
X121356503Y-75575038D02*
X121451741Y-75527419D01*
X121451741Y-75527419D02*
X121689836Y-75527419D01*
X121689836Y-75527419D02*
X121785074Y-75575038D01*
X121785074Y-75575038D02*
X121832693Y-75622657D01*
X121832693Y-75622657D02*
X121880312Y-75717895D01*
X121880312Y-75717895D02*
X121880312Y-75813133D01*
X121880312Y-75813133D02*
X121832693Y-75955990D01*
X121832693Y-75955990D02*
X121261265Y-76527419D01*
X121261265Y-76527419D02*
X121880312Y-76527419D01*
X123356503Y-76908371D02*
X123308884Y-76860752D01*
X123308884Y-76860752D02*
X123213646Y-76717895D01*
X123213646Y-76717895D02*
X123166027Y-76622657D01*
X123166027Y-76622657D02*
X123118408Y-76479800D01*
X123118408Y-76479800D02*
X123070789Y-76241704D01*
X123070789Y-76241704D02*
X123070789Y-76051228D01*
X123070789Y-76051228D02*
X123118408Y-75813133D01*
X123118408Y-75813133D02*
X123166027Y-75670276D01*
X123166027Y-75670276D02*
X123213646Y-75575038D01*
X123213646Y-75575038D02*
X123308884Y-75432180D01*
X123308884Y-75432180D02*
X123356503Y-75384561D01*
X123927932Y-75527419D02*
X124118408Y-75527419D01*
X124118408Y-75527419D02*
X124213646Y-75575038D01*
X124213646Y-75575038D02*
X124308884Y-75670276D01*
X124308884Y-75670276D02*
X124356503Y-75860752D01*
X124356503Y-75860752D02*
X124356503Y-76194085D01*
X124356503Y-76194085D02*
X124308884Y-76384561D01*
X124308884Y-76384561D02*
X124213646Y-76479800D01*
X124213646Y-76479800D02*
X124118408Y-76527419D01*
X124118408Y-76527419D02*
X123927932Y-76527419D01*
X123927932Y-76527419D02*
X123832694Y-76479800D01*
X123832694Y-76479800D02*
X123737456Y-76384561D01*
X123737456Y-76384561D02*
X123689837Y-76194085D01*
X123689837Y-76194085D02*
X123689837Y-75860752D01*
X123689837Y-75860752D02*
X123737456Y-75670276D01*
X123737456Y-75670276D02*
X123832694Y-75575038D01*
X123832694Y-75575038D02*
X123927932Y-75527419D01*
X125213646Y-75860752D02*
X125213646Y-76527419D01*
X124785075Y-75860752D02*
X124785075Y-76384561D01*
X124785075Y-76384561D02*
X124832694Y-76479800D01*
X124832694Y-76479800D02*
X124927932Y-76527419D01*
X124927932Y-76527419D02*
X125070789Y-76527419D01*
X125070789Y-76527419D02*
X125166027Y-76479800D01*
X125166027Y-76479800D02*
X125213646Y-76432180D01*
X125546980Y-75860752D02*
X125927932Y-75860752D01*
X125689837Y-75527419D02*
X125689837Y-76384561D01*
X125689837Y-76384561D02*
X125737456Y-76479800D01*
X125737456Y-76479800D02*
X125832694Y-76527419D01*
X125832694Y-76527419D02*
X125927932Y-76527419D01*
X126642218Y-76479800D02*
X126546980Y-76527419D01*
X126546980Y-76527419D02*
X126356504Y-76527419D01*
X126356504Y-76527419D02*
X126261266Y-76479800D01*
X126261266Y-76479800D02*
X126213647Y-76384561D01*
X126213647Y-76384561D02*
X126213647Y-76003609D01*
X126213647Y-76003609D02*
X126261266Y-75908371D01*
X126261266Y-75908371D02*
X126356504Y-75860752D01*
X126356504Y-75860752D02*
X126546980Y-75860752D01*
X126546980Y-75860752D02*
X126642218Y-75908371D01*
X126642218Y-75908371D02*
X126689837Y-76003609D01*
X126689837Y-76003609D02*
X126689837Y-76098847D01*
X126689837Y-76098847D02*
X126213647Y-76194085D01*
X127118409Y-76527419D02*
X127118409Y-75860752D01*
X127118409Y-76051228D02*
X127166028Y-75955990D01*
X127166028Y-75955990D02*
X127213647Y-75908371D01*
X127213647Y-75908371D02*
X127308885Y-75860752D01*
X127308885Y-75860752D02*
X127404123Y-75860752D01*
X128832695Y-76003609D02*
X128975552Y-76051228D01*
X128975552Y-76051228D02*
X129023171Y-76098847D01*
X129023171Y-76098847D02*
X129070790Y-76194085D01*
X129070790Y-76194085D02*
X129070790Y-76336942D01*
X129070790Y-76336942D02*
X129023171Y-76432180D01*
X129023171Y-76432180D02*
X128975552Y-76479800D01*
X128975552Y-76479800D02*
X128880314Y-76527419D01*
X128880314Y-76527419D02*
X128499362Y-76527419D01*
X128499362Y-76527419D02*
X128499362Y-75527419D01*
X128499362Y-75527419D02*
X128832695Y-75527419D01*
X128832695Y-75527419D02*
X128927933Y-75575038D01*
X128927933Y-75575038D02*
X128975552Y-75622657D01*
X128975552Y-75622657D02*
X129023171Y-75717895D01*
X129023171Y-75717895D02*
X129023171Y-75813133D01*
X129023171Y-75813133D02*
X128975552Y-75908371D01*
X128975552Y-75908371D02*
X128927933Y-75955990D01*
X128927933Y-75955990D02*
X128832695Y-76003609D01*
X128832695Y-76003609D02*
X128499362Y-76003609D01*
X129927933Y-76527419D02*
X129927933Y-76003609D01*
X129927933Y-76003609D02*
X129880314Y-75908371D01*
X129880314Y-75908371D02*
X129785076Y-75860752D01*
X129785076Y-75860752D02*
X129594600Y-75860752D01*
X129594600Y-75860752D02*
X129499362Y-75908371D01*
X129927933Y-76479800D02*
X129832695Y-76527419D01*
X129832695Y-76527419D02*
X129594600Y-76527419D01*
X129594600Y-76527419D02*
X129499362Y-76479800D01*
X129499362Y-76479800D02*
X129451743Y-76384561D01*
X129451743Y-76384561D02*
X129451743Y-76289323D01*
X129451743Y-76289323D02*
X129499362Y-76194085D01*
X129499362Y-76194085D02*
X129594600Y-76146466D01*
X129594600Y-76146466D02*
X129832695Y-76146466D01*
X129832695Y-76146466D02*
X129927933Y-76098847D01*
X130404124Y-75860752D02*
X130404124Y-76527419D01*
X130404124Y-75955990D02*
X130451743Y-75908371D01*
X130451743Y-75908371D02*
X130546981Y-75860752D01*
X130546981Y-75860752D02*
X130689838Y-75860752D01*
X130689838Y-75860752D02*
X130785076Y-75908371D01*
X130785076Y-75908371D02*
X130832695Y-76003609D01*
X130832695Y-76003609D02*
X130832695Y-76527419D01*
X131308886Y-76527419D02*
X131308886Y-75527419D01*
X131404124Y-76146466D02*
X131689838Y-76527419D01*
X131689838Y-75860752D02*
X131308886Y-76241704D01*
X132023172Y-76908371D02*
X132070791Y-76860752D01*
X132070791Y-76860752D02*
X132166029Y-76717895D01*
X132166029Y-76717895D02*
X132213648Y-76622657D01*
X132213648Y-76622657D02*
X132261267Y-76479800D01*
X132261267Y-76479800D02*
X132308886Y-76241704D01*
X132308886Y-76241704D02*
X132308886Y-76051228D01*
X132308886Y-76051228D02*
X132261267Y-75813133D01*
X132261267Y-75813133D02*
X132213648Y-75670276D01*
X132213648Y-75670276D02*
X132166029Y-75575038D01*
X132166029Y-75575038D02*
X132070791Y-75432180D01*
X132070791Y-75432180D02*
X132023172Y-75384561D01*
D14*
X131423333Y-148084819D02*
X131090000Y-147608628D01*
X130851905Y-148084819D02*
X130851905Y-147084819D01*
X130851905Y-147084819D02*
X131232857Y-147084819D01*
X131232857Y-147084819D02*
X131328095Y-147132438D01*
X131328095Y-147132438D02*
X131375714Y-147180057D01*
X131375714Y-147180057D02*
X131423333Y-147275295D01*
X131423333Y-147275295D02*
X131423333Y-147418152D01*
X131423333Y-147418152D02*
X131375714Y-147513390D01*
X131375714Y-147513390D02*
X131328095Y-147561009D01*
X131328095Y-147561009D02*
X131232857Y-147608628D01*
X131232857Y-147608628D02*
X130851905Y-147608628D01*
X131804286Y-147180057D02*
X131851905Y-147132438D01*
X131851905Y-147132438D02*
X131947143Y-147084819D01*
X131947143Y-147084819D02*
X132185238Y-147084819D01*
X132185238Y-147084819D02*
X132280476Y-147132438D01*
X132280476Y-147132438D02*
X132328095Y-147180057D01*
X132328095Y-147180057D02*
X132375714Y-147275295D01*
X132375714Y-147275295D02*
X132375714Y-147370533D01*
X132375714Y-147370533D02*
X132328095Y-147513390D01*
X132328095Y-147513390D02*
X131756667Y-148084819D01*
X131756667Y-148084819D02*
X132375714Y-148084819D01*
D10*
X129238615Y-89512580D02*
X129238615Y-90512580D01*
X129238615Y-90036390D02*
X128667187Y-90036390D01*
X128667187Y-89512580D02*
X128667187Y-90512580D01*
X127667187Y-89512580D02*
X128238615Y-89512580D01*
X127952901Y-89512580D02*
X127952901Y-90512580D01*
X127952901Y-90512580D02*
X128048139Y-90369723D01*
X128048139Y-90369723D02*
X128143377Y-90274485D01*
X128143377Y-90274485D02*
X128238615Y-90226866D01*
X126190996Y-89131628D02*
X126238615Y-89179247D01*
X126238615Y-89179247D02*
X126333853Y-89322104D01*
X126333853Y-89322104D02*
X126381472Y-89417342D01*
X126381472Y-89417342D02*
X126429091Y-89560200D01*
X126429091Y-89560200D02*
X126476710Y-89798295D01*
X126476710Y-89798295D02*
X126476710Y-89988771D01*
X126476710Y-89988771D02*
X126429091Y-90226866D01*
X126429091Y-90226866D02*
X126381472Y-90369723D01*
X126381472Y-90369723D02*
X126333853Y-90464961D01*
X126333853Y-90464961D02*
X126238615Y-90607819D01*
X126238615Y-90607819D02*
X126190996Y-90655438D01*
X125810043Y-89512580D02*
X125810043Y-90512580D01*
X125333853Y-90179247D02*
X125333853Y-89512580D01*
X125333853Y-90084009D02*
X125286234Y-90131628D01*
X125286234Y-90131628D02*
X125190996Y-90179247D01*
X125190996Y-90179247D02*
X125048139Y-90179247D01*
X125048139Y-90179247D02*
X124952901Y-90131628D01*
X124952901Y-90131628D02*
X124905282Y-90036390D01*
X124905282Y-90036390D02*
X124905282Y-89512580D01*
X124429091Y-90179247D02*
X124429091Y-89512580D01*
X124429091Y-90084009D02*
X124381472Y-90131628D01*
X124381472Y-90131628D02*
X124286234Y-90179247D01*
X124286234Y-90179247D02*
X124143377Y-90179247D01*
X124143377Y-90179247D02*
X124048139Y-90131628D01*
X124048139Y-90131628D02*
X124000520Y-90036390D01*
X124000520Y-90036390D02*
X124000520Y-89512580D01*
X123143377Y-89560200D02*
X123238615Y-89512580D01*
X123238615Y-89512580D02*
X123429091Y-89512580D01*
X123429091Y-89512580D02*
X123524329Y-89560200D01*
X123524329Y-89560200D02*
X123571948Y-89655438D01*
X123571948Y-89655438D02*
X123571948Y-90036390D01*
X123571948Y-90036390D02*
X123524329Y-90131628D01*
X123524329Y-90131628D02*
X123429091Y-90179247D01*
X123429091Y-90179247D02*
X123238615Y-90179247D01*
X123238615Y-90179247D02*
X123143377Y-90131628D01*
X123143377Y-90131628D02*
X123095758Y-90036390D01*
X123095758Y-90036390D02*
X123095758Y-89941152D01*
X123095758Y-89941152D02*
X123571948Y-89845914D01*
X122667186Y-89512580D02*
X122667186Y-90179247D01*
X122667186Y-89988771D02*
X122619567Y-90084009D01*
X122619567Y-90084009D02*
X122571948Y-90131628D01*
X122571948Y-90131628D02*
X122476710Y-90179247D01*
X122476710Y-90179247D02*
X122381472Y-90179247D01*
X120952900Y-90036390D02*
X120810043Y-89988771D01*
X120810043Y-89988771D02*
X120762424Y-89941152D01*
X120762424Y-89941152D02*
X120714805Y-89845914D01*
X120714805Y-89845914D02*
X120714805Y-89703057D01*
X120714805Y-89703057D02*
X120762424Y-89607819D01*
X120762424Y-89607819D02*
X120810043Y-89560200D01*
X120810043Y-89560200D02*
X120905281Y-89512580D01*
X120905281Y-89512580D02*
X121286233Y-89512580D01*
X121286233Y-89512580D02*
X121286233Y-90512580D01*
X121286233Y-90512580D02*
X120952900Y-90512580D01*
X120952900Y-90512580D02*
X120857662Y-90464961D01*
X120857662Y-90464961D02*
X120810043Y-90417342D01*
X120810043Y-90417342D02*
X120762424Y-90322104D01*
X120762424Y-90322104D02*
X120762424Y-90226866D01*
X120762424Y-90226866D02*
X120810043Y-90131628D01*
X120810043Y-90131628D02*
X120857662Y-90084009D01*
X120857662Y-90084009D02*
X120952900Y-90036390D01*
X120952900Y-90036390D02*
X121286233Y-90036390D01*
X119857662Y-89512580D02*
X119857662Y-90036390D01*
X119857662Y-90036390D02*
X119905281Y-90131628D01*
X119905281Y-90131628D02*
X120000519Y-90179247D01*
X120000519Y-90179247D02*
X120190995Y-90179247D01*
X120190995Y-90179247D02*
X120286233Y-90131628D01*
X119857662Y-89560200D02*
X119952900Y-89512580D01*
X119952900Y-89512580D02*
X120190995Y-89512580D01*
X120190995Y-89512580D02*
X120286233Y-89560200D01*
X120286233Y-89560200D02*
X120333852Y-89655438D01*
X120333852Y-89655438D02*
X120333852Y-89750676D01*
X120333852Y-89750676D02*
X120286233Y-89845914D01*
X120286233Y-89845914D02*
X120190995Y-89893533D01*
X120190995Y-89893533D02*
X119952900Y-89893533D01*
X119952900Y-89893533D02*
X119857662Y-89941152D01*
X119381471Y-90179247D02*
X119381471Y-89512580D01*
X119381471Y-90084009D02*
X119333852Y-90131628D01*
X119333852Y-90131628D02*
X119238614Y-90179247D01*
X119238614Y-90179247D02*
X119095757Y-90179247D01*
X119095757Y-90179247D02*
X119000519Y-90131628D01*
X119000519Y-90131628D02*
X118952900Y-90036390D01*
X118952900Y-90036390D02*
X118952900Y-89512580D01*
X118476709Y-89512580D02*
X118476709Y-90512580D01*
X118381471Y-89893533D02*
X118095757Y-89512580D01*
X118095757Y-90179247D02*
X118476709Y-89798295D01*
X117762423Y-89131628D02*
X117714804Y-89179247D01*
X117714804Y-89179247D02*
X117619566Y-89322104D01*
X117619566Y-89322104D02*
X117571947Y-89417342D01*
X117571947Y-89417342D02*
X117524328Y-89560200D01*
X117524328Y-89560200D02*
X117476709Y-89798295D01*
X117476709Y-89798295D02*
X117476709Y-89988771D01*
X117476709Y-89988771D02*
X117524328Y-90226866D01*
X117524328Y-90226866D02*
X117571947Y-90369723D01*
X117571947Y-90369723D02*
X117619566Y-90464961D01*
X117619566Y-90464961D02*
X117714804Y-90607819D01*
X117714804Y-90607819D02*
X117762423Y-90655438D01*
%TO.C,U1*%
X83730000Y-139055000D02*
X83730000Y-97145000D01*
X149770000Y-111750000D02*
X149770000Y-129530000D01*
X149770000Y-129530000D02*
X164375000Y-129530000D01*
X163740000Y-90795000D02*
X90080000Y-90795000D01*
X164375000Y-129530000D02*
X164375000Y-145405000D01*
X164375000Y-145405000D02*
X90080000Y-145405000D01*
X170090000Y-111750000D02*
X149770000Y-111750000D01*
X170090000Y-111750000D02*
X170090000Y-97145000D01*
X151675000Y-97145000D02*
X91985000Y-97145000D01*
X91985000Y-90795000D01*
X151675000Y-90795000D01*
X151675000Y-97145000D01*
X151675000Y-145405000D02*
X91985000Y-145405000D01*
X91985000Y-139055000D01*
X151675000Y-139055000D01*
X151675000Y-145405000D01*
X83730000Y-97145000D02*
G75*
G02*
X90080000Y-90795000I6350000J0D01*
G01*
X90080000Y-145405000D02*
G75*
G02*
X83730000Y-139055000I0J6350000D01*
G01*
X163740000Y-90795000D02*
G75*
G02*
X170090000Y-97145000I0J-6350000D01*
G01*
D15*
%TO.C,R1*%
X114050000Y-150000000D02*
X114820000Y-150000000D01*
X114820000Y-148630000D02*
X114820000Y-151370000D01*
X114820000Y-151370000D02*
X121360000Y-151370000D01*
X121360000Y-148630000D02*
X114820000Y-148630000D01*
X121360000Y-151370000D02*
X121360000Y-148630000D01*
X122130000Y-150000000D02*
X121360000Y-150000000D01*
D10*
%TO.C,U3*%
X89750000Y-166355000D02*
X89750000Y-149845000D01*
X91655000Y-147940000D02*
X108165000Y-147940000D01*
X108165000Y-168260000D02*
X91655000Y-168260000D01*
X110070000Y-149845000D02*
X110070000Y-166355000D01*
X89750000Y-149845000D02*
G75*
G02*
X91655000Y-147940000I1905000J0D01*
G01*
X91655000Y-168260000D02*
G75*
G02*
X89750000Y-166355000I0J1905000D01*
G01*
X108165000Y-147940000D02*
G75*
G02*
X110070000Y-149845000I0J-1905000D01*
G01*
X110070000Y-166355000D02*
G75*
G02*
X108165000Y-168260000I-1905001J1D01*
G01*
D16*
%TO.C,G\u002A\u002A\u002A*%
G36*
X156338802Y-162295053D02*
G01*
X156339638Y-162313295D01*
X156334363Y-162331265D01*
X156319962Y-162352819D01*
X156293417Y-162381812D01*
X156251714Y-162422098D01*
X156206781Y-162463786D01*
X156148451Y-162516891D01*
X156074941Y-162582894D01*
X155991857Y-162656837D01*
X155904803Y-162733764D01*
X155819385Y-162808717D01*
X155741206Y-162876741D01*
X155689814Y-162920983D01*
X155675449Y-162929407D01*
X155660740Y-162924957D01*
X155640217Y-162904145D01*
X155616690Y-162874356D01*
X155555068Y-162779787D01*
X155501493Y-162670569D01*
X155458867Y-162554761D01*
X155430097Y-162440425D01*
X155418086Y-162335620D01*
X155417907Y-162322727D01*
X155417907Y-162253506D01*
X155875306Y-162253506D01*
X156332704Y-162253506D01*
X156338802Y-162295053D01*
G37*
G36*
X157978383Y-161799614D02*
G01*
X158020454Y-161875378D01*
X158050772Y-161954722D01*
X158070994Y-162044122D01*
X158082777Y-162150054D01*
X158086405Y-162221840D01*
X158087022Y-162345608D01*
X158078599Y-162450953D01*
X158059574Y-162545812D01*
X158028381Y-162638125D01*
X157986181Y-162730438D01*
X157898941Y-162874122D01*
X157791079Y-163000360D01*
X157663583Y-163108547D01*
X157517444Y-163198078D01*
X157353650Y-163268351D01*
X157173193Y-163318760D01*
X156977061Y-163348702D01*
X156972869Y-163349098D01*
X156899386Y-163355628D01*
X156841749Y-163359430D01*
X156790947Y-163360506D01*
X156737968Y-163358856D01*
X156673800Y-163354483D01*
X156609817Y-163349150D01*
X156535934Y-163341635D01*
X156465244Y-163332390D01*
X156402591Y-163322283D01*
X156352818Y-163312183D01*
X156320769Y-163302957D01*
X156311203Y-163295646D01*
X156322538Y-163283304D01*
X156350389Y-163256910D01*
X156390560Y-163220348D01*
X156438565Y-163177757D01*
X156575685Y-163056550D01*
X156705515Y-162939696D01*
X156832036Y-162823441D01*
X156959224Y-162704028D01*
X157091059Y-162577703D01*
X157231519Y-162440709D01*
X157384583Y-162289291D01*
X157469120Y-162204965D01*
X157937971Y-161736175D01*
X157978383Y-161799614D01*
G37*
G36*
X156849879Y-159724528D02*
G01*
X157052433Y-159745599D01*
X157238892Y-159786053D01*
X157408423Y-159845442D01*
X157560190Y-159923320D01*
X157693360Y-160019241D01*
X157807097Y-160132756D01*
X157900569Y-160263421D01*
X157972939Y-160410787D01*
X157987146Y-160448792D01*
X158005356Y-160502623D01*
X158014367Y-160537314D01*
X158015047Y-160559210D01*
X158008262Y-160574657D01*
X158004933Y-160578943D01*
X157986928Y-160600384D01*
X157956993Y-160635860D01*
X157920920Y-160678508D01*
X157912653Y-160688269D01*
X157840115Y-160773895D01*
X157477988Y-160773895D01*
X157362873Y-160773592D01*
X157272721Y-160772609D01*
X157205100Y-160770831D01*
X157157580Y-160768146D01*
X157127730Y-160764440D01*
X157113117Y-160759600D01*
X157110779Y-160756769D01*
X157104583Y-160734258D01*
X157094420Y-160695856D01*
X157087992Y-160671144D01*
X157057357Y-160601235D01*
X157005962Y-160535645D01*
X156940365Y-160480837D01*
X156867123Y-160443273D01*
X156851766Y-160438291D01*
X156778893Y-160423554D01*
X156697520Y-160417211D01*
X156619143Y-160419561D01*
X156556209Y-160430618D01*
X156477963Y-160467176D01*
X156414625Y-160523455D01*
X156368768Y-160594710D01*
X156342963Y-160676196D01*
X156339783Y-160763167D01*
X156348965Y-160812953D01*
X156371072Y-160868046D01*
X156407826Y-160919280D01*
X156461310Y-160968036D01*
X156533607Y-161015698D01*
X156626801Y-161063648D01*
X156742975Y-161113270D01*
X156876969Y-161163377D01*
X156999484Y-161206997D01*
X157098537Y-161242452D01*
X157176519Y-161270650D01*
X157235822Y-161292499D01*
X157278837Y-161308909D01*
X157307956Y-161320789D01*
X157325571Y-161329046D01*
X157334073Y-161334591D01*
X157335922Y-161337775D01*
X157326756Y-161351032D01*
X157301194Y-161380609D01*
X157262145Y-161423502D01*
X157212516Y-161476705D01*
X157155216Y-161537212D01*
X157093151Y-161602017D01*
X157029230Y-161668115D01*
X156966361Y-161732501D01*
X156907450Y-161792168D01*
X156855406Y-161844112D01*
X156813136Y-161885327D01*
X156783548Y-161912806D01*
X156769550Y-161923545D01*
X156769182Y-161923590D01*
X156750914Y-161919189D01*
X156711995Y-161907946D01*
X156657836Y-161891477D01*
X156593849Y-161871400D01*
X156582416Y-161867756D01*
X156401502Y-161808245D01*
X156244926Y-161752778D01*
X156110153Y-161700051D01*
X155994648Y-161648759D01*
X155895877Y-161597597D01*
X155811305Y-161545262D01*
X155738396Y-161490448D01*
X155674616Y-161431852D01*
X155621750Y-161373395D01*
X155548505Y-161274338D01*
X155494269Y-161173770D01*
X155457196Y-161066068D01*
X155435437Y-160945612D01*
X155427144Y-160806779D01*
X155426940Y-160780745D01*
X155436493Y-160608858D01*
X155466343Y-160454595D01*
X155517528Y-160316090D01*
X155591084Y-160191478D01*
X155688048Y-160078891D01*
X155809459Y-159976465D01*
X155911953Y-159908351D01*
X156052206Y-159836987D01*
X156209606Y-159783028D01*
X156385699Y-159746075D01*
X156582034Y-159725730D01*
X156632065Y-159723286D01*
X156849879Y-159724528D01*
G37*
G36*
X159911543Y-159777910D02*
G01*
X160053427Y-159780052D01*
X160171790Y-159783015D01*
X160270511Y-159787455D01*
X160353468Y-159794029D01*
X160424540Y-159803393D01*
X160487605Y-159816203D01*
X160546542Y-159833116D01*
X160605230Y-159854789D01*
X160667548Y-159881877D01*
X160737373Y-159915037D01*
X160745654Y-159919072D01*
X160817593Y-159955413D01*
X160872906Y-159987381D01*
X160920272Y-160021107D01*
X160968370Y-160062726D01*
X161021433Y-160113958D01*
X161076772Y-160170402D01*
X161117663Y-160217331D01*
X161150260Y-160263296D01*
X161180715Y-160316846D01*
X161210415Y-160376591D01*
X161261700Y-160494957D01*
X161296820Y-160606527D01*
X161317921Y-160720929D01*
X161327148Y-160847787D01*
X161327995Y-160904046D01*
X161323358Y-161038079D01*
X161307409Y-161156032D01*
X161277975Y-161267659D01*
X161232881Y-161382710D01*
X161210654Y-161430463D01*
X161175090Y-161500853D01*
X161142607Y-161555221D01*
X161106405Y-161603102D01*
X161059687Y-161654033D01*
X161029963Y-161683915D01*
X160895738Y-161799370D01*
X160749810Y-161890772D01*
X160588895Y-161960140D01*
X160571549Y-161966044D01*
X160488290Y-161990890D01*
X160401537Y-162010590D01*
X160307133Y-162025593D01*
X160200919Y-162036352D01*
X160078738Y-162043318D01*
X159936431Y-162046943D01*
X159819067Y-162047737D01*
X159486839Y-162048005D01*
X159486839Y-162685060D01*
X159486839Y-163322115D01*
X159055286Y-163322115D01*
X158623732Y-163322115D01*
X158623732Y-162130055D01*
X158623732Y-160937996D01*
X158647137Y-160908612D01*
X158751950Y-160777024D01*
X158932205Y-160543466D01*
X158983933Y-160472492D01*
X159486839Y-160472492D01*
X159486839Y-160908612D01*
X159487151Y-161015392D01*
X159488034Y-161113361D01*
X159489412Y-161199162D01*
X159491208Y-161269440D01*
X159493344Y-161320837D01*
X159495742Y-161349996D01*
X159497114Y-161355309D01*
X159513277Y-161358130D01*
X159552687Y-161360058D01*
X159611208Y-161361038D01*
X159684699Y-161361016D01*
X159769022Y-161359939D01*
X159801942Y-161359266D01*
X159913433Y-161356168D01*
X160001152Y-161352278D01*
X160068723Y-161347309D01*
X160119769Y-161340970D01*
X160157915Y-161332974D01*
X160167815Y-161330072D01*
X160262211Y-161286883D01*
X160338831Y-161222985D01*
X160396863Y-161139061D01*
X160397754Y-161137328D01*
X160416497Y-161098554D01*
X160428516Y-161065223D01*
X160435287Y-161029261D01*
X160438288Y-160982597D01*
X160438995Y-160917158D01*
X160438997Y-160911864D01*
X160438318Y-160844168D01*
X160435335Y-160795710D01*
X160428629Y-160758344D01*
X160416778Y-160723923D01*
X160399860Y-160687341D01*
X160353365Y-160613880D01*
X160297109Y-160561466D01*
X160256678Y-160534518D01*
X160215748Y-160513502D01*
X160170266Y-160497713D01*
X160116176Y-160486448D01*
X160049424Y-160479005D01*
X159965954Y-160474680D01*
X159861711Y-160472771D01*
X159783918Y-160472492D01*
X159486839Y-160472492D01*
X158983933Y-160472492D01*
X159113179Y-160295158D01*
X159286755Y-160043289D01*
X159313883Y-160002522D01*
X159466289Y-159772304D01*
X159911543Y-159777910D01*
G37*
G36*
X148937994Y-160886920D02*
G01*
X148938063Y-161097041D01*
X148938244Y-161281662D01*
X148938640Y-161442682D01*
X148939354Y-161582003D01*
X148940488Y-161701523D01*
X148942145Y-161803144D01*
X148944429Y-161888765D01*
X148947443Y-161960286D01*
X148951288Y-162019608D01*
X148956070Y-162068630D01*
X148961889Y-162109253D01*
X148968850Y-162143376D01*
X148977054Y-162172900D01*
X148986606Y-162199725D01*
X148997608Y-162225750D01*
X149010164Y-162252876D01*
X149012241Y-162257272D01*
X149051583Y-162321133D01*
X149106870Y-162385995D01*
X149170238Y-162444075D01*
X149233820Y-162487591D01*
X149256123Y-162498571D01*
X149369395Y-162534607D01*
X149493157Y-162552309D01*
X149620246Y-162551922D01*
X149743502Y-162533688D01*
X149855762Y-162497850D01*
X149899528Y-162476731D01*
X149980290Y-162419369D01*
X150051832Y-162342995D01*
X150106486Y-162255953D01*
X150110815Y-162246792D01*
X150123511Y-162218626D01*
X150134646Y-162191871D01*
X150144324Y-162164617D01*
X150152647Y-162134950D01*
X150159717Y-162100958D01*
X150165638Y-162060728D01*
X150170513Y-162012348D01*
X150174443Y-161953906D01*
X150177531Y-161883489D01*
X150179882Y-161799184D01*
X150181596Y-161699079D01*
X150182777Y-161581262D01*
X150183528Y-161443820D01*
X150183951Y-161284840D01*
X150184149Y-161102411D01*
X150184225Y-160894619D01*
X150184228Y-160880070D01*
X150184466Y-159773787D01*
X150616019Y-159773787D01*
X151047573Y-159773787D01*
X151047301Y-160914321D01*
X151047086Y-161116661D01*
X151046550Y-161305899D01*
X151045713Y-161480412D01*
X151044592Y-161638580D01*
X151043206Y-161778780D01*
X151041573Y-161899391D01*
X151039711Y-161998791D01*
X151037639Y-162075359D01*
X151035374Y-162127472D01*
X151033395Y-162150755D01*
X150995172Y-162342687D01*
X150937001Y-162517099D01*
X150857678Y-162676456D01*
X150755999Y-162823223D01*
X150645168Y-162945806D01*
X150502795Y-163068324D01*
X150345554Y-163168878D01*
X150172685Y-163247799D01*
X149983425Y-163305416D01*
X149777014Y-163342061D01*
X149717351Y-163348486D01*
X149639999Y-163355382D01*
X149579657Y-163359399D01*
X149527210Y-163360515D01*
X149473544Y-163358708D01*
X149409543Y-163353955D01*
X149339805Y-163347542D01*
X149150068Y-163317915D01*
X148968909Y-163266813D01*
X148799229Y-163195720D01*
X148643932Y-163106120D01*
X148505920Y-162999497D01*
X148388095Y-162877336D01*
X148365890Y-162849461D01*
X148307791Y-162764699D01*
X148250423Y-162664684D01*
X148198332Y-162558587D01*
X148156066Y-162455582D01*
X148130621Y-162374827D01*
X148120967Y-162335858D01*
X148112488Y-162298143D01*
X148105109Y-162259704D01*
X148098753Y-162218560D01*
X148093345Y-162172731D01*
X148088809Y-162120237D01*
X148085068Y-162059099D01*
X148082046Y-161987337D01*
X148079668Y-161902970D01*
X148077858Y-161804019D01*
X148076539Y-161688505D01*
X148075636Y-161554446D01*
X148075072Y-161399863D01*
X148074772Y-161222777D01*
X148074659Y-161021206D01*
X148074649Y-160916754D01*
X148074649Y-159773787D01*
X148506203Y-159773787D01*
X148937756Y-159773787D01*
X148937994Y-160886920D01*
G37*
G36*
X153383544Y-159738680D02*
G01*
X153493994Y-159742551D01*
X153592953Y-159749427D01*
X153674009Y-159759305D01*
X153703250Y-159764797D01*
X153908337Y-159820423D01*
X154094782Y-159894134D01*
X154265948Y-159987688D01*
X154425195Y-160102843D01*
X154532359Y-160198186D01*
X154633138Y-160306720D01*
X154728015Y-160430997D01*
X154812921Y-160564379D01*
X154883790Y-160700229D01*
X154936555Y-160831908D01*
X154951956Y-160882948D01*
X154963300Y-160923203D01*
X154972853Y-160954014D01*
X154974878Y-160959703D01*
X154973778Y-160965006D01*
X154964330Y-160969287D01*
X154944049Y-160972650D01*
X154910449Y-160975198D01*
X154861044Y-160977036D01*
X154793348Y-160978268D01*
X154704875Y-160978998D01*
X154593139Y-160979330D01*
X154504891Y-160979382D01*
X154027346Y-160979368D01*
X153989785Y-160912490D01*
X153911623Y-160800610D01*
X153812440Y-160703411D01*
X153696015Y-160623924D01*
X153566127Y-160565182D01*
X153549999Y-160559731D01*
X153489921Y-160541895D01*
X153435639Y-160530752D01*
X153376716Y-160524824D01*
X153302716Y-160522629D01*
X153287540Y-160522519D01*
X153140862Y-160529804D01*
X153011992Y-160554500D01*
X152896161Y-160598492D01*
X152788600Y-160663664D01*
X152684541Y-160751902D01*
X152669287Y-160766896D01*
X152610639Y-160828342D01*
X152567039Y-160881993D01*
X152531880Y-160936837D01*
X152502363Y-160993866D01*
X152467809Y-161068619D01*
X152441662Y-161133942D01*
X152422794Y-161195805D01*
X152410073Y-161260177D01*
X152402371Y-161333028D01*
X152398558Y-161420329D01*
X152397505Y-161528048D01*
X152397517Y-161547951D01*
X152397800Y-161638982D01*
X152398738Y-161708156D01*
X152400964Y-161761016D01*
X152405113Y-161803106D01*
X152411819Y-161839969D01*
X152421716Y-161877148D01*
X152435439Y-161920186D01*
X152442539Y-161941472D01*
X152504306Y-162088029D01*
X152585091Y-162218115D01*
X152682975Y-162329871D01*
X152796041Y-162421440D01*
X152922371Y-162490966D01*
X153056190Y-162535687D01*
X153147088Y-162550597D01*
X153250731Y-162557007D01*
X153356254Y-162554943D01*
X153452793Y-162544433D01*
X153499892Y-162534606D01*
X153597210Y-162501439D01*
X153696562Y-162453896D01*
X153787090Y-162397688D01*
X153839946Y-162355748D01*
X153879402Y-162314799D01*
X153923312Y-162261004D01*
X153962717Y-162205408D01*
X153965696Y-162200757D01*
X154027346Y-162103506D01*
X154503425Y-162103156D01*
X154614550Y-162103192D01*
X154716474Y-162103454D01*
X154806087Y-162103915D01*
X154880276Y-162104550D01*
X154935931Y-162105333D01*
X154969940Y-162106239D01*
X154979504Y-162107085D01*
X154974340Y-162130276D01*
X154960392Y-162172605D01*
X154939976Y-162228159D01*
X154915406Y-162291023D01*
X154888999Y-162355286D01*
X154863069Y-162415033D01*
X154839933Y-162464351D01*
X154838457Y-162467302D01*
X154736107Y-162640834D01*
X154612364Y-162798621D01*
X154469200Y-162939230D01*
X154308590Y-163061229D01*
X154132505Y-163163183D01*
X153942918Y-163243660D01*
X153741803Y-163301227D01*
X153671083Y-163315338D01*
X153606692Y-163324175D01*
X153523229Y-163331846D01*
X153428396Y-163338014D01*
X153329894Y-163342340D01*
X153235426Y-163344488D01*
X153152691Y-163344120D01*
X153089393Y-163340898D01*
X153088889Y-163340851D01*
X152873325Y-163307112D01*
X152662036Y-163247765D01*
X152459287Y-163164337D01*
X152269342Y-163058357D01*
X152232841Y-163034301D01*
X152073355Y-162910020D01*
X151931921Y-162766437D01*
X151809254Y-162605466D01*
X151706069Y-162429023D01*
X151623081Y-162239025D01*
X151561005Y-162037385D01*
X151520556Y-161826021D01*
X151502449Y-161606846D01*
X151507399Y-161381778D01*
X151534312Y-161163076D01*
X151567717Y-161007478D01*
X151613815Y-160861196D01*
X151676316Y-160713181D01*
X151705044Y-160654368D01*
X151770785Y-160532735D01*
X151837722Y-160428856D01*
X151912560Y-160333649D01*
X152002008Y-160238027D01*
X152039578Y-160201272D01*
X152198769Y-160066089D01*
X152371506Y-159953620D01*
X152559227Y-159863121D01*
X152763370Y-159793847D01*
X152883387Y-159764478D01*
X152955098Y-159753289D01*
X153047381Y-159745118D01*
X153153825Y-159739960D01*
X153268017Y-159737815D01*
X153383544Y-159738680D01*
G37*
G36*
X159132040Y-156631830D02*
G01*
X159312189Y-156667287D01*
X159473542Y-156722377D01*
X159615990Y-156797071D01*
X159739425Y-156891338D01*
X159843741Y-157005151D01*
X159849850Y-157013215D01*
X159919772Y-157121887D01*
X159972094Y-157239172D01*
X160007718Y-157368605D01*
X160027544Y-157513722D01*
X160032473Y-157678056D01*
X160031385Y-157725621D01*
X160014985Y-157924260D01*
X159978244Y-158131085D01*
X159920745Y-158347332D01*
X159842073Y-158574237D01*
X159741809Y-158813036D01*
X159619539Y-159064966D01*
X159513309Y-159262976D01*
X159316146Y-159598077D01*
X159094118Y-159940303D01*
X158848423Y-160288324D01*
X158580260Y-160640813D01*
X158290828Y-160996444D01*
X157981326Y-161353887D01*
X157652952Y-161711816D01*
X157306905Y-162068903D01*
X156944384Y-162423820D01*
X156566588Y-162775240D01*
X156174715Y-163121834D01*
X155769965Y-163462276D01*
X155589158Y-163608933D01*
X155224265Y-163895247D01*
X154860698Y-164167923D01*
X154499394Y-164426508D01*
X154141289Y-164670551D01*
X153787320Y-164899601D01*
X153438423Y-165113207D01*
X153095535Y-165310916D01*
X152759591Y-165492278D01*
X152431529Y-165656841D01*
X152112284Y-165804153D01*
X151802793Y-165933763D01*
X151503992Y-166045219D01*
X151216818Y-166138071D01*
X150942208Y-166211866D01*
X150681096Y-166266153D01*
X150434420Y-166300481D01*
X150203117Y-166314398D01*
X149991692Y-166307752D01*
X149806486Y-166281455D01*
X149638527Y-166235143D01*
X149488565Y-166169504D01*
X149357346Y-166085226D01*
X149245619Y-165982998D01*
X149154133Y-165863508D01*
X149083636Y-165727443D01*
X149034876Y-165575494D01*
X149008602Y-165408347D01*
X149008176Y-165403192D01*
X149004397Y-165202768D01*
X149024451Y-164990499D01*
X149068393Y-164766173D01*
X149136277Y-164529577D01*
X149228160Y-164280497D01*
X149344095Y-164018722D01*
X149391651Y-163921494D01*
X149472272Y-163760518D01*
X149627220Y-163760518D01*
X149782169Y-163760518D01*
X149679620Y-163962595D01*
X149570791Y-164186304D01*
X149480085Y-164393286D01*
X149406422Y-164586363D01*
X149348726Y-164768356D01*
X149306623Y-164938727D01*
X149288780Y-165046415D01*
X149278113Y-165161589D01*
X149274730Y-165276695D01*
X149278741Y-165384173D01*
X149290255Y-165476468D01*
X149298325Y-165512585D01*
X149345771Y-165642265D01*
X149413697Y-165753957D01*
X149501858Y-165847597D01*
X149610008Y-165923120D01*
X149737901Y-165980463D01*
X149885293Y-166019560D01*
X150051938Y-166040347D01*
X150237590Y-166042760D01*
X150442004Y-166026734D01*
X150664934Y-165992204D01*
X150906136Y-165939106D01*
X150913732Y-165937206D01*
X151202622Y-165855618D01*
X151506187Y-165752443D01*
X151823096Y-165628333D01*
X152152017Y-165483939D01*
X152491617Y-165319911D01*
X152840566Y-165136901D01*
X153197530Y-164935560D01*
X153561178Y-164716540D01*
X153930179Y-164480492D01*
X154034196Y-164411489D01*
X154401544Y-164159482D01*
X154764223Y-163898029D01*
X155121346Y-163628132D01*
X155472025Y-163350793D01*
X155815372Y-163067014D01*
X156150499Y-162777797D01*
X156476518Y-162484144D01*
X156792542Y-162187056D01*
X157097683Y-161887536D01*
X157391053Y-161586586D01*
X157671764Y-161285207D01*
X157938928Y-160984402D01*
X158191658Y-160685171D01*
X158429065Y-160388518D01*
X158650262Y-160095445D01*
X158854362Y-159806952D01*
X159040475Y-159524042D01*
X159207715Y-159247717D01*
X159355193Y-158978979D01*
X159482022Y-158718829D01*
X159587314Y-158468271D01*
X159670181Y-158228304D01*
X159729736Y-157999933D01*
X159734109Y-157979073D01*
X159752789Y-157861104D01*
X159762709Y-157737270D01*
X159763752Y-157615809D01*
X159755799Y-157504955D01*
X159741977Y-157425630D01*
X159698633Y-157297056D01*
X159634671Y-157186088D01*
X159549792Y-157092444D01*
X159443695Y-157015844D01*
X159316081Y-156956007D01*
X159202339Y-156921021D01*
X159115295Y-156905076D01*
X159008321Y-156894676D01*
X158888333Y-156889872D01*
X158762245Y-156890720D01*
X158636973Y-156897270D01*
X158519430Y-156909576D01*
X158479881Y-156915500D01*
X158212429Y-156969005D01*
X157929888Y-157043967D01*
X157633431Y-157139793D01*
X157324230Y-157255888D01*
X157003459Y-157391657D01*
X156672291Y-157546506D01*
X156331898Y-157719839D01*
X155983453Y-157911063D01*
X155628130Y-158119582D01*
X155267101Y-158344802D01*
X154901538Y-158586129D01*
X154532616Y-158842968D01*
X154202467Y-159084067D01*
X153939185Y-159280583D01*
X153717362Y-159280583D01*
X153495539Y-159280583D01*
X153610742Y-159190204D01*
X153982054Y-158905490D01*
X154352377Y-158634529D01*
X154720576Y-158377915D01*
X155085516Y-158136240D01*
X155446064Y-157910099D01*
X155801083Y-157700085D01*
X156149439Y-157506791D01*
X156489999Y-157330811D01*
X156821626Y-157172738D01*
X157143187Y-157033165D01*
X157453547Y-156912687D01*
X157751570Y-156811897D01*
X158036124Y-156731387D01*
X158306072Y-156671752D01*
X158479881Y-156643540D01*
X158715778Y-156619927D01*
X158933200Y-156616033D01*
X159132040Y-156631830D01*
G37*
%TO.C,U2*%
D17*
X80030000Y-74110000D02*
X170200000Y-74110000D01*
X170200000Y-170000000D01*
X80030000Y-170000000D01*
X80030000Y-74110000D01*
D10*
X92065000Y-77290000D02*
X159375000Y-77290000D01*
X159375000Y-83005000D01*
X92065000Y-83005000D01*
X92065000Y-77290000D01*
D15*
%TO.C,R2*%
X127550000Y-150000000D02*
X128320000Y-150000000D01*
X128320000Y-148630000D02*
X128320000Y-151370000D01*
X128320000Y-151370000D02*
X134860000Y-151370000D01*
X134860000Y-148630000D02*
X128320000Y-148630000D01*
X134860000Y-151370000D02*
X134860000Y-148630000D01*
X135630000Y-150000000D02*
X134860000Y-150000000D01*
%TO.C,U4*%
D17*
X80042500Y-74140000D02*
X170212500Y-74140000D01*
X170212500Y-170030000D01*
X80042500Y-170030000D01*
X80042500Y-74140000D01*
X80042500Y-74140000D02*
X170212500Y-74140000D01*
X170212500Y-170030000D01*
X80042500Y-170030000D01*
X80042500Y-74140000D01*
D10*
X92077500Y-83035000D02*
X159387500Y-83035000D01*
X159387500Y-88750000D01*
X92077500Y-88750000D01*
X92077500Y-83035000D01*
%TD*%
M02*
