%TF.GenerationSoftware,KiCad,Pcbnew,8.0.2-1*%
%TF.CreationDate,2024-09-16T16:57:07-05:00*%
%TF.ProjectId,BeagleBonePC104,42656167-6c65-4426-9f6e-655043313034,rev?*%
%TF.SameCoordinates,Original*%
%TF.FileFunction,Soldermask,Bot*%
%TF.FilePolarity,Negative*%
%FSLAX46Y46*%
G04 Gerber Fmt 4.6, Leading zero omitted, Abs format (unit mm)*
G04 Created by KiCad (PCBNEW 8.0.2-1) date 2024-09-16 16:57:07*
%MOMM*%
%LPD*%
G01*
G04 APERTURE LIST*
%ADD10C,2.000000*%
%ADD11C,1.600000*%
%ADD12O,1.600000X1.600000*%
%ADD13C,1.524000*%
%ADD14C,6.400000*%
%ADD15R,1.700000X1.700000*%
%ADD16O,1.700000X1.700000*%
G04 APERTURE END LIST*
D10*
%TO.C,TP1*%
X114100000Y-157200000D03*
%TD*%
D11*
%TO.C,R1*%
X92580000Y-145100000D03*
D12*
X82420000Y-145100000D03*
%TD*%
D10*
%TO.C,GND*%
X104900000Y-157200000D03*
%TD*%
D13*
%TO.C,U1*%
X149980000Y-140800000D03*
X149980000Y-138260000D03*
X147440000Y-140800000D03*
X147440000Y-138260000D03*
X144900000Y-140800000D03*
X144900000Y-138260000D03*
X142360000Y-140800000D03*
X142360000Y-138260000D03*
X139820000Y-140800000D03*
X139820000Y-138260000D03*
X137280000Y-140800000D03*
X137280000Y-138260000D03*
X134740000Y-140800000D03*
X134740000Y-138260000D03*
X132200000Y-140800000D03*
X132200000Y-138260000D03*
X129660000Y-140800000D03*
X129660000Y-138260000D03*
X127120000Y-140800000D03*
X127120000Y-138260000D03*
X124580000Y-140800000D03*
X124580000Y-138260000D03*
X122040000Y-140800000D03*
X122040000Y-138260000D03*
X119500000Y-140800000D03*
X119500000Y-138260000D03*
X116960000Y-140800000D03*
X116960000Y-138260000D03*
X114420000Y-140800000D03*
X114420000Y-138260000D03*
X111880000Y-140800000D03*
X111880000Y-138260000D03*
X109340000Y-140800000D03*
X109340000Y-138260000D03*
X106800000Y-140800000D03*
X106800000Y-138260000D03*
X104260000Y-140800000D03*
X104260000Y-138260000D03*
X101720000Y-140800000D03*
X101720000Y-138260000D03*
X99180000Y-140800000D03*
X99180000Y-138260000D03*
X96640000Y-140800000D03*
X96640000Y-138260000D03*
X94100000Y-140800000D03*
X94100000Y-138260000D03*
X149980000Y-92540000D03*
X149980000Y-90000000D03*
X147440000Y-92540000D03*
X147440000Y-90000000D03*
X144900000Y-92540000D03*
X144900000Y-90000000D03*
X142360000Y-92540000D03*
X142360000Y-90000000D03*
X139820000Y-92540000D03*
X139820000Y-90000000D03*
X137280000Y-92540000D03*
X137280000Y-90000000D03*
X134740000Y-92540000D03*
X134740000Y-90000000D03*
X132200000Y-92540000D03*
X132200000Y-90000000D03*
X129660000Y-92540000D03*
X129660000Y-90000000D03*
X127120000Y-92540000D03*
X127120000Y-90000000D03*
X124580000Y-92540000D03*
X124580000Y-90000000D03*
X122040000Y-92540000D03*
X122040000Y-90000000D03*
X119500000Y-92540000D03*
X119500000Y-90000000D03*
X116960000Y-92540000D03*
X116960000Y-90000000D03*
X114420000Y-92540000D03*
X114420000Y-90000000D03*
X111880000Y-92540000D03*
X111880000Y-90000000D03*
X109340000Y-92540000D03*
X109340000Y-90000000D03*
X106800000Y-92540000D03*
X106800000Y-90000000D03*
X104260000Y-92540000D03*
X104260000Y-90000000D03*
X101720000Y-92540000D03*
X101720000Y-90000000D03*
X99180000Y-92540000D03*
X99180000Y-90000000D03*
X96640000Y-92540000D03*
X96640000Y-90000000D03*
X94100000Y-92540000D03*
X94100000Y-90000000D03*
%TD*%
D11*
%TO.C,U7*%
X128600000Y-146865000D03*
X128600000Y-149405000D03*
X128600000Y-151945000D03*
%TD*%
%TO.C,R2*%
X92580000Y-149400000D03*
D12*
X82420000Y-149400000D03*
%TD*%
D14*
%TO.C,U2*%
X85090000Y-164900000D03*
X88900000Y-79170000D03*
X162560000Y-79170000D03*
X165100000Y-164900000D03*
D15*
X93980000Y-86790000D03*
D16*
X93980000Y-84250000D03*
X96520000Y-86790000D03*
X96520000Y-84250000D03*
X99060000Y-86790000D03*
X99060000Y-84250000D03*
X101600000Y-86790000D03*
X101600000Y-84250000D03*
X104140000Y-86790000D03*
X104140000Y-84250000D03*
X106680000Y-86790000D03*
X106680000Y-84250000D03*
X109220000Y-86790000D03*
X109220000Y-84250000D03*
X111760000Y-86790000D03*
X111760000Y-84250000D03*
X114300000Y-86790000D03*
X114300000Y-84250000D03*
X116840000Y-86790000D03*
X116840000Y-84250000D03*
X119380000Y-86790000D03*
X119380000Y-84250000D03*
X121920000Y-86790000D03*
X121920000Y-84250000D03*
X124460000Y-86790000D03*
X124460000Y-84250000D03*
X127000000Y-86790000D03*
X127000000Y-84250000D03*
X129540000Y-86790000D03*
X129540000Y-84250000D03*
X132080000Y-86790000D03*
X132080000Y-84250000D03*
X134620000Y-86790000D03*
X134620000Y-84250000D03*
X137160000Y-86790000D03*
X137160000Y-84250000D03*
X139700000Y-86790000D03*
X139700000Y-84250000D03*
X142240000Y-86790000D03*
X142240000Y-84250000D03*
X144780000Y-86790000D03*
X144780000Y-84250000D03*
X147320000Y-86790000D03*
X147320000Y-84250000D03*
X149860000Y-86790000D03*
X149860000Y-84250000D03*
X152400000Y-86790000D03*
X152400000Y-84250000D03*
X154940000Y-86790000D03*
X154940000Y-84250000D03*
X157480000Y-86790000D03*
X157480000Y-84250000D03*
D15*
X93980000Y-81710000D03*
D16*
X93980000Y-79170000D03*
X96520000Y-81710000D03*
X96520000Y-79170000D03*
X99060000Y-81710000D03*
X99060000Y-79170000D03*
X101600000Y-81710000D03*
X101600000Y-79170000D03*
X104140000Y-81710000D03*
X104140000Y-79170000D03*
X106680000Y-81710000D03*
X106680000Y-79170000D03*
X109220000Y-81710000D03*
X109220000Y-79170000D03*
X111760000Y-81710000D03*
X111760000Y-79170000D03*
X114300000Y-81710000D03*
X114300000Y-79170000D03*
X116840000Y-81710000D03*
X116840000Y-79170000D03*
X119380000Y-81710000D03*
X119380000Y-79170000D03*
X121920000Y-81710000D03*
X121920000Y-79170000D03*
X124460000Y-81710000D03*
X124460000Y-79170000D03*
X127000000Y-81710000D03*
X127000000Y-79170000D03*
X129540000Y-81710000D03*
X129540000Y-79170000D03*
X132080000Y-81710000D03*
X132080000Y-79170000D03*
X134620000Y-81710000D03*
X134620000Y-79170000D03*
X137160000Y-81710000D03*
X137160000Y-79170000D03*
X139700000Y-81710000D03*
X139700000Y-79170000D03*
X142240000Y-81710000D03*
X142240000Y-79170000D03*
X144780000Y-81710000D03*
X144780000Y-79170000D03*
X147320000Y-81710000D03*
X147320000Y-79170000D03*
X149860000Y-81710000D03*
X149860000Y-79170000D03*
X152400000Y-81710000D03*
X152400000Y-79170000D03*
X154940000Y-81710000D03*
X154940000Y-79170000D03*
X157480000Y-81710000D03*
X157480000Y-79170000D03*
%TD*%
D11*
%TO.C,U9*%
X139300000Y-146860000D03*
X139300000Y-149400000D03*
X139300000Y-151940000D03*
%TD*%
%TO.C,U8*%
X134000000Y-146860000D03*
X134000000Y-149400000D03*
X134000000Y-151940000D03*
%TD*%
%TO.C,U6*%
X144680000Y-146860000D03*
X144680000Y-149400000D03*
X144680000Y-151940000D03*
%TD*%
M02*
