%TF.GenerationSoftware,KiCad,Pcbnew,8.0.2-1*%
%TF.CreationDate,2024-09-16T16:57:12-05:00*%
%TF.ProjectId,BeagleBonePC104,42656167-6c65-4426-9f6e-655043313034,rev?*%
%TF.SameCoordinates,Original*%
%TF.FileFunction,Plated,1,4,PTH,Drill*%
%TF.FilePolarity,Positive*%
%FSLAX46Y46*%
G04 Gerber Fmt 4.6, Leading zero omitted, Abs format (unit mm)*
G04 Created by KiCad (PCBNEW 8.0.2-1) date 2024-09-16 16:57:12*
%MOMM*%
%LPD*%
G01*
G04 APERTURE LIST*
%TA.AperFunction,ViaDrill*%
%ADD10C,0.300000*%
%TD*%
%TA.AperFunction,ComponentDrill*%
%ADD11C,0.762000*%
%TD*%
%TA.AperFunction,ComponentDrill*%
%ADD12C,0.800000*%
%TD*%
%TA.AperFunction,ComponentDrill*%
%ADD13C,1.000000*%
%TD*%
%TA.AperFunction,ComponentDrill*%
%ADD14C,3.200000*%
%TD*%
G04 APERTURE END LIST*
D10*
X81700000Y-152600000D03*
X89210000Y-138310000D03*
X90300000Y-136300000D03*
X91430000Y-143800000D03*
X92100000Y-143100000D03*
X97800000Y-81200000D03*
X97850000Y-152100000D03*
X100300000Y-134000000D03*
X100800000Y-83000000D03*
X101330000Y-152300000D03*
X102300000Y-142600000D03*
X102500000Y-134900000D03*
X102900000Y-85500000D03*
X103200000Y-96800000D03*
X104300000Y-126500000D03*
X105400000Y-83700000D03*
X107900000Y-132700000D03*
X108000000Y-129000000D03*
X108100000Y-151500000D03*
X110200000Y-98200000D03*
X110500000Y-94100000D03*
X110509268Y-86281891D03*
X113400000Y-93400000D03*
X113400000Y-134000000D03*
X113500000Y-152600000D03*
X114990000Y-91414058D03*
X115600000Y-139500000D03*
X116200000Y-143300000D03*
X117422000Y-88500000D03*
X117600000Y-147000000D03*
X118100000Y-134900000D03*
X118500000Y-149000000D03*
X118800000Y-146100000D03*
X120900000Y-143300000D03*
X121300000Y-91300000D03*
X121900000Y-144100000D03*
X122600000Y-132400000D03*
X123600000Y-133000000D03*
X123700000Y-97900000D03*
X124700000Y-130700000D03*
X126390380Y-136950000D03*
X126800000Y-134600000D03*
X127300000Y-96000000D03*
X127600000Y-91300000D03*
X128800000Y-144700000D03*
X129700000Y-131400000D03*
X130400000Y-93600000D03*
X130800000Y-80700000D03*
X130800000Y-133000000D03*
X132700000Y-96100000D03*
X133300000Y-93900000D03*
X133400000Y-130600000D03*
X135600000Y-95600000D03*
X136236116Y-152736116D03*
X137500000Y-133700000D03*
X139200000Y-129800000D03*
X140000000Y-130500000D03*
X140300000Y-131300000D03*
X140800000Y-132100000D03*
X140935487Y-132917096D03*
X141100000Y-133700000D03*
X141300000Y-134500000D03*
X142100000Y-149700000D03*
X145990380Y-146309620D03*
X146800000Y-144700000D03*
X146900000Y-149800000D03*
X148623366Y-94550000D03*
X152900000Y-139200000D03*
X156900000Y-143300000D03*
X157000000Y-77870000D03*
D11*
%TO.C,U1*%
X94100000Y-90000000D03*
X94100000Y-92540000D03*
X94100000Y-138260000D03*
X94100000Y-140800000D03*
X96640000Y-90000000D03*
X96640000Y-92540000D03*
X96640000Y-138260000D03*
X96640000Y-140800000D03*
X99180000Y-90000000D03*
X99180000Y-92540000D03*
X99180000Y-138260000D03*
X99180000Y-140800000D03*
X101720000Y-90000000D03*
X101720000Y-92540000D03*
X101720000Y-138260000D03*
X101720000Y-140800000D03*
X104260000Y-90000000D03*
X104260000Y-92540000D03*
X104260000Y-138260000D03*
X104260000Y-140800000D03*
X106800000Y-90000000D03*
X106800000Y-92540000D03*
X106800000Y-138260000D03*
X106800000Y-140800000D03*
X109340000Y-90000000D03*
X109340000Y-92540000D03*
X109340000Y-138260000D03*
X109340000Y-140800000D03*
X111880000Y-90000000D03*
X111880000Y-92540000D03*
X111880000Y-138260000D03*
X111880000Y-140800000D03*
X114420000Y-90000000D03*
X114420000Y-92540000D03*
X114420000Y-138260000D03*
X114420000Y-140800000D03*
X116960000Y-90000000D03*
X116960000Y-92540000D03*
X116960000Y-138260000D03*
X116960000Y-140800000D03*
X119500000Y-90000000D03*
X119500000Y-92540000D03*
X119500000Y-138260000D03*
X119500000Y-140800000D03*
X122040000Y-90000000D03*
X122040000Y-92540000D03*
X122040000Y-138260000D03*
X122040000Y-140800000D03*
X124580000Y-90000000D03*
X124580000Y-92540000D03*
X124580000Y-138260000D03*
X124580000Y-140800000D03*
X127120000Y-90000000D03*
X127120000Y-92540000D03*
X127120000Y-138260000D03*
X127120000Y-140800000D03*
X129660000Y-90000000D03*
X129660000Y-92540000D03*
X129660000Y-138260000D03*
X129660000Y-140800000D03*
X132200000Y-90000000D03*
X132200000Y-92540000D03*
X132200000Y-138260000D03*
X132200000Y-140800000D03*
X134740000Y-90000000D03*
X134740000Y-92540000D03*
X134740000Y-138260000D03*
X134740000Y-140800000D03*
X137280000Y-90000000D03*
X137280000Y-92540000D03*
X137280000Y-138260000D03*
X137280000Y-140800000D03*
X139820000Y-90000000D03*
X139820000Y-92540000D03*
X139820000Y-138260000D03*
X139820000Y-140800000D03*
X142360000Y-90000000D03*
X142360000Y-92540000D03*
X142360000Y-138260000D03*
X142360000Y-140800000D03*
X144900000Y-90000000D03*
X144900000Y-92540000D03*
X144900000Y-138260000D03*
X144900000Y-140800000D03*
X147440000Y-90000000D03*
X147440000Y-92540000D03*
X147440000Y-138260000D03*
X147440000Y-140800000D03*
X149980000Y-90000000D03*
X149980000Y-92540000D03*
X149980000Y-138260000D03*
X149980000Y-140800000D03*
D12*
%TO.C,R1*%
X82420000Y-145100000D03*
%TO.C,R2*%
X82420000Y-149400000D03*
%TO.C,R1*%
X92580000Y-145100000D03*
%TO.C,R2*%
X92580000Y-149400000D03*
%TO.C,U7*%
X128600000Y-146865000D03*
X128600000Y-149405000D03*
X128600000Y-151945000D03*
%TO.C,U8*%
X134000000Y-146860000D03*
X134000000Y-149400000D03*
X134000000Y-151940000D03*
%TO.C,U9*%
X139300000Y-146860000D03*
X139300000Y-149400000D03*
X139300000Y-151940000D03*
%TO.C,U6*%
X144680000Y-146860000D03*
X144680000Y-149400000D03*
X144680000Y-151940000D03*
D13*
%TO.C,U2*%
X93980000Y-79170000D03*
X93980000Y-81710000D03*
X93980000Y-84250000D03*
X93980000Y-86790000D03*
X96520000Y-79170000D03*
X96520000Y-81710000D03*
X96520000Y-84250000D03*
X96520000Y-86790000D03*
X99060000Y-79170000D03*
X99060000Y-81710000D03*
X99060000Y-84250000D03*
X99060000Y-86790000D03*
X101600000Y-79170000D03*
X101600000Y-81710000D03*
X101600000Y-84250000D03*
X101600000Y-86790000D03*
X104140000Y-79170000D03*
X104140000Y-81710000D03*
X104140000Y-84250000D03*
X104140000Y-86790000D03*
%TO.C,GND*%
X104900000Y-157200000D03*
%TO.C,U2*%
X106680000Y-79170000D03*
X106680000Y-81710000D03*
X106680000Y-84250000D03*
X106680000Y-86790000D03*
X109220000Y-79170000D03*
X109220000Y-81710000D03*
X109220000Y-84250000D03*
X109220000Y-86790000D03*
X111760000Y-79170000D03*
X111760000Y-81710000D03*
X111760000Y-84250000D03*
X111760000Y-86790000D03*
%TO.C,TP1*%
X114100000Y-157200000D03*
%TO.C,U2*%
X114300000Y-79170000D03*
X114300000Y-81710000D03*
X114300000Y-84250000D03*
X114300000Y-86790000D03*
X116840000Y-79170000D03*
X116840000Y-81710000D03*
X116840000Y-84250000D03*
X116840000Y-86790000D03*
X119380000Y-79170000D03*
X119380000Y-81710000D03*
X119380000Y-84250000D03*
X119380000Y-86790000D03*
X121920000Y-79170000D03*
X121920000Y-81710000D03*
X121920000Y-84250000D03*
X121920000Y-86790000D03*
X124460000Y-79170000D03*
X124460000Y-81710000D03*
X124460000Y-84250000D03*
X124460000Y-86790000D03*
X127000000Y-79170000D03*
X127000000Y-81710000D03*
X127000000Y-84250000D03*
X127000000Y-86790000D03*
X129540000Y-79170000D03*
X129540000Y-81710000D03*
X129540000Y-84250000D03*
X129540000Y-86790000D03*
X132080000Y-79170000D03*
X132080000Y-81710000D03*
X132080000Y-84250000D03*
X132080000Y-86790000D03*
X134620000Y-79170000D03*
X134620000Y-81710000D03*
X134620000Y-84250000D03*
X134620000Y-86790000D03*
X137160000Y-79170000D03*
X137160000Y-81710000D03*
X137160000Y-84250000D03*
X137160000Y-86790000D03*
X139700000Y-79170000D03*
X139700000Y-81710000D03*
X139700000Y-84250000D03*
X139700000Y-86790000D03*
X142240000Y-79170000D03*
X142240000Y-81710000D03*
X142240000Y-84250000D03*
X142240000Y-86790000D03*
X144780000Y-79170000D03*
X144780000Y-81710000D03*
X144780000Y-84250000D03*
X144780000Y-86790000D03*
X147320000Y-79170000D03*
X147320000Y-81710000D03*
X147320000Y-84250000D03*
X147320000Y-86790000D03*
X149860000Y-79170000D03*
X149860000Y-81710000D03*
X149860000Y-84250000D03*
X149860000Y-86790000D03*
X152400000Y-79170000D03*
X152400000Y-81710000D03*
X152400000Y-84250000D03*
X152400000Y-86790000D03*
X154940000Y-79170000D03*
X154940000Y-81710000D03*
X154940000Y-84250000D03*
X154940000Y-86790000D03*
X157480000Y-79170000D03*
X157480000Y-81710000D03*
X157480000Y-84250000D03*
X157480000Y-86790000D03*
D14*
X85090000Y-164900000D03*
X88900000Y-79170000D03*
X162560000Y-79170000D03*
X165100000Y-164900000D03*
M02*
