G04 #@! TF.GenerationSoftware,KiCad,Pcbnew,8.0.3*
G04 #@! TF.CreationDate,2025-02-01T16:40:27-06:00*
G04 #@! TF.ProjectId,Batt_Boardv1,42617474-5f42-46f6-9172-6476312e6b69,rev?*
G04 #@! TF.SameCoordinates,Original*
G04 #@! TF.FileFunction,Legend,Bot*
G04 #@! TF.FilePolarity,Positive*
%FSLAX46Y46*%
G04 Gerber Fmt 4.6, Leading zero omitted, Abs format (unit mm)*
G04 Created by KiCad (PCBNEW 8.0.3) date 2025-02-01 16:40:27*
%MOMM*%
%LPD*%
G01*
G04 APERTURE LIST*
G04 Aperture macros list*
%AMRoundRect*
0 Rectangle with rounded corners*
0 $1 Rounding radius*
0 $2 $3 $4 $5 $6 $7 $8 $9 X,Y pos of 4 corners*
0 Add a 4 corners polygon primitive as box body*
4,1,4,$2,$3,$4,$5,$6,$7,$8,$9,$2,$3,0*
0 Add four circle primitives for the rounded corners*
1,1,$1+$1,$2,$3*
1,1,$1+$1,$4,$5*
1,1,$1+$1,$6,$7*
1,1,$1+$1,$8,$9*
0 Add four rect primitives between the rounded corners*
20,1,$1+$1,$2,$3,$4,$5,0*
20,1,$1+$1,$4,$5,$6,$7,0*
20,1,$1+$1,$6,$7,$8,$9,0*
20,1,$1+$1,$8,$9,$2,$3,0*%
G04 Aperture macros list end*
%ADD10C,0.150000*%
%ADD11C,0.127000*%
%ADD12C,0.100000*%
%ADD13C,3.600000*%
%ADD14C,6.400000*%
%ADD15C,2.000000*%
%ADD16R,1.700000X1.700000*%
%ADD17O,1.700000X1.700000*%
%ADD18RoundRect,0.102000X2.120000X1.650000X-2.120000X1.650000X-2.120000X-1.650000X2.120000X-1.650000X0*%
%ADD19RoundRect,0.102000X2.120000X2.600000X-2.120000X2.600000X-2.120000X-2.600000X2.120000X-2.600000X0*%
%ADD20RoundRect,0.102000X-2.120000X-2.600000X2.120000X-2.600000X2.120000X2.600000X-2.120000X2.600000X0*%
%ADD21RoundRect,0.102000X-2.120000X-1.650000X2.120000X-1.650000X2.120000X1.650000X-2.120000X1.650000X0*%
G04 APERTURE END LIST*
D10*
X145593587Y-74226009D02*
X145450730Y-74273628D01*
X145450730Y-74273628D02*
X145403111Y-74321247D01*
X145403111Y-74321247D02*
X145355492Y-74416485D01*
X145355492Y-74416485D02*
X145355492Y-74559342D01*
X145355492Y-74559342D02*
X145403111Y-74654580D01*
X145403111Y-74654580D02*
X145450730Y-74702200D01*
X145450730Y-74702200D02*
X145545968Y-74749819D01*
X145545968Y-74749819D02*
X145926920Y-74749819D01*
X145926920Y-74749819D02*
X145926920Y-73749819D01*
X145926920Y-73749819D02*
X145593587Y-73749819D01*
X145593587Y-73749819D02*
X145498349Y-73797438D01*
X145498349Y-73797438D02*
X145450730Y-73845057D01*
X145450730Y-73845057D02*
X145403111Y-73940295D01*
X145403111Y-73940295D02*
X145403111Y-74035533D01*
X145403111Y-74035533D02*
X145450730Y-74130771D01*
X145450730Y-74130771D02*
X145498349Y-74178390D01*
X145498349Y-74178390D02*
X145593587Y-74226009D01*
X145593587Y-74226009D02*
X145926920Y-74226009D01*
X145069777Y-73749819D02*
X144498349Y-73749819D01*
X144784063Y-74749819D02*
X144784063Y-73749819D01*
X144260253Y-73749819D02*
X143641206Y-73749819D01*
X143641206Y-73749819D02*
X143974539Y-74130771D01*
X143974539Y-74130771D02*
X143831682Y-74130771D01*
X143831682Y-74130771D02*
X143736444Y-74178390D01*
X143736444Y-74178390D02*
X143688825Y-74226009D01*
X143688825Y-74226009D02*
X143641206Y-74321247D01*
X143641206Y-74321247D02*
X143641206Y-74559342D01*
X143641206Y-74559342D02*
X143688825Y-74654580D01*
X143688825Y-74654580D02*
X143736444Y-74702200D01*
X143736444Y-74702200D02*
X143831682Y-74749819D01*
X143831682Y-74749819D02*
X144117396Y-74749819D01*
X144117396Y-74749819D02*
X144212634Y-74702200D01*
X144212634Y-74702200D02*
X144260253Y-74654580D01*
X145565714Y-131376009D02*
X145422857Y-131423628D01*
X145422857Y-131423628D02*
X145375238Y-131471247D01*
X145375238Y-131471247D02*
X145327619Y-131566485D01*
X145327619Y-131566485D02*
X145327619Y-131709342D01*
X145327619Y-131709342D02*
X145375238Y-131804580D01*
X145375238Y-131804580D02*
X145422857Y-131852200D01*
X145422857Y-131852200D02*
X145518095Y-131899819D01*
X145518095Y-131899819D02*
X145899047Y-131899819D01*
X145899047Y-131899819D02*
X145899047Y-130899819D01*
X145899047Y-130899819D02*
X145565714Y-130899819D01*
X145565714Y-130899819D02*
X145470476Y-130947438D01*
X145470476Y-130947438D02*
X145422857Y-130995057D01*
X145422857Y-130995057D02*
X145375238Y-131090295D01*
X145375238Y-131090295D02*
X145375238Y-131185533D01*
X145375238Y-131185533D02*
X145422857Y-131280771D01*
X145422857Y-131280771D02*
X145470476Y-131328390D01*
X145470476Y-131328390D02*
X145565714Y-131376009D01*
X145565714Y-131376009D02*
X145899047Y-131376009D01*
X145041904Y-130899819D02*
X144470476Y-130899819D01*
X144756190Y-131899819D02*
X144756190Y-130899819D01*
X144184761Y-130995057D02*
X144137142Y-130947438D01*
X144137142Y-130947438D02*
X144041904Y-130899819D01*
X144041904Y-130899819D02*
X143803809Y-130899819D01*
X143803809Y-130899819D02*
X143708571Y-130947438D01*
X143708571Y-130947438D02*
X143660952Y-130995057D01*
X143660952Y-130995057D02*
X143613333Y-131090295D01*
X143613333Y-131090295D02*
X143613333Y-131185533D01*
X143613333Y-131185533D02*
X143660952Y-131328390D01*
X143660952Y-131328390D02*
X144232380Y-131899819D01*
X144232380Y-131899819D02*
X143613333Y-131899819D01*
X146143504Y-112249809D02*
X146000647Y-112297428D01*
X146000647Y-112297428D02*
X145953028Y-112345047D01*
X145953028Y-112345047D02*
X145905409Y-112440285D01*
X145905409Y-112440285D02*
X145905409Y-112583142D01*
X145905409Y-112583142D02*
X145953028Y-112678380D01*
X145953028Y-112678380D02*
X146000647Y-112726000D01*
X146000647Y-112726000D02*
X146095885Y-112773619D01*
X146095885Y-112773619D02*
X146476837Y-112773619D01*
X146476837Y-112773619D02*
X146476837Y-111773619D01*
X146476837Y-111773619D02*
X146143504Y-111773619D01*
X146143504Y-111773619D02*
X146048266Y-111821238D01*
X146048266Y-111821238D02*
X146000647Y-111868857D01*
X146000647Y-111868857D02*
X145953028Y-111964095D01*
X145953028Y-111964095D02*
X145953028Y-112059333D01*
X145953028Y-112059333D02*
X146000647Y-112154571D01*
X146000647Y-112154571D02*
X146048266Y-112202190D01*
X146048266Y-112202190D02*
X146143504Y-112249809D01*
X146143504Y-112249809D02*
X146476837Y-112249809D01*
X145619694Y-111773619D02*
X145048266Y-111773619D01*
X145333980Y-112773619D02*
X145333980Y-111773619D01*
X144191123Y-112773619D02*
X144762551Y-112773619D01*
X144476837Y-112773619D02*
X144476837Y-111773619D01*
X144476837Y-111773619D02*
X144572075Y-111916476D01*
X144572075Y-111916476D02*
X144667313Y-112011714D01*
X144667313Y-112011714D02*
X144762551Y-112059333D01*
X143333980Y-111773619D02*
X143524456Y-111773619D01*
X143524456Y-111773619D02*
X143619694Y-111821238D01*
X143619694Y-111821238D02*
X143667313Y-111868857D01*
X143667313Y-111868857D02*
X143762551Y-112011714D01*
X143762551Y-112011714D02*
X143810170Y-112202190D01*
X143810170Y-112202190D02*
X143810170Y-112583142D01*
X143810170Y-112583142D02*
X143762551Y-112678380D01*
X143762551Y-112678380D02*
X143714932Y-112726000D01*
X143714932Y-112726000D02*
X143619694Y-112773619D01*
X143619694Y-112773619D02*
X143429218Y-112773619D01*
X143429218Y-112773619D02*
X143333980Y-112726000D01*
X143333980Y-112726000D02*
X143286361Y-112678380D01*
X143286361Y-112678380D02*
X143238742Y-112583142D01*
X143238742Y-112583142D02*
X143238742Y-112345047D01*
X143238742Y-112345047D02*
X143286361Y-112249809D01*
X143286361Y-112249809D02*
X143333980Y-112202190D01*
X143333980Y-112202190D02*
X143429218Y-112154571D01*
X143429218Y-112154571D02*
X143619694Y-112154571D01*
X143619694Y-112154571D02*
X143714932Y-112202190D01*
X143714932Y-112202190D02*
X143762551Y-112249809D01*
X143762551Y-112249809D02*
X143810170Y-112345047D01*
X145489514Y-93199809D02*
X145346657Y-93247428D01*
X145346657Y-93247428D02*
X145299038Y-93295047D01*
X145299038Y-93295047D02*
X145251419Y-93390285D01*
X145251419Y-93390285D02*
X145251419Y-93533142D01*
X145251419Y-93533142D02*
X145299038Y-93628380D01*
X145299038Y-93628380D02*
X145346657Y-93676000D01*
X145346657Y-93676000D02*
X145441895Y-93723619D01*
X145441895Y-93723619D02*
X145822847Y-93723619D01*
X145822847Y-93723619D02*
X145822847Y-92723619D01*
X145822847Y-92723619D02*
X145489514Y-92723619D01*
X145489514Y-92723619D02*
X145394276Y-92771238D01*
X145394276Y-92771238D02*
X145346657Y-92818857D01*
X145346657Y-92818857D02*
X145299038Y-92914095D01*
X145299038Y-92914095D02*
X145299038Y-93009333D01*
X145299038Y-93009333D02*
X145346657Y-93104571D01*
X145346657Y-93104571D02*
X145394276Y-93152190D01*
X145394276Y-93152190D02*
X145489514Y-93199809D01*
X145489514Y-93199809D02*
X145822847Y-93199809D01*
X144965704Y-92723619D02*
X144394276Y-92723619D01*
X144679990Y-93723619D02*
X144679990Y-92723619D01*
X143537133Y-93723619D02*
X144108561Y-93723619D01*
X143822847Y-93723619D02*
X143822847Y-92723619D01*
X143822847Y-92723619D02*
X143918085Y-92866476D01*
X143918085Y-92866476D02*
X144013323Y-92961714D01*
X144013323Y-92961714D02*
X144108561Y-93009333D01*
D11*
X107539230Y-69850000D02*
X111009230Y-69850000D01*
X107539230Y-72325000D02*
X107539230Y-69850000D01*
X107539230Y-76265000D02*
X107539230Y-78740000D01*
X111009230Y-65990000D02*
X120539230Y-65990000D01*
X111009230Y-69850000D02*
X111009230Y-65990000D01*
X111009230Y-78740000D02*
X107539230Y-78740000D01*
X111009230Y-82600000D02*
X111009230Y-78740000D01*
X120539230Y-65990000D02*
X120539230Y-71375000D01*
X120539230Y-77215000D02*
X120539230Y-82600000D01*
X120539230Y-82600000D02*
X111009230Y-82600000D01*
D12*
X126807873Y-73295000D02*
X126807873Y-75295000D01*
X127807873Y-74295000D02*
X125807873Y-74295000D01*
X163807873Y-74295000D02*
X161807873Y-74295000D01*
D11*
X169101542Y-65987424D02*
X178631542Y-65987424D01*
X169101542Y-71372424D02*
X169101542Y-65987424D01*
X169101542Y-82597424D02*
X169101542Y-77212424D01*
X178631542Y-65987424D02*
X178631542Y-69847424D01*
X178631542Y-69847424D02*
X182101542Y-69847424D01*
X178631542Y-78737424D02*
X178631542Y-82597424D01*
X178631542Y-82597424D02*
X169101542Y-82597424D01*
X182101542Y-72322424D02*
X182101542Y-69847424D01*
X182101542Y-76262424D02*
X182101542Y-78737424D01*
X182101542Y-78737424D02*
X178631542Y-78737424D01*
D12*
X177307873Y-65195000D02*
X176207873Y-65195000D01*
X175807873Y-65195000D02*
X174707873Y-65195000D01*
X174307873Y-65195000D02*
X173207873Y-65195000D01*
X172807873Y-65195000D02*
X171707873Y-65195000D01*
X171307873Y-65195000D02*
X170207873Y-65195000D01*
X169807873Y-65195000D02*
X168707873Y-65195000D01*
X168307873Y-65195000D02*
X167207873Y-65195000D01*
X166807873Y-65195000D02*
X165707873Y-65195000D01*
X165307873Y-65195000D02*
X164207873Y-65195000D01*
X163807873Y-65195000D02*
X162707873Y-65195000D01*
X162307873Y-65195000D02*
X161207873Y-65195000D01*
X160807873Y-65195000D02*
X159707873Y-65195000D01*
X159307873Y-65195000D02*
X158207873Y-65195000D01*
X157807873Y-65195000D02*
X156707873Y-65195000D01*
X156307873Y-65195000D02*
X155207873Y-65195000D01*
X154807873Y-65195000D02*
X153707873Y-65195000D01*
X153307873Y-65195000D02*
X152207873Y-65195000D01*
X151807873Y-65195000D02*
X150707873Y-65195000D01*
X150307873Y-65195000D02*
X149207873Y-65195000D01*
X148807873Y-65195000D02*
X147707873Y-65195000D01*
X147307873Y-65195000D02*
X146207873Y-65195000D01*
X145807873Y-65195000D02*
X144707873Y-65195000D01*
X144307873Y-65195000D02*
X143207873Y-65195000D01*
X142807873Y-65195000D02*
X141707873Y-65195000D01*
X141307873Y-65195000D02*
X140207873Y-65195000D01*
X139807873Y-65195000D02*
X138707873Y-65195000D01*
X138307873Y-65195000D02*
X137207873Y-65195000D01*
X136807873Y-65195000D02*
X135707873Y-65195000D01*
X135307873Y-65195000D02*
X134207873Y-65195000D01*
X133807873Y-65195000D02*
X132707873Y-65195000D01*
X132307873Y-65195000D02*
X131207873Y-65195000D01*
X130807873Y-65195000D02*
X129707873Y-65195000D01*
X129307873Y-65195000D02*
X128207873Y-65195000D01*
X127807873Y-65195000D02*
X126707873Y-65195000D01*
X126307873Y-65195000D02*
X125207873Y-65195000D01*
X124807873Y-65195000D02*
X123707873Y-65195000D01*
X123307873Y-65195000D02*
X122207873Y-65195000D01*
X121807873Y-65195000D02*
X120707873Y-65195000D01*
X120307873Y-65195000D02*
X119207873Y-65195000D01*
X118807873Y-65195000D02*
X117707873Y-65195000D01*
X117307873Y-65195000D02*
X116207873Y-65195000D01*
X115807873Y-65195000D02*
X114707873Y-65195000D01*
X114307873Y-65195000D02*
X113207873Y-65195000D01*
X112807873Y-65195000D02*
X112307873Y-65195000D01*
X112307873Y-65195000D02*
X112307873Y-66295000D01*
X112307873Y-66695000D02*
X112307873Y-67795000D01*
X112307873Y-68195000D02*
X112307873Y-69295000D01*
X112307873Y-69695000D02*
X112307873Y-70795000D01*
X112307873Y-71195000D02*
X112307873Y-72295000D01*
X112307873Y-72695000D02*
X112307873Y-73795000D01*
X112307873Y-74195000D02*
X112307873Y-75295000D01*
X112307873Y-75695000D02*
X112307873Y-76795000D01*
X112307873Y-77195000D02*
X112307873Y-78295000D01*
X112307873Y-78695000D02*
X112307873Y-79795000D01*
X112307873Y-80195000D02*
X112307873Y-81295000D01*
X112307873Y-81695000D02*
X112307873Y-82795000D01*
X112307873Y-83195000D02*
X112307873Y-83395000D01*
X112307873Y-83395000D02*
X113407873Y-83395000D01*
X113807873Y-83395000D02*
X114907873Y-83395000D01*
X115307873Y-83395000D02*
X116407873Y-83395000D01*
X116807873Y-83395000D02*
X117907873Y-83395000D01*
X118307873Y-83395000D02*
X119407873Y-83395000D01*
X119807873Y-83395000D02*
X120907873Y-83395000D01*
X121307873Y-83395000D02*
X122407873Y-83395000D01*
X122807873Y-83395000D02*
X123907873Y-83395000D01*
X124307873Y-83395000D02*
X125407873Y-83395000D01*
X125807873Y-83395000D02*
X126907873Y-83395000D01*
X127307873Y-83395000D02*
X128407873Y-83395000D01*
X128807873Y-83395000D02*
X129907873Y-83395000D01*
X130307873Y-83395000D02*
X131407873Y-83395000D01*
X131807873Y-83395000D02*
X132907873Y-83395000D01*
X133307873Y-83395000D02*
X134407873Y-83395000D01*
X134807873Y-83395000D02*
X135907873Y-83395000D01*
X136307873Y-83395000D02*
X137407873Y-83395000D01*
X137807873Y-83395000D02*
X138907873Y-83395000D01*
X139307873Y-83395000D02*
X140407873Y-83395000D01*
X140807873Y-83395000D02*
X141907873Y-83395000D01*
X142307873Y-83395000D02*
X143407873Y-83395000D01*
X143807873Y-83395000D02*
X144907873Y-83395000D01*
X145307873Y-83395000D02*
X146407873Y-83395000D01*
X146807873Y-83395000D02*
X147907873Y-83395000D01*
X148307873Y-83395000D02*
X149407873Y-83395000D01*
X149807873Y-83395000D02*
X150907873Y-83395000D01*
X151307873Y-83395000D02*
X152407873Y-83395000D01*
X152807873Y-83395000D02*
X153907873Y-83395000D01*
X154307873Y-83395000D02*
X155407873Y-83395000D01*
X155807873Y-83395000D02*
X156907873Y-83395000D01*
X157307873Y-83395000D02*
X158407873Y-83395000D01*
X158807873Y-83395000D02*
X159907873Y-83395000D01*
X160307873Y-83395000D02*
X161407873Y-83395000D01*
X161807873Y-83395000D02*
X162907873Y-83395000D01*
X163307873Y-83395000D02*
X164407873Y-83395000D01*
X164807873Y-83395000D02*
X165907873Y-83395000D01*
X166307873Y-83395000D02*
X167407873Y-83395000D01*
X167807873Y-83395000D02*
X168907873Y-83395000D01*
X169307873Y-83395000D02*
X170407873Y-83395000D01*
X170807873Y-83395000D02*
X171907873Y-83395000D01*
X172307873Y-83395000D02*
X173407873Y-83395000D01*
X173807873Y-83395000D02*
X174907873Y-83395000D01*
X175307873Y-83395000D02*
X176407873Y-83395000D01*
X176807873Y-83395000D02*
X177307873Y-83395000D01*
X177307873Y-83395000D02*
X177307873Y-82295000D01*
X177307873Y-81895000D02*
X177307873Y-80795000D01*
X177307873Y-80395000D02*
X177307873Y-79295000D01*
X177307873Y-78895000D02*
X177307873Y-77795000D01*
X177307873Y-77395000D02*
X177307873Y-76295000D01*
X177307873Y-75895000D02*
X177307873Y-74795000D01*
X177307873Y-74395000D02*
X177307873Y-73295000D01*
X177307873Y-72895000D02*
X177307873Y-71795000D01*
X177307873Y-71395000D02*
X177307873Y-70295000D01*
X177307873Y-69895000D02*
X177307873Y-68795000D01*
X177307873Y-68395000D02*
X177307873Y-67295000D01*
X177307873Y-66895000D02*
X177307873Y-65795000D01*
X177307873Y-65395000D02*
X177307873Y-65195000D01*
D11*
X107486331Y-127002576D02*
X110956331Y-127002576D01*
X107486331Y-129477576D02*
X107486331Y-127002576D01*
X107486331Y-133417576D02*
X107486331Y-135892576D01*
X110956331Y-123142576D02*
X120486331Y-123142576D01*
X110956331Y-127002576D02*
X110956331Y-123142576D01*
X110956331Y-135892576D02*
X107486331Y-135892576D01*
X110956331Y-139752576D02*
X110956331Y-135892576D01*
X120486331Y-123142576D02*
X120486331Y-128527576D01*
X120486331Y-134367576D02*
X120486331Y-139752576D01*
X120486331Y-139752576D02*
X110956331Y-139752576D01*
D12*
X125780000Y-131445000D02*
X127780000Y-131445000D01*
X161780000Y-131445000D02*
X163780000Y-131445000D01*
X162780000Y-132445000D02*
X162780000Y-130445000D01*
D11*
X169048643Y-123140000D02*
X178578643Y-123140000D01*
X169048643Y-128525000D02*
X169048643Y-123140000D01*
X169048643Y-139750000D02*
X169048643Y-134365000D01*
X178578643Y-123140000D02*
X178578643Y-127000000D01*
X178578643Y-127000000D02*
X182048643Y-127000000D01*
X178578643Y-135890000D02*
X178578643Y-139750000D01*
X178578643Y-139750000D02*
X169048643Y-139750000D01*
X182048643Y-129475000D02*
X182048643Y-127000000D01*
X182048643Y-133415000D02*
X182048643Y-135890000D01*
X182048643Y-135890000D02*
X178578643Y-135890000D01*
D12*
X112280000Y-140545000D02*
X113380000Y-140545000D01*
X113780000Y-140545000D02*
X114880000Y-140545000D01*
X115280000Y-140545000D02*
X116380000Y-140545000D01*
X116780000Y-140545000D02*
X117880000Y-140545000D01*
X118280000Y-140545000D02*
X119380000Y-140545000D01*
X119780000Y-140545000D02*
X120880000Y-140545000D01*
X121280000Y-140545000D02*
X122380000Y-140545000D01*
X122780000Y-140545000D02*
X123880000Y-140545000D01*
X124280000Y-140545000D02*
X125380000Y-140545000D01*
X125780000Y-140545000D02*
X126880000Y-140545000D01*
X127280000Y-140545000D02*
X128380000Y-140545000D01*
X128780000Y-140545000D02*
X129880000Y-140545000D01*
X130280000Y-140545000D02*
X131380000Y-140545000D01*
X131780000Y-140545000D02*
X132880000Y-140545000D01*
X133280000Y-140545000D02*
X134380000Y-140545000D01*
X134780000Y-140545000D02*
X135880000Y-140545000D01*
X136280000Y-140545000D02*
X137380000Y-140545000D01*
X137780000Y-140545000D02*
X138880000Y-140545000D01*
X139280000Y-140545000D02*
X140380000Y-140545000D01*
X140780000Y-140545000D02*
X141880000Y-140545000D01*
X142280000Y-140545000D02*
X143380000Y-140545000D01*
X143780000Y-140545000D02*
X144880000Y-140545000D01*
X145280000Y-140545000D02*
X146380000Y-140545000D01*
X146780000Y-140545000D02*
X147880000Y-140545000D01*
X148280000Y-140545000D02*
X149380000Y-140545000D01*
X149780000Y-140545000D02*
X150880000Y-140545000D01*
X151280000Y-140545000D02*
X152380000Y-140545000D01*
X152780000Y-140545000D02*
X153880000Y-140545000D01*
X154280000Y-140545000D02*
X155380000Y-140545000D01*
X155780000Y-140545000D02*
X156880000Y-140545000D01*
X157280000Y-140545000D02*
X158380000Y-140545000D01*
X158780000Y-140545000D02*
X159880000Y-140545000D01*
X160280000Y-140545000D02*
X161380000Y-140545000D01*
X161780000Y-140545000D02*
X162880000Y-140545000D01*
X163280000Y-140545000D02*
X164380000Y-140545000D01*
X164780000Y-140545000D02*
X165880000Y-140545000D01*
X166280000Y-140545000D02*
X167380000Y-140545000D01*
X167780000Y-140545000D02*
X168880000Y-140545000D01*
X169280000Y-140545000D02*
X170380000Y-140545000D01*
X170780000Y-140545000D02*
X171880000Y-140545000D01*
X172280000Y-140545000D02*
X173380000Y-140545000D01*
X173780000Y-140545000D02*
X174880000Y-140545000D01*
X175280000Y-140545000D02*
X176380000Y-140545000D01*
X176780000Y-140545000D02*
X177280000Y-140545000D01*
X177280000Y-140545000D02*
X177280000Y-139445000D01*
X177280000Y-139045000D02*
X177280000Y-137945000D01*
X177280000Y-137545000D02*
X177280000Y-136445000D01*
X177280000Y-136045000D02*
X177280000Y-134945000D01*
X177280000Y-134545000D02*
X177280000Y-133445000D01*
X177280000Y-133045000D02*
X177280000Y-131945000D01*
X177280000Y-131545000D02*
X177280000Y-130445000D01*
X177280000Y-130045000D02*
X177280000Y-128945000D01*
X177280000Y-128545000D02*
X177280000Y-127445000D01*
X177280000Y-127045000D02*
X177280000Y-125945000D01*
X177280000Y-125545000D02*
X177280000Y-124445000D01*
X177280000Y-124045000D02*
X177280000Y-122945000D01*
X177280000Y-122545000D02*
X177280000Y-122345000D01*
X177280000Y-122345000D02*
X176180000Y-122345000D01*
X175780000Y-122345000D02*
X174680000Y-122345000D01*
X174280000Y-122345000D02*
X173180000Y-122345000D01*
X172780000Y-122345000D02*
X171680000Y-122345000D01*
X171280000Y-122345000D02*
X170180000Y-122345000D01*
X169780000Y-122345000D02*
X168680000Y-122345000D01*
X168280000Y-122345000D02*
X167180000Y-122345000D01*
X166780000Y-122345000D02*
X165680000Y-122345000D01*
X165280000Y-122345000D02*
X164180000Y-122345000D01*
X163780000Y-122345000D02*
X162680000Y-122345000D01*
X162280000Y-122345000D02*
X161180000Y-122345000D01*
X160780000Y-122345000D02*
X159680000Y-122345000D01*
X159280000Y-122345000D02*
X158180000Y-122345000D01*
X157780000Y-122345000D02*
X156680000Y-122345000D01*
X156280000Y-122345000D02*
X155180000Y-122345000D01*
X154780000Y-122345000D02*
X153680000Y-122345000D01*
X153280000Y-122345000D02*
X152180000Y-122345000D01*
X151780000Y-122345000D02*
X150680000Y-122345000D01*
X150280000Y-122345000D02*
X149180000Y-122345000D01*
X148780000Y-122345000D02*
X147680000Y-122345000D01*
X147280000Y-122345000D02*
X146180000Y-122345000D01*
X145780000Y-122345000D02*
X144680000Y-122345000D01*
X144280000Y-122345000D02*
X143180000Y-122345000D01*
X142780000Y-122345000D02*
X141680000Y-122345000D01*
X141280000Y-122345000D02*
X140180000Y-122345000D01*
X139780000Y-122345000D02*
X138680000Y-122345000D01*
X138280000Y-122345000D02*
X137180000Y-122345000D01*
X136780000Y-122345000D02*
X135680000Y-122345000D01*
X135280000Y-122345000D02*
X134180000Y-122345000D01*
X133780000Y-122345000D02*
X132680000Y-122345000D01*
X132280000Y-122345000D02*
X131180000Y-122345000D01*
X130780000Y-122345000D02*
X129680000Y-122345000D01*
X129280000Y-122345000D02*
X128180000Y-122345000D01*
X127780000Y-122345000D02*
X126680000Y-122345000D01*
X126280000Y-122345000D02*
X125180000Y-122345000D01*
X124780000Y-122345000D02*
X123680000Y-122345000D01*
X123280000Y-122345000D02*
X122180000Y-122345000D01*
X121780000Y-122345000D02*
X120680000Y-122345000D01*
X120280000Y-122345000D02*
X119180000Y-122345000D01*
X118780000Y-122345000D02*
X117680000Y-122345000D01*
X117280000Y-122345000D02*
X116180000Y-122345000D01*
X115780000Y-122345000D02*
X114680000Y-122345000D01*
X114280000Y-122345000D02*
X113180000Y-122345000D01*
X112780000Y-122345000D02*
X112280000Y-122345000D01*
X112280000Y-122345000D02*
X112280000Y-123445000D01*
X112280000Y-123845000D02*
X112280000Y-124945000D01*
X112280000Y-125345000D02*
X112280000Y-126445000D01*
X112280000Y-126845000D02*
X112280000Y-127945000D01*
X112280000Y-128345000D02*
X112280000Y-129445000D01*
X112280000Y-129845000D02*
X112280000Y-130945000D01*
X112280000Y-131345000D02*
X112280000Y-132445000D01*
X112280000Y-132845000D02*
X112280000Y-133945000D01*
X112280000Y-134345000D02*
X112280000Y-135445000D01*
X112280000Y-135845000D02*
X112280000Y-136945000D01*
X112280000Y-137345000D02*
X112280000Y-138445000D01*
X112280000Y-138845000D02*
X112280000Y-139945000D01*
X112280000Y-140345000D02*
X112280000Y-140545000D01*
D11*
X107487794Y-107950000D02*
X110957794Y-107950000D01*
X107487794Y-110425000D02*
X107487794Y-107950000D01*
X107487794Y-114365000D02*
X107487794Y-116840000D01*
X110957794Y-104090000D02*
X120487794Y-104090000D01*
X110957794Y-107950000D02*
X110957794Y-104090000D01*
X110957794Y-116840000D02*
X107487794Y-116840000D01*
X110957794Y-120700000D02*
X110957794Y-116840000D01*
X120487794Y-104090000D02*
X120487794Y-109475000D01*
X120487794Y-115315000D02*
X120487794Y-120700000D01*
X120487794Y-120700000D02*
X110957794Y-120700000D01*
D12*
X125781463Y-112392424D02*
X127781463Y-112392424D01*
X161781463Y-112392424D02*
X163781463Y-112392424D01*
X162781463Y-113392424D02*
X162781463Y-111392424D01*
D11*
X169050106Y-104087424D02*
X178580106Y-104087424D01*
X169050106Y-109472424D02*
X169050106Y-104087424D01*
X169050106Y-120697424D02*
X169050106Y-115312424D01*
X178580106Y-104087424D02*
X178580106Y-107947424D01*
X178580106Y-107947424D02*
X182050106Y-107947424D01*
X178580106Y-116837424D02*
X178580106Y-120697424D01*
X178580106Y-120697424D02*
X169050106Y-120697424D01*
X182050106Y-110422424D02*
X182050106Y-107947424D01*
X182050106Y-114362424D02*
X182050106Y-116837424D01*
X182050106Y-116837424D02*
X178580106Y-116837424D01*
D12*
X112281463Y-121492424D02*
X113381463Y-121492424D01*
X113781463Y-121492424D02*
X114881463Y-121492424D01*
X115281463Y-121492424D02*
X116381463Y-121492424D01*
X116781463Y-121492424D02*
X117881463Y-121492424D01*
X118281463Y-121492424D02*
X119381463Y-121492424D01*
X119781463Y-121492424D02*
X120881463Y-121492424D01*
X121281463Y-121492424D02*
X122381463Y-121492424D01*
X122781463Y-121492424D02*
X123881463Y-121492424D01*
X124281463Y-121492424D02*
X125381463Y-121492424D01*
X125781463Y-121492424D02*
X126881463Y-121492424D01*
X127281463Y-121492424D02*
X128381463Y-121492424D01*
X128781463Y-121492424D02*
X129881463Y-121492424D01*
X130281463Y-121492424D02*
X131381463Y-121492424D01*
X131781463Y-121492424D02*
X132881463Y-121492424D01*
X133281463Y-121492424D02*
X134381463Y-121492424D01*
X134781463Y-121492424D02*
X135881463Y-121492424D01*
X136281463Y-121492424D02*
X137381463Y-121492424D01*
X137781463Y-121492424D02*
X138881463Y-121492424D01*
X139281463Y-121492424D02*
X140381463Y-121492424D01*
X140781463Y-121492424D02*
X141881463Y-121492424D01*
X142281463Y-121492424D02*
X143381463Y-121492424D01*
X143781463Y-121492424D02*
X144881463Y-121492424D01*
X145281463Y-121492424D02*
X146381463Y-121492424D01*
X146781463Y-121492424D02*
X147881463Y-121492424D01*
X148281463Y-121492424D02*
X149381463Y-121492424D01*
X149781463Y-121492424D02*
X150881463Y-121492424D01*
X151281463Y-121492424D02*
X152381463Y-121492424D01*
X152781463Y-121492424D02*
X153881463Y-121492424D01*
X154281463Y-121492424D02*
X155381463Y-121492424D01*
X155781463Y-121492424D02*
X156881463Y-121492424D01*
X157281463Y-121492424D02*
X158381463Y-121492424D01*
X158781463Y-121492424D02*
X159881463Y-121492424D01*
X160281463Y-121492424D02*
X161381463Y-121492424D01*
X161781463Y-121492424D02*
X162881463Y-121492424D01*
X163281463Y-121492424D02*
X164381463Y-121492424D01*
X164781463Y-121492424D02*
X165881463Y-121492424D01*
X166281463Y-121492424D02*
X167381463Y-121492424D01*
X167781463Y-121492424D02*
X168881463Y-121492424D01*
X169281463Y-121492424D02*
X170381463Y-121492424D01*
X170781463Y-121492424D02*
X171881463Y-121492424D01*
X172281463Y-121492424D02*
X173381463Y-121492424D01*
X173781463Y-121492424D02*
X174881463Y-121492424D01*
X175281463Y-121492424D02*
X176381463Y-121492424D01*
X176781463Y-121492424D02*
X177281463Y-121492424D01*
X177281463Y-121492424D02*
X177281463Y-120392424D01*
X177281463Y-119992424D02*
X177281463Y-118892424D01*
X177281463Y-118492424D02*
X177281463Y-117392424D01*
X177281463Y-116992424D02*
X177281463Y-115892424D01*
X177281463Y-115492424D02*
X177281463Y-114392424D01*
X177281463Y-113992424D02*
X177281463Y-112892424D01*
X177281463Y-112492424D02*
X177281463Y-111392424D01*
X177281463Y-110992424D02*
X177281463Y-109892424D01*
X177281463Y-109492424D02*
X177281463Y-108392424D01*
X177281463Y-107992424D02*
X177281463Y-106892424D01*
X177281463Y-106492424D02*
X177281463Y-105392424D01*
X177281463Y-104992424D02*
X177281463Y-103892424D01*
X177281463Y-103492424D02*
X177281463Y-103292424D01*
X177281463Y-103292424D02*
X176181463Y-103292424D01*
X175781463Y-103292424D02*
X174681463Y-103292424D01*
X174281463Y-103292424D02*
X173181463Y-103292424D01*
X172781463Y-103292424D02*
X171681463Y-103292424D01*
X171281463Y-103292424D02*
X170181463Y-103292424D01*
X169781463Y-103292424D02*
X168681463Y-103292424D01*
X168281463Y-103292424D02*
X167181463Y-103292424D01*
X166781463Y-103292424D02*
X165681463Y-103292424D01*
X165281463Y-103292424D02*
X164181463Y-103292424D01*
X163781463Y-103292424D02*
X162681463Y-103292424D01*
X162281463Y-103292424D02*
X161181463Y-103292424D01*
X160781463Y-103292424D02*
X159681463Y-103292424D01*
X159281463Y-103292424D02*
X158181463Y-103292424D01*
X157781463Y-103292424D02*
X156681463Y-103292424D01*
X156281463Y-103292424D02*
X155181463Y-103292424D01*
X154781463Y-103292424D02*
X153681463Y-103292424D01*
X153281463Y-103292424D02*
X152181463Y-103292424D01*
X151781463Y-103292424D02*
X150681463Y-103292424D01*
X150281463Y-103292424D02*
X149181463Y-103292424D01*
X148781463Y-103292424D02*
X147681463Y-103292424D01*
X147281463Y-103292424D02*
X146181463Y-103292424D01*
X145781463Y-103292424D02*
X144681463Y-103292424D01*
X144281463Y-103292424D02*
X143181463Y-103292424D01*
X142781463Y-103292424D02*
X141681463Y-103292424D01*
X141281463Y-103292424D02*
X140181463Y-103292424D01*
X139781463Y-103292424D02*
X138681463Y-103292424D01*
X138281463Y-103292424D02*
X137181463Y-103292424D01*
X136781463Y-103292424D02*
X135681463Y-103292424D01*
X135281463Y-103292424D02*
X134181463Y-103292424D01*
X133781463Y-103292424D02*
X132681463Y-103292424D01*
X132281463Y-103292424D02*
X131181463Y-103292424D01*
X130781463Y-103292424D02*
X129681463Y-103292424D01*
X129281463Y-103292424D02*
X128181463Y-103292424D01*
X127781463Y-103292424D02*
X126681463Y-103292424D01*
X126281463Y-103292424D02*
X125181463Y-103292424D01*
X124781463Y-103292424D02*
X123681463Y-103292424D01*
X123281463Y-103292424D02*
X122181463Y-103292424D01*
X121781463Y-103292424D02*
X120681463Y-103292424D01*
X120281463Y-103292424D02*
X119181463Y-103292424D01*
X118781463Y-103292424D02*
X117681463Y-103292424D01*
X117281463Y-103292424D02*
X116181463Y-103292424D01*
X115781463Y-103292424D02*
X114681463Y-103292424D01*
X114281463Y-103292424D02*
X113181463Y-103292424D01*
X112781463Y-103292424D02*
X112281463Y-103292424D01*
X112281463Y-103292424D02*
X112281463Y-104392424D01*
X112281463Y-104792424D02*
X112281463Y-105892424D01*
X112281463Y-106292424D02*
X112281463Y-107392424D01*
X112281463Y-107792424D02*
X112281463Y-108892424D01*
X112281463Y-109292424D02*
X112281463Y-110392424D01*
X112281463Y-110792424D02*
X112281463Y-111892424D01*
X112281463Y-112292424D02*
X112281463Y-113392424D01*
X112281463Y-113792424D02*
X112281463Y-114892424D01*
X112281463Y-115292424D02*
X112281463Y-116392424D01*
X112281463Y-116792424D02*
X112281463Y-117892424D01*
X112281463Y-118292424D02*
X112281463Y-119392424D01*
X112281463Y-119792424D02*
X112281463Y-120892424D01*
X112281463Y-121292424D02*
X112281463Y-121492424D01*
D11*
X107473555Y-88900000D02*
X110943555Y-88900000D01*
X107473555Y-91375000D02*
X107473555Y-88900000D01*
X107473555Y-95315000D02*
X107473555Y-97790000D01*
X110943555Y-85040000D02*
X120473555Y-85040000D01*
X110943555Y-88900000D02*
X110943555Y-85040000D01*
X110943555Y-97790000D02*
X107473555Y-97790000D01*
X110943555Y-101650000D02*
X110943555Y-97790000D01*
X120473555Y-85040000D02*
X120473555Y-90425000D01*
X120473555Y-96265000D02*
X120473555Y-101650000D01*
X120473555Y-101650000D02*
X110943555Y-101650000D01*
D12*
X125767224Y-93342424D02*
X127767224Y-93342424D01*
X161767224Y-93342424D02*
X163767224Y-93342424D01*
X162767224Y-94342424D02*
X162767224Y-92342424D01*
D11*
X169035867Y-85037424D02*
X178565867Y-85037424D01*
X169035867Y-90422424D02*
X169035867Y-85037424D01*
X169035867Y-101647424D02*
X169035867Y-96262424D01*
X178565867Y-85037424D02*
X178565867Y-88897424D01*
X178565867Y-88897424D02*
X182035867Y-88897424D01*
X178565867Y-97787424D02*
X178565867Y-101647424D01*
X178565867Y-101647424D02*
X169035867Y-101647424D01*
X182035867Y-91372424D02*
X182035867Y-88897424D01*
X182035867Y-95312424D02*
X182035867Y-97787424D01*
X182035867Y-97787424D02*
X178565867Y-97787424D01*
D12*
X112267224Y-102442424D02*
X113367224Y-102442424D01*
X113767224Y-102442424D02*
X114867224Y-102442424D01*
X115267224Y-102442424D02*
X116367224Y-102442424D01*
X116767224Y-102442424D02*
X117867224Y-102442424D01*
X118267224Y-102442424D02*
X119367224Y-102442424D01*
X119767224Y-102442424D02*
X120867224Y-102442424D01*
X121267224Y-102442424D02*
X122367224Y-102442424D01*
X122767224Y-102442424D02*
X123867224Y-102442424D01*
X124267224Y-102442424D02*
X125367224Y-102442424D01*
X125767224Y-102442424D02*
X126867224Y-102442424D01*
X127267224Y-102442424D02*
X128367224Y-102442424D01*
X128767224Y-102442424D02*
X129867224Y-102442424D01*
X130267224Y-102442424D02*
X131367224Y-102442424D01*
X131767224Y-102442424D02*
X132867224Y-102442424D01*
X133267224Y-102442424D02*
X134367224Y-102442424D01*
X134767224Y-102442424D02*
X135867224Y-102442424D01*
X136267224Y-102442424D02*
X137367224Y-102442424D01*
X137767224Y-102442424D02*
X138867224Y-102442424D01*
X139267224Y-102442424D02*
X140367224Y-102442424D01*
X140767224Y-102442424D02*
X141867224Y-102442424D01*
X142267224Y-102442424D02*
X143367224Y-102442424D01*
X143767224Y-102442424D02*
X144867224Y-102442424D01*
X145267224Y-102442424D02*
X146367224Y-102442424D01*
X146767224Y-102442424D02*
X147867224Y-102442424D01*
X148267224Y-102442424D02*
X149367224Y-102442424D01*
X149767224Y-102442424D02*
X150867224Y-102442424D01*
X151267224Y-102442424D02*
X152367224Y-102442424D01*
X152767224Y-102442424D02*
X153867224Y-102442424D01*
X154267224Y-102442424D02*
X155367224Y-102442424D01*
X155767224Y-102442424D02*
X156867224Y-102442424D01*
X157267224Y-102442424D02*
X158367224Y-102442424D01*
X158767224Y-102442424D02*
X159867224Y-102442424D01*
X160267224Y-102442424D02*
X161367224Y-102442424D01*
X161767224Y-102442424D02*
X162867224Y-102442424D01*
X163267224Y-102442424D02*
X164367224Y-102442424D01*
X164767224Y-102442424D02*
X165867224Y-102442424D01*
X166267224Y-102442424D02*
X167367224Y-102442424D01*
X167767224Y-102442424D02*
X168867224Y-102442424D01*
X169267224Y-102442424D02*
X170367224Y-102442424D01*
X170767224Y-102442424D02*
X171867224Y-102442424D01*
X172267224Y-102442424D02*
X173367224Y-102442424D01*
X173767224Y-102442424D02*
X174867224Y-102442424D01*
X175267224Y-102442424D02*
X176367224Y-102442424D01*
X176767224Y-102442424D02*
X177267224Y-102442424D01*
X177267224Y-102442424D02*
X177267224Y-101342424D01*
X177267224Y-100942424D02*
X177267224Y-99842424D01*
X177267224Y-99442424D02*
X177267224Y-98342424D01*
X177267224Y-97942424D02*
X177267224Y-96842424D01*
X177267224Y-96442424D02*
X177267224Y-95342424D01*
X177267224Y-94942424D02*
X177267224Y-93842424D01*
X177267224Y-93442424D02*
X177267224Y-92342424D01*
X177267224Y-91942424D02*
X177267224Y-90842424D01*
X177267224Y-90442424D02*
X177267224Y-89342424D01*
X177267224Y-88942424D02*
X177267224Y-87842424D01*
X177267224Y-87442424D02*
X177267224Y-86342424D01*
X177267224Y-85942424D02*
X177267224Y-84842424D01*
X177267224Y-84442424D02*
X177267224Y-84242424D01*
X177267224Y-84242424D02*
X176167224Y-84242424D01*
X175767224Y-84242424D02*
X174667224Y-84242424D01*
X174267224Y-84242424D02*
X173167224Y-84242424D01*
X172767224Y-84242424D02*
X171667224Y-84242424D01*
X171267224Y-84242424D02*
X170167224Y-84242424D01*
X169767224Y-84242424D02*
X168667224Y-84242424D01*
X168267224Y-84242424D02*
X167167224Y-84242424D01*
X166767224Y-84242424D02*
X165667224Y-84242424D01*
X165267224Y-84242424D02*
X164167224Y-84242424D01*
X163767224Y-84242424D02*
X162667224Y-84242424D01*
X162267224Y-84242424D02*
X161167224Y-84242424D01*
X160767224Y-84242424D02*
X159667224Y-84242424D01*
X159267224Y-84242424D02*
X158167224Y-84242424D01*
X157767224Y-84242424D02*
X156667224Y-84242424D01*
X156267224Y-84242424D02*
X155167224Y-84242424D01*
X154767224Y-84242424D02*
X153667224Y-84242424D01*
X153267224Y-84242424D02*
X152167224Y-84242424D01*
X151767224Y-84242424D02*
X150667224Y-84242424D01*
X150267224Y-84242424D02*
X149167224Y-84242424D01*
X148767224Y-84242424D02*
X147667224Y-84242424D01*
X147267224Y-84242424D02*
X146167224Y-84242424D01*
X145767224Y-84242424D02*
X144667224Y-84242424D01*
X144267224Y-84242424D02*
X143167224Y-84242424D01*
X142767224Y-84242424D02*
X141667224Y-84242424D01*
X141267224Y-84242424D02*
X140167224Y-84242424D01*
X139767224Y-84242424D02*
X138667224Y-84242424D01*
X138267224Y-84242424D02*
X137167224Y-84242424D01*
X136767224Y-84242424D02*
X135667224Y-84242424D01*
X135267224Y-84242424D02*
X134167224Y-84242424D01*
X133767224Y-84242424D02*
X132667224Y-84242424D01*
X132267224Y-84242424D02*
X131167224Y-84242424D01*
X130767224Y-84242424D02*
X129667224Y-84242424D01*
X129267224Y-84242424D02*
X128167224Y-84242424D01*
X127767224Y-84242424D02*
X126667224Y-84242424D01*
X126267224Y-84242424D02*
X125167224Y-84242424D01*
X124767224Y-84242424D02*
X123667224Y-84242424D01*
X123267224Y-84242424D02*
X122167224Y-84242424D01*
X121767224Y-84242424D02*
X120667224Y-84242424D01*
X120267224Y-84242424D02*
X119167224Y-84242424D01*
X118767224Y-84242424D02*
X117667224Y-84242424D01*
X117267224Y-84242424D02*
X116167224Y-84242424D01*
X115767224Y-84242424D02*
X114667224Y-84242424D01*
X114267224Y-84242424D02*
X113167224Y-84242424D01*
X112767224Y-84242424D02*
X112267224Y-84242424D01*
X112267224Y-84242424D02*
X112267224Y-85342424D01*
X112267224Y-85742424D02*
X112267224Y-86842424D01*
X112267224Y-87242424D02*
X112267224Y-88342424D01*
X112267224Y-88742424D02*
X112267224Y-89842424D01*
X112267224Y-90242424D02*
X112267224Y-91342424D01*
X112267224Y-91742424D02*
X112267224Y-92842424D01*
X112267224Y-93242424D02*
X112267224Y-94342424D01*
X112267224Y-94742424D02*
X112267224Y-95842424D01*
X112267224Y-96242424D02*
X112267224Y-97342424D01*
X112267224Y-97742424D02*
X112267224Y-98842424D01*
X112267224Y-99242424D02*
X112267224Y-100342424D01*
X112267224Y-100742424D02*
X112267224Y-101842424D01*
X112267224Y-102242424D02*
X112267224Y-102442424D01*
%LPC*%
D13*
X108527800Y-54731000D03*
D14*
X108527800Y-54731000D03*
D13*
X184727800Y-140461000D03*
D14*
X184727800Y-140461000D03*
D15*
X162229800Y-121733732D03*
D13*
X104717800Y-140461000D03*
D14*
X104717800Y-140461000D03*
D15*
X162229800Y-111048800D03*
D16*
X113607800Y-62346000D03*
D17*
X113607800Y-59806000D03*
X116147800Y-62346000D03*
X116147800Y-59806000D03*
X118687800Y-62346000D03*
X118687800Y-59806000D03*
X121227800Y-62346000D03*
X121227800Y-59806000D03*
X123767800Y-62346000D03*
X123767800Y-59806000D03*
X126307800Y-62346000D03*
X126307800Y-59806000D03*
X128847800Y-62346000D03*
X128847800Y-59806000D03*
X131387800Y-62346000D03*
X131387800Y-59806000D03*
X133927800Y-62346000D03*
X133927800Y-59806000D03*
X136467800Y-62346000D03*
X136467800Y-59806000D03*
X139007800Y-62346000D03*
X139007800Y-59806000D03*
X141547800Y-62346000D03*
X141547800Y-59806000D03*
X144087800Y-62346000D03*
X144087800Y-59806000D03*
X146627800Y-62346000D03*
X146627800Y-59806000D03*
X149167800Y-62346000D03*
X149167800Y-59806000D03*
X151707800Y-62346000D03*
X151707800Y-59806000D03*
X154247800Y-62346000D03*
X154247800Y-59806000D03*
X156787800Y-62346000D03*
X156787800Y-59806000D03*
X159327800Y-62346000D03*
X159327800Y-59806000D03*
X161867800Y-62346000D03*
X161867800Y-59806000D03*
X164407800Y-62346000D03*
X164407800Y-59806000D03*
X166947800Y-62346000D03*
X166947800Y-59806000D03*
X169487800Y-62346000D03*
X169487800Y-59806000D03*
X172027800Y-62346000D03*
X172027800Y-59806000D03*
X174567800Y-62346000D03*
X174567800Y-59806000D03*
X177107800Y-62346000D03*
X177107800Y-59806000D03*
D15*
X162229800Y-127076200D03*
D16*
X113607800Y-57266000D03*
D17*
X113607800Y-54726000D03*
X116147800Y-57266000D03*
X116147800Y-54726000D03*
X118687800Y-57266000D03*
X118687800Y-54726000D03*
X121227800Y-57266000D03*
X121227800Y-54726000D03*
X123767800Y-57266000D03*
X123767800Y-54726000D03*
X126307800Y-57266000D03*
X126307800Y-54726000D03*
X128847800Y-57266000D03*
X128847800Y-54726000D03*
X131387800Y-57266000D03*
X131387800Y-54726000D03*
X133927800Y-57266000D03*
X133927800Y-54726000D03*
X136467800Y-57266000D03*
X136467800Y-54726000D03*
X139007800Y-57266000D03*
X139007800Y-54726000D03*
X141547800Y-57266000D03*
X141547800Y-54726000D03*
X144087800Y-57266000D03*
X144087800Y-54726000D03*
X146627800Y-57266000D03*
X146627800Y-54726000D03*
X149167800Y-57266000D03*
X149167800Y-54726000D03*
X151707800Y-57266000D03*
X151707800Y-54726000D03*
X154247800Y-57266000D03*
X154247800Y-54726000D03*
X156787800Y-57266000D03*
X156787800Y-54726000D03*
X159327800Y-57266000D03*
X159327800Y-54726000D03*
X161867800Y-57266000D03*
X161867800Y-54726000D03*
X164407800Y-57266000D03*
X164407800Y-54726000D03*
X166947800Y-57266000D03*
X166947800Y-54726000D03*
X169487800Y-57266000D03*
X169487800Y-54726000D03*
X172027800Y-57266000D03*
X172027800Y-54726000D03*
X174567800Y-57266000D03*
X174567800Y-54726000D03*
X177107800Y-57266000D03*
X177107800Y-54726000D03*
D15*
X162229800Y-116391266D03*
D13*
X182187800Y-54731000D03*
D14*
X182187800Y-54731000D03*
D18*
X106594230Y-74295000D03*
D19*
X122604230Y-74295000D03*
D20*
X167036542Y-74292424D03*
D21*
X183046542Y-74292424D03*
X182993643Y-131445000D03*
D20*
X166983643Y-131445000D03*
D19*
X122551331Y-131447576D03*
D18*
X106541331Y-131447576D03*
D21*
X182995106Y-112392424D03*
D20*
X166985106Y-112392424D03*
D19*
X122552794Y-112395000D03*
D18*
X106542794Y-112395000D03*
D21*
X182980867Y-93342424D03*
D20*
X166970867Y-93342424D03*
D19*
X122538555Y-93345000D03*
D18*
X106528555Y-93345000D03*
%LPD*%
M02*
