G04 #@! TF.GenerationSoftware,KiCad,Pcbnew,8.0.3*
G04 #@! TF.CreationDate,2025-02-01T16:40:27-06:00*
G04 #@! TF.ProjectId,Batt_Boardv1,42617474-5f42-46f6-9172-6476312e6b69,rev?*
G04 #@! TF.SameCoordinates,Original*
G04 #@! TF.FileFunction,Legend,Top*
G04 #@! TF.FilePolarity,Positive*
%FSLAX46Y46*%
G04 Gerber Fmt 4.6, Leading zero omitted, Abs format (unit mm)*
G04 Created by KiCad (PCBNEW 8.0.3) date 2025-02-01 16:40:27*
%MOMM*%
%LPD*%
G01*
G04 APERTURE LIST*
G04 Aperture macros list*
%AMRoundRect*
0 Rectangle with rounded corners*
0 $1 Rounding radius*
0 $2 $3 $4 $5 $6 $7 $8 $9 X,Y pos of 4 corners*
0 Add a 4 corners polygon primitive as box body*
4,1,4,$2,$3,$4,$5,$6,$7,$8,$9,$2,$3,0*
0 Add four circle primitives for the rounded corners*
1,1,$1+$1,$2,$3*
1,1,$1+$1,$4,$5*
1,1,$1+$1,$6,$7*
1,1,$1+$1,$8,$9*
0 Add four rect primitives between the rounded corners*
20,1,$1+$1,$2,$3,$4,$5,0*
20,1,$1+$1,$4,$5,$6,$7,0*
20,1,$1+$1,$6,$7,$8,$9,0*
20,1,$1+$1,$8,$9,$2,$3,0*%
G04 Aperture macros list end*
%ADD10C,0.100000*%
%ADD11C,0.250000*%
%ADD12C,0.150000*%
%ADD13C,0.120000*%
%ADD14C,0.127000*%
%ADD15C,0.000000*%
%ADD16RoundRect,0.150000X0.512500X0.150000X-0.512500X0.150000X-0.512500X-0.150000X0.512500X-0.150000X0*%
%ADD17C,3.600000*%
%ADD18C,6.400000*%
%ADD19RoundRect,0.200000X-0.275000X0.200000X-0.275000X-0.200000X0.275000X-0.200000X0.275000X0.200000X0*%
%ADD20RoundRect,0.250000X-0.362500X-1.425000X0.362500X-1.425000X0.362500X1.425000X-0.362500X1.425000X0*%
%ADD21RoundRect,0.150000X-0.825000X-0.150000X0.825000X-0.150000X0.825000X0.150000X-0.825000X0.150000X0*%
%ADD22C,2.000000*%
%ADD23RoundRect,0.225000X0.250000X-0.225000X0.250000X0.225000X-0.250000X0.225000X-0.250000X-0.225000X0*%
%ADD24RoundRect,0.102000X2.120000X1.650000X-2.120000X1.650000X-2.120000X-1.650000X2.120000X-1.650000X0*%
%ADD25RoundRect,0.102000X2.120000X2.600000X-2.120000X2.600000X-2.120000X-2.600000X2.120000X-2.600000X0*%
%ADD26RoundRect,0.102000X-2.120000X-2.600000X2.120000X-2.600000X2.120000X2.600000X-2.120000X2.600000X0*%
%ADD27RoundRect,0.102000X-2.120000X-1.650000X2.120000X-1.650000X2.120000X1.650000X-2.120000X1.650000X0*%
%ADD28RoundRect,0.225000X-0.225000X-0.250000X0.225000X-0.250000X0.225000X0.250000X-0.225000X0.250000X0*%
%ADD29R,1.700000X1.700000*%
%ADD30O,1.700000X1.700000*%
%ADD31RoundRect,0.200000X0.275000X-0.200000X0.275000X0.200000X-0.275000X0.200000X-0.275000X-0.200000X0*%
G04 APERTURE END LIST*
D10*
X161452996Y-133147354D02*
X161452996Y-141957664D01*
G36*
X142626903Y-133185937D02*
G01*
X142779449Y-133206116D01*
X142946022Y-133248088D01*
X143094614Y-133309431D01*
X143225226Y-133390145D01*
X143302311Y-133454717D01*
X143401667Y-133564626D01*
X143491602Y-133709523D01*
X143546419Y-133848009D01*
X143580680Y-133999684D01*
X143594384Y-134164548D01*
X143594670Y-134193307D01*
X143584411Y-134346637D01*
X143553634Y-134491737D01*
X143495373Y-134643306D01*
X143464977Y-134701088D01*
X143371826Y-134833967D01*
X143267311Y-134938018D01*
X143143206Y-135027347D01*
X143081760Y-135062323D01*
X142931160Y-135126788D01*
X142783183Y-135166378D01*
X142621926Y-135189299D01*
X142469931Y-135195680D01*
X142101369Y-135195680D01*
X142101369Y-136133573D01*
X141156149Y-136133573D01*
X141156149Y-134445366D01*
X142101369Y-134445366D01*
X142362953Y-134445366D01*
X142514035Y-134420178D01*
X142626787Y-134312124D01*
X142649450Y-134187445D01*
X142615596Y-134040602D01*
X142488295Y-133945645D01*
X142362953Y-133929525D01*
X142101369Y-133929525D01*
X142101369Y-134445366D01*
X141156149Y-134445366D01*
X141156149Y-133179211D01*
X142461871Y-133179211D01*
X142626903Y-133185937D01*
G37*
G36*
X144827119Y-133155764D02*
G01*
X144827119Y-134822721D01*
X144841389Y-134975268D01*
X144893316Y-135116122D01*
X144913581Y-135147320D01*
X145035432Y-135239940D01*
X145180810Y-135265906D01*
X145192751Y-135266022D01*
X145342156Y-135243302D01*
X145465849Y-135161694D01*
X145477782Y-135147320D01*
X145544050Y-135016513D01*
X145569294Y-134860436D01*
X145570106Y-134822721D01*
X145570106Y-133155764D01*
X146515326Y-133155764D01*
X146515326Y-134830781D01*
X146509117Y-134985272D01*
X146490493Y-135131108D01*
X146453072Y-135290311D01*
X146398750Y-135437732D01*
X146338738Y-135554717D01*
X146255240Y-135678747D01*
X146144529Y-135803151D01*
X146017515Y-135909053D01*
X145893004Y-135986540D01*
X145855137Y-136006078D01*
X145717703Y-136064892D01*
X145573397Y-136109261D01*
X145422219Y-136139184D01*
X145264169Y-136154661D01*
X145170769Y-136157020D01*
X145009743Y-136149797D01*
X144856852Y-136128129D01*
X144712095Y-136092014D01*
X144556619Y-136033053D01*
X144501055Y-136006078D01*
X144363210Y-135921127D01*
X144241303Y-135817950D01*
X144135332Y-135696546D01*
X144045298Y-135556915D01*
X143981630Y-135420238D01*
X143933599Y-135271148D01*
X143901207Y-135109647D01*
X143885888Y-134961338D01*
X143881899Y-134830781D01*
X143881899Y-133155764D01*
X144827119Y-133155764D01*
G37*
G36*
X147845961Y-135430153D02*
G01*
X148729631Y-135430153D01*
X148729631Y-136133573D01*
X146900741Y-136133573D01*
X146900741Y-133179211D01*
X147845961Y-133179211D01*
X147845961Y-135430153D01*
G37*
G36*
X150220734Y-136157020D02*
G01*
X150056593Y-136151045D01*
X149901682Y-136133120D01*
X149756002Y-136103246D01*
X149593371Y-136051623D01*
X149444032Y-135982792D01*
X149329736Y-135912288D01*
X149210459Y-135812451D01*
X149115859Y-135696488D01*
X149045938Y-135564400D01*
X149000695Y-135416185D01*
X148980130Y-135251845D01*
X148978759Y-135193482D01*
X149946693Y-135193482D01*
X149985860Y-135341577D01*
X150103829Y-135441153D01*
X150191425Y-135453600D01*
X150329178Y-135418429D01*
X150385598Y-135307055D01*
X150321301Y-135172553D01*
X150271292Y-135137794D01*
X150136117Y-135072632D01*
X149987636Y-135014707D01*
X149915186Y-134989051D01*
X149777387Y-134938813D01*
X149637143Y-134883062D01*
X149499671Y-134822068D01*
X149438180Y-134791947D01*
X149304365Y-134707145D01*
X149194736Y-134607866D01*
X149114314Y-134511312D01*
X149037137Y-134371985D01*
X148994777Y-134223836D01*
X148979288Y-134073005D01*
X148978759Y-134037236D01*
X148990641Y-133881626D01*
X149031714Y-133724634D01*
X149102124Y-133584385D01*
X149128968Y-133545575D01*
X149233582Y-133427924D01*
X149359663Y-133329592D01*
X149491490Y-133257612D01*
X149539296Y-133237097D01*
X149691126Y-133186446D01*
X149834649Y-133155339D01*
X149986232Y-133137330D01*
X150125479Y-133132316D01*
X150291914Y-133138327D01*
X150447293Y-133156359D01*
X150591617Y-133186412D01*
X150750212Y-133238345D01*
X150892888Y-133307587D01*
X150999624Y-133378513D01*
X151109688Y-133477620D01*
X151209315Y-133611087D01*
X151277947Y-133763768D01*
X151312104Y-133909930D01*
X151323490Y-134070209D01*
X150338703Y-134070209D01*
X150301609Y-133925403D01*
X150272758Y-133894354D01*
X150130965Y-133841335D01*
X150113755Y-133840865D01*
X150005312Y-133881165D01*
X149963546Y-133991807D01*
X150032418Y-134126492D01*
X150076386Y-134156671D01*
X150212324Y-134223239D01*
X150349462Y-134279832D01*
X150437621Y-134313475D01*
X150590835Y-134371422D01*
X150728168Y-134428210D01*
X150862135Y-134489948D01*
X150910231Y-134514242D01*
X151042912Y-134596846D01*
X151161786Y-134700676D01*
X151233365Y-134781688D01*
X151311375Y-134909869D01*
X151357004Y-135058657D01*
X151370385Y-135211800D01*
X151359604Y-135360603D01*
X151322338Y-135515334D01*
X151258453Y-135658903D01*
X151234097Y-135699797D01*
X151136896Y-135824891D01*
X151015653Y-135931809D01*
X150885977Y-136012496D01*
X150838424Y-136036120D01*
X150684695Y-136094563D01*
X150534909Y-136130455D01*
X150372759Y-136151235D01*
X150220734Y-136157020D01*
G37*
G36*
X152594042Y-133929525D02*
G01*
X152594042Y-134257787D01*
X153501159Y-134257787D01*
X153501159Y-134961207D01*
X152594042Y-134961207D01*
X152594042Y-135383258D01*
X153641843Y-135383258D01*
X153641843Y-136133573D01*
X151648822Y-136133573D01*
X151648822Y-133179211D01*
X153641843Y-133179211D01*
X153641843Y-133929525D01*
X152594042Y-133929525D01*
G37*
G36*
X155857614Y-134351577D02*
G01*
X155857614Y-135101891D01*
X153888040Y-135101891D01*
X153888040Y-134351577D01*
X155857614Y-134351577D01*
G37*
G36*
X159458975Y-136133573D02*
G01*
X158476386Y-136133573D01*
X158329108Y-135664626D01*
X157337726Y-135664626D01*
X157191180Y-136133573D01*
X156212255Y-136133573D01*
X156644042Y-134961207D01*
X157564872Y-134961207D01*
X158101962Y-134961207D01*
X157833783Y-134152275D01*
X157564872Y-134961207D01*
X156644042Y-134961207D01*
X157300357Y-133179211D01*
X158375270Y-133179211D01*
X159458975Y-136133573D01*
G37*
D11*
G36*
X172635633Y-140977951D02*
G01*
X172407535Y-140977951D01*
X172373683Y-140771614D01*
X171944084Y-140771614D01*
X171837960Y-140977951D01*
X171611474Y-140977951D01*
X171811507Y-140599667D01*
X172031938Y-140599667D01*
X172346010Y-140599667D01*
X172269171Y-140137560D01*
X172031938Y-140599667D01*
X171811507Y-140599667D01*
X172188840Y-139886087D01*
X172440044Y-139886087D01*
X172635633Y-140977951D01*
G37*
G36*
X173117622Y-139894685D02*
G01*
X173260822Y-140756031D01*
X173707346Y-139894685D01*
X173936788Y-139894685D01*
X173353243Y-140977951D01*
X173091293Y-140977951D01*
X172886568Y-139894685D01*
X173117622Y-139894685D01*
G37*
G36*
X174280951Y-139894685D02*
G01*
X174091540Y-140977951D01*
X173874189Y-140977951D01*
X174065211Y-139894685D01*
X174280951Y-139894685D01*
G37*
G36*
X175044121Y-139880241D02*
G01*
X175099364Y-139888495D01*
X175151393Y-139902251D01*
X175206919Y-139924710D01*
X175226659Y-139934985D01*
X175275708Y-139966469D01*
X175318879Y-140003696D01*
X175356173Y-140046666D01*
X175387591Y-140095379D01*
X175412627Y-140148760D01*
X175430510Y-140205734D01*
X175441240Y-140266302D01*
X175444761Y-140322246D01*
X175444817Y-140330463D01*
X175442823Y-140388592D01*
X175436841Y-140444767D01*
X175426871Y-140498987D01*
X175412913Y-140551253D01*
X175390899Y-140611391D01*
X175363142Y-140668715D01*
X175330238Y-140722273D01*
X175292781Y-140771316D01*
X175250771Y-140815845D01*
X175204209Y-140855858D01*
X175153094Y-140891357D01*
X175135044Y-140902186D01*
X175078932Y-140930856D01*
X175020214Y-140953594D01*
X174958888Y-140970401D01*
X174905792Y-140979875D01*
X174850886Y-140985230D01*
X174805658Y-140986548D01*
X174747816Y-140983771D01*
X174693008Y-140975440D01*
X174634086Y-140959119D01*
X174579127Y-140935543D01*
X174566007Y-140928516D01*
X174517059Y-140896561D01*
X174473921Y-140858998D01*
X174436593Y-140815827D01*
X174405075Y-140767047D01*
X174380156Y-140713565D01*
X174362357Y-140656289D01*
X174352623Y-140603059D01*
X174348340Y-140546923D01*
X174348118Y-140530351D01*
X174348826Y-140510201D01*
X174568425Y-140510201D01*
X174572807Y-140569509D01*
X174585955Y-140622235D01*
X174611224Y-140673684D01*
X174638547Y-140707940D01*
X174682538Y-140742876D01*
X174735626Y-140766378D01*
X174790451Y-140777671D01*
X174836286Y-140780211D01*
X174892370Y-140776601D01*
X174945096Y-140765771D01*
X175000398Y-140744955D01*
X175040473Y-140722448D01*
X175087156Y-140686617D01*
X175127464Y-140644411D01*
X175161397Y-140595829D01*
X175177493Y-140566084D01*
X175198768Y-140515843D01*
X175213965Y-140463453D01*
X175223082Y-140408914D01*
X175226122Y-140352225D01*
X175221689Y-140292984D01*
X175208390Y-140240459D01*
X175182831Y-140189398D01*
X175155194Y-140155560D01*
X175110812Y-140120884D01*
X175057463Y-140097557D01*
X175002512Y-140086348D01*
X174956649Y-140083826D01*
X174901152Y-140087453D01*
X174842532Y-140100204D01*
X174787950Y-140122137D01*
X174753805Y-140141858D01*
X174707230Y-140177496D01*
X174666946Y-140219423D01*
X174632952Y-140267642D01*
X174616785Y-140297148D01*
X174595627Y-140347036D01*
X174580515Y-140399174D01*
X174571447Y-140453563D01*
X174568425Y-140510201D01*
X174348826Y-140510201D01*
X174350131Y-140473080D01*
X174356172Y-140417632D01*
X174366241Y-140364007D01*
X174383639Y-140302065D01*
X174406837Y-140242748D01*
X174430598Y-140195323D01*
X174463739Y-140141774D01*
X174501300Y-140092759D01*
X174543281Y-140048278D01*
X174589683Y-140008331D01*
X174640505Y-139972917D01*
X174658428Y-139962120D01*
X174714300Y-139933359D01*
X174772704Y-139910549D01*
X174833639Y-139893689D01*
X174897105Y-139882779D01*
X174951927Y-139878234D01*
X174985665Y-139877490D01*
X175044121Y-139880241D01*
G37*
G36*
X176431900Y-140977951D02*
G01*
X176214817Y-140977951D01*
X175859101Y-140235623D01*
X175728261Y-140977951D01*
X175510909Y-140977951D01*
X175701931Y-139894685D01*
X175917671Y-139894685D01*
X176274998Y-140638624D01*
X176405839Y-139894685D01*
X176621310Y-139894685D01*
X176431900Y-140977951D01*
G37*
G36*
X177049297Y-139894685D02*
G01*
X176859887Y-140977951D01*
X176642535Y-140977951D01*
X176833557Y-139894685D01*
X177049297Y-139894685D01*
G37*
G36*
X177115120Y-140432825D02*
G01*
X177127793Y-140373949D01*
X177145056Y-140317416D01*
X177166909Y-140263225D01*
X177193353Y-140211376D01*
X177224387Y-140161870D01*
X177235752Y-140145888D01*
X177272223Y-140100308D01*
X177311717Y-140058677D01*
X177354234Y-140020993D01*
X177399773Y-139987257D01*
X177448335Y-139957470D01*
X177465194Y-139948418D01*
X177516989Y-139924314D01*
X177570012Y-139905196D01*
X177624262Y-139891066D01*
X177679741Y-139881923D01*
X177736448Y-139877767D01*
X177755623Y-139877490D01*
X177810490Y-139879792D01*
X177872451Y-139888633D01*
X177930181Y-139904105D01*
X177983679Y-139926207D01*
X178032946Y-139954939D01*
X178055993Y-139971792D01*
X178097675Y-140009586D01*
X178132651Y-140052443D01*
X178160921Y-140100362D01*
X178182484Y-140153344D01*
X178197342Y-140211389D01*
X178200804Y-140231862D01*
X177952824Y-140231862D01*
X177929299Y-140181915D01*
X177892558Y-140139232D01*
X177867926Y-140121171D01*
X177819062Y-140098414D01*
X177762339Y-140086160D01*
X177720159Y-140083826D01*
X177662815Y-140088024D01*
X177607990Y-140100618D01*
X177555684Y-140121608D01*
X177545525Y-140126813D01*
X177497527Y-140157106D01*
X177454619Y-140194589D01*
X177416801Y-140239260D01*
X177409848Y-140249057D01*
X177382017Y-140295572D01*
X177359882Y-140345956D01*
X177343443Y-140400208D01*
X177336771Y-140432019D01*
X177330075Y-140486403D01*
X177328979Y-140512888D01*
X177333446Y-140571558D01*
X177346846Y-140623713D01*
X177372598Y-140674600D01*
X177400445Y-140708477D01*
X177444876Y-140743154D01*
X177497467Y-140766481D01*
X177551066Y-140777690D01*
X177595497Y-140780211D01*
X177654246Y-140775703D01*
X177709693Y-140762179D01*
X177757235Y-140742061D01*
X177805299Y-140711673D01*
X177847904Y-140672968D01*
X177881896Y-140630564D01*
X178129876Y-140630564D01*
X178102254Y-140681382D01*
X178071273Y-140728554D01*
X178036934Y-140772079D01*
X177999237Y-140811956D01*
X177958181Y-140848187D01*
X177913767Y-140880771D01*
X177895061Y-140892783D01*
X177846936Y-140919795D01*
X177797433Y-140942229D01*
X177746553Y-140960085D01*
X177694295Y-140973362D01*
X177640660Y-140982061D01*
X177585648Y-140986182D01*
X177563257Y-140986548D01*
X177505415Y-140983912D01*
X177450608Y-140976006D01*
X177391686Y-140960515D01*
X177336727Y-140938141D01*
X177323606Y-140931471D01*
X177274557Y-140900944D01*
X177231386Y-140864707D01*
X177194092Y-140822762D01*
X177162674Y-140775107D01*
X177137756Y-140722616D01*
X177119956Y-140666431D01*
X177109277Y-140606552D01*
X177105773Y-140551127D01*
X177105717Y-140542978D01*
X177108068Y-140488439D01*
X177115120Y-140432825D01*
G37*
G36*
X178660494Y-140986548D02*
G01*
X178601964Y-140983969D01*
X178547477Y-140976234D01*
X178489018Y-140960690D01*
X178436062Y-140938128D01*
X178395051Y-140913202D01*
X178349562Y-140872683D01*
X178317070Y-140824743D01*
X178297575Y-140769381D01*
X178291178Y-140714851D01*
X178291076Y-140706597D01*
X178294032Y-140664953D01*
X178514339Y-140664953D01*
X178518876Y-140721082D01*
X178546490Y-140769761D01*
X178548997Y-140772420D01*
X178595547Y-140802696D01*
X178649260Y-140813942D01*
X178668285Y-140814601D01*
X178722476Y-140809916D01*
X178773952Y-140792608D01*
X178792141Y-140781286D01*
X178827778Y-140737700D01*
X178837814Y-140685641D01*
X178824545Y-140631283D01*
X178790797Y-140594025D01*
X178743817Y-140564887D01*
X178695729Y-140540843D01*
X178643568Y-140517992D01*
X178589189Y-140494248D01*
X178537190Y-140469523D01*
X178493383Y-140446258D01*
X178446263Y-140412744D01*
X178408219Y-140372967D01*
X178395051Y-140355449D01*
X178370165Y-140307454D01*
X178356765Y-140250920D01*
X178354213Y-140208488D01*
X178358293Y-140153769D01*
X178372399Y-140097905D01*
X178396579Y-140047236D01*
X178405797Y-140033048D01*
X178441789Y-139989726D01*
X178485285Y-139953120D01*
X178536284Y-139923231D01*
X178547385Y-139918059D01*
X178600031Y-139898448D01*
X178656714Y-139885255D01*
X178710490Y-139878916D01*
X178752915Y-139877490D01*
X178808109Y-139879858D01*
X178865667Y-139888181D01*
X178918421Y-139902498D01*
X178950923Y-139915372D01*
X178999272Y-139941976D01*
X179043123Y-139978393D01*
X179077196Y-140022302D01*
X179100634Y-140072534D01*
X179112580Y-140128290D01*
X179113466Y-140183770D01*
X178884025Y-140183770D01*
X178885368Y-140166576D01*
X178872013Y-140112174D01*
X178847486Y-140082483D01*
X178799029Y-140056698D01*
X178742168Y-140049437D01*
X178687971Y-140055112D01*
X178636675Y-140075766D01*
X178625030Y-140083826D01*
X178590230Y-140127207D01*
X178580431Y-140177322D01*
X178594788Y-140229763D01*
X178605954Y-140244758D01*
X178646382Y-140280730D01*
X178668285Y-140294730D01*
X178716777Y-140320332D01*
X178766139Y-140344412D01*
X178774677Y-140348463D01*
X178828258Y-140373231D01*
X178879864Y-140399506D01*
X178923787Y-140424765D01*
X178968582Y-140457655D01*
X179007789Y-140498261D01*
X179024000Y-140519604D01*
X179049377Y-140567637D01*
X179063041Y-140623075D01*
X179065644Y-140664147D01*
X179060737Y-140720588D01*
X179046018Y-140773041D01*
X179021487Y-140821506D01*
X179015403Y-140830721D01*
X178980104Y-140873298D01*
X178936671Y-140909684D01*
X178885105Y-140939877D01*
X178873815Y-140945173D01*
X178819901Y-140965174D01*
X178761227Y-140978628D01*
X178705076Y-140985093D01*
X178660494Y-140986548D01*
G37*
D10*
G36*
X143774188Y-140501605D02*
G01*
X143806817Y-140431008D01*
X143852040Y-140371717D01*
X143909857Y-140323732D01*
X143922932Y-140315492D01*
X143995517Y-140281682D01*
X144070634Y-140261959D01*
X144145189Y-140252943D01*
X144195507Y-140251378D01*
X144195507Y-140345167D01*
X144163999Y-140345167D01*
X144083788Y-140351006D01*
X144010584Y-140368523D01*
X143936605Y-140402188D01*
X143885196Y-140438590D01*
X143831535Y-140500559D01*
X143798579Y-140571456D01*
X143781126Y-140645700D01*
X143774296Y-140731340D01*
X143774188Y-140744504D01*
X143774188Y-141388573D01*
X143679666Y-141388573D01*
X143679666Y-140263101D01*
X143774188Y-140263101D01*
X143774188Y-140501605D01*
G37*
G36*
X144996791Y-140255683D02*
G01*
X145070201Y-140268597D01*
X145146328Y-140293417D01*
X145200810Y-140320254D01*
X145263854Y-140362591D01*
X145323231Y-140418061D01*
X145371374Y-140482403D01*
X145383626Y-140503436D01*
X145416663Y-140576402D01*
X145437464Y-140652873D01*
X145446029Y-140732851D01*
X145446274Y-140749267D01*
X145444724Y-140824104D01*
X145441878Y-140860275D01*
X144461487Y-140860275D01*
X144466443Y-140941030D01*
X144481309Y-141014307D01*
X144509452Y-141086957D01*
X144524135Y-141113433D01*
X144572133Y-141177941D01*
X144629482Y-141230413D01*
X144689732Y-141267672D01*
X144762508Y-141296874D01*
X144839787Y-141313954D01*
X144913947Y-141318963D01*
X144994249Y-141313903D01*
X145067728Y-141298722D01*
X145142236Y-141269545D01*
X145194216Y-141237997D01*
X145251287Y-141187610D01*
X145295143Y-141127950D01*
X145325785Y-141059016D01*
X145337098Y-141016713D01*
X145437848Y-141016713D01*
X145418266Y-141088463D01*
X145383650Y-141162863D01*
X145335982Y-141229158D01*
X145283567Y-141280517D01*
X145266756Y-141294051D01*
X145202983Y-141335449D01*
X145132197Y-141366679D01*
X145054399Y-141387742D01*
X144969588Y-141398636D01*
X144917977Y-141400296D01*
X144840743Y-141395923D01*
X144767676Y-141382802D01*
X144690457Y-141357586D01*
X144634045Y-141330321D01*
X144567854Y-141286149D01*
X144510242Y-141232355D01*
X144461208Y-141168941D01*
X144437673Y-141129553D01*
X144406738Y-141061386D01*
X144384642Y-140987678D01*
X144371384Y-140908429D01*
X144367034Y-140834541D01*
X144366965Y-140823639D01*
X144368980Y-140778942D01*
X144461487Y-140778942D01*
X145351752Y-140778942D01*
X145347057Y-140700812D01*
X145330829Y-140622158D01*
X145303008Y-140552091D01*
X145292401Y-140532746D01*
X145246532Y-140469332D01*
X145190533Y-140418126D01*
X145130835Y-140382170D01*
X145058570Y-140354011D01*
X144982323Y-140337541D01*
X144909551Y-140332711D01*
X144830021Y-140338555D01*
X144754647Y-140356088D01*
X144689732Y-140382170D01*
X144624630Y-140422277D01*
X144568360Y-140474592D01*
X144524868Y-140532746D01*
X144491444Y-140600237D01*
X144470400Y-140676315D01*
X144462044Y-140752126D01*
X144461487Y-140778942D01*
X144368980Y-140778942D01*
X144370314Y-140749339D01*
X144382341Y-140669707D01*
X144403115Y-140595707D01*
X144432636Y-140527340D01*
X144436941Y-140519190D01*
X144480649Y-140450871D01*
X144533051Y-140392232D01*
X144594147Y-140343272D01*
X144631846Y-140320254D01*
X144705137Y-140286960D01*
X144784049Y-140264561D01*
X144858914Y-140253799D01*
X144917977Y-140251378D01*
X144996791Y-140255683D01*
G37*
G36*
X146120018Y-141295150D02*
G01*
X146539872Y-140263101D01*
X146640622Y-140263101D01*
X146168378Y-141388573D01*
X146069460Y-141388573D01*
X145596850Y-140263101D01*
X145699798Y-140263101D01*
X146120018Y-141295150D01*
G37*
G36*
X146830032Y-141388573D02*
G01*
X146770315Y-141365492D01*
X146746867Y-141306873D01*
X146770315Y-141247889D01*
X146830032Y-141224441D01*
X146887551Y-141247889D01*
X146910999Y-141306873D01*
X146887551Y-141365492D01*
X146830032Y-141388573D01*
G37*
G36*
X147674502Y-141324459D02*
G01*
X147746479Y-141273653D01*
X147815546Y-141223175D01*
X147881702Y-141173025D01*
X147944947Y-141123205D01*
X148005281Y-141073712D01*
X148062705Y-141024548D01*
X148134741Y-140959507D01*
X148201603Y-140895050D01*
X148263289Y-140831176D01*
X148292192Y-140799459D01*
X148345257Y-140736496D01*
X148391248Y-140674185D01*
X148438786Y-140597215D01*
X148475268Y-140521264D01*
X148500695Y-140446333D01*
X148515067Y-140372421D01*
X148518605Y-140314026D01*
X148512142Y-140232760D01*
X148492755Y-140160419D01*
X148456054Y-140090510D01*
X148436906Y-140065631D01*
X148376019Y-140014820D01*
X148304030Y-139985179D01*
X148226366Y-139971630D01*
X148171292Y-139969277D01*
X148094823Y-139974589D01*
X148017606Y-139993669D01*
X147951243Y-140026624D01*
X147889558Y-140080286D01*
X147847082Y-140140049D01*
X147816743Y-140208696D01*
X147798539Y-140286228D01*
X147792566Y-140361356D01*
X147792471Y-140372644D01*
X147697949Y-140372644D01*
X147702509Y-140290096D01*
X147716187Y-140214736D01*
X147743671Y-140135898D01*
X147783567Y-140066843D01*
X147827642Y-140015439D01*
X147888505Y-139965761D01*
X147957292Y-139928285D01*
X148034003Y-139903010D01*
X148118638Y-139889937D01*
X148170559Y-139887944D01*
X148252018Y-139893046D01*
X148326816Y-139908351D01*
X148404142Y-139938335D01*
X148472767Y-139981646D01*
X148488563Y-139994556D01*
X148543060Y-140054411D01*
X148581986Y-140127363D01*
X148603274Y-140201941D01*
X148612640Y-140286546D01*
X148613127Y-140312561D01*
X148607242Y-140394193D01*
X148589585Y-140476058D01*
X148560158Y-140558155D01*
X148518960Y-140640485D01*
X148477526Y-140706517D01*
X148428560Y-140772697D01*
X148372059Y-140839026D01*
X148310808Y-140904445D01*
X148247404Y-140967895D01*
X148181848Y-141029375D01*
X148114139Y-141088887D01*
X148044278Y-141146429D01*
X147972264Y-141202001D01*
X147898098Y-141255605D01*
X147821780Y-141307240D01*
X148659289Y-141307240D01*
X148659289Y-141388573D01*
X147674502Y-141388573D01*
X147674502Y-141324459D01*
G37*
G36*
X148930032Y-141388573D02*
G01*
X148870315Y-141365492D01*
X148846867Y-141306873D01*
X148870315Y-141247889D01*
X148930032Y-141224441D01*
X148987551Y-141247889D01*
X149010999Y-141306873D01*
X148987551Y-141365492D01*
X148930032Y-141388573D01*
G37*
G36*
X149806258Y-139892712D02*
G01*
X149881104Y-139907014D01*
X149959607Y-139936762D01*
X150025772Y-139980241D01*
X150079597Y-140037450D01*
X150108626Y-140083217D01*
X150144484Y-140162278D01*
X150168698Y-140237077D01*
X150187761Y-140319980D01*
X150201671Y-140410986D01*
X150209090Y-140489625D01*
X150213211Y-140573451D01*
X150214139Y-140639724D01*
X150212490Y-140728504D01*
X150207544Y-140812030D01*
X150199301Y-140890300D01*
X150187761Y-140963315D01*
X150168698Y-141047194D01*
X150144484Y-141122863D01*
X150115117Y-141190320D01*
X150108626Y-141202826D01*
X150063026Y-141269935D01*
X150005088Y-141323159D01*
X149934810Y-141362499D01*
X149852194Y-141387954D01*
X149773921Y-141398561D01*
X149722844Y-141400296D01*
X149638788Y-141395475D01*
X149563390Y-141381012D01*
X149484341Y-141350929D01*
X149417760Y-141306961D01*
X149363647Y-141249108D01*
X149334498Y-141202826D01*
X149298765Y-141122863D01*
X149274635Y-141047194D01*
X149255638Y-140963315D01*
X149244138Y-140890300D01*
X149235923Y-140812030D01*
X149230995Y-140728504D01*
X149229352Y-140639724D01*
X149323874Y-140639724D01*
X149324943Y-140717824D01*
X149328150Y-140791107D01*
X149334594Y-140870515D01*
X149343948Y-140943367D01*
X149354282Y-141000593D01*
X149375878Y-141077918D01*
X149406459Y-141145853D01*
X149450973Y-141210325D01*
X149471885Y-141232868D01*
X149533873Y-141278270D01*
X149610388Y-141306856D01*
X149691670Y-141318207D01*
X149721379Y-141318963D01*
X149797995Y-141313582D01*
X149872911Y-141294665D01*
X149942148Y-141257671D01*
X149971239Y-141232868D01*
X150020190Y-141173033D01*
X150058050Y-141101606D01*
X150082642Y-141027411D01*
X150088842Y-141000593D01*
X150102306Y-140923221D01*
X150110931Y-140848496D01*
X150116612Y-140767214D01*
X150119136Y-140692326D01*
X150119617Y-140639724D01*
X150118535Y-140563157D01*
X150114538Y-140479623D01*
X150107596Y-140402331D01*
X150096055Y-140321640D01*
X150088842Y-140284351D01*
X150067246Y-140207496D01*
X150036665Y-140140146D01*
X149992151Y-140076462D01*
X149971239Y-140054274D01*
X149909372Y-140009451D01*
X149832765Y-139981230D01*
X149751215Y-139970024D01*
X149721379Y-139969277D01*
X149645061Y-139974590D01*
X149570315Y-139993266D01*
X149501063Y-140029788D01*
X149471885Y-140054274D01*
X149422934Y-140113264D01*
X149385074Y-140183990D01*
X149360483Y-140257676D01*
X149354282Y-140284351D01*
X149340978Y-140360967D01*
X149332456Y-140434692D01*
X149326843Y-140514659D01*
X149324349Y-140588170D01*
X149323874Y-140639724D01*
X149229352Y-140639724D01*
X149230995Y-140552008D01*
X149235923Y-140469479D01*
X149244138Y-140392136D01*
X149259027Y-140302751D01*
X149279050Y-140221469D01*
X149304207Y-140148291D01*
X149334498Y-140083217D01*
X149380299Y-140016855D01*
X149438569Y-139964223D01*
X149509305Y-139925321D01*
X149592510Y-139900149D01*
X149671372Y-139889661D01*
X149722844Y-139887944D01*
X149806258Y-139892712D01*
G37*
G36*
X150505398Y-141388573D02*
G01*
X150445681Y-141365492D01*
X150422234Y-141306873D01*
X150445681Y-141247889D01*
X150505398Y-141224441D01*
X150562918Y-141247889D01*
X150586365Y-141306873D01*
X150562918Y-141365492D01*
X150505398Y-141388573D01*
G37*
G36*
X151381625Y-139892712D02*
G01*
X151456470Y-139907014D01*
X151534974Y-139936762D01*
X151601138Y-139980241D01*
X151654964Y-140037450D01*
X151683992Y-140083217D01*
X151719850Y-140162278D01*
X151744065Y-140237077D01*
X151763127Y-140319980D01*
X151777037Y-140410986D01*
X151784456Y-140489625D01*
X151788578Y-140573451D01*
X151789505Y-140639724D01*
X151787857Y-140728504D01*
X151782911Y-140812030D01*
X151774667Y-140890300D01*
X151763127Y-140963315D01*
X151744065Y-141047194D01*
X151719850Y-141122863D01*
X151690484Y-141190320D01*
X151683992Y-141202826D01*
X151638393Y-141269935D01*
X151580454Y-141323159D01*
X151510177Y-141362499D01*
X151427560Y-141387954D01*
X151349287Y-141398561D01*
X151298211Y-141400296D01*
X151214154Y-141395475D01*
X151138756Y-141381012D01*
X151059708Y-141350929D01*
X150993127Y-141306961D01*
X150939013Y-141249108D01*
X150909865Y-141202826D01*
X150874131Y-141122863D01*
X150850001Y-141047194D01*
X150831005Y-140963315D01*
X150819504Y-140890300D01*
X150811290Y-140812030D01*
X150806361Y-140728504D01*
X150804718Y-140639724D01*
X150899240Y-140639724D01*
X150900309Y-140717824D01*
X150903516Y-140791107D01*
X150909960Y-140870515D01*
X150919314Y-140943367D01*
X150929648Y-141000593D01*
X150951245Y-141077918D01*
X150981825Y-141145853D01*
X151026340Y-141210325D01*
X151047251Y-141232868D01*
X151109240Y-141278270D01*
X151185754Y-141306856D01*
X151267036Y-141318207D01*
X151296745Y-141318963D01*
X151373361Y-141313582D01*
X151448278Y-141294665D01*
X151517515Y-141257671D01*
X151546606Y-141232868D01*
X151595557Y-141173033D01*
X151633417Y-141101606D01*
X151658008Y-141027411D01*
X151664209Y-141000593D01*
X151677672Y-140923221D01*
X151686298Y-140848496D01*
X151691978Y-140767214D01*
X151694502Y-140692326D01*
X151694983Y-140639724D01*
X151693901Y-140563157D01*
X151689904Y-140479623D01*
X151682962Y-140402331D01*
X151671421Y-140321640D01*
X151664209Y-140284351D01*
X151642612Y-140207496D01*
X151612032Y-140140146D01*
X151567517Y-140076462D01*
X151546606Y-140054274D01*
X151484739Y-140009451D01*
X151408131Y-139981230D01*
X151326582Y-139970024D01*
X151296745Y-139969277D01*
X151220427Y-139974590D01*
X151145681Y-139993266D01*
X151076430Y-140029788D01*
X151047251Y-140054274D01*
X150998300Y-140113264D01*
X150960440Y-140183990D01*
X150935849Y-140257676D01*
X150929648Y-140284351D01*
X150916345Y-140360967D01*
X150907822Y-140434692D01*
X150902210Y-140514659D01*
X150899715Y-140588170D01*
X150899240Y-140639724D01*
X150804718Y-140639724D01*
X150806361Y-140552008D01*
X150811290Y-140469479D01*
X150819504Y-140392136D01*
X150834393Y-140302751D01*
X150854416Y-140221469D01*
X150879573Y-140148291D01*
X150909865Y-140083217D01*
X150955666Y-140016855D01*
X151013935Y-139964223D01*
X151084672Y-139925321D01*
X151167877Y-139900149D01*
X151246738Y-139889661D01*
X151298211Y-139887944D01*
X151381625Y-139892712D01*
G37*
G36*
X152162464Y-141154099D02*
G01*
X151964994Y-141693388D01*
X151893553Y-141693388D01*
X152053287Y-141154099D01*
X152162464Y-141154099D01*
G37*
G36*
X153537312Y-139892712D02*
G01*
X153612157Y-139907014D01*
X153690661Y-139936762D01*
X153756826Y-139980241D01*
X153810651Y-140037450D01*
X153839680Y-140083217D01*
X153875538Y-140162278D01*
X153899752Y-140237077D01*
X153918814Y-140319980D01*
X153932725Y-140410986D01*
X153940144Y-140489625D01*
X153944265Y-140573451D01*
X153945193Y-140639724D01*
X153943544Y-140728504D01*
X153938598Y-140812030D01*
X153930355Y-140890300D01*
X153918814Y-140963315D01*
X153899752Y-141047194D01*
X153875538Y-141122863D01*
X153846171Y-141190320D01*
X153839680Y-141202826D01*
X153794080Y-141269935D01*
X153736142Y-141323159D01*
X153665864Y-141362499D01*
X153583248Y-141387954D01*
X153504975Y-141398561D01*
X153453898Y-141400296D01*
X153369842Y-141395475D01*
X153294444Y-141381012D01*
X153215395Y-141350929D01*
X153148814Y-141306961D01*
X153094701Y-141249108D01*
X153065552Y-141202826D01*
X153029819Y-141122863D01*
X153005688Y-141047194D01*
X152986692Y-140963315D01*
X152975192Y-140890300D01*
X152966977Y-140812030D01*
X152962048Y-140728504D01*
X152960405Y-140639724D01*
X153054927Y-140639724D01*
X153055996Y-140717824D01*
X153059204Y-140791107D01*
X153065647Y-140870515D01*
X153075002Y-140943367D01*
X153085336Y-141000593D01*
X153106932Y-141077918D01*
X153137512Y-141145853D01*
X153182027Y-141210325D01*
X153202939Y-141232868D01*
X153264927Y-141278270D01*
X153341441Y-141306856D01*
X153422724Y-141318207D01*
X153452433Y-141318963D01*
X153529049Y-141313582D01*
X153603965Y-141294665D01*
X153673202Y-141257671D01*
X153702293Y-141232868D01*
X153751244Y-141173033D01*
X153789104Y-141101606D01*
X153813695Y-141027411D01*
X153819896Y-141000593D01*
X153833360Y-140923221D01*
X153841985Y-140848496D01*
X153847665Y-140767214D01*
X153850190Y-140692326D01*
X153850671Y-140639724D01*
X153849589Y-140563157D01*
X153845592Y-140479623D01*
X153838649Y-140402331D01*
X153827109Y-140321640D01*
X153819896Y-140284351D01*
X153798299Y-140207496D01*
X153767719Y-140140146D01*
X153723204Y-140076462D01*
X153702293Y-140054274D01*
X153640426Y-140009451D01*
X153563819Y-139981230D01*
X153482269Y-139970024D01*
X153452433Y-139969277D01*
X153376114Y-139974590D01*
X153301369Y-139993266D01*
X153232117Y-140029788D01*
X153202939Y-140054274D01*
X153153987Y-140113264D01*
X153116127Y-140183990D01*
X153091536Y-140257676D01*
X153085336Y-140284351D01*
X153072032Y-140360967D01*
X153063509Y-140434692D01*
X153057897Y-140514659D01*
X153055403Y-140588170D01*
X153054927Y-140639724D01*
X152960405Y-140639724D01*
X152962048Y-140552008D01*
X152966977Y-140469479D01*
X152975192Y-140392136D01*
X152990081Y-140302751D01*
X153010104Y-140221469D01*
X153035261Y-140148291D01*
X153065552Y-140083217D01*
X153111353Y-140016855D01*
X153169622Y-139964223D01*
X153240359Y-139925321D01*
X153323564Y-139900149D01*
X153402425Y-139889661D01*
X153453898Y-139887944D01*
X153537312Y-139892712D01*
G37*
G36*
X154129840Y-139992725D02*
G01*
X154129840Y-139911392D01*
X154435388Y-139911392D01*
X154435388Y-141388573D01*
X154340866Y-141388573D01*
X154340866Y-139992725D01*
X154129840Y-139992725D01*
G37*
G36*
X154780137Y-141388573D02*
G01*
X154720419Y-141365492D01*
X154696972Y-141306873D01*
X154720419Y-141247889D01*
X154780137Y-141224441D01*
X154837656Y-141247889D01*
X154861103Y-141306873D01*
X154837656Y-141365492D01*
X154780137Y-141388573D01*
G37*
G36*
X155032562Y-141324459D02*
G01*
X155104539Y-141273653D01*
X155173606Y-141223175D01*
X155239762Y-141173025D01*
X155303007Y-141123205D01*
X155363341Y-141073712D01*
X155420765Y-141024548D01*
X155492801Y-140959507D01*
X155559663Y-140895050D01*
X155621349Y-140831176D01*
X155650252Y-140799459D01*
X155703317Y-140736496D01*
X155749308Y-140674185D01*
X155796846Y-140597215D01*
X155833328Y-140521264D01*
X155858755Y-140446333D01*
X155873127Y-140372421D01*
X155876665Y-140314026D01*
X155870202Y-140232760D01*
X155850815Y-140160419D01*
X155814114Y-140090510D01*
X155794966Y-140065631D01*
X155734079Y-140014820D01*
X155662090Y-139985179D01*
X155584426Y-139971630D01*
X155529352Y-139969277D01*
X155452884Y-139974589D01*
X155375667Y-139993669D01*
X155309303Y-140026624D01*
X155247618Y-140080286D01*
X155205142Y-140140049D01*
X155174803Y-140208696D01*
X155156599Y-140286228D01*
X155150626Y-140361356D01*
X155150531Y-140372644D01*
X155056009Y-140372644D01*
X155060569Y-140290096D01*
X155074247Y-140214736D01*
X155101731Y-140135898D01*
X155141627Y-140066843D01*
X155185702Y-140015439D01*
X155246565Y-139965761D01*
X155315352Y-139928285D01*
X155392063Y-139903010D01*
X155476698Y-139889937D01*
X155528619Y-139887944D01*
X155610078Y-139893046D01*
X155684876Y-139908351D01*
X155762202Y-139938335D01*
X155830827Y-139981646D01*
X155846623Y-139994556D01*
X155901120Y-140054411D01*
X155940046Y-140127363D01*
X155961334Y-140201941D01*
X155970700Y-140286546D01*
X155971187Y-140312561D01*
X155965302Y-140394193D01*
X155947645Y-140476058D01*
X155918218Y-140558155D01*
X155877020Y-140640485D01*
X155835586Y-140706517D01*
X155786620Y-140772697D01*
X155730119Y-140839026D01*
X155668868Y-140904445D01*
X155605464Y-140967895D01*
X155539908Y-141029375D01*
X155472199Y-141088887D01*
X155402338Y-141146429D01*
X155330324Y-141202001D01*
X155256158Y-141255605D01*
X155179840Y-141307240D01*
X156017349Y-141307240D01*
X156017349Y-141388573D01*
X155032562Y-141388573D01*
X155032562Y-141324459D01*
G37*
G36*
X156181480Y-139992725D02*
G01*
X156181480Y-139911392D01*
X156487028Y-139911392D01*
X156487028Y-141388573D01*
X156392506Y-141388573D01*
X156392506Y-139992725D01*
X156181480Y-139992725D01*
G37*
G36*
X156831777Y-141388573D02*
G01*
X156772059Y-141365492D01*
X156748612Y-141306873D01*
X156772059Y-141247889D01*
X156831777Y-141224441D01*
X156889296Y-141247889D01*
X156912743Y-141306873D01*
X156889296Y-141365492D01*
X156831777Y-141388573D01*
G37*
G36*
X157084202Y-141324459D02*
G01*
X157156179Y-141273653D01*
X157225246Y-141223175D01*
X157291402Y-141173025D01*
X157354647Y-141123205D01*
X157414981Y-141073712D01*
X157472405Y-141024548D01*
X157544441Y-140959507D01*
X157611303Y-140895050D01*
X157672989Y-140831176D01*
X157701892Y-140799459D01*
X157754957Y-140736496D01*
X157800948Y-140674185D01*
X157848485Y-140597215D01*
X157884968Y-140521264D01*
X157910395Y-140446333D01*
X157924767Y-140372421D01*
X157928305Y-140314026D01*
X157921842Y-140232760D01*
X157902455Y-140160419D01*
X157865754Y-140090510D01*
X157846606Y-140065631D01*
X157785719Y-140014820D01*
X157713730Y-139985179D01*
X157636066Y-139971630D01*
X157580992Y-139969277D01*
X157504523Y-139974589D01*
X157427306Y-139993669D01*
X157360943Y-140026624D01*
X157299257Y-140080286D01*
X157256782Y-140140049D01*
X157226443Y-140208696D01*
X157208239Y-140286228D01*
X157202266Y-140361356D01*
X157202171Y-140372644D01*
X157107649Y-140372644D01*
X157112208Y-140290096D01*
X157125887Y-140214736D01*
X157153371Y-140135898D01*
X157193267Y-140066843D01*
X157237342Y-140015439D01*
X157298205Y-139965761D01*
X157366992Y-139928285D01*
X157443703Y-139903010D01*
X157528338Y-139889937D01*
X157580259Y-139887944D01*
X157661718Y-139893046D01*
X157736516Y-139908351D01*
X157813842Y-139938335D01*
X157882466Y-139981646D01*
X157898263Y-139994556D01*
X157952760Y-140054411D01*
X157991686Y-140127363D01*
X158012974Y-140201941D01*
X158022340Y-140286546D01*
X158022827Y-140312561D01*
X158016941Y-140394193D01*
X157999285Y-140476058D01*
X157969858Y-140558155D01*
X157928660Y-140640485D01*
X157887226Y-140706517D01*
X157838259Y-140772697D01*
X157781759Y-140839026D01*
X157720508Y-140904445D01*
X157657104Y-140967895D01*
X157591547Y-141029375D01*
X157523839Y-141088887D01*
X157453978Y-141146429D01*
X157381964Y-141202001D01*
X157307798Y-141255605D01*
X157231480Y-141307240D01*
X158068989Y-141307240D01*
X158068989Y-141388573D01*
X157084202Y-141388573D01*
X157084202Y-141324459D01*
G37*
G36*
X159251246Y-139992725D02*
G01*
X158444879Y-139992725D01*
X158444879Y-140586235D01*
X158495111Y-140530353D01*
X158554101Y-140486188D01*
X158611574Y-140455076D01*
X158681935Y-140428028D01*
X158756088Y-140410998D01*
X158834033Y-140403986D01*
X158850077Y-140403785D01*
X158931548Y-140408044D01*
X159005233Y-140420821D01*
X159078823Y-140445377D01*
X159129247Y-140471929D01*
X159191350Y-140518297D01*
X159241646Y-140572679D01*
X159280136Y-140635076D01*
X159286417Y-140648517D01*
X159312113Y-140718383D01*
X159328292Y-140791971D01*
X159334953Y-140869280D01*
X159335144Y-140885188D01*
X159330971Y-140963267D01*
X159318451Y-141037172D01*
X159294752Y-141114395D01*
X159282387Y-141143841D01*
X159243475Y-141211955D01*
X159192685Y-141271124D01*
X159130017Y-141321349D01*
X159116058Y-141330321D01*
X159047623Y-141364147D01*
X158970089Y-141386902D01*
X158893530Y-141397836D01*
X158831393Y-141400296D01*
X158756071Y-141396368D01*
X158674706Y-141381855D01*
X158600354Y-141356647D01*
X158533015Y-141320746D01*
X158489209Y-141288555D01*
X158435398Y-141235952D01*
X158391615Y-141175915D01*
X158357861Y-141108446D01*
X158334133Y-141033543D01*
X158325077Y-140987404D01*
X158420698Y-140987404D01*
X158441306Y-141063401D01*
X158476095Y-141137458D01*
X158523172Y-141199401D01*
X158561382Y-141233967D01*
X158626971Y-141275054D01*
X158700499Y-141302694D01*
X158781968Y-141316888D01*
X158830660Y-141318963D01*
X158915100Y-141313283D01*
X158989863Y-141296243D01*
X159063456Y-141262858D01*
X159124410Y-141214635D01*
X159137673Y-141200261D01*
X159182713Y-141136262D01*
X159214885Y-141062966D01*
X159232478Y-140991206D01*
X159240220Y-140912329D01*
X159240622Y-140888485D01*
X159235643Y-140809706D01*
X159217760Y-140729289D01*
X159186871Y-140659130D01*
X159142976Y-140599229D01*
X159136574Y-140592463D01*
X159079009Y-140545500D01*
X159010362Y-140511954D01*
X158930632Y-140491827D01*
X158851777Y-140485223D01*
X158839819Y-140485118D01*
X158759913Y-140490878D01*
X158685517Y-140508159D01*
X158616630Y-140536960D01*
X158603514Y-140544103D01*
X158537566Y-140589684D01*
X158482787Y-140645829D01*
X158442680Y-140706036D01*
X158350357Y-140706036D01*
X158350357Y-139911392D01*
X159251246Y-139911392D01*
X159251246Y-139992725D01*
G37*
G36*
X142220560Y-137616552D02*
G01*
X142269641Y-137531613D01*
X142331706Y-137455947D01*
X142406753Y-137389555D01*
X142454056Y-137356678D01*
X142547565Y-137308034D01*
X142650038Y-137275311D01*
X142748651Y-137259588D01*
X142827259Y-137256050D01*
X142929230Y-137262064D01*
X143025584Y-137280108D01*
X143127267Y-137314785D01*
X143201439Y-137352282D01*
X143288632Y-137412551D01*
X143364465Y-137485650D01*
X143428938Y-137571576D01*
X143459848Y-137624857D01*
X143500881Y-137716631D01*
X143530190Y-137815610D01*
X143547775Y-137921795D01*
X143553546Y-138020617D01*
X143553637Y-138035185D01*
X143549149Y-138134698D01*
X143533029Y-138241958D01*
X143505186Y-138342319D01*
X143465618Y-138435780D01*
X143459848Y-138446978D01*
X143408618Y-138530845D01*
X143340036Y-138613152D01*
X143259863Y-138682709D01*
X143199974Y-138721995D01*
X143103344Y-138768986D01*
X143000299Y-138800598D01*
X142903320Y-138815787D01*
X142827259Y-138819204D01*
X142722051Y-138813006D01*
X142624293Y-138794413D01*
X142523220Y-138758680D01*
X142451125Y-138720041D01*
X142369097Y-138659510D01*
X142300515Y-138589473D01*
X142240084Y-138500505D01*
X142220560Y-138461633D01*
X142220560Y-138803573D01*
X142021746Y-138803573D01*
X142021746Y-138037627D01*
X142220560Y-138037627D01*
X142226510Y-138137151D01*
X142247080Y-138239485D01*
X142282343Y-138333136D01*
X142295787Y-138359539D01*
X142354248Y-138447076D01*
X142425523Y-138519606D01*
X142501439Y-138572519D01*
X142593888Y-138615070D01*
X142692571Y-138639958D01*
X142787692Y-138647257D01*
X142885761Y-138640102D01*
X142986034Y-138615701D01*
X143078341Y-138573984D01*
X143160200Y-138515481D01*
X143229130Y-138441393D01*
X143280574Y-138360516D01*
X143319729Y-138268715D01*
X143344382Y-138167946D01*
X143354171Y-138069586D01*
X143354824Y-138035185D01*
X143348950Y-137933179D01*
X143328648Y-137829357D01*
X143293843Y-137735552D01*
X143280574Y-137709365D01*
X143223398Y-137622730D01*
X143153293Y-137551565D01*
X143078341Y-137500293D01*
X142986034Y-137459132D01*
X142885761Y-137435057D01*
X142787692Y-137427997D01*
X142683342Y-137436828D01*
X142585226Y-137463322D01*
X142501439Y-137502735D01*
X142418514Y-137561679D01*
X142348404Y-137635746D01*
X142295787Y-137716203D01*
X142256116Y-137806993D01*
X142231139Y-137906560D01*
X142220854Y-138014905D01*
X142220560Y-138037627D01*
X142021746Y-138037627D01*
X142021746Y-136708946D01*
X142220560Y-136708946D01*
X142220560Y-137616552D01*
G37*
G36*
X144651906Y-137262339D02*
G01*
X144749572Y-137281207D01*
X144850470Y-137317468D01*
X144922374Y-137356678D01*
X145004407Y-137417686D01*
X145079149Y-137495806D01*
X145136622Y-137584802D01*
X145150497Y-137613621D01*
X145150497Y-137271681D01*
X145349311Y-137271681D01*
X145349311Y-138803573D01*
X145150497Y-138803573D01*
X145150497Y-138458702D01*
X145096706Y-138551361D01*
X145026315Y-138633335D01*
X144948769Y-138697976D01*
X144919932Y-138717599D01*
X144826389Y-138766715D01*
X144723263Y-138799756D01*
X144623551Y-138815632D01*
X144543798Y-138819204D01*
X144442986Y-138813129D01*
X144335559Y-138791769D01*
X144234468Y-138755031D01*
X144170595Y-138721995D01*
X144082890Y-138660940D01*
X144006624Y-138587133D01*
X143941794Y-138500575D01*
X143910720Y-138446978D01*
X143869901Y-138354379D01*
X143840745Y-138254881D01*
X143823251Y-138148483D01*
X143817511Y-138049724D01*
X143817420Y-138035185D01*
X144016233Y-138035185D01*
X144022068Y-138135966D01*
X144042237Y-138239426D01*
X144076813Y-138333917D01*
X144089995Y-138360516D01*
X144147448Y-138448772D01*
X144217716Y-138521443D01*
X144292716Y-138573984D01*
X144385023Y-138615701D01*
X144485296Y-138640102D01*
X144583365Y-138647257D01*
X144687993Y-138638426D01*
X144786272Y-138611932D01*
X144870106Y-138572519D01*
X144952973Y-138513632D01*
X145022911Y-138439738D01*
X145075270Y-138359539D01*
X145114941Y-138268492D01*
X145139918Y-138168762D01*
X145150203Y-138060351D01*
X145150497Y-138037627D01*
X145144546Y-137938142D01*
X145123977Y-137835941D01*
X145088714Y-137742519D01*
X145075270Y-137716203D01*
X145017087Y-137628388D01*
X144945974Y-137555696D01*
X144870106Y-137502735D01*
X144777600Y-137460184D01*
X144678744Y-137435295D01*
X144583365Y-137427997D01*
X144485296Y-137435057D01*
X144385023Y-137459132D01*
X144292716Y-137500293D01*
X144210799Y-137557395D01*
X144141696Y-137629967D01*
X144089995Y-137709365D01*
X144051097Y-137800164D01*
X144026606Y-137900981D01*
X144016881Y-138000281D01*
X144016233Y-138035185D01*
X143817420Y-138035185D01*
X143821884Y-137935574D01*
X143837920Y-137828489D01*
X143865619Y-137728609D01*
X143904980Y-137635934D01*
X143910720Y-137624857D01*
X143962133Y-137541509D01*
X144030775Y-137459858D01*
X144110854Y-137391036D01*
X144170595Y-137352282D01*
X144267693Y-137305763D01*
X144371591Y-137274469D01*
X144469655Y-137259433D01*
X144546729Y-137256050D01*
X144651906Y-137262339D01*
G37*
G36*
X146050776Y-137443628D02*
G01*
X146050776Y-138386894D01*
X146059886Y-138485740D01*
X146102579Y-138575487D01*
X146105975Y-138578869D01*
X146195362Y-138621528D01*
X146293178Y-138631574D01*
X146301858Y-138631626D01*
X146488459Y-138631626D01*
X146488459Y-138803573D01*
X146272549Y-138803573D01*
X146172867Y-138797558D01*
X146077001Y-138776413D01*
X145983235Y-138729895D01*
X145955521Y-138707341D01*
X145896562Y-138626463D01*
X145864199Y-138527392D01*
X145852367Y-138417426D01*
X145851962Y-138390314D01*
X145851962Y-137443628D01*
X145644356Y-137443628D01*
X145644356Y-137271681D01*
X145851962Y-137271681D01*
X145851962Y-136880893D01*
X146050776Y-136880893D01*
X146050776Y-137271681D01*
X146488459Y-137271681D01*
X146488459Y-137443628D01*
X146050776Y-137443628D01*
G37*
G36*
X147047287Y-137443628D02*
G01*
X147047287Y-138386894D01*
X147056397Y-138485740D01*
X147099090Y-138575487D01*
X147102486Y-138578869D01*
X147191873Y-138621528D01*
X147289689Y-138631574D01*
X147298369Y-138631626D01*
X147484970Y-138631626D01*
X147484970Y-138803573D01*
X147269059Y-138803573D01*
X147169378Y-138797558D01*
X147073512Y-138776413D01*
X146979746Y-138729895D01*
X146952032Y-138707341D01*
X146893072Y-138626463D01*
X146860710Y-138527392D01*
X146848878Y-138417426D01*
X146848473Y-138390314D01*
X146848473Y-137443628D01*
X146640867Y-137443628D01*
X146640867Y-137271681D01*
X146848473Y-137271681D01*
X146848473Y-136880893D01*
X147047287Y-136880893D01*
X147047287Y-137271681D01*
X147484970Y-137271681D01*
X147484970Y-137443628D01*
X147047287Y-137443628D01*
G37*
G36*
X148553807Y-137262003D02*
G01*
X148652573Y-137279863D01*
X148755583Y-137314189D01*
X148829771Y-137351305D01*
X148915831Y-137409827D01*
X148989912Y-137478782D01*
X149052016Y-137558170D01*
X149081341Y-137606783D01*
X149123845Y-137699690D01*
X149152439Y-137798162D01*
X149167122Y-137902198D01*
X149169269Y-137962400D01*
X149167569Y-138060460D01*
X149163895Y-138115785D01*
X147898717Y-138115785D01*
X147906112Y-138216649D01*
X147931325Y-138316581D01*
X147974433Y-138404968D01*
X148038249Y-138486782D01*
X148115391Y-138551972D01*
X148174223Y-138586196D01*
X148270371Y-138623405D01*
X148372701Y-138643441D01*
X148444356Y-138647257D01*
X148547276Y-138640147D01*
X148650392Y-138615570D01*
X148741678Y-138573438D01*
X148766757Y-138557376D01*
X148846255Y-138488194D01*
X148904742Y-138404235D01*
X148939680Y-138315087D01*
X149146798Y-138315087D01*
X149116334Y-138408613D01*
X149066578Y-138505882D01*
X149000884Y-138592894D01*
X148930329Y-138660614D01*
X148907929Y-138678520D01*
X148823489Y-138733337D01*
X148730027Y-138774691D01*
X148627541Y-138802580D01*
X148516034Y-138817006D01*
X148448264Y-138819204D01*
X148343575Y-138813220D01*
X148244443Y-138795268D01*
X148150868Y-138765348D01*
X148062849Y-138723461D01*
X147973024Y-138663191D01*
X147894791Y-138590093D01*
X147828149Y-138504166D01*
X147796135Y-138450886D01*
X147754034Y-138358745D01*
X147723962Y-138259155D01*
X147705918Y-138152116D01*
X147699998Y-138052345D01*
X147699904Y-138037627D01*
X147704131Y-137943838D01*
X147898717Y-137943838D01*
X148970455Y-137943838D01*
X148963395Y-137845673D01*
X148939320Y-137748601D01*
X148898159Y-137662958D01*
X148836885Y-137583801D01*
X148760773Y-137520717D01*
X148701788Y-137487592D01*
X148605205Y-137451276D01*
X148502303Y-137431721D01*
X148430190Y-137427997D01*
X148324066Y-137436454D01*
X148226003Y-137461824D01*
X148135999Y-137504109D01*
X148054056Y-137563307D01*
X147986095Y-137637649D01*
X147937552Y-137725851D01*
X147908426Y-137827914D01*
X147898869Y-137928589D01*
X147898717Y-137943838D01*
X147704131Y-137943838D01*
X147704439Y-137936995D01*
X147720726Y-137828857D01*
X147748860Y-137728045D01*
X147788840Y-137634561D01*
X147794670Y-137623391D01*
X147846969Y-137539494D01*
X147916971Y-137457663D01*
X147998798Y-137389124D01*
X148059918Y-137350816D01*
X148159562Y-137305006D01*
X148254427Y-137276872D01*
X148355215Y-137260585D01*
X148448264Y-137256050D01*
X148553807Y-137262003D01*
G37*
G36*
X149733470Y-137568192D02*
G01*
X149780095Y-137481658D01*
X149846701Y-137401677D01*
X149929353Y-137337627D01*
X150017910Y-137294608D01*
X150118106Y-137267522D01*
X150218236Y-137256767D01*
X150253707Y-137256050D01*
X150253707Y-137474891D01*
X150200951Y-137474891D01*
X150100414Y-137481944D01*
X149999791Y-137506738D01*
X149903487Y-137555224D01*
X149861453Y-137587732D01*
X149793962Y-137672835D01*
X149754592Y-137774879D01*
X149736594Y-137885826D01*
X149733470Y-137964843D01*
X149733470Y-138803573D01*
X149534656Y-138803573D01*
X149534656Y-137271681D01*
X149733470Y-137271681D01*
X149733470Y-137568192D01*
G37*
G36*
X151811976Y-137271681D02*
G01*
X150904858Y-139522623D01*
X150700183Y-139522623D01*
X150997182Y-138793803D01*
X150369967Y-137271681D01*
X150585389Y-137271681D01*
X151106115Y-138577892D01*
X151610232Y-137271681D01*
X151811976Y-137271681D01*
G37*
G36*
X153745067Y-137262064D02*
G01*
X153852387Y-137283209D01*
X153953293Y-137319578D01*
X154017001Y-137352282D01*
X154104902Y-137412551D01*
X154181212Y-137485650D01*
X154245930Y-137571576D01*
X154276875Y-137624857D01*
X154317908Y-137716631D01*
X154347217Y-137815610D01*
X154364803Y-137921795D01*
X154370573Y-138020617D01*
X154370664Y-138035185D01*
X154366176Y-138134698D01*
X154350056Y-138241958D01*
X154322213Y-138342319D01*
X154282645Y-138435780D01*
X154276875Y-138446978D01*
X154225645Y-138530845D01*
X154157064Y-138613152D01*
X154076890Y-138682709D01*
X154017001Y-138721995D01*
X153920371Y-138768986D01*
X153817327Y-138800598D01*
X153720347Y-138815787D01*
X153644286Y-138819204D01*
X153540269Y-138812854D01*
X153443152Y-138793803D01*
X153342143Y-138757189D01*
X153269618Y-138717599D01*
X153186881Y-138656076D01*
X153117823Y-138586360D01*
X153057134Y-138499292D01*
X153037587Y-138461633D01*
X153037587Y-139522623D01*
X152838773Y-139522623D01*
X152838773Y-138037627D01*
X153037587Y-138037627D01*
X153043538Y-138137151D01*
X153064107Y-138239485D01*
X153099370Y-138333136D01*
X153112814Y-138359539D01*
X153171275Y-138447076D01*
X153242551Y-138519606D01*
X153318466Y-138572519D01*
X153410915Y-138615070D01*
X153509598Y-138639958D01*
X153604719Y-138647257D01*
X153702788Y-138640102D01*
X153803061Y-138615701D01*
X153895368Y-138573984D01*
X153977227Y-138515481D01*
X154046157Y-138441393D01*
X154097601Y-138360516D01*
X154136756Y-138268715D01*
X154161409Y-138167946D01*
X154171198Y-138069586D01*
X154171851Y-138035185D01*
X154165977Y-137933179D01*
X154145675Y-137829357D01*
X154110870Y-137735552D01*
X154097601Y-137709365D01*
X154040425Y-137622730D01*
X153970320Y-137551565D01*
X153895368Y-137500293D01*
X153803061Y-137459132D01*
X153702788Y-137435057D01*
X153604719Y-137427997D01*
X153500369Y-137436828D01*
X153402253Y-137463322D01*
X153318466Y-137502735D01*
X153235542Y-137561679D01*
X153165431Y-137635746D01*
X153112814Y-137716203D01*
X153073143Y-137806993D01*
X153048166Y-137906560D01*
X153037881Y-138014905D01*
X153037587Y-138037627D01*
X152838773Y-138037627D01*
X152838773Y-137271681D01*
X153037587Y-137271681D01*
X153037587Y-137613621D01*
X153091378Y-137522555D01*
X153161769Y-137441697D01*
X153239315Y-137377654D01*
X153268152Y-137358143D01*
X153361893Y-137308791D01*
X153465062Y-137275591D01*
X153564682Y-137259639D01*
X153644286Y-137256050D01*
X153745067Y-137262064D01*
G37*
G36*
X155468933Y-137262339D02*
G01*
X155566600Y-137281207D01*
X155667497Y-137317468D01*
X155739401Y-137356678D01*
X155821434Y-137417686D01*
X155896176Y-137495806D01*
X155953650Y-137584802D01*
X155967524Y-137613621D01*
X155967524Y-137271681D01*
X156166338Y-137271681D01*
X156166338Y-138803573D01*
X155967524Y-138803573D01*
X155967524Y-138458702D01*
X155913734Y-138551361D01*
X155843342Y-138633335D01*
X155765796Y-138697976D01*
X155736959Y-138717599D01*
X155643416Y-138766715D01*
X155540290Y-138799756D01*
X155440578Y-138815632D01*
X155360825Y-138819204D01*
X155260014Y-138813129D01*
X155152586Y-138791769D01*
X155051495Y-138755031D01*
X154987622Y-138721995D01*
X154899918Y-138660940D01*
X154823651Y-138587133D01*
X154758822Y-138500575D01*
X154727747Y-138446978D01*
X154686928Y-138354379D01*
X154657772Y-138254881D01*
X154640278Y-138148483D01*
X154634538Y-138049724D01*
X154634447Y-138035185D01*
X154833260Y-138035185D01*
X154839095Y-138135966D01*
X154859264Y-138239426D01*
X154893840Y-138333917D01*
X154907022Y-138360516D01*
X154964476Y-138448772D01*
X155034744Y-138521443D01*
X155109743Y-138573984D01*
X155202050Y-138615701D01*
X155302323Y-138640102D01*
X155400392Y-138647257D01*
X155505020Y-138638426D01*
X155603299Y-138611932D01*
X155687133Y-138572519D01*
X155770000Y-138513632D01*
X155839938Y-138439738D01*
X155892297Y-138359539D01*
X155931968Y-138268492D01*
X155956945Y-138168762D01*
X155967230Y-138060351D01*
X155967524Y-138037627D01*
X155961574Y-137938142D01*
X155941004Y-137835941D01*
X155905741Y-137742519D01*
X155892297Y-137716203D01*
X155834114Y-137628388D01*
X155763001Y-137555696D01*
X155687133Y-137502735D01*
X155594627Y-137460184D01*
X155495771Y-137435295D01*
X155400392Y-137427997D01*
X155302323Y-137435057D01*
X155202050Y-137459132D01*
X155109743Y-137500293D01*
X155027826Y-137557395D01*
X154958723Y-137629967D01*
X154907022Y-137709365D01*
X154868124Y-137800164D01*
X154843633Y-137900981D01*
X154833909Y-138000281D01*
X154833260Y-138035185D01*
X154634447Y-138035185D01*
X154638911Y-137935574D01*
X154654947Y-137828489D01*
X154682646Y-137728609D01*
X154722007Y-137635934D01*
X154727747Y-137624857D01*
X154779161Y-137541509D01*
X154847802Y-137459858D01*
X154927882Y-137391036D01*
X154987622Y-137352282D01*
X155084720Y-137305763D01*
X155188618Y-137274469D01*
X155286682Y-137259433D01*
X155363756Y-137256050D01*
X155468933Y-137262339D01*
G37*
G36*
X156523909Y-138037627D02*
G01*
X156528467Y-137937065D01*
X156544839Y-137829179D01*
X156573118Y-137728802D01*
X156613304Y-137635937D01*
X156619164Y-137624857D01*
X156671340Y-137541509D01*
X156740914Y-137459858D01*
X156822002Y-137391036D01*
X156882458Y-137352282D01*
X156980728Y-137305763D01*
X157074372Y-137277194D01*
X157173939Y-137260655D01*
X157265919Y-137256050D01*
X157368478Y-137260961D01*
X157479275Y-137279107D01*
X157580534Y-137310623D01*
X157672257Y-137355509D01*
X157731935Y-137395757D01*
X157806049Y-137461480D01*
X157875468Y-137548385D01*
X157922835Y-137634745D01*
X157957720Y-137730735D01*
X157968850Y-137774822D01*
X157758801Y-137774822D01*
X157725456Y-137680073D01*
X157668170Y-137591827D01*
X157589297Y-137520321D01*
X157501884Y-137471634D01*
X157402069Y-137440980D01*
X157301631Y-137428808D01*
X157265919Y-137427997D01*
X157163710Y-137436136D01*
X157068659Y-137460552D01*
X156988459Y-137496873D01*
X156903417Y-137558010D01*
X156832938Y-137638107D01*
X156794042Y-137702037D01*
X156756432Y-137793228D01*
X156732752Y-137896439D01*
X156723350Y-137999608D01*
X156722723Y-138036161D01*
X156728364Y-138142928D01*
X156745289Y-138240112D01*
X156777327Y-138336855D01*
X156794042Y-138372240D01*
X156849192Y-138458806D01*
X156923312Y-138534678D01*
X156988459Y-138578869D01*
X157085408Y-138620543D01*
X157181761Y-138641847D01*
X157265919Y-138647257D01*
X157369706Y-138639993D01*
X157473242Y-138614882D01*
X157564375Y-138571834D01*
X157589297Y-138555422D01*
X157668170Y-138483349D01*
X157725456Y-138394075D01*
X157758801Y-138297990D01*
X157968850Y-138297990D01*
X157939244Y-138396581D01*
X157897016Y-138486337D01*
X157842165Y-138567258D01*
X157774692Y-138639342D01*
X157730469Y-138676566D01*
X157645128Y-138732145D01*
X157550670Y-138774073D01*
X157447096Y-138802349D01*
X157334406Y-138816975D01*
X157265919Y-138819204D01*
X157161170Y-138813220D01*
X157062343Y-138795268D01*
X156958242Y-138760767D01*
X156882458Y-138723461D01*
X156793693Y-138663191D01*
X156716443Y-138590093D01*
X156650708Y-138504166D01*
X156619164Y-138450886D01*
X156577490Y-138358745D01*
X156547723Y-138259155D01*
X156529863Y-138152116D01*
X156524002Y-138052345D01*
X156523909Y-138037627D01*
G37*
G36*
X159161732Y-138803573D02*
G01*
X158532074Y-138116273D01*
X158532074Y-138803573D01*
X158333260Y-138803573D01*
X158333260Y-136708946D01*
X158532074Y-136708946D01*
X158532074Y-137956050D01*
X159148055Y-137271681D01*
X159422583Y-137271681D01*
X158697182Y-138034696D01*
X159427957Y-138803573D01*
X159161732Y-138803573D01*
G37*
D12*
X128442685Y-118336219D02*
X128142685Y-117860028D01*
X127928399Y-118336219D02*
X127928399Y-117336219D01*
X127928399Y-117336219D02*
X128271256Y-117336219D01*
X128271256Y-117336219D02*
X128356971Y-117383838D01*
X128356971Y-117383838D02*
X128399828Y-117431457D01*
X128399828Y-117431457D02*
X128442685Y-117526695D01*
X128442685Y-117526695D02*
X128442685Y-117669552D01*
X128442685Y-117669552D02*
X128399828Y-117764790D01*
X128399828Y-117764790D02*
X128356971Y-117812409D01*
X128356971Y-117812409D02*
X128271256Y-117860028D01*
X128271256Y-117860028D02*
X127928399Y-117860028D01*
X129256971Y-117336219D02*
X128828399Y-117336219D01*
X128828399Y-117336219D02*
X128785542Y-117812409D01*
X128785542Y-117812409D02*
X128828399Y-117764790D01*
X128828399Y-117764790D02*
X128914114Y-117717171D01*
X128914114Y-117717171D02*
X129128399Y-117717171D01*
X129128399Y-117717171D02*
X129214114Y-117764790D01*
X129214114Y-117764790D02*
X129256971Y-117812409D01*
X129256971Y-117812409D02*
X129299828Y-117907647D01*
X129299828Y-117907647D02*
X129299828Y-118145742D01*
X129299828Y-118145742D02*
X129256971Y-118240980D01*
X129256971Y-118240980D02*
X129214114Y-118288600D01*
X129214114Y-118288600D02*
X129128399Y-118336219D01*
X129128399Y-118336219D02*
X128914114Y-118336219D01*
X128914114Y-118336219D02*
X128828399Y-118288600D01*
X128828399Y-118288600D02*
X128785542Y-118240980D01*
X130071257Y-117669552D02*
X130071257Y-118336219D01*
X129856971Y-117288600D02*
X129642685Y-118002885D01*
X129642685Y-118002885D02*
X130199828Y-118002885D01*
X130928400Y-117336219D02*
X130756971Y-117336219D01*
X130756971Y-117336219D02*
X130671257Y-117383838D01*
X130671257Y-117383838D02*
X130628400Y-117431457D01*
X130628400Y-117431457D02*
X130542685Y-117574314D01*
X130542685Y-117574314D02*
X130499828Y-117764790D01*
X130499828Y-117764790D02*
X130499828Y-118145742D01*
X130499828Y-118145742D02*
X130542685Y-118240980D01*
X130542685Y-118240980D02*
X130585542Y-118288600D01*
X130585542Y-118288600D02*
X130671257Y-118336219D01*
X130671257Y-118336219D02*
X130842685Y-118336219D01*
X130842685Y-118336219D02*
X130928400Y-118288600D01*
X130928400Y-118288600D02*
X130971257Y-118240980D01*
X130971257Y-118240980D02*
X131014114Y-118145742D01*
X131014114Y-118145742D02*
X131014114Y-117907647D01*
X131014114Y-117907647D02*
X130971257Y-117812409D01*
X130971257Y-117812409D02*
X130928400Y-117764790D01*
X130928400Y-117764790D02*
X130842685Y-117717171D01*
X130842685Y-117717171D02*
X130671257Y-117717171D01*
X130671257Y-117717171D02*
X130585542Y-117764790D01*
X130585542Y-117764790D02*
X130542685Y-117812409D01*
X130542685Y-117812409D02*
X130499828Y-117907647D01*
X131571257Y-117336219D02*
X131656971Y-117336219D01*
X131656971Y-117336219D02*
X131742685Y-117383838D01*
X131742685Y-117383838D02*
X131785543Y-117431457D01*
X131785543Y-117431457D02*
X131828400Y-117526695D01*
X131828400Y-117526695D02*
X131871257Y-117717171D01*
X131871257Y-117717171D02*
X131871257Y-117955266D01*
X131871257Y-117955266D02*
X131828400Y-118145742D01*
X131828400Y-118145742D02*
X131785543Y-118240980D01*
X131785543Y-118240980D02*
X131742685Y-118288600D01*
X131742685Y-118288600D02*
X131656971Y-118336219D01*
X131656971Y-118336219D02*
X131571257Y-118336219D01*
X131571257Y-118336219D02*
X131485543Y-118288600D01*
X131485543Y-118288600D02*
X131442685Y-118240980D01*
X131442685Y-118240980D02*
X131399828Y-118145742D01*
X131399828Y-118145742D02*
X131356971Y-117955266D01*
X131356971Y-117955266D02*
X131356971Y-117717171D01*
X131356971Y-117717171D02*
X131399828Y-117526695D01*
X131399828Y-117526695D02*
X131442685Y-117431457D01*
X131442685Y-117431457D02*
X131485543Y-117383838D01*
X131485543Y-117383838D02*
X131571257Y-117336219D01*
X124734019Y-114453666D02*
X124257828Y-114786999D01*
X124734019Y-115025094D02*
X123734019Y-115025094D01*
X123734019Y-115025094D02*
X123734019Y-114644142D01*
X123734019Y-114644142D02*
X123781638Y-114548904D01*
X123781638Y-114548904D02*
X123829257Y-114501285D01*
X123829257Y-114501285D02*
X123924495Y-114453666D01*
X123924495Y-114453666D02*
X124067352Y-114453666D01*
X124067352Y-114453666D02*
X124162590Y-114501285D01*
X124162590Y-114501285D02*
X124210209Y-114548904D01*
X124210209Y-114548904D02*
X124257828Y-114644142D01*
X124257828Y-114644142D02*
X124257828Y-115025094D01*
X123734019Y-113548904D02*
X123734019Y-114025094D01*
X123734019Y-114025094D02*
X124210209Y-114072713D01*
X124210209Y-114072713D02*
X124162590Y-114025094D01*
X124162590Y-114025094D02*
X124114971Y-113929856D01*
X124114971Y-113929856D02*
X124114971Y-113691761D01*
X124114971Y-113691761D02*
X124162590Y-113596523D01*
X124162590Y-113596523D02*
X124210209Y-113548904D01*
X124210209Y-113548904D02*
X124305447Y-113501285D01*
X124305447Y-113501285D02*
X124543542Y-113501285D01*
X124543542Y-113501285D02*
X124638780Y-113548904D01*
X124638780Y-113548904D02*
X124686400Y-113596523D01*
X124686400Y-113596523D02*
X124734019Y-113691761D01*
X124734019Y-113691761D02*
X124734019Y-113929856D01*
X124734019Y-113929856D02*
X124686400Y-114025094D01*
X124686400Y-114025094D02*
X124638780Y-114072713D01*
X126144533Y-127277019D02*
X125811200Y-126800828D01*
X125573105Y-127277019D02*
X125573105Y-126277019D01*
X125573105Y-126277019D02*
X125954057Y-126277019D01*
X125954057Y-126277019D02*
X126049295Y-126324638D01*
X126049295Y-126324638D02*
X126096914Y-126372257D01*
X126096914Y-126372257D02*
X126144533Y-126467495D01*
X126144533Y-126467495D02*
X126144533Y-126610352D01*
X126144533Y-126610352D02*
X126096914Y-126705590D01*
X126096914Y-126705590D02*
X126049295Y-126753209D01*
X126049295Y-126753209D02*
X125954057Y-126800828D01*
X125954057Y-126800828D02*
X125573105Y-126800828D01*
X127096914Y-127277019D02*
X126525486Y-127277019D01*
X126811200Y-127277019D02*
X126811200Y-126277019D01*
X126811200Y-126277019D02*
X126715962Y-126419876D01*
X126715962Y-126419876D02*
X126620724Y-126515114D01*
X126620724Y-126515114D02*
X126525486Y-126562733D01*
X136528361Y-123181257D02*
X136433123Y-123133638D01*
X136433123Y-123133638D02*
X136337885Y-123038400D01*
X136337885Y-123038400D02*
X136195028Y-122895542D01*
X136195028Y-122895542D02*
X136099790Y-122847923D01*
X136099790Y-122847923D02*
X136004552Y-122847923D01*
X136052171Y-123086019D02*
X135956933Y-123038400D01*
X135956933Y-123038400D02*
X135861695Y-122943161D01*
X135861695Y-122943161D02*
X135814076Y-122752685D01*
X135814076Y-122752685D02*
X135814076Y-122419352D01*
X135814076Y-122419352D02*
X135861695Y-122228876D01*
X135861695Y-122228876D02*
X135956933Y-122133638D01*
X135956933Y-122133638D02*
X136052171Y-122086019D01*
X136052171Y-122086019D02*
X136242647Y-122086019D01*
X136242647Y-122086019D02*
X136337885Y-122133638D01*
X136337885Y-122133638D02*
X136433123Y-122228876D01*
X136433123Y-122228876D02*
X136480742Y-122419352D01*
X136480742Y-122419352D02*
X136480742Y-122752685D01*
X136480742Y-122752685D02*
X136433123Y-122943161D01*
X136433123Y-122943161D02*
X136337885Y-123038400D01*
X136337885Y-123038400D02*
X136242647Y-123086019D01*
X136242647Y-123086019D02*
X136052171Y-123086019D01*
X137433123Y-123086019D02*
X136861695Y-123086019D01*
X137147409Y-123086019D02*
X137147409Y-122086019D01*
X137147409Y-122086019D02*
X137052171Y-122228876D01*
X137052171Y-122228876D02*
X136956933Y-122324114D01*
X136956933Y-122324114D02*
X136861695Y-122371733D01*
X160917095Y-118749819D02*
X161488523Y-118749819D01*
X161202809Y-119749819D02*
X161202809Y-118749819D01*
X161821857Y-119749819D02*
X161821857Y-118749819D01*
X161821857Y-118749819D02*
X162202809Y-118749819D01*
X162202809Y-118749819D02*
X162298047Y-118797438D01*
X162298047Y-118797438D02*
X162345666Y-118845057D01*
X162345666Y-118845057D02*
X162393285Y-118940295D01*
X162393285Y-118940295D02*
X162393285Y-119083152D01*
X162393285Y-119083152D02*
X162345666Y-119178390D01*
X162345666Y-119178390D02*
X162298047Y-119226009D01*
X162298047Y-119226009D02*
X162202809Y-119273628D01*
X162202809Y-119273628D02*
X161821857Y-119273628D01*
X162726619Y-118749819D02*
X163345666Y-118749819D01*
X163345666Y-118749819D02*
X163012333Y-119130771D01*
X163012333Y-119130771D02*
X163155190Y-119130771D01*
X163155190Y-119130771D02*
X163250428Y-119178390D01*
X163250428Y-119178390D02*
X163298047Y-119226009D01*
X163298047Y-119226009D02*
X163345666Y-119321247D01*
X163345666Y-119321247D02*
X163345666Y-119559342D01*
X163345666Y-119559342D02*
X163298047Y-119654580D01*
X163298047Y-119654580D02*
X163250428Y-119702200D01*
X163250428Y-119702200D02*
X163155190Y-119749819D01*
X163155190Y-119749819D02*
X162869476Y-119749819D01*
X162869476Y-119749819D02*
X162774238Y-119702200D01*
X162774238Y-119702200D02*
X162726619Y-119654580D01*
X126619980Y-123115066D02*
X126667600Y-123162685D01*
X126667600Y-123162685D02*
X126715219Y-123305542D01*
X126715219Y-123305542D02*
X126715219Y-123400780D01*
X126715219Y-123400780D02*
X126667600Y-123543637D01*
X126667600Y-123543637D02*
X126572361Y-123638875D01*
X126572361Y-123638875D02*
X126477123Y-123686494D01*
X126477123Y-123686494D02*
X126286647Y-123734113D01*
X126286647Y-123734113D02*
X126143790Y-123734113D01*
X126143790Y-123734113D02*
X125953314Y-123686494D01*
X125953314Y-123686494D02*
X125858076Y-123638875D01*
X125858076Y-123638875D02*
X125762838Y-123543637D01*
X125762838Y-123543637D02*
X125715219Y-123400780D01*
X125715219Y-123400780D02*
X125715219Y-123305542D01*
X125715219Y-123305542D02*
X125762838Y-123162685D01*
X125762838Y-123162685D02*
X125810457Y-123115066D01*
X125715219Y-122210304D02*
X125715219Y-122686494D01*
X125715219Y-122686494D02*
X126191409Y-122734113D01*
X126191409Y-122734113D02*
X126143790Y-122686494D01*
X126143790Y-122686494D02*
X126096171Y-122591256D01*
X126096171Y-122591256D02*
X126096171Y-122353161D01*
X126096171Y-122353161D02*
X126143790Y-122257923D01*
X126143790Y-122257923D02*
X126191409Y-122210304D01*
X126191409Y-122210304D02*
X126286647Y-122162685D01*
X126286647Y-122162685D02*
X126524742Y-122162685D01*
X126524742Y-122162685D02*
X126619980Y-122210304D01*
X126619980Y-122210304D02*
X126667600Y-122257923D01*
X126667600Y-122257923D02*
X126715219Y-122353161D01*
X126715219Y-122353161D02*
X126715219Y-122591256D01*
X126715219Y-122591256D02*
X126667600Y-122686494D01*
X126667600Y-122686494D02*
X126619980Y-122734113D01*
X144003068Y-74288683D02*
X144145925Y-74336302D01*
X144145925Y-74336302D02*
X144193544Y-74383921D01*
X144193544Y-74383921D02*
X144241163Y-74479159D01*
X144241163Y-74479159D02*
X144241163Y-74622016D01*
X144241163Y-74622016D02*
X144193544Y-74717254D01*
X144193544Y-74717254D02*
X144145925Y-74764874D01*
X144145925Y-74764874D02*
X144050687Y-74812493D01*
X144050687Y-74812493D02*
X143669735Y-74812493D01*
X143669735Y-74812493D02*
X143669735Y-73812493D01*
X143669735Y-73812493D02*
X144003068Y-73812493D01*
X144003068Y-73812493D02*
X144098306Y-73860112D01*
X144098306Y-73860112D02*
X144145925Y-73907731D01*
X144145925Y-73907731D02*
X144193544Y-74002969D01*
X144193544Y-74002969D02*
X144193544Y-74098207D01*
X144193544Y-74098207D02*
X144145925Y-74193445D01*
X144145925Y-74193445D02*
X144098306Y-74241064D01*
X144098306Y-74241064D02*
X144003068Y-74288683D01*
X144003068Y-74288683D02*
X143669735Y-74288683D01*
X144526878Y-73812493D02*
X145098306Y-73812493D01*
X144812592Y-74812493D02*
X144812592Y-73812493D01*
X145907830Y-73812493D02*
X145431640Y-73812493D01*
X145431640Y-73812493D02*
X145384021Y-74288683D01*
X145384021Y-74288683D02*
X145431640Y-74241064D01*
X145431640Y-74241064D02*
X145526878Y-74193445D01*
X145526878Y-74193445D02*
X145764973Y-74193445D01*
X145764973Y-74193445D02*
X145860211Y-74241064D01*
X145860211Y-74241064D02*
X145907830Y-74288683D01*
X145907830Y-74288683D02*
X145955449Y-74383921D01*
X145955449Y-74383921D02*
X145955449Y-74622016D01*
X145955449Y-74622016D02*
X145907830Y-74717254D01*
X145907830Y-74717254D02*
X145860211Y-74764874D01*
X145860211Y-74764874D02*
X145764973Y-74812493D01*
X145764973Y-74812493D02*
X145526878Y-74812493D01*
X145526878Y-74812493D02*
X145431640Y-74764874D01*
X145431640Y-74764874D02*
X145384021Y-74717254D01*
X130988780Y-113018866D02*
X131036400Y-113066485D01*
X131036400Y-113066485D02*
X131084019Y-113209342D01*
X131084019Y-113209342D02*
X131084019Y-113304580D01*
X131084019Y-113304580D02*
X131036400Y-113447437D01*
X131036400Y-113447437D02*
X130941161Y-113542675D01*
X130941161Y-113542675D02*
X130845923Y-113590294D01*
X130845923Y-113590294D02*
X130655447Y-113637913D01*
X130655447Y-113637913D02*
X130512590Y-113637913D01*
X130512590Y-113637913D02*
X130322114Y-113590294D01*
X130322114Y-113590294D02*
X130226876Y-113542675D01*
X130226876Y-113542675D02*
X130131638Y-113447437D01*
X130131638Y-113447437D02*
X130084019Y-113304580D01*
X130084019Y-113304580D02*
X130084019Y-113209342D01*
X130084019Y-113209342D02*
X130131638Y-113066485D01*
X130131638Y-113066485D02*
X130179257Y-113018866D01*
X131084019Y-112066485D02*
X131084019Y-112637913D01*
X131084019Y-112352199D02*
X130084019Y-112352199D01*
X130084019Y-112352199D02*
X130226876Y-112447437D01*
X130226876Y-112447437D02*
X130322114Y-112542675D01*
X130322114Y-112542675D02*
X130369733Y-112637913D01*
X131783333Y-123752780D02*
X131735714Y-123800400D01*
X131735714Y-123800400D02*
X131592857Y-123848019D01*
X131592857Y-123848019D02*
X131497619Y-123848019D01*
X131497619Y-123848019D02*
X131354762Y-123800400D01*
X131354762Y-123800400D02*
X131259524Y-123705161D01*
X131259524Y-123705161D02*
X131211905Y-123609923D01*
X131211905Y-123609923D02*
X131164286Y-123419447D01*
X131164286Y-123419447D02*
X131164286Y-123276590D01*
X131164286Y-123276590D02*
X131211905Y-123086114D01*
X131211905Y-123086114D02*
X131259524Y-122990876D01*
X131259524Y-122990876D02*
X131354762Y-122895638D01*
X131354762Y-122895638D02*
X131497619Y-122848019D01*
X131497619Y-122848019D02*
X131592857Y-122848019D01*
X131592857Y-122848019D02*
X131735714Y-122895638D01*
X131735714Y-122895638D02*
X131783333Y-122943257D01*
X132116667Y-122848019D02*
X132735714Y-122848019D01*
X132735714Y-122848019D02*
X132402381Y-123228971D01*
X132402381Y-123228971D02*
X132545238Y-123228971D01*
X132545238Y-123228971D02*
X132640476Y-123276590D01*
X132640476Y-123276590D02*
X132688095Y-123324209D01*
X132688095Y-123324209D02*
X132735714Y-123419447D01*
X132735714Y-123419447D02*
X132735714Y-123657542D01*
X132735714Y-123657542D02*
X132688095Y-123752780D01*
X132688095Y-123752780D02*
X132640476Y-123800400D01*
X132640476Y-123800400D02*
X132545238Y-123848019D01*
X132545238Y-123848019D02*
X132259524Y-123848019D01*
X132259524Y-123848019D02*
X132164286Y-123800400D01*
X132164286Y-123800400D02*
X132116667Y-123752780D01*
X160866295Y-107938219D02*
X161437723Y-107938219D01*
X161152009Y-108938219D02*
X161152009Y-107938219D01*
X161771057Y-108938219D02*
X161771057Y-107938219D01*
X161771057Y-107938219D02*
X162152009Y-107938219D01*
X162152009Y-107938219D02*
X162247247Y-107985838D01*
X162247247Y-107985838D02*
X162294866Y-108033457D01*
X162294866Y-108033457D02*
X162342485Y-108128695D01*
X162342485Y-108128695D02*
X162342485Y-108271552D01*
X162342485Y-108271552D02*
X162294866Y-108366790D01*
X162294866Y-108366790D02*
X162247247Y-108414409D01*
X162247247Y-108414409D02*
X162152009Y-108462028D01*
X162152009Y-108462028D02*
X161771057Y-108462028D01*
X163294866Y-108938219D02*
X162723438Y-108938219D01*
X163009152Y-108938219D02*
X163009152Y-107938219D01*
X163009152Y-107938219D02*
X162913914Y-108081076D01*
X162913914Y-108081076D02*
X162818676Y-108176314D01*
X162818676Y-108176314D02*
X162723438Y-108223933D01*
X143918085Y-93199809D02*
X144060942Y-93247428D01*
X144060942Y-93247428D02*
X144108561Y-93295047D01*
X144108561Y-93295047D02*
X144156180Y-93390285D01*
X144156180Y-93390285D02*
X144156180Y-93533142D01*
X144156180Y-93533142D02*
X144108561Y-93628380D01*
X144108561Y-93628380D02*
X144060942Y-93676000D01*
X144060942Y-93676000D02*
X143965704Y-93723619D01*
X143965704Y-93723619D02*
X143584752Y-93723619D01*
X143584752Y-93723619D02*
X143584752Y-92723619D01*
X143584752Y-92723619D02*
X143918085Y-92723619D01*
X143918085Y-92723619D02*
X144013323Y-92771238D01*
X144013323Y-92771238D02*
X144060942Y-92818857D01*
X144060942Y-92818857D02*
X144108561Y-92914095D01*
X144108561Y-92914095D02*
X144108561Y-93009333D01*
X144108561Y-93009333D02*
X144060942Y-93104571D01*
X144060942Y-93104571D02*
X144013323Y-93152190D01*
X144013323Y-93152190D02*
X143918085Y-93199809D01*
X143918085Y-93199809D02*
X143584752Y-93199809D01*
X144441895Y-92723619D02*
X145013323Y-92723619D01*
X144727609Y-93723619D02*
X144727609Y-92723619D01*
X145775228Y-93056952D02*
X145775228Y-93723619D01*
X145537133Y-92676000D02*
X145299038Y-93390285D01*
X145299038Y-93390285D02*
X145918085Y-93390285D01*
X126689819Y-114466666D02*
X126213628Y-114799999D01*
X126689819Y-115038094D02*
X125689819Y-115038094D01*
X125689819Y-115038094D02*
X125689819Y-114657142D01*
X125689819Y-114657142D02*
X125737438Y-114561904D01*
X125737438Y-114561904D02*
X125785057Y-114514285D01*
X125785057Y-114514285D02*
X125880295Y-114466666D01*
X125880295Y-114466666D02*
X126023152Y-114466666D01*
X126023152Y-114466666D02*
X126118390Y-114514285D01*
X126118390Y-114514285D02*
X126166009Y-114561904D01*
X126166009Y-114561904D02*
X126213628Y-114657142D01*
X126213628Y-114657142D02*
X126213628Y-115038094D01*
X126023152Y-113609523D02*
X126689819Y-113609523D01*
X125642200Y-113847618D02*
X126356485Y-114085713D01*
X126356485Y-114085713D02*
X126356485Y-113466666D01*
X160866295Y-124016419D02*
X161437723Y-124016419D01*
X161152009Y-125016419D02*
X161152009Y-124016419D01*
X161771057Y-125016419D02*
X161771057Y-124016419D01*
X161771057Y-124016419D02*
X162152009Y-124016419D01*
X162152009Y-124016419D02*
X162247247Y-124064038D01*
X162247247Y-124064038D02*
X162294866Y-124111657D01*
X162294866Y-124111657D02*
X162342485Y-124206895D01*
X162342485Y-124206895D02*
X162342485Y-124349752D01*
X162342485Y-124349752D02*
X162294866Y-124444990D01*
X162294866Y-124444990D02*
X162247247Y-124492609D01*
X162247247Y-124492609D02*
X162152009Y-124540228D01*
X162152009Y-124540228D02*
X161771057Y-124540228D01*
X163199628Y-124349752D02*
X163199628Y-125016419D01*
X162961533Y-123968800D02*
X162723438Y-124683085D01*
X162723438Y-124683085D02*
X163342485Y-124683085D01*
X136553761Y-110789657D02*
X136458523Y-110742038D01*
X136458523Y-110742038D02*
X136363285Y-110646800D01*
X136363285Y-110646800D02*
X136220428Y-110503942D01*
X136220428Y-110503942D02*
X136125190Y-110456323D01*
X136125190Y-110456323D02*
X136029952Y-110456323D01*
X136077571Y-110694419D02*
X135982333Y-110646800D01*
X135982333Y-110646800D02*
X135887095Y-110551561D01*
X135887095Y-110551561D02*
X135839476Y-110361085D01*
X135839476Y-110361085D02*
X135839476Y-110027752D01*
X135839476Y-110027752D02*
X135887095Y-109837276D01*
X135887095Y-109837276D02*
X135982333Y-109742038D01*
X135982333Y-109742038D02*
X136077571Y-109694419D01*
X136077571Y-109694419D02*
X136268047Y-109694419D01*
X136268047Y-109694419D02*
X136363285Y-109742038D01*
X136363285Y-109742038D02*
X136458523Y-109837276D01*
X136458523Y-109837276D02*
X136506142Y-110027752D01*
X136506142Y-110027752D02*
X136506142Y-110361085D01*
X136506142Y-110361085D02*
X136458523Y-110551561D01*
X136458523Y-110551561D02*
X136363285Y-110646800D01*
X136363285Y-110646800D02*
X136268047Y-110694419D01*
X136268047Y-110694419D02*
X136077571Y-110694419D01*
X136887095Y-109789657D02*
X136934714Y-109742038D01*
X136934714Y-109742038D02*
X137029952Y-109694419D01*
X137029952Y-109694419D02*
X137268047Y-109694419D01*
X137268047Y-109694419D02*
X137363285Y-109742038D01*
X137363285Y-109742038D02*
X137410904Y-109789657D01*
X137410904Y-109789657D02*
X137458523Y-109884895D01*
X137458523Y-109884895D02*
X137458523Y-109980133D01*
X137458523Y-109980133D02*
X137410904Y-110122990D01*
X137410904Y-110122990D02*
X136839476Y-110694419D01*
X136839476Y-110694419D02*
X137458523Y-110694419D01*
X129153619Y-113044266D02*
X128677428Y-113377599D01*
X129153619Y-113615694D02*
X128153619Y-113615694D01*
X128153619Y-113615694D02*
X128153619Y-113234742D01*
X128153619Y-113234742D02*
X128201238Y-113139504D01*
X128201238Y-113139504D02*
X128248857Y-113091885D01*
X128248857Y-113091885D02*
X128344095Y-113044266D01*
X128344095Y-113044266D02*
X128486952Y-113044266D01*
X128486952Y-113044266D02*
X128582190Y-113091885D01*
X128582190Y-113091885D02*
X128629809Y-113139504D01*
X128629809Y-113139504D02*
X128677428Y-113234742D01*
X128677428Y-113234742D02*
X128677428Y-113615694D01*
X128153619Y-112710932D02*
X128153619Y-112091885D01*
X128153619Y-112091885D02*
X128534571Y-112425218D01*
X128534571Y-112425218D02*
X128534571Y-112282361D01*
X128534571Y-112282361D02*
X128582190Y-112187123D01*
X128582190Y-112187123D02*
X128629809Y-112139504D01*
X128629809Y-112139504D02*
X128725047Y-112091885D01*
X128725047Y-112091885D02*
X128963142Y-112091885D01*
X128963142Y-112091885D02*
X129058380Y-112139504D01*
X129058380Y-112139504D02*
X129106000Y-112187123D01*
X129106000Y-112187123D02*
X129153619Y-112282361D01*
X129153619Y-112282361D02*
X129153619Y-112568075D01*
X129153619Y-112568075D02*
X129106000Y-112663313D01*
X129106000Y-112663313D02*
X129058380Y-112710932D01*
X149718733Y-124743380D02*
X149671114Y-124791000D01*
X149671114Y-124791000D02*
X149528257Y-124838619D01*
X149528257Y-124838619D02*
X149433019Y-124838619D01*
X149433019Y-124838619D02*
X149290162Y-124791000D01*
X149290162Y-124791000D02*
X149194924Y-124695761D01*
X149194924Y-124695761D02*
X149147305Y-124600523D01*
X149147305Y-124600523D02*
X149099686Y-124410047D01*
X149099686Y-124410047D02*
X149099686Y-124267190D01*
X149099686Y-124267190D02*
X149147305Y-124076714D01*
X149147305Y-124076714D02*
X149194924Y-123981476D01*
X149194924Y-123981476D02*
X149290162Y-123886238D01*
X149290162Y-123886238D02*
X149433019Y-123838619D01*
X149433019Y-123838619D02*
X149528257Y-123838619D01*
X149528257Y-123838619D02*
X149671114Y-123886238D01*
X149671114Y-123886238D02*
X149718733Y-123933857D01*
X150575876Y-123838619D02*
X150385400Y-123838619D01*
X150385400Y-123838619D02*
X150290162Y-123886238D01*
X150290162Y-123886238D02*
X150242543Y-123933857D01*
X150242543Y-123933857D02*
X150147305Y-124076714D01*
X150147305Y-124076714D02*
X150099686Y-124267190D01*
X150099686Y-124267190D02*
X150099686Y-124648142D01*
X150099686Y-124648142D02*
X150147305Y-124743380D01*
X150147305Y-124743380D02*
X150194924Y-124791000D01*
X150194924Y-124791000D02*
X150290162Y-124838619D01*
X150290162Y-124838619D02*
X150480638Y-124838619D01*
X150480638Y-124838619D02*
X150575876Y-124791000D01*
X150575876Y-124791000D02*
X150623495Y-124743380D01*
X150623495Y-124743380D02*
X150671114Y-124648142D01*
X150671114Y-124648142D02*
X150671114Y-124410047D01*
X150671114Y-124410047D02*
X150623495Y-124314809D01*
X150623495Y-124314809D02*
X150575876Y-124267190D01*
X150575876Y-124267190D02*
X150480638Y-124219571D01*
X150480638Y-124219571D02*
X150290162Y-124219571D01*
X150290162Y-124219571D02*
X150194924Y-124267190D01*
X150194924Y-124267190D02*
X150147305Y-124314809D01*
X150147305Y-124314809D02*
X150099686Y-124410047D01*
X160917095Y-113369419D02*
X161488523Y-113369419D01*
X161202809Y-114369419D02*
X161202809Y-113369419D01*
X161821857Y-114369419D02*
X161821857Y-113369419D01*
X161821857Y-113369419D02*
X162202809Y-113369419D01*
X162202809Y-113369419D02*
X162298047Y-113417038D01*
X162298047Y-113417038D02*
X162345666Y-113464657D01*
X162345666Y-113464657D02*
X162393285Y-113559895D01*
X162393285Y-113559895D02*
X162393285Y-113702752D01*
X162393285Y-113702752D02*
X162345666Y-113797990D01*
X162345666Y-113797990D02*
X162298047Y-113845609D01*
X162298047Y-113845609D02*
X162202809Y-113893228D01*
X162202809Y-113893228D02*
X161821857Y-113893228D01*
X162774238Y-113464657D02*
X162821857Y-113417038D01*
X162821857Y-113417038D02*
X162917095Y-113369419D01*
X162917095Y-113369419D02*
X163155190Y-113369419D01*
X163155190Y-113369419D02*
X163250428Y-113417038D01*
X163250428Y-113417038D02*
X163298047Y-113464657D01*
X163298047Y-113464657D02*
X163345666Y-113559895D01*
X163345666Y-113559895D02*
X163345666Y-113655133D01*
X163345666Y-113655133D02*
X163298047Y-113797990D01*
X163298047Y-113797990D02*
X162726619Y-114369419D01*
X162726619Y-114369419D02*
X163345666Y-114369419D01*
X124590981Y-123131683D02*
X124638601Y-123179302D01*
X124638601Y-123179302D02*
X124686220Y-123322159D01*
X124686220Y-123322159D02*
X124686220Y-123417397D01*
X124686220Y-123417397D02*
X124638601Y-123560254D01*
X124638601Y-123560254D02*
X124543362Y-123655492D01*
X124543362Y-123655492D02*
X124448124Y-123703111D01*
X124448124Y-123703111D02*
X124257648Y-123750730D01*
X124257648Y-123750730D02*
X124114791Y-123750730D01*
X124114791Y-123750730D02*
X123924315Y-123703111D01*
X123924315Y-123703111D02*
X123829077Y-123655492D01*
X123829077Y-123655492D02*
X123733839Y-123560254D01*
X123733839Y-123560254D02*
X123686220Y-123417397D01*
X123686220Y-123417397D02*
X123686220Y-123322159D01*
X123686220Y-123322159D02*
X123733839Y-123179302D01*
X123733839Y-123179302D02*
X123781458Y-123131683D01*
X124019553Y-122274540D02*
X124686220Y-122274540D01*
X123638601Y-122512635D02*
X124352886Y-122750730D01*
X124352886Y-122750730D02*
X124352886Y-122131683D01*
X149174295Y-115231619D02*
X149174295Y-116041142D01*
X149174295Y-116041142D02*
X149221914Y-116136380D01*
X149221914Y-116136380D02*
X149269533Y-116184000D01*
X149269533Y-116184000D02*
X149364771Y-116231619D01*
X149364771Y-116231619D02*
X149555247Y-116231619D01*
X149555247Y-116231619D02*
X149650485Y-116184000D01*
X149650485Y-116184000D02*
X149698104Y-116136380D01*
X149698104Y-116136380D02*
X149745723Y-116041142D01*
X149745723Y-116041142D02*
X149745723Y-115231619D01*
X150745723Y-116231619D02*
X150174295Y-116231619D01*
X150460009Y-116231619D02*
X150460009Y-115231619D01*
X150460009Y-115231619D02*
X150364771Y-115374476D01*
X150364771Y-115374476D02*
X150269533Y-115469714D01*
X150269533Y-115469714D02*
X150174295Y-115517333D01*
D13*
X129858500Y-118683600D02*
X129058500Y-118683600D01*
X129858500Y-118683600D02*
X130658500Y-118683600D01*
X129858500Y-121803600D02*
X129058500Y-121803600D01*
X129858500Y-121803600D02*
X130658500Y-121803600D01*
X131398500Y-122083600D02*
X130918500Y-122083600D01*
X131158500Y-121753600D01*
X131398500Y-122083600D01*
G36*
X131398500Y-122083600D02*
G01*
X130918500Y-122083600D01*
X131158500Y-121753600D01*
X131398500Y-122083600D01*
G37*
X123655100Y-116538942D02*
X123655100Y-117013458D01*
X124700100Y-116538942D02*
X124700100Y-117013458D01*
X129468136Y-124807400D02*
X133822264Y-124807400D01*
X129468136Y-128227400D02*
X133822264Y-128227400D01*
X136649000Y-116642200D02*
X134699000Y-116642200D01*
X136649000Y-116642200D02*
X138599000Y-116642200D01*
X136649000Y-121762200D02*
X134699000Y-121762200D01*
X136649000Y-121762200D02*
X138599000Y-121762200D01*
X133949000Y-116737200D02*
X133709000Y-116407200D01*
X134189000Y-116407200D01*
X133949000Y-116737200D01*
G36*
X133949000Y-116737200D02*
G01*
X133709000Y-116407200D01*
X134189000Y-116407200D01*
X133949000Y-116737200D01*
G37*
X163729800Y-121733732D02*
G75*
G02*
X160729800Y-121733732I-1500000J0D01*
G01*
X160729800Y-121733732D02*
G75*
G02*
X163729800Y-121733732I1500000J0D01*
G01*
X125623400Y-120574380D02*
X125623400Y-120293220D01*
X126643400Y-120574380D02*
X126643400Y-120293220D01*
D14*
X107511357Y-69847424D02*
X107511357Y-72322424D01*
X107511357Y-69847424D02*
X110981357Y-69847424D01*
X107511357Y-78737424D02*
X107511357Y-76262424D01*
X110981357Y-65987424D02*
X120511357Y-65987424D01*
X110981357Y-69847424D02*
X110981357Y-65987424D01*
X110981357Y-78737424D02*
X107511357Y-78737424D01*
X110981357Y-82597424D02*
X110981357Y-78737424D01*
X120511357Y-65987424D02*
X120511357Y-71372424D01*
X120511357Y-77212424D02*
X120511357Y-82597424D01*
X120511357Y-82597424D02*
X110981357Y-82597424D01*
D10*
X125780000Y-74292424D02*
X127780000Y-74292424D01*
X126780000Y-73292424D02*
X126780000Y-75292424D01*
X161780000Y-74292424D02*
X163780000Y-74292424D01*
D14*
X169073669Y-65990000D02*
X178603669Y-65990000D01*
X169073669Y-71375000D02*
X169073669Y-65990000D01*
X169073669Y-82600000D02*
X169073669Y-77215000D01*
X178603669Y-65990000D02*
X178603669Y-69850000D01*
X178603669Y-69850000D02*
X182073669Y-69850000D01*
X178603669Y-78740000D02*
X178603669Y-82600000D01*
X178603669Y-82600000D02*
X169073669Y-82600000D01*
X182073669Y-69850000D02*
X182073669Y-72325000D01*
X182073669Y-78740000D02*
X178603669Y-78740000D01*
X182073669Y-78740000D02*
X182073669Y-76265000D01*
D10*
X112280000Y-65192424D02*
X113380000Y-65192424D01*
X113780000Y-65192424D02*
X114880000Y-65192424D01*
X115280000Y-65192424D02*
X116380000Y-65192424D01*
X116780000Y-65192424D02*
X117880000Y-65192424D01*
X118280000Y-65192424D02*
X119380000Y-65192424D01*
X119780000Y-65192424D02*
X120880000Y-65192424D01*
X121280000Y-65192424D02*
X122380000Y-65192424D01*
X122780000Y-65192424D02*
X123880000Y-65192424D01*
X124280000Y-65192424D02*
X125380000Y-65192424D01*
X125780000Y-65192424D02*
X126880000Y-65192424D01*
X127280000Y-65192424D02*
X128380000Y-65192424D01*
X128780000Y-65192424D02*
X129880000Y-65192424D01*
X130280000Y-65192424D02*
X131380000Y-65192424D01*
X131780000Y-65192424D02*
X132880000Y-65192424D01*
X133280000Y-65192424D02*
X134380000Y-65192424D01*
X134780000Y-65192424D02*
X135880000Y-65192424D01*
X136280000Y-65192424D02*
X137380000Y-65192424D01*
X137780000Y-65192424D02*
X138880000Y-65192424D01*
X139280000Y-65192424D02*
X140380000Y-65192424D01*
X140780000Y-65192424D02*
X141880000Y-65192424D01*
X142280000Y-65192424D02*
X143380000Y-65192424D01*
X143780000Y-65192424D02*
X144880000Y-65192424D01*
X145280000Y-65192424D02*
X146380000Y-65192424D01*
X146780000Y-65192424D02*
X147880000Y-65192424D01*
X148280000Y-65192424D02*
X149380000Y-65192424D01*
X149780000Y-65192424D02*
X150880000Y-65192424D01*
X151280000Y-65192424D02*
X152380000Y-65192424D01*
X152780000Y-65192424D02*
X153880000Y-65192424D01*
X154280000Y-65192424D02*
X155380000Y-65192424D01*
X155780000Y-65192424D02*
X156880000Y-65192424D01*
X157280000Y-65192424D02*
X158380000Y-65192424D01*
X158780000Y-65192424D02*
X159880000Y-65192424D01*
X160280000Y-65192424D02*
X161380000Y-65192424D01*
X161780000Y-65192424D02*
X162880000Y-65192424D01*
X163280000Y-65192424D02*
X164380000Y-65192424D01*
X164780000Y-65192424D02*
X165880000Y-65192424D01*
X166280000Y-65192424D02*
X167380000Y-65192424D01*
X167780000Y-65192424D02*
X168880000Y-65192424D01*
X169280000Y-65192424D02*
X170380000Y-65192424D01*
X170780000Y-65192424D02*
X171880000Y-65192424D01*
X172280000Y-65192424D02*
X173380000Y-65192424D01*
X173780000Y-65192424D02*
X174880000Y-65192424D01*
X175280000Y-65192424D02*
X176380000Y-65192424D01*
X176780000Y-65192424D02*
X177280000Y-65192424D01*
X177280000Y-65192424D02*
X177280000Y-66292424D01*
X177280000Y-66692424D02*
X177280000Y-67792424D01*
X177280000Y-68192424D02*
X177280000Y-69292424D01*
X177280000Y-69692424D02*
X177280000Y-70792424D01*
X177280000Y-71192424D02*
X177280000Y-72292424D01*
X177280000Y-72692424D02*
X177280000Y-73792424D01*
X177280000Y-74192424D02*
X177280000Y-75292424D01*
X177280000Y-75692424D02*
X177280000Y-76792424D01*
X177280000Y-77192424D02*
X177280000Y-78292424D01*
X177280000Y-78692424D02*
X177280000Y-79792424D01*
X177280000Y-80192424D02*
X177280000Y-81292424D01*
X177280000Y-81692424D02*
X177280000Y-82792424D01*
X177280000Y-83192424D02*
X177280000Y-83392424D01*
X177280000Y-83392424D02*
X176180000Y-83392424D01*
X175780000Y-83392424D02*
X174680000Y-83392424D01*
X174280000Y-83392424D02*
X173180000Y-83392424D01*
X172780000Y-83392424D02*
X171680000Y-83392424D01*
X171280000Y-83392424D02*
X170180000Y-83392424D01*
X169780000Y-83392424D02*
X168680000Y-83392424D01*
X168280000Y-83392424D02*
X167180000Y-83392424D01*
X166780000Y-83392424D02*
X165680000Y-83392424D01*
X165280000Y-83392424D02*
X164180000Y-83392424D01*
X163780000Y-83392424D02*
X162680000Y-83392424D01*
X162280000Y-83392424D02*
X161180000Y-83392424D01*
X160780000Y-83392424D02*
X159680000Y-83392424D01*
X159280000Y-83392424D02*
X158180000Y-83392424D01*
X157780000Y-83392424D02*
X156680000Y-83392424D01*
X156280000Y-83392424D02*
X155180000Y-83392424D01*
X154780000Y-83392424D02*
X153680000Y-83392424D01*
X153280000Y-83392424D02*
X152180000Y-83392424D01*
X151780000Y-83392424D02*
X150680000Y-83392424D01*
X150280000Y-83392424D02*
X149180000Y-83392424D01*
X148780000Y-83392424D02*
X147680000Y-83392424D01*
X147280000Y-83392424D02*
X146180000Y-83392424D01*
X145780000Y-83392424D02*
X144680000Y-83392424D01*
X144280000Y-83392424D02*
X143180000Y-83392424D01*
X142780000Y-83392424D02*
X141680000Y-83392424D01*
X141280000Y-83392424D02*
X140180000Y-83392424D01*
X139780000Y-83392424D02*
X138680000Y-83392424D01*
X138280000Y-83392424D02*
X137180000Y-83392424D01*
X136780000Y-83392424D02*
X135680000Y-83392424D01*
X135280000Y-83392424D02*
X134180000Y-83392424D01*
X133780000Y-83392424D02*
X132680000Y-83392424D01*
X132280000Y-83392424D02*
X131180000Y-83392424D01*
X130780000Y-83392424D02*
X129680000Y-83392424D01*
X129280000Y-83392424D02*
X128180000Y-83392424D01*
X127780000Y-83392424D02*
X126680000Y-83392424D01*
X126280000Y-83392424D02*
X125180000Y-83392424D01*
X124780000Y-83392424D02*
X123680000Y-83392424D01*
X123280000Y-83392424D02*
X122180000Y-83392424D01*
X121780000Y-83392424D02*
X120680000Y-83392424D01*
X120280000Y-83392424D02*
X119180000Y-83392424D01*
X118780000Y-83392424D02*
X117680000Y-83392424D01*
X117280000Y-83392424D02*
X116180000Y-83392424D01*
X115780000Y-83392424D02*
X114680000Y-83392424D01*
X114280000Y-83392424D02*
X113180000Y-83392424D01*
X112780000Y-83392424D02*
X112280000Y-83392424D01*
X112280000Y-83392424D02*
X112280000Y-82292424D01*
X112280000Y-81892424D02*
X112280000Y-80792424D01*
X112280000Y-80392424D02*
X112280000Y-79292424D01*
X112280000Y-78892424D02*
X112280000Y-77792424D01*
X112280000Y-77392424D02*
X112280000Y-76292424D01*
X112280000Y-75892424D02*
X112280000Y-74792424D01*
X112280000Y-74392424D02*
X112280000Y-73292424D01*
X112280000Y-72892424D02*
X112280000Y-71792424D01*
X112280000Y-71392424D02*
X112280000Y-70292424D01*
X112280000Y-69892424D02*
X112280000Y-68792424D01*
X112280000Y-68392424D02*
X112280000Y-67292424D01*
X112280000Y-66892424D02*
X112280000Y-65792424D01*
X112280000Y-65392424D02*
X112280000Y-65192424D01*
D13*
X130017600Y-115608980D02*
X130017600Y-115327820D01*
X131037600Y-115608980D02*
X131037600Y-115327820D01*
X129167820Y-122807000D02*
X129448980Y-122807000D01*
X129167820Y-123827000D02*
X129448980Y-123827000D01*
X163729800Y-111048800D02*
G75*
G02*
X160729800Y-111048800I-1500000J0D01*
G01*
X160729800Y-111048800D02*
G75*
G02*
X163729800Y-111048800I1500000J0D01*
G01*
D14*
X107511357Y-88900000D02*
X107511357Y-91375000D01*
X107511357Y-88900000D02*
X110981357Y-88900000D01*
X107511357Y-97790000D02*
X107511357Y-95315000D01*
X110981357Y-85040000D02*
X120511357Y-85040000D01*
X110981357Y-88900000D02*
X110981357Y-85040000D01*
X110981357Y-97790000D02*
X107511357Y-97790000D01*
X110981357Y-101650000D02*
X110981357Y-97790000D01*
X120511357Y-85040000D02*
X120511357Y-90425000D01*
X120511357Y-96265000D02*
X120511357Y-101650000D01*
X120511357Y-101650000D02*
X110981357Y-101650000D01*
D10*
X125780000Y-93345000D02*
X127780000Y-93345000D01*
X126780000Y-92345000D02*
X126780000Y-94345000D01*
X161780000Y-93345000D02*
X163780000Y-93345000D01*
D14*
X169073669Y-85042576D02*
X178603669Y-85042576D01*
X169073669Y-90427576D02*
X169073669Y-85042576D01*
X169073669Y-101652576D02*
X169073669Y-96267576D01*
X178603669Y-85042576D02*
X178603669Y-88902576D01*
X178603669Y-88902576D02*
X182073669Y-88902576D01*
X178603669Y-97792576D02*
X178603669Y-101652576D01*
X178603669Y-101652576D02*
X169073669Y-101652576D01*
X182073669Y-88902576D02*
X182073669Y-91377576D01*
X182073669Y-97792576D02*
X178603669Y-97792576D01*
X182073669Y-97792576D02*
X182073669Y-95317576D01*
D10*
X112280000Y-84245000D02*
X113380000Y-84245000D01*
X113780000Y-84245000D02*
X114880000Y-84245000D01*
X115280000Y-84245000D02*
X116380000Y-84245000D01*
X116780000Y-84245000D02*
X117880000Y-84245000D01*
X118280000Y-84245000D02*
X119380000Y-84245000D01*
X119780000Y-84245000D02*
X120880000Y-84245000D01*
X121280000Y-84245000D02*
X122380000Y-84245000D01*
X122780000Y-84245000D02*
X123880000Y-84245000D01*
X124280000Y-84245000D02*
X125380000Y-84245000D01*
X125780000Y-84245000D02*
X126880000Y-84245000D01*
X127280000Y-84245000D02*
X128380000Y-84245000D01*
X128780000Y-84245000D02*
X129880000Y-84245000D01*
X130280000Y-84245000D02*
X131380000Y-84245000D01*
X131780000Y-84245000D02*
X132880000Y-84245000D01*
X133280000Y-84245000D02*
X134380000Y-84245000D01*
X134780000Y-84245000D02*
X135880000Y-84245000D01*
X136280000Y-84245000D02*
X137380000Y-84245000D01*
X137780000Y-84245000D02*
X138880000Y-84245000D01*
X139280000Y-84245000D02*
X140380000Y-84245000D01*
X140780000Y-84245000D02*
X141880000Y-84245000D01*
X142280000Y-84245000D02*
X143380000Y-84245000D01*
X143780000Y-84245000D02*
X144880000Y-84245000D01*
X145280000Y-84245000D02*
X146380000Y-84245000D01*
X146780000Y-84245000D02*
X147880000Y-84245000D01*
X148280000Y-84245000D02*
X149380000Y-84245000D01*
X149780000Y-84245000D02*
X150880000Y-84245000D01*
X151280000Y-84245000D02*
X152380000Y-84245000D01*
X152780000Y-84245000D02*
X153880000Y-84245000D01*
X154280000Y-84245000D02*
X155380000Y-84245000D01*
X155780000Y-84245000D02*
X156880000Y-84245000D01*
X157280000Y-84245000D02*
X158380000Y-84245000D01*
X158780000Y-84245000D02*
X159880000Y-84245000D01*
X160280000Y-84245000D02*
X161380000Y-84245000D01*
X161780000Y-84245000D02*
X162880000Y-84245000D01*
X163280000Y-84245000D02*
X164380000Y-84245000D01*
X164780000Y-84245000D02*
X165880000Y-84245000D01*
X166280000Y-84245000D02*
X167380000Y-84245000D01*
X167780000Y-84245000D02*
X168880000Y-84245000D01*
X169280000Y-84245000D02*
X170380000Y-84245000D01*
X170780000Y-84245000D02*
X171880000Y-84245000D01*
X172280000Y-84245000D02*
X173380000Y-84245000D01*
X173780000Y-84245000D02*
X174880000Y-84245000D01*
X175280000Y-84245000D02*
X176380000Y-84245000D01*
X176780000Y-84245000D02*
X177280000Y-84245000D01*
X177280000Y-84245000D02*
X177280000Y-85345000D01*
X177280000Y-85745000D02*
X177280000Y-86845000D01*
X177280000Y-87245000D02*
X177280000Y-88345000D01*
X177280000Y-88745000D02*
X177280000Y-89845000D01*
X177280000Y-90245000D02*
X177280000Y-91345000D01*
X177280000Y-91745000D02*
X177280000Y-92845000D01*
X177280000Y-93245000D02*
X177280000Y-94345000D01*
X177280000Y-94745000D02*
X177280000Y-95845000D01*
X177280000Y-96245000D02*
X177280000Y-97345000D01*
X177280000Y-97745000D02*
X177280000Y-98845000D01*
X177280000Y-99245000D02*
X177280000Y-100345000D01*
X177280000Y-100745000D02*
X177280000Y-101845000D01*
X177280000Y-102245000D02*
X177280000Y-102445000D01*
X177280000Y-102445000D02*
X176180000Y-102445000D01*
X175780000Y-102445000D02*
X174680000Y-102445000D01*
X174280000Y-102445000D02*
X173180000Y-102445000D01*
X172780000Y-102445000D02*
X171680000Y-102445000D01*
X171280000Y-102445000D02*
X170180000Y-102445000D01*
X169780000Y-102445000D02*
X168680000Y-102445000D01*
X168280000Y-102445000D02*
X167180000Y-102445000D01*
X166780000Y-102445000D02*
X165680000Y-102445000D01*
X165280000Y-102445000D02*
X164180000Y-102445000D01*
X163780000Y-102445000D02*
X162680000Y-102445000D01*
X162280000Y-102445000D02*
X161180000Y-102445000D01*
X160780000Y-102445000D02*
X159680000Y-102445000D01*
X159280000Y-102445000D02*
X158180000Y-102445000D01*
X157780000Y-102445000D02*
X156680000Y-102445000D01*
X156280000Y-102445000D02*
X155180000Y-102445000D01*
X154780000Y-102445000D02*
X153680000Y-102445000D01*
X153280000Y-102445000D02*
X152180000Y-102445000D01*
X151780000Y-102445000D02*
X150680000Y-102445000D01*
X150280000Y-102445000D02*
X149180000Y-102445000D01*
X148780000Y-102445000D02*
X147680000Y-102445000D01*
X147280000Y-102445000D02*
X146180000Y-102445000D01*
X145780000Y-102445000D02*
X144680000Y-102445000D01*
X144280000Y-102445000D02*
X143180000Y-102445000D01*
X142780000Y-102445000D02*
X141680000Y-102445000D01*
X141280000Y-102445000D02*
X140180000Y-102445000D01*
X139780000Y-102445000D02*
X138680000Y-102445000D01*
X138280000Y-102445000D02*
X137180000Y-102445000D01*
X136780000Y-102445000D02*
X135680000Y-102445000D01*
X135280000Y-102445000D02*
X134180000Y-102445000D01*
X133780000Y-102445000D02*
X132680000Y-102445000D01*
X132280000Y-102445000D02*
X131180000Y-102445000D01*
X130780000Y-102445000D02*
X129680000Y-102445000D01*
X129280000Y-102445000D02*
X128180000Y-102445000D01*
X127780000Y-102445000D02*
X126680000Y-102445000D01*
X126280000Y-102445000D02*
X125180000Y-102445000D01*
X124780000Y-102445000D02*
X123680000Y-102445000D01*
X123280000Y-102445000D02*
X122180000Y-102445000D01*
X121780000Y-102445000D02*
X120680000Y-102445000D01*
X120280000Y-102445000D02*
X119180000Y-102445000D01*
X118780000Y-102445000D02*
X117680000Y-102445000D01*
X117280000Y-102445000D02*
X116180000Y-102445000D01*
X115780000Y-102445000D02*
X114680000Y-102445000D01*
X114280000Y-102445000D02*
X113180000Y-102445000D01*
X112780000Y-102445000D02*
X112280000Y-102445000D01*
X112280000Y-102445000D02*
X112280000Y-101345000D01*
X112280000Y-100945000D02*
X112280000Y-99845000D01*
X112280000Y-99445000D02*
X112280000Y-98345000D01*
X112280000Y-97945000D02*
X112280000Y-96845000D01*
X112280000Y-96445000D02*
X112280000Y-95345000D01*
X112280000Y-94945000D02*
X112280000Y-93845000D01*
X112280000Y-93445000D02*
X112280000Y-92345000D01*
X112280000Y-91945000D02*
X112280000Y-90845000D01*
X112280000Y-90445000D02*
X112280000Y-89345000D01*
X112280000Y-88945000D02*
X112280000Y-87845000D01*
X112280000Y-87445000D02*
X112280000Y-86345000D01*
X112280000Y-85945000D02*
X112280000Y-84845000D01*
X112280000Y-84445000D02*
X112280000Y-84245000D01*
D13*
X112277800Y-58476000D02*
X178437800Y-58476000D01*
X112277800Y-61076000D02*
X112277800Y-58476000D01*
X112277800Y-63676000D02*
X112277800Y-62346000D01*
X113607800Y-63676000D02*
X112277800Y-63676000D01*
X114877800Y-61076000D02*
X112277800Y-61076000D01*
X114877800Y-63676000D02*
X114877800Y-61076000D01*
X114877800Y-63676000D02*
X178437800Y-63676000D01*
X178437800Y-63676000D02*
X178437800Y-58476000D01*
X125636300Y-116526542D02*
X125636300Y-117001058D01*
X126681300Y-116526542D02*
X126681300Y-117001058D01*
D15*
G36*
X171795579Y-138438626D02*
G01*
X171796415Y-138456868D01*
X171791140Y-138474838D01*
X171776739Y-138496392D01*
X171750194Y-138525385D01*
X171708491Y-138565671D01*
X171663558Y-138607359D01*
X171605228Y-138660464D01*
X171531718Y-138726467D01*
X171448634Y-138800410D01*
X171361580Y-138877337D01*
X171276162Y-138952290D01*
X171197983Y-139020314D01*
X171146591Y-139064556D01*
X171132226Y-139072980D01*
X171117517Y-139068530D01*
X171096994Y-139047718D01*
X171073467Y-139017929D01*
X171011845Y-138923360D01*
X170958270Y-138814142D01*
X170915644Y-138698334D01*
X170886874Y-138583998D01*
X170874863Y-138479193D01*
X170874684Y-138466300D01*
X170874684Y-138397079D01*
X171332083Y-138397079D01*
X171789481Y-138397079D01*
X171795579Y-138438626D01*
G37*
G36*
X173435160Y-137943187D02*
G01*
X173477231Y-138018951D01*
X173507549Y-138098295D01*
X173527771Y-138187695D01*
X173539554Y-138293627D01*
X173543182Y-138365413D01*
X173543799Y-138489181D01*
X173535376Y-138594526D01*
X173516351Y-138689385D01*
X173485158Y-138781698D01*
X173442958Y-138874011D01*
X173355718Y-139017695D01*
X173247856Y-139143933D01*
X173120360Y-139252120D01*
X172974221Y-139341651D01*
X172810427Y-139411924D01*
X172629970Y-139462333D01*
X172433838Y-139492275D01*
X172429646Y-139492671D01*
X172356163Y-139499201D01*
X172298526Y-139503003D01*
X172247724Y-139504079D01*
X172194745Y-139502429D01*
X172130577Y-139498056D01*
X172066594Y-139492723D01*
X171992711Y-139485208D01*
X171922021Y-139475963D01*
X171859368Y-139465856D01*
X171809595Y-139455756D01*
X171777546Y-139446530D01*
X171767980Y-139439219D01*
X171779315Y-139426877D01*
X171807166Y-139400483D01*
X171847337Y-139363921D01*
X171895342Y-139321330D01*
X172032462Y-139200123D01*
X172162292Y-139083269D01*
X172288813Y-138967014D01*
X172416001Y-138847601D01*
X172547836Y-138721276D01*
X172688296Y-138584282D01*
X172841360Y-138432864D01*
X172925897Y-138348538D01*
X173394748Y-137879748D01*
X173435160Y-137943187D01*
G37*
G36*
X172306656Y-135868101D02*
G01*
X172509210Y-135889172D01*
X172695669Y-135929626D01*
X172865200Y-135989015D01*
X173016967Y-136066893D01*
X173150137Y-136162814D01*
X173263874Y-136276329D01*
X173357346Y-136406994D01*
X173429716Y-136554360D01*
X173443923Y-136592365D01*
X173462133Y-136646196D01*
X173471144Y-136680887D01*
X173471824Y-136702783D01*
X173465039Y-136718230D01*
X173461710Y-136722516D01*
X173443705Y-136743957D01*
X173413770Y-136779433D01*
X173377697Y-136822081D01*
X173369430Y-136831842D01*
X173296892Y-136917468D01*
X172934765Y-136917468D01*
X172819650Y-136917165D01*
X172729498Y-136916182D01*
X172661877Y-136914404D01*
X172614357Y-136911719D01*
X172584507Y-136908013D01*
X172569894Y-136903173D01*
X172567556Y-136900342D01*
X172561360Y-136877831D01*
X172551197Y-136839429D01*
X172544769Y-136814717D01*
X172514134Y-136744808D01*
X172462739Y-136679218D01*
X172397142Y-136624410D01*
X172323900Y-136586846D01*
X172308543Y-136581864D01*
X172235670Y-136567127D01*
X172154297Y-136560784D01*
X172075920Y-136563134D01*
X172012986Y-136574191D01*
X171934740Y-136610749D01*
X171871402Y-136667028D01*
X171825545Y-136738283D01*
X171799740Y-136819769D01*
X171796560Y-136906740D01*
X171805742Y-136956526D01*
X171827849Y-137011619D01*
X171864603Y-137062853D01*
X171918087Y-137111609D01*
X171990384Y-137159271D01*
X172083578Y-137207221D01*
X172199752Y-137256843D01*
X172333746Y-137306950D01*
X172456261Y-137350570D01*
X172555314Y-137386025D01*
X172633296Y-137414223D01*
X172692599Y-137436072D01*
X172735614Y-137452482D01*
X172764733Y-137464362D01*
X172782348Y-137472619D01*
X172790850Y-137478164D01*
X172792699Y-137481348D01*
X172783533Y-137494605D01*
X172757971Y-137524182D01*
X172718922Y-137567075D01*
X172669293Y-137620278D01*
X172611993Y-137680785D01*
X172549928Y-137745590D01*
X172486007Y-137811688D01*
X172423138Y-137876074D01*
X172364227Y-137935741D01*
X172312183Y-137987685D01*
X172269913Y-138028900D01*
X172240325Y-138056379D01*
X172226327Y-138067118D01*
X172225959Y-138067163D01*
X172207691Y-138062762D01*
X172168772Y-138051519D01*
X172114613Y-138035050D01*
X172050626Y-138014973D01*
X172039193Y-138011329D01*
X171858279Y-137951818D01*
X171701703Y-137896351D01*
X171566930Y-137843624D01*
X171451425Y-137792332D01*
X171352654Y-137741170D01*
X171268082Y-137688835D01*
X171195173Y-137634021D01*
X171131393Y-137575425D01*
X171078527Y-137516968D01*
X171005282Y-137417911D01*
X170951046Y-137317343D01*
X170913973Y-137209641D01*
X170892214Y-137089185D01*
X170883921Y-136950352D01*
X170883717Y-136924318D01*
X170893270Y-136752431D01*
X170923120Y-136598168D01*
X170974305Y-136459663D01*
X171047861Y-136335051D01*
X171144825Y-136222464D01*
X171266236Y-136120038D01*
X171368730Y-136051924D01*
X171508983Y-135980560D01*
X171666383Y-135926601D01*
X171842476Y-135889648D01*
X172038811Y-135869303D01*
X172088842Y-135866859D01*
X172306656Y-135868101D01*
G37*
G36*
X175368320Y-135921483D02*
G01*
X175510204Y-135923625D01*
X175628567Y-135926588D01*
X175727288Y-135931028D01*
X175810245Y-135937602D01*
X175881317Y-135946966D01*
X175944382Y-135959776D01*
X176003319Y-135976689D01*
X176062007Y-135998362D01*
X176124325Y-136025450D01*
X176194150Y-136058610D01*
X176202431Y-136062645D01*
X176274370Y-136098986D01*
X176329683Y-136130954D01*
X176377049Y-136164680D01*
X176425147Y-136206299D01*
X176478210Y-136257531D01*
X176533549Y-136313975D01*
X176574440Y-136360904D01*
X176607037Y-136406869D01*
X176637492Y-136460419D01*
X176667192Y-136520164D01*
X176718477Y-136638530D01*
X176753597Y-136750100D01*
X176774698Y-136864502D01*
X176783925Y-136991360D01*
X176784772Y-137047619D01*
X176780135Y-137181652D01*
X176764186Y-137299605D01*
X176734752Y-137411232D01*
X176689658Y-137526283D01*
X176667431Y-137574036D01*
X176631867Y-137644426D01*
X176599384Y-137698794D01*
X176563182Y-137746675D01*
X176516464Y-137797606D01*
X176486740Y-137827488D01*
X176352515Y-137942943D01*
X176206587Y-138034345D01*
X176045672Y-138103713D01*
X176028326Y-138109617D01*
X175945067Y-138134463D01*
X175858314Y-138154163D01*
X175763910Y-138169166D01*
X175657696Y-138179925D01*
X175535515Y-138186891D01*
X175393208Y-138190516D01*
X175275844Y-138191310D01*
X174943616Y-138191578D01*
X174943616Y-138828633D01*
X174943616Y-139465688D01*
X174512063Y-139465688D01*
X174080509Y-139465688D01*
X174080509Y-138273628D01*
X174080509Y-137081569D01*
X174103914Y-137052185D01*
X174208727Y-136920597D01*
X174388982Y-136687039D01*
X174440710Y-136616065D01*
X174943616Y-136616065D01*
X174943616Y-137052185D01*
X174943928Y-137158965D01*
X174944811Y-137256934D01*
X174946189Y-137342735D01*
X174947985Y-137413013D01*
X174950121Y-137464410D01*
X174952519Y-137493569D01*
X174953891Y-137498882D01*
X174970054Y-137501703D01*
X175009464Y-137503631D01*
X175067985Y-137504611D01*
X175141476Y-137504589D01*
X175225799Y-137503512D01*
X175258719Y-137502839D01*
X175370210Y-137499741D01*
X175457929Y-137495851D01*
X175525500Y-137490882D01*
X175576546Y-137484543D01*
X175614692Y-137476547D01*
X175624592Y-137473645D01*
X175718988Y-137430456D01*
X175795608Y-137366558D01*
X175853640Y-137282634D01*
X175854531Y-137280901D01*
X175873274Y-137242127D01*
X175885293Y-137208796D01*
X175892064Y-137172834D01*
X175895065Y-137126170D01*
X175895772Y-137060731D01*
X175895774Y-137055437D01*
X175895095Y-136987741D01*
X175892112Y-136939283D01*
X175885406Y-136901917D01*
X175873555Y-136867496D01*
X175856637Y-136830914D01*
X175810142Y-136757453D01*
X175753886Y-136705039D01*
X175713455Y-136678091D01*
X175672525Y-136657075D01*
X175627043Y-136641286D01*
X175572953Y-136630021D01*
X175506201Y-136622578D01*
X175422731Y-136618253D01*
X175318488Y-136616344D01*
X175240695Y-136616065D01*
X174943616Y-136616065D01*
X174440710Y-136616065D01*
X174569956Y-136438731D01*
X174743532Y-136186862D01*
X174770660Y-136146095D01*
X174923066Y-135915877D01*
X175368320Y-135921483D01*
G37*
G36*
X164394771Y-137030493D02*
G01*
X164394840Y-137240614D01*
X164395021Y-137425235D01*
X164395417Y-137586255D01*
X164396131Y-137725576D01*
X164397265Y-137845096D01*
X164398922Y-137946717D01*
X164401206Y-138032338D01*
X164404220Y-138103859D01*
X164408065Y-138163181D01*
X164412847Y-138212203D01*
X164418666Y-138252826D01*
X164425627Y-138286949D01*
X164433831Y-138316473D01*
X164443383Y-138343298D01*
X164454385Y-138369323D01*
X164466941Y-138396449D01*
X164469018Y-138400845D01*
X164508360Y-138464706D01*
X164563647Y-138529568D01*
X164627015Y-138587648D01*
X164690597Y-138631164D01*
X164712900Y-138642144D01*
X164826172Y-138678180D01*
X164949934Y-138695882D01*
X165077023Y-138695495D01*
X165200279Y-138677261D01*
X165312539Y-138641423D01*
X165356305Y-138620304D01*
X165437067Y-138562942D01*
X165508609Y-138486568D01*
X165563263Y-138399526D01*
X165567592Y-138390365D01*
X165580288Y-138362199D01*
X165591423Y-138335444D01*
X165601101Y-138308190D01*
X165609424Y-138278523D01*
X165616494Y-138244531D01*
X165622415Y-138204301D01*
X165627290Y-138155921D01*
X165631220Y-138097479D01*
X165634308Y-138027062D01*
X165636659Y-137942757D01*
X165638373Y-137842652D01*
X165639554Y-137724835D01*
X165640305Y-137587393D01*
X165640728Y-137428413D01*
X165640926Y-137245984D01*
X165641002Y-137038192D01*
X165641005Y-137023643D01*
X165641243Y-135917360D01*
X166072796Y-135917360D01*
X166504350Y-135917360D01*
X166504078Y-137057894D01*
X166503863Y-137260234D01*
X166503327Y-137449472D01*
X166502490Y-137623985D01*
X166501369Y-137782153D01*
X166499983Y-137922353D01*
X166498350Y-138042964D01*
X166496488Y-138142364D01*
X166494416Y-138218932D01*
X166492151Y-138271045D01*
X166490172Y-138294328D01*
X166451949Y-138486260D01*
X166393778Y-138660672D01*
X166314455Y-138820029D01*
X166212776Y-138966796D01*
X166101945Y-139089379D01*
X165959572Y-139211897D01*
X165802331Y-139312451D01*
X165629462Y-139391372D01*
X165440202Y-139448989D01*
X165233791Y-139485634D01*
X165174128Y-139492059D01*
X165096776Y-139498955D01*
X165036434Y-139502972D01*
X164983987Y-139504088D01*
X164930321Y-139502281D01*
X164866320Y-139497528D01*
X164796582Y-139491115D01*
X164606845Y-139461488D01*
X164425686Y-139410386D01*
X164256006Y-139339293D01*
X164100709Y-139249693D01*
X163962697Y-139143070D01*
X163844872Y-139020909D01*
X163822667Y-138993034D01*
X163764568Y-138908272D01*
X163707200Y-138808257D01*
X163655109Y-138702160D01*
X163612843Y-138599155D01*
X163587398Y-138518400D01*
X163577744Y-138479431D01*
X163569265Y-138441716D01*
X163561886Y-138403277D01*
X163555530Y-138362133D01*
X163550122Y-138316304D01*
X163545586Y-138263810D01*
X163541845Y-138202672D01*
X163538823Y-138130910D01*
X163536445Y-138046543D01*
X163534635Y-137947592D01*
X163533316Y-137832078D01*
X163532413Y-137698019D01*
X163531849Y-137543436D01*
X163531549Y-137366350D01*
X163531436Y-137164779D01*
X163531426Y-137060327D01*
X163531426Y-135917360D01*
X163962980Y-135917360D01*
X164394533Y-135917360D01*
X164394771Y-137030493D01*
G37*
G36*
X168840321Y-135882253D02*
G01*
X168950771Y-135886124D01*
X169049730Y-135893000D01*
X169130786Y-135902878D01*
X169160027Y-135908370D01*
X169365114Y-135963996D01*
X169551559Y-136037707D01*
X169722725Y-136131261D01*
X169881972Y-136246416D01*
X169989136Y-136341759D01*
X170089915Y-136450293D01*
X170184792Y-136574570D01*
X170269698Y-136707952D01*
X170340567Y-136843802D01*
X170393332Y-136975481D01*
X170408733Y-137026521D01*
X170420077Y-137066776D01*
X170429630Y-137097587D01*
X170431655Y-137103276D01*
X170430555Y-137108579D01*
X170421107Y-137112860D01*
X170400826Y-137116223D01*
X170367226Y-137118771D01*
X170317821Y-137120609D01*
X170250125Y-137121841D01*
X170161652Y-137122571D01*
X170049916Y-137122903D01*
X169961668Y-137122955D01*
X169484123Y-137122941D01*
X169446562Y-137056063D01*
X169368400Y-136944183D01*
X169269217Y-136846984D01*
X169152792Y-136767497D01*
X169022904Y-136708755D01*
X169006776Y-136703304D01*
X168946698Y-136685468D01*
X168892416Y-136674325D01*
X168833493Y-136668397D01*
X168759493Y-136666202D01*
X168744317Y-136666092D01*
X168597639Y-136673377D01*
X168468769Y-136698073D01*
X168352938Y-136742065D01*
X168245377Y-136807237D01*
X168141318Y-136895475D01*
X168126064Y-136910469D01*
X168067416Y-136971915D01*
X168023816Y-137025566D01*
X167988657Y-137080410D01*
X167959140Y-137137439D01*
X167924586Y-137212192D01*
X167898439Y-137277515D01*
X167879571Y-137339378D01*
X167866850Y-137403750D01*
X167859148Y-137476601D01*
X167855335Y-137563902D01*
X167854282Y-137671621D01*
X167854294Y-137691524D01*
X167854577Y-137782555D01*
X167855515Y-137851729D01*
X167857741Y-137904589D01*
X167861890Y-137946679D01*
X167868596Y-137983542D01*
X167878493Y-138020721D01*
X167892216Y-138063759D01*
X167899316Y-138085045D01*
X167961083Y-138231602D01*
X168041868Y-138361688D01*
X168139752Y-138473444D01*
X168252818Y-138565013D01*
X168379148Y-138634539D01*
X168512967Y-138679260D01*
X168603865Y-138694170D01*
X168707508Y-138700580D01*
X168813031Y-138698516D01*
X168909570Y-138688006D01*
X168956669Y-138678179D01*
X169053987Y-138645012D01*
X169153339Y-138597469D01*
X169243867Y-138541261D01*
X169296723Y-138499321D01*
X169336179Y-138458372D01*
X169380089Y-138404577D01*
X169419494Y-138348981D01*
X169422473Y-138344330D01*
X169484123Y-138247079D01*
X169960202Y-138246729D01*
X170071327Y-138246765D01*
X170173251Y-138247027D01*
X170262864Y-138247488D01*
X170337053Y-138248123D01*
X170392708Y-138248906D01*
X170426717Y-138249812D01*
X170436281Y-138250658D01*
X170431117Y-138273849D01*
X170417169Y-138316178D01*
X170396753Y-138371732D01*
X170372183Y-138434596D01*
X170345776Y-138498859D01*
X170319846Y-138558606D01*
X170296710Y-138607924D01*
X170295234Y-138610875D01*
X170192884Y-138784407D01*
X170069141Y-138942194D01*
X169925977Y-139082803D01*
X169765367Y-139204802D01*
X169589282Y-139306756D01*
X169399695Y-139387233D01*
X169198580Y-139444800D01*
X169127860Y-139458911D01*
X169063469Y-139467748D01*
X168980006Y-139475419D01*
X168885173Y-139481587D01*
X168786671Y-139485913D01*
X168692203Y-139488061D01*
X168609468Y-139487693D01*
X168546170Y-139484471D01*
X168545666Y-139484424D01*
X168330102Y-139450685D01*
X168118813Y-139391338D01*
X167916064Y-139307910D01*
X167726119Y-139201930D01*
X167689618Y-139177874D01*
X167530132Y-139053593D01*
X167388698Y-138910010D01*
X167266031Y-138749039D01*
X167162846Y-138572596D01*
X167079858Y-138382598D01*
X167017782Y-138180958D01*
X166977333Y-137969594D01*
X166959226Y-137750419D01*
X166964176Y-137525351D01*
X166991089Y-137306649D01*
X167024494Y-137151051D01*
X167070592Y-137004769D01*
X167133093Y-136856754D01*
X167161821Y-136797941D01*
X167227562Y-136676308D01*
X167294499Y-136572429D01*
X167369337Y-136477222D01*
X167458785Y-136381600D01*
X167496355Y-136344845D01*
X167655546Y-136209662D01*
X167828283Y-136097193D01*
X168016004Y-136006694D01*
X168220147Y-135937420D01*
X168340164Y-135908051D01*
X168411875Y-135896862D01*
X168504158Y-135888691D01*
X168610602Y-135883533D01*
X168724794Y-135881388D01*
X168840321Y-135882253D01*
G37*
G36*
X174588817Y-132775403D02*
G01*
X174768966Y-132810860D01*
X174930319Y-132865950D01*
X175072767Y-132940644D01*
X175196202Y-133034911D01*
X175300518Y-133148724D01*
X175306627Y-133156788D01*
X175376549Y-133265460D01*
X175428871Y-133382745D01*
X175464495Y-133512178D01*
X175484321Y-133657295D01*
X175489250Y-133821629D01*
X175488162Y-133869194D01*
X175471762Y-134067833D01*
X175435021Y-134274658D01*
X175377522Y-134490905D01*
X175298850Y-134717810D01*
X175198586Y-134956609D01*
X175076316Y-135208539D01*
X174970086Y-135406549D01*
X174772923Y-135741650D01*
X174550895Y-136083876D01*
X174305200Y-136431897D01*
X174037037Y-136784386D01*
X173747605Y-137140017D01*
X173438103Y-137497460D01*
X173109729Y-137855389D01*
X172763682Y-138212476D01*
X172401161Y-138567393D01*
X172023365Y-138918813D01*
X171631492Y-139265407D01*
X171226742Y-139605849D01*
X171045935Y-139752506D01*
X170681042Y-140038820D01*
X170317475Y-140311496D01*
X169956171Y-140570081D01*
X169598066Y-140814124D01*
X169244097Y-141043174D01*
X168895200Y-141256780D01*
X168552312Y-141454489D01*
X168216368Y-141635851D01*
X167888306Y-141800414D01*
X167569061Y-141947726D01*
X167259570Y-142077336D01*
X166960769Y-142188792D01*
X166673595Y-142281644D01*
X166398985Y-142355439D01*
X166137873Y-142409726D01*
X165891197Y-142444054D01*
X165659894Y-142457971D01*
X165448469Y-142451325D01*
X165263263Y-142425028D01*
X165095304Y-142378716D01*
X164945342Y-142313077D01*
X164814123Y-142228799D01*
X164702396Y-142126571D01*
X164610910Y-142007081D01*
X164540413Y-141871016D01*
X164491653Y-141719067D01*
X164465379Y-141551920D01*
X164464953Y-141546765D01*
X164461174Y-141346341D01*
X164481228Y-141134072D01*
X164525170Y-140909746D01*
X164593054Y-140673150D01*
X164684937Y-140424070D01*
X164800872Y-140162295D01*
X164848428Y-140065067D01*
X164929049Y-139904091D01*
X165083997Y-139904091D01*
X165238946Y-139904091D01*
X165136397Y-140106168D01*
X165027568Y-140329877D01*
X164936862Y-140536859D01*
X164863199Y-140729936D01*
X164805503Y-140911929D01*
X164763400Y-141082300D01*
X164745557Y-141189988D01*
X164734890Y-141305162D01*
X164731507Y-141420268D01*
X164735518Y-141527746D01*
X164747032Y-141620041D01*
X164755102Y-141656158D01*
X164802548Y-141785838D01*
X164870474Y-141897530D01*
X164958635Y-141991170D01*
X165066785Y-142066693D01*
X165194678Y-142124036D01*
X165342070Y-142163133D01*
X165508715Y-142183920D01*
X165694367Y-142186333D01*
X165898781Y-142170307D01*
X166121711Y-142135777D01*
X166362913Y-142082679D01*
X166370509Y-142080779D01*
X166659399Y-141999191D01*
X166962964Y-141896016D01*
X167279873Y-141771906D01*
X167608794Y-141627512D01*
X167948394Y-141463484D01*
X168297343Y-141280474D01*
X168654307Y-141079133D01*
X169017955Y-140860113D01*
X169386956Y-140624065D01*
X169490973Y-140555062D01*
X169858321Y-140303055D01*
X170221000Y-140041602D01*
X170578123Y-139771705D01*
X170928802Y-139494366D01*
X171272149Y-139210587D01*
X171607276Y-138921370D01*
X171933295Y-138627717D01*
X172249319Y-138330629D01*
X172554460Y-138031109D01*
X172847830Y-137730159D01*
X173128541Y-137428780D01*
X173395705Y-137127975D01*
X173648435Y-136828744D01*
X173885842Y-136532091D01*
X174107039Y-136239018D01*
X174311139Y-135950525D01*
X174497252Y-135667615D01*
X174664492Y-135391290D01*
X174811970Y-135122552D01*
X174938799Y-134862402D01*
X175044091Y-134611844D01*
X175126958Y-134371877D01*
X175186513Y-134143506D01*
X175190886Y-134122646D01*
X175209566Y-134004677D01*
X175219486Y-133880843D01*
X175220529Y-133759382D01*
X175212576Y-133648528D01*
X175198754Y-133569203D01*
X175155410Y-133440629D01*
X175091448Y-133329661D01*
X175006569Y-133236017D01*
X174900472Y-133159417D01*
X174772858Y-133099580D01*
X174659116Y-133064594D01*
X174572072Y-133048649D01*
X174465098Y-133038249D01*
X174345110Y-133033445D01*
X174219022Y-133034293D01*
X174093750Y-133040843D01*
X173976207Y-133053149D01*
X173936658Y-133059073D01*
X173669206Y-133112578D01*
X173386665Y-133187540D01*
X173090208Y-133283366D01*
X172781007Y-133399461D01*
X172460236Y-133535230D01*
X172129068Y-133690079D01*
X171788675Y-133863412D01*
X171440230Y-134054636D01*
X171084907Y-134263155D01*
X170723878Y-134488375D01*
X170358315Y-134729702D01*
X169989393Y-134986541D01*
X169659244Y-135227640D01*
X169395962Y-135424156D01*
X169174139Y-135424156D01*
X168952316Y-135424156D01*
X169067519Y-135333777D01*
X169438831Y-135049063D01*
X169809154Y-134778102D01*
X170177353Y-134521488D01*
X170542293Y-134279813D01*
X170902841Y-134053672D01*
X171257860Y-133843658D01*
X171606216Y-133650364D01*
X171946776Y-133474384D01*
X172278403Y-133316311D01*
X172599964Y-133176738D01*
X172910324Y-133056260D01*
X173208347Y-132955470D01*
X173492901Y-132874960D01*
X173762849Y-132815325D01*
X173936658Y-132787113D01*
X174172555Y-132763500D01*
X174389977Y-132759606D01*
X174588817Y-132775403D01*
G37*
D13*
X163729800Y-127076200D02*
G75*
G02*
X160729800Y-127076200I-1500000J0D01*
G01*
X160729800Y-127076200D02*
G75*
G02*
X163729800Y-127076200I1500000J0D01*
G01*
X136649000Y-111079600D02*
X134699000Y-111079600D01*
X136649000Y-111079600D02*
X138599000Y-111079600D01*
X136649000Y-116199600D02*
X134699000Y-116199600D01*
X136649000Y-116199600D02*
X138599000Y-116199600D01*
X133949000Y-111174600D02*
X133709000Y-110844600D01*
X134189000Y-110844600D01*
X133949000Y-111174600D01*
G36*
X133949000Y-111174600D02*
G01*
X133709000Y-110844600D01*
X134189000Y-110844600D01*
X133949000Y-111174600D01*
G37*
X128049300Y-115705658D02*
X128049300Y-115231142D01*
X129094300Y-115705658D02*
X129094300Y-115231142D01*
X149795620Y-122248200D02*
X150076780Y-122248200D01*
X149795620Y-123268200D02*
X150076780Y-123268200D01*
X112277800Y-53396000D02*
X178437800Y-53396000D01*
X112277800Y-55996000D02*
X112277800Y-53396000D01*
X112277800Y-58596000D02*
X112277800Y-57266000D01*
X113607800Y-58596000D02*
X112277800Y-58596000D01*
X114877800Y-55996000D02*
X112277800Y-55996000D01*
X114877800Y-58596000D02*
X114877800Y-55996000D01*
X114877800Y-58596000D02*
X178437800Y-58596000D01*
X178437800Y-58596000D02*
X178437800Y-53396000D01*
X163729800Y-116391266D02*
G75*
G02*
X160729800Y-116391266I-1500000J0D01*
G01*
X160729800Y-116391266D02*
G75*
G02*
X163729800Y-116391266I1500000J0D01*
G01*
X123693000Y-120599780D02*
X123693000Y-120318620D01*
X124713000Y-120599780D02*
X124713000Y-120318620D01*
X149936200Y-116616800D02*
X147986200Y-116616800D01*
X149936200Y-116616800D02*
X151886200Y-116616800D01*
X149936200Y-121736800D02*
X147986200Y-121736800D01*
X149936200Y-121736800D02*
X151886200Y-121736800D01*
X147236200Y-116711800D02*
X146996200Y-116381800D01*
X147476200Y-116381800D01*
X147236200Y-116711800D01*
G36*
X147236200Y-116711800D02*
G01*
X146996200Y-116381800D01*
X147476200Y-116381800D01*
X147236200Y-116711800D01*
G37*
%LPC*%
D16*
X130996000Y-121193600D03*
X130996000Y-120243600D03*
X130996000Y-119293600D03*
X128721000Y-119293600D03*
X128721000Y-120243600D03*
X128721000Y-121193600D03*
D17*
X108527800Y-54731000D03*
D18*
X108527800Y-54731000D03*
D19*
X124177600Y-115951200D03*
X124177600Y-117601200D03*
D20*
X128682700Y-126517400D03*
X134607700Y-126517400D03*
D21*
X134174000Y-117297200D03*
X134174000Y-118567200D03*
X134174000Y-119837200D03*
X134174000Y-121107200D03*
X139124000Y-121107200D03*
X139124000Y-119837200D03*
X139124000Y-118567200D03*
X139124000Y-117297200D03*
D17*
X184727800Y-140461000D03*
D18*
X184727800Y-140461000D03*
D22*
X162229800Y-121733732D03*
D23*
X126133400Y-121208800D03*
X126133400Y-119658800D03*
D24*
X106566357Y-74292424D03*
D25*
X122576357Y-74292424D03*
D26*
X167008669Y-74295000D03*
D27*
X183018669Y-74295000D03*
D23*
X130527600Y-116243400D03*
X130527600Y-114693400D03*
D28*
X128533400Y-123317000D03*
X130083400Y-123317000D03*
D17*
X104717800Y-140461000D03*
D18*
X104717800Y-140461000D03*
D22*
X162229800Y-111048800D03*
D24*
X106566357Y-93345000D03*
D25*
X122576357Y-93345000D03*
D26*
X167008669Y-93347576D03*
D27*
X183018669Y-93347576D03*
D29*
X113607800Y-62346000D03*
D30*
X113607800Y-59806000D03*
X116147800Y-62346000D03*
X116147800Y-59806000D03*
X118687800Y-62346000D03*
X118687800Y-59806000D03*
X121227800Y-62346000D03*
X121227800Y-59806000D03*
X123767800Y-62346000D03*
X123767800Y-59806000D03*
X126307800Y-62346000D03*
X126307800Y-59806000D03*
X128847800Y-62346000D03*
X128847800Y-59806000D03*
X131387800Y-62346000D03*
X131387800Y-59806000D03*
X133927800Y-62346000D03*
X133927800Y-59806000D03*
X136467800Y-62346000D03*
X136467800Y-59806000D03*
X139007800Y-62346000D03*
X139007800Y-59806000D03*
X141547800Y-62346000D03*
X141547800Y-59806000D03*
X144087800Y-62346000D03*
X144087800Y-59806000D03*
X146627800Y-62346000D03*
X146627800Y-59806000D03*
X149167800Y-62346000D03*
X149167800Y-59806000D03*
X151707800Y-62346000D03*
X151707800Y-59806000D03*
X154247800Y-62346000D03*
X154247800Y-59806000D03*
X156787800Y-62346000D03*
X156787800Y-59806000D03*
X159327800Y-62346000D03*
X159327800Y-59806000D03*
X161867800Y-62346000D03*
X161867800Y-59806000D03*
X164407800Y-62346000D03*
X164407800Y-59806000D03*
X166947800Y-62346000D03*
X166947800Y-59806000D03*
X169487800Y-62346000D03*
X169487800Y-59806000D03*
X172027800Y-62346000D03*
X172027800Y-59806000D03*
X174567800Y-62346000D03*
X174567800Y-59806000D03*
X177107800Y-62346000D03*
X177107800Y-59806000D03*
D19*
X126158800Y-115938800D03*
X126158800Y-117588800D03*
D22*
X162229800Y-127076200D03*
D21*
X134174000Y-111734600D03*
X134174000Y-113004600D03*
X134174000Y-114274600D03*
X134174000Y-115544600D03*
X139124000Y-115544600D03*
X139124000Y-114274600D03*
X139124000Y-113004600D03*
X139124000Y-111734600D03*
D31*
X128571800Y-116293400D03*
X128571800Y-114643400D03*
D28*
X149161200Y-122758200D03*
X150711200Y-122758200D03*
D29*
X113607800Y-57266000D03*
D30*
X113607800Y-54726000D03*
X116147800Y-57266000D03*
X116147800Y-54726000D03*
X118687800Y-57266000D03*
X118687800Y-54726000D03*
X121227800Y-57266000D03*
X121227800Y-54726000D03*
X123767800Y-57266000D03*
X123767800Y-54726000D03*
X126307800Y-57266000D03*
X126307800Y-54726000D03*
X128847800Y-57266000D03*
X128847800Y-54726000D03*
X131387800Y-57266000D03*
X131387800Y-54726000D03*
X133927800Y-57266000D03*
X133927800Y-54726000D03*
X136467800Y-57266000D03*
X136467800Y-54726000D03*
X139007800Y-57266000D03*
X139007800Y-54726000D03*
X141547800Y-57266000D03*
X141547800Y-54726000D03*
X144087800Y-57266000D03*
X144087800Y-54726000D03*
X146627800Y-57266000D03*
X146627800Y-54726000D03*
X149167800Y-57266000D03*
X149167800Y-54726000D03*
X151707800Y-57266000D03*
X151707800Y-54726000D03*
X154247800Y-57266000D03*
X154247800Y-54726000D03*
X156787800Y-57266000D03*
X156787800Y-54726000D03*
X159327800Y-57266000D03*
X159327800Y-54726000D03*
X161867800Y-57266000D03*
X161867800Y-54726000D03*
X164407800Y-57266000D03*
X164407800Y-54726000D03*
X166947800Y-57266000D03*
X166947800Y-54726000D03*
X169487800Y-57266000D03*
X169487800Y-54726000D03*
X172027800Y-57266000D03*
X172027800Y-54726000D03*
X174567800Y-57266000D03*
X174567800Y-54726000D03*
X177107800Y-57266000D03*
X177107800Y-54726000D03*
D22*
X162229800Y-116391266D03*
D23*
X124203000Y-121234200D03*
X124203000Y-119684200D03*
D17*
X182187800Y-54731000D03*
D18*
X182187800Y-54731000D03*
D21*
X147461200Y-117271800D03*
X147461200Y-118541800D03*
X147461200Y-119811800D03*
X147461200Y-121081800D03*
X152411200Y-121081800D03*
X152411200Y-119811800D03*
X152411200Y-118541800D03*
X152411200Y-117271800D03*
%LPD*%
M02*
