%TF.GenerationSoftware,KiCad,Pcbnew,8.0.2-1*%
%TF.CreationDate,2024-09-16T16:57:07-05:00*%
%TF.ProjectId,BeagleBonePC104,42656167-6c65-4426-9f6e-655043313034,rev?*%
%TF.SameCoordinates,Original*%
%TF.FileFunction,Profile,NP*%
%FSLAX46Y46*%
G04 Gerber Fmt 4.6, Leading zero omitted, Abs format (unit mm)*
G04 Created by KiCad (PCBNEW 8.0.2-1) date 2024-09-16 16:57:07*
%MOMM*%
%LPD*%
G01*
G04 APERTURE LIST*
%TA.AperFunction,Profile*%
%ADD10C,0.050000*%
%TD*%
%TA.AperFunction,Profile*%
%ADD11C,0.200000*%
%TD*%
%TA.AperFunction,Profile*%
%ADD12C,0.300000*%
%TD*%
G04 APERTURE END LIST*
D10*
X165170000Y-170000000D02*
X135000000Y-170000000D01*
D11*
X149800000Y-121900000D02*
X149900000Y-104100000D01*
D10*
X80000000Y-165000000D02*
X80000000Y-132000000D01*
X85030000Y-74100000D02*
X165000000Y-74000001D01*
X85000000Y-170000000D02*
X115000000Y-170000000D01*
X115000000Y-170000000D02*
G75*
G02*
X117500000Y-167500000I2500000J0D01*
G01*
D12*
X170170000Y-165000000D02*
X170100000Y-138100000D01*
D10*
X82500000Y-114500000D02*
X82500000Y-129500000D01*
X117500000Y-167500000D02*
X132500000Y-167500000D01*
X170198915Y-78995856D02*
X170199791Y-104100000D01*
X132500000Y-167500000D02*
G75*
G02*
X135000000Y-170000000I0J-2500000D01*
G01*
D11*
X170100000Y-138100000D02*
X158100000Y-138100000D01*
X158100000Y-121900000D02*
X149800000Y-121900000D01*
D10*
X82500000Y-129500000D02*
G75*
G02*
X80000000Y-132000000I-2500000J0D01*
G01*
X80000000Y-112000000D02*
G75*
G02*
X82500000Y-114500000I0J-2500000D01*
G01*
X165000000Y-74000002D02*
G75*
G02*
X170199755Y-78995857I96000J-5103998D01*
G01*
D11*
X149900000Y-104100000D02*
X170200000Y-104100000D01*
D10*
X80031539Y-78975969D02*
G75*
G02*
X85030001Y-74099939I4937261J-61231D01*
G01*
X80031539Y-78975969D02*
X80000000Y-112000000D01*
X85000000Y-170000000D02*
G75*
G02*
X80000000Y-165000000I0J5000000D01*
G01*
D11*
X158100000Y-138100000D02*
X158100000Y-121900000D01*
D12*
X170170000Y-165000000D02*
G75*
G02*
X165170000Y-170000000I-5000000J0D01*
G01*
M02*
