G04 #@! TF.GenerationSoftware,KiCad,Pcbnew,8.0.3*
G04 #@! TF.CreationDate,2025-02-01T16:40:27-06:00*
G04 #@! TF.ProjectId,Batt_Boardv1,42617474-5f42-46f6-9172-6476312e6b69,rev?*
G04 #@! TF.SameCoordinates,Original*
G04 #@! TF.FileFunction,Soldermask,Bot*
G04 #@! TF.FilePolarity,Negative*
%FSLAX46Y46*%
G04 Gerber Fmt 4.6, Leading zero omitted, Abs format (unit mm)*
G04 Created by KiCad (PCBNEW 8.0.3) date 2025-02-01 16:40:27*
%MOMM*%
%LPD*%
G01*
G04 APERTURE LIST*
G04 Aperture macros list*
%AMRoundRect*
0 Rectangle with rounded corners*
0 $1 Rounding radius*
0 $2 $3 $4 $5 $6 $7 $8 $9 X,Y pos of 4 corners*
0 Add a 4 corners polygon primitive as box body*
4,1,4,$2,$3,$4,$5,$6,$7,$8,$9,$2,$3,0*
0 Add four circle primitives for the rounded corners*
1,1,$1+$1,$2,$3*
1,1,$1+$1,$4,$5*
1,1,$1+$1,$6,$7*
1,1,$1+$1,$8,$9*
0 Add four rect primitives between the rounded corners*
20,1,$1+$1,$2,$3,$4,$5,0*
20,1,$1+$1,$4,$5,$6,$7,0*
20,1,$1+$1,$6,$7,$8,$9,0*
20,1,$1+$1,$8,$9,$2,$3,0*%
G04 Aperture macros list end*
%ADD10C,3.600000*%
%ADD11C,6.400000*%
%ADD12C,2.000000*%
%ADD13R,1.700000X1.700000*%
%ADD14O,1.700000X1.700000*%
%ADD15RoundRect,0.102000X2.120000X1.650000X-2.120000X1.650000X-2.120000X-1.650000X2.120000X-1.650000X0*%
%ADD16RoundRect,0.102000X2.120000X2.600000X-2.120000X2.600000X-2.120000X-2.600000X2.120000X-2.600000X0*%
%ADD17RoundRect,0.102000X-2.120000X-2.600000X2.120000X-2.600000X2.120000X2.600000X-2.120000X2.600000X0*%
%ADD18RoundRect,0.102000X-2.120000X-1.650000X2.120000X-1.650000X2.120000X1.650000X-2.120000X1.650000X0*%
G04 APERTURE END LIST*
D10*
X108527800Y-54731000D03*
D11*
X108527800Y-54731000D03*
D10*
X184727800Y-140461000D03*
D11*
X184727800Y-140461000D03*
D12*
X162229800Y-121733732D03*
D10*
X104717800Y-140461000D03*
D11*
X104717800Y-140461000D03*
D12*
X162229800Y-111048800D03*
D13*
X113607800Y-62346000D03*
D14*
X113607800Y-59806000D03*
X116147800Y-62346000D03*
X116147800Y-59806000D03*
X118687800Y-62346000D03*
X118687800Y-59806000D03*
X121227800Y-62346000D03*
X121227800Y-59806000D03*
X123767800Y-62346000D03*
X123767800Y-59806000D03*
X126307800Y-62346000D03*
X126307800Y-59806000D03*
X128847800Y-62346000D03*
X128847800Y-59806000D03*
X131387800Y-62346000D03*
X131387800Y-59806000D03*
X133927800Y-62346000D03*
X133927800Y-59806000D03*
X136467800Y-62346000D03*
X136467800Y-59806000D03*
X139007800Y-62346000D03*
X139007800Y-59806000D03*
X141547800Y-62346000D03*
X141547800Y-59806000D03*
X144087800Y-62346000D03*
X144087800Y-59806000D03*
X146627800Y-62346000D03*
X146627800Y-59806000D03*
X149167800Y-62346000D03*
X149167800Y-59806000D03*
X151707800Y-62346000D03*
X151707800Y-59806000D03*
X154247800Y-62346000D03*
X154247800Y-59806000D03*
X156787800Y-62346000D03*
X156787800Y-59806000D03*
X159327800Y-62346000D03*
X159327800Y-59806000D03*
X161867800Y-62346000D03*
X161867800Y-59806000D03*
X164407800Y-62346000D03*
X164407800Y-59806000D03*
X166947800Y-62346000D03*
X166947800Y-59806000D03*
X169487800Y-62346000D03*
X169487800Y-59806000D03*
X172027800Y-62346000D03*
X172027800Y-59806000D03*
X174567800Y-62346000D03*
X174567800Y-59806000D03*
X177107800Y-62346000D03*
X177107800Y-59806000D03*
D12*
X162229800Y-127076200D03*
D13*
X113607800Y-57266000D03*
D14*
X113607800Y-54726000D03*
X116147800Y-57266000D03*
X116147800Y-54726000D03*
X118687800Y-57266000D03*
X118687800Y-54726000D03*
X121227800Y-57266000D03*
X121227800Y-54726000D03*
X123767800Y-57266000D03*
X123767800Y-54726000D03*
X126307800Y-57266000D03*
X126307800Y-54726000D03*
X128847800Y-57266000D03*
X128847800Y-54726000D03*
X131387800Y-57266000D03*
X131387800Y-54726000D03*
X133927800Y-57266000D03*
X133927800Y-54726000D03*
X136467800Y-57266000D03*
X136467800Y-54726000D03*
X139007800Y-57266000D03*
X139007800Y-54726000D03*
X141547800Y-57266000D03*
X141547800Y-54726000D03*
X144087800Y-57266000D03*
X144087800Y-54726000D03*
X146627800Y-57266000D03*
X146627800Y-54726000D03*
X149167800Y-57266000D03*
X149167800Y-54726000D03*
X151707800Y-57266000D03*
X151707800Y-54726000D03*
X154247800Y-57266000D03*
X154247800Y-54726000D03*
X156787800Y-57266000D03*
X156787800Y-54726000D03*
X159327800Y-57266000D03*
X159327800Y-54726000D03*
X161867800Y-57266000D03*
X161867800Y-54726000D03*
X164407800Y-57266000D03*
X164407800Y-54726000D03*
X166947800Y-57266000D03*
X166947800Y-54726000D03*
X169487800Y-57266000D03*
X169487800Y-54726000D03*
X172027800Y-57266000D03*
X172027800Y-54726000D03*
X174567800Y-57266000D03*
X174567800Y-54726000D03*
X177107800Y-57266000D03*
X177107800Y-54726000D03*
D12*
X162229800Y-116391266D03*
D10*
X182187800Y-54731000D03*
D11*
X182187800Y-54731000D03*
D15*
X106594230Y-74295000D03*
D16*
X122604230Y-74295000D03*
D17*
X167036542Y-74292424D03*
D18*
X183046542Y-74292424D03*
X182993643Y-131445000D03*
D17*
X166983643Y-131445000D03*
D16*
X122551331Y-131447576D03*
D15*
X106541331Y-131447576D03*
D18*
X182995106Y-112392424D03*
D17*
X166985106Y-112392424D03*
D16*
X122552794Y-112395000D03*
D15*
X106542794Y-112395000D03*
D18*
X182980867Y-93342424D03*
D17*
X166970867Y-93342424D03*
D16*
X122538555Y-93345000D03*
D15*
X106528555Y-93345000D03*
M02*
