G04 #@! TF.GenerationSoftware,KiCad,Pcbnew,8.0.3*
G04 #@! TF.CreationDate,2025-02-01T16:40:27-06:00*
G04 #@! TF.ProjectId,Batt_Boardv1,42617474-5f42-46f6-9172-6476312e6b69,rev?*
G04 #@! TF.SameCoordinates,Original*
G04 #@! TF.FileFunction,Soldermask,Top*
G04 #@! TF.FilePolarity,Negative*
%FSLAX46Y46*%
G04 Gerber Fmt 4.6, Leading zero omitted, Abs format (unit mm)*
G04 Created by KiCad (PCBNEW 8.0.3) date 2025-02-01 16:40:27*
%MOMM*%
%LPD*%
G01*
G04 APERTURE LIST*
G04 Aperture macros list*
%AMRoundRect*
0 Rectangle with rounded corners*
0 $1 Rounding radius*
0 $2 $3 $4 $5 $6 $7 $8 $9 X,Y pos of 4 corners*
0 Add a 4 corners polygon primitive as box body*
4,1,4,$2,$3,$4,$5,$6,$7,$8,$9,$2,$3,0*
0 Add four circle primitives for the rounded corners*
1,1,$1+$1,$2,$3*
1,1,$1+$1,$4,$5*
1,1,$1+$1,$6,$7*
1,1,$1+$1,$8,$9*
0 Add four rect primitives between the rounded corners*
20,1,$1+$1,$2,$3,$4,$5,0*
20,1,$1+$1,$4,$5,$6,$7,0*
20,1,$1+$1,$6,$7,$8,$9,0*
20,1,$1+$1,$8,$9,$2,$3,0*%
G04 Aperture macros list end*
%ADD10RoundRect,0.150000X0.512500X0.150000X-0.512500X0.150000X-0.512500X-0.150000X0.512500X-0.150000X0*%
%ADD11C,3.600000*%
%ADD12C,6.400000*%
%ADD13RoundRect,0.200000X-0.275000X0.200000X-0.275000X-0.200000X0.275000X-0.200000X0.275000X0.200000X0*%
%ADD14RoundRect,0.250000X-0.362500X-1.425000X0.362500X-1.425000X0.362500X1.425000X-0.362500X1.425000X0*%
%ADD15RoundRect,0.150000X-0.825000X-0.150000X0.825000X-0.150000X0.825000X0.150000X-0.825000X0.150000X0*%
%ADD16C,2.000000*%
%ADD17RoundRect,0.225000X0.250000X-0.225000X0.250000X0.225000X-0.250000X0.225000X-0.250000X-0.225000X0*%
%ADD18RoundRect,0.102000X2.120000X1.650000X-2.120000X1.650000X-2.120000X-1.650000X2.120000X-1.650000X0*%
%ADD19RoundRect,0.102000X2.120000X2.600000X-2.120000X2.600000X-2.120000X-2.600000X2.120000X-2.600000X0*%
%ADD20RoundRect,0.102000X-2.120000X-2.600000X2.120000X-2.600000X2.120000X2.600000X-2.120000X2.600000X0*%
%ADD21RoundRect,0.102000X-2.120000X-1.650000X2.120000X-1.650000X2.120000X1.650000X-2.120000X1.650000X0*%
%ADD22RoundRect,0.225000X-0.225000X-0.250000X0.225000X-0.250000X0.225000X0.250000X-0.225000X0.250000X0*%
%ADD23R,1.700000X1.700000*%
%ADD24O,1.700000X1.700000*%
%ADD25RoundRect,0.200000X0.275000X-0.200000X0.275000X0.200000X-0.275000X0.200000X-0.275000X-0.200000X0*%
G04 APERTURE END LIST*
D10*
X130996000Y-121193600D03*
X130996000Y-120243600D03*
X130996000Y-119293600D03*
X128721000Y-119293600D03*
X128721000Y-120243600D03*
X128721000Y-121193600D03*
D11*
X108527800Y-54731000D03*
D12*
X108527800Y-54731000D03*
D13*
X124177600Y-115951200D03*
X124177600Y-117601200D03*
D14*
X128682700Y-126517400D03*
X134607700Y-126517400D03*
D15*
X134174000Y-117297200D03*
X134174000Y-118567200D03*
X134174000Y-119837200D03*
X134174000Y-121107200D03*
X139124000Y-121107200D03*
X139124000Y-119837200D03*
X139124000Y-118567200D03*
X139124000Y-117297200D03*
D11*
X184727800Y-140461000D03*
D12*
X184727800Y-140461000D03*
D16*
X162229800Y-121733732D03*
D17*
X126133400Y-121208800D03*
X126133400Y-119658800D03*
D18*
X106566357Y-74292424D03*
D19*
X122576357Y-74292424D03*
D20*
X167008669Y-74295000D03*
D21*
X183018669Y-74295000D03*
D17*
X130527600Y-116243400D03*
X130527600Y-114693400D03*
D22*
X128533400Y-123317000D03*
X130083400Y-123317000D03*
D11*
X104717800Y-140461000D03*
D12*
X104717800Y-140461000D03*
D16*
X162229800Y-111048800D03*
D18*
X106566357Y-93345000D03*
D19*
X122576357Y-93345000D03*
D20*
X167008669Y-93347576D03*
D21*
X183018669Y-93347576D03*
D23*
X113607800Y-62346000D03*
D24*
X113607800Y-59806000D03*
X116147800Y-62346000D03*
X116147800Y-59806000D03*
X118687800Y-62346000D03*
X118687800Y-59806000D03*
X121227800Y-62346000D03*
X121227800Y-59806000D03*
X123767800Y-62346000D03*
X123767800Y-59806000D03*
X126307800Y-62346000D03*
X126307800Y-59806000D03*
X128847800Y-62346000D03*
X128847800Y-59806000D03*
X131387800Y-62346000D03*
X131387800Y-59806000D03*
X133927800Y-62346000D03*
X133927800Y-59806000D03*
X136467800Y-62346000D03*
X136467800Y-59806000D03*
X139007800Y-62346000D03*
X139007800Y-59806000D03*
X141547800Y-62346000D03*
X141547800Y-59806000D03*
X144087800Y-62346000D03*
X144087800Y-59806000D03*
X146627800Y-62346000D03*
X146627800Y-59806000D03*
X149167800Y-62346000D03*
X149167800Y-59806000D03*
X151707800Y-62346000D03*
X151707800Y-59806000D03*
X154247800Y-62346000D03*
X154247800Y-59806000D03*
X156787800Y-62346000D03*
X156787800Y-59806000D03*
X159327800Y-62346000D03*
X159327800Y-59806000D03*
X161867800Y-62346000D03*
X161867800Y-59806000D03*
X164407800Y-62346000D03*
X164407800Y-59806000D03*
X166947800Y-62346000D03*
X166947800Y-59806000D03*
X169487800Y-62346000D03*
X169487800Y-59806000D03*
X172027800Y-62346000D03*
X172027800Y-59806000D03*
X174567800Y-62346000D03*
X174567800Y-59806000D03*
X177107800Y-62346000D03*
X177107800Y-59806000D03*
D13*
X126158800Y-115938800D03*
X126158800Y-117588800D03*
D16*
X162229800Y-127076200D03*
D15*
X134174000Y-111734600D03*
X134174000Y-113004600D03*
X134174000Y-114274600D03*
X134174000Y-115544600D03*
X139124000Y-115544600D03*
X139124000Y-114274600D03*
X139124000Y-113004600D03*
X139124000Y-111734600D03*
D25*
X128571800Y-116293400D03*
X128571800Y-114643400D03*
D22*
X149161200Y-122758200D03*
X150711200Y-122758200D03*
D23*
X113607800Y-57266000D03*
D24*
X113607800Y-54726000D03*
X116147800Y-57266000D03*
X116147800Y-54726000D03*
X118687800Y-57266000D03*
X118687800Y-54726000D03*
X121227800Y-57266000D03*
X121227800Y-54726000D03*
X123767800Y-57266000D03*
X123767800Y-54726000D03*
X126307800Y-57266000D03*
X126307800Y-54726000D03*
X128847800Y-57266000D03*
X128847800Y-54726000D03*
X131387800Y-57266000D03*
X131387800Y-54726000D03*
X133927800Y-57266000D03*
X133927800Y-54726000D03*
X136467800Y-57266000D03*
X136467800Y-54726000D03*
X139007800Y-57266000D03*
X139007800Y-54726000D03*
X141547800Y-57266000D03*
X141547800Y-54726000D03*
X144087800Y-57266000D03*
X144087800Y-54726000D03*
X146627800Y-57266000D03*
X146627800Y-54726000D03*
X149167800Y-57266000D03*
X149167800Y-54726000D03*
X151707800Y-57266000D03*
X151707800Y-54726000D03*
X154247800Y-57266000D03*
X154247800Y-54726000D03*
X156787800Y-57266000D03*
X156787800Y-54726000D03*
X159327800Y-57266000D03*
X159327800Y-54726000D03*
X161867800Y-57266000D03*
X161867800Y-54726000D03*
X164407800Y-57266000D03*
X164407800Y-54726000D03*
X166947800Y-57266000D03*
X166947800Y-54726000D03*
X169487800Y-57266000D03*
X169487800Y-54726000D03*
X172027800Y-57266000D03*
X172027800Y-54726000D03*
X174567800Y-57266000D03*
X174567800Y-54726000D03*
X177107800Y-57266000D03*
X177107800Y-54726000D03*
D16*
X162229800Y-116391266D03*
D17*
X124203000Y-121234200D03*
X124203000Y-119684200D03*
D11*
X182187800Y-54731000D03*
D12*
X182187800Y-54731000D03*
D15*
X147461200Y-117271800D03*
X147461200Y-118541800D03*
X147461200Y-119811800D03*
X147461200Y-121081800D03*
X152411200Y-121081800D03*
X152411200Y-119811800D03*
X152411200Y-118541800D03*
X152411200Y-117271800D03*
M02*
