M48
; DRILL file {KiCad 8.0.3} date 2025-02-01T16:40:47-0600
; FORMAT={-:-/ absolute / metric / decimal}
; #@! TF.CreationDate,2025-02-01T16:40:47-06:00
; #@! TF.GenerationSoftware,Kicad,Pcbnew,8.0.3
; #@! TF.FileFunction,Plated,1,2,PTH
FMAT,2
METRIC
; #@! TA.AperFunction,Plated,PTH,ViaDrill
T1C0.300
; #@! TA.AperFunction,Plated,PTH,ViaDrill
T2C0.500
; #@! TA.AperFunction,Plated,PTH,ComponentDrill
T3C1.000
; #@! TA.AperFunction,Plated,PTH,ComponentDrill
T4C3.200
%
G90
G05
T1
X124.32Y-118.733
X125.882Y-112.878
X127.102Y-118.542
X131.877Y-126.517
X132.334Y-116.307
X132.359Y-119.685
T2
X109.728Y-81.365
X109.728Y-82.973
X109.728Y-84.582
X109.728Y-86.191
X112.109Y-81.365
X112.109Y-82.973
X112.109Y-84.582
X112.109Y-86.191
X114.49Y-81.365
X114.49Y-82.973
X114.49Y-84.582
X114.49Y-86.191
X116.872Y-81.365
X116.872Y-82.973
X116.872Y-84.582
X116.872Y-86.191
X119.253Y-81.365
X119.253Y-82.973
X119.253Y-84.582
X119.253Y-86.191
X171.418Y-73.448
X171.418Y-75.057
X173.799Y-73.448
X173.799Y-75.057
X176.181Y-73.448
X176.181Y-75.057
X178.562Y-73.448
X178.562Y-75.057
T3
X113.608Y-54.726
X113.608Y-57.266
X113.608Y-59.806
X113.608Y-62.346
X116.148Y-54.726
X116.148Y-57.266
X116.148Y-59.806
X116.148Y-62.346
X118.688Y-54.726
X118.688Y-57.266
X118.688Y-59.806
X118.688Y-62.346
X121.228Y-54.726
X121.228Y-57.266
X121.228Y-59.806
X121.228Y-62.346
X123.768Y-54.726
X123.768Y-57.266
X123.768Y-59.806
X123.768Y-62.346
X126.308Y-54.726
X126.308Y-57.266
X126.308Y-59.806
X126.308Y-62.346
X128.848Y-54.726
X128.848Y-57.266
X128.848Y-59.806
X128.848Y-62.346
X131.388Y-54.726
X131.388Y-57.266
X131.388Y-59.806
X131.388Y-62.346
X133.928Y-54.726
X133.928Y-57.266
X133.928Y-59.806
X133.928Y-62.346
X136.468Y-54.726
X136.468Y-57.266
X136.468Y-59.806
X136.468Y-62.346
X139.008Y-54.726
X139.008Y-57.266
X139.008Y-59.806
X139.008Y-62.346
X141.548Y-54.726
X141.548Y-57.266
X141.548Y-59.806
X141.548Y-62.346
X144.088Y-54.726
X144.088Y-57.266
X144.088Y-59.806
X144.088Y-62.346
X146.628Y-54.726
X146.628Y-57.266
X146.628Y-59.806
X146.628Y-62.346
X149.168Y-54.726
X149.168Y-57.266
X149.168Y-59.806
X149.168Y-62.346
X151.708Y-54.726
X151.708Y-57.266
X151.708Y-59.806
X151.708Y-62.346
X154.248Y-54.726
X154.248Y-57.266
X154.248Y-59.806
X154.248Y-62.346
X156.788Y-54.726
X156.788Y-57.266
X156.788Y-59.806
X156.788Y-62.346
X159.328Y-54.726
X159.328Y-57.266
X159.328Y-59.806
X159.328Y-62.346
X161.868Y-54.726
X161.868Y-57.266
X161.868Y-59.806
X161.868Y-62.346
X162.23Y-111.049
X162.23Y-116.391
X162.23Y-121.734
X162.23Y-127.076
X164.408Y-54.726
X164.408Y-57.266
X164.408Y-59.806
X164.408Y-62.346
X166.948Y-54.726
X166.948Y-57.266
X166.948Y-59.806
X166.948Y-62.346
X169.488Y-54.726
X169.488Y-57.266
X169.488Y-59.806
X169.488Y-62.346
X172.028Y-54.726
X172.028Y-57.266
X172.028Y-59.806
X172.028Y-62.346
X174.568Y-54.726
X174.568Y-57.266
X174.568Y-59.806
X174.568Y-62.346
X177.108Y-54.726
X177.108Y-57.266
X177.108Y-59.806
X177.108Y-62.346
T4
X104.718Y-140.461
X108.528Y-54.731
X182.188Y-54.731
X184.728Y-140.461
M30
