G04 #@! TF.GenerationSoftware,KiCad,Pcbnew,8.0.3*
G04 #@! TF.CreationDate,2025-02-01T16:40:27-06:00*
G04 #@! TF.ProjectId,Batt_Boardv1,42617474-5f42-46f6-9172-6476312e6b69,rev?*
G04 #@! TF.SameCoordinates,Original*
G04 #@! TF.FileFunction,Profile,NP*
%FSLAX46Y46*%
G04 Gerber Fmt 4.6, Leading zero omitted, Abs format (unit mm)*
G04 Created by KiCad (PCBNEW 8.0.3) date 2025-02-01 16:40:27*
%MOMM*%
%LPD*%
G01*
G04 APERTURE LIST*
G04 #@! TA.AperFunction,Profile*
%ADD10C,0.050000*%
G04 #@! TD*
G04 #@! TA.AperFunction,Profile*
%ADD11C,0.100000*%
G04 #@! TD*
G04 APERTURE END LIST*
D10*
X188703007Y-113377496D02*
G75*
G02*
X189825317Y-116623835I-3515707J-3032604D01*
G01*
X164070634Y-145553495D02*
G75*
G02*
X160824282Y-144431223I-213934J4637595D01*
G01*
D11*
X189807800Y-54646000D02*
X189818004Y-79229045D01*
X99637800Y-140536000D02*
X99620305Y-115988834D01*
D10*
X129895590Y-144425492D02*
G75*
G02*
X126675846Y-145546178I-3025890J3507892D01*
G01*
X187903756Y-84944188D02*
G75*
G02*
X188704903Y-82444492I4300944J-212D01*
G01*
X160411506Y-50758743D02*
G75*
G02*
X163657843Y-49636474I3032494J-3515557D01*
G01*
X157911821Y-51559906D02*
X131978198Y-51557994D01*
D11*
X104637800Y-145536000D02*
G75*
G02*
X99637800Y-140536000I100J5000100D01*
G01*
D10*
X101543756Y-110242811D02*
G75*
G02*
X100742611Y-112742509I-4300956J211D01*
G01*
D11*
X163657844Y-49636455D02*
X184807800Y-49646000D01*
X126675845Y-145546204D02*
X104637800Y-145536000D01*
D10*
X160411506Y-50758743D02*
G75*
G02*
X157911821Y-51559920I-2500006J3499943D01*
G01*
D11*
X104637800Y-49646000D02*
X126263055Y-49643746D01*
D10*
X101543756Y-110242811D02*
X101541844Y-84309188D01*
X189818004Y-79229045D02*
G75*
G02*
X188697309Y-82448805I-4628304J-193955D01*
G01*
X126263055Y-49643746D02*
G75*
G02*
X129482818Y-50764437I193945J-4628354D01*
G01*
D11*
X184807800Y-145536000D02*
X164070634Y-145553495D01*
D10*
X129891303Y-144433119D02*
G75*
G02*
X132390988Y-143631969I2500197J-3500681D01*
G01*
D11*
X99637800Y-54646000D02*
G75*
G02*
X104637800Y-49646000I5000030J-30D01*
G01*
D10*
X188703007Y-113377496D02*
G75*
G02*
X187901843Y-110877811I3500293J2500096D01*
G01*
X158324611Y-143630044D02*
X132390988Y-143631956D01*
X131978198Y-51557994D02*
G75*
G02*
X129478506Y-50756840I402J4301494D01*
G01*
X100748308Y-81813790D02*
G75*
G02*
X99627576Y-78594044I3507992J3025990D01*
G01*
D11*
X189825295Y-116623834D02*
X189807800Y-140536000D01*
X189807800Y-140536000D02*
G75*
G02*
X184807800Y-145536000I-5000000J0D01*
G01*
D10*
X100740681Y-81809503D02*
G75*
G02*
X101541871Y-84309188I-3500781J-2500297D01*
G01*
X187901844Y-110877811D02*
X187903756Y-84944188D01*
X158324611Y-143630044D02*
G75*
G02*
X160824298Y-144431204I-211J-4300856D01*
G01*
X99620305Y-115988834D02*
G75*
G02*
X100742577Y-112742482I4637595J213934D01*
G01*
D11*
X184807800Y-49646000D02*
G75*
G02*
X189807800Y-54646000I100J-4999900D01*
G01*
X99627596Y-78594045D02*
X99637800Y-54646000D01*
M02*
