%TF.GenerationSoftware,KiCad,Pcbnew,8.0.2-1*%
%TF.CreationDate,2024-08-26T15:57:13-05:00*%
%TF.ProjectId,BeagleBonePC104,42656167-6c65-4426-9f6e-655043313034,rev?*%
%TF.SameCoordinates,Original*%
%TF.FileFunction,Copper,L2,Bot*%
%TF.FilePolarity,Positive*%
%FSLAX46Y46*%
G04 Gerber Fmt 4.6, Leading zero omitted, Abs format (unit mm)*
G04 Created by KiCad (PCBNEW 8.0.2-1) date 2024-08-26 15:57:13*
%MOMM*%
%LPD*%
G01*
G04 APERTURE LIST*
%TA.AperFunction,ComponentPad*%
%ADD10C,1.524000*%
%TD*%
%TA.AperFunction,ComponentPad*%
%ADD11C,1.600000*%
%TD*%
%TA.AperFunction,ComponentPad*%
%ADD12O,1.600000X1.600000*%
%TD*%
%TA.AperFunction,ComponentPad*%
%ADD13C,6.400000*%
%TD*%
%TA.AperFunction,ComponentPad*%
%ADD14R,1.700000X1.700000*%
%TD*%
%TA.AperFunction,ComponentPad*%
%ADD15O,1.700000X1.700000*%
%TD*%
%TA.AperFunction,ViaPad*%
%ADD16C,0.600000*%
%TD*%
%TA.AperFunction,Conductor*%
%ADD17C,0.500000*%
%TD*%
%TA.AperFunction,Conductor*%
%ADD18C,0.300000*%
%TD*%
%TA.AperFunction,Conductor*%
%ADD19C,0.200000*%
%TD*%
G04 APERTURE END LIST*
D10*
%TO.P,U1,1,GND*%
%TO.N,GND*%
X149770000Y-140960000D03*
X149770000Y-92700000D03*
%TO.P,U1,2,GND*%
X149770000Y-143500000D03*
X149770000Y-95240000D03*
%TO.P,U1,3,DC_3.3V*%
%TO.N,unconnected-(U1-DC_3.3V-Pad3)_0*%
X147230000Y-140960000D03*
%TO.N,unconnected-(U1-DC_3.3V-Pad3)*%
X147230000Y-92700000D03*
%TO.P,U1,4,DC_3.3V*%
%TO.N,unconnected-(U1-DC_3.3V-Pad4)_0*%
X147230000Y-143500000D03*
%TO.N,unconnected-(U1-DC_3.3V-Pad4)*%
X147230000Y-95240000D03*
%TO.P,U1,5,VDD_5V*%
%TO.N,/5V*%
X144690000Y-140960000D03*
X144690000Y-92700000D03*
%TO.P,U1,6,VDD_5V*%
X144690000Y-143500000D03*
X144690000Y-95240000D03*
%TO.P,U1,7,SYS_5V*%
%TO.N,unconnected-(U1-SYS_5V-Pad7)*%
X142150000Y-140960000D03*
%TO.N,unconnected-(U1-SYS_5V-Pad7)_0*%
X142150000Y-92700000D03*
%TO.P,U1,8,SYS_5V*%
%TO.N,unconnected-(U1-SYS_5V-Pad8)*%
X142150000Y-143500000D03*
%TO.N,unconnected-(U1-SYS_5V-Pad8)_0*%
X142150000Y-95240000D03*
%TO.P,U1,9,PWR_BUT*%
%TO.N,unconnected-(U1-PWR_BUT-Pad9)*%
X139610000Y-140960000D03*
%TO.N,unconnected-(U1-PWR_BUT-Pad9)_0*%
X139610000Y-92700000D03*
%TO.P,U1,10,SYS_RESETn*%
%TO.N,/SYS_RESETn*%
X139610000Y-143500000D03*
X139610000Y-95240000D03*
%TO.P,U1,11,GPIO1_13*%
%TO.N,/GPIO1_13*%
X137070000Y-140960000D03*
X137070000Y-92700000D03*
%TO.P,U1,12,GPIO1_12*%
%TO.N,/GPIO1_12*%
X137070000Y-143500000D03*
X137070000Y-95240000D03*
%TO.P,U1,13,EHRPWM2B*%
%TO.N,unconnected-(U1-EHRPWM2B-Pad13)*%
X134530000Y-140960000D03*
%TO.N,unconnected-(U1-EHRPWM2B-Pad13)_0*%
X134530000Y-92700000D03*
%TO.P,U1,14,GPIO0_26*%
%TO.N,/GPIO1_26*%
X134530000Y-143500000D03*
X134530000Y-95240000D03*
%TO.P,U1,15,GPIO1_15*%
%TO.N,/GPIO1_15*%
X131990000Y-140960000D03*
X131990000Y-92700000D03*
%TO.P,U1,16,GPIO1_14*%
%TO.N,/GPIO1_14*%
X131990000Y-143500000D03*
X131990000Y-95240000D03*
%TO.P,U1,17,GPIO0_27*%
%TO.N,/GPIO1_27*%
X129450000Y-140960000D03*
X129450000Y-92700000D03*
%TO.P,U1,18,GPIO2_1*%
%TO.N,/GPIO2_1*%
X129450000Y-143500000D03*
X129450000Y-95240000D03*
%TO.P,U1,19,EHRPWM2A*%
%TO.N,unconnected-(U1-EHRPWM2A-Pad19)*%
X126910000Y-140960000D03*
%TO.N,unconnected-(U1-EHRPWM2A-Pad19)_0*%
X126910000Y-92700000D03*
%TO.P,U1,20,GPIO1_31*%
%TO.N,unconnected-(U1-GPIO1_31-Pad20)_0*%
X126910000Y-143500000D03*
%TO.N,unconnected-(U1-GPIO1_31-Pad20)*%
X126910000Y-95240000D03*
%TO.P,U1,21,UART2_TXD*%
%TO.N,/UART_TX*%
X124370000Y-140960000D03*
X124370000Y-92700000D03*
%TO.P,U1,22,UART2_RXD*%
%TO.N,/UART_RX*%
X124370000Y-143500000D03*
X124370000Y-95240000D03*
%TO.P,U1,23,GPIO1_17*%
%TO.N,/GPIO1_17*%
X121830000Y-140960000D03*
X121830000Y-92700000D03*
%TO.P,U1,24,DCAN1_RX*%
%TO.N,/CAN1_RX*%
X121830000Y-143500000D03*
X121830000Y-95240000D03*
%TO.P,U1,25,GPIO3_21*%
%TO.N,/CAN_SLNT*%
X119290000Y-140960000D03*
X119290000Y-92700000D03*
%TO.P,U1,26,DCAN1_TX*%
%TO.N,/CAN1_TX*%
X119290000Y-143500000D03*
X119290000Y-95240000D03*
%TO.P,U1,27,GPIO2_22*%
%TO.N,/GPI02_22*%
X116750000Y-140960000D03*
X116750000Y-92700000D03*
%TO.P,U1,28,GPIO2_24*%
%TO.N,/GPIO2_24*%
X116750000Y-143500000D03*
X116750000Y-95240000D03*
%TO.P,U1,29,GPIO2_23*%
%TO.N,/GPIO2_23*%
X114210000Y-140960000D03*
X114210000Y-92700000D03*
%TO.P,U1,30,GPIO2_25*%
%TO.N,/GPIO2_25*%
X114210000Y-143500000D03*
X114210000Y-95240000D03*
%TO.P,U1,31,SPI1_SCLK*%
%TO.N,unconnected-(U1-SPI1_SCLK-Pad31)*%
X111670000Y-140960000D03*
%TO.N,unconnected-(U1-SPI1_SCLK-Pad31)_0*%
X111670000Y-92700000D03*
%TO.P,U1,32,UART5_RTSN*%
%TO.N,unconnected-(U1-UART5_RTSN-Pad32)*%
X111670000Y-143500000D03*
%TO.N,unconnected-(U1-UART5_RTSN-Pad32)_0*%
X111670000Y-95240000D03*
%TO.P,U1,33,AIN4*%
%TO.N,unconnected-(U1-AIN4-Pad33)_0*%
X109130000Y-140960000D03*
%TO.N,unconnected-(U1-AIN4-Pad33)*%
X109130000Y-92700000D03*
%TO.P,U1,34,AGND*%
%TO.N,unconnected-(U1-AGND-Pad34)_0*%
X109130000Y-143500000D03*
%TO.N,unconnected-(U1-AGND-Pad34)*%
X109130000Y-95240000D03*
%TO.P,U1,35,AIN6*%
%TO.N,unconnected-(U1-AIN6-Pad35)*%
X106590000Y-140960000D03*
%TO.N,unconnected-(U1-AIN6-Pad35)_0*%
X106590000Y-92700000D03*
%TO.P,U1,36,AIN5*%
%TO.N,unconnected-(U1-AIN5-Pad36)_0*%
X106590000Y-143500000D03*
%TO.N,unconnected-(U1-AIN5-Pad36)*%
X106590000Y-95240000D03*
%TO.P,U1,37,AIN2*%
%TO.N,unconnected-(U1-AIN2-Pad37)*%
X104050000Y-140960000D03*
%TO.N,unconnected-(U1-AIN2-Pad37)_0*%
X104050000Y-92700000D03*
%TO.P,U1,38,AIN3*%
%TO.N,unconnected-(U1-AIN3-Pad38)*%
X104050000Y-143500000D03*
%TO.N,unconnected-(U1-AIN3-Pad38)_0*%
X104050000Y-95240000D03*
%TO.P,U1,39,GPIO2_12*%
%TO.N,/GPIO2_12*%
X101510000Y-140960000D03*
X101510000Y-92700000D03*
%TO.P,U1,40,GPIO2_13*%
%TO.N,/GPIO2_13*%
X101510000Y-143500000D03*
X101510000Y-95240000D03*
%TO.P,U1,41,GPIO2_10*%
%TO.N,/GPIO2_10*%
X98970000Y-140960000D03*
X98970000Y-92700000D03*
%TO.P,U1,42,GPIO0_7*%
%TO.N,/GPIO0_7*%
X98970000Y-143500000D03*
X98970000Y-95240000D03*
%TO.P,U1,43,GPIO2_8*%
%TO.N,/GPIO2_8*%
X96430000Y-140960000D03*
X96430000Y-92700000D03*
%TO.P,U1,44,GPIO2_9*%
%TO.N,/GPIO2_9*%
X96430000Y-143500000D03*
X96430000Y-95240000D03*
%TO.P,U1,45,GPIO2_6*%
%TO.N,/GPIO2_6*%
X93890000Y-140960000D03*
X93890000Y-92700000D03*
%TO.P,U1,46,GPIO2_7*%
%TO.N,/GPIO2_7*%
X93890000Y-143500000D03*
X93890000Y-95240000D03*
%TD*%
D11*
%TO.P,R1,1*%
%TO.N,/5V*%
X113010000Y-150000000D03*
D12*
%TO.P,R1,2*%
%TO.N,/I2C_SCL*%
X123170000Y-150000000D03*
%TD*%
D10*
%TO.P,U3,1,Vcc*%
%TO.N,/3V3*%
X107530000Y-150480000D03*
%TO.P,U3,2,GND*%
%TO.N,GND*%
X104990000Y-150480000D03*
%TO.P,U3,3,RX*%
%TO.N,/CAN1_TX*%
X102450000Y-150480000D03*
%TO.P,U3,4,TX*%
%TO.N,/CAN1_RX*%
X99910000Y-150480000D03*
%TO.P,U3,5,SLNT*%
%TO.N,/CAN_SLNT*%
X97370000Y-150480000D03*
%TO.P,U3,6,CANH*%
%TO.N,/CAN_H*%
X94830000Y-150480000D03*
%TO.P,U3,7,CANL*%
%TO.N,/CAN_L*%
X92290000Y-150480000D03*
%TD*%
D13*
%TO.P,U2,*%
%TO.N,*%
X85110000Y-164932973D03*
X88920000Y-79202973D03*
X162580000Y-79202973D03*
X165120000Y-164932973D03*
D14*
%TO.P,U2,1,CANL1*%
%TO.N,/CAN_L*%
X94000000Y-81742973D03*
D15*
%TO.P,U2,2,CANL2*%
%TO.N,unconnected-(U2-CANL2-Pad2)*%
X94000000Y-79202973D03*
%TO.P,U2,3,CANH1*%
%TO.N,/CAN_H*%
X96540000Y-81742973D03*
%TO.P,U2,4,CANH2*%
%TO.N,unconnected-(U2-CANH2-Pad4)*%
X96540000Y-79202973D03*
%TO.P,U2,5,UART_A_TX*%
%TO.N,unconnected-(U2-UART_A_TX-Pad5)*%
X99080000Y-81742973D03*
%TO.P,U2,6,UART_B_TX*%
%TO.N,unconnected-(U2-UART_B_TX-Pad6)*%
X99080000Y-79202973D03*
%TO.P,U2,7,UART_A_RX*%
%TO.N,unconnected-(U2-UART_A_RX-Pad7)*%
X101620000Y-81742973D03*
%TO.P,U2,8,UART_B_RX*%
%TO.N,unconnected-(U2-UART_B_RX-Pad8)*%
X101620000Y-79202973D03*
%TO.P,U2,9*%
%TO.N,unconnected-(U2-Pad9)*%
X104160000Y-81742973D03*
%TO.P,U2,10*%
%TO.N,unconnected-(U2-Pad10)*%
X104160000Y-79202973D03*
%TO.P,U2,11*%
%TO.N,/GPIO1_13*%
X106700000Y-81742973D03*
%TO.P,U2,12,BGLBON_RST*%
%TO.N,/SYS_RESETn*%
X106700000Y-79202973D03*
%TO.P,U2,13*%
%TO.N,/GPIO1_12*%
X109240000Y-81742973D03*
%TO.P,U2,14*%
%TO.N,unconnected-(U2-Pad14)*%
X109240000Y-79202973D03*
%TO.P,U2,15*%
%TO.N,/GPIO1_26*%
X111780000Y-81742973D03*
%TO.P,U2,16*%
%TO.N,unconnected-(U2-Pad16)*%
X111780000Y-79202973D03*
%TO.P,U2,17*%
%TO.N,/GPIO1_15*%
X114320000Y-81742973D03*
%TO.P,U2,18*%
%TO.N,unconnected-(U2-Pad18)*%
X114320000Y-79202973D03*
%TO.P,U2,19,UART_1_TX*%
%TO.N,unconnected-(U2-UART_1_TX-Pad19)*%
X116860000Y-81742973D03*
%TO.P,U2,20,UART_1_RX*%
%TO.N,unconnected-(U2-UART_1_RX-Pad20)*%
X116860000Y-79202973D03*
%TO.P,U2,21*%
%TO.N,/GPIO1_27*%
X119400000Y-81742973D03*
%TO.P,U2,22*%
%TO.N,/GPIO2_13*%
X119400000Y-79202973D03*
%TO.P,U2,23*%
%TO.N,/GPIO2_1*%
X121940000Y-81742973D03*
%TO.P,U2,24*%
%TO.N,/GPIO2_10*%
X121940000Y-79202973D03*
%TO.P,U2,25,3V3_MAIN*%
%TO.N,/3V3*%
X124480000Y-81742973D03*
%TO.P,U2,26,3V3_MAIN*%
X124480000Y-79202973D03*
%TO.P,U2,27*%
%TO.N,/GPIO1_29*%
X127020000Y-81742973D03*
%TO.P,U2,28*%
%TO.N,/GPIO2_11*%
X127020000Y-79202973D03*
%TO.P,U2,29*%
%TO.N,/GPI02_22*%
X129560000Y-81742973D03*
%TO.P,U2,30*%
%TO.N,/GPIO2_8*%
X129560000Y-79202973D03*
%TO.P,U2,31,CHARGE*%
%TO.N,unconnected-(U2-CHARGE-Pad31)*%
X132100000Y-81742973D03*
%TO.P,U2,32,CHARGE*%
%TO.N,unconnected-(U2-CHARGE-Pad32)*%
X132100000Y-79202973D03*
%TO.P,U2,33,GNSS_UART_TX*%
%TO.N,/UART_TX*%
X134640000Y-81742973D03*
%TO.P,U2,34*%
%TO.N,/GPIO2_9*%
X134640000Y-79202973D03*
%TO.P,U2,35,GNSS_UART_RX*%
%TO.N,/UART_RX*%
X137180000Y-81742973D03*
%TO.P,U2,36*%
%TO.N,/GPIO2_6*%
X137180000Y-79202973D03*
%TO.P,U2,37,CAN_H*%
%TO.N,unconnected-(U2-CAN_H-Pad37)*%
X139720000Y-81742973D03*
%TO.P,U2,38,CAN_L*%
%TO.N,unconnected-(U2-CAN_L-Pad38)*%
X139720000Y-79202973D03*
%TO.P,U2,39*%
%TO.N,unconnected-(U2-Pad39)*%
X142260000Y-81742973D03*
%TO.P,U2,40*%
%TO.N,unconnected-(U2-Pad40)*%
X142260000Y-79202973D03*
%TO.P,U2,41,I2C1_SDA*%
%TO.N,/I2C_SDA*%
X144800000Y-81742973D03*
%TO.P,U2,42*%
%TO.N,/GPIO2_25*%
X144800000Y-79202973D03*
%TO.P,U2,43,I2C1_SCL*%
%TO.N,/I2C_SCL*%
X147340000Y-81742973D03*
%TO.P,U2,44*%
%TO.N,/GPIO2_12*%
X147340000Y-79202973D03*
%TO.P,U2,45*%
%TO.N,/GPIO2_24*%
X149880000Y-81742973D03*
%TO.P,U2,46*%
%TO.N,/GPIO2_23*%
X149880000Y-79202973D03*
%TO.P,U2,47*%
%TO.N,unconnected-(U2-Pad47)*%
X152420000Y-81742973D03*
%TO.P,U2,48*%
%TO.N,unconnected-(U2-Pad48)*%
X152420000Y-79202973D03*
%TO.P,U2,49*%
%TO.N,unconnected-(U2-Pad49)*%
X154960000Y-81742973D03*
%TO.P,U2,50*%
%TO.N,unconnected-(U2-Pad50)*%
X154960000Y-79202973D03*
%TO.P,U2,51*%
%TO.N,unconnected-(U2-Pad51)*%
X157500000Y-81742973D03*
%TO.P,U2,52*%
%TO.N,unconnected-(U2-Pad52)*%
X157500000Y-79202973D03*
%TD*%
D11*
%TO.P,R2,1*%
%TO.N,/5V*%
X126510000Y-150000000D03*
D12*
%TO.P,R2,2*%
%TO.N,/I2C_SDA*%
X136670000Y-150000000D03*
%TD*%
D14*
%TO.P,U4,1,TEMP_1*%
%TO.N,/FC_TEMP*%
X94012500Y-87040000D03*
D15*
%TO.P,U4,2,TEMP_2*%
%TO.N,unconnected-(U4-TEMP_2-Pad2)*%
X94012500Y-84500000D03*
%TO.P,U4,3,TEMP_3*%
%TO.N,unconnected-(U4-TEMP_3-Pad3)*%
X96552500Y-87040000D03*
%TO.P,U4,4,TEMP_4*%
%TO.N,unconnected-(U4-TEMP_4-Pad4)*%
X96552500Y-84500000D03*
%TO.P,U4,5,TEMP_5*%
%TO.N,unconnected-(U4-TEMP_5-Pad5)*%
X99092500Y-87040000D03*
%TO.P,U4,6,TEMP_6*%
%TO.N,unconnected-(U4-TEMP_6-Pad6)*%
X99092500Y-84500000D03*
%TO.P,U4,7,TEMP_7*%
%TO.N,unconnected-(U4-TEMP_7-Pad7)*%
X101632500Y-87040000D03*
%TO.P,U4,8,TEMP_8*%
%TO.N,unconnected-(U4-TEMP_8-Pad8)*%
X101632500Y-84500000D03*
%TO.P,U4,9,TEMP_9*%
%TO.N,unconnected-(U4-TEMP_9-Pad9)*%
X104172500Y-87040000D03*
%TO.P,U4,10,TEMP_10*%
%TO.N,unconnected-(U4-TEMP_10-Pad10)*%
X104172500Y-84500000D03*
%TO.P,U4,11,TEMP_11*%
%TO.N,unconnected-(U4-TEMP_11-Pad11)*%
X106712500Y-87040000D03*
%TO.P,U4,12,TEMP_12*%
%TO.N,unconnected-(U4-TEMP_12-Pad12)*%
X106712500Y-84500000D03*
%TO.P,U4,13,TEMP_13*%
%TO.N,unconnected-(U4-TEMP_13-Pad13)*%
X109252500Y-87040000D03*
%TO.P,U4,14,TEMP_14*%
%TO.N,unconnected-(U4-TEMP_14-Pad14)*%
X109252500Y-84500000D03*
%TO.P,U4,15,TEMP_15*%
%TO.N,unconnected-(U4-TEMP_15-Pad15)*%
X111792500Y-87040000D03*
%TO.P,U4,16*%
%TO.N,/GPIO2_7*%
X111792500Y-84500000D03*
%TO.P,U4,17*%
%TO.N,/GPIO1_14*%
X114332500Y-87040000D03*
%TO.P,U4,18,ADCS_ENABLE*%
%TO.N,unconnected-(U4-ADCS_ENABLE-Pad18)*%
X114332500Y-84500000D03*
%TO.P,U4,19*%
%TO.N,/GPIO0_7*%
X116872500Y-87040000D03*
%TO.P,U4,20,ADCS_BOOT*%
%TO.N,unconnected-(U4-ADCS_BOOT-Pad20)*%
X116872500Y-84500000D03*
%TO.P,U4,21*%
%TO.N,/GPIO3_20*%
X119412500Y-87040000D03*
%TO.P,U4,22*%
%TO.N,/GPIO3_19*%
X119412500Y-84500000D03*
%TO.P,U4,23,5V_MAIN_STAT*%
%TO.N,unconnected-(U4-5V_MAIN_STAT-Pad23)*%
X121952500Y-87040000D03*
%TO.P,U4,24,3.3V_MAIN_STAT*%
%TO.N,unconnected-(U4-3.3V_MAIN_STAT-Pad24)*%
X121952500Y-84500000D03*
%TO.P,U4,25,5V_MAIN*%
%TO.N,/5V*%
X124492500Y-87040000D03*
%TO.P,U4,26,5V_MAIN*%
X124492500Y-84500000D03*
%TO.P,U4,27,3V3_MAIN*%
%TO.N,/3V3*%
X127032500Y-87040000D03*
%TO.P,U4,28,3V3_MAIN*%
X127032500Y-84500000D03*
%TO.P,U4,29,GND*%
%TO.N,GND*%
X129572500Y-87040000D03*
%TO.P,U4,30,GND*%
X129572500Y-84500000D03*
%TO.P,U4,31,GND*%
X132112500Y-87040000D03*
%TO.P,U4,32,GND*%
X132112500Y-84500000D03*
%TO.P,U4,33,PLOD_STAT_1*%
%TO.N,unconnected-(U4-PLOD_STAT_1-Pad33)*%
X134652500Y-87040000D03*
%TO.P,U4,34,PLOD_STAT_2*%
%TO.N,unconnected-(U4-PLOD_STAT_2-Pad34)*%
X134652500Y-84500000D03*
%TO.P,U4,35,PLOD_STAT_3*%
%TO.N,unconnected-(U4-PLOD_STAT_3-Pad35)*%
X137192500Y-87040000D03*
%TO.P,U4,36,PLOD_STAT_4*%
%TO.N,unconnected-(U4-PLOD_STAT_4-Pad36)*%
X137192500Y-84500000D03*
%TO.P,U4,37,PLOD_STAT_5*%
%TO.N,unconnected-(U4-PLOD_STAT_5-Pad37)*%
X139732500Y-87040000D03*
%TO.P,U4,38,PLOD_COMP_RST*%
%TO.N,unconnected-(U4-PLOD_COMP_RST-Pad38)*%
X139732500Y-84500000D03*
%TO.P,U4,39*%
%TO.N,unconnected-(U4-Pad39)*%
X142272500Y-87040000D03*
%TO.P,U4,40*%
%TO.N,/GPIO1_16*%
X142272500Y-84500000D03*
%TO.P,U4,41,BURN_ENABLE_1*%
%TO.N,unconnected-(U4-BURN_ENABLE_1-Pad41)*%
X144812500Y-87040000D03*
%TO.P,U4,42,BURN_ENABLE_2*%
%TO.N,unconnected-(U4-BURN_ENABLE_2-Pad42)*%
X144812500Y-84500000D03*
%TO.P,U4,43*%
%TO.N,/GPIO1_28*%
X147352500Y-87040000D03*
%TO.P,U4,44*%
%TO.N,/GPIO1_17*%
X147352500Y-84500000D03*
%TO.P,U4,45,V_BAT*%
%TO.N,unconnected-(U4-V_BAT-Pad45)*%
X149892500Y-87040000D03*
%TO.P,U4,46,V_BAT*%
%TO.N,unconnected-(U4-V_BAT-Pad46)*%
X149892500Y-84500000D03*
%TO.P,U4,47,BATT_V_SENS*%
%TO.N,unconnected-(U4-BATT_V_SENS-Pad47)*%
X152432500Y-87040000D03*
%TO.P,U4,48,V_BAT*%
%TO.N,unconnected-(U4-V_BAT-Pad48)*%
X152432500Y-84500000D03*
%TO.P,U4,49,BATT_CUR_IN*%
%TO.N,unconnected-(U4-BATT_CUR_IN-Pad49)*%
X154972500Y-87040000D03*
%TO.P,U4,50*%
%TO.N,/CAN_SNLT*%
X154972500Y-84500000D03*
%TO.P,U4,51,BATT_CUR_OUT*%
%TO.N,unconnected-(U4-BATT_CUR_OUT-Pad51)*%
X157512500Y-87040000D03*
%TO.P,U4,52,BURN_FET*%
%TO.N,unconnected-(U4-BURN_FET-Pad52)*%
X157512500Y-84500000D03*
%TD*%
D16*
%TO.N,/5V*%
X144700000Y-150800000D03*
%TO.N,/I2C_SCL*%
X148500000Y-94000000D03*
X140600000Y-148200000D03*
X143500000Y-94000000D03*
%TO.N,/I2C_SDA*%
X134500000Y-98000000D03*
X151500000Y-97500000D03*
%TO.N,/GPIO2_1*%
X127500000Y-98000000D03*
%TO.N,/SYS_RESETn*%
X105000000Y-91000000D03*
X120000000Y-101000000D03*
X139610000Y-154300000D03*
%TO.N,/UART_TX*%
X123000000Y-97500000D03*
%TO.N,/GPIO2_12*%
X101500000Y-99000000D03*
X138500000Y-78000000D03*
X135500000Y-77500000D03*
%TO.N,GND*%
X144500000Y-89500000D03*
%TO.N,/GPIO2_23*%
X115000000Y-90500000D03*
X115500000Y-88000000D03*
%TO.N,/GPIO2_8*%
X96500000Y-98500000D03*
X122000000Y-77000000D03*
X125500000Y-77500000D03*
%TO.N,/GPIO2_10*%
X99000000Y-98500000D03*
%TO.N,/CAN1_RX*%
X99900000Y-152700000D03*
%TO.N,/UART_RX*%
X124500000Y-97500000D03*
%TO.N,/GPIO2_6*%
X94500000Y-99000000D03*
X118500000Y-76350000D03*
%TO.N,/GPIO2_7*%
X93500000Y-98500000D03*
%TO.N,/GPIO1_13*%
X138000000Y-102500000D03*
X106500000Y-99000000D03*
X111500000Y-104000000D03*
%TO.N,/GPIO2_9*%
X99432000Y-96716000D03*
X95500000Y-98500000D03*
%TO.N,/GPIO2_25*%
X126500000Y-89000000D03*
X113000000Y-98000000D03*
%TO.N,/GPIO1_15*%
X111000000Y-90500000D03*
X111500000Y-100500000D03*
X132000000Y-97000000D03*
%TO.N,/GPIO2_13*%
X101500000Y-97500000D03*
X102500000Y-100000000D03*
X103000000Y-98000000D03*
%TO.N,/GPIO1_12*%
X137000000Y-99500000D03*
X107500000Y-99000000D03*
X111500000Y-102500000D03*
%TO.N,/GPIO1_17*%
X128500000Y-97000000D03*
X122000000Y-96500000D03*
%TO.N,/GPIO1_26*%
X134000000Y-99000000D03*
X111500000Y-101500000D03*
X109500000Y-91000000D03*
%TO.N,/GPIO1_14*%
X113500000Y-90500000D03*
X130365000Y-96865000D03*
X111500000Y-99500000D03*
%TO.N,/3V3*%
X110600000Y-145500000D03*
X113800000Y-147100000D03*
X111000000Y-77000000D03*
X111100000Y-123100000D03*
%TO.N,/FC_TEMP*%
X88900000Y-87900000D03*
X88900000Y-117000000D03*
%TD*%
D17*
%TO.N,/5V*%
X144700000Y-150800000D02*
X144690000Y-150790000D01*
X142490000Y-90500000D02*
X144250000Y-92260000D01*
X124500000Y-90500000D02*
X142490000Y-90500000D01*
X144690000Y-143500000D02*
X144690000Y-95240000D01*
X144690000Y-150790000D02*
X144690000Y-143500000D01*
X124492500Y-87040000D02*
X124492500Y-90492500D01*
X144690000Y-95240000D02*
X144690000Y-92700000D01*
X124492500Y-87040000D02*
X124492500Y-84500000D01*
X124492500Y-90492500D02*
X124500000Y-90500000D01*
X142490000Y-90500000D02*
X144690000Y-92700000D01*
X126510000Y-150000000D02*
X126500000Y-150000000D01*
D18*
%TO.N,/I2C_SCL*%
X148552500Y-87537057D02*
X148552500Y-82942500D01*
X143500000Y-95462606D02*
X143500000Y-94000000D01*
X140722000Y-98240606D02*
X143500000Y-95462606D01*
X148500000Y-94000000D02*
X148500000Y-87589557D01*
X148552500Y-82942500D02*
X147340000Y-81730000D01*
X148500000Y-87589557D02*
X148552500Y-87537057D01*
X140722000Y-148078000D02*
X140722000Y-98240606D01*
X140600000Y-148200000D02*
X140722000Y-148078000D01*
D19*
%TO.N,/I2C_SDA*%
X150276346Y-80500000D02*
X146030000Y-80500000D01*
X135608000Y-148938000D02*
X135608000Y-99108000D01*
X136670000Y-150000000D02*
X135608000Y-148938000D01*
X151282500Y-97282500D02*
X151282500Y-82282500D01*
X146030000Y-80500000D02*
X144800000Y-81730000D01*
X151030000Y-82030000D02*
X151030000Y-81253654D01*
X151030000Y-81253654D02*
X150276346Y-80500000D01*
X151500000Y-97500000D02*
X151282500Y-97282500D01*
X151282500Y-82282500D02*
X151030000Y-82030000D01*
X135608000Y-99108000D02*
X134500000Y-98000000D01*
D18*
%TO.N,/GPIO2_1*%
X128500000Y-143500000D02*
X129450000Y-143500000D01*
X127500000Y-98000000D02*
X128022000Y-98522000D01*
X129822606Y-91500000D02*
X130562000Y-92239394D01*
X123152500Y-91347500D02*
X123000000Y-91500000D01*
X128022000Y-142978000D02*
X128000000Y-143000000D01*
X130562000Y-94128000D02*
X129450000Y-95240000D01*
X130562000Y-92239394D02*
X130562000Y-94128000D01*
X123152500Y-82942500D02*
X123152500Y-91347500D01*
X121940000Y-81730000D02*
X123152500Y-82942500D01*
X128000000Y-143000000D02*
X128500000Y-143500000D01*
X128022000Y-98522000D02*
X128022000Y-142978000D01*
X123000000Y-91500000D02*
X129822606Y-91500000D01*
D19*
%TO.N,/GPIO2_24*%
X116750000Y-138250000D02*
X116750000Y-95240000D01*
X116750000Y-143500000D02*
X117812000Y-142438000D01*
X116500000Y-138500000D02*
X116750000Y-138250000D01*
X116500000Y-139000000D02*
X116500000Y-138500000D01*
X117812000Y-140312000D02*
X116500000Y-139000000D01*
X117812000Y-142438000D02*
X117812000Y-140312000D01*
%TO.N,/SYS_RESETn*%
X108767895Y-89900000D02*
X118600000Y-89900000D01*
X139500000Y-139568105D02*
X138548000Y-140520105D01*
X107667895Y-91000000D02*
X108767895Y-89900000D01*
X119500000Y-89000000D02*
X119500000Y-91408105D01*
X120352000Y-92260105D02*
X120352000Y-100648000D01*
X139500000Y-95400000D02*
X139500000Y-139568105D01*
X139610000Y-154300000D02*
X139610000Y-143500000D01*
X118600000Y-89900000D02*
X119250000Y-89250000D01*
X119500000Y-91408105D02*
X120352000Y-92260105D01*
X138548000Y-142438000D02*
X139610000Y-143500000D01*
X105000000Y-91000000D02*
X107667895Y-91000000D01*
X139610000Y-95240000D02*
X139610000Y-95290000D01*
X120352000Y-100648000D02*
X120000000Y-101000000D01*
X139610000Y-95290000D02*
X139500000Y-95400000D01*
X119250000Y-89250000D02*
X119500000Y-89000000D01*
X138548000Y-140520105D02*
X138548000Y-142438000D01*
D18*
%TO.N,/UART_TX*%
X123410000Y-140000000D02*
X124370000Y-140960000D01*
X123000000Y-97500000D02*
X123000000Y-140000000D01*
X123000000Y-140000000D02*
X123410000Y-140000000D01*
%TO.N,/GPIO2_12*%
X101500000Y-99000000D02*
X101510000Y-99010000D01*
X101510000Y-99010000D02*
X101510000Y-140960000D01*
X135500000Y-77500000D02*
X138000000Y-77500000D01*
X138500000Y-78000000D02*
X138490000Y-77990000D01*
X138000000Y-77500000D02*
X138500000Y-78000000D01*
D17*
%TO.N,GND*%
X132112500Y-87040000D02*
X129572500Y-87040000D01*
X149770000Y-96230000D02*
X149000000Y-97000000D01*
X132112500Y-87040000D02*
X129572500Y-84500000D01*
X149770000Y-140960000D02*
X149770000Y-143500000D01*
X129572500Y-87040000D02*
X132112500Y-84500000D01*
X132112500Y-84500000D02*
X132112500Y-87040000D01*
X129572500Y-84500000D02*
X132112500Y-84500000D01*
X149770000Y-95240000D02*
X149770000Y-96230000D01*
X149000000Y-140190000D02*
X149770000Y-140960000D01*
X149000000Y-97000000D02*
X149000000Y-140190000D01*
X134572500Y-89500000D02*
X132112500Y-87040000D01*
X149770000Y-92700000D02*
X149770000Y-95240000D01*
X129572500Y-87040000D02*
X129572500Y-84500000D01*
X144500000Y-89500000D02*
X134572500Y-89500000D01*
D19*
%TO.N,/CAN_SLNT*%
X119000000Y-139565686D02*
X119000000Y-140670000D01*
X119290000Y-92700000D02*
X117812000Y-94178000D01*
X117812000Y-94178000D02*
X117812000Y-139000000D01*
X117812000Y-139000000D02*
X118434314Y-139000000D01*
X118434314Y-139000000D02*
X119000000Y-139565686D01*
X119000000Y-140670000D02*
X119290000Y-140960000D01*
D18*
%TO.N,/GPIO2_23*%
X114210000Y-94128000D02*
X113749394Y-94128000D01*
X112955000Y-95955000D02*
X114000000Y-97000000D01*
X114210000Y-92700000D02*
X114210000Y-90790000D01*
X114210000Y-90790000D02*
X114500000Y-90500000D01*
X122437057Y-80530000D02*
X118902943Y-80530000D01*
X114500000Y-90500000D02*
X115000000Y-90500000D01*
X123280000Y-79687057D02*
X122437057Y-80530000D01*
X118072500Y-81360443D02*
X118072500Y-82427500D01*
X116200000Y-83300000D02*
X115672500Y-83827500D01*
X114210000Y-92700000D02*
X114210000Y-94128000D01*
X115672500Y-83827500D02*
X115672500Y-87537057D01*
X125472943Y-76500000D02*
X123280000Y-78692943D01*
X114210000Y-92290000D02*
X114210000Y-92700000D01*
X149880000Y-79190000D02*
X149880000Y-76880000D01*
X112955000Y-94922394D02*
X112955000Y-95955000D01*
X113749394Y-94128000D02*
X112955000Y-94922394D01*
X115672500Y-87827500D02*
X115500000Y-88000000D01*
X149880000Y-76880000D02*
X149500000Y-76500000D01*
X149500000Y-76500000D02*
X125472943Y-76500000D01*
X123280000Y-78692943D02*
X123280000Y-79687057D01*
X114000000Y-97000000D02*
X114000000Y-141500000D01*
X118072500Y-82427500D02*
X117200000Y-83300000D01*
X117200000Y-83300000D02*
X116200000Y-83300000D01*
X114000000Y-141500000D02*
X114210000Y-141290000D01*
X115672500Y-87537057D02*
X115672500Y-87827500D01*
X118902943Y-80530000D02*
X118072500Y-81360443D01*
%TO.N,/GPIO2_8*%
X113120000Y-79687057D02*
X113120000Y-78692943D01*
X96430000Y-140960000D02*
X96430000Y-98570000D01*
X105512500Y-86542943D02*
X106355443Y-85700000D01*
X113120000Y-78692943D02*
X114812943Y-77000000D01*
X114812943Y-77000000D02*
X122000000Y-77000000D01*
X112277057Y-80530000D02*
X113120000Y-79687057D01*
X111282943Y-80530000D02*
X112277057Y-80530000D01*
X110580000Y-81232943D02*
X111282943Y-80530000D01*
X96430000Y-98570000D02*
X96500000Y-98500000D01*
X99812370Y-88240000D02*
X104760000Y-88240000D01*
X104760000Y-88240000D02*
X105512500Y-87487500D01*
X107300000Y-85700000D02*
X108052500Y-84947500D01*
X108052500Y-84947500D02*
X108052500Y-84002943D01*
X96430000Y-92700000D02*
X96430000Y-91622370D01*
X110580000Y-82227057D02*
X110580000Y-81232943D01*
X105512500Y-87487500D02*
X105512500Y-86542943D01*
X108052500Y-84002943D02*
X109125443Y-82930000D01*
X96430000Y-91622370D02*
X99812370Y-88240000D01*
X106355443Y-85700000D02*
X107300000Y-85700000D01*
X125500000Y-77500000D02*
X127870000Y-77500000D01*
X109877057Y-82930000D02*
X110580000Y-82227057D01*
X109125443Y-82930000D02*
X109877057Y-82930000D01*
X127870000Y-77500000D02*
X129560000Y-79190000D01*
%TO.N,/GPIO2_10*%
X98970000Y-92700000D02*
X98970000Y-90030000D01*
X120740000Y-77990000D02*
X121940000Y-79190000D01*
X116362943Y-77990000D02*
X120740000Y-77990000D01*
X99000000Y-98500000D02*
X98970000Y-98530000D01*
X115660000Y-79687057D02*
X115660000Y-78692943D01*
X109885394Y-85700000D02*
X110452500Y-85132894D01*
X98970000Y-92970000D02*
X99000000Y-93000000D01*
X108800000Y-85700000D02*
X109885394Y-85700000D01*
X108000000Y-87449557D02*
X108000000Y-86500000D01*
X110452500Y-84142943D02*
X111295443Y-83300000D01*
X113822943Y-80530000D02*
X114817057Y-80530000D01*
X114817057Y-80530000D02*
X115660000Y-79687057D01*
X111295443Y-83300000D02*
X112289557Y-83300000D01*
X98970000Y-90030000D02*
X100260000Y-88740000D01*
X110452500Y-85132894D02*
X110452500Y-84142943D01*
X113120000Y-81232943D02*
X113822943Y-80530000D01*
X100260000Y-88740000D02*
X106709557Y-88740000D01*
X112289557Y-83300000D02*
X113120000Y-82469557D01*
X98970000Y-92700000D02*
X98970000Y-92970000D01*
X108000000Y-86500000D02*
X108800000Y-85700000D01*
X115660000Y-78692943D02*
X116362943Y-77990000D01*
X98970000Y-98530000D02*
X98970000Y-140960000D01*
X106709557Y-88740000D02*
X108000000Y-87449557D01*
X113120000Y-82469557D02*
X113120000Y-81232943D01*
D19*
%TO.N,/CAN1_RX*%
X120768000Y-142438000D02*
X121830000Y-143500000D01*
X103314364Y-152900000D02*
X103575416Y-153161052D01*
X120768000Y-96302000D02*
X120768000Y-142438000D01*
X121830000Y-95240000D02*
X120768000Y-96302000D01*
X103575416Y-153161052D02*
X106838948Y-153161052D01*
X113500000Y-146500000D02*
X118830000Y-146500000D01*
X106838948Y-153161052D02*
X113500000Y-146500000D01*
X118830000Y-146500000D02*
X121830000Y-143500000D01*
X100100000Y-152900000D02*
X103314364Y-152900000D01*
X99900000Y-152700000D02*
X100100000Y-152900000D01*
%TO.N,/UART_RX*%
X125432000Y-142438000D02*
X125432000Y-140432000D01*
X124000000Y-139000000D02*
X124000000Y-98000000D01*
X125432000Y-140432000D02*
X124000000Y-139000000D01*
X124370000Y-143500000D02*
X125432000Y-142438000D01*
X124000000Y-98000000D02*
X124500000Y-97500000D01*
D18*
%TO.N,/GPIO2_6*%
X98735443Y-85700000D02*
X97892500Y-86542943D01*
X107900000Y-81232943D02*
X107900000Y-82227057D01*
X93890000Y-140960000D02*
X94500000Y-140350000D01*
X105512500Y-84002943D02*
X105512500Y-84997057D01*
X106827057Y-83300000D02*
X106215443Y-83300000D01*
X94500000Y-140350000D02*
X94500000Y-99000000D01*
X110580000Y-78692943D02*
X110580000Y-79547057D01*
X110580000Y-79547057D02*
X109737057Y-80390000D01*
X104809557Y-85700000D02*
X98735443Y-85700000D01*
X97892500Y-88697500D02*
X93890000Y-92700000D01*
X106215443Y-83300000D02*
X105512500Y-84002943D01*
X113272943Y-76000000D02*
X110580000Y-78692943D01*
X118500000Y-76350000D02*
X118150000Y-76000000D01*
X105512500Y-84997057D02*
X104809557Y-85700000D01*
X108742943Y-80390000D02*
X107900000Y-81232943D01*
X118150000Y-76000000D02*
X113272943Y-76000000D01*
X97892500Y-86542943D02*
X97892500Y-88697500D01*
X107900000Y-82227057D02*
X106827057Y-83300000D01*
X109737057Y-80390000D02*
X108742943Y-80390000D01*
%TO.N,/GPIO2_7*%
X99500000Y-90707106D02*
X99500000Y-91657394D01*
X109749557Y-88240000D02*
X107916663Y-88240000D01*
X99500000Y-91657394D02*
X100082000Y-92239394D01*
X107916663Y-88240000D02*
X106916663Y-89240000D01*
X100082000Y-93160606D02*
X99500000Y-93742606D01*
X99500000Y-94000000D02*
X95130000Y-94000000D01*
X92778000Y-139999394D02*
X93000000Y-139777394D01*
X110101028Y-86191472D02*
X110452500Y-86542943D01*
X93890000Y-143500000D02*
X92778000Y-142388000D01*
X92778000Y-142388000D02*
X92778000Y-139999394D01*
X106916663Y-89240000D02*
X100967106Y-89240000D01*
X93500000Y-99000000D02*
X93500000Y-98500000D01*
X100082000Y-92239394D02*
X100082000Y-93160606D01*
X93000000Y-99500000D02*
X93500000Y-99000000D01*
X99500000Y-93742606D02*
X99500000Y-94000000D01*
X110452500Y-87537057D02*
X109749557Y-88240000D01*
X100967106Y-89240000D02*
X99500000Y-90707106D01*
X93000000Y-139777394D02*
X93000000Y-99500000D01*
X111792500Y-84500000D02*
X110101028Y-86191472D01*
X95130000Y-94000000D02*
X93890000Y-95240000D01*
X110452500Y-86542943D02*
X110452500Y-87537057D01*
D19*
%TO.N,/GPIO1_13*%
X138000000Y-140030000D02*
X137070000Y-140960000D01*
X138000000Y-96500000D02*
X138000000Y-140030000D01*
X137070000Y-92700000D02*
X138132000Y-93762000D01*
X106500000Y-99000000D02*
X111500000Y-104000000D01*
X138132000Y-96368000D02*
X138000000Y-96500000D01*
X138132000Y-93762000D02*
X138132000Y-96368000D01*
D18*
%TO.N,/GPIO1_27*%
X120612500Y-90612500D02*
X121588000Y-91588000D01*
X129450000Y-92700000D02*
X128338000Y-93812000D01*
X129500000Y-140910000D02*
X129450000Y-140960000D01*
X119400000Y-81730000D02*
X120612500Y-82942500D01*
X123097394Y-93000000D02*
X123909394Y-93812000D01*
X121588000Y-91588000D02*
X122290606Y-91588000D01*
X123909394Y-93812000D02*
X128338000Y-93812000D01*
X123097394Y-92394788D02*
X123097394Y-93000000D01*
X128338000Y-95918761D02*
X129500000Y-97080761D01*
X128338000Y-93812000D02*
X128338000Y-95918761D01*
X129500000Y-97080761D02*
X129500000Y-140910000D01*
X120612500Y-82942500D02*
X120612500Y-90612500D01*
X122290606Y-91588000D02*
X123097394Y-92394788D01*
%TO.N,/GPIO2_9*%
X95500000Y-98500000D02*
X95318000Y-98682000D01*
X95318000Y-98682000D02*
X95318000Y-142388000D01*
X96430000Y-143500000D02*
X96500000Y-143500000D01*
X97906000Y-96716000D02*
X96430000Y-95240000D01*
X99432000Y-96716000D02*
X97906000Y-96716000D01*
X95318000Y-142388000D02*
X96430000Y-143500000D01*
%TO.N,/GPIO2_25*%
X129075443Y-83300000D02*
X128372500Y-84002943D01*
X113000000Y-142290000D02*
X114210000Y-143500000D01*
X113000000Y-98000000D02*
X113000000Y-142290000D01*
X126769557Y-89000000D02*
X126500000Y-89000000D01*
X138520000Y-81232943D02*
X138520000Y-82227057D01*
X138520000Y-82227057D02*
X137447057Y-83300000D01*
X143460000Y-80530000D02*
X139222943Y-80530000D01*
X144800000Y-79190000D02*
X143460000Y-80530000D01*
X139222943Y-80530000D02*
X138520000Y-81232943D01*
X128372500Y-87397057D02*
X126769557Y-89000000D01*
X128372500Y-84002943D02*
X128372500Y-87397057D01*
X137447057Y-83300000D02*
X129075443Y-83300000D01*
D19*
%TO.N,/GPIO1_15*%
X133052000Y-93762000D02*
X133052000Y-95948000D01*
X111000000Y-90500000D02*
X110192000Y-91308000D01*
X109153895Y-94178000D02*
X108690105Y-94178000D01*
X110192000Y-91308000D02*
X110192000Y-93139895D01*
X108690105Y-94178000D02*
X108068000Y-94800105D01*
X131990000Y-97010000D02*
X131990000Y-140960000D01*
X131990000Y-92700000D02*
X133052000Y-93762000D01*
X108068000Y-94800105D02*
X108068000Y-97068000D01*
X108068000Y-97068000D02*
X111500000Y-100500000D01*
X109153895Y-94178000D02*
X110192000Y-93139895D01*
X133052000Y-95948000D02*
X132000000Y-97000000D01*
X132000000Y-97000000D02*
X131990000Y-97010000D01*
D18*
%TO.N,/GPIO0_7*%
X102622000Y-94835106D02*
X102622000Y-95700606D01*
X116872500Y-88242081D02*
X115744581Y-89370000D01*
X110130000Y-89370000D02*
X110000000Y-89240000D01*
X116872500Y-87040000D02*
X116872500Y-88242081D01*
X103310606Y-94146500D02*
X102622000Y-94835106D01*
X104510606Y-93812000D02*
X103498606Y-93812000D01*
X101822606Y-96500000D02*
X100230000Y-96500000D01*
X102622000Y-95700606D02*
X101822606Y-96500000D01*
X100230000Y-96500000D02*
X100082000Y-96352000D01*
X98970000Y-143500000D02*
X100082000Y-142388000D01*
X100082000Y-96352000D02*
X98970000Y-95240000D01*
X103498606Y-93812000D02*
X103310606Y-94000000D01*
X108330875Y-89240000D02*
X107330875Y-90240000D01*
X105162000Y-92239394D02*
X105162000Y-93160606D01*
X103310606Y-94000000D02*
X103310606Y-94146500D01*
X103162606Y-90240000D02*
X105162000Y-92239394D01*
X107330875Y-90240000D02*
X103162606Y-90240000D01*
X105162000Y-93160606D02*
X104510606Y-93812000D01*
X110000000Y-89240000D02*
X108330875Y-89240000D01*
X100082000Y-142388000D02*
X100082000Y-96352000D01*
X115744581Y-89370000D02*
X110130000Y-89370000D01*
%TO.N,/GPI02_22*%
X115500000Y-93950000D02*
X115500000Y-139710000D01*
X115500000Y-139710000D02*
X116750000Y-140960000D01*
X116750000Y-92700000D02*
X115500000Y-93950000D01*
%TO.N,/GPIO2_13*%
X102810606Y-93939394D02*
X101510000Y-95240000D01*
X113132500Y-84002943D02*
X113132500Y-87537057D01*
X103000000Y-98000000D02*
X102500000Y-98000000D01*
X114500000Y-83300000D02*
X113835443Y-83300000D01*
X102500000Y-98000000D02*
X102000000Y-97500000D01*
X118060000Y-80530000D02*
X116362943Y-80530000D01*
X102810606Y-92428000D02*
X102810606Y-93939394D01*
X100000000Y-90914212D02*
X100000000Y-91450288D01*
X119400000Y-79190000D02*
X118060000Y-80530000D01*
X100000000Y-91450288D02*
X101832894Y-91450288D01*
X101832894Y-91450288D02*
X102810606Y-92428000D01*
X113335443Y-88740000D02*
X108123769Y-88740000D01*
X101174212Y-89740000D02*
X100000000Y-90914212D01*
X102000000Y-97500000D02*
X101500000Y-97500000D01*
X116362943Y-80530000D02*
X115660000Y-81232943D01*
X102622000Y-100122000D02*
X102500000Y-100000000D01*
X107123769Y-89740000D02*
X101174212Y-89740000D01*
X102622000Y-142388000D02*
X102622000Y-100122000D01*
X115660000Y-82140000D02*
X114500000Y-83300000D01*
X113132500Y-87537057D02*
X113835443Y-88240000D01*
X113835443Y-83300000D02*
X113132500Y-84002943D01*
X108123769Y-88740000D02*
X107123769Y-89740000D01*
X113835443Y-88240000D02*
X113335443Y-88740000D01*
X115660000Y-81232943D02*
X115660000Y-82140000D01*
X101510000Y-143500000D02*
X102622000Y-142388000D01*
D19*
%TO.N,/GPIO1_12*%
X137070000Y-95240000D02*
X136008000Y-96302000D01*
X136008000Y-96302000D02*
X136008000Y-142438000D01*
X137000000Y-99000000D02*
X137070000Y-98930000D01*
X111000000Y-102500000D02*
X111500000Y-102500000D01*
X137070000Y-98930000D02*
X137070000Y-95240000D01*
X136008000Y-142438000D02*
X137070000Y-143500000D01*
X107500000Y-99000000D02*
X111000000Y-102500000D01*
X137000000Y-99500000D02*
X137000000Y-99000000D01*
%TO.N,/GPIO1_17*%
X122000000Y-96500000D02*
X121830000Y-96670000D01*
D18*
X122000000Y-96500000D02*
X128000000Y-96500000D01*
D19*
X121830000Y-96670000D02*
X121830000Y-140960000D01*
D18*
X128000000Y-96500000D02*
X128500000Y-97000000D01*
D19*
%TO.N,/CAN1_TX*%
X119290000Y-143500000D02*
X120352000Y-142438000D01*
X119290000Y-143500000D02*
X116690000Y-146100000D01*
X107900000Y-146600000D02*
X106468000Y-148032000D01*
X106980000Y-151431895D02*
X106980000Y-151464364D01*
X106468000Y-148032000D02*
X106468000Y-150919895D01*
X119290000Y-96922000D02*
X119290000Y-95240000D01*
X120352000Y-142438000D02*
X120352000Y-140352000D01*
X116690000Y-146100000D02*
X113334314Y-146100000D01*
X118212000Y-138212000D02*
X118212000Y-98000000D01*
X120352000Y-140352000D02*
X118212000Y-138212000D01*
X106980000Y-151464364D02*
X106383312Y-152061052D01*
X104031052Y-152061052D02*
X102450000Y-150480000D01*
X106468000Y-150919895D02*
X106980000Y-151431895D01*
X118212000Y-98000000D02*
X119290000Y-96922000D01*
X112834314Y-146600000D02*
X107900000Y-146600000D01*
X106383312Y-152061052D02*
X104031052Y-152061052D01*
X113334314Y-146100000D02*
X112834314Y-146600000D01*
%TO.N,/GPIO1_26*%
X107668000Y-97668000D02*
X111500000Y-101500000D01*
X134530000Y-95240000D02*
X133052000Y-96718000D01*
X133052000Y-96718000D02*
X133052000Y-142022000D01*
X133052000Y-142022000D02*
X134530000Y-143500000D01*
X134000000Y-99000000D02*
X133768001Y-98768001D01*
X109328105Y-91000000D02*
X107668000Y-92660105D01*
X133768001Y-98768001D02*
X133768001Y-96001999D01*
X107668000Y-92660105D02*
X107668000Y-97668000D01*
X133768001Y-96001999D02*
X134530000Y-95240000D01*
X109500000Y-91000000D02*
X109328105Y-91000000D01*
D18*
%TO.N,/GPIO1_14*%
X111209394Y-94128000D02*
X111841394Y-94128000D01*
X113098000Y-92902000D02*
X113098000Y-90902000D01*
X111841394Y-94128000D02*
X111525394Y-93812000D01*
X113098000Y-90902000D02*
X113500000Y-90500000D01*
X130878000Y-142388000D02*
X131990000Y-143500000D01*
X111500000Y-99500000D02*
X112000000Y-99000000D01*
X112188000Y-93812000D02*
X113098000Y-92902000D01*
X112000000Y-96352000D02*
X111209394Y-96352000D01*
X130878000Y-96352000D02*
X130878000Y-142388000D01*
X111525394Y-93812000D02*
X112188000Y-93812000D01*
X110558000Y-94779394D02*
X111209394Y-94128000D01*
X131990000Y-95240000D02*
X130878000Y-96352000D01*
X111209394Y-96352000D02*
X110558000Y-95700606D01*
X112000000Y-99000000D02*
X112000000Y-96352000D01*
X110558000Y-95700606D02*
X110558000Y-94779394D01*
X130365000Y-96865000D02*
X131990000Y-95240000D01*
%TO.N,/CAN_L*%
X92278000Y-150468000D02*
X92290000Y-150480000D01*
X94000000Y-81730000D02*
X92278000Y-83452000D01*
X92278000Y-83452000D02*
X92278000Y-150468000D01*
D17*
%TO.N,/3V3*%
X113800000Y-147100000D02*
X106700000Y-154200000D01*
X91450000Y-151450000D02*
X91692000Y-151692000D01*
X111000000Y-77000000D02*
X94351522Y-77000000D01*
X92570000Y-82311472D02*
X90500000Y-84381472D01*
D19*
X111100000Y-123100000D02*
X111100000Y-139800000D01*
D17*
X90500000Y-150500000D02*
X91450000Y-151450000D01*
X103803234Y-152611052D02*
X106611130Y-152611052D01*
X124480000Y-79190000D02*
X124480000Y-81947500D01*
X102884182Y-151692000D02*
X103803234Y-152611052D01*
X94351522Y-77000000D02*
X92570000Y-78781522D01*
X94200000Y-154200000D02*
X91450000Y-151450000D01*
X90500000Y-84381472D02*
X90500000Y-150500000D01*
X127032500Y-84500000D02*
X127032500Y-87040000D01*
X107530000Y-151692182D02*
X107530000Y-150480000D01*
D19*
X110608000Y-145492000D02*
X110600000Y-145500000D01*
X110608000Y-140292000D02*
X110608000Y-145492000D01*
D17*
X92570000Y-78781522D02*
X92570000Y-82311472D01*
X106700000Y-154200000D02*
X94200000Y-154200000D01*
X106611130Y-152611052D02*
X107530000Y-151692182D01*
X124480000Y-81947500D02*
X127032500Y-84500000D01*
D19*
X110600000Y-145500000D02*
X110600000Y-145300000D01*
D17*
X91692000Y-151692000D02*
X102884182Y-151692000D01*
D19*
X111100000Y-139800000D02*
X110608000Y-140292000D01*
D18*
%TO.N,/CAN_H*%
X97752500Y-85137057D02*
X97049557Y-85840000D01*
X96540000Y-81730000D02*
X97752500Y-82942500D01*
X97542000Y-147768000D02*
X94830000Y-150480000D01*
X94577394Y-97500000D02*
X96500000Y-97500000D01*
X97542000Y-98542000D02*
X97542000Y-147768000D01*
X96500000Y-97500000D02*
X97542000Y-98542000D01*
X92778000Y-95700606D02*
X94577394Y-97500000D01*
X95352500Y-89664894D02*
X92778000Y-92239394D01*
X92778000Y-92239394D02*
X92778000Y-95700606D01*
X95352500Y-86542943D02*
X95352500Y-89664894D01*
X97752500Y-82942500D02*
X97752500Y-85137057D01*
X96055443Y-85840000D02*
X95352500Y-86542943D01*
X97049557Y-85840000D02*
X96055443Y-85840000D01*
D19*
%TO.N,/FC_TEMP*%
X88900000Y-87900000D02*
X88900000Y-117000000D01*
%TD*%
%TA.AperFunction,Conductor*%
%TO.N,GND*%
G36*
X107927865Y-143953435D02*
G01*
X107972382Y-144004811D01*
X108032464Y-144133658D01*
X108032468Y-144133666D01*
X108159170Y-144314615D01*
X108159175Y-144314621D01*
X108315378Y-144470824D01*
X108315384Y-144470829D01*
X108496333Y-144597531D01*
X108496335Y-144597532D01*
X108496338Y-144597534D01*
X108696550Y-144690894D01*
X108909932Y-144748070D01*
X109056743Y-144760914D01*
X109129998Y-144767323D01*
X109130000Y-144767323D01*
X109130002Y-144767323D01*
X109193827Y-144761739D01*
X109350068Y-144748070D01*
X109563450Y-144690894D01*
X109763662Y-144597534D01*
X109764284Y-144597099D01*
X109812376Y-144563424D01*
X109878582Y-144541096D01*
X109946349Y-144558106D01*
X109994162Y-144609053D01*
X110007500Y-144664998D01*
X110007500Y-144909060D01*
X109987815Y-144976099D01*
X109971181Y-144996741D01*
X109970184Y-144997737D01*
X109874211Y-145150476D01*
X109814631Y-145320745D01*
X109814630Y-145320750D01*
X109794435Y-145499996D01*
X109794435Y-145500003D01*
X109814630Y-145679249D01*
X109814632Y-145679257D01*
X109868970Y-145834546D01*
X109872531Y-145904324D01*
X109837802Y-145964952D01*
X109775809Y-145997179D01*
X109751928Y-145999500D01*
X107986669Y-145999500D01*
X107986653Y-145999499D01*
X107979057Y-145999499D01*
X107820943Y-145999499D01*
X107743743Y-146020185D01*
X107668216Y-146040422D01*
X107635038Y-146059578D01*
X107635037Y-146059577D01*
X107531287Y-146119477D01*
X107531282Y-146119481D01*
X105987481Y-147663282D01*
X105987480Y-147663284D01*
X105949068Y-147729816D01*
X105908423Y-147800215D01*
X105867499Y-147952943D01*
X105867499Y-147952945D01*
X105867499Y-148121046D01*
X105867500Y-148121059D01*
X105867500Y-149315612D01*
X105847815Y-149382651D01*
X105795011Y-149428406D01*
X105725853Y-149438350D01*
X105672377Y-149417187D01*
X105623415Y-149382903D01*
X105623407Y-149382899D01*
X105423284Y-149289580D01*
X105423270Y-149289575D01*
X105209986Y-149232426D01*
X105209976Y-149232424D01*
X104990001Y-149213179D01*
X104989999Y-149213179D01*
X104770023Y-149232424D01*
X104770013Y-149232426D01*
X104556729Y-149289575D01*
X104556720Y-149289579D01*
X104356590Y-149382901D01*
X104291811Y-149428258D01*
X104962553Y-150099000D01*
X104939840Y-150099000D01*
X104842939Y-150124964D01*
X104756060Y-150175124D01*
X104685124Y-150246060D01*
X104634964Y-150332939D01*
X104609000Y-150429840D01*
X104609000Y-150452553D01*
X103938258Y-149781811D01*
X103892901Y-149846590D01*
X103832658Y-149975781D01*
X103786485Y-150028220D01*
X103719292Y-150047372D01*
X103652411Y-150027156D01*
X103607894Y-149975781D01*
X103547534Y-149846340D01*
X103547533Y-149846338D01*
X103420827Y-149665381D01*
X103363362Y-149607916D01*
X103264620Y-149509174D01*
X103264616Y-149509171D01*
X103264615Y-149509170D01*
X103083666Y-149382468D01*
X103083662Y-149382466D01*
X103083660Y-149382465D01*
X102883450Y-149289106D01*
X102883447Y-149289105D01*
X102883445Y-149289104D01*
X102670070Y-149231930D01*
X102670062Y-149231929D01*
X102450002Y-149212677D01*
X102449998Y-149212677D01*
X102229937Y-149231929D01*
X102229929Y-149231930D01*
X102016554Y-149289104D01*
X102016548Y-149289107D01*
X101816340Y-149382465D01*
X101816338Y-149382466D01*
X101635377Y-149509175D01*
X101479175Y-149665377D01*
X101352466Y-149846338D01*
X101352465Y-149846340D01*
X101292382Y-149975189D01*
X101246209Y-150027628D01*
X101179016Y-150046780D01*
X101112135Y-150026564D01*
X101067618Y-149975189D01*
X101007534Y-149846340D01*
X101007533Y-149846338D01*
X100880827Y-149665381D01*
X100823362Y-149607916D01*
X100724620Y-149509174D01*
X100724616Y-149509171D01*
X100724615Y-149509170D01*
X100543666Y-149382468D01*
X100543662Y-149382466D01*
X100543660Y-149382465D01*
X100343450Y-149289106D01*
X100343447Y-149289105D01*
X100343445Y-149289104D01*
X100130070Y-149231930D01*
X100130062Y-149231929D01*
X99910002Y-149212677D01*
X99909998Y-149212677D01*
X99689937Y-149231929D01*
X99689929Y-149231930D01*
X99476554Y-149289104D01*
X99476548Y-149289107D01*
X99276340Y-149382465D01*
X99276338Y-149382466D01*
X99095377Y-149509175D01*
X98939175Y-149665377D01*
X98812466Y-149846338D01*
X98812465Y-149846340D01*
X98752382Y-149975189D01*
X98706209Y-150027628D01*
X98639016Y-150046780D01*
X98572135Y-150026564D01*
X98527618Y-149975189D01*
X98467534Y-149846340D01*
X98467533Y-149846338D01*
X98340827Y-149665381D01*
X98283362Y-149607916D01*
X98184620Y-149509174D01*
X98184616Y-149509171D01*
X98184615Y-149509170D01*
X98003666Y-149382468D01*
X98003662Y-149382466D01*
X98003660Y-149382465D01*
X97803450Y-149289106D01*
X97803447Y-149289105D01*
X97803445Y-149289104D01*
X97590070Y-149231930D01*
X97590062Y-149231929D01*
X97370002Y-149212677D01*
X97369995Y-149212677D01*
X97322836Y-149216802D01*
X97254336Y-149203034D01*
X97204154Y-149154418D01*
X97188222Y-149086389D01*
X97211599Y-149020546D01*
X97224342Y-149005601D01*
X98047276Y-148182669D01*
X98118465Y-148076127D01*
X98167501Y-147957744D01*
X98179887Y-147895477D01*
X98188275Y-147853308D01*
X98192500Y-147832070D01*
X98192500Y-144725101D01*
X98212185Y-144658062D01*
X98264989Y-144612307D01*
X98334147Y-144602363D01*
X98368898Y-144612716D01*
X98536550Y-144690894D01*
X98749932Y-144748070D01*
X98896743Y-144760914D01*
X98969998Y-144767323D01*
X98970000Y-144767323D01*
X98970002Y-144767323D01*
X99033827Y-144761739D01*
X99190068Y-144748070D01*
X99403450Y-144690894D01*
X99603662Y-144597534D01*
X99784620Y-144470826D01*
X99940826Y-144314620D01*
X100067534Y-144133662D01*
X100127618Y-144004811D01*
X100173790Y-143952371D01*
X100240983Y-143933219D01*
X100307865Y-143953435D01*
X100352382Y-144004811D01*
X100412464Y-144133658D01*
X100412468Y-144133666D01*
X100539170Y-144314615D01*
X100539175Y-144314621D01*
X100695378Y-144470824D01*
X100695384Y-144470829D01*
X100876333Y-144597531D01*
X100876335Y-144597532D01*
X100876338Y-144597534D01*
X101076550Y-144690894D01*
X101289932Y-144748070D01*
X101436743Y-144760914D01*
X101509998Y-144767323D01*
X101510000Y-144767323D01*
X101510002Y-144767323D01*
X101573827Y-144761739D01*
X101730068Y-144748070D01*
X101943450Y-144690894D01*
X102143662Y-144597534D01*
X102324620Y-144470826D01*
X102480826Y-144314620D01*
X102607534Y-144133662D01*
X102667618Y-144004811D01*
X102713790Y-143952371D01*
X102780983Y-143933219D01*
X102847865Y-143953435D01*
X102892382Y-144004811D01*
X102952464Y-144133658D01*
X102952468Y-144133666D01*
X103079170Y-144314615D01*
X103079175Y-144314621D01*
X103235378Y-144470824D01*
X103235384Y-144470829D01*
X103416333Y-144597531D01*
X103416335Y-144597532D01*
X103416338Y-144597534D01*
X103616550Y-144690894D01*
X103829932Y-144748070D01*
X103976743Y-144760914D01*
X104049998Y-144767323D01*
X104050000Y-144767323D01*
X104050002Y-144767323D01*
X104113827Y-144761739D01*
X104270068Y-144748070D01*
X104483450Y-144690894D01*
X104683662Y-144597534D01*
X104864620Y-144470826D01*
X105020826Y-144314620D01*
X105147534Y-144133662D01*
X105207618Y-144004811D01*
X105253790Y-143952371D01*
X105320983Y-143933219D01*
X105387865Y-143953435D01*
X105432382Y-144004811D01*
X105492464Y-144133658D01*
X105492468Y-144133666D01*
X105619170Y-144314615D01*
X105619175Y-144314621D01*
X105775378Y-144470824D01*
X105775384Y-144470829D01*
X105956333Y-144597531D01*
X105956335Y-144597532D01*
X105956338Y-144597534D01*
X106156550Y-144690894D01*
X106369932Y-144748070D01*
X106516743Y-144760914D01*
X106589998Y-144767323D01*
X106590000Y-144767323D01*
X106590002Y-144767323D01*
X106653827Y-144761739D01*
X106810068Y-144748070D01*
X107023450Y-144690894D01*
X107223662Y-144597534D01*
X107404620Y-144470826D01*
X107560826Y-144314620D01*
X107687534Y-144133662D01*
X107747618Y-144004811D01*
X107793790Y-143952371D01*
X107860983Y-143933219D01*
X107927865Y-143953435D01*
G37*
%TD.AperFunction*%
%TA.AperFunction,Conductor*%
G36*
X149389000Y-141010160D02*
G01*
X149414964Y-141107061D01*
X149465124Y-141193940D01*
X149536060Y-141264876D01*
X149622939Y-141315036D01*
X149719840Y-141341000D01*
X149742553Y-141341000D01*
X149071810Y-142011740D01*
X149136589Y-142057098D01*
X149266373Y-142117618D01*
X149318812Y-142163790D01*
X149337964Y-142230984D01*
X149317748Y-142297865D01*
X149266373Y-142342382D01*
X149136590Y-142402901D01*
X149071811Y-142448258D01*
X149742553Y-143119000D01*
X149719840Y-143119000D01*
X149622939Y-143144964D01*
X149536060Y-143195124D01*
X149465124Y-143266060D01*
X149414964Y-143352939D01*
X149389000Y-143449840D01*
X149389000Y-143472553D01*
X148718258Y-142801811D01*
X148672901Y-142866590D01*
X148612658Y-142995781D01*
X148566485Y-143048220D01*
X148499292Y-143067372D01*
X148432411Y-143047156D01*
X148387894Y-142995781D01*
X148327534Y-142866340D01*
X148327533Y-142866338D01*
X148200827Y-142685381D01*
X148134950Y-142619504D01*
X148044620Y-142529174D01*
X148044616Y-142529171D01*
X148044615Y-142529170D01*
X147863666Y-142402468D01*
X147863658Y-142402464D01*
X147734811Y-142342382D01*
X147682371Y-142296210D01*
X147663219Y-142229017D01*
X147683435Y-142162135D01*
X147734811Y-142117618D01*
X147740802Y-142114824D01*
X147863662Y-142057534D01*
X148044620Y-141930826D01*
X148200826Y-141774620D01*
X148327534Y-141593662D01*
X148387894Y-141464218D01*
X148434066Y-141411779D01*
X148501259Y-141392627D01*
X148568141Y-141412843D01*
X148612658Y-141464219D01*
X148672898Y-141593405D01*
X148672901Y-141593411D01*
X148718258Y-141658187D01*
X148718259Y-141658188D01*
X149389000Y-140987447D01*
X149389000Y-141010160D01*
G37*
%TD.AperFunction*%
%TA.AperFunction,Conductor*%
G36*
X132362500Y-88370633D02*
G01*
X132575983Y-88313433D01*
X132575992Y-88313429D01*
X132790078Y-88213600D01*
X132983582Y-88078105D01*
X133150605Y-87911082D01*
X133280619Y-87725405D01*
X133335196Y-87681781D01*
X133404695Y-87674588D01*
X133467049Y-87706110D01*
X133483769Y-87725405D01*
X133614005Y-87911401D01*
X133781099Y-88078495D01*
X133849120Y-88126124D01*
X133974665Y-88214032D01*
X133974667Y-88214033D01*
X133974670Y-88214035D01*
X134188837Y-88313903D01*
X134417092Y-88375063D01*
X134605418Y-88391539D01*
X134652499Y-88395659D01*
X134652500Y-88395659D01*
X134652501Y-88395659D01*
X134691734Y-88392226D01*
X134887908Y-88375063D01*
X135116163Y-88313903D01*
X135330330Y-88214035D01*
X135523901Y-88078495D01*
X135690995Y-87911401D01*
X135820925Y-87725842D01*
X135875502Y-87682217D01*
X135945000Y-87675023D01*
X136007355Y-87706546D01*
X136024075Y-87725842D01*
X136154000Y-87911395D01*
X136154005Y-87911401D01*
X136321099Y-88078495D01*
X136389120Y-88126124D01*
X136514665Y-88214032D01*
X136514667Y-88214033D01*
X136514670Y-88214035D01*
X136728837Y-88313903D01*
X136957092Y-88375063D01*
X137145418Y-88391539D01*
X137192499Y-88395659D01*
X137192500Y-88395659D01*
X137192501Y-88395659D01*
X137231734Y-88392226D01*
X137427908Y-88375063D01*
X137656163Y-88313903D01*
X137870330Y-88214035D01*
X138063901Y-88078495D01*
X138230995Y-87911401D01*
X138360925Y-87725842D01*
X138415502Y-87682217D01*
X138485000Y-87675023D01*
X138547355Y-87706546D01*
X138564075Y-87725842D01*
X138694000Y-87911395D01*
X138694005Y-87911401D01*
X138861099Y-88078495D01*
X138929120Y-88126124D01*
X139054665Y-88214032D01*
X139054667Y-88214033D01*
X139054670Y-88214035D01*
X139268837Y-88313903D01*
X139497092Y-88375063D01*
X139685418Y-88391539D01*
X139732499Y-88395659D01*
X139732500Y-88395659D01*
X139732501Y-88395659D01*
X139771734Y-88392226D01*
X139967908Y-88375063D01*
X140196163Y-88313903D01*
X140410330Y-88214035D01*
X140603901Y-88078495D01*
X140770995Y-87911401D01*
X140900925Y-87725842D01*
X140955502Y-87682217D01*
X141025000Y-87675023D01*
X141087355Y-87706546D01*
X141104075Y-87725842D01*
X141234000Y-87911395D01*
X141234005Y-87911401D01*
X141401099Y-88078495D01*
X141469120Y-88126124D01*
X141594665Y-88214032D01*
X141594667Y-88214033D01*
X141594670Y-88214035D01*
X141808837Y-88313903D01*
X142037092Y-88375063D01*
X142225418Y-88391539D01*
X142272499Y-88395659D01*
X142272500Y-88395659D01*
X142272501Y-88395659D01*
X142311734Y-88392226D01*
X142507908Y-88375063D01*
X142736163Y-88313903D01*
X142950330Y-88214035D01*
X143143901Y-88078495D01*
X143310995Y-87911401D01*
X143440925Y-87725842D01*
X143495502Y-87682217D01*
X143565000Y-87675023D01*
X143627355Y-87706546D01*
X143644075Y-87725842D01*
X143774000Y-87911395D01*
X143774005Y-87911401D01*
X143941099Y-88078495D01*
X144009120Y-88126124D01*
X144134665Y-88214032D01*
X144134667Y-88214033D01*
X144134670Y-88214035D01*
X144348837Y-88313903D01*
X144577092Y-88375063D01*
X144765418Y-88391539D01*
X144812499Y-88395659D01*
X144812500Y-88395659D01*
X144812501Y-88395659D01*
X144851734Y-88392226D01*
X145047908Y-88375063D01*
X145276163Y-88313903D01*
X145490330Y-88214035D01*
X145683901Y-88078495D01*
X145850995Y-87911401D01*
X145980925Y-87725842D01*
X146035502Y-87682217D01*
X146105000Y-87675023D01*
X146167355Y-87706546D01*
X146184075Y-87725842D01*
X146314000Y-87911395D01*
X146314005Y-87911401D01*
X146481099Y-88078495D01*
X146549120Y-88126124D01*
X146674665Y-88214032D01*
X146674667Y-88214033D01*
X146674670Y-88214035D01*
X146888837Y-88313903D01*
X147117092Y-88375063D01*
X147305418Y-88391539D01*
X147352499Y-88395659D01*
X147352500Y-88395659D01*
X147352501Y-88395659D01*
X147391734Y-88392226D01*
X147587908Y-88375063D01*
X147693407Y-88346795D01*
X147763257Y-88348458D01*
X147821119Y-88387621D01*
X147848623Y-88451849D01*
X147849500Y-88466570D01*
X147849500Y-91401221D01*
X147829815Y-91468260D01*
X147777011Y-91514015D01*
X147707853Y-91523959D01*
X147673100Y-91513605D01*
X147663457Y-91509109D01*
X147663445Y-91509104D01*
X147450070Y-91451930D01*
X147450062Y-91451929D01*
X147230002Y-91432677D01*
X147229998Y-91432677D01*
X147009937Y-91451929D01*
X147009929Y-91451930D01*
X146796554Y-91509104D01*
X146796548Y-91509107D01*
X146596340Y-91602465D01*
X146596338Y-91602466D01*
X146415377Y-91729175D01*
X146259175Y-91885377D01*
X146132466Y-92066338D01*
X146132465Y-92066340D01*
X146072382Y-92195189D01*
X146026209Y-92247628D01*
X145959016Y-92266780D01*
X145892135Y-92246564D01*
X145847618Y-92195189D01*
X145787534Y-92066340D01*
X145787533Y-92066338D01*
X145660827Y-91885381D01*
X145591561Y-91816115D01*
X145504620Y-91729174D01*
X145504616Y-91729171D01*
X145504615Y-91729170D01*
X145323666Y-91602468D01*
X145323662Y-91602466D01*
X145291095Y-91587280D01*
X145123450Y-91509106D01*
X145123447Y-91509105D01*
X145123445Y-91509104D01*
X144910070Y-91451930D01*
X144910062Y-91451929D01*
X144690002Y-91432677D01*
X144689997Y-91432677D01*
X144558213Y-91444205D01*
X144489713Y-91430438D01*
X144459726Y-91408358D01*
X142968421Y-89917052D01*
X142968414Y-89917046D01*
X142875011Y-89854637D01*
X142875010Y-89854637D01*
X142845500Y-89834919D01*
X142845488Y-89834912D01*
X142708917Y-89778343D01*
X142708907Y-89778340D01*
X142563920Y-89749500D01*
X142563918Y-89749500D01*
X127227493Y-89749500D01*
X127160454Y-89729815D01*
X127114699Y-89677011D01*
X127104755Y-89607853D01*
X127133780Y-89544297D01*
X127158602Y-89522398D01*
X127184226Y-89505277D01*
X128574900Y-88114602D01*
X128636219Y-88081120D01*
X128705910Y-88086104D01*
X128733701Y-88100711D01*
X128894921Y-88213600D01*
X129109007Y-88313429D01*
X129109016Y-88313433D01*
X129322500Y-88370634D01*
X129322500Y-87473012D01*
X129379507Y-87505925D01*
X129506674Y-87540000D01*
X129638326Y-87540000D01*
X129765493Y-87505925D01*
X129822500Y-87473012D01*
X129822500Y-88370633D01*
X130035983Y-88313433D01*
X130035992Y-88313429D01*
X130250078Y-88213600D01*
X130443582Y-88078105D01*
X130610605Y-87911082D01*
X130740925Y-87724968D01*
X130795502Y-87681344D01*
X130865001Y-87674151D01*
X130927355Y-87705673D01*
X130944075Y-87724968D01*
X131074394Y-87911082D01*
X131241417Y-88078105D01*
X131434921Y-88213600D01*
X131649007Y-88313429D01*
X131649016Y-88313433D01*
X131862500Y-88370634D01*
X131862500Y-87473012D01*
X131919507Y-87505925D01*
X132046674Y-87540000D01*
X132178326Y-87540000D01*
X132305493Y-87505925D01*
X132362500Y-87473012D01*
X132362500Y-88370633D01*
G37*
%TD.AperFunction*%
%TA.AperFunction,Conductor*%
G36*
X131646575Y-86847007D02*
G01*
X131612500Y-86974174D01*
X131612500Y-87105826D01*
X131646575Y-87232993D01*
X131679488Y-87290000D01*
X130005512Y-87290000D01*
X130038425Y-87232993D01*
X130072500Y-87105826D01*
X130072500Y-86974174D01*
X130038425Y-86847007D01*
X130005512Y-86790000D01*
X131679488Y-86790000D01*
X131646575Y-86847007D01*
G37*
%TD.AperFunction*%
%TA.AperFunction,Conductor*%
G36*
X129822500Y-86606988D02*
G01*
X129765493Y-86574075D01*
X129638326Y-86540000D01*
X129506674Y-86540000D01*
X129379507Y-86574075D01*
X129322500Y-86606988D01*
X129322500Y-84933012D01*
X129379507Y-84965925D01*
X129506674Y-85000000D01*
X129638326Y-85000000D01*
X129765493Y-84965925D01*
X129822500Y-84933012D01*
X129822500Y-86606988D01*
G37*
%TD.AperFunction*%
%TA.AperFunction,Conductor*%
G36*
X132362500Y-86606988D02*
G01*
X132305493Y-86574075D01*
X132178326Y-86540000D01*
X132046674Y-86540000D01*
X131919507Y-86574075D01*
X131862500Y-86606988D01*
X131862500Y-84933012D01*
X131919507Y-84965925D01*
X132046674Y-85000000D01*
X132178326Y-85000000D01*
X132305493Y-84965925D01*
X132362500Y-84933012D01*
X132362500Y-86606988D01*
G37*
%TD.AperFunction*%
%TA.AperFunction,Conductor*%
G36*
X130927355Y-85165673D02*
G01*
X130944075Y-85184968D01*
X131074394Y-85371082D01*
X131241417Y-85538105D01*
X131427531Y-85668425D01*
X131471156Y-85723003D01*
X131478348Y-85792501D01*
X131446826Y-85854856D01*
X131427531Y-85871575D01*
X131241422Y-86001890D01*
X131241420Y-86001891D01*
X131074391Y-86168920D01*
X131074390Y-86168922D01*
X130944075Y-86355031D01*
X130889498Y-86398655D01*
X130819999Y-86405848D01*
X130757645Y-86374326D01*
X130740925Y-86355031D01*
X130610609Y-86168922D01*
X130610608Y-86168920D01*
X130443582Y-86001894D01*
X130257468Y-85871575D01*
X130213844Y-85816998D01*
X130206651Y-85747499D01*
X130238173Y-85685145D01*
X130257468Y-85668425D01*
X130443582Y-85538105D01*
X130610605Y-85371082D01*
X130740925Y-85184968D01*
X130795502Y-85141344D01*
X130865001Y-85134151D01*
X130927355Y-85165673D01*
G37*
%TD.AperFunction*%
%TA.AperFunction,Conductor*%
G36*
X131646575Y-84307007D02*
G01*
X131612500Y-84434174D01*
X131612500Y-84565826D01*
X131646575Y-84692993D01*
X131679488Y-84750000D01*
X130005512Y-84750000D01*
X130038425Y-84692993D01*
X130072500Y-84565826D01*
X130072500Y-84434174D01*
X130038425Y-84307007D01*
X130005512Y-84250000D01*
X131679488Y-84250000D01*
X131646575Y-84307007D01*
G37*
%TD.AperFunction*%
%TA.AperFunction,Conductor*%
G36*
X85027671Y-74600510D02*
G01*
X85090312Y-74601286D01*
X85103573Y-74600500D01*
X165134108Y-74600500D01*
X165197177Y-74600500D01*
X165202827Y-74600628D01*
X165604022Y-74618931D01*
X165615272Y-74619959D01*
X166010336Y-74674328D01*
X166021441Y-74676376D01*
X166409932Y-74766492D01*
X166420788Y-74769538D01*
X166713308Y-74866188D01*
X166799454Y-74894651D01*
X166810010Y-74898681D01*
X167175712Y-75057750D01*
X167185845Y-75062720D01*
X167535530Y-75254416D01*
X167545176Y-75260291D01*
X167875970Y-75483041D01*
X167885047Y-75489774D01*
X168194165Y-75741699D01*
X168202591Y-75749230D01*
X168487499Y-76028263D01*
X168495201Y-76036527D01*
X168748906Y-76334916D01*
X168753520Y-76340342D01*
X168760437Y-76349272D01*
X168808157Y-76417048D01*
X168990025Y-76675352D01*
X168996102Y-76684877D01*
X169195043Y-77030498D01*
X169200224Y-77040530D01*
X169366871Y-77402830D01*
X169371121Y-77413301D01*
X169504089Y-77789265D01*
X169507368Y-77800081D01*
X169605553Y-78186594D01*
X169607833Y-78197663D01*
X169670416Y-78591492D01*
X169671680Y-78602723D01*
X169698142Y-79000548D01*
X169698415Y-79008774D01*
X169698647Y-85640701D01*
X169699311Y-104629816D01*
X169699539Y-111125496D01*
X169679857Y-111192536D01*
X169627054Y-111238293D01*
X169575539Y-111249500D01*
X149684108Y-111249500D01*
X149556812Y-111283608D01*
X149442686Y-111349500D01*
X149442683Y-111349502D01*
X149349502Y-111442683D01*
X149349500Y-111442686D01*
X149283608Y-111556812D01*
X149249500Y-111684108D01*
X149249500Y-129565891D01*
X149283608Y-129693187D01*
X149316554Y-129750250D01*
X149349500Y-129807314D01*
X149442686Y-129900500D01*
X149556814Y-129966392D01*
X149684108Y-130000500D01*
X163625500Y-130000500D01*
X163692539Y-130020185D01*
X163738294Y-130072989D01*
X163749500Y-130124500D01*
X163749500Y-145565892D01*
X163763857Y-145619475D01*
X163783608Y-145693187D01*
X163784249Y-145694297D01*
X163849500Y-145807314D01*
X163942686Y-145900500D01*
X164056814Y-145966392D01*
X164184108Y-146000500D01*
X164315892Y-146000500D01*
X169622933Y-146000500D01*
X169689972Y-146020185D01*
X169735727Y-146072989D01*
X169746932Y-146125009D01*
X169669806Y-164924165D01*
X169669500Y-164928711D01*
X169669500Y-164997282D01*
X169669382Y-165002691D01*
X169652614Y-165386750D01*
X169651671Y-165397526D01*
X169601849Y-165775957D01*
X169599971Y-165786610D01*
X169517354Y-166159272D01*
X169514554Y-166169721D01*
X169399775Y-166533755D01*
X169396075Y-166543921D01*
X169250002Y-166896572D01*
X169245430Y-166906376D01*
X169069183Y-167244942D01*
X169063775Y-167254310D01*
X168858681Y-167576244D01*
X168852476Y-167585105D01*
X168620110Y-167887930D01*
X168613156Y-167896217D01*
X168355284Y-168177635D01*
X168347635Y-168185284D01*
X168066217Y-168443156D01*
X168057930Y-168450110D01*
X167755105Y-168682476D01*
X167746244Y-168688681D01*
X167424310Y-168893775D01*
X167414942Y-168899183D01*
X167076376Y-169075430D01*
X167066572Y-169080002D01*
X166713921Y-169226075D01*
X166703755Y-169229775D01*
X166339721Y-169344554D01*
X166329272Y-169347354D01*
X165956610Y-169429971D01*
X165945957Y-169431849D01*
X165567526Y-169481671D01*
X165556750Y-169482614D01*
X165172703Y-169499382D01*
X165167294Y-169499500D01*
X135561562Y-169499500D01*
X135494523Y-169479815D01*
X135448768Y-169427011D01*
X135440272Y-169401281D01*
X135402239Y-169222352D01*
X135402238Y-169222350D01*
X135402238Y-169222348D01*
X135305053Y-168923241D01*
X135177134Y-168635932D01*
X135177131Y-168635928D01*
X135177130Y-168635924D01*
X135019887Y-168363571D01*
X135019884Y-168363566D01*
X134835032Y-168109139D01*
X134835025Y-168109130D01*
X134737214Y-168000500D01*
X134624586Y-167875414D01*
X134415061Y-167686757D01*
X134390869Y-167664974D01*
X134390860Y-167664967D01*
X134136433Y-167480115D01*
X134136428Y-167480112D01*
X133864075Y-167322869D01*
X133864068Y-167322866D01*
X133576759Y-167194947D01*
X133576754Y-167194945D01*
X133576751Y-167194944D01*
X133277649Y-167097761D01*
X133277647Y-167097760D01*
X133012415Y-167041384D01*
X132970026Y-167032374D01*
X132657250Y-166999500D01*
X132565892Y-166999500D01*
X117565892Y-166999500D01*
X117500000Y-166999500D01*
X117342750Y-166999500D01*
X117029974Y-167032374D01*
X117029970Y-167032374D01*
X117029968Y-167032375D01*
X116722352Y-167097760D01*
X116722350Y-167097761D01*
X116423248Y-167194944D01*
X116135931Y-167322866D01*
X116135924Y-167322869D01*
X115863571Y-167480112D01*
X115863566Y-167480115D01*
X115609139Y-167664967D01*
X115609130Y-167664974D01*
X115375414Y-167875414D01*
X115164974Y-168109130D01*
X115164967Y-168109139D01*
X114980115Y-168363566D01*
X114980112Y-168363571D01*
X114822869Y-168635924D01*
X114822866Y-168635931D01*
X114694944Y-168923248D01*
X114597761Y-169222350D01*
X114597760Y-169222352D01*
X114559728Y-169401281D01*
X114526535Y-169462763D01*
X114465372Y-169496539D01*
X114438438Y-169499500D01*
X85002706Y-169499500D01*
X84997297Y-169499382D01*
X84613249Y-169482614D01*
X84602473Y-169481671D01*
X84224042Y-169431849D01*
X84213389Y-169429971D01*
X83840727Y-169347354D01*
X83830278Y-169344554D01*
X83466244Y-169229775D01*
X83456078Y-169226075D01*
X83103427Y-169080002D01*
X83093623Y-169075430D01*
X82755057Y-168899183D01*
X82745689Y-168893775D01*
X82423755Y-168688681D01*
X82414894Y-168682476D01*
X82112069Y-168450110D01*
X82103782Y-168443156D01*
X81822364Y-168185284D01*
X81814715Y-168177635D01*
X81556843Y-167896217D01*
X81549889Y-167887930D01*
X81317523Y-167585105D01*
X81311318Y-167576244D01*
X81106224Y-167254310D01*
X81100816Y-167244942D01*
X80973924Y-167001185D01*
X80924566Y-166906369D01*
X80919997Y-166896572D01*
X80773924Y-166543921D01*
X80770224Y-166533755D01*
X80740716Y-166440167D01*
X80655442Y-166169710D01*
X80652648Y-166159284D01*
X80570025Y-165786597D01*
X80568152Y-165775971D01*
X80518326Y-165397506D01*
X80517386Y-165386771D01*
X80500618Y-165002702D01*
X80500500Y-164997293D01*
X80500500Y-164932972D01*
X81404422Y-164932972D01*
X81404422Y-164932973D01*
X81424722Y-165320312D01*
X81485397Y-165703400D01*
X81485397Y-165703402D01*
X81585788Y-166078067D01*
X81724787Y-166440170D01*
X81900877Y-166785766D01*
X82112122Y-167111055D01*
X82112124Y-167111057D01*
X82356219Y-167412489D01*
X82630484Y-167686754D01*
X82630488Y-167686757D01*
X82931917Y-167930850D01*
X83257206Y-168142095D01*
X83257211Y-168142098D01*
X83602806Y-168318187D01*
X83964913Y-168457187D01*
X84339567Y-168557575D01*
X84722662Y-168618251D01*
X85088576Y-168637428D01*
X85109999Y-168638551D01*
X85110000Y-168638551D01*
X85110001Y-168638551D01*
X85130301Y-168637487D01*
X85497338Y-168618251D01*
X85880433Y-168557575D01*
X86255087Y-168457187D01*
X86617194Y-168318187D01*
X86962789Y-168142098D01*
X87288084Y-167930849D01*
X87589516Y-167686754D01*
X87863781Y-167412489D01*
X88107876Y-167111057D01*
X88319125Y-166785762D01*
X88495214Y-166440167D01*
X88634214Y-166078060D01*
X88734602Y-165703406D01*
X88795278Y-165320311D01*
X88815578Y-164932973D01*
X88815578Y-164932972D01*
X161414422Y-164932972D01*
X161414422Y-164932973D01*
X161434722Y-165320312D01*
X161495397Y-165703400D01*
X161495397Y-165703402D01*
X161595788Y-166078067D01*
X161734787Y-166440170D01*
X161910877Y-166785766D01*
X162122122Y-167111055D01*
X162122124Y-167111057D01*
X162366219Y-167412489D01*
X162640484Y-167686754D01*
X162640488Y-167686757D01*
X162941917Y-167930850D01*
X163267206Y-168142095D01*
X163267211Y-168142098D01*
X163612806Y-168318187D01*
X163974913Y-168457187D01*
X164349567Y-168557575D01*
X164732662Y-168618251D01*
X165098576Y-168637428D01*
X165119999Y-168638551D01*
X165120000Y-168638551D01*
X165120001Y-168638551D01*
X165140301Y-168637487D01*
X165507338Y-168618251D01*
X165890433Y-168557575D01*
X166265087Y-168457187D01*
X166627194Y-168318187D01*
X166972789Y-168142098D01*
X167298084Y-167930849D01*
X167599516Y-167686754D01*
X167873781Y-167412489D01*
X168117876Y-167111057D01*
X168329125Y-166785762D01*
X168505214Y-166440167D01*
X168644214Y-166078060D01*
X168744602Y-165703406D01*
X168805278Y-165320311D01*
X168825578Y-164932973D01*
X168805278Y-164545635D01*
X168744602Y-164162540D01*
X168644214Y-163787886D01*
X168505214Y-163425779D01*
X168329125Y-163080184D01*
X168117876Y-162754889D01*
X167873781Y-162453457D01*
X167599516Y-162179192D01*
X167298084Y-161935097D01*
X167298082Y-161935095D01*
X166972793Y-161723850D01*
X166627197Y-161547760D01*
X166265094Y-161408761D01*
X166265087Y-161408759D01*
X165890433Y-161308371D01*
X165890429Y-161308370D01*
X165890428Y-161308370D01*
X165507339Y-161247695D01*
X165120001Y-161227395D01*
X165119999Y-161227395D01*
X164732660Y-161247695D01*
X164349572Y-161308370D01*
X164349570Y-161308370D01*
X163974905Y-161408761D01*
X163612802Y-161547760D01*
X163267206Y-161723850D01*
X162941917Y-161935095D01*
X162640488Y-162179188D01*
X162640480Y-162179195D01*
X162366222Y-162453453D01*
X162366215Y-162453461D01*
X162122122Y-162754890D01*
X161910877Y-163080179D01*
X161734787Y-163425775D01*
X161595788Y-163787878D01*
X161495397Y-164162543D01*
X161495397Y-164162545D01*
X161434722Y-164545633D01*
X161414422Y-164932972D01*
X88815578Y-164932972D01*
X88795278Y-164545635D01*
X88734602Y-164162540D01*
X88634214Y-163787886D01*
X88495214Y-163425779D01*
X88319125Y-163080184D01*
X88107876Y-162754889D01*
X87863781Y-162453457D01*
X87589516Y-162179192D01*
X87288084Y-161935097D01*
X87288082Y-161935095D01*
X86962793Y-161723850D01*
X86617197Y-161547760D01*
X86255094Y-161408761D01*
X86255087Y-161408759D01*
X85880433Y-161308371D01*
X85880429Y-161308370D01*
X85880428Y-161308370D01*
X85497339Y-161247695D01*
X85110001Y-161227395D01*
X85109999Y-161227395D01*
X84722660Y-161247695D01*
X84339572Y-161308370D01*
X84339570Y-161308370D01*
X83964905Y-161408761D01*
X83602802Y-161547760D01*
X83257206Y-161723850D01*
X82931917Y-161935095D01*
X82630488Y-162179188D01*
X82630480Y-162179195D01*
X82356222Y-162453453D01*
X82356215Y-162453461D01*
X82112122Y-162754890D01*
X81900877Y-163080179D01*
X81724787Y-163425775D01*
X81585788Y-163787878D01*
X81485397Y-164162543D01*
X81485397Y-164162545D01*
X81424722Y-164545633D01*
X81404422Y-164932972D01*
X80500500Y-164932972D01*
X80500500Y-132561561D01*
X80520185Y-132494522D01*
X80572989Y-132448767D01*
X80598719Y-132440271D01*
X80777652Y-132402238D01*
X81076759Y-132305053D01*
X81364068Y-132177134D01*
X81636432Y-132019885D01*
X81890867Y-131835027D01*
X82124586Y-131624586D01*
X82335027Y-131390867D01*
X82519885Y-131136432D01*
X82677134Y-130864068D01*
X82805053Y-130576759D01*
X82902238Y-130277652D01*
X82967626Y-129970026D01*
X83000500Y-129657250D01*
X83000500Y-129500000D01*
X83000500Y-129434108D01*
X83000500Y-114434108D01*
X83000500Y-114342750D01*
X82967626Y-114029974D01*
X82902238Y-113722348D01*
X82805053Y-113423241D01*
X82677134Y-113135932D01*
X82677131Y-113135928D01*
X82677130Y-113135924D01*
X82519887Y-112863571D01*
X82519884Y-112863566D01*
X82335032Y-112609139D01*
X82335025Y-112609130D01*
X82237157Y-112500437D01*
X82124586Y-112375414D01*
X81921938Y-112192949D01*
X81890869Y-112164974D01*
X81890860Y-112164967D01*
X81636433Y-111980115D01*
X81636428Y-111980112D01*
X81364075Y-111822869D01*
X81364068Y-111822866D01*
X81348404Y-111815892D01*
X81076759Y-111694947D01*
X81076754Y-111694945D01*
X81076751Y-111694944D01*
X80777649Y-111597761D01*
X80777647Y-111597760D01*
X80599254Y-111559842D01*
X80537772Y-111526649D01*
X80503996Y-111465486D01*
X80501035Y-111438442D01*
X80531822Y-79202972D01*
X85214422Y-79202972D01*
X85214422Y-79202973D01*
X85234722Y-79590312D01*
X85295397Y-79973400D01*
X85295398Y-79973406D01*
X85362692Y-80224553D01*
X85395788Y-80348067D01*
X85534787Y-80710170D01*
X85710877Y-81055766D01*
X85922122Y-81381055D01*
X85922124Y-81381057D01*
X86166219Y-81682489D01*
X86440484Y-81956754D01*
X86608375Y-82092710D01*
X86741917Y-82200850D01*
X87067206Y-82412095D01*
X87067211Y-82412098D01*
X87412806Y-82588187D01*
X87774913Y-82727187D01*
X88149567Y-82827575D01*
X88532662Y-82888251D01*
X88898576Y-82907428D01*
X88919999Y-82908551D01*
X88920000Y-82908551D01*
X88920001Y-82908551D01*
X88940301Y-82907487D01*
X89307338Y-82888251D01*
X89690433Y-82827575D01*
X90065087Y-82727187D01*
X90427194Y-82588187D01*
X90772789Y-82412098D01*
X91098084Y-82200849D01*
X91399516Y-81956754D01*
X91607819Y-81748451D01*
X91669142Y-81714966D01*
X91738834Y-81719950D01*
X91794767Y-81761822D01*
X91819184Y-81827286D01*
X91819500Y-81836132D01*
X91819500Y-81949242D01*
X91799815Y-82016281D01*
X91783181Y-82036923D01*
X89917047Y-83903056D01*
X89917045Y-83903058D01*
X89880822Y-83957274D01*
X89880820Y-83957277D01*
X89834919Y-84025971D01*
X89834912Y-84025983D01*
X89778343Y-84162554D01*
X89778340Y-84162564D01*
X89749500Y-84307551D01*
X89749500Y-87318841D01*
X89729815Y-87385880D01*
X89677011Y-87431635D01*
X89607853Y-87441579D01*
X89544297Y-87412554D01*
X89534770Y-87402631D01*
X89534740Y-87402662D01*
X89402262Y-87270184D01*
X89249523Y-87174211D01*
X89079254Y-87114631D01*
X89079249Y-87114630D01*
X88900004Y-87094435D01*
X88899996Y-87094435D01*
X88720750Y-87114630D01*
X88720745Y-87114631D01*
X88550476Y-87174211D01*
X88397737Y-87270184D01*
X88270184Y-87397737D01*
X88174211Y-87550476D01*
X88114631Y-87720745D01*
X88114630Y-87720750D01*
X88094435Y-87899996D01*
X88094435Y-87900003D01*
X88114630Y-88079249D01*
X88114631Y-88079254D01*
X88174211Y-88249523D01*
X88218951Y-88320725D01*
X88266374Y-88396199D01*
X88270185Y-88402263D01*
X88272445Y-88405097D01*
X88273334Y-88407275D01*
X88273889Y-88408158D01*
X88273734Y-88408255D01*
X88298855Y-88469783D01*
X88299500Y-88482412D01*
X88299500Y-116417587D01*
X88279815Y-116484626D01*
X88272450Y-116494896D01*
X88270186Y-116497734D01*
X88174211Y-116650476D01*
X88114631Y-116820745D01*
X88114630Y-116820750D01*
X88094435Y-116999996D01*
X88094435Y-117000003D01*
X88114630Y-117179249D01*
X88114631Y-117179254D01*
X88174211Y-117349523D01*
X88244166Y-117460855D01*
X88270184Y-117502262D01*
X88397738Y-117629816D01*
X88550478Y-117725789D01*
X88720745Y-117785368D01*
X88720750Y-117785369D01*
X88899996Y-117805565D01*
X88900000Y-117805565D01*
X88900004Y-117805565D01*
X89079249Y-117785369D01*
X89079252Y-117785368D01*
X89079255Y-117785368D01*
X89249522Y-117725789D01*
X89402262Y-117629816D01*
X89529816Y-117502262D01*
X89529816Y-117502261D01*
X89534740Y-117497338D01*
X89536011Y-117498609D01*
X89585740Y-117463705D01*
X89655552Y-117460855D01*
X89715822Y-117496200D01*
X89747416Y-117558518D01*
X89749500Y-117581158D01*
X89749500Y-150573918D01*
X89749500Y-150573920D01*
X89749499Y-150573920D01*
X89778340Y-150718907D01*
X89778343Y-150718917D01*
X89834914Y-150855492D01*
X89853072Y-150882667D01*
X89853073Y-150882670D01*
X89917046Y-150978414D01*
X89917052Y-150978421D01*
X90399184Y-151460552D01*
X90867048Y-151928416D01*
X93617049Y-154678416D01*
X93721583Y-154782950D01*
X93721585Y-154782952D01*
X93844498Y-154865080D01*
X93844511Y-154865087D01*
X93981082Y-154921656D01*
X93981087Y-154921658D01*
X93981091Y-154921658D01*
X93981092Y-154921659D01*
X94126079Y-154950500D01*
X94126082Y-154950500D01*
X106773920Y-154950500D01*
X106877906Y-154929815D01*
X106918913Y-154921658D01*
X107055495Y-154865084D01*
X107104729Y-154832186D01*
X107178416Y-154782952D01*
X111574677Y-150386688D01*
X111635998Y-150353205D01*
X111705690Y-150358189D01*
X111761623Y-150400061D01*
X111782129Y-150442273D01*
X111783261Y-150446496D01*
X111831375Y-150549676D01*
X111879431Y-150652732D01*
X111879432Y-150652734D01*
X112009954Y-150839141D01*
X112170858Y-151000045D01*
X112170861Y-151000047D01*
X112357266Y-151130568D01*
X112563504Y-151226739D01*
X112783308Y-151285635D01*
X112945230Y-151299801D01*
X113009998Y-151305468D01*
X113010000Y-151305468D01*
X113010002Y-151305468D01*
X113066673Y-151300509D01*
X113236692Y-151285635D01*
X113456496Y-151226739D01*
X113662734Y-151130568D01*
X113849139Y-151000047D01*
X114010047Y-150839139D01*
X114140568Y-150652734D01*
X114236739Y-150446496D01*
X114295635Y-150226692D01*
X114315468Y-150000000D01*
X114315468Y-149999998D01*
X121864532Y-149999998D01*
X121864532Y-150000001D01*
X121884364Y-150226686D01*
X121884366Y-150226697D01*
X121943258Y-150446488D01*
X121943261Y-150446497D01*
X122039431Y-150652732D01*
X122039432Y-150652734D01*
X122169954Y-150839141D01*
X122330858Y-151000045D01*
X122330861Y-151000047D01*
X122517266Y-151130568D01*
X122723504Y-151226739D01*
X122943308Y-151285635D01*
X123105230Y-151299801D01*
X123169998Y-151305468D01*
X123170000Y-151305468D01*
X123170002Y-151305468D01*
X123226673Y-151300509D01*
X123396692Y-151285635D01*
X123616496Y-151226739D01*
X123822734Y-151130568D01*
X124009139Y-151000047D01*
X124170047Y-150839139D01*
X124300568Y-150652734D01*
X124396739Y-150446496D01*
X124455635Y-150226692D01*
X124475468Y-150000000D01*
X124475468Y-149999998D01*
X125204532Y-149999998D01*
X125204532Y-150000001D01*
X125224364Y-150226686D01*
X125224366Y-150226697D01*
X125283258Y-150446488D01*
X125283261Y-150446497D01*
X125379431Y-150652732D01*
X125379432Y-150652734D01*
X125509954Y-150839141D01*
X125670858Y-151000045D01*
X125670861Y-151000047D01*
X125857266Y-151130568D01*
X126063504Y-151226739D01*
X126283308Y-151285635D01*
X126445230Y-151299801D01*
X126509998Y-151305468D01*
X126510000Y-151305468D01*
X126510002Y-151305468D01*
X126566673Y-151300509D01*
X126736692Y-151285635D01*
X126956496Y-151226739D01*
X127162734Y-151130568D01*
X127349139Y-151000047D01*
X127510047Y-150839139D01*
X127640568Y-150652734D01*
X127736739Y-150446496D01*
X127795635Y-150226692D01*
X127815468Y-150000000D01*
X127795635Y-149773308D01*
X127737754Y-149557293D01*
X127736741Y-149553511D01*
X127736738Y-149553502D01*
X127716067Y-149509174D01*
X127640568Y-149347266D01*
X127510047Y-149160861D01*
X127510045Y-149160858D01*
X127349141Y-148999954D01*
X127162734Y-148869432D01*
X127162732Y-148869431D01*
X126956497Y-148773261D01*
X126956488Y-148773258D01*
X126736697Y-148714366D01*
X126736693Y-148714365D01*
X126736692Y-148714365D01*
X126736691Y-148714364D01*
X126736686Y-148714364D01*
X126510002Y-148694532D01*
X126509998Y-148694532D01*
X126283313Y-148714364D01*
X126283302Y-148714366D01*
X126063511Y-148773258D01*
X126063502Y-148773261D01*
X125857267Y-148869431D01*
X125857265Y-148869432D01*
X125670858Y-148999954D01*
X125509954Y-149160858D01*
X125379432Y-149347265D01*
X125379431Y-149347267D01*
X125283261Y-149553502D01*
X125283258Y-149553511D01*
X125224366Y-149773302D01*
X125224364Y-149773313D01*
X125204532Y-149999998D01*
X124475468Y-149999998D01*
X124455635Y-149773308D01*
X124397754Y-149557293D01*
X124396741Y-149553511D01*
X124396738Y-149553502D01*
X124376067Y-149509174D01*
X124300568Y-149347266D01*
X124170047Y-149160861D01*
X124170045Y-149160858D01*
X124009141Y-148999954D01*
X123822734Y-148869432D01*
X123822732Y-148869431D01*
X123616497Y-148773261D01*
X123616488Y-148773258D01*
X123396697Y-148714366D01*
X123396693Y-148714365D01*
X123396692Y-148714365D01*
X123396691Y-148714364D01*
X123396686Y-148714364D01*
X123170002Y-148694532D01*
X123169998Y-148694532D01*
X122943313Y-148714364D01*
X122943302Y-148714366D01*
X122723511Y-148773258D01*
X122723502Y-148773261D01*
X122517267Y-148869431D01*
X122517265Y-148869432D01*
X122330858Y-148999954D01*
X122169954Y-149160858D01*
X122039432Y-149347265D01*
X122039431Y-149347267D01*
X121943261Y-149553502D01*
X121943258Y-149553511D01*
X121884366Y-149773302D01*
X121884364Y-149773313D01*
X121864532Y-149999998D01*
X114315468Y-149999998D01*
X114295635Y-149773308D01*
X114237754Y-149557293D01*
X114236741Y-149553511D01*
X114236738Y-149553502D01*
X114216067Y-149509174D01*
X114140568Y-149347266D01*
X114010047Y-149160861D01*
X114010045Y-149160858D01*
X113849141Y-148999954D01*
X113662734Y-148869432D01*
X113662732Y-148869431D01*
X113577778Y-148829816D01*
X113456496Y-148773261D01*
X113456493Y-148773260D01*
X113452273Y-148772129D01*
X113392614Y-148735762D01*
X113362087Y-148672914D01*
X113370385Y-148603539D01*
X113396687Y-148564678D01*
X114108059Y-147853306D01*
X114144132Y-147830657D01*
X114143244Y-147828813D01*
X114149515Y-147825792D01*
X114149516Y-147825790D01*
X114149522Y-147825789D01*
X114302262Y-147729816D01*
X114429816Y-147602262D01*
X114525789Y-147449522D01*
X114585368Y-147279255D01*
X114590150Y-147236819D01*
X114593102Y-147210617D01*
X114620168Y-147146203D01*
X114677763Y-147106648D01*
X114716322Y-147100500D01*
X118743331Y-147100500D01*
X118743347Y-147100501D01*
X118750943Y-147100501D01*
X118909054Y-147100501D01*
X118909057Y-147100501D01*
X119061785Y-147059577D01*
X119119798Y-147026083D01*
X119198716Y-146980520D01*
X119310520Y-146868716D01*
X119310520Y-146868714D01*
X119320724Y-146858511D01*
X119320728Y-146858506D01*
X121418321Y-144760912D01*
X121479642Y-144727429D01*
X121538095Y-144728821D01*
X121609924Y-144748068D01*
X121609925Y-144748068D01*
X121609932Y-144748070D01*
X121797226Y-144764455D01*
X121829998Y-144767323D01*
X121830000Y-144767323D01*
X121830002Y-144767323D01*
X121893827Y-144761739D01*
X122050068Y-144748070D01*
X122263450Y-144690894D01*
X122463662Y-144597534D01*
X122644620Y-144470826D01*
X122800826Y-144314620D01*
X122927534Y-144133662D01*
X122987618Y-144004811D01*
X123033790Y-143952371D01*
X123100983Y-143933219D01*
X123167865Y-143953435D01*
X123212382Y-144004811D01*
X123272464Y-144133658D01*
X123272468Y-144133666D01*
X123399170Y-144314615D01*
X123399175Y-144314621D01*
X123555378Y-144470824D01*
X123555384Y-144470829D01*
X123736333Y-144597531D01*
X123736335Y-144597532D01*
X123736338Y-144597534D01*
X123936550Y-144690894D01*
X124149932Y-144748070D01*
X124296743Y-144760914D01*
X124369998Y-144767323D01*
X124370000Y-144767323D01*
X124370002Y-144767323D01*
X124433827Y-144761739D01*
X124590068Y-144748070D01*
X124803450Y-144690894D01*
X125003662Y-144597534D01*
X125184620Y-144470826D01*
X125340826Y-144314620D01*
X125467534Y-144133662D01*
X125527618Y-144004811D01*
X125573790Y-143952371D01*
X125640983Y-143933219D01*
X125707865Y-143953435D01*
X125752382Y-144004811D01*
X125812464Y-144133658D01*
X125812468Y-144133666D01*
X125939170Y-144314615D01*
X125939175Y-144314621D01*
X126095378Y-144470824D01*
X126095384Y-144470829D01*
X126276333Y-144597531D01*
X126276335Y-144597532D01*
X126276338Y-144597534D01*
X126476550Y-144690894D01*
X126689932Y-144748070D01*
X126836743Y-144760914D01*
X126909998Y-144767323D01*
X126910000Y-144767323D01*
X126910002Y-144767323D01*
X126973827Y-144761739D01*
X127130068Y-144748070D01*
X127343450Y-144690894D01*
X127543662Y-144597534D01*
X127724620Y-144470826D01*
X127880826Y-144314620D01*
X128007534Y-144133662D01*
X128010573Y-144127142D01*
X128056744Y-144074705D01*
X128123938Y-144055553D01*
X128186103Y-144074342D01*
X128186503Y-144073595D01*
X128190241Y-144075593D01*
X128190819Y-144075768D01*
X128191805Y-144076419D01*
X128191873Y-144076465D01*
X128310256Y-144125501D01*
X128310257Y-144125501D01*
X128310259Y-144125502D01*
X128315595Y-144127121D01*
X128374032Y-144165420D01*
X128381170Y-144174656D01*
X128479174Y-144314620D01*
X128479175Y-144314621D01*
X128635378Y-144470824D01*
X128635384Y-144470829D01*
X128816333Y-144597531D01*
X128816335Y-144597532D01*
X128816338Y-144597534D01*
X129016550Y-144690894D01*
X129229932Y-144748070D01*
X129376743Y-144760914D01*
X129449998Y-144767323D01*
X129450000Y-144767323D01*
X129450002Y-144767323D01*
X129513827Y-144761739D01*
X129670068Y-144748070D01*
X129883450Y-144690894D01*
X130083662Y-144597534D01*
X130264620Y-144470826D01*
X130420826Y-144314620D01*
X130547534Y-144133662D01*
X130607618Y-144004811D01*
X130653790Y-143952371D01*
X130720983Y-143933219D01*
X130787865Y-143953435D01*
X130832382Y-144004811D01*
X130892464Y-144133658D01*
X130892468Y-144133666D01*
X131019170Y-144314615D01*
X131019175Y-144314621D01*
X131175378Y-144470824D01*
X131175384Y-144470829D01*
X131356333Y-144597531D01*
X131356335Y-144597532D01*
X131356338Y-144597534D01*
X131556550Y-144690894D01*
X131769932Y-144748070D01*
X131916743Y-144760914D01*
X131989998Y-144767323D01*
X131990000Y-144767323D01*
X131990002Y-144767323D01*
X132053827Y-144761739D01*
X132210068Y-144748070D01*
X132423450Y-144690894D01*
X132623662Y-144597534D01*
X132804620Y-144470826D01*
X132960826Y-144314620D01*
X133087534Y-144133662D01*
X133147618Y-144004811D01*
X133193790Y-143952371D01*
X133260983Y-143933219D01*
X133327865Y-143953435D01*
X133372382Y-144004811D01*
X133432464Y-144133658D01*
X133432468Y-144133666D01*
X133559170Y-144314615D01*
X133559175Y-144314621D01*
X133715378Y-144470824D01*
X133715384Y-144470829D01*
X133896333Y-144597531D01*
X133896335Y-144597532D01*
X133896338Y-144597534D01*
X134096550Y-144690894D01*
X134309932Y-144748070D01*
X134456743Y-144760914D01*
X134529998Y-144767323D01*
X134530000Y-144767323D01*
X134530002Y-144767323D01*
X134593827Y-144761739D01*
X134750068Y-144748070D01*
X134851407Y-144720916D01*
X134921255Y-144722578D01*
X134979118Y-144761739D01*
X135006623Y-144825968D01*
X135007500Y-144840690D01*
X135007500Y-148851330D01*
X135007499Y-148851348D01*
X135007499Y-149017054D01*
X135007498Y-149017054D01*
X135007499Y-149017057D01*
X135044305Y-149154418D01*
X135048424Y-149169787D01*
X135067014Y-149201985D01*
X135067015Y-149201988D01*
X135127475Y-149306709D01*
X135127481Y-149306717D01*
X135246349Y-149425585D01*
X135246355Y-149425590D01*
X135378058Y-149557293D01*
X135411543Y-149618616D01*
X135410152Y-149677067D01*
X135384366Y-149773302D01*
X135384364Y-149773313D01*
X135364532Y-149999998D01*
X135364532Y-150000001D01*
X135384364Y-150226686D01*
X135384366Y-150226697D01*
X135443258Y-150446488D01*
X135443261Y-150446497D01*
X135539431Y-150652732D01*
X135539432Y-150652734D01*
X135669954Y-150839141D01*
X135830858Y-151000045D01*
X135830861Y-151000047D01*
X136017266Y-151130568D01*
X136223504Y-151226739D01*
X136443308Y-151285635D01*
X136605230Y-151299801D01*
X136669998Y-151305468D01*
X136670000Y-151305468D01*
X136670002Y-151305468D01*
X136726673Y-151300509D01*
X136896692Y-151285635D01*
X137116496Y-151226739D01*
X137322734Y-151130568D01*
X137509139Y-151000047D01*
X137670047Y-150839139D01*
X137800568Y-150652734D01*
X137896739Y-150446496D01*
X137955635Y-150226692D01*
X137975468Y-150000000D01*
X137955635Y-149773308D01*
X137897754Y-149557293D01*
X137896741Y-149553511D01*
X137896738Y-149553502D01*
X137876067Y-149509174D01*
X137800568Y-149347266D01*
X137670047Y-149160861D01*
X137670045Y-149160858D01*
X137509141Y-148999954D01*
X137322734Y-148869432D01*
X137322732Y-148869431D01*
X137116497Y-148773261D01*
X137116488Y-148773258D01*
X136896697Y-148714366D01*
X136896693Y-148714365D01*
X136896692Y-148714365D01*
X136896691Y-148714364D01*
X136896686Y-148714364D01*
X136670002Y-148694532D01*
X136669998Y-148694532D01*
X136443313Y-148714364D01*
X136443302Y-148714366D01*
X136364593Y-148735456D01*
X136294743Y-148733793D01*
X136236881Y-148694630D01*
X136209377Y-148630401D01*
X136208500Y-148615681D01*
X136208500Y-144676202D01*
X136228185Y-144609163D01*
X136280989Y-144563408D01*
X136350147Y-144553464D01*
X136403623Y-144574627D01*
X136436333Y-144597531D01*
X136436335Y-144597532D01*
X136436338Y-144597534D01*
X136636550Y-144690894D01*
X136849932Y-144748070D01*
X136996743Y-144760914D01*
X137069998Y-144767323D01*
X137070000Y-144767323D01*
X137070002Y-144767323D01*
X137133827Y-144761739D01*
X137290068Y-144748070D01*
X137503450Y-144690894D01*
X137703662Y-144597534D01*
X137884620Y-144470826D01*
X138040826Y-144314620D01*
X138167534Y-144133662D01*
X138227618Y-144004811D01*
X138273790Y-143952371D01*
X138340983Y-143933219D01*
X138407865Y-143953435D01*
X138452382Y-144004811D01*
X138512464Y-144133658D01*
X138512468Y-144133666D01*
X138639170Y-144314615D01*
X138639175Y-144314621D01*
X138795378Y-144470824D01*
X138795384Y-144470829D01*
X138813399Y-144483443D01*
X138956623Y-144583729D01*
X139000248Y-144638306D01*
X139009500Y-144685304D01*
X139009500Y-153717587D01*
X138989815Y-153784626D01*
X138982450Y-153794896D01*
X138980186Y-153797734D01*
X138884211Y-153950476D01*
X138824631Y-154120745D01*
X138824630Y-154120750D01*
X138804435Y-154299996D01*
X138804435Y-154300003D01*
X138824630Y-154479249D01*
X138824631Y-154479254D01*
X138884211Y-154649523D01*
X138902366Y-154678416D01*
X138980184Y-154802262D01*
X139107738Y-154929816D01*
X139260478Y-155025789D01*
X139430745Y-155085368D01*
X139430750Y-155085369D01*
X139609996Y-155105565D01*
X139610000Y-155105565D01*
X139610004Y-155105565D01*
X139789249Y-155085369D01*
X139789252Y-155085368D01*
X139789255Y-155085368D01*
X139959522Y-155025789D01*
X140112262Y-154929816D01*
X140239816Y-154802262D01*
X140335789Y-154649522D01*
X140395368Y-154479255D01*
X140415565Y-154300000D01*
X140395368Y-154120745D01*
X140335789Y-153950478D01*
X140239816Y-153797738D01*
X140239814Y-153797736D01*
X140239813Y-153797734D01*
X140237550Y-153794896D01*
X140236659Y-153792715D01*
X140236111Y-153791842D01*
X140236264Y-153791745D01*
X140211144Y-153730209D01*
X140210500Y-153717587D01*
X140210500Y-149086562D01*
X140230185Y-149019523D01*
X140282989Y-148973768D01*
X140352147Y-148963824D01*
X140375455Y-148969521D01*
X140420737Y-148985366D01*
X140420743Y-148985367D01*
X140420745Y-148985368D01*
X140420746Y-148985368D01*
X140420750Y-148985369D01*
X140599996Y-149005565D01*
X140600000Y-149005565D01*
X140600004Y-149005565D01*
X140779249Y-148985369D01*
X140779252Y-148985368D01*
X140779255Y-148985368D01*
X140949522Y-148925789D01*
X141102262Y-148829816D01*
X141229816Y-148702262D01*
X141325789Y-148549522D01*
X141385368Y-148379255D01*
X141385369Y-148379249D01*
X141405565Y-148200003D01*
X141405565Y-148199996D01*
X141385368Y-148020746D01*
X141385368Y-148020745D01*
X141379458Y-148003853D01*
X141372500Y-147962900D01*
X141372500Y-144725101D01*
X141392185Y-144658062D01*
X141444989Y-144612307D01*
X141514147Y-144602363D01*
X141548898Y-144612716D01*
X141716550Y-144690894D01*
X141929932Y-144748070D01*
X142076743Y-144760914D01*
X142149998Y-144767323D01*
X142150000Y-144767323D01*
X142150002Y-144767323D01*
X142213827Y-144761739D01*
X142370068Y-144748070D01*
X142583450Y-144690894D01*
X142783662Y-144597534D01*
X142964620Y-144470826D01*
X143120826Y-144314620D01*
X143247534Y-144133662D01*
X143307618Y-144004811D01*
X143353790Y-143952371D01*
X143420983Y-143933219D01*
X143487865Y-143953435D01*
X143532382Y-144004811D01*
X143592464Y-144133658D01*
X143592468Y-144133666D01*
X143719170Y-144314615D01*
X143719174Y-144314620D01*
X143875380Y-144470826D01*
X143886620Y-144478696D01*
X143930247Y-144533271D01*
X143939500Y-144580273D01*
X143939500Y-150528606D01*
X143932542Y-150569561D01*
X143914631Y-150620745D01*
X143914630Y-150620750D01*
X143894435Y-150799996D01*
X143894435Y-150800003D01*
X143914630Y-150979249D01*
X143914631Y-150979254D01*
X143974211Y-151149523D01*
X144061606Y-151288611D01*
X144070184Y-151302262D01*
X144197738Y-151429816D01*
X144350478Y-151525789D01*
X144520745Y-151585368D01*
X144520750Y-151585369D01*
X144699996Y-151605565D01*
X144700000Y-151605565D01*
X144700004Y-151605565D01*
X144879249Y-151585369D01*
X144879252Y-151585368D01*
X144879255Y-151585368D01*
X145049522Y-151525789D01*
X145202262Y-151429816D01*
X145329816Y-151302262D01*
X145425789Y-151149522D01*
X145485368Y-150979255D01*
X145489622Y-150941500D01*
X145505565Y-150800003D01*
X145505565Y-150799996D01*
X145485369Y-150620750D01*
X145485367Y-150620742D01*
X145447458Y-150512403D01*
X145440500Y-150471449D01*
X145440500Y-144580273D01*
X145460185Y-144513234D01*
X145493380Y-144478696D01*
X145504620Y-144470826D01*
X145660826Y-144314620D01*
X145787534Y-144133662D01*
X145847618Y-144004811D01*
X145893790Y-143952371D01*
X145960983Y-143933219D01*
X146027865Y-143953435D01*
X146072382Y-144004811D01*
X146132464Y-144133658D01*
X146132468Y-144133666D01*
X146259170Y-144314615D01*
X146259175Y-144314621D01*
X146415378Y-144470824D01*
X146415384Y-144470829D01*
X146596333Y-144597531D01*
X146596335Y-144597532D01*
X146596338Y-144597534D01*
X146796550Y-144690894D01*
X147009932Y-144748070D01*
X147156743Y-144760914D01*
X147229998Y-144767323D01*
X147230000Y-144767323D01*
X147230002Y-144767323D01*
X147293827Y-144761739D01*
X147450068Y-144748070D01*
X147663450Y-144690894D01*
X147863662Y-144597534D01*
X148044620Y-144470826D01*
X148200826Y-144314620D01*
X148327534Y-144133662D01*
X148387894Y-144004218D01*
X148434066Y-143951779D01*
X148501259Y-143932627D01*
X148568141Y-143952843D01*
X148612658Y-144004219D01*
X148672898Y-144133405D01*
X148672901Y-144133411D01*
X148718258Y-144198187D01*
X148718259Y-144198188D01*
X149389000Y-143527447D01*
X149389000Y-143550160D01*
X149414964Y-143647061D01*
X149465124Y-143733940D01*
X149536060Y-143804876D01*
X149622939Y-143855036D01*
X149719840Y-143881000D01*
X149742553Y-143881000D01*
X149071810Y-144551740D01*
X149136590Y-144597099D01*
X149136592Y-144597100D01*
X149336715Y-144690419D01*
X149336729Y-144690424D01*
X149550013Y-144747573D01*
X149550023Y-144747575D01*
X149769999Y-144766821D01*
X149770001Y-144766821D01*
X149989976Y-144747575D01*
X149989986Y-144747573D01*
X150203270Y-144690424D01*
X150203284Y-144690419D01*
X150403407Y-144597100D01*
X150403417Y-144597094D01*
X150468188Y-144551741D01*
X149797448Y-143881000D01*
X149820160Y-143881000D01*
X149917061Y-143855036D01*
X150003940Y-143804876D01*
X150074876Y-143733940D01*
X150125036Y-143647061D01*
X150151000Y-143550160D01*
X150151000Y-143527447D01*
X150821741Y-144198188D01*
X150867094Y-144133417D01*
X150867100Y-144133407D01*
X150960419Y-143933284D01*
X150960424Y-143933270D01*
X151017573Y-143719986D01*
X151017575Y-143719976D01*
X151036821Y-143500000D01*
X151036821Y-143499999D01*
X151017575Y-143280023D01*
X151017573Y-143280013D01*
X150960424Y-143066729D01*
X150960420Y-143066720D01*
X150867096Y-142866586D01*
X150821741Y-142801811D01*
X150821740Y-142801810D01*
X150151000Y-143472551D01*
X150151000Y-143449840D01*
X150125036Y-143352939D01*
X150074876Y-143266060D01*
X150003940Y-143195124D01*
X149917061Y-143144964D01*
X149820160Y-143119000D01*
X149797448Y-143119000D01*
X150468188Y-142448259D01*
X150468187Y-142448258D01*
X150403411Y-142402901D01*
X150403405Y-142402898D01*
X150273627Y-142342382D01*
X150221187Y-142296210D01*
X150202035Y-142229017D01*
X150222251Y-142162135D01*
X150273627Y-142117618D01*
X150403407Y-142057100D01*
X150403417Y-142057094D01*
X150468188Y-142011741D01*
X149797448Y-141341000D01*
X149820160Y-141341000D01*
X149917061Y-141315036D01*
X150003940Y-141264876D01*
X150074876Y-141193940D01*
X150125036Y-141107061D01*
X150151000Y-141010160D01*
X150151000Y-140987447D01*
X150821741Y-141658188D01*
X150867094Y-141593417D01*
X150867100Y-141593407D01*
X150960419Y-141393284D01*
X150960424Y-141393270D01*
X151017573Y-141179986D01*
X151017575Y-141179976D01*
X151036821Y-140960000D01*
X151036821Y-140959999D01*
X151017575Y-140740023D01*
X151017573Y-140740013D01*
X150960424Y-140526729D01*
X150960420Y-140526720D01*
X150867096Y-140326586D01*
X150821741Y-140261811D01*
X150821740Y-140261810D01*
X150151000Y-140932551D01*
X150151000Y-140909840D01*
X150125036Y-140812939D01*
X150074876Y-140726060D01*
X150003940Y-140655124D01*
X149917061Y-140604964D01*
X149820160Y-140579000D01*
X149797448Y-140579000D01*
X150468188Y-139908259D01*
X150468187Y-139908258D01*
X150403411Y-139862901D01*
X150403405Y-139862898D01*
X150203284Y-139769580D01*
X150203270Y-139769575D01*
X149989986Y-139712426D01*
X149989976Y-139712424D01*
X149770001Y-139693179D01*
X149769999Y-139693179D01*
X149550023Y-139712424D01*
X149550013Y-139712426D01*
X149336729Y-139769575D01*
X149336720Y-139769579D01*
X149136590Y-139862901D01*
X149071811Y-139908258D01*
X149742553Y-140579000D01*
X149719840Y-140579000D01*
X149622939Y-140604964D01*
X149536060Y-140655124D01*
X149465124Y-140726060D01*
X149414964Y-140812939D01*
X149389000Y-140909840D01*
X149389000Y-140932553D01*
X148718258Y-140261811D01*
X148672901Y-140326590D01*
X148612658Y-140455781D01*
X148566485Y-140508220D01*
X148499292Y-140527372D01*
X148432411Y-140507156D01*
X148387894Y-140455781D01*
X148327534Y-140326340D01*
X148327533Y-140326338D01*
X148200827Y-140145381D01*
X148135661Y-140080215D01*
X148044620Y-139989174D01*
X148044616Y-139989171D01*
X148044615Y-139989170D01*
X147863666Y-139862468D01*
X147863662Y-139862466D01*
X147797212Y-139831480D01*
X147663450Y-139769106D01*
X147663447Y-139769105D01*
X147663445Y-139769104D01*
X147450070Y-139711930D01*
X147450062Y-139711929D01*
X147230002Y-139692677D01*
X147229998Y-139692677D01*
X147009937Y-139711929D01*
X147009929Y-139711930D01*
X146796554Y-139769104D01*
X146796548Y-139769107D01*
X146596340Y-139862465D01*
X146596338Y-139862466D01*
X146415377Y-139989175D01*
X146259175Y-140145377D01*
X146132466Y-140326338D01*
X146132465Y-140326340D01*
X146072382Y-140455189D01*
X146026209Y-140507628D01*
X145959016Y-140526780D01*
X145892135Y-140506564D01*
X145847618Y-140455189D01*
X145787534Y-140326340D01*
X145787533Y-140326338D01*
X145660827Y-140145381D01*
X145595661Y-140080215D01*
X145504620Y-139989174D01*
X145504616Y-139989171D01*
X145504610Y-139989166D01*
X145493375Y-139981299D01*
X145449751Y-139926722D01*
X145440500Y-139879726D01*
X145440500Y-96320273D01*
X145460185Y-96253234D01*
X145493380Y-96218696D01*
X145504620Y-96210826D01*
X145660826Y-96054620D01*
X145787534Y-95873662D01*
X145847618Y-95744811D01*
X145893790Y-95692371D01*
X145960983Y-95673219D01*
X146027865Y-95693435D01*
X146072382Y-95744811D01*
X146132464Y-95873658D01*
X146132468Y-95873666D01*
X146259170Y-96054615D01*
X146259175Y-96054621D01*
X146415378Y-96210824D01*
X146415384Y-96210829D01*
X146596333Y-96337531D01*
X146596335Y-96337532D01*
X146596338Y-96337534D01*
X146796550Y-96430894D01*
X147009932Y-96488070D01*
X147166173Y-96501739D01*
X147229998Y-96507323D01*
X147230000Y-96507323D01*
X147230002Y-96507323D01*
X147293827Y-96501739D01*
X147450068Y-96488070D01*
X147663450Y-96430894D01*
X147863662Y-96337534D01*
X148044620Y-96210826D01*
X148200826Y-96054620D01*
X148327534Y-95873662D01*
X148387894Y-95744218D01*
X148434066Y-95691779D01*
X148501259Y-95672627D01*
X148568141Y-95692843D01*
X148612658Y-95744219D01*
X148672898Y-95873405D01*
X148672901Y-95873411D01*
X148718258Y-95938187D01*
X148718258Y-95938188D01*
X149389000Y-95267446D01*
X149389000Y-95290160D01*
X149414964Y-95387061D01*
X149465124Y-95473940D01*
X149536060Y-95544876D01*
X149622939Y-95595036D01*
X149719840Y-95621000D01*
X149742551Y-95621000D01*
X149071810Y-96291740D01*
X149136590Y-96337099D01*
X149136592Y-96337100D01*
X149336715Y-96430419D01*
X149336729Y-96430424D01*
X149550013Y-96487573D01*
X149550023Y-96487575D01*
X149769999Y-96506821D01*
X149770001Y-96506821D01*
X149989976Y-96487575D01*
X149989986Y-96487573D01*
X150203270Y-96430424D01*
X150203284Y-96430419D01*
X150403407Y-96337100D01*
X150403417Y-96337094D01*
X150486876Y-96278656D01*
X150553082Y-96256328D01*
X150620849Y-96273338D01*
X150668663Y-96324285D01*
X150682000Y-96380230D01*
X150682000Y-97195830D01*
X150681999Y-97195848D01*
X150681999Y-97203443D01*
X150681999Y-97361557D01*
X150684311Y-97370184D01*
X150695662Y-97412551D01*
X150699107Y-97458519D01*
X150694435Y-97499999D01*
X150694435Y-97500003D01*
X150714630Y-97679249D01*
X150714631Y-97679254D01*
X150774211Y-97849523D01*
X150826336Y-97932479D01*
X150870184Y-98002262D01*
X150997738Y-98129816D01*
X151037008Y-98154491D01*
X151132721Y-98214632D01*
X151150478Y-98225789D01*
X151288857Y-98274210D01*
X151320745Y-98285368D01*
X151320750Y-98285369D01*
X151499996Y-98305565D01*
X151500000Y-98305565D01*
X151500004Y-98305565D01*
X151679249Y-98285369D01*
X151679252Y-98285368D01*
X151679255Y-98285368D01*
X151849522Y-98225789D01*
X152002262Y-98129816D01*
X152129816Y-98002262D01*
X152225789Y-97849522D01*
X152285368Y-97679255D01*
X152288479Y-97651643D01*
X152305565Y-97500003D01*
X152305565Y-97499996D01*
X152285369Y-97320750D01*
X152285368Y-97320745D01*
X152257365Y-97240716D01*
X152225789Y-97150478D01*
X152129816Y-96997738D01*
X152002262Y-96870184D01*
X152002260Y-96870182D01*
X152002258Y-96870181D01*
X151941027Y-96831706D01*
X151894736Y-96779371D01*
X151883000Y-96726713D01*
X151883000Y-88452503D01*
X151902685Y-88385464D01*
X151955489Y-88339709D01*
X152024647Y-88329765D01*
X152039093Y-88332728D01*
X152054675Y-88336903D01*
X152197092Y-88375063D01*
X152385418Y-88391539D01*
X152432499Y-88395659D01*
X152432500Y-88395659D01*
X152432501Y-88395659D01*
X152471734Y-88392226D01*
X152667908Y-88375063D01*
X152896163Y-88313903D01*
X153110330Y-88214035D01*
X153303901Y-88078495D01*
X153470995Y-87911401D01*
X153600925Y-87725842D01*
X153655502Y-87682217D01*
X153725000Y-87675023D01*
X153787355Y-87706546D01*
X153804075Y-87725842D01*
X153934000Y-87911395D01*
X153934005Y-87911401D01*
X154101099Y-88078495D01*
X154169120Y-88126124D01*
X154294665Y-88214032D01*
X154294667Y-88214033D01*
X154294670Y-88214035D01*
X154508837Y-88313903D01*
X154737092Y-88375063D01*
X154925418Y-88391539D01*
X154972499Y-88395659D01*
X154972500Y-88395659D01*
X154972501Y-88395659D01*
X155011734Y-88392226D01*
X155207908Y-88375063D01*
X155436163Y-88313903D01*
X155650330Y-88214035D01*
X155843901Y-88078495D01*
X156010995Y-87911401D01*
X156140925Y-87725842D01*
X156195502Y-87682217D01*
X156265000Y-87675023D01*
X156327355Y-87706546D01*
X156344075Y-87725842D01*
X156474000Y-87911395D01*
X156474005Y-87911401D01*
X156641099Y-88078495D01*
X156709120Y-88126124D01*
X156834665Y-88214032D01*
X156834667Y-88214033D01*
X156834670Y-88214035D01*
X157048837Y-88313903D01*
X157277092Y-88375063D01*
X157465418Y-88391539D01*
X157512499Y-88395659D01*
X157512500Y-88395659D01*
X157512501Y-88395659D01*
X157551734Y-88392226D01*
X157747908Y-88375063D01*
X157976163Y-88313903D01*
X158190330Y-88214035D01*
X158383901Y-88078495D01*
X158550995Y-87911401D01*
X158686535Y-87717830D01*
X158786403Y-87503663D01*
X158847563Y-87275408D01*
X158868159Y-87040000D01*
X158847563Y-86804592D01*
X158786403Y-86576337D01*
X158686535Y-86362171D01*
X158681231Y-86354595D01*
X158550994Y-86168597D01*
X158383902Y-86001506D01*
X158383896Y-86001501D01*
X158198342Y-85871575D01*
X158154717Y-85816998D01*
X158147523Y-85747500D01*
X158179046Y-85685145D01*
X158198342Y-85668425D01*
X158310554Y-85589853D01*
X158383901Y-85538495D01*
X158550995Y-85371401D01*
X158686535Y-85177830D01*
X158786403Y-84963663D01*
X158847563Y-84735408D01*
X158868159Y-84500000D01*
X158867593Y-84493536D01*
X158851322Y-84307554D01*
X158847563Y-84264592D01*
X158786403Y-84036337D01*
X158686535Y-83822171D01*
X158680925Y-83814158D01*
X158550994Y-83628597D01*
X158383902Y-83461506D01*
X158383895Y-83461501D01*
X158190334Y-83325967D01*
X158190330Y-83325965D01*
X158182874Y-83322488D01*
X157986577Y-83230953D01*
X157934139Y-83184782D01*
X157914987Y-83117588D01*
X157935203Y-83050707D01*
X157986576Y-83006191D01*
X158177830Y-82917008D01*
X158371401Y-82781468D01*
X158538495Y-82614374D01*
X158674035Y-82420803D01*
X158773903Y-82206636D01*
X158835063Y-81978381D01*
X158855659Y-81742973D01*
X158835063Y-81507565D01*
X158773903Y-81279310D01*
X158674035Y-81065144D01*
X158668425Y-81057131D01*
X158538494Y-80871570D01*
X158371402Y-80704479D01*
X158371396Y-80704474D01*
X158185842Y-80574548D01*
X158142217Y-80519971D01*
X158135023Y-80450473D01*
X158166546Y-80388118D01*
X158185842Y-80371398D01*
X158298054Y-80292826D01*
X158371401Y-80241468D01*
X158538495Y-80074374D01*
X158674035Y-79880803D01*
X158701705Y-79821463D01*
X158747877Y-79769024D01*
X158815070Y-79749872D01*
X158881951Y-79770087D01*
X158927286Y-79823252D01*
X158936560Y-79854470D01*
X158955397Y-79973400D01*
X158955398Y-79973406D01*
X159022692Y-80224553D01*
X159055788Y-80348067D01*
X159194787Y-80710170D01*
X159370877Y-81055766D01*
X159582122Y-81381055D01*
X159582124Y-81381057D01*
X159826219Y-81682489D01*
X160100484Y-81956754D01*
X160268375Y-82092710D01*
X160401917Y-82200850D01*
X160727206Y-82412095D01*
X160727211Y-82412098D01*
X161072806Y-82588187D01*
X161434913Y-82727187D01*
X161809567Y-82827575D01*
X162192662Y-82888251D01*
X162558576Y-82907428D01*
X162579999Y-82908551D01*
X162580000Y-82908551D01*
X162580001Y-82908551D01*
X162600301Y-82907487D01*
X162967338Y-82888251D01*
X163350433Y-82827575D01*
X163725087Y-82727187D01*
X164087194Y-82588187D01*
X164432789Y-82412098D01*
X164758084Y-82200849D01*
X165059516Y-81956754D01*
X165333781Y-81682489D01*
X165577876Y-81381057D01*
X165789125Y-81055762D01*
X165965214Y-80710167D01*
X166104214Y-80348060D01*
X166204602Y-79973406D01*
X166265278Y-79590311D01*
X166285578Y-79202973D01*
X166265278Y-78815635D01*
X166204602Y-78432540D01*
X166104214Y-78057886D01*
X166099968Y-78046826D01*
X166068232Y-77964149D01*
X165965214Y-77695779D01*
X165789125Y-77350184D01*
X165788695Y-77349522D01*
X165577877Y-77024890D01*
X165408665Y-76815931D01*
X165333781Y-76723457D01*
X165059516Y-76449192D01*
X165019823Y-76417049D01*
X164758082Y-76205095D01*
X164432793Y-75993850D01*
X164087197Y-75817760D01*
X163725094Y-75678761D01*
X163725087Y-75678759D01*
X163350433Y-75578371D01*
X163350429Y-75578370D01*
X163350428Y-75578370D01*
X162967339Y-75517695D01*
X162580001Y-75497395D01*
X162579999Y-75497395D01*
X162192660Y-75517695D01*
X161809572Y-75578370D01*
X161809570Y-75578370D01*
X161434905Y-75678761D01*
X161072802Y-75817760D01*
X160727206Y-75993850D01*
X160401917Y-76205095D01*
X160100488Y-76449188D01*
X160100480Y-76449195D01*
X159826222Y-76723453D01*
X159826215Y-76723461D01*
X159582122Y-77024890D01*
X159370877Y-77350179D01*
X159194787Y-77695775D01*
X159055788Y-78057878D01*
X158955397Y-78432543D01*
X158955397Y-78432545D01*
X158936560Y-78551475D01*
X158906630Y-78614610D01*
X158847319Y-78651541D01*
X158777456Y-78650543D01*
X158719224Y-78611933D01*
X158701705Y-78584482D01*
X158674035Y-78525144D01*
X158674034Y-78525142D01*
X158538494Y-78331570D01*
X158371402Y-78164479D01*
X158371395Y-78164474D01*
X158177834Y-78028940D01*
X158177830Y-78028938D01*
X158137906Y-78010321D01*
X157963663Y-77929070D01*
X157963659Y-77929069D01*
X157963655Y-77929067D01*
X157735413Y-77867911D01*
X157735403Y-77867909D01*
X157500001Y-77847314D01*
X157499999Y-77847314D01*
X157264596Y-77867909D01*
X157264586Y-77867911D01*
X157036344Y-77929067D01*
X157036335Y-77929071D01*
X156822171Y-78028937D01*
X156822169Y-78028938D01*
X156628597Y-78164478D01*
X156461505Y-78331570D01*
X156331575Y-78517131D01*
X156276998Y-78560756D01*
X156207500Y-78567950D01*
X156145145Y-78536427D01*
X156128425Y-78517131D01*
X155998494Y-78331570D01*
X155831402Y-78164479D01*
X155831395Y-78164474D01*
X155637834Y-78028940D01*
X155637830Y-78028938D01*
X155597906Y-78010321D01*
X155423663Y-77929070D01*
X155423659Y-77929069D01*
X155423655Y-77929067D01*
X155195413Y-77867911D01*
X155195403Y-77867909D01*
X154960001Y-77847314D01*
X154959999Y-77847314D01*
X154724596Y-77867909D01*
X154724586Y-77867911D01*
X154496344Y-77929067D01*
X154496335Y-77929071D01*
X154282171Y-78028937D01*
X154282169Y-78028938D01*
X154088597Y-78164478D01*
X153921505Y-78331570D01*
X153791575Y-78517131D01*
X153736998Y-78560756D01*
X153667500Y-78567950D01*
X153605145Y-78536427D01*
X153588425Y-78517131D01*
X153458494Y-78331570D01*
X153291402Y-78164479D01*
X153291395Y-78164474D01*
X153097834Y-78028940D01*
X153097830Y-78028938D01*
X153057906Y-78010321D01*
X152883663Y-77929070D01*
X152883659Y-77929069D01*
X152883655Y-77929067D01*
X152655413Y-77867911D01*
X152655403Y-77867909D01*
X152420001Y-77847314D01*
X152419999Y-77847314D01*
X152184596Y-77867909D01*
X152184586Y-77867911D01*
X151956344Y-77929067D01*
X151956335Y-77929071D01*
X151742171Y-78028937D01*
X151742169Y-78028938D01*
X151548597Y-78164478D01*
X151381505Y-78331570D01*
X151251575Y-78517131D01*
X151196998Y-78560756D01*
X151127500Y-78567950D01*
X151065145Y-78536427D01*
X151048425Y-78517131D01*
X150918494Y-78331570D01*
X150751402Y-78164479D01*
X150751401Y-78164478D01*
X150654860Y-78096879D01*
X150583376Y-78046825D01*
X150539751Y-77992248D01*
X150530500Y-77945250D01*
X150530500Y-76815928D01*
X150505502Y-76690261D01*
X150505501Y-76690260D01*
X150505501Y-76690256D01*
X150456465Y-76571873D01*
X150456464Y-76571872D01*
X150456461Y-76571866D01*
X150385277Y-76465332D01*
X150362980Y-76443035D01*
X150294669Y-76374724D01*
X150230201Y-76310256D01*
X149914674Y-75994727D01*
X149914673Y-75994726D01*
X149913359Y-75993848D01*
X149808127Y-75923535D01*
X149808122Y-75923533D01*
X149689744Y-75874499D01*
X149689738Y-75874497D01*
X149564071Y-75849500D01*
X149564069Y-75849500D01*
X125408874Y-75849500D01*
X125408872Y-75849500D01*
X125283204Y-75874497D01*
X125283198Y-75874499D01*
X125184287Y-75915470D01*
X125164820Y-75923533D01*
X125164812Y-75923537D01*
X125058269Y-75994726D01*
X125058268Y-75994727D01*
X122930332Y-78122664D01*
X122869009Y-78156149D01*
X122799317Y-78151165D01*
X122771528Y-78136558D01*
X122617834Y-78028940D01*
X122617830Y-78028938D01*
X122577906Y-78010321D01*
X122403663Y-77929070D01*
X122403660Y-77929069D01*
X122403649Y-77929064D01*
X122402661Y-77928704D01*
X122402286Y-77928428D01*
X122398756Y-77926782D01*
X122399087Y-77926071D01*
X122346402Y-77887271D01*
X122321475Y-77821999D01*
X122335793Y-77753612D01*
X122379111Y-77707196D01*
X122502262Y-77629816D01*
X122629816Y-77502262D01*
X122725789Y-77349522D01*
X122785368Y-77179255D01*
X122788373Y-77152584D01*
X122805565Y-77000003D01*
X122805565Y-76999996D01*
X122785369Y-76820750D01*
X122785368Y-76820745D01*
X122751162Y-76722989D01*
X122725789Y-76650478D01*
X122716809Y-76636187D01*
X122629815Y-76497737D01*
X122502262Y-76370184D01*
X122349523Y-76274211D01*
X122179254Y-76214631D01*
X122179249Y-76214630D01*
X122000004Y-76194435D01*
X121999996Y-76194435D01*
X121820750Y-76214630D01*
X121820737Y-76214633D01*
X121650481Y-76274209D01*
X121650477Y-76274210D01*
X121560904Y-76330494D01*
X121494932Y-76349500D01*
X119416322Y-76349500D01*
X119349283Y-76329815D01*
X119303528Y-76277011D01*
X119293102Y-76239383D01*
X119285369Y-76170750D01*
X119285368Y-76170748D01*
X119285368Y-76170745D01*
X119225789Y-76000478D01*
X119129816Y-75847738D01*
X119002262Y-75720184D01*
X118936335Y-75678759D01*
X118849521Y-75624210D01*
X118679255Y-75564632D01*
X118679246Y-75564630D01*
X118672012Y-75563815D01*
X118607600Y-75536743D01*
X118598224Y-75528277D01*
X118564673Y-75494726D01*
X118564666Y-75494721D01*
X118458127Y-75423535D01*
X118339744Y-75374499D01*
X118323340Y-75371236D01*
X118214071Y-75349500D01*
X118214069Y-75349500D01*
X113208874Y-75349500D01*
X113208872Y-75349500D01*
X113083204Y-75374497D01*
X113083194Y-75374500D01*
X113034163Y-75394810D01*
X112964824Y-75423530D01*
X112964806Y-75423540D01*
X112858275Y-75494721D01*
X112858268Y-75494727D01*
X111826757Y-76526238D01*
X111765434Y-76559723D01*
X111695742Y-76554739D01*
X111639809Y-76512867D01*
X111634089Y-76504539D01*
X111629816Y-76497738D01*
X111502262Y-76370184D01*
X111446138Y-76334919D01*
X111349523Y-76274211D01*
X111179254Y-76214631D01*
X111179249Y-76214630D01*
X111000004Y-76194435D01*
X110999996Y-76194435D01*
X110820750Y-76214630D01*
X110820745Y-76214631D01*
X110740983Y-76242542D01*
X110700028Y-76249500D01*
X94277604Y-76249500D01*
X94252473Y-76254499D01*
X94252472Y-76254499D01*
X94132617Y-76278339D01*
X94132609Y-76278341D01*
X94055561Y-76310256D01*
X93996029Y-76334914D01*
X93996021Y-76334919D01*
X93943246Y-76370183D01*
X93873104Y-76417049D01*
X93873101Y-76417052D01*
X92520439Y-77769713D01*
X92459116Y-77803198D01*
X92389424Y-77798214D01*
X92333491Y-77756342D01*
X92316997Y-77726476D01*
X92305214Y-77695779D01*
X92129125Y-77350184D01*
X92128695Y-77349522D01*
X91917877Y-77024890D01*
X91748665Y-76815931D01*
X91673781Y-76723457D01*
X91399516Y-76449192D01*
X91359823Y-76417049D01*
X91098082Y-76205095D01*
X90772793Y-75993850D01*
X90427197Y-75817760D01*
X90065094Y-75678761D01*
X90065087Y-75678759D01*
X89690433Y-75578371D01*
X89690429Y-75578370D01*
X89690428Y-75578370D01*
X89307339Y-75517695D01*
X88920001Y-75497395D01*
X88919999Y-75497395D01*
X88532660Y-75517695D01*
X88149572Y-75578370D01*
X88149570Y-75578370D01*
X87774905Y-75678761D01*
X87412802Y-75817760D01*
X87067206Y-75993850D01*
X86741917Y-76205095D01*
X86440488Y-76449188D01*
X86440480Y-76449195D01*
X86166222Y-76723453D01*
X86166215Y-76723461D01*
X85922122Y-77024890D01*
X85710877Y-77350179D01*
X85534787Y-77695775D01*
X85395788Y-78057878D01*
X85295397Y-78432543D01*
X85295397Y-78432545D01*
X85234722Y-78815633D01*
X85214422Y-79202972D01*
X80531822Y-79202972D01*
X80532030Y-78984965D01*
X80532224Y-78978193D01*
X80553377Y-78601087D01*
X80554450Y-78590354D01*
X80608188Y-78217918D01*
X80610191Y-78207328D01*
X80696189Y-77840977D01*
X80699107Y-77830604D01*
X80816705Y-77473144D01*
X80820515Y-77463067D01*
X80968825Y-77117211D01*
X80973493Y-77107517D01*
X81151375Y-76775911D01*
X81156884Y-76766637D01*
X81362990Y-76451801D01*
X81369279Y-76443052D01*
X81602035Y-76147382D01*
X81609065Y-76139211D01*
X81866713Y-75864943D01*
X81874434Y-75857412D01*
X82154996Y-75606652D01*
X82163340Y-75599825D01*
X82464692Y-75374468D01*
X82473605Y-75368391D01*
X82793435Y-75170167D01*
X82802859Y-75164880D01*
X83138757Y-74995282D01*
X83148614Y-74990835D01*
X83497997Y-74851164D01*
X83508175Y-74847601D01*
X83868422Y-74738907D01*
X83878887Y-74736242D01*
X84247239Y-74659357D01*
X84257889Y-74657616D01*
X84631516Y-74613131D01*
X84642292Y-74612322D01*
X85018709Y-74600560D01*
X85022582Y-74600500D01*
X85026135Y-74600500D01*
X85027671Y-74600510D01*
G37*
%TD.AperFunction*%
%TD*%
M02*
