%TF.GenerationSoftware,KiCad,Pcbnew,8.0.2-1*%
%TF.CreationDate,2024-08-29T11:45:14-05:00*%
%TF.ProjectId,BattBoard,42617474-426f-4617-9264-2e6b69636164,rev?*%
%TF.SameCoordinates,Original*%
%TF.FileFunction,Soldermask,Top*%
%TF.FilePolarity,Negative*%
%FSLAX46Y46*%
G04 Gerber Fmt 4.6, Leading zero omitted, Abs format (unit mm)*
G04 Created by KiCad (PCBNEW 8.0.2-1) date 2024-08-29 11:45:14*
%MOMM*%
%LPD*%
G01*
G04 APERTURE LIST*
G04 Aperture macros list*
%AMRoundRect*
0 Rectangle with rounded corners*
0 $1 Rounding radius*
0 $2 $3 $4 $5 $6 $7 $8 $9 X,Y pos of 4 corners*
0 Add a 4 corners polygon primitive as box body*
4,1,4,$2,$3,$4,$5,$6,$7,$8,$9,$2,$3,0*
0 Add four circle primitives for the rounded corners*
1,1,$1+$1,$2,$3*
1,1,$1+$1,$4,$5*
1,1,$1+$1,$6,$7*
1,1,$1+$1,$8,$9*
0 Add four rect primitives between the rounded corners*
20,1,$1+$1,$2,$3,$4,$5,0*
20,1,$1+$1,$4,$5,$6,$7,0*
20,1,$1+$1,$6,$7,$8,$9,0*
20,1,$1+$1,$8,$9,$2,$3,0*%
G04 Aperture macros list end*
%ADD10C,2.000000*%
%ADD11RoundRect,0.225000X-0.225000X-0.250000X0.225000X-0.250000X0.225000X0.250000X-0.225000X0.250000X0*%
%ADD12RoundRect,0.225000X0.225000X0.250000X-0.225000X0.250000X-0.225000X-0.250000X0.225000X-0.250000X0*%
%ADD13C,5.600000*%
%ADD14RoundRect,0.200000X-0.200000X-0.275000X0.200000X-0.275000X0.200000X0.275000X-0.200000X0.275000X0*%
%ADD15R,3.150000X1.000000*%
%ADD16R,0.850000X0.850000*%
%ADD17RoundRect,0.175000X-0.175000X0.185000X-0.175000X-0.185000X0.175000X-0.185000X0.175000X0.185000X0*%
%ADD18C,2.390000*%
%ADD19C,3.450000*%
%ADD20R,7.340000X6.350000*%
%ADD21RoundRect,0.200000X0.200000X0.275000X-0.200000X0.275000X-0.200000X-0.275000X0.200000X-0.275000X0*%
%ADD22RoundRect,0.150000X-0.825000X-0.150000X0.825000X-0.150000X0.825000X0.150000X-0.825000X0.150000X0*%
%ADD23RoundRect,0.250000X-0.362500X-1.425000X0.362500X-1.425000X0.362500X1.425000X-0.362500X1.425000X0*%
%ADD24C,1.400000*%
%ADD25O,1.400000X1.400000*%
%ADD26RoundRect,0.250000X-0.250000X-1.500000X0.250000X-1.500000X0.250000X1.500000X-0.250000X1.500000X0*%
%ADD27RoundRect,0.250001X-0.499999X-1.449999X0.499999X-1.449999X0.499999X1.449999X-0.499999X1.449999X0*%
%ADD28R,1.980000X3.960000*%
%ADD29O,1.980000X3.960000*%
G04 APERTURE END LIST*
D10*
%TO.C,TP3*%
X122700000Y-127425000D03*
%TD*%
D11*
%TO.C,C5*%
X107425000Y-129515000D03*
X108975000Y-129515000D03*
%TD*%
D12*
%TO.C,C1*%
X105324600Y-121025000D03*
X103774600Y-121025000D03*
%TD*%
D13*
%TO.C,H1*%
X97825000Y-53325000D03*
%TD*%
D14*
%TO.C,R7*%
X107400000Y-133075000D03*
X109050000Y-133075000D03*
%TD*%
D15*
%TO.C,R5460N233AF1*%
X145349600Y-123760000D03*
X150399600Y-123760000D03*
X145349600Y-126300000D03*
X150399600Y-126300000D03*
X145349600Y-128840000D03*
X150399600Y-128840000D03*
%TD*%
D16*
%TO.C,J1*%
X178999600Y-121250000D03*
%TD*%
D17*
%TO.C,TEMP1*%
X103175000Y-129385000D03*
X103175000Y-130355000D03*
X103175000Y-131325000D03*
X103175000Y-132295000D03*
X104725000Y-132295000D03*
X104725000Y-131325000D03*
X104725000Y-130355000D03*
X104725000Y-129385000D03*
%TD*%
D18*
%TO.C,KEYSTONE-3*%
X105449600Y-98825000D03*
D19*
X113779600Y-114825000D03*
X168979600Y-98825000D03*
D20*
X102049600Y-106825000D03*
X180709600Y-106825000D03*
%TD*%
D21*
%TO.C,R2*%
X116124600Y-120900000D03*
X114474600Y-120900000D03*
%TD*%
D12*
%TO.C,C4*%
X110149600Y-125475000D03*
X108599600Y-125475000D03*
%TD*%
D14*
%TO.C,R6*%
X112000000Y-133150000D03*
X113650000Y-133150000D03*
%TD*%
D10*
%TO.C,TP1*%
X113350000Y-127675000D03*
%TD*%
D21*
%TO.C,R3*%
X120799600Y-120850000D03*
X119149600Y-120850000D03*
%TD*%
D12*
%TO.C,C3*%
X105249600Y-125525000D03*
X103699600Y-125525000D03*
%TD*%
D18*
%TO.C,KEYSTONE-2*%
X104799600Y-75800000D03*
D19*
X113129600Y-91800000D03*
X168329600Y-75800000D03*
D20*
X101399600Y-83800000D03*
X180059600Y-83800000D03*
%TD*%
D12*
%TO.C,C2*%
X110074600Y-121075000D03*
X108524600Y-121075000D03*
%TD*%
D21*
%TO.C,R4*%
X125549600Y-120825000D03*
X123899600Y-120825000D03*
%TD*%
D13*
%TO.C,H4*%
X183475000Y-130700000D03*
%TD*%
%TO.C,H3*%
X97775000Y-126950000D03*
%TD*%
D22*
%TO.C,Q2*%
X168724600Y-126670000D03*
X168724600Y-127940000D03*
X168724600Y-129210000D03*
X168724600Y-130480000D03*
X173674600Y-130480000D03*
X173674600Y-129210000D03*
X173674600Y-127940000D03*
X173674600Y-126670000D03*
%TD*%
D18*
%TO.C,KEYSTONE-1*%
X104844600Y-52500000D03*
D19*
X113174600Y-68500000D03*
X168374600Y-52500000D03*
D20*
X101444600Y-60500000D03*
X180104600Y-60500000D03*
%TD*%
D23*
%TO.C,R1*%
X168787100Y-122175000D03*
X174712100Y-122175000D03*
%TD*%
D24*
%TO.C,TH1*%
X177099600Y-130190000D03*
D25*
X177099600Y-125110000D03*
%TD*%
D26*
%TO.C,J2*%
X160549600Y-123400000D03*
X162549600Y-123400000D03*
D27*
X158199600Y-129150000D03*
X164899600Y-129150000D03*
%TD*%
D10*
%TO.C,TP4*%
X126950000Y-127250000D03*
%TD*%
D13*
%TO.C,H2*%
X183550000Y-50800000D03*
%TD*%
D22*
%TO.C,Q1*%
X134074600Y-120495000D03*
X134074600Y-121765000D03*
X134074600Y-123035000D03*
X134074600Y-124305000D03*
X139024600Y-124305000D03*
X139024600Y-123035000D03*
X139024600Y-121765000D03*
X139024600Y-120495000D03*
%TD*%
D28*
%TO.C,J6*%
X137450000Y-133225000D03*
D29*
X132450000Y-133225000D03*
%TD*%
D28*
%TO.C,J3*%
X172025000Y-133150000D03*
D29*
X167025000Y-133150000D03*
%TD*%
D18*
%TO.C,KEYSTONE-5*%
X176759600Y-75900000D03*
D19*
X168429600Y-91900000D03*
X113229600Y-75900000D03*
%TD*%
D18*
%TO.C,KEYSTONE-6*%
X177159600Y-98850000D03*
D19*
X168829600Y-114850000D03*
X113629600Y-98850000D03*
%TD*%
D18*
%TO.C,KEYSTONE-4*%
X176509600Y-52525000D03*
D19*
X168179600Y-68525000D03*
X112979600Y-52525000D03*
%TD*%
D28*
%TO.C,J4*%
X160500000Y-133150000D03*
D29*
X155500000Y-133150000D03*
%TD*%
D28*
%TO.C,J5*%
X148925000Y-133250000D03*
D29*
X143925000Y-133250000D03*
%TD*%
D10*
%TO.C,TP2*%
X118225000Y-127500000D03*
%TD*%
M02*
