%TF.GenerationSoftware,KiCad,Pcbnew,8.0.2-1*%
%TF.CreationDate,2024-08-29T11:45:14-05:00*%
%TF.ProjectId,BattBoard,42617474-426f-4617-9264-2e6b69636164,rev?*%
%TF.SameCoordinates,Original*%
%TF.FileFunction,Copper,L2,Bot*%
%TF.FilePolarity,Positive*%
%FSLAX46Y46*%
G04 Gerber Fmt 4.6, Leading zero omitted, Abs format (unit mm)*
G04 Created by KiCad (PCBNEW 8.0.2-1) date 2024-08-29 11:45:14*
%MOMM*%
%LPD*%
G01*
G04 APERTURE LIST*
%TA.AperFunction,ComponentPad*%
%ADD10C,2.000000*%
%TD*%
%TA.AperFunction,ComponentPad*%
%ADD11C,5.600000*%
%TD*%
%TA.AperFunction,ComponentPad*%
%ADD12R,0.850000X0.850000*%
%TD*%
%TA.AperFunction,ComponentPad*%
%ADD13C,1.400000*%
%TD*%
%TA.AperFunction,ComponentPad*%
%ADD14O,1.400000X1.400000*%
%TD*%
%TA.AperFunction,ComponentPad*%
%ADD15R,1.980000X3.960000*%
%TD*%
%TA.AperFunction,ComponentPad*%
%ADD16O,1.980000X3.960000*%
%TD*%
%TA.AperFunction,SMDPad,CuDef*%
%ADD17R,7.340000X6.350000*%
%TD*%
%TA.AperFunction,ViaPad*%
%ADD18C,0.600000*%
%TD*%
%TA.AperFunction,Conductor*%
%ADD19C,0.200000*%
%TD*%
G04 APERTURE END LIST*
D10*
%TO.P,TP3,1,1*%
%TO.N,PACK-*%
X122700000Y-127425000D03*
%TD*%
D11*
%TO.P,H1,1,1*%
%TO.N,PACK-*%
X97825000Y-53325000D03*
%TD*%
D12*
%TO.P,J1,1,Pin_1*%
%TO.N,BAT_THERM*%
X178999600Y-121250000D03*
%TD*%
D10*
%TO.P,TP1,1,1*%
%TO.N,B-*%
X113350000Y-127675000D03*
%TD*%
D11*
%TO.P,H4,1,1*%
%TO.N,PACK-*%
X183475000Y-130700000D03*
%TD*%
%TO.P,H3,1,1*%
%TO.N,PACK-*%
X97775000Y-126950000D03*
%TD*%
D13*
%TO.P,TH1,1*%
%TO.N,BAT_THERM*%
X177099600Y-130190000D03*
D14*
%TO.P,TH1,2*%
%TO.N,PACK-*%
X177099600Y-125110000D03*
%TD*%
D10*
%TO.P,TP4,1,1*%
%TO.N,PACK+*%
X126950000Y-127250000D03*
%TD*%
D11*
%TO.P,H2,1,1*%
%TO.N,PACK-*%
X183550000Y-50800000D03*
%TD*%
D15*
%TO.P,J6,1,Pin_1*%
%TO.N,PACK+*%
X137450000Y-133225000D03*
D16*
%TO.P,J6,2,Pin_2*%
%TO.N,PACK-*%
X132450000Y-133225000D03*
%TD*%
D15*
%TO.P,J3,1,Pin_1*%
%TO.N,PACK+*%
X172025000Y-133150000D03*
D16*
%TO.P,J3,2,Pin_2*%
%TO.N,PACK-*%
X167025000Y-133150000D03*
%TD*%
D17*
%TO.P,KEYSTONE-5,1,NEG*%
%TO.N,BM*%
X180159600Y-83900000D03*
%TO.P,KEYSTONE-5,2,POS*%
%TO.N,PACK+*%
X101499600Y-83900000D03*
%TD*%
%TO.P,KEYSTONE-6,1,NEG*%
%TO.N,BM*%
X180559600Y-106850000D03*
%TO.P,KEYSTONE-6,2,POS*%
%TO.N,PACK+*%
X101899600Y-106850000D03*
%TD*%
%TO.P,KEYSTONE-4,1,NEG*%
%TO.N,BM*%
X179909600Y-60525000D03*
%TO.P,KEYSTONE-4,2,POS*%
%TO.N,PACK+*%
X101249600Y-60525000D03*
%TD*%
D15*
%TO.P,J4,1,Pin_1*%
%TO.N,PACK+*%
X160500000Y-133150000D03*
D16*
%TO.P,J4,2,Pin_2*%
%TO.N,PACK-*%
X155500000Y-133150000D03*
%TD*%
D15*
%TO.P,J5,1,Pin_1*%
%TO.N,PACK+*%
X148925000Y-133250000D03*
D16*
%TO.P,J5,2,Pin_2*%
%TO.N,PACK-*%
X143925000Y-133250000D03*
%TD*%
D10*
%TO.P,TP2,1,1*%
%TO.N,BM*%
X118225000Y-127500000D03*
%TD*%
D18*
%TO.N,PACK+*%
X175800000Y-127400000D03*
X113400000Y-124900000D03*
X116800000Y-123100000D03*
%TO.N,BM*%
X120800000Y-122900000D03*
%TO.N,PACK-*%
X114579000Y-123329000D03*
X105988000Y-128152000D03*
X106012000Y-122073000D03*
%TO.N,B-*%
X164682000Y-124583000D03*
X153064000Y-129374000D03*
%TO.N,Net-(R5460N233AF1-V-)*%
X117538000Y-120921000D03*
X127146000Y-120338000D03*
%TO.N,Net-(R5460N233AF1-VC)*%
X147504000Y-122537000D03*
X128062000Y-123629000D03*
%TO.N,PACK+*%
X153946000Y-124887000D03*
X137752000Y-128530000D03*
X108638000Y-127881000D03*
X125374000Y-119665000D03*
%TO.N,BM*%
X179410000Y-64577600D03*
%TD*%
D19*
%TO.N,PACK+*%
X174548000Y-127400000D02*
X175800000Y-127400000D01*
X113400000Y-124900000D02*
X112300000Y-124900000D01*
X109319000Y-127881000D02*
X108638000Y-127881000D01*
X112300000Y-124900000D02*
X109319000Y-127881000D01*
X116800000Y-123100000D02*
X116862000Y-111153000D01*
%TO.N,BM*%
X123300000Y-122900000D02*
X120800000Y-122900000D01*
X124900000Y-124500000D02*
X123300000Y-122900000D01*
X180559600Y-106850000D02*
X143990000Y-106850000D01*
X143990000Y-106850000D02*
X126340000Y-124500000D01*
X126340000Y-124500000D02*
X124900000Y-124500000D01*
%TO.N,PACK-*%
X120526000Y-129276000D02*
X120600000Y-129202000D01*
X120600000Y-124400000D02*
X115650000Y-124400000D01*
X120600000Y-129202000D02*
X120600000Y-124400000D01*
X115650000Y-124400000D02*
X114579000Y-123329000D01*
%TO.N,B-*%
X113750000Y-129050000D02*
X115750000Y-129050000D01*
X116012000Y-130212000D02*
X116447000Y-130647000D01*
X113350000Y-127675000D02*
X113350000Y-128650000D01*
X113350000Y-128650000D02*
X113750000Y-129050000D01*
X115750000Y-129050000D02*
X116012000Y-129312000D01*
X116012000Y-129312000D02*
X116012000Y-130212000D01*
%TO.N,PACK-*%
X131469000Y-127106000D02*
X129975000Y-128600000D01*
X126021000Y-130183000D02*
X121433000Y-130183000D01*
X107318000Y-122073000D02*
X113323000Y-122073000D01*
X97277900Y-53872100D02*
X97277900Y-126453000D01*
X174970000Y-123982000D02*
X155077000Y-123982000D01*
X128392000Y-130183000D02*
X126021000Y-130183000D01*
X121433000Y-130183000D02*
X120526000Y-129276000D01*
X183550000Y-50800000D02*
X184531000Y-51781300D01*
X132590000Y-125985000D02*
X131469000Y-127106000D01*
X129975000Y-128600000D02*
X128392000Y-130183000D01*
X97825000Y-53325000D02*
X97277900Y-53872100D01*
X131469000Y-127106000D02*
X129975000Y-128600000D01*
X177099600Y-125110000D02*
X176098000Y-125110000D01*
X113323000Y-122073000D02*
X114579000Y-123329000D01*
X184531000Y-129116000D02*
X183475000Y-130172000D01*
X177100000Y-125110000D02*
X177099600Y-125110000D01*
X105988000Y-125908000D02*
X105988000Y-128152000D01*
X176098000Y-125110000D02*
X174970000Y-123982000D01*
X184531000Y-51781300D02*
X184531000Y-129116000D01*
X183475000Y-130172000D02*
X183475000Y-130700000D01*
X106012000Y-122073000D02*
X107318000Y-122073000D01*
X183475000Y-130172000D02*
X182162000Y-130172000D01*
X97277900Y-126453000D02*
X97775000Y-126950000D01*
X120526000Y-129276000D02*
X122376000Y-127425000D01*
X107318000Y-122073000D02*
X106525000Y-122866000D01*
X155077000Y-123982000D02*
X134593000Y-123982000D01*
X106525000Y-122866000D02*
X106525000Y-125370000D01*
X122376000Y-127425000D02*
X122700000Y-127425000D01*
X106525000Y-125370000D02*
X105988000Y-125908000D01*
X182162000Y-130172000D02*
X177100000Y-125110000D01*
X134593000Y-123982000D02*
X132590000Y-125985000D01*
%TO.N,B-*%
X159891000Y-129374000D02*
X164682000Y-124583000D01*
X153064000Y-129374000D02*
X151792000Y-130647000D01*
X151792000Y-130647000D02*
X116447000Y-130647000D01*
X153064000Y-129374000D02*
X159891000Y-129374000D01*
%TO.N,Net-(R5460N233AF1-V-)*%
X117538000Y-120921000D02*
X126564000Y-120921000D01*
X126564000Y-120921000D02*
X127146000Y-120338000D01*
%TO.N,Net-(R5460N233AF1-VC)*%
X129154000Y-122537000D02*
X147504000Y-122537000D01*
X128062000Y-123629000D02*
X129154000Y-122537000D01*
%TO.N,PACK+*%
X137636000Y-128414000D02*
X138120000Y-127930000D01*
X101900000Y-105112000D02*
X101900000Y-87776700D01*
X101900000Y-106850000D02*
X101900000Y-105112000D01*
X101499600Y-83900000D02*
X101500000Y-83900000D01*
X153946000Y-124887000D02*
X150325000Y-124887000D01*
X172265000Y-129683000D02*
X166650000Y-129683000D01*
X166650000Y-129683000D02*
X165508000Y-128542000D01*
X163250000Y-130695000D02*
X163160000Y-130605000D01*
X137752000Y-128530000D02*
X137636000Y-128414000D01*
X174548000Y-127400000D02*
X173538000Y-128410000D01*
X173538000Y-128410000D02*
X172265000Y-129683000D01*
X138120000Y-127930000D02*
X138559000Y-127490000D01*
X172265000Y-130628300D02*
X172265000Y-129683000D01*
X148925000Y-133250000D02*
X151550000Y-133250000D01*
X138120000Y-127930000D02*
X137636000Y-128414000D01*
X160500000Y-133150000D02*
X160500000Y-130868300D01*
X159875000Y-130605000D02*
X160138300Y-130868300D01*
X138559000Y-127490000D02*
X138120000Y-127930000D01*
X153067000Y-133025000D02*
X151775000Y-133025000D01*
X165403000Y-128542000D02*
X163250000Y-130695000D01*
X139618000Y-126431000D02*
X138559000Y-127490000D01*
X155487000Y-130605000D02*
X153067000Y-133025000D01*
X110821000Y-105112000D02*
X116862000Y-111153000D01*
X150325000Y-124887000D02*
X141162000Y-124887000D01*
X151550000Y-133250000D02*
X151775000Y-133025000D01*
X172025000Y-133150000D02*
X172025000Y-130868300D01*
X101500000Y-83900000D02*
X101500000Y-64251700D01*
X172025000Y-130868300D02*
X172265000Y-130628300D01*
X101500000Y-64251700D02*
X101250000Y-64001700D01*
X101899600Y-106850000D02*
X101900000Y-106850000D01*
X101250000Y-64001700D02*
X101250000Y-60525000D01*
X141162000Y-124887000D02*
X139618000Y-126431000D01*
X160138300Y-130868300D02*
X160500000Y-130868300D01*
X101900000Y-105112000D02*
X110821000Y-105112000D01*
X116862000Y-111153000D02*
X125374000Y-119665000D01*
X116862000Y-123060000D02*
X116800000Y-123100000D01*
X101249600Y-60525000D02*
X101250000Y-60525000D01*
X101900000Y-87776700D02*
X101500000Y-87376700D01*
X101500000Y-87376700D02*
X101500000Y-83900000D01*
X159875000Y-130605000D02*
X155487000Y-130605000D01*
X163160000Y-130605000D02*
X159875000Y-130605000D01*
X165508000Y-128542000D02*
X165403000Y-128542000D01*
%TO.N,BM*%
X179410000Y-64577600D02*
X180160000Y-65327400D01*
X179410000Y-64577600D02*
X179910000Y-64077800D01*
X179910000Y-62301400D02*
X179909600Y-62301000D01*
X180160000Y-87375000D02*
X180160000Y-102973000D01*
X179910000Y-62301400D02*
X179910000Y-60525000D01*
X180160000Y-87375000D02*
X180159600Y-87374600D01*
X180159600Y-87374600D02*
X180159600Y-83900000D01*
X180160000Y-65327400D02*
X180160000Y-87375000D01*
X180560000Y-103373000D02*
X180560000Y-106850000D01*
X180160000Y-102973000D02*
X180560000Y-103373000D01*
X179909600Y-62301000D02*
X179909600Y-60525000D01*
X179910000Y-64077800D02*
X179910000Y-62301400D01*
X180560000Y-106850000D02*
X180559600Y-106850000D01*
%TD*%
%TA.AperFunction,NonConductor*%
G36*
X183894181Y-64194213D02*
G01*
X183927666Y-64255537D01*
X183930500Y-64281895D01*
X183930500Y-80100500D01*
X183910815Y-80167539D01*
X183858011Y-80213294D01*
X183806500Y-80224500D01*
X180884500Y-80224500D01*
X180817461Y-80204815D01*
X180771706Y-80152011D01*
X180760500Y-80100500D01*
X180760500Y-65414593D01*
X180760511Y-65414410D01*
X180760510Y-65406380D01*
X180760511Y-65406377D01*
X180760500Y-65323555D01*
X180760500Y-65248343D01*
X180760500Y-65248341D01*
X180760489Y-65248259D01*
X180739530Y-65170084D01*
X180739530Y-65170083D01*
X180719577Y-65095616D01*
X180719573Y-65095610D01*
X180719569Y-65095593D01*
X180719552Y-65095551D01*
X180681176Y-65029103D01*
X180681179Y-65029101D01*
X180681168Y-65029089D01*
X180640520Y-64958684D01*
X180640519Y-64958683D01*
X180640518Y-64958681D01*
X180640473Y-64958623D01*
X180587782Y-64905945D01*
X180587782Y-64905944D01*
X180587773Y-64905937D01*
X180528716Y-64846880D01*
X180528715Y-64846879D01*
X180523074Y-64841238D01*
X180522931Y-64841112D01*
X180347098Y-64665326D01*
X180313605Y-64604007D01*
X180318580Y-64534315D01*
X180347104Y-64489935D01*
X180390445Y-64446612D01*
X180390448Y-64446605D01*
X180390468Y-64446586D01*
X180390508Y-64446535D01*
X180390517Y-64446518D01*
X180390520Y-64446516D01*
X180431383Y-64375737D01*
X180469530Y-64309697D01*
X180469532Y-64309688D01*
X180469543Y-64309670D01*
X180469568Y-64309610D01*
X180469573Y-64309590D01*
X180469577Y-64309584D01*
X180474182Y-64292398D01*
X180510551Y-64232740D01*
X180573400Y-64202215D01*
X180593955Y-64200499D01*
X183627471Y-64200499D01*
X183627472Y-64200499D01*
X183687083Y-64194091D01*
X183763169Y-64165712D01*
X183832858Y-64160729D01*
X183894181Y-64194213D01*
G37*
%TD.AperFunction*%
%TA.AperFunction,NonConductor*%
G36*
X100666826Y-64220184D02*
G01*
X100686963Y-64241302D01*
X100687098Y-64241364D01*
X100687589Y-64241959D01*
X100707173Y-64262497D01*
X100713282Y-64273077D01*
X100742970Y-64324499D01*
X100769479Y-64370414D01*
X100769481Y-64370417D01*
X100863181Y-64464117D01*
X100896666Y-64525440D01*
X100899500Y-64551798D01*
X100899500Y-80100500D01*
X100879815Y-80167539D01*
X100827011Y-80213294D01*
X100775500Y-80224500D01*
X98002400Y-80224500D01*
X97935361Y-80204815D01*
X97889606Y-80152011D01*
X97878400Y-80100500D01*
X97878400Y-64324499D01*
X97898085Y-64257460D01*
X97950889Y-64211705D01*
X98002400Y-64200499D01*
X100599787Y-64200499D01*
X100666826Y-64220184D01*
G37*
%TD.AperFunction*%
%TA.AperFunction,NonConductor*%
G36*
X183873539Y-87595184D02*
G01*
X183919294Y-87647988D01*
X183930500Y-87699499D01*
X183930500Y-103050500D01*
X183910815Y-103117539D01*
X183858011Y-103163294D01*
X183806500Y-103174500D01*
X181210385Y-103174500D01*
X181143346Y-103154815D01*
X181102997Y-103112499D01*
X181068101Y-103052057D01*
X181040520Y-103004284D01*
X180928716Y-102892480D01*
X180928715Y-102892479D01*
X180924385Y-102888149D01*
X180924374Y-102888139D01*
X180796819Y-102760584D01*
X180763334Y-102699261D01*
X180760500Y-102672903D01*
X180760500Y-87699499D01*
X180780185Y-87632460D01*
X180832989Y-87586705D01*
X180884500Y-87575499D01*
X183806500Y-87575499D01*
X183873539Y-87595184D01*
G37*
%TD.AperFunction*%
%TA.AperFunction,NonConductor*%
G36*
X100916827Y-87595184D02*
G01*
X100957172Y-87637495D01*
X100969360Y-87658604D01*
X101019479Y-87745414D01*
X101019481Y-87745417D01*
X101138349Y-87864285D01*
X101138355Y-87864290D01*
X101263181Y-87989116D01*
X101296666Y-88050439D01*
X101299500Y-88076797D01*
X101299500Y-103050500D01*
X101279815Y-103117539D01*
X101227011Y-103163294D01*
X101175500Y-103174500D01*
X98181729Y-103174500D01*
X98181723Y-103174501D01*
X98122116Y-103180908D01*
X98045733Y-103209398D01*
X97976041Y-103214382D01*
X97914718Y-103180897D01*
X97881234Y-103119573D01*
X97878400Y-103093216D01*
X97878400Y-87699499D01*
X97898085Y-87632460D01*
X97950889Y-87586705D01*
X98002400Y-87575499D01*
X100849788Y-87575499D01*
X100916827Y-87595184D01*
G37*
%TD.AperFunction*%
%TA.AperFunction,NonConductor*%
G36*
X117659166Y-112799785D02*
G01*
X117665159Y-112805394D01*
X124543298Y-119683533D01*
X124576783Y-119744856D01*
X124578837Y-119757330D01*
X124588630Y-119844249D01*
X124648211Y-120014523D01*
X124721102Y-120130527D01*
X124740103Y-120197764D01*
X124719736Y-120264599D01*
X124666468Y-120309814D01*
X124616109Y-120320500D01*
X118120412Y-120320500D01*
X118053373Y-120300815D01*
X118043097Y-120293445D01*
X118040263Y-120291185D01*
X118040262Y-120291184D01*
X117911670Y-120210384D01*
X117887523Y-120195211D01*
X117717254Y-120135631D01*
X117717249Y-120135630D01*
X117531081Y-120114655D01*
X117531302Y-120112692D01*
X117473602Y-120095750D01*
X117427847Y-120042946D01*
X117416643Y-119990792D01*
X117416655Y-119988476D01*
X117453480Y-112892429D01*
X117473512Y-112825495D01*
X117526553Y-112780015D01*
X117595762Y-112770430D01*
X117659166Y-112799785D01*
G37*
%TD.AperFunction*%
%TA.AperFunction,NonConductor*%
G36*
X176332140Y-107470185D02*
G01*
X176377895Y-107522989D01*
X176389101Y-107574500D01*
X176389101Y-110072876D01*
X176395508Y-110132483D01*
X176445802Y-110267328D01*
X176445806Y-110267335D01*
X176532052Y-110382544D01*
X176532055Y-110382547D01*
X176647264Y-110468793D01*
X176647271Y-110468797D01*
X176782117Y-110519091D01*
X176782116Y-110519091D01*
X176789044Y-110519835D01*
X176841727Y-110525500D01*
X183806500Y-110525499D01*
X183873539Y-110545184D01*
X183919294Y-110597988D01*
X183930500Y-110649499D01*
X183930500Y-127291359D01*
X183910815Y-127358398D01*
X183858011Y-127404153D01*
X183793094Y-127414632D01*
X183653951Y-127399500D01*
X183653948Y-127399500D01*
X183296052Y-127399500D01*
X183296050Y-127399500D01*
X182940255Y-127438194D01*
X182590726Y-127515131D01*
X182400419Y-127579254D01*
X182251565Y-127629409D01*
X182251563Y-127629410D01*
X182251552Y-127629414D01*
X181926755Y-127779680D01*
X181926751Y-127779682D01*
X181843907Y-127829528D01*
X181620081Y-127964200D01*
X181536498Y-128027738D01*
X181335172Y-128180781D01*
X181335165Y-128180786D01*
X181335163Y-128180789D01*
X181260940Y-128251096D01*
X181198735Y-128282907D01*
X181129204Y-128276037D01*
X181087987Y-128248752D01*
X178311003Y-125471768D01*
X178277518Y-125410445D01*
X178279418Y-125350152D01*
X178284715Y-125331536D01*
X178305243Y-125110000D01*
X178301813Y-125072989D01*
X178284715Y-124888464D01*
X178284714Y-124888462D01*
X178282455Y-124880524D01*
X178223829Y-124674472D01*
X178212421Y-124651561D01*
X178124661Y-124475316D01*
X178124656Y-124475308D01*
X177990579Y-124297761D01*
X177826162Y-124147876D01*
X177826160Y-124147874D01*
X177637004Y-124030754D01*
X177636998Y-124030752D01*
X177634231Y-124029680D01*
X177429540Y-123950382D01*
X177210843Y-123909500D01*
X176988357Y-123909500D01*
X176769660Y-123950382D01*
X176638464Y-124001207D01*
X176562201Y-124030752D01*
X176562195Y-124030754D01*
X176373039Y-124147874D01*
X176373037Y-124147876D01*
X176257605Y-124253107D01*
X176194801Y-124283724D01*
X176125414Y-124275527D01*
X176086386Y-124249151D01*
X175457590Y-123620355D01*
X175457588Y-123620352D01*
X175338717Y-123501481D01*
X175338709Y-123501475D01*
X175230988Y-123439283D01*
X175230987Y-123439282D01*
X175230987Y-123439283D01*
X175201785Y-123422423D01*
X175197706Y-123421330D01*
X175049057Y-123381499D01*
X174890943Y-123381499D01*
X174883347Y-123381499D01*
X174883331Y-123381500D01*
X148090940Y-123381500D01*
X148023901Y-123361815D01*
X147978146Y-123309011D01*
X147968202Y-123239853D01*
X147997227Y-123176297D01*
X148003259Y-123169819D01*
X148058343Y-123114735D01*
X148133816Y-123039262D01*
X148229789Y-122886522D01*
X148289368Y-122716255D01*
X148290093Y-122709819D01*
X148309565Y-122537003D01*
X148309565Y-122536996D01*
X148289369Y-122357750D01*
X148289368Y-122357745D01*
X148229788Y-122187476D01*
X148184016Y-122114631D01*
X148133816Y-122034738D01*
X148006262Y-121907184D01*
X147915121Y-121849916D01*
X147853523Y-121811211D01*
X147683254Y-121751631D01*
X147683249Y-121751630D01*
X147504004Y-121731435D01*
X147503996Y-121731435D01*
X147324750Y-121751630D01*
X147324745Y-121751631D01*
X147154476Y-121811211D01*
X147001736Y-121907185D01*
X146998903Y-121909445D01*
X146996724Y-121910334D01*
X146995842Y-121910889D01*
X146995744Y-121910734D01*
X146934217Y-121935855D01*
X146921588Y-121936500D01*
X130052097Y-121936500D01*
X129985058Y-121916815D01*
X129939303Y-121864011D01*
X129929359Y-121794853D01*
X129958384Y-121731297D01*
X129964416Y-121724819D01*
X130912100Y-120777135D01*
X178074100Y-120777135D01*
X178074100Y-121722870D01*
X178074101Y-121722876D01*
X178080508Y-121782483D01*
X178130802Y-121917328D01*
X178130806Y-121917335D01*
X178217052Y-122032544D01*
X178217055Y-122032547D01*
X178332264Y-122118793D01*
X178332271Y-122118797D01*
X178467117Y-122169091D01*
X178467116Y-122169091D01*
X178474044Y-122169835D01*
X178526727Y-122175500D01*
X179472472Y-122175499D01*
X179532083Y-122169091D01*
X179666931Y-122118796D01*
X179782146Y-122032546D01*
X179868396Y-121917331D01*
X179918691Y-121782483D01*
X179925100Y-121722873D01*
X179925099Y-120777128D01*
X179918691Y-120717517D01*
X179868396Y-120582669D01*
X179868395Y-120582668D01*
X179868393Y-120582664D01*
X179782147Y-120467455D01*
X179782144Y-120467452D01*
X179666935Y-120381206D01*
X179666928Y-120381202D01*
X179532082Y-120330908D01*
X179532083Y-120330908D01*
X179472483Y-120324501D01*
X179472481Y-120324500D01*
X179472473Y-120324500D01*
X179472464Y-120324500D01*
X178526729Y-120324500D01*
X178526723Y-120324501D01*
X178467116Y-120330908D01*
X178332271Y-120381202D01*
X178332264Y-120381206D01*
X178217055Y-120467452D01*
X178217052Y-120467455D01*
X178130806Y-120582664D01*
X178130802Y-120582671D01*
X178080508Y-120717517D01*
X178074101Y-120777116D01*
X178074101Y-120777123D01*
X178074100Y-120777135D01*
X130912100Y-120777135D01*
X136968710Y-114720525D01*
X166854100Y-114720525D01*
X166854100Y-114979474D01*
X166854101Y-114979491D01*
X166887899Y-115236217D01*
X166887900Y-115236222D01*
X166887901Y-115236228D01*
X166887902Y-115236230D01*
X166954924Y-115486364D01*
X167054023Y-115725609D01*
X167054027Y-115725619D01*
X167183506Y-115949883D01*
X167341151Y-116155331D01*
X167341157Y-116155338D01*
X167524261Y-116338442D01*
X167524268Y-116338448D01*
X167729716Y-116496093D01*
X167953980Y-116625572D01*
X167953981Y-116625572D01*
X167953984Y-116625574D01*
X168193234Y-116724675D01*
X168443372Y-116791699D01*
X168700119Y-116825500D01*
X168700126Y-116825500D01*
X168959074Y-116825500D01*
X168959081Y-116825500D01*
X169215828Y-116791699D01*
X169465966Y-116724675D01*
X169705216Y-116625574D01*
X169929484Y-116496093D01*
X170134933Y-116338447D01*
X170318047Y-116155333D01*
X170475693Y-115949884D01*
X170605174Y-115725616D01*
X170704275Y-115486366D01*
X170771299Y-115236228D01*
X170805100Y-114979481D01*
X170805100Y-114720519D01*
X170771299Y-114463772D01*
X170704275Y-114213634D01*
X170605174Y-113974384D01*
X170590740Y-113949384D01*
X170475693Y-113750116D01*
X170318048Y-113544668D01*
X170318042Y-113544661D01*
X170134938Y-113361557D01*
X170134931Y-113361551D01*
X169929483Y-113203906D01*
X169705219Y-113074427D01*
X169705209Y-113074423D01*
X169465964Y-112975324D01*
X169340897Y-112941813D01*
X169215828Y-112908301D01*
X169215822Y-112908300D01*
X169215817Y-112908299D01*
X168959091Y-112874501D01*
X168959086Y-112874500D01*
X168959081Y-112874500D01*
X168700119Y-112874500D01*
X168700113Y-112874500D01*
X168700108Y-112874501D01*
X168443382Y-112908299D01*
X168443375Y-112908300D01*
X168443372Y-112908301D01*
X168390508Y-112922465D01*
X168193235Y-112975324D01*
X167953990Y-113074423D01*
X167953980Y-113074427D01*
X167729716Y-113203906D01*
X167524268Y-113361551D01*
X167524261Y-113361557D01*
X167341157Y-113544661D01*
X167341151Y-113544668D01*
X167183506Y-113750116D01*
X167054027Y-113974380D01*
X167054023Y-113974390D01*
X166954924Y-114213635D01*
X166887902Y-114463769D01*
X166887899Y-114463782D01*
X166854101Y-114720508D01*
X166854100Y-114720525D01*
X136968710Y-114720525D01*
X144202416Y-107486819D01*
X144263739Y-107453334D01*
X144290097Y-107450500D01*
X176265101Y-107450500D01*
X176332140Y-107470185D01*
G37*
%TD.AperFunction*%
%TA.AperFunction,NonConductor*%
G36*
X134549726Y-123157185D02*
G01*
X134595481Y-123209989D01*
X134605425Y-123279147D01*
X134576400Y-123342703D01*
X134517622Y-123380477D01*
X134514781Y-123381275D01*
X134513945Y-123381499D01*
X134513943Y-123381499D01*
X134437246Y-123402050D01*
X134361214Y-123422423D01*
X134361209Y-123422426D01*
X134224290Y-123501475D01*
X134224282Y-123501481D01*
X132221284Y-125504481D01*
X128179584Y-129546181D01*
X128118261Y-129579666D01*
X128091903Y-129582500D01*
X121733098Y-129582500D01*
X121666059Y-129562815D01*
X121645417Y-129546181D01*
X121568446Y-129469210D01*
X121462776Y-129363541D01*
X121429292Y-129302219D01*
X121434276Y-129232528D01*
X121462750Y-129188207D01*
X121868689Y-128782048D01*
X121930001Y-128748549D01*
X121999694Y-128753515D01*
X122015409Y-128760653D01*
X122048787Y-128778716D01*
X122095190Y-128803828D01*
X122330386Y-128884571D01*
X122575665Y-128925500D01*
X122824335Y-128925500D01*
X123069614Y-128884571D01*
X123304810Y-128803828D01*
X123523509Y-128685474D01*
X123719744Y-128532738D01*
X123888164Y-128349785D01*
X124024173Y-128141607D01*
X124124063Y-127913881D01*
X124185108Y-127672821D01*
X124187437Y-127644715D01*
X124205643Y-127425005D01*
X124205643Y-127424994D01*
X124191142Y-127249994D01*
X125444357Y-127249994D01*
X125444357Y-127250005D01*
X125464890Y-127497812D01*
X125464892Y-127497824D01*
X125525936Y-127738881D01*
X125625826Y-127966606D01*
X125761833Y-128174782D01*
X125761836Y-128174785D01*
X125930256Y-128357738D01*
X126126491Y-128510474D01*
X126345190Y-128628828D01*
X126497989Y-128681284D01*
X126579465Y-128709255D01*
X126580386Y-128709571D01*
X126825665Y-128750500D01*
X127074335Y-128750500D01*
X127319614Y-128709571D01*
X127554810Y-128628828D01*
X127773509Y-128510474D01*
X127969744Y-128357738D01*
X128138164Y-128174785D01*
X128274173Y-127966607D01*
X128374063Y-127738881D01*
X128435108Y-127497821D01*
X128441143Y-127424994D01*
X128455643Y-127250005D01*
X128455643Y-127249994D01*
X128435109Y-127002187D01*
X128435107Y-127002175D01*
X128374063Y-126761118D01*
X128274173Y-126533393D01*
X128138166Y-126325217D01*
X128086982Y-126269617D01*
X127969744Y-126142262D01*
X127773509Y-125989526D01*
X127773507Y-125989525D01*
X127773506Y-125989524D01*
X127554811Y-125871172D01*
X127554802Y-125871169D01*
X127319616Y-125790429D01*
X127074335Y-125749500D01*
X126825665Y-125749500D01*
X126580383Y-125790429D01*
X126345197Y-125871169D01*
X126345188Y-125871172D01*
X126126493Y-125989524D01*
X125930257Y-126142261D01*
X125761833Y-126325217D01*
X125625826Y-126533393D01*
X125525936Y-126761118D01*
X125464892Y-127002175D01*
X125464890Y-127002187D01*
X125444357Y-127249994D01*
X124191142Y-127249994D01*
X124185109Y-127177187D01*
X124185107Y-127177175D01*
X124124063Y-126936118D01*
X124024173Y-126708393D01*
X123888166Y-126500217D01*
X123866557Y-126476744D01*
X123719744Y-126317262D01*
X123523509Y-126164526D01*
X123523507Y-126164525D01*
X123523506Y-126164524D01*
X123304811Y-126046172D01*
X123304802Y-126046169D01*
X123069616Y-125965429D01*
X122824335Y-125924500D01*
X122575665Y-125924500D01*
X122330383Y-125965429D01*
X122095197Y-126046169D01*
X122095188Y-126046172D01*
X121876493Y-126164524D01*
X121680257Y-126317261D01*
X121511836Y-126500215D01*
X121428309Y-126628063D01*
X121375162Y-126673419D01*
X121305931Y-126682843D01*
X121242595Y-126653341D01*
X121205264Y-126594281D01*
X121200500Y-126560241D01*
X121200500Y-124320945D01*
X121200500Y-124320943D01*
X121159577Y-124168216D01*
X121136947Y-124129019D01*
X121080524Y-124031290D01*
X121080518Y-124031282D01*
X120968717Y-123919481D01*
X120968716Y-123919480D01*
X120965083Y-123917382D01*
X120954306Y-123911160D01*
X120906092Y-123860591D01*
X120892871Y-123791984D01*
X120918840Y-123727120D01*
X120975355Y-123686732D01*
X120979252Y-123685368D01*
X120979255Y-123685368D01*
X121149522Y-123625789D01*
X121302262Y-123529816D01*
X121302267Y-123529810D01*
X121305097Y-123527555D01*
X121307275Y-123526665D01*
X121308158Y-123526111D01*
X121308255Y-123526265D01*
X121369783Y-123501145D01*
X121382412Y-123500500D01*
X122999903Y-123500500D01*
X123066942Y-123520185D01*
X123087583Y-123536818D01*
X124531284Y-124980520D01*
X124531286Y-124980521D01*
X124531290Y-124980524D01*
X124668209Y-125059573D01*
X124668212Y-125059575D01*
X124668216Y-125059577D01*
X124820943Y-125100501D01*
X124820945Y-125100501D01*
X124986654Y-125100501D01*
X124986670Y-125100500D01*
X126253331Y-125100500D01*
X126253347Y-125100501D01*
X126260943Y-125100501D01*
X126419054Y-125100501D01*
X126419057Y-125100501D01*
X126571785Y-125059577D01*
X126644612Y-125017530D01*
X126708716Y-124980520D01*
X126820520Y-124868716D01*
X126820520Y-124868714D01*
X126830724Y-124858511D01*
X126830728Y-124858506D01*
X127410398Y-124278835D01*
X127471719Y-124245352D01*
X127541411Y-124250336D01*
X127564046Y-124261523D01*
X127591601Y-124278837D01*
X127712475Y-124354788D01*
X127882745Y-124414368D01*
X127882750Y-124414369D01*
X128061996Y-124434565D01*
X128062000Y-124434565D01*
X128062004Y-124434565D01*
X128241249Y-124414369D01*
X128241252Y-124414368D01*
X128241255Y-124414368D01*
X128411522Y-124354789D01*
X128564262Y-124258816D01*
X128691816Y-124131262D01*
X128787789Y-123978522D01*
X128847368Y-123808255D01*
X128857161Y-123721329D01*
X128884226Y-123656918D01*
X128892690Y-123647543D01*
X129366416Y-123173819D01*
X129427739Y-123140334D01*
X129454097Y-123137500D01*
X134482687Y-123137500D01*
X134549726Y-123157185D01*
G37*
%TD.AperFunction*%
%TA.AperFunction,NonConductor*%
G36*
X140384941Y-124602185D02*
G01*
X140430696Y-124654989D01*
X140440640Y-124724147D01*
X140411615Y-124787703D01*
X140405583Y-124794181D01*
X139249284Y-125950481D01*
X138195931Y-127003832D01*
X138194802Y-127004825D01*
X138151351Y-127048374D01*
X138134362Y-127065402D01*
X138104135Y-127095630D01*
X138073423Y-127126342D01*
X138072434Y-127127470D01*
X137948001Y-127252187D01*
X137800521Y-127400003D01*
X137694975Y-127505789D01*
X137694875Y-127505889D01*
X137396418Y-127804345D01*
X137374710Y-127821657D01*
X137249741Y-127900181D01*
X137249739Y-127900182D01*
X137122184Y-128027737D01*
X137026211Y-128180476D01*
X136966631Y-128350745D01*
X136966630Y-128350750D01*
X136946435Y-128529996D01*
X136946435Y-128530003D01*
X136966630Y-128709249D01*
X136966631Y-128709254D01*
X137026211Y-128879523D01*
X137117292Y-129024477D01*
X137122184Y-129032262D01*
X137249738Y-129159816D01*
X137309083Y-129197105D01*
X137358051Y-129227874D01*
X137402478Y-129255789D01*
X137572745Y-129315368D01*
X137572750Y-129315369D01*
X137751996Y-129335565D01*
X137752000Y-129335565D01*
X137752004Y-129335565D01*
X137931249Y-129315369D01*
X137931252Y-129315368D01*
X137931255Y-129315368D01*
X138101522Y-129255789D01*
X138254262Y-129159816D01*
X138381816Y-129032262D01*
X138477789Y-128879522D01*
X138537368Y-128709255D01*
X138540048Y-128685475D01*
X138557565Y-128530002D01*
X138557565Y-128529999D01*
X138554356Y-128501522D01*
X138545179Y-128420079D01*
X138557233Y-128351260D01*
X138580716Y-128318517D01*
X138600519Y-128298716D01*
X138600520Y-128298713D01*
X138605676Y-128293558D01*
X138606658Y-128292435D01*
X138983773Y-127914461D01*
X140098519Y-126799716D01*
X140157078Y-126741157D01*
X140157090Y-126741143D01*
X141374417Y-125523819D01*
X141435740Y-125490334D01*
X141462098Y-125487500D01*
X150245943Y-125487500D01*
X153363588Y-125487500D01*
X153430627Y-125507185D01*
X153440903Y-125514555D01*
X153443736Y-125516814D01*
X153443738Y-125516816D01*
X153557270Y-125588152D01*
X153578963Y-125601784D01*
X153596478Y-125612789D01*
X153758763Y-125669575D01*
X153766745Y-125672368D01*
X153766750Y-125672369D01*
X153945996Y-125692565D01*
X153946000Y-125692565D01*
X153946004Y-125692565D01*
X154125249Y-125672369D01*
X154125252Y-125672368D01*
X154125255Y-125672368D01*
X154295522Y-125612789D01*
X154448262Y-125516816D01*
X154575816Y-125389262D01*
X154671789Y-125236522D01*
X154731368Y-125066255D01*
X154731369Y-125066249D01*
X154751565Y-124887003D01*
X154751565Y-124886996D01*
X154732793Y-124720383D01*
X154744848Y-124651561D01*
X154792197Y-124600182D01*
X154856013Y-124582500D01*
X154997943Y-124582500D01*
X163533903Y-124582500D01*
X163600942Y-124602185D01*
X163646697Y-124654989D01*
X163656641Y-124724147D01*
X163627616Y-124787703D01*
X163621584Y-124794181D01*
X159678584Y-128737181D01*
X159617261Y-128770666D01*
X159590903Y-128773500D01*
X153646412Y-128773500D01*
X153579373Y-128753815D01*
X153569097Y-128746445D01*
X153566263Y-128744185D01*
X153566262Y-128744184D01*
X153495449Y-128699689D01*
X153413523Y-128648211D01*
X153243254Y-128588631D01*
X153243249Y-128588630D01*
X153064004Y-128568435D01*
X153063996Y-128568435D01*
X152884750Y-128588630D01*
X152884745Y-128588631D01*
X152714476Y-128648211D01*
X152561737Y-128744184D01*
X152434184Y-128871737D01*
X152338211Y-129024477D01*
X152278630Y-129194750D01*
X152268797Y-129282026D01*
X152241730Y-129346440D01*
X152233293Y-129355789D01*
X151579451Y-130010147D01*
X151518141Y-130043656D01*
X151491735Y-130046500D01*
X129677097Y-130046500D01*
X129610058Y-130026815D01*
X129564303Y-129974011D01*
X129554359Y-129904853D01*
X129583384Y-129841297D01*
X129589416Y-129834819D01*
X133129078Y-126295157D01*
X133129090Y-126295143D01*
X134805417Y-124618819D01*
X134866740Y-124585334D01*
X134893098Y-124582500D01*
X140317902Y-124582500D01*
X140384941Y-124602185D01*
G37*
%TD.AperFunction*%
%TA.AperFunction,NonConductor*%
G36*
X155035941Y-129994185D02*
G01*
X155081696Y-130046989D01*
X155091640Y-130116147D01*
X155062615Y-130179703D01*
X155056583Y-130186181D01*
X155006480Y-130236284D01*
X155006478Y-130236286D01*
X153913265Y-131329500D01*
X152854584Y-132388181D01*
X152793261Y-132421666D01*
X152766903Y-132424500D01*
X151695943Y-132424500D01*
X151543217Y-132465422D01*
X151543212Y-132465424D01*
X151537044Y-132468986D01*
X151537042Y-132468987D01*
X151406287Y-132544477D01*
X151406282Y-132544481D01*
X151337583Y-132613181D01*
X151276260Y-132646666D01*
X151249902Y-132649500D01*
X150539499Y-132649500D01*
X150472460Y-132629815D01*
X150426705Y-132577011D01*
X150415499Y-132525500D01*
X150415499Y-131371500D01*
X150435184Y-131304461D01*
X150487988Y-131258706D01*
X150539499Y-131247500D01*
X151704858Y-131247500D01*
X151705394Y-131247534D01*
X151713175Y-131247530D01*
X151713179Y-131247532D01*
X151793491Y-131247500D01*
X151871057Y-131247500D01*
X151871057Y-131247499D01*
X151871288Y-131247469D01*
X151871293Y-131247469D01*
X151948188Y-131226832D01*
X151948190Y-131226840D01*
X151948232Y-131226820D01*
X152023784Y-131206577D01*
X152023788Y-131206574D01*
X152023790Y-131206574D01*
X152023997Y-131206489D01*
X152023999Y-131206487D01*
X152024005Y-131206486D01*
X152092144Y-131167109D01*
X152092190Y-131167097D01*
X152092184Y-131167086D01*
X152092186Y-131167085D01*
X152160716Y-131127520D01*
X152160722Y-131127513D01*
X152160903Y-131127375D01*
X152160902Y-131127375D01*
X152160905Y-131127374D01*
X152215594Y-131072641D01*
X152272520Y-131015716D01*
X152272521Y-131015713D01*
X152278163Y-131010072D01*
X152278515Y-131009670D01*
X152360457Y-130927664D01*
X153082860Y-130204692D01*
X153144168Y-130171185D01*
X153156692Y-130169121D01*
X153243249Y-130159369D01*
X153243252Y-130159368D01*
X153243255Y-130159368D01*
X153413522Y-130099789D01*
X153566262Y-130003816D01*
X153566267Y-130003810D01*
X153569097Y-130001555D01*
X153571275Y-130000665D01*
X153572158Y-130000111D01*
X153572255Y-130000265D01*
X153633783Y-129975145D01*
X153646412Y-129974500D01*
X154968902Y-129974500D01*
X155035941Y-129994185D01*
G37*
%TD.AperFunction*%
%TA.AperFunction,NonConductor*%
G36*
X135902539Y-131267185D02*
G01*
X135948294Y-131319989D01*
X135959500Y-131371500D01*
X135959500Y-135184241D01*
X135939815Y-135251280D01*
X135887011Y-135297035D01*
X135835403Y-135308241D01*
X133742530Y-135306603D01*
X133675506Y-135286866D01*
X133629792Y-135234026D01*
X133619903Y-135164860D01*
X133642309Y-135109718D01*
X133706624Y-135021195D01*
X133724790Y-134996192D01*
X133831301Y-134787153D01*
X133903799Y-134564026D01*
X133940500Y-134332305D01*
X133940500Y-132117695D01*
X133903799Y-131885974D01*
X133831301Y-131662847D01*
X133724790Y-131453808D01*
X133717944Y-131444385D01*
X133717943Y-131444383D01*
X133694465Y-131378576D01*
X133710292Y-131310522D01*
X133760399Y-131261829D01*
X133818263Y-131247500D01*
X135835500Y-131247500D01*
X135902539Y-131267185D01*
G37*
%TD.AperFunction*%
%TA.AperFunction,NonConductor*%
G36*
X142641940Y-131267185D02*
G01*
X142687695Y-131319989D01*
X142697639Y-131389147D01*
X142675219Y-131444385D01*
X142650212Y-131478804D01*
X142543697Y-131687849D01*
X142471201Y-131910972D01*
X142434500Y-132142695D01*
X142434500Y-134357304D01*
X142471201Y-134589027D01*
X142543697Y-134812150D01*
X142543699Y-134812153D01*
X142637473Y-134996195D01*
X142650212Y-135021195D01*
X142719574Y-135116665D01*
X142743054Y-135182471D01*
X142727228Y-135250525D01*
X142677122Y-135299220D01*
X142619159Y-135313550D01*
X139064402Y-135310768D01*
X138997378Y-135291031D01*
X138951664Y-135238191D01*
X138940499Y-135186772D01*
X138940499Y-131371499D01*
X138960184Y-131304461D01*
X139012988Y-131258706D01*
X139064499Y-131247500D01*
X142574901Y-131247500D01*
X142641940Y-131267185D01*
G37*
%TD.AperFunction*%
%TA.AperFunction,NonConductor*%
G36*
X147377539Y-131267185D02*
G01*
X147423294Y-131319989D01*
X147434500Y-131371500D01*
X147434500Y-135193222D01*
X147414815Y-135260261D01*
X147362011Y-135306016D01*
X147310403Y-135317222D01*
X145229161Y-135315593D01*
X145162137Y-135295856D01*
X145116423Y-135243016D01*
X145106534Y-135173850D01*
X145128938Y-135118711D01*
X145199790Y-135021192D01*
X145306301Y-134812153D01*
X145378799Y-134589026D01*
X145415500Y-134357305D01*
X145415500Y-132142695D01*
X145378799Y-131910974D01*
X145306301Y-131687847D01*
X145199790Y-131478808D01*
X145181627Y-131453808D01*
X145174781Y-131444385D01*
X145151301Y-131378579D01*
X145167127Y-131310525D01*
X145217232Y-131261830D01*
X145275099Y-131247500D01*
X147310500Y-131247500D01*
X147377539Y-131267185D01*
G37*
%TD.AperFunction*%
%TA.AperFunction,NonConductor*%
G36*
X153928834Y-133114914D02*
G01*
X153984767Y-133156786D01*
X154009184Y-133222250D01*
X154009500Y-133231096D01*
X154009500Y-134257304D01*
X154046201Y-134489027D01*
X154118697Y-134712150D01*
X154225212Y-134921195D01*
X154363104Y-135110989D01*
X154366267Y-135114692D01*
X154365489Y-135115356D01*
X154396591Y-135172315D01*
X154391607Y-135242007D01*
X154349735Y-135297940D01*
X154284271Y-135322357D01*
X154275328Y-135322673D01*
X150539403Y-135319749D01*
X150472379Y-135300012D01*
X150426665Y-135247172D01*
X150415500Y-135195749D01*
X150415500Y-133974500D01*
X150435185Y-133907461D01*
X150487989Y-133861706D01*
X150539500Y-133850500D01*
X151463331Y-133850500D01*
X151463347Y-133850501D01*
X151470943Y-133850501D01*
X151629054Y-133850501D01*
X151629057Y-133850501D01*
X151781785Y-133809577D01*
X151849310Y-133770591D01*
X151918716Y-133730520D01*
X151987417Y-133661819D01*
X152048740Y-133628334D01*
X152075098Y-133625500D01*
X152980331Y-133625500D01*
X152980347Y-133625501D01*
X152987943Y-133625501D01*
X153146054Y-133625501D01*
X153146057Y-133625501D01*
X153298785Y-133584577D01*
X153348904Y-133555639D01*
X153435716Y-133505520D01*
X153547520Y-133393716D01*
X153547520Y-133393714D01*
X153557728Y-133383507D01*
X153557729Y-133383504D01*
X153797820Y-133143414D01*
X153859142Y-133109930D01*
X153928834Y-133114914D01*
G37*
%TD.AperFunction*%
%TA.AperFunction,NonConductor*%
G36*
X158952539Y-131225185D02*
G01*
X158998294Y-131277989D01*
X159009500Y-131329500D01*
X159009500Y-135177870D01*
X159009501Y-135177881D01*
X159010700Y-135189032D01*
X158998292Y-135257791D01*
X158950680Y-135308927D01*
X158887313Y-135326283D01*
X156722561Y-135324589D01*
X156655537Y-135304852D01*
X156609823Y-135252012D01*
X156599934Y-135182846D01*
X156629009Y-135119313D01*
X156634971Y-135112914D01*
X156636890Y-135110996D01*
X156774790Y-134921192D01*
X156881301Y-134712153D01*
X156953799Y-134489026D01*
X156990500Y-134257305D01*
X156990500Y-132042695D01*
X156953799Y-131810974D01*
X156881301Y-131587847D01*
X156778349Y-131385794D01*
X156765454Y-131317126D01*
X156791730Y-131252385D01*
X156848837Y-131212128D01*
X156888835Y-131205500D01*
X158885500Y-131205500D01*
X158952539Y-131225185D01*
G37*
%TD.AperFunction*%
%TA.AperFunction,NonConductor*%
G36*
X165499034Y-129397714D02*
G01*
X165543343Y-129426176D01*
X166223997Y-130106233D01*
X166223995Y-130106234D01*
X166224035Y-130106271D01*
X166281284Y-130163520D01*
X166281489Y-130163677D01*
X166281493Y-130163679D01*
X166281495Y-130163681D01*
X166309275Y-130179703D01*
X166348887Y-130202550D01*
X166348934Y-130202577D01*
X166418218Y-130242578D01*
X166418457Y-130242677D01*
X166418461Y-130242678D01*
X166494653Y-130263057D01*
X166494701Y-130263087D01*
X166494706Y-130263072D01*
X166570943Y-130283500D01*
X166570944Y-130283500D01*
X166570948Y-130283501D01*
X166571202Y-130283533D01*
X166571206Y-130283535D01*
X166571209Y-130283534D01*
X166571210Y-130283535D01*
X166635368Y-130283507D01*
X166651409Y-130283500D01*
X171461202Y-130283500D01*
X171528241Y-130303185D01*
X171573996Y-130355989D01*
X171583940Y-130425147D01*
X171554915Y-130488703D01*
X171548883Y-130495181D01*
X171544481Y-130499582D01*
X171544477Y-130499587D01*
X171529263Y-130525941D01*
X171529262Y-130525943D01*
X171482175Y-130607500D01*
X171431608Y-130655716D01*
X171374788Y-130669500D01*
X170987129Y-130669500D01*
X170987123Y-130669501D01*
X170927516Y-130675908D01*
X170792671Y-130726202D01*
X170792664Y-130726206D01*
X170677455Y-130812452D01*
X170677452Y-130812455D01*
X170591206Y-130927664D01*
X170591202Y-130927671D01*
X170540908Y-131062517D01*
X170534501Y-131122116D01*
X170534501Y-131122123D01*
X170534500Y-131122135D01*
X170534500Y-135177870D01*
X170534501Y-135177876D01*
X170536670Y-135198051D01*
X170524263Y-135266810D01*
X170476652Y-135317947D01*
X170413283Y-135335304D01*
X168238548Y-135333602D01*
X168171524Y-135313865D01*
X168125810Y-135261025D01*
X168115921Y-135191859D01*
X168144996Y-135128326D01*
X168150953Y-135121932D01*
X168161890Y-135110996D01*
X168299790Y-134921192D01*
X168406301Y-134712153D01*
X168478799Y-134489026D01*
X168515500Y-134257305D01*
X168515500Y-132042695D01*
X168478799Y-131810974D01*
X168406301Y-131587847D01*
X168299790Y-131378808D01*
X168220190Y-131269247D01*
X168161895Y-131189010D01*
X168161891Y-131189005D01*
X167995994Y-131023108D01*
X167995989Y-131023104D01*
X167806195Y-130885212D01*
X167806194Y-130885211D01*
X167806192Y-130885210D01*
X167687413Y-130824689D01*
X167597150Y-130778697D01*
X167374027Y-130706201D01*
X167258165Y-130687850D01*
X167142305Y-130669500D01*
X166907695Y-130669500D01*
X166830454Y-130681733D01*
X166675972Y-130706201D01*
X166452849Y-130778697D01*
X166243804Y-130885212D01*
X166054010Y-131023104D01*
X166054005Y-131023108D01*
X165888108Y-131189005D01*
X165888104Y-131189010D01*
X165750212Y-131378804D01*
X165643697Y-131587849D01*
X165571201Y-131810972D01*
X165534500Y-132042695D01*
X165534500Y-134257304D01*
X165571201Y-134489027D01*
X165643697Y-134712150D01*
X165750212Y-134921195D01*
X165888104Y-135110989D01*
X165888106Y-135110992D01*
X165897134Y-135120020D01*
X165930619Y-135181343D01*
X165925635Y-135251035D01*
X165883763Y-135306968D01*
X165818299Y-135331385D01*
X165809356Y-135331701D01*
X162112221Y-135328807D01*
X162045197Y-135309070D01*
X161999483Y-135256230D01*
X161989029Y-135191551D01*
X161990500Y-135177873D01*
X161990499Y-131329499D01*
X162010184Y-131262461D01*
X162062988Y-131216706D01*
X162114499Y-131205500D01*
X162899986Y-131205500D01*
X162961985Y-131222112D01*
X163018215Y-131254577D01*
X163170943Y-131295501D01*
X163170946Y-131295501D01*
X163329054Y-131295501D01*
X163329057Y-131295501D01*
X163481785Y-131254577D01*
X163618716Y-131175519D01*
X165368021Y-129426213D01*
X165429342Y-129392730D01*
X165499034Y-129397714D01*
G37*
%TD.AperFunction*%
%TA.AperFunction,NonConductor*%
G36*
X188042084Y-46195766D02*
G01*
X188087894Y-46248522D01*
X188099153Y-46300220D01*
X188049846Y-135225079D01*
X188030124Y-135292107D01*
X187977295Y-135337833D01*
X187925749Y-135349010D01*
X173636251Y-135337826D01*
X173569227Y-135318089D01*
X173523513Y-135265249D01*
X173513059Y-135200570D01*
X173515500Y-135177873D01*
X173515499Y-131122128D01*
X173509091Y-131062517D01*
X173494392Y-131023108D01*
X173458797Y-130927671D01*
X173458793Y-130927664D01*
X173372547Y-130812455D01*
X173372544Y-130812452D01*
X173257335Y-130726206D01*
X173257328Y-130726202D01*
X173122482Y-130675908D01*
X173122483Y-130675908D01*
X173062883Y-130669501D01*
X173062881Y-130669500D01*
X173062873Y-130669500D01*
X173062865Y-130669500D01*
X172989500Y-130669500D01*
X172922461Y-130649815D01*
X172876706Y-130597011D01*
X172865500Y-130545500D01*
X172865500Y-130189999D01*
X175893957Y-130189999D01*
X175893957Y-130190000D01*
X175914484Y-130411535D01*
X175914485Y-130411537D01*
X175975369Y-130625523D01*
X175975375Y-130625538D01*
X176074538Y-130824683D01*
X176074543Y-130824691D01*
X176208620Y-131002238D01*
X176373037Y-131152123D01*
X176373039Y-131152125D01*
X176562195Y-131269245D01*
X176562196Y-131269245D01*
X176562199Y-131269247D01*
X176769660Y-131349618D01*
X176988357Y-131390500D01*
X176988359Y-131390500D01*
X177210841Y-131390500D01*
X177210843Y-131390500D01*
X177429540Y-131349618D01*
X177637001Y-131269247D01*
X177826162Y-131152124D01*
X177975794Y-131015716D01*
X177990579Y-131002238D01*
X178046890Y-130927671D01*
X178124658Y-130824689D01*
X178223829Y-130625528D01*
X178284715Y-130411536D01*
X178305243Y-130190000D01*
X178297484Y-130106271D01*
X178284715Y-129968464D01*
X178284714Y-129968462D01*
X178283966Y-129965834D01*
X178223829Y-129754472D01*
X178223824Y-129754461D01*
X178124661Y-129555316D01*
X178124656Y-129555308D01*
X177990579Y-129377761D01*
X177826162Y-129227876D01*
X177826160Y-129227874D01*
X177637004Y-129110754D01*
X177636998Y-129110752D01*
X177429540Y-129030382D01*
X177210843Y-128989500D01*
X176988357Y-128989500D01*
X176769660Y-129030382D01*
X176638464Y-129081207D01*
X176562201Y-129110752D01*
X176562195Y-129110754D01*
X176373039Y-129227874D01*
X176373037Y-129227876D01*
X176208620Y-129377761D01*
X176074543Y-129555308D01*
X176074538Y-129555316D01*
X175975375Y-129754461D01*
X175975369Y-129754476D01*
X175914485Y-129968462D01*
X175914484Y-129968464D01*
X175893957Y-130189999D01*
X172865500Y-130189999D01*
X172865500Y-129983097D01*
X172885185Y-129916058D01*
X172901819Y-129895416D01*
X174077078Y-128720157D01*
X174077089Y-128720144D01*
X174760417Y-128036819D01*
X174821740Y-128003334D01*
X174848098Y-128000500D01*
X175217588Y-128000500D01*
X175284627Y-128020185D01*
X175294903Y-128027555D01*
X175297736Y-128029814D01*
X175297738Y-128029816D01*
X175450478Y-128125789D01*
X175606770Y-128180478D01*
X175620745Y-128185368D01*
X175620750Y-128185369D01*
X175799996Y-128205565D01*
X175800000Y-128205565D01*
X175800004Y-128205565D01*
X175979249Y-128185369D01*
X175979252Y-128185368D01*
X175979255Y-128185368D01*
X176149522Y-128125789D01*
X176302262Y-128029816D01*
X176429816Y-127902262D01*
X176525789Y-127749522D01*
X176585368Y-127579255D01*
X176585369Y-127579249D01*
X176605565Y-127400003D01*
X176605565Y-127399996D01*
X176585369Y-127220750D01*
X176585368Y-127220745D01*
X176541589Y-127095632D01*
X176525789Y-127050478D01*
X176501057Y-127011118D01*
X176462654Y-126950000D01*
X176429816Y-126897738D01*
X176302262Y-126770184D01*
X176256020Y-126741128D01*
X176149523Y-126674211D01*
X175979254Y-126614631D01*
X175979249Y-126614630D01*
X175800004Y-126594435D01*
X175799996Y-126594435D01*
X175620750Y-126614630D01*
X175620745Y-126614631D01*
X175450476Y-126674211D01*
X175297736Y-126770185D01*
X175294903Y-126772445D01*
X175292724Y-126773334D01*
X175291842Y-126773889D01*
X175291744Y-126773734D01*
X175230217Y-126798855D01*
X175217588Y-126799500D01*
X174634670Y-126799500D01*
X174634654Y-126799499D01*
X174627058Y-126799499D01*
X174468943Y-126799499D01*
X174392579Y-126819961D01*
X174316214Y-126840423D01*
X174316209Y-126840426D01*
X174179290Y-126919475D01*
X174179282Y-126919481D01*
X173169284Y-127929481D01*
X172052584Y-129046181D01*
X171991261Y-129079666D01*
X171964903Y-129082500D01*
X166949912Y-129082500D01*
X166882873Y-129062815D01*
X166862269Y-129046220D01*
X166860414Y-129044367D01*
X165933602Y-128118366D01*
X165933606Y-128118361D01*
X165933563Y-128118327D01*
X165876718Y-128061482D01*
X165876716Y-128061480D01*
X165876713Y-128061478D01*
X165876509Y-128061321D01*
X165847965Y-128044858D01*
X165808621Y-128022166D01*
X165779568Y-128005392D01*
X165739782Y-127982421D01*
X165739544Y-127982323D01*
X165663005Y-127961850D01*
X165663006Y-127961843D01*
X165662953Y-127961836D01*
X165638855Y-127955379D01*
X165587057Y-127941500D01*
X165587056Y-127941500D01*
X165587049Y-127941498D01*
X165586792Y-127941464D01*
X165506626Y-127941499D01*
X165506591Y-127941500D01*
X165489670Y-127941500D01*
X165489654Y-127941499D01*
X165482058Y-127941499D01*
X165323943Y-127941499D01*
X165171215Y-127982423D01*
X165034560Y-128061321D01*
X165034281Y-128061482D01*
X163127584Y-129968181D01*
X163066261Y-130001666D01*
X163039903Y-130004500D01*
X160409098Y-130004500D01*
X160342059Y-129984815D01*
X160296304Y-129932011D01*
X160286360Y-129862853D01*
X160315385Y-129799297D01*
X160321417Y-129792819D01*
X160339736Y-129774500D01*
X160371520Y-129742716D01*
X160371520Y-129742714D01*
X160381724Y-129732511D01*
X160381728Y-129732506D01*
X164700535Y-125413698D01*
X164761856Y-125380215D01*
X164774311Y-125378163D01*
X164861255Y-125368368D01*
X165031522Y-125308789D01*
X165184262Y-125212816D01*
X165311816Y-125085262D01*
X165407789Y-124932522D01*
X165467368Y-124762255D01*
X165471662Y-124724147D01*
X165475215Y-124692616D01*
X165502281Y-124628202D01*
X165559876Y-124588647D01*
X165598435Y-124582500D01*
X174669903Y-124582500D01*
X174736942Y-124602185D01*
X174757584Y-124618819D01*
X175613139Y-125474374D01*
X175613149Y-125474385D01*
X175617479Y-125478715D01*
X175617480Y-125478716D01*
X175729284Y-125590520D01*
X175816095Y-125640639D01*
X175816097Y-125640641D01*
X175854151Y-125662611D01*
X175866215Y-125669577D01*
X176015108Y-125709473D01*
X176074766Y-125745837D01*
X176081966Y-125754520D01*
X176208620Y-125922238D01*
X176373037Y-126072123D01*
X176373039Y-126072125D01*
X176562195Y-126189245D01*
X176562196Y-126189245D01*
X176562199Y-126189247D01*
X176769660Y-126269618D01*
X176988357Y-126310500D01*
X176988359Y-126310500D01*
X177210841Y-126310500D01*
X177210843Y-126310500D01*
X177349152Y-126284645D01*
X177418667Y-126291676D01*
X177459618Y-126318853D01*
X180411072Y-129270307D01*
X180444557Y-129331630D01*
X180439573Y-129401322D01*
X180438584Y-129403885D01*
X180342674Y-129644600D01*
X180342672Y-129644607D01*
X180246932Y-129989434D01*
X180246926Y-129989460D01*
X180189029Y-130342614D01*
X180189028Y-130342631D01*
X180169675Y-130699585D01*
X180169652Y-130700000D01*
X180187170Y-131023110D01*
X180189028Y-131057368D01*
X180189029Y-131057385D01*
X180246926Y-131410539D01*
X180246932Y-131410565D01*
X180342672Y-131755392D01*
X180342674Y-131755399D01*
X180475142Y-132087870D01*
X180475151Y-132087888D01*
X180642784Y-132404077D01*
X180642787Y-132404082D01*
X180642789Y-132404085D01*
X180809184Y-132649500D01*
X180843634Y-132700309D01*
X180843641Y-132700319D01*
X181040208Y-132931735D01*
X181075332Y-132973086D01*
X181335163Y-133219211D01*
X181620081Y-133435800D01*
X181926747Y-133620315D01*
X181926749Y-133620316D01*
X181926751Y-133620317D01*
X181926755Y-133620319D01*
X182164948Y-133730518D01*
X182251565Y-133770591D01*
X182590726Y-133884868D01*
X182940254Y-133961805D01*
X183296052Y-134000500D01*
X183296058Y-134000500D01*
X183653942Y-134000500D01*
X183653948Y-134000500D01*
X184009746Y-133961805D01*
X184359274Y-133884868D01*
X184698435Y-133770591D01*
X185023253Y-133620315D01*
X185329919Y-133435800D01*
X185614837Y-133219211D01*
X185874668Y-132973086D01*
X186106365Y-132700311D01*
X186307211Y-132404085D01*
X186474853Y-132087880D01*
X186607324Y-131755403D01*
X186703071Y-131410552D01*
X186736511Y-131206575D01*
X186760970Y-131057385D01*
X186760970Y-131057382D01*
X186760972Y-131057371D01*
X186780348Y-130700000D01*
X186780325Y-130699585D01*
X186774764Y-130597011D01*
X186760972Y-130342629D01*
X186754505Y-130303185D01*
X186703073Y-129989460D01*
X186703072Y-129989459D01*
X186703071Y-129989448D01*
X186650276Y-129799297D01*
X186607327Y-129644607D01*
X186607325Y-129644600D01*
X186580282Y-129576728D01*
X186537444Y-129469211D01*
X186474857Y-129312129D01*
X186474848Y-129312111D01*
X186444987Y-129255788D01*
X186392849Y-129157444D01*
X186307215Y-128995922D01*
X186307213Y-128995919D01*
X186307211Y-128995915D01*
X186106365Y-128699689D01*
X186106361Y-128699684D01*
X186106358Y-128699680D01*
X185874668Y-128426914D01*
X185821986Y-128377011D01*
X185614837Y-128180789D01*
X185614830Y-128180783D01*
X185614827Y-128180781D01*
X185413502Y-128027738D01*
X185329919Y-127964200D01*
X185329916Y-127964198D01*
X185191571Y-127880958D01*
X185144276Y-127829528D01*
X185131500Y-127774708D01*
X185131500Y-53770416D01*
X185151185Y-53703377D01*
X185191569Y-53664167D01*
X185404919Y-53535800D01*
X185689837Y-53319211D01*
X185949668Y-53073086D01*
X186181365Y-52800311D01*
X186382211Y-52504085D01*
X186549853Y-52187880D01*
X186682324Y-51855403D01*
X186778071Y-51510552D01*
X186796616Y-51397434D01*
X186835970Y-51157385D01*
X186835970Y-51157382D01*
X186835972Y-51157371D01*
X186855348Y-50800000D01*
X186835972Y-50442629D01*
X186829751Y-50404685D01*
X186778073Y-50089460D01*
X186778072Y-50089459D01*
X186778071Y-50089448D01*
X186682324Y-49744597D01*
X186549853Y-49412120D01*
X186382211Y-49095915D01*
X186181365Y-48799689D01*
X186181361Y-48799684D01*
X186181358Y-48799680D01*
X185949668Y-48526914D01*
X185689837Y-48280789D01*
X185689830Y-48280783D01*
X185689827Y-48280781D01*
X185622245Y-48229407D01*
X185404919Y-48064200D01*
X185098253Y-47879685D01*
X185098252Y-47879684D01*
X185098248Y-47879682D01*
X185098244Y-47879680D01*
X184773447Y-47729414D01*
X184773441Y-47729411D01*
X184773435Y-47729409D01*
X184603854Y-47672270D01*
X184434273Y-47615131D01*
X184084744Y-47538194D01*
X183728949Y-47499500D01*
X183728948Y-47499500D01*
X183371052Y-47499500D01*
X183371050Y-47499500D01*
X183015255Y-47538194D01*
X182665726Y-47615131D01*
X182409970Y-47701306D01*
X182326565Y-47729409D01*
X182326563Y-47729410D01*
X182326552Y-47729414D01*
X182001755Y-47879680D01*
X182001751Y-47879682D01*
X181773367Y-48017096D01*
X181695081Y-48064200D01*
X181606768Y-48131333D01*
X181410172Y-48280781D01*
X181410163Y-48280789D01*
X181150331Y-48526914D01*
X180918641Y-48799680D01*
X180918634Y-48799690D01*
X180717790Y-49095913D01*
X180717784Y-49095922D01*
X180550151Y-49412111D01*
X180550142Y-49412129D01*
X180417674Y-49744600D01*
X180417672Y-49744607D01*
X180321932Y-50089434D01*
X180321926Y-50089460D01*
X180264029Y-50442614D01*
X180264028Y-50442627D01*
X180264028Y-50442629D01*
X180244652Y-50800000D01*
X180257477Y-51036553D01*
X180264028Y-51157368D01*
X180264029Y-51157385D01*
X180321926Y-51510539D01*
X180321932Y-51510565D01*
X180417672Y-51855392D01*
X180417674Y-51855399D01*
X180550142Y-52187870D01*
X180550151Y-52187888D01*
X180717784Y-52504077D01*
X180717787Y-52504082D01*
X180717789Y-52504085D01*
X180819755Y-52654474D01*
X180918634Y-52800309D01*
X180918641Y-52800319D01*
X181134864Y-53054876D01*
X181150332Y-53073086D01*
X181410163Y-53319211D01*
X181695081Y-53535800D01*
X182001747Y-53720315D01*
X182001749Y-53720316D01*
X182001751Y-53720317D01*
X182001755Y-53720319D01*
X182313611Y-53864598D01*
X182326565Y-53870591D01*
X182665726Y-53984868D01*
X183015254Y-54061805D01*
X183371052Y-54100500D01*
X183371058Y-54100500D01*
X183728942Y-54100500D01*
X183728948Y-54100500D01*
X183793095Y-54093523D01*
X183861867Y-54105843D01*
X183913063Y-54153390D01*
X183930500Y-54216796D01*
X183930500Y-56768104D01*
X183910815Y-56835143D01*
X183858011Y-56880898D01*
X183788853Y-56890842D01*
X183763167Y-56884286D01*
X183687082Y-56855908D01*
X183687083Y-56855908D01*
X183627483Y-56849501D01*
X183627481Y-56849500D01*
X183627473Y-56849500D01*
X183627464Y-56849500D01*
X176191729Y-56849500D01*
X176191723Y-56849501D01*
X176132116Y-56855908D01*
X175997271Y-56906202D01*
X175997264Y-56906206D01*
X175882055Y-56992452D01*
X175882052Y-56992455D01*
X175795806Y-57107664D01*
X175795802Y-57107671D01*
X175745508Y-57242517D01*
X175739101Y-57302116D01*
X175739101Y-57302123D01*
X175739100Y-57302135D01*
X175739100Y-63747870D01*
X175739101Y-63747876D01*
X175745508Y-63807483D01*
X175795802Y-63942328D01*
X175795806Y-63942335D01*
X175882052Y-64057544D01*
X175882055Y-64057547D01*
X175997264Y-64143793D01*
X175997271Y-64143797D01*
X176132117Y-64194091D01*
X176132116Y-64194091D01*
X176139044Y-64194835D01*
X176191727Y-64200500D01*
X178519099Y-64200499D01*
X178586138Y-64220184D01*
X178631893Y-64272987D01*
X178641837Y-64342146D01*
X178636141Y-64365453D01*
X178624632Y-64398342D01*
X178624630Y-64398350D01*
X178604435Y-64577596D01*
X178604435Y-64577603D01*
X178624630Y-64756849D01*
X178624631Y-64756854D01*
X178684211Y-64927123D01*
X178748280Y-65029087D01*
X178780184Y-65079862D01*
X178907738Y-65207416D01*
X179060478Y-65303389D01*
X179230745Y-65362968D01*
X179230750Y-65362969D01*
X179317787Y-65372775D01*
X179382201Y-65399841D01*
X179391574Y-65408302D01*
X179523169Y-65539861D01*
X179556663Y-65601179D01*
X179559500Y-65627554D01*
X179559500Y-80100500D01*
X179539815Y-80167539D01*
X179487011Y-80213294D01*
X179435500Y-80224500D01*
X176441729Y-80224500D01*
X176441723Y-80224501D01*
X176382116Y-80230908D01*
X176247271Y-80281202D01*
X176247264Y-80281206D01*
X176132055Y-80367452D01*
X176132052Y-80367455D01*
X176045806Y-80482664D01*
X176045802Y-80482671D01*
X175995508Y-80617517D01*
X175989101Y-80677116D01*
X175989101Y-80677123D01*
X175989100Y-80677135D01*
X175989100Y-87122870D01*
X175989101Y-87122876D01*
X175995508Y-87182483D01*
X176045802Y-87317328D01*
X176045806Y-87317335D01*
X176132052Y-87432544D01*
X176132055Y-87432547D01*
X176247264Y-87518793D01*
X176247271Y-87518797D01*
X176382117Y-87569091D01*
X176382116Y-87569091D01*
X176388693Y-87569798D01*
X176441727Y-87575500D01*
X179435500Y-87575499D01*
X179502539Y-87595184D01*
X179548294Y-87647988D01*
X179559500Y-87699499D01*
X179559500Y-102886330D01*
X179559499Y-102886348D01*
X179559499Y-103050500D01*
X179539814Y-103117539D01*
X179487010Y-103163294D01*
X179435499Y-103174500D01*
X176841729Y-103174500D01*
X176841723Y-103174501D01*
X176782116Y-103180908D01*
X176647271Y-103231202D01*
X176647264Y-103231206D01*
X176532055Y-103317452D01*
X176532052Y-103317455D01*
X176445806Y-103432664D01*
X176445802Y-103432671D01*
X176395508Y-103567517D01*
X176389101Y-103627116D01*
X176389101Y-103627123D01*
X176389100Y-103627135D01*
X176389100Y-106125500D01*
X176369415Y-106192539D01*
X176316611Y-106238294D01*
X176265100Y-106249500D01*
X143910940Y-106249500D01*
X143870019Y-106260464D01*
X143870019Y-106260465D01*
X143832751Y-106270451D01*
X143758214Y-106290423D01*
X143758209Y-106290426D01*
X143621290Y-106369475D01*
X143621282Y-106369481D01*
X143509478Y-106481286D01*
X126127584Y-123863181D01*
X126066261Y-123896666D01*
X126039903Y-123899500D01*
X125200098Y-123899500D01*
X125133059Y-123879815D01*
X125112417Y-123863181D01*
X123787590Y-122538355D01*
X123787588Y-122538352D01*
X123668717Y-122419481D01*
X123668716Y-122419480D01*
X123561787Y-122357745D01*
X123561786Y-122357744D01*
X123531783Y-122340422D01*
X123475881Y-122325443D01*
X123379057Y-122299499D01*
X123220943Y-122299499D01*
X123213347Y-122299499D01*
X123213331Y-122299500D01*
X121382412Y-122299500D01*
X121315373Y-122279815D01*
X121305097Y-122272445D01*
X121302263Y-122270185D01*
X121302262Y-122270184D01*
X121245496Y-122234515D01*
X121149523Y-122174211D01*
X120979254Y-122114631D01*
X120979249Y-122114630D01*
X120800004Y-122094435D01*
X120799996Y-122094435D01*
X120620750Y-122114630D01*
X120620745Y-122114631D01*
X120450476Y-122174211D01*
X120297737Y-122270184D01*
X120170184Y-122397737D01*
X120074211Y-122550476D01*
X120014631Y-122720745D01*
X120014630Y-122720750D01*
X119994435Y-122899996D01*
X119994435Y-122900003D01*
X120014630Y-123079249D01*
X120014631Y-123079254D01*
X120074211Y-123249523D01*
X120156997Y-123381275D01*
X120170184Y-123402262D01*
X120297738Y-123529816D01*
X120360182Y-123569052D01*
X120362496Y-123570506D01*
X120408787Y-123622841D01*
X120419435Y-123691894D01*
X120391060Y-123755743D01*
X120332670Y-123794115D01*
X120296524Y-123799500D01*
X117530012Y-123799500D01*
X117462973Y-123779815D01*
X117417218Y-123727011D01*
X117407274Y-123657853D01*
X117428194Y-123609467D01*
X117426111Y-123608158D01*
X117429816Y-123602262D01*
X117525789Y-123449522D01*
X117585368Y-123279255D01*
X117585380Y-123279147D01*
X117605565Y-123100003D01*
X117605565Y-123099996D01*
X117585369Y-122920750D01*
X117585368Y-122920745D01*
X117563541Y-122858368D01*
X117525789Y-122750478D01*
X117507106Y-122720745D01*
X117426111Y-122591842D01*
X117427436Y-122591009D01*
X117404156Y-122534000D01*
X117403513Y-122520736D01*
X117406995Y-121849914D01*
X117427027Y-121782980D01*
X117480068Y-121737500D01*
X117531036Y-121729602D01*
X117531036Y-121726565D01*
X117538004Y-121726565D01*
X117717249Y-121706369D01*
X117717252Y-121706368D01*
X117717255Y-121706368D01*
X117887522Y-121646789D01*
X118040262Y-121550816D01*
X118040267Y-121550810D01*
X118043097Y-121548555D01*
X118045275Y-121547665D01*
X118046158Y-121547111D01*
X118046255Y-121547265D01*
X118107783Y-121522145D01*
X118120412Y-121521500D01*
X126476874Y-121521500D01*
X126478018Y-121521574D01*
X126485456Y-121521567D01*
X126485458Y-121521568D01*
X126564516Y-121521500D01*
X126643057Y-121521500D01*
X126643063Y-121521498D01*
X126643284Y-121521469D01*
X126643358Y-121521460D01*
X126643567Y-121521432D01*
X126643573Y-121521432D01*
X126699449Y-121506407D01*
X126719998Y-121500883D01*
X126720002Y-121500901D01*
X126720095Y-121500856D01*
X126795784Y-121480577D01*
X126795790Y-121480572D01*
X126796050Y-121480466D01*
X126796257Y-121480379D01*
X126796265Y-121480378D01*
X126809883Y-121472500D01*
X126864510Y-121440898D01*
X126864512Y-121440902D01*
X126864592Y-121440850D01*
X126932716Y-121401520D01*
X126932719Y-121401516D01*
X126933124Y-121401205D01*
X126933128Y-121401203D01*
X126988415Y-121345820D01*
X127044520Y-121289716D01*
X127044522Y-121289711D01*
X127049875Y-121284359D01*
X127050609Y-121283518D01*
X127165247Y-121168684D01*
X127226539Y-121135149D01*
X127239114Y-121133073D01*
X127270255Y-121129564D01*
X127325249Y-121123369D01*
X127325252Y-121123368D01*
X127325255Y-121123368D01*
X127495522Y-121063789D01*
X127648262Y-120967816D01*
X127775816Y-120840262D01*
X127871789Y-120687522D01*
X127931368Y-120517255D01*
X127936979Y-120467455D01*
X127951565Y-120338003D01*
X127951565Y-120337996D01*
X127931369Y-120158750D01*
X127931368Y-120158745D01*
X127880903Y-120014524D01*
X127871789Y-119988478D01*
X127775816Y-119835738D01*
X127648262Y-119708184D01*
X127579540Y-119665003D01*
X127495523Y-119612211D01*
X127325254Y-119552631D01*
X127325249Y-119552630D01*
X127146004Y-119532435D01*
X127145996Y-119532435D01*
X126966750Y-119552630D01*
X126966745Y-119552631D01*
X126796476Y-119612211D01*
X126643737Y-119708184D01*
X126516184Y-119835737D01*
X126420210Y-119988478D01*
X126360630Y-120158750D01*
X126354813Y-120210384D01*
X126327747Y-120274798D01*
X126270152Y-120314353D01*
X126231593Y-120320500D01*
X126131891Y-120320500D01*
X126064852Y-120300815D01*
X126019097Y-120248011D01*
X126009153Y-120178853D01*
X126026898Y-120130527D01*
X126099788Y-120014524D01*
X126159368Y-119844254D01*
X126159369Y-119844249D01*
X126179565Y-119665003D01*
X126179565Y-119664996D01*
X126159369Y-119485750D01*
X126159368Y-119485745D01*
X126099788Y-119315476D01*
X126003815Y-119162737D01*
X125876262Y-119035184D01*
X125723521Y-118939210D01*
X125553249Y-118879630D01*
X125466330Y-118869837D01*
X125401916Y-118842770D01*
X125392533Y-118834298D01*
X117288072Y-110729837D01*
X117287618Y-110729381D01*
X117230227Y-110671391D01*
X117225149Y-110666914D01*
X111308590Y-104750355D01*
X111308588Y-104750352D01*
X111189717Y-104631481D01*
X111189716Y-104631480D01*
X111102904Y-104581360D01*
X111102904Y-104581359D01*
X111102900Y-104581358D01*
X111052785Y-104552423D01*
X110900057Y-104511499D01*
X110741943Y-104511499D01*
X110734347Y-104511499D01*
X110734331Y-104511500D01*
X106194099Y-104511500D01*
X106127060Y-104491815D01*
X106081305Y-104439011D01*
X106070099Y-104387500D01*
X106070099Y-103627129D01*
X106070098Y-103627123D01*
X106070097Y-103627116D01*
X106063691Y-103567517D01*
X106013396Y-103432669D01*
X106013395Y-103432668D01*
X106013393Y-103432664D01*
X105927147Y-103317455D01*
X105927144Y-103317452D01*
X105811935Y-103231206D01*
X105811928Y-103231202D01*
X105677082Y-103180908D01*
X105677083Y-103180908D01*
X105617483Y-103174501D01*
X105617481Y-103174500D01*
X105617473Y-103174500D01*
X105617465Y-103174500D01*
X102624500Y-103174500D01*
X102557461Y-103154815D01*
X102511706Y-103102011D01*
X102500500Y-103050500D01*
X102500500Y-98711231D01*
X104004100Y-98711231D01*
X104004100Y-98938768D01*
X104039693Y-99163490D01*
X104110000Y-99379876D01*
X104110001Y-99379879D01*
X104213297Y-99582607D01*
X104347034Y-99766680D01*
X104507920Y-99927566D01*
X104691993Y-100061303D01*
X104791425Y-100111966D01*
X104894720Y-100164598D01*
X104894723Y-100164599D01*
X105002916Y-100199752D01*
X105111111Y-100234907D01*
X105215191Y-100251391D01*
X105335832Y-100270500D01*
X105335837Y-100270500D01*
X105563368Y-100270500D01*
X105672310Y-100253244D01*
X105788089Y-100234907D01*
X106004479Y-100164598D01*
X106207207Y-100061303D01*
X106391280Y-99927566D01*
X106552166Y-99766680D01*
X106685903Y-99582607D01*
X106789198Y-99379879D01*
X106859507Y-99163489D01*
X106877844Y-99047710D01*
X106895100Y-98938768D01*
X106895100Y-98720525D01*
X111654100Y-98720525D01*
X111654100Y-98979474D01*
X111654101Y-98979491D01*
X111687899Y-99236217D01*
X111687900Y-99236222D01*
X111687901Y-99236228D01*
X111687902Y-99236230D01*
X111754924Y-99486364D01*
X111854023Y-99725609D01*
X111854027Y-99725619D01*
X111983506Y-99949883D01*
X112141151Y-100155331D01*
X112141157Y-100155338D01*
X112324261Y-100338442D01*
X112324268Y-100338448D01*
X112529716Y-100496093D01*
X112753980Y-100625572D01*
X112753981Y-100625572D01*
X112753984Y-100625574D01*
X112993234Y-100724675D01*
X113243372Y-100791699D01*
X113500119Y-100825500D01*
X113500126Y-100825500D01*
X113759074Y-100825500D01*
X113759081Y-100825500D01*
X114015828Y-100791699D01*
X114265966Y-100724675D01*
X114505216Y-100625574D01*
X114729484Y-100496093D01*
X114934933Y-100338447D01*
X115118047Y-100155333D01*
X115275693Y-99949884D01*
X115405174Y-99725616D01*
X115504275Y-99486366D01*
X115571299Y-99236228D01*
X115605100Y-98979481D01*
X115605100Y-98720519D01*
X115601810Y-98695525D01*
X167004100Y-98695525D01*
X167004100Y-98954474D01*
X167004101Y-98954491D01*
X167037899Y-99211217D01*
X167037900Y-99211222D01*
X167037901Y-99211228D01*
X167071413Y-99336297D01*
X167104924Y-99461364D01*
X167204023Y-99700609D01*
X167204027Y-99700619D01*
X167333506Y-99924883D01*
X167491151Y-100130331D01*
X167491157Y-100130338D01*
X167674261Y-100313442D01*
X167674268Y-100313448D01*
X167879716Y-100471093D01*
X168103980Y-100600572D01*
X168103981Y-100600572D01*
X168103984Y-100600574D01*
X168343234Y-100699675D01*
X168593372Y-100766699D01*
X168850119Y-100800500D01*
X168850126Y-100800500D01*
X169109074Y-100800500D01*
X169109081Y-100800500D01*
X169365828Y-100766699D01*
X169615966Y-100699675D01*
X169855216Y-100600574D01*
X170079484Y-100471093D01*
X170284933Y-100313447D01*
X170468047Y-100130333D01*
X170625693Y-99924884D01*
X170755174Y-99700616D01*
X170854275Y-99461366D01*
X170921299Y-99211228D01*
X170955100Y-98954481D01*
X170955100Y-98736231D01*
X175714100Y-98736231D01*
X175714100Y-98963768D01*
X175749693Y-99188490D01*
X175820000Y-99404876D01*
X175820001Y-99404879D01*
X175910559Y-99582607D01*
X175923297Y-99607607D01*
X176057034Y-99791680D01*
X176217920Y-99952566D01*
X176401993Y-100086303D01*
X176488403Y-100130331D01*
X176604720Y-100189598D01*
X176604723Y-100189599D01*
X176712916Y-100224752D01*
X176821111Y-100259907D01*
X176925191Y-100276391D01*
X177045832Y-100295500D01*
X177045837Y-100295500D01*
X177273368Y-100295500D01*
X177382310Y-100278244D01*
X177498089Y-100259907D01*
X177714479Y-100189598D01*
X177917207Y-100086303D01*
X178101280Y-99952566D01*
X178262166Y-99791680D01*
X178395903Y-99607607D01*
X178499198Y-99404879D01*
X178569507Y-99188489D01*
X178587844Y-99072710D01*
X178605100Y-98963768D01*
X178605100Y-98736231D01*
X178584393Y-98605499D01*
X178569507Y-98511511D01*
X178499198Y-98295121D01*
X178499198Y-98295120D01*
X178395902Y-98092392D01*
X178377739Y-98067393D01*
X178262166Y-97908320D01*
X178101280Y-97747434D01*
X177917207Y-97613697D01*
X177868142Y-97588697D01*
X177714479Y-97510401D01*
X177714476Y-97510400D01*
X177498090Y-97440093D01*
X177273368Y-97404500D01*
X177273363Y-97404500D01*
X177045837Y-97404500D01*
X177045832Y-97404500D01*
X176821109Y-97440093D01*
X176604723Y-97510400D01*
X176604720Y-97510401D01*
X176401992Y-97613697D01*
X176296972Y-97689998D01*
X176217920Y-97747434D01*
X176217918Y-97747436D01*
X176217917Y-97747436D01*
X176057036Y-97908317D01*
X176057036Y-97908318D01*
X176057034Y-97908320D01*
X176027202Y-97949380D01*
X175923297Y-98092392D01*
X175820001Y-98295120D01*
X175820000Y-98295123D01*
X175749693Y-98511509D01*
X175714100Y-98736231D01*
X170955100Y-98736231D01*
X170955100Y-98695519D01*
X170921299Y-98438772D01*
X170854275Y-98188634D01*
X170755174Y-97949384D01*
X170625693Y-97725116D01*
X170623635Y-97722434D01*
X170468048Y-97519668D01*
X170468042Y-97519661D01*
X170284938Y-97336557D01*
X170284931Y-97336551D01*
X170079483Y-97178906D01*
X169855219Y-97049427D01*
X169855209Y-97049423D01*
X169615964Y-96950324D01*
X169459133Y-96908302D01*
X169365828Y-96883301D01*
X169365822Y-96883300D01*
X169365817Y-96883299D01*
X169109091Y-96849501D01*
X169109086Y-96849500D01*
X169109081Y-96849500D01*
X168850119Y-96849500D01*
X168850113Y-96849500D01*
X168850108Y-96849501D01*
X168593382Y-96883299D01*
X168593375Y-96883300D01*
X168593372Y-96883301D01*
X168540508Y-96897465D01*
X168343235Y-96950324D01*
X168103990Y-97049423D01*
X168103980Y-97049427D01*
X167879716Y-97178906D01*
X167674268Y-97336551D01*
X167674261Y-97336557D01*
X167491157Y-97519661D01*
X167491151Y-97519668D01*
X167333506Y-97725116D01*
X167204027Y-97949380D01*
X167204023Y-97949390D01*
X167104924Y-98188635D01*
X167037902Y-98438769D01*
X167037899Y-98438782D01*
X167004101Y-98695508D01*
X167004100Y-98695525D01*
X115601810Y-98695525D01*
X115571299Y-98463772D01*
X115504275Y-98213634D01*
X115405174Y-97974384D01*
X115390740Y-97949384D01*
X115275693Y-97750116D01*
X115118048Y-97544668D01*
X115118042Y-97544661D01*
X114934938Y-97361557D01*
X114934931Y-97361551D01*
X114729483Y-97203906D01*
X114505219Y-97074427D01*
X114505209Y-97074423D01*
X114265964Y-96975324D01*
X114140897Y-96941813D01*
X114015828Y-96908301D01*
X114015822Y-96908300D01*
X114015817Y-96908299D01*
X113759091Y-96874501D01*
X113759086Y-96874500D01*
X113759081Y-96874500D01*
X113500119Y-96874500D01*
X113500113Y-96874500D01*
X113500108Y-96874501D01*
X113243382Y-96908299D01*
X113243375Y-96908300D01*
X113243372Y-96908301D01*
X113190508Y-96922465D01*
X112993235Y-96975324D01*
X112753990Y-97074423D01*
X112753980Y-97074427D01*
X112529716Y-97203906D01*
X112324268Y-97361551D01*
X112324261Y-97361557D01*
X112141157Y-97544661D01*
X112141151Y-97544668D01*
X111983506Y-97750116D01*
X111854027Y-97974380D01*
X111854023Y-97974390D01*
X111754924Y-98213635D01*
X111687902Y-98463769D01*
X111687899Y-98463782D01*
X111654101Y-98720508D01*
X111654100Y-98720525D01*
X106895100Y-98720525D01*
X106895100Y-98711231D01*
X106874393Y-98580499D01*
X106859507Y-98486511D01*
X106789198Y-98270121D01*
X106789198Y-98270120D01*
X106698641Y-98092393D01*
X106685903Y-98067393D01*
X106552166Y-97883320D01*
X106391280Y-97722434D01*
X106207207Y-97588697D01*
X106004479Y-97485401D01*
X106004476Y-97485400D01*
X105788090Y-97415093D01*
X105563368Y-97379500D01*
X105563363Y-97379500D01*
X105335837Y-97379500D01*
X105335832Y-97379500D01*
X105111109Y-97415093D01*
X104894723Y-97485400D01*
X104894720Y-97485401D01*
X104691992Y-97588697D01*
X104657583Y-97613697D01*
X104507920Y-97722434D01*
X104507918Y-97722436D01*
X104507917Y-97722436D01*
X104347036Y-97883317D01*
X104347036Y-97883318D01*
X104347034Y-97883320D01*
X104299039Y-97949380D01*
X104213297Y-98067392D01*
X104110001Y-98270120D01*
X104110000Y-98270123D01*
X104039693Y-98486509D01*
X104004100Y-98711231D01*
X102500500Y-98711231D01*
X102500500Y-91670525D01*
X111154100Y-91670525D01*
X111154100Y-91929474D01*
X111154101Y-91929491D01*
X111187899Y-92186217D01*
X111187900Y-92186222D01*
X111187901Y-92186228D01*
X111187902Y-92186230D01*
X111254924Y-92436364D01*
X111354023Y-92675609D01*
X111354027Y-92675619D01*
X111483506Y-92899883D01*
X111641151Y-93105331D01*
X111641157Y-93105338D01*
X111824261Y-93288442D01*
X111824268Y-93288448D01*
X112029716Y-93446093D01*
X112253980Y-93575572D01*
X112253981Y-93575572D01*
X112253984Y-93575574D01*
X112493234Y-93674675D01*
X112743372Y-93741699D01*
X113000119Y-93775500D01*
X113000126Y-93775500D01*
X113259074Y-93775500D01*
X113259081Y-93775500D01*
X113515828Y-93741699D01*
X113765966Y-93674675D01*
X114005216Y-93575574D01*
X114229484Y-93446093D01*
X114434933Y-93288447D01*
X114618047Y-93105333D01*
X114775693Y-92899884D01*
X114905174Y-92675616D01*
X115004275Y-92436366D01*
X115071299Y-92186228D01*
X115105100Y-91929481D01*
X115105100Y-91770525D01*
X166454100Y-91770525D01*
X166454100Y-92029474D01*
X166454101Y-92029491D01*
X166487899Y-92286217D01*
X166487900Y-92286222D01*
X166487901Y-92286228D01*
X166487902Y-92286230D01*
X166554924Y-92536364D01*
X166654023Y-92775609D01*
X166654027Y-92775619D01*
X166783506Y-92999883D01*
X166941151Y-93205331D01*
X166941157Y-93205338D01*
X167124261Y-93388442D01*
X167124268Y-93388448D01*
X167329716Y-93546093D01*
X167553980Y-93675572D01*
X167553981Y-93675572D01*
X167553984Y-93675574D01*
X167793234Y-93774675D01*
X168043372Y-93841699D01*
X168300119Y-93875500D01*
X168300126Y-93875500D01*
X168559074Y-93875500D01*
X168559081Y-93875500D01*
X168815828Y-93841699D01*
X169065966Y-93774675D01*
X169305216Y-93675574D01*
X169529484Y-93546093D01*
X169734933Y-93388447D01*
X169918047Y-93205333D01*
X170075693Y-92999884D01*
X170205174Y-92775616D01*
X170304275Y-92536366D01*
X170371299Y-92286228D01*
X170405100Y-92029481D01*
X170405100Y-91770519D01*
X170371299Y-91513772D01*
X170304275Y-91263634D01*
X170205174Y-91024384D01*
X170075693Y-90800116D01*
X169918047Y-90594667D01*
X169918042Y-90594661D01*
X169734938Y-90411557D01*
X169734931Y-90411551D01*
X169529483Y-90253906D01*
X169305219Y-90124427D01*
X169305209Y-90124423D01*
X169065964Y-90025324D01*
X168940897Y-89991813D01*
X168815828Y-89958301D01*
X168815822Y-89958300D01*
X168815817Y-89958299D01*
X168559091Y-89924501D01*
X168559086Y-89924500D01*
X168559081Y-89924500D01*
X168300119Y-89924500D01*
X168300113Y-89924500D01*
X168300108Y-89924501D01*
X168043382Y-89958299D01*
X168043375Y-89958300D01*
X168043372Y-89958301D01*
X167990508Y-89972465D01*
X167793235Y-90025324D01*
X167553990Y-90124423D01*
X167553980Y-90124427D01*
X167329716Y-90253906D01*
X167124268Y-90411551D01*
X167124261Y-90411557D01*
X166941157Y-90594661D01*
X166941151Y-90594668D01*
X166783506Y-90800116D01*
X166654027Y-91024380D01*
X166654023Y-91024390D01*
X166554924Y-91263635D01*
X166487902Y-91513769D01*
X166487899Y-91513782D01*
X166454101Y-91770508D01*
X166454100Y-91770525D01*
X115105100Y-91770525D01*
X115105100Y-91670519D01*
X115071299Y-91413772D01*
X115004275Y-91163634D01*
X114905174Y-90924384D01*
X114775693Y-90700116D01*
X114694780Y-90594668D01*
X114618048Y-90494668D01*
X114618042Y-90494661D01*
X114434938Y-90311557D01*
X114434931Y-90311551D01*
X114229483Y-90153906D01*
X114005219Y-90024427D01*
X114005209Y-90024423D01*
X113765964Y-89925324D01*
X113640897Y-89891813D01*
X113515828Y-89858301D01*
X113515822Y-89858300D01*
X113515817Y-89858299D01*
X113259091Y-89824501D01*
X113259086Y-89824500D01*
X113259081Y-89824500D01*
X113000119Y-89824500D01*
X113000113Y-89824500D01*
X113000108Y-89824501D01*
X112743382Y-89858299D01*
X112743375Y-89858300D01*
X112743372Y-89858301D01*
X112690508Y-89872465D01*
X112493235Y-89925324D01*
X112253990Y-90024423D01*
X112253980Y-90024427D01*
X112029716Y-90153906D01*
X111824268Y-90311551D01*
X111824261Y-90311557D01*
X111641157Y-90494661D01*
X111641151Y-90494668D01*
X111483506Y-90700116D01*
X111354027Y-90924380D01*
X111354023Y-90924390D01*
X111254924Y-91163635D01*
X111187902Y-91413769D01*
X111187899Y-91413782D01*
X111154101Y-91670508D01*
X111154100Y-91670525D01*
X102500500Y-91670525D01*
X102500500Y-87699499D01*
X102520185Y-87632460D01*
X102572989Y-87586705D01*
X102624500Y-87575499D01*
X105217471Y-87575499D01*
X105217472Y-87575499D01*
X105277083Y-87569091D01*
X105411931Y-87518796D01*
X105527146Y-87432546D01*
X105613396Y-87317331D01*
X105663691Y-87182483D01*
X105670100Y-87122873D01*
X105670099Y-80677128D01*
X105663691Y-80617517D01*
X105613396Y-80482669D01*
X105613395Y-80482668D01*
X105613393Y-80482664D01*
X105527147Y-80367455D01*
X105527144Y-80367452D01*
X105411935Y-80281206D01*
X105411928Y-80281202D01*
X105277082Y-80230908D01*
X105277083Y-80230908D01*
X105217483Y-80224501D01*
X105217481Y-80224500D01*
X105217473Y-80224500D01*
X105217465Y-80224500D01*
X102224500Y-80224500D01*
X102157461Y-80204815D01*
X102111706Y-80152011D01*
X102100500Y-80100500D01*
X102100500Y-75686231D01*
X103354100Y-75686231D01*
X103354100Y-75913768D01*
X103389693Y-76138490D01*
X103460000Y-76354876D01*
X103460001Y-76354879D01*
X103552473Y-76536364D01*
X103563297Y-76557607D01*
X103697034Y-76741680D01*
X103857920Y-76902566D01*
X104041993Y-77036303D01*
X104141425Y-77086966D01*
X104244720Y-77139598D01*
X104244723Y-77139599D01*
X104352916Y-77174752D01*
X104461111Y-77209907D01*
X104565191Y-77226391D01*
X104685832Y-77245500D01*
X104685837Y-77245500D01*
X104913368Y-77245500D01*
X105022310Y-77228244D01*
X105138089Y-77209907D01*
X105354479Y-77139598D01*
X105557207Y-77036303D01*
X105741280Y-76902566D01*
X105902166Y-76741680D01*
X106035903Y-76557607D01*
X106139198Y-76354879D01*
X106209507Y-76138489D01*
X106229262Y-76013763D01*
X106245100Y-75913768D01*
X106245100Y-75770525D01*
X111254100Y-75770525D01*
X111254100Y-76029474D01*
X111254101Y-76029491D01*
X111287899Y-76286217D01*
X111287900Y-76286222D01*
X111287901Y-76286228D01*
X111287902Y-76286230D01*
X111354924Y-76536364D01*
X111454023Y-76775609D01*
X111454027Y-76775619D01*
X111583506Y-76999883D01*
X111741151Y-77205331D01*
X111741157Y-77205338D01*
X111924261Y-77388442D01*
X111924268Y-77388448D01*
X112129716Y-77546093D01*
X112353980Y-77675572D01*
X112353981Y-77675572D01*
X112353984Y-77675574D01*
X112593234Y-77774675D01*
X112843372Y-77841699D01*
X113100119Y-77875500D01*
X113100126Y-77875500D01*
X113359074Y-77875500D01*
X113359081Y-77875500D01*
X113615828Y-77841699D01*
X113865966Y-77774675D01*
X114105216Y-77675574D01*
X114329484Y-77546093D01*
X114534933Y-77388447D01*
X114718047Y-77205333D01*
X114875693Y-76999884D01*
X115005174Y-76775616D01*
X115104275Y-76536366D01*
X115171299Y-76286228D01*
X115205100Y-76029481D01*
X115205100Y-75770519D01*
X115191936Y-75670525D01*
X166354100Y-75670525D01*
X166354100Y-75929474D01*
X166354101Y-75929491D01*
X166387899Y-76186217D01*
X166387900Y-76186222D01*
X166387901Y-76186228D01*
X166401905Y-76238490D01*
X166454924Y-76436364D01*
X166554023Y-76675609D01*
X166554027Y-76675619D01*
X166683506Y-76899883D01*
X166841151Y-77105331D01*
X166841157Y-77105338D01*
X167024261Y-77288442D01*
X167024268Y-77288448D01*
X167229716Y-77446093D01*
X167453980Y-77575572D01*
X167453981Y-77575572D01*
X167453984Y-77575574D01*
X167693234Y-77674675D01*
X167943372Y-77741699D01*
X168200119Y-77775500D01*
X168200126Y-77775500D01*
X168459074Y-77775500D01*
X168459081Y-77775500D01*
X168715828Y-77741699D01*
X168965966Y-77674675D01*
X169205216Y-77575574D01*
X169429484Y-77446093D01*
X169634933Y-77288447D01*
X169818047Y-77105333D01*
X169975693Y-76899884D01*
X170105174Y-76675616D01*
X170204275Y-76436366D01*
X170271299Y-76186228D01*
X170305100Y-75929481D01*
X170305100Y-75786231D01*
X175314100Y-75786231D01*
X175314100Y-76013768D01*
X175349693Y-76238490D01*
X175420000Y-76454876D01*
X175420001Y-76454879D01*
X175472344Y-76557607D01*
X175523297Y-76657607D01*
X175657034Y-76841680D01*
X175817920Y-77002566D01*
X176001993Y-77136303D01*
X176101425Y-77186966D01*
X176204720Y-77239598D01*
X176204723Y-77239599D01*
X176312916Y-77274752D01*
X176421111Y-77309907D01*
X176525191Y-77326391D01*
X176645832Y-77345500D01*
X176645837Y-77345500D01*
X176873368Y-77345500D01*
X176982310Y-77328244D01*
X177098089Y-77309907D01*
X177314479Y-77239598D01*
X177517207Y-77136303D01*
X177701280Y-77002566D01*
X177862166Y-76841680D01*
X177995903Y-76657607D01*
X178099198Y-76454879D01*
X178169507Y-76238489D01*
X178187844Y-76122710D01*
X178205100Y-76013768D01*
X178205100Y-75786231D01*
X178184393Y-75655499D01*
X178169507Y-75561511D01*
X178099198Y-75345121D01*
X178099198Y-75345120D01*
X178006726Y-75163635D01*
X177995903Y-75142393D01*
X177862166Y-74958320D01*
X177701280Y-74797434D01*
X177517207Y-74663697D01*
X177314479Y-74560401D01*
X177314476Y-74560400D01*
X177098090Y-74490093D01*
X176873368Y-74454500D01*
X176873363Y-74454500D01*
X176645837Y-74454500D01*
X176645832Y-74454500D01*
X176421109Y-74490093D01*
X176204723Y-74560400D01*
X176204720Y-74560401D01*
X176001992Y-74663697D01*
X175896972Y-74739998D01*
X175817920Y-74797434D01*
X175817918Y-74797436D01*
X175817917Y-74797436D01*
X175657036Y-74958317D01*
X175657036Y-74958318D01*
X175657034Y-74958320D01*
X175609039Y-75024380D01*
X175523297Y-75142392D01*
X175420001Y-75345120D01*
X175420000Y-75345123D01*
X175349693Y-75561509D01*
X175314100Y-75786231D01*
X170305100Y-75786231D01*
X170305100Y-75670519D01*
X170271299Y-75413772D01*
X170204275Y-75163634D01*
X170105174Y-74924384D01*
X170031879Y-74797434D01*
X169975693Y-74700116D01*
X169818048Y-74494668D01*
X169818042Y-74494661D01*
X169634938Y-74311557D01*
X169634931Y-74311551D01*
X169429483Y-74153906D01*
X169205219Y-74024427D01*
X169205209Y-74024423D01*
X168965964Y-73925324D01*
X168840897Y-73891813D01*
X168715828Y-73858301D01*
X168715822Y-73858300D01*
X168715817Y-73858299D01*
X168459091Y-73824501D01*
X168459086Y-73824500D01*
X168459081Y-73824500D01*
X168200119Y-73824500D01*
X168200113Y-73824500D01*
X168200108Y-73824501D01*
X167943382Y-73858299D01*
X167943375Y-73858300D01*
X167943372Y-73858301D01*
X167890508Y-73872465D01*
X167693235Y-73925324D01*
X167453990Y-74024423D01*
X167453980Y-74024427D01*
X167229716Y-74153906D01*
X167024268Y-74311551D01*
X167024261Y-74311557D01*
X166841157Y-74494661D01*
X166841151Y-74494668D01*
X166683506Y-74700116D01*
X166554027Y-74924380D01*
X166554023Y-74924390D01*
X166454924Y-75163635D01*
X166387902Y-75413769D01*
X166387899Y-75413782D01*
X166354101Y-75670508D01*
X166354100Y-75670525D01*
X115191936Y-75670525D01*
X115171299Y-75513772D01*
X115104275Y-75263634D01*
X115005174Y-75024384D01*
X114875693Y-74800116D01*
X114796903Y-74697434D01*
X114718048Y-74594668D01*
X114718042Y-74594661D01*
X114534938Y-74411557D01*
X114534931Y-74411551D01*
X114329483Y-74253906D01*
X114105219Y-74124427D01*
X114105209Y-74124423D01*
X113865964Y-74025324D01*
X113740897Y-73991813D01*
X113615828Y-73958301D01*
X113615822Y-73958300D01*
X113615817Y-73958299D01*
X113359091Y-73924501D01*
X113359086Y-73924500D01*
X113359081Y-73924500D01*
X113100119Y-73924500D01*
X113100113Y-73924500D01*
X113100108Y-73924501D01*
X112843382Y-73958299D01*
X112843375Y-73958300D01*
X112843372Y-73958301D01*
X112790508Y-73972465D01*
X112593235Y-74025324D01*
X112353990Y-74124423D01*
X112353980Y-74124427D01*
X112129716Y-74253906D01*
X111924268Y-74411551D01*
X111924261Y-74411557D01*
X111741157Y-74594661D01*
X111741151Y-74594668D01*
X111583506Y-74800116D01*
X111454027Y-75024380D01*
X111454023Y-75024390D01*
X111354924Y-75263635D01*
X111287902Y-75513769D01*
X111287899Y-75513782D01*
X111254101Y-75770508D01*
X111254100Y-75770525D01*
X106245100Y-75770525D01*
X106245100Y-75686231D01*
X106217784Y-75513769D01*
X106209507Y-75461511D01*
X106139198Y-75245121D01*
X106139198Y-75245120D01*
X106035902Y-75042392D01*
X106022823Y-75024390D01*
X105902166Y-74858320D01*
X105741280Y-74697434D01*
X105557207Y-74563697D01*
X105550736Y-74560400D01*
X105354479Y-74460401D01*
X105354476Y-74460400D01*
X105138090Y-74390093D01*
X104913368Y-74354500D01*
X104913363Y-74354500D01*
X104685837Y-74354500D01*
X104685832Y-74354500D01*
X104461109Y-74390093D01*
X104244723Y-74460400D01*
X104244720Y-74460401D01*
X104041992Y-74563697D01*
X103999366Y-74594667D01*
X103857920Y-74697434D01*
X103857918Y-74697436D01*
X103857917Y-74697436D01*
X103697036Y-74858317D01*
X103697036Y-74858318D01*
X103697034Y-74858320D01*
X103649039Y-74924380D01*
X103563297Y-75042392D01*
X103460001Y-75245120D01*
X103460000Y-75245123D01*
X103389693Y-75461509D01*
X103354100Y-75686231D01*
X102100500Y-75686231D01*
X102100500Y-68370525D01*
X111199100Y-68370525D01*
X111199100Y-68629474D01*
X111199101Y-68629491D01*
X111232899Y-68886217D01*
X111232900Y-68886222D01*
X111232901Y-68886228D01*
X111266413Y-69011297D01*
X111299924Y-69136364D01*
X111399023Y-69375609D01*
X111399027Y-69375619D01*
X111528506Y-69599883D01*
X111686151Y-69805331D01*
X111686157Y-69805338D01*
X111869261Y-69988442D01*
X111869268Y-69988448D01*
X112074716Y-70146093D01*
X112298980Y-70275572D01*
X112298981Y-70275572D01*
X112298984Y-70275574D01*
X112538234Y-70374675D01*
X112788372Y-70441699D01*
X113045119Y-70475500D01*
X113045126Y-70475500D01*
X113304074Y-70475500D01*
X113304081Y-70475500D01*
X113560828Y-70441699D01*
X113810966Y-70374675D01*
X114050216Y-70275574D01*
X114274484Y-70146093D01*
X114479933Y-69988447D01*
X114663047Y-69805333D01*
X114820693Y-69599884D01*
X114950174Y-69375616D01*
X115049275Y-69136366D01*
X115116299Y-68886228D01*
X115150100Y-68629481D01*
X115150100Y-68395525D01*
X166204100Y-68395525D01*
X166204100Y-68654474D01*
X166204101Y-68654491D01*
X166237899Y-68911217D01*
X166237900Y-68911222D01*
X166237901Y-68911228D01*
X166237902Y-68911230D01*
X166304924Y-69161364D01*
X166404023Y-69400609D01*
X166404027Y-69400619D01*
X166533506Y-69624883D01*
X166691151Y-69830331D01*
X166691157Y-69830338D01*
X166874261Y-70013442D01*
X166874268Y-70013448D01*
X167079716Y-70171093D01*
X167303980Y-70300572D01*
X167303981Y-70300572D01*
X167303984Y-70300574D01*
X167543234Y-70399675D01*
X167793372Y-70466699D01*
X168050119Y-70500500D01*
X168050126Y-70500500D01*
X168309074Y-70500500D01*
X168309081Y-70500500D01*
X168565828Y-70466699D01*
X168815966Y-70399675D01*
X169055216Y-70300574D01*
X169279484Y-70171093D01*
X169484933Y-70013447D01*
X169668047Y-69830333D01*
X169825693Y-69624884D01*
X169955174Y-69400616D01*
X170054275Y-69161366D01*
X170121299Y-68911228D01*
X170155100Y-68654481D01*
X170155100Y-68395519D01*
X170121299Y-68138772D01*
X170054275Y-67888634D01*
X169955174Y-67649384D01*
X169940740Y-67624384D01*
X169825693Y-67425116D01*
X169668048Y-67219668D01*
X169668042Y-67219661D01*
X169484938Y-67036557D01*
X169484931Y-67036551D01*
X169279483Y-66878906D01*
X169055219Y-66749427D01*
X169055209Y-66749423D01*
X168815964Y-66650324D01*
X168690897Y-66616813D01*
X168565828Y-66583301D01*
X168565822Y-66583300D01*
X168565817Y-66583299D01*
X168309091Y-66549501D01*
X168309086Y-66549500D01*
X168309081Y-66549500D01*
X168050119Y-66549500D01*
X168050113Y-66549500D01*
X168050108Y-66549501D01*
X167793382Y-66583299D01*
X167793375Y-66583300D01*
X167793372Y-66583301D01*
X167740508Y-66597465D01*
X167543235Y-66650324D01*
X167303990Y-66749423D01*
X167303980Y-66749427D01*
X167079716Y-66878906D01*
X166874268Y-67036551D01*
X166874261Y-67036557D01*
X166691157Y-67219661D01*
X166691151Y-67219668D01*
X166533506Y-67425116D01*
X166404027Y-67649380D01*
X166404023Y-67649390D01*
X166304924Y-67888635D01*
X166237902Y-68138769D01*
X166237899Y-68138782D01*
X166204101Y-68395508D01*
X166204100Y-68395525D01*
X115150100Y-68395525D01*
X115150100Y-68370519D01*
X115116299Y-68113772D01*
X115049275Y-67863634D01*
X114950174Y-67624384D01*
X114820693Y-67400116D01*
X114663047Y-67194667D01*
X114663042Y-67194661D01*
X114479938Y-67011557D01*
X114479931Y-67011551D01*
X114274483Y-66853906D01*
X114050219Y-66724427D01*
X114050209Y-66724423D01*
X113810964Y-66625324D01*
X113654133Y-66583302D01*
X113560828Y-66558301D01*
X113560822Y-66558300D01*
X113560817Y-66558299D01*
X113304091Y-66524501D01*
X113304086Y-66524500D01*
X113304081Y-66524500D01*
X113045119Y-66524500D01*
X113045113Y-66524500D01*
X113045108Y-66524501D01*
X112788382Y-66558299D01*
X112788375Y-66558300D01*
X112788372Y-66558301D01*
X112735508Y-66572465D01*
X112538235Y-66625324D01*
X112298990Y-66724423D01*
X112298980Y-66724427D01*
X112074716Y-66853906D01*
X111869268Y-67011551D01*
X111869261Y-67011557D01*
X111686157Y-67194661D01*
X111686151Y-67194668D01*
X111528506Y-67400116D01*
X111399027Y-67624380D01*
X111399023Y-67624390D01*
X111299924Y-67863635D01*
X111232902Y-68113769D01*
X111232899Y-68113782D01*
X111199101Y-68370508D01*
X111199100Y-68370525D01*
X102100500Y-68370525D01*
X102100500Y-64324499D01*
X102120185Y-64257460D01*
X102172989Y-64211705D01*
X102224500Y-64200499D01*
X104967471Y-64200499D01*
X104967472Y-64200499D01*
X105027083Y-64194091D01*
X105161931Y-64143796D01*
X105277146Y-64057546D01*
X105363396Y-63942331D01*
X105413691Y-63807483D01*
X105420100Y-63747873D01*
X105420099Y-57302128D01*
X105413691Y-57242517D01*
X105363396Y-57107669D01*
X105363395Y-57107668D01*
X105363393Y-57107664D01*
X105277147Y-56992455D01*
X105277144Y-56992452D01*
X105161935Y-56906206D01*
X105161928Y-56906202D01*
X105027082Y-56855908D01*
X105027083Y-56855908D01*
X104967483Y-56849501D01*
X104967481Y-56849500D01*
X104967473Y-56849500D01*
X104967465Y-56849500D01*
X98231349Y-56849500D01*
X98164310Y-56829815D01*
X98118555Y-56777011D01*
X98108611Y-56707853D01*
X98137636Y-56644297D01*
X98196414Y-56606523D01*
X98217942Y-56602227D01*
X98235555Y-56600311D01*
X98359746Y-56586805D01*
X98709274Y-56509868D01*
X99048435Y-56395591D01*
X99373253Y-56245315D01*
X99679919Y-56060800D01*
X99964837Y-55844211D01*
X100224668Y-55598086D01*
X100456365Y-55325311D01*
X100657211Y-55029085D01*
X100824853Y-54712880D01*
X100957324Y-54380403D01*
X101053071Y-54035552D01*
X101081097Y-53864599D01*
X101110970Y-53682385D01*
X101110970Y-53682382D01*
X101110972Y-53682371D01*
X101130348Y-53325000D01*
X101110972Y-52967629D01*
X101097627Y-52886230D01*
X101053073Y-52614460D01*
X101053072Y-52614459D01*
X101053071Y-52614448D01*
X100989707Y-52386231D01*
X103399100Y-52386231D01*
X103399100Y-52613768D01*
X103434693Y-52838490D01*
X103505000Y-53054876D01*
X103505001Y-53054879D01*
X103608297Y-53257607D01*
X103742034Y-53441680D01*
X103902920Y-53602566D01*
X104086993Y-53736303D01*
X104153944Y-53770416D01*
X104289720Y-53839598D01*
X104289723Y-53839599D01*
X104385090Y-53870585D01*
X104506111Y-53909907D01*
X104610191Y-53926391D01*
X104730832Y-53945500D01*
X104730837Y-53945500D01*
X104958368Y-53945500D01*
X105067310Y-53928244D01*
X105183089Y-53909907D01*
X105399479Y-53839598D01*
X105602207Y-53736303D01*
X105786280Y-53602566D01*
X105947166Y-53441680D01*
X106080903Y-53257607D01*
X106184198Y-53054879D01*
X106254507Y-52838489D01*
X106272844Y-52722710D01*
X106290100Y-52613768D01*
X106290100Y-52395525D01*
X111004100Y-52395525D01*
X111004100Y-52654474D01*
X111004101Y-52654491D01*
X111037899Y-52911217D01*
X111037900Y-52911222D01*
X111037901Y-52911228D01*
X111037902Y-52911230D01*
X111104924Y-53161364D01*
X111204023Y-53400609D01*
X111204027Y-53400619D01*
X111333506Y-53624883D01*
X111491151Y-53830331D01*
X111491157Y-53830338D01*
X111674261Y-54013442D01*
X111674268Y-54013448D01*
X111879716Y-54171093D01*
X112103980Y-54300572D01*
X112103981Y-54300572D01*
X112103984Y-54300574D01*
X112343234Y-54399675D01*
X112593372Y-54466699D01*
X112850119Y-54500500D01*
X112850126Y-54500500D01*
X113109074Y-54500500D01*
X113109081Y-54500500D01*
X113365828Y-54466699D01*
X113615966Y-54399675D01*
X113855216Y-54300574D01*
X114079484Y-54171093D01*
X114284933Y-54013447D01*
X114468047Y-53830333D01*
X114625693Y-53624884D01*
X114755174Y-53400616D01*
X114854275Y-53161366D01*
X114921299Y-52911228D01*
X114955100Y-52654481D01*
X114955100Y-52395519D01*
X114951810Y-52370525D01*
X166399100Y-52370525D01*
X166399100Y-52629474D01*
X166399101Y-52629491D01*
X166432899Y-52886217D01*
X166432900Y-52886222D01*
X166432901Y-52886228D01*
X166454708Y-52967614D01*
X166499924Y-53136364D01*
X166599023Y-53375609D01*
X166599027Y-53375619D01*
X166728506Y-53599883D01*
X166886151Y-53805331D01*
X166886157Y-53805338D01*
X167069261Y-53988442D01*
X167069268Y-53988448D01*
X167274716Y-54146093D01*
X167498980Y-54275572D01*
X167498981Y-54275572D01*
X167498984Y-54275574D01*
X167738234Y-54374675D01*
X167988372Y-54441699D01*
X168245119Y-54475500D01*
X168245126Y-54475500D01*
X168504074Y-54475500D01*
X168504081Y-54475500D01*
X168760828Y-54441699D01*
X169010966Y-54374675D01*
X169250216Y-54275574D01*
X169474484Y-54146093D01*
X169679933Y-53988447D01*
X169863047Y-53805333D01*
X170020693Y-53599884D01*
X170150174Y-53375616D01*
X170249275Y-53136366D01*
X170316299Y-52886228D01*
X170350100Y-52629481D01*
X170350100Y-52411231D01*
X175064100Y-52411231D01*
X175064100Y-52638768D01*
X175099693Y-52863490D01*
X175170000Y-53079876D01*
X175170001Y-53079879D01*
X175260559Y-53257607D01*
X175273297Y-53282607D01*
X175407034Y-53466680D01*
X175567920Y-53627566D01*
X175751993Y-53761303D01*
X175838403Y-53805331D01*
X175954720Y-53864598D01*
X175954723Y-53864599D01*
X176062916Y-53899752D01*
X176171111Y-53934907D01*
X176275191Y-53951391D01*
X176395832Y-53970500D01*
X176395837Y-53970500D01*
X176623368Y-53970500D01*
X176732310Y-53953244D01*
X176848089Y-53934907D01*
X177064479Y-53864598D01*
X177267207Y-53761303D01*
X177451280Y-53627566D01*
X177612166Y-53466680D01*
X177745903Y-53282607D01*
X177849198Y-53079879D01*
X177919507Y-52863489D01*
X177937844Y-52747710D01*
X177955100Y-52638768D01*
X177955100Y-52411231D01*
X177932666Y-52269597D01*
X177919507Y-52186511D01*
X177849198Y-51970121D01*
X177849198Y-51970120D01*
X177745902Y-51767392D01*
X177727739Y-51742393D01*
X177612166Y-51583320D01*
X177451280Y-51422434D01*
X177267207Y-51288697D01*
X177218142Y-51263697D01*
X177064479Y-51185401D01*
X177064476Y-51185400D01*
X176848090Y-51115093D01*
X176623368Y-51079500D01*
X176623363Y-51079500D01*
X176395837Y-51079500D01*
X176395832Y-51079500D01*
X176171109Y-51115093D01*
X175954723Y-51185400D01*
X175954720Y-51185401D01*
X175751992Y-51288697D01*
X175646972Y-51364998D01*
X175567920Y-51422434D01*
X175567918Y-51422436D01*
X175567917Y-51422436D01*
X175407036Y-51583317D01*
X175407036Y-51583318D01*
X175407034Y-51583320D01*
X175379721Y-51620913D01*
X175273297Y-51767392D01*
X175170001Y-51970120D01*
X175170000Y-51970123D01*
X175099693Y-52186509D01*
X175064100Y-52411231D01*
X170350100Y-52411231D01*
X170350100Y-52370519D01*
X170316299Y-52113772D01*
X170249275Y-51863634D01*
X170150174Y-51624384D01*
X170148175Y-51620922D01*
X170020693Y-51400116D01*
X169863048Y-51194668D01*
X169863042Y-51194661D01*
X169679938Y-51011557D01*
X169679931Y-51011551D01*
X169474483Y-50853906D01*
X169250219Y-50724427D01*
X169250209Y-50724423D01*
X169010964Y-50625324D01*
X168854133Y-50583302D01*
X168760828Y-50558301D01*
X168760822Y-50558300D01*
X168760817Y-50558299D01*
X168504091Y-50524501D01*
X168504086Y-50524500D01*
X168504081Y-50524500D01*
X168245119Y-50524500D01*
X168245113Y-50524500D01*
X168245108Y-50524501D01*
X167988382Y-50558299D01*
X167988375Y-50558300D01*
X167988372Y-50558301D01*
X167935508Y-50572465D01*
X167738235Y-50625324D01*
X167498990Y-50724423D01*
X167498980Y-50724427D01*
X167274716Y-50853906D01*
X167069268Y-51011551D01*
X167069261Y-51011557D01*
X166886157Y-51194661D01*
X166886151Y-51194668D01*
X166728506Y-51400116D01*
X166599027Y-51624380D01*
X166599023Y-51624390D01*
X166499924Y-51863635D01*
X166432902Y-52113769D01*
X166432899Y-52113782D01*
X166399101Y-52370508D01*
X166399100Y-52370525D01*
X114951810Y-52370525D01*
X114921299Y-52138772D01*
X114854275Y-51888634D01*
X114755174Y-51649384D01*
X114740740Y-51624384D01*
X114625693Y-51425116D01*
X114468048Y-51219668D01*
X114468042Y-51219661D01*
X114284938Y-51036557D01*
X114284931Y-51036551D01*
X114079483Y-50878906D01*
X113855219Y-50749427D01*
X113855209Y-50749423D01*
X113615964Y-50650324D01*
X113490897Y-50616813D01*
X113365828Y-50583301D01*
X113365822Y-50583300D01*
X113365817Y-50583299D01*
X113109091Y-50549501D01*
X113109086Y-50549500D01*
X113109081Y-50549500D01*
X112850119Y-50549500D01*
X112850113Y-50549500D01*
X112850108Y-50549501D01*
X112593382Y-50583299D01*
X112593375Y-50583300D01*
X112593372Y-50583301D01*
X112571357Y-50589200D01*
X112343235Y-50650324D01*
X112103990Y-50749423D01*
X112103980Y-50749427D01*
X111879716Y-50878906D01*
X111674268Y-51036551D01*
X111674261Y-51036557D01*
X111491157Y-51219661D01*
X111491151Y-51219668D01*
X111333506Y-51425116D01*
X111204027Y-51649380D01*
X111204023Y-51649390D01*
X111104924Y-51888635D01*
X111037902Y-52138769D01*
X111037899Y-52138782D01*
X111004101Y-52395508D01*
X111004100Y-52395525D01*
X106290100Y-52395525D01*
X106290100Y-52386231D01*
X106269393Y-52255499D01*
X106254507Y-52161511D01*
X106184198Y-51945121D01*
X106184198Y-51945120D01*
X106093641Y-51767393D01*
X106080903Y-51742393D01*
X105947166Y-51558320D01*
X105786280Y-51397434D01*
X105602207Y-51263697D01*
X105399479Y-51160401D01*
X105399476Y-51160400D01*
X105183090Y-51090093D01*
X104958368Y-51054500D01*
X104958363Y-51054500D01*
X104730837Y-51054500D01*
X104730832Y-51054500D01*
X104506109Y-51090093D01*
X104289723Y-51160400D01*
X104289720Y-51160401D01*
X104086992Y-51263697D01*
X104052583Y-51288697D01*
X103902920Y-51397434D01*
X103902918Y-51397436D01*
X103902917Y-51397436D01*
X103742036Y-51558317D01*
X103742036Y-51558318D01*
X103742034Y-51558320D01*
X103696556Y-51620915D01*
X103608297Y-51742392D01*
X103505001Y-51945120D01*
X103505000Y-51945123D01*
X103434693Y-52161509D01*
X103399100Y-52386231D01*
X100989707Y-52386231D01*
X100957327Y-52269607D01*
X100957325Y-52269600D01*
X100824857Y-51937129D01*
X100824848Y-51937111D01*
X100785893Y-51863635D01*
X100672308Y-51649390D01*
X100657215Y-51620922D01*
X100657213Y-51620919D01*
X100657211Y-51620915D01*
X100456365Y-51324689D01*
X100456361Y-51324684D01*
X100456358Y-51324680D01*
X100224668Y-51051914D01*
X100208449Y-51036551D01*
X99964837Y-50805789D01*
X99964830Y-50805783D01*
X99964827Y-50805781D01*
X99857807Y-50724427D01*
X99679919Y-50589200D01*
X99373253Y-50404685D01*
X99373252Y-50404684D01*
X99373248Y-50404682D01*
X99373244Y-50404680D01*
X99048447Y-50254414D01*
X99048441Y-50254411D01*
X99048435Y-50254409D01*
X98878854Y-50197270D01*
X98709273Y-50140131D01*
X98359744Y-50063194D01*
X98003949Y-50024500D01*
X98003948Y-50024500D01*
X97646052Y-50024500D01*
X97646050Y-50024500D01*
X97290255Y-50063194D01*
X96940726Y-50140131D01*
X96684970Y-50226306D01*
X96601565Y-50254409D01*
X96601563Y-50254410D01*
X96601552Y-50254414D01*
X96276755Y-50404680D01*
X96276751Y-50404682D01*
X96213680Y-50442631D01*
X95970081Y-50589200D01*
X95889674Y-50650324D01*
X95685172Y-50805781D01*
X95685163Y-50805789D01*
X95425331Y-51051914D01*
X95193641Y-51324680D01*
X95193634Y-51324690D01*
X94992790Y-51620913D01*
X94992784Y-51620922D01*
X94825151Y-51937111D01*
X94825142Y-51937129D01*
X94692674Y-52269600D01*
X94692672Y-52269607D01*
X94596932Y-52614434D01*
X94596926Y-52614460D01*
X94539029Y-52967614D01*
X94539028Y-52967627D01*
X94539028Y-52967629D01*
X94519652Y-53325000D01*
X94536056Y-53627563D01*
X94539028Y-53682368D01*
X94539029Y-53682385D01*
X94596926Y-54035539D01*
X94596932Y-54035565D01*
X94692672Y-54380392D01*
X94692674Y-54380399D01*
X94825142Y-54712870D01*
X94825151Y-54712888D01*
X94992784Y-55029077D01*
X94992790Y-55029086D01*
X95193634Y-55325309D01*
X95193641Y-55325319D01*
X95425331Y-55598085D01*
X95425332Y-55598086D01*
X95685163Y-55844211D01*
X95970081Y-56060800D01*
X96276747Y-56245315D01*
X96276749Y-56245316D01*
X96276751Y-56245317D01*
X96276755Y-56245319D01*
X96604614Y-56397002D01*
X96603979Y-56398373D01*
X96654255Y-56437739D01*
X96677247Y-56503718D01*
X96677400Y-56509880D01*
X96677400Y-123747941D01*
X96657715Y-123814980D01*
X96604911Y-123860735D01*
X96592996Y-123865449D01*
X96551565Y-123879409D01*
X96551562Y-123879410D01*
X96551554Y-123879413D01*
X96226755Y-124029680D01*
X96226751Y-124029682D01*
X96030312Y-124147876D01*
X95920081Y-124214200D01*
X95839407Y-124275527D01*
X95635172Y-124430781D01*
X95635163Y-124430789D01*
X95375331Y-124676914D01*
X95143641Y-124949680D01*
X95143634Y-124949690D01*
X94942790Y-125245913D01*
X94942784Y-125245922D01*
X94775151Y-125562111D01*
X94775142Y-125562129D01*
X94642674Y-125894600D01*
X94642672Y-125894607D01*
X94546932Y-126239434D01*
X94546926Y-126239460D01*
X94489029Y-126592614D01*
X94489028Y-126592627D01*
X94489028Y-126592629D01*
X94481277Y-126735577D01*
X94469652Y-126949997D01*
X94469652Y-126950002D01*
X94472890Y-127009727D01*
X94485917Y-127250000D01*
X94489028Y-127307368D01*
X94489029Y-127307385D01*
X94546926Y-127660539D01*
X94546932Y-127660565D01*
X94642672Y-128005392D01*
X94642674Y-128005399D01*
X94775142Y-128337870D01*
X94775151Y-128337888D01*
X94942784Y-128654077D01*
X94942787Y-128654082D01*
X94942789Y-128654085D01*
X95134859Y-128937368D01*
X95143634Y-128950309D01*
X95143641Y-128950319D01*
X95375331Y-129223085D01*
X95375332Y-129223086D01*
X95635163Y-129469211D01*
X95920081Y-129685800D01*
X96226747Y-129870315D01*
X96226749Y-129870316D01*
X96226751Y-129870317D01*
X96226755Y-129870319D01*
X96529064Y-130010181D01*
X96551565Y-130020591D01*
X96890726Y-130134868D01*
X97240254Y-130211805D01*
X97596052Y-130250500D01*
X97596058Y-130250500D01*
X97953942Y-130250500D01*
X97953948Y-130250500D01*
X98309746Y-130211805D01*
X98659274Y-130134868D01*
X98998435Y-130020591D01*
X99323253Y-129870315D01*
X99629919Y-129685800D01*
X99914837Y-129469211D01*
X100174668Y-129223086D01*
X100406365Y-128950311D01*
X100607211Y-128654085D01*
X100774853Y-128337880D01*
X100907324Y-128005403D01*
X101003071Y-127660552D01*
X101041689Y-127424994D01*
X101060970Y-127307385D01*
X101060970Y-127307382D01*
X101060972Y-127307371D01*
X101080348Y-126950000D01*
X101079595Y-126936119D01*
X101072153Y-126798855D01*
X101060972Y-126592629D01*
X101058117Y-126575217D01*
X101003073Y-126239460D01*
X101003072Y-126239459D01*
X101003071Y-126239448D01*
X100922840Y-125950481D01*
X100907327Y-125894607D01*
X100907325Y-125894600D01*
X100897990Y-125871172D01*
X100850984Y-125753194D01*
X100774857Y-125562129D01*
X100774848Y-125562111D01*
X100762974Y-125539715D01*
X100609124Y-125249523D01*
X100607215Y-125245922D01*
X100607213Y-125245919D01*
X100607211Y-125245915D01*
X100406365Y-124949689D01*
X100406361Y-124949684D01*
X100406358Y-124949680D01*
X100174668Y-124676914D01*
X100113338Y-124618819D01*
X99914837Y-124430789D01*
X99914830Y-124430783D01*
X99914827Y-124430781D01*
X99847245Y-124379407D01*
X99629919Y-124214200D01*
X99323253Y-124029685D01*
X99323252Y-124029684D01*
X99323248Y-124029682D01*
X99323244Y-124029680D01*
X98998447Y-123879414D01*
X98998441Y-123879411D01*
X98998435Y-123879409D01*
X98807217Y-123814980D01*
X98659273Y-123765131D01*
X98309744Y-123688194D01*
X97988993Y-123653311D01*
X97924475Y-123626494D01*
X97884697Y-123569052D01*
X97878400Y-123530038D01*
X97878400Y-114695525D01*
X111804100Y-114695525D01*
X111804100Y-114954474D01*
X111804101Y-114954491D01*
X111837899Y-115211217D01*
X111837900Y-115211222D01*
X111837901Y-115211228D01*
X111871413Y-115336297D01*
X111904924Y-115461364D01*
X112004023Y-115700609D01*
X112004027Y-115700619D01*
X112133506Y-115924883D01*
X112291151Y-116130331D01*
X112291157Y-116130338D01*
X112474261Y-116313442D01*
X112474268Y-116313448D01*
X112679716Y-116471093D01*
X112903980Y-116600572D01*
X112903981Y-116600572D01*
X112903984Y-116600574D01*
X113143234Y-116699675D01*
X113393372Y-116766699D01*
X113650119Y-116800500D01*
X113650126Y-116800500D01*
X113909074Y-116800500D01*
X113909081Y-116800500D01*
X114165828Y-116766699D01*
X114415966Y-116699675D01*
X114655216Y-116600574D01*
X114879484Y-116471093D01*
X115084933Y-116313447D01*
X115268047Y-116130333D01*
X115425693Y-115924884D01*
X115555174Y-115700616D01*
X115654275Y-115461366D01*
X115721299Y-115211228D01*
X115755100Y-114954481D01*
X115755100Y-114695519D01*
X115721299Y-114438772D01*
X115654275Y-114188634D01*
X115555174Y-113949384D01*
X115425693Y-113725116D01*
X115268047Y-113519667D01*
X115268042Y-113519661D01*
X115084938Y-113336557D01*
X115084931Y-113336551D01*
X114879483Y-113178906D01*
X114655219Y-113049427D01*
X114655209Y-113049423D01*
X114415964Y-112950324D01*
X114259133Y-112908302D01*
X114165828Y-112883301D01*
X114165822Y-112883300D01*
X114165817Y-112883299D01*
X113909091Y-112849501D01*
X113909086Y-112849500D01*
X113909081Y-112849500D01*
X113650119Y-112849500D01*
X113650113Y-112849500D01*
X113650108Y-112849501D01*
X113393382Y-112883299D01*
X113393375Y-112883300D01*
X113393372Y-112883301D01*
X113359295Y-112892432D01*
X113143235Y-112950324D01*
X112903990Y-113049423D01*
X112903980Y-113049427D01*
X112679716Y-113178906D01*
X112474268Y-113336551D01*
X112474261Y-113336557D01*
X112291157Y-113519661D01*
X112291151Y-113519668D01*
X112133506Y-113725116D01*
X112004027Y-113949380D01*
X112004023Y-113949390D01*
X111904924Y-114188635D01*
X111837902Y-114438769D01*
X111837899Y-114438782D01*
X111804101Y-114695508D01*
X111804100Y-114695525D01*
X97878400Y-114695525D01*
X97878400Y-110606783D01*
X97898085Y-110539744D01*
X97950889Y-110493989D01*
X98020047Y-110484045D01*
X98045725Y-110490598D01*
X98122117Y-110519091D01*
X98181727Y-110525500D01*
X105617472Y-110525499D01*
X105677083Y-110519091D01*
X105811931Y-110468796D01*
X105927146Y-110382546D01*
X106013396Y-110267331D01*
X106063691Y-110132483D01*
X106070100Y-110072873D01*
X106070099Y-105836499D01*
X106089784Y-105769461D01*
X106142588Y-105723706D01*
X106194099Y-105712500D01*
X110520903Y-105712500D01*
X110587942Y-105732185D01*
X110608584Y-105748819D01*
X116223621Y-111363856D01*
X116257106Y-111425179D01*
X116259938Y-111452180D01*
X116202529Y-122514671D01*
X116182497Y-122581608D01*
X116174110Y-122591964D01*
X116174525Y-122592295D01*
X116170184Y-122597738D01*
X116074211Y-122750476D01*
X116014631Y-122920745D01*
X116014630Y-122920750D01*
X115994435Y-123099996D01*
X115994435Y-123100003D01*
X116014630Y-123279249D01*
X116014631Y-123279254D01*
X116074211Y-123449523D01*
X116173889Y-123608158D01*
X116171590Y-123609602D01*
X116193341Y-123662849D01*
X116180599Y-123731547D01*
X116132739Y-123782450D01*
X116069988Y-123799500D01*
X115950098Y-123799500D01*
X115883059Y-123779815D01*
X115862417Y-123763181D01*
X115409700Y-123310465D01*
X115376215Y-123249142D01*
X115374163Y-123236686D01*
X115364368Y-123149745D01*
X115304789Y-122979478D01*
X115208816Y-122826738D01*
X115081262Y-122699184D01*
X115071715Y-122693185D01*
X114928521Y-122603210D01*
X114758249Y-122543630D01*
X114671330Y-122533837D01*
X114606916Y-122506770D01*
X114597533Y-122498298D01*
X113810590Y-121711355D01*
X113810588Y-121711352D01*
X113691717Y-121592481D01*
X113691709Y-121592475D01*
X113568893Y-121521568D01*
X113568890Y-121521567D01*
X113568720Y-121521469D01*
X113554785Y-121513423D01*
X113402057Y-121472499D01*
X113243943Y-121472499D01*
X113236347Y-121472499D01*
X113236331Y-121472500D01*
X106594412Y-121472500D01*
X106527373Y-121452815D01*
X106517097Y-121445445D01*
X106514263Y-121443185D01*
X106514262Y-121443184D01*
X106447450Y-121401203D01*
X106361523Y-121347211D01*
X106191254Y-121287631D01*
X106191249Y-121287630D01*
X106012004Y-121267435D01*
X106011996Y-121267435D01*
X105832750Y-121287630D01*
X105832745Y-121287631D01*
X105662476Y-121347211D01*
X105509737Y-121443184D01*
X105382184Y-121570737D01*
X105286211Y-121723476D01*
X105226631Y-121893745D01*
X105226630Y-121893750D01*
X105206435Y-122072996D01*
X105206435Y-122073003D01*
X105226630Y-122252249D01*
X105226631Y-122252254D01*
X105286211Y-122422523D01*
X105366610Y-122550476D01*
X105382184Y-122575262D01*
X105509738Y-122702816D01*
X105662478Y-122798789D01*
X105742349Y-122826737D01*
X105839318Y-122860668D01*
X105838461Y-122863115D01*
X105889042Y-122891385D01*
X105921920Y-122953035D01*
X105924500Y-122978197D01*
X105924500Y-125070295D01*
X105904815Y-125137334D01*
X105888263Y-125157895D01*
X105563523Y-125483240D01*
X105563443Y-125483320D01*
X105507469Y-125539295D01*
X105507429Y-125539348D01*
X105507146Y-125539715D01*
X105468030Y-125607612D01*
X105467974Y-125607709D01*
X105428418Y-125676224D01*
X105428357Y-125676373D01*
X105428222Y-125676698D01*
X105428208Y-125676729D01*
X105407825Y-125753085D01*
X105407796Y-125753195D01*
X105387496Y-125828953D01*
X105387441Y-125829381D01*
X105387426Y-125829493D01*
X105387500Y-125909096D01*
X105387500Y-127569587D01*
X105367815Y-127636626D01*
X105360450Y-127646896D01*
X105358186Y-127649734D01*
X105262211Y-127802476D01*
X105202631Y-127972745D01*
X105202630Y-127972750D01*
X105182435Y-128151996D01*
X105182435Y-128152003D01*
X105202630Y-128331249D01*
X105202631Y-128331254D01*
X105262211Y-128501523D01*
X105316945Y-128588631D01*
X105358184Y-128654262D01*
X105485738Y-128781816D01*
X105638478Y-128877789D01*
X105774828Y-128925500D01*
X105808745Y-128937368D01*
X105808750Y-128937369D01*
X105987996Y-128957565D01*
X105988000Y-128957565D01*
X105988004Y-128957565D01*
X106167249Y-128937369D01*
X106167252Y-128937368D01*
X106167255Y-128937368D01*
X106337522Y-128877789D01*
X106490262Y-128781816D01*
X106617816Y-128654262D01*
X106713789Y-128501522D01*
X106773368Y-128331255D01*
X106776005Y-128307853D01*
X106793565Y-128152003D01*
X106793565Y-128151996D01*
X106773369Y-127972750D01*
X106773368Y-127972745D01*
X106762435Y-127941500D01*
X106741264Y-127880996D01*
X107832435Y-127880996D01*
X107832435Y-127881003D01*
X107852630Y-128060249D01*
X107852631Y-128060254D01*
X107912211Y-128230523D01*
X107994525Y-128361524D01*
X108008184Y-128383262D01*
X108135738Y-128510816D01*
X108288478Y-128606789D01*
X108423642Y-128654085D01*
X108458745Y-128666368D01*
X108458750Y-128666369D01*
X108637996Y-128686565D01*
X108638000Y-128686565D01*
X108638004Y-128686565D01*
X108817249Y-128666369D01*
X108817252Y-128666368D01*
X108817255Y-128666368D01*
X108987522Y-128606789D01*
X109140262Y-128510816D01*
X109140267Y-128510810D01*
X109143097Y-128508555D01*
X109145275Y-128507665D01*
X109146158Y-128507111D01*
X109146255Y-128507265D01*
X109207783Y-128482145D01*
X109220412Y-128481500D01*
X109232331Y-128481500D01*
X109232347Y-128481501D01*
X109239943Y-128481501D01*
X109398054Y-128481501D01*
X109398057Y-128481501D01*
X109550785Y-128440577D01*
X109635603Y-128391607D01*
X109687716Y-128361520D01*
X109799520Y-128249716D01*
X109799520Y-128249714D01*
X109809724Y-128239511D01*
X109809727Y-128239506D01*
X112512417Y-125536819D01*
X112573740Y-125503334D01*
X112600098Y-125500500D01*
X112817588Y-125500500D01*
X112884627Y-125520185D01*
X112894903Y-125527555D01*
X112897736Y-125529814D01*
X112897738Y-125529816D01*
X112949164Y-125562129D01*
X113029788Y-125612789D01*
X113050478Y-125625789D01*
X113092923Y-125640641D01*
X113220745Y-125685368D01*
X113220750Y-125685369D01*
X113399996Y-125705565D01*
X113400000Y-125705565D01*
X113400004Y-125705565D01*
X113579249Y-125685369D01*
X113579252Y-125685368D01*
X113579255Y-125685368D01*
X113749522Y-125625789D01*
X113902262Y-125529816D01*
X114029816Y-125402262D01*
X114125789Y-125249522D01*
X114185368Y-125079255D01*
X114186833Y-125066254D01*
X114205565Y-124900003D01*
X114205565Y-124899996D01*
X114185369Y-124720750D01*
X114185368Y-124720745D01*
X114169176Y-124674472D01*
X114125789Y-124550478D01*
X114029816Y-124397738D01*
X113902262Y-124270184D01*
X113862742Y-124245352D01*
X113749523Y-124174211D01*
X113579254Y-124114631D01*
X113579249Y-124114630D01*
X113400004Y-124094435D01*
X113399996Y-124094435D01*
X113220750Y-124114630D01*
X113220745Y-124114631D01*
X113050476Y-124174211D01*
X112897736Y-124270185D01*
X112894903Y-124272445D01*
X112892724Y-124273334D01*
X112891842Y-124273889D01*
X112891744Y-124273734D01*
X112830217Y-124298855D01*
X112817588Y-124299500D01*
X112386670Y-124299500D01*
X112386654Y-124299499D01*
X112379058Y-124299499D01*
X112220943Y-124299499D01*
X112144579Y-124319961D01*
X112068214Y-124340423D01*
X112068209Y-124340426D01*
X111931290Y-124419475D01*
X111931282Y-124419481D01*
X109185201Y-127165562D01*
X109123878Y-127199047D01*
X109054186Y-127194063D01*
X109031547Y-127182874D01*
X108987524Y-127155211D01*
X108817254Y-127095631D01*
X108817249Y-127095630D01*
X108638004Y-127075435D01*
X108637996Y-127075435D01*
X108458750Y-127095630D01*
X108458745Y-127095631D01*
X108288476Y-127155211D01*
X108135737Y-127251184D01*
X108008184Y-127378737D01*
X107912211Y-127531476D01*
X107852631Y-127701745D01*
X107852630Y-127701750D01*
X107832435Y-127880996D01*
X106741264Y-127880996D01*
X106713789Y-127802478D01*
X106617816Y-127649738D01*
X106617814Y-127649736D01*
X106617813Y-127649734D01*
X106615550Y-127646896D01*
X106614659Y-127644715D01*
X106614111Y-127643842D01*
X106614264Y-127643745D01*
X106589144Y-127582209D01*
X106588500Y-127569587D01*
X106588500Y-126207703D01*
X106608185Y-126140664D01*
X106624737Y-126120103D01*
X106779124Y-125965429D01*
X106949476Y-125794759D01*
X106949493Y-125794776D01*
X106949557Y-125794677D01*
X107005520Y-125738716D01*
X107005524Y-125738708D01*
X107005789Y-125738363D01*
X107005854Y-125738276D01*
X107005862Y-125738269D01*
X107044967Y-125670388D01*
X107045053Y-125670306D01*
X107045025Y-125670290D01*
X107078223Y-125612789D01*
X107084577Y-125601784D01*
X107084579Y-125601773D01*
X107084716Y-125601445D01*
X107084786Y-125601272D01*
X107084792Y-125601264D01*
X107095244Y-125562111D01*
X107105174Y-125524916D01*
X107105203Y-125524805D01*
X107107344Y-125516814D01*
X107125500Y-125449057D01*
X107125500Y-125449052D01*
X107125571Y-125448510D01*
X107125574Y-125448499D01*
X107125500Y-125368368D01*
X107125500Y-123166097D01*
X107145185Y-123099058D01*
X107161819Y-123078416D01*
X107530416Y-122709819D01*
X107591739Y-122676334D01*
X107618097Y-122673500D01*
X113022903Y-122673500D01*
X113089942Y-122693185D01*
X113110584Y-122709819D01*
X113748298Y-123347533D01*
X113781783Y-123408856D01*
X113783837Y-123421330D01*
X113793630Y-123508249D01*
X113793631Y-123508254D01*
X113793632Y-123508255D01*
X113799880Y-123526111D01*
X113853210Y-123678521D01*
X113883747Y-123727120D01*
X113949184Y-123831262D01*
X114076738Y-123958816D01*
X114229478Y-124054789D01*
X114399745Y-124114368D01*
X114486669Y-124124161D01*
X114551080Y-124151226D01*
X114560464Y-124159699D01*
X115281284Y-124880520D01*
X115281286Y-124880521D01*
X115281290Y-124880524D01*
X115401074Y-124949680D01*
X115418216Y-124959577D01*
X115570943Y-125000501D01*
X115570945Y-125000501D01*
X115736654Y-125000501D01*
X115736670Y-125000500D01*
X119875500Y-125000500D01*
X119942539Y-125020185D01*
X119988294Y-125072989D01*
X119999500Y-125124500D01*
X119999500Y-128953698D01*
X119982888Y-129015696D01*
X119974410Y-129030382D01*
X119966410Y-129044238D01*
X119966369Y-129044336D01*
X119946828Y-129117341D01*
X119946820Y-129117371D01*
X119925497Y-129196948D01*
X119925484Y-129197055D01*
X119925478Y-129197097D01*
X119925499Y-129274324D01*
X119925499Y-129355094D01*
X119925510Y-129355178D01*
X119925520Y-129355218D01*
X119925521Y-129355220D01*
X119945603Y-129430088D01*
X119966423Y-129507785D01*
X119966424Y-129507788D01*
X119966483Y-129507931D01*
X120006227Y-129576729D01*
X120006223Y-129576730D01*
X120006239Y-129576750D01*
X120025193Y-129609577D01*
X120045485Y-129644723D01*
X120045580Y-129644846D01*
X120102311Y-129701546D01*
X120235584Y-129834819D01*
X120269069Y-129896142D01*
X120264085Y-129965834D01*
X120222213Y-130021767D01*
X120156749Y-130046184D01*
X120147903Y-130046500D01*
X116747097Y-130046500D01*
X116680058Y-130026815D01*
X116659416Y-130010181D01*
X116648819Y-129999584D01*
X116615334Y-129938261D01*
X116612500Y-129911903D01*
X116612500Y-129401059D01*
X116612501Y-129401046D01*
X116612501Y-129232945D01*
X116612501Y-129232943D01*
X116571577Y-129080215D01*
X116539397Y-129024478D01*
X116492520Y-128943284D01*
X116380716Y-128831480D01*
X116380715Y-128831479D01*
X116376385Y-128827149D01*
X116376374Y-128827139D01*
X116237590Y-128688355D01*
X116237588Y-128688352D01*
X116118717Y-128569481D01*
X116118709Y-128569475D01*
X116016515Y-128510474D01*
X116016512Y-128510473D01*
X115981787Y-128490424D01*
X115981786Y-128490423D01*
X115981785Y-128490423D01*
X115829057Y-128449499D01*
X115670943Y-128449499D01*
X115663347Y-128449499D01*
X115663331Y-128449500D01*
X114838575Y-128449500D01*
X114771536Y-128429815D01*
X114725781Y-128377011D01*
X114715837Y-128307853D01*
X114725019Y-128275690D01*
X114774063Y-128163881D01*
X114783709Y-128125789D01*
X114835108Y-127922821D01*
X114838573Y-127881003D01*
X114855643Y-127675005D01*
X114855643Y-127674994D01*
X114841142Y-127499994D01*
X116719357Y-127499994D01*
X116719357Y-127500005D01*
X116739890Y-127747812D01*
X116739892Y-127747824D01*
X116800936Y-127988881D01*
X116900826Y-128216606D01*
X117036833Y-128424782D01*
X117059587Y-128449499D01*
X117205256Y-128607738D01*
X117401491Y-128760474D01*
X117620190Y-128878828D01*
X117855386Y-128959571D01*
X118100665Y-129000500D01*
X118349335Y-129000500D01*
X118594614Y-128959571D01*
X118829810Y-128878828D01*
X119048509Y-128760474D01*
X119244744Y-128607738D01*
X119413164Y-128424785D01*
X119549173Y-128216607D01*
X119649063Y-127988881D01*
X119710108Y-127747821D01*
X119716143Y-127674994D01*
X119730643Y-127500005D01*
X119730643Y-127499994D01*
X119710109Y-127252187D01*
X119710107Y-127252175D01*
X119649063Y-127011118D01*
X119549173Y-126783393D01*
X119413166Y-126575217D01*
X119374664Y-126533393D01*
X119244744Y-126392262D01*
X119048509Y-126239526D01*
X119048507Y-126239525D01*
X119048506Y-126239524D01*
X118829811Y-126121172D01*
X118829802Y-126121169D01*
X118594616Y-126040429D01*
X118349335Y-125999500D01*
X118100665Y-125999500D01*
X117855383Y-126040429D01*
X117620197Y-126121169D01*
X117620188Y-126121172D01*
X117401493Y-126239524D01*
X117205257Y-126392261D01*
X117036833Y-126575217D01*
X116900826Y-126783393D01*
X116800936Y-127011118D01*
X116739892Y-127252175D01*
X116739890Y-127252187D01*
X116719357Y-127499994D01*
X114841142Y-127499994D01*
X114835109Y-127427187D01*
X114835107Y-127427175D01*
X114774063Y-127186118D01*
X114674173Y-126958393D01*
X114538166Y-126750217D01*
X114499664Y-126708393D01*
X114369744Y-126567262D01*
X114173509Y-126414526D01*
X114173507Y-126414525D01*
X114173506Y-126414524D01*
X113954811Y-126296172D01*
X113954802Y-126296169D01*
X113719616Y-126215429D01*
X113474335Y-126174500D01*
X113225665Y-126174500D01*
X112980383Y-126215429D01*
X112745197Y-126296169D01*
X112745188Y-126296172D01*
X112526493Y-126414524D01*
X112330257Y-126567261D01*
X112161833Y-126750217D01*
X112025826Y-126958393D01*
X111925936Y-127186118D01*
X111864892Y-127427175D01*
X111864890Y-127427187D01*
X111844357Y-127674994D01*
X111844357Y-127675005D01*
X111864890Y-127922812D01*
X111864892Y-127922824D01*
X111925936Y-128163881D01*
X112025826Y-128391606D01*
X112161833Y-128599782D01*
X112169157Y-128607738D01*
X112330256Y-128782738D01*
X112526491Y-128935474D01*
X112526493Y-128935475D01*
X112731059Y-129046181D01*
X112745190Y-129053828D01*
X112822053Y-129080215D01*
X112960791Y-129127844D01*
X113008209Y-129157444D01*
X113265139Y-129414374D01*
X113265149Y-129414385D01*
X113269479Y-129418715D01*
X113269480Y-129418716D01*
X113381284Y-129530520D01*
X113381286Y-129530521D01*
X113381290Y-129530524D01*
X113518209Y-129609573D01*
X113518216Y-129609577D01*
X113630019Y-129639534D01*
X113670942Y-129650500D01*
X113670943Y-129650500D01*
X115287500Y-129650500D01*
X115354539Y-129670185D01*
X115400294Y-129722989D01*
X115411500Y-129774500D01*
X115411500Y-130125330D01*
X115411499Y-130125348D01*
X115411499Y-130291054D01*
X115411498Y-130291054D01*
X115452424Y-130443787D01*
X115463640Y-130463213D01*
X115463641Y-130463215D01*
X115531477Y-130580712D01*
X115531481Y-130580717D01*
X115650349Y-130699585D01*
X115650355Y-130699590D01*
X115962139Y-131011374D01*
X115962149Y-131011385D01*
X115966479Y-131015715D01*
X115966480Y-131015716D01*
X116078284Y-131127520D01*
X116146816Y-131167086D01*
X116165095Y-131177639D01*
X116165097Y-131177641D01*
X116184789Y-131189010D01*
X116215215Y-131206577D01*
X116367943Y-131247501D01*
X116367946Y-131247501D01*
X116533653Y-131247501D01*
X116533669Y-131247500D01*
X131081737Y-131247500D01*
X131148776Y-131267185D01*
X131194531Y-131319989D01*
X131204475Y-131389147D01*
X131182057Y-131444383D01*
X131175211Y-131453805D01*
X131068697Y-131662849D01*
X130996201Y-131885972D01*
X130992241Y-131910974D01*
X130959500Y-132117695D01*
X130959500Y-134332305D01*
X130963460Y-134357305D01*
X130996201Y-134564027D01*
X131068697Y-134787150D01*
X131081437Y-134812153D01*
X131136995Y-134921192D01*
X131175212Y-134996195D01*
X131256219Y-135107693D01*
X131279699Y-135173499D01*
X131263873Y-135241553D01*
X131213767Y-135290248D01*
X131155804Y-135304578D01*
X93349576Y-135274989D01*
X93282552Y-135255252D01*
X93236838Y-135202412D01*
X93225673Y-135150955D01*
X93250325Y-46398810D01*
X93270028Y-46331779D01*
X93322845Y-46286038D01*
X93374192Y-46274847D01*
X187975025Y-46176151D01*
X188042084Y-46195766D01*
G37*
%TD.AperFunction*%
M02*
