%TF.GenerationSoftware,KiCad,Pcbnew,8.0.2-1*%
%TF.CreationDate,2024-08-29T11:45:14-05:00*%
%TF.ProjectId,BattBoard,42617474-426f-4617-9264-2e6b69636164,rev?*%
%TF.SameCoordinates,Original*%
%TF.FileFunction,Legend,Top*%
%TF.FilePolarity,Positive*%
%FSLAX46Y46*%
G04 Gerber Fmt 4.6, Leading zero omitted, Abs format (unit mm)*
G04 Created by KiCad (PCBNEW 8.0.2-1) date 2024-08-29 11:45:14*
%MOMM*%
%LPD*%
G01*
G04 APERTURE LIST*
%ADD10C,0.150000*%
%ADD11C,0.120000*%
G04 APERTURE END LIST*
D10*
X124654819Y-127986904D02*
X124654819Y-127415476D01*
X125654819Y-127701190D02*
X124654819Y-127701190D01*
X125654819Y-127082142D02*
X124654819Y-127082142D01*
X124654819Y-127082142D02*
X124654819Y-126701190D01*
X124654819Y-126701190D02*
X124702438Y-126605952D01*
X124702438Y-126605952D02*
X124750057Y-126558333D01*
X124750057Y-126558333D02*
X124845295Y-126510714D01*
X124845295Y-126510714D02*
X124988152Y-126510714D01*
X124988152Y-126510714D02*
X125083390Y-126558333D01*
X125083390Y-126558333D02*
X125131009Y-126605952D01*
X125131009Y-126605952D02*
X125178628Y-126701190D01*
X125178628Y-126701190D02*
X125178628Y-127082142D01*
X124654819Y-126177380D02*
X124654819Y-125558333D01*
X124654819Y-125558333D02*
X125035771Y-125891666D01*
X125035771Y-125891666D02*
X125035771Y-125748809D01*
X125035771Y-125748809D02*
X125083390Y-125653571D01*
X125083390Y-125653571D02*
X125131009Y-125605952D01*
X125131009Y-125605952D02*
X125226247Y-125558333D01*
X125226247Y-125558333D02*
X125464342Y-125558333D01*
X125464342Y-125558333D02*
X125559580Y-125605952D01*
X125559580Y-125605952D02*
X125607200Y-125653571D01*
X125607200Y-125653571D02*
X125654819Y-125748809D01*
X125654819Y-125748809D02*
X125654819Y-126034523D01*
X125654819Y-126034523D02*
X125607200Y-126129761D01*
X125607200Y-126129761D02*
X125559580Y-126177380D01*
X108033333Y-128444580D02*
X107985714Y-128492200D01*
X107985714Y-128492200D02*
X107842857Y-128539819D01*
X107842857Y-128539819D02*
X107747619Y-128539819D01*
X107747619Y-128539819D02*
X107604762Y-128492200D01*
X107604762Y-128492200D02*
X107509524Y-128396961D01*
X107509524Y-128396961D02*
X107461905Y-128301723D01*
X107461905Y-128301723D02*
X107414286Y-128111247D01*
X107414286Y-128111247D02*
X107414286Y-127968390D01*
X107414286Y-127968390D02*
X107461905Y-127777914D01*
X107461905Y-127777914D02*
X107509524Y-127682676D01*
X107509524Y-127682676D02*
X107604762Y-127587438D01*
X107604762Y-127587438D02*
X107747619Y-127539819D01*
X107747619Y-127539819D02*
X107842857Y-127539819D01*
X107842857Y-127539819D02*
X107985714Y-127587438D01*
X107985714Y-127587438D02*
X108033333Y-127635057D01*
X108938095Y-127539819D02*
X108461905Y-127539819D01*
X108461905Y-127539819D02*
X108414286Y-128016009D01*
X108414286Y-128016009D02*
X108461905Y-127968390D01*
X108461905Y-127968390D02*
X108557143Y-127920771D01*
X108557143Y-127920771D02*
X108795238Y-127920771D01*
X108795238Y-127920771D02*
X108890476Y-127968390D01*
X108890476Y-127968390D02*
X108938095Y-128016009D01*
X108938095Y-128016009D02*
X108985714Y-128111247D01*
X108985714Y-128111247D02*
X108985714Y-128349342D01*
X108985714Y-128349342D02*
X108938095Y-128444580D01*
X108938095Y-128444580D02*
X108890476Y-128492200D01*
X108890476Y-128492200D02*
X108795238Y-128539819D01*
X108795238Y-128539819D02*
X108557143Y-128539819D01*
X108557143Y-128539819D02*
X108461905Y-128492200D01*
X108461905Y-128492200D02*
X108414286Y-128444580D01*
X104382933Y-122814580D02*
X104335314Y-122862200D01*
X104335314Y-122862200D02*
X104192457Y-122909819D01*
X104192457Y-122909819D02*
X104097219Y-122909819D01*
X104097219Y-122909819D02*
X103954362Y-122862200D01*
X103954362Y-122862200D02*
X103859124Y-122766961D01*
X103859124Y-122766961D02*
X103811505Y-122671723D01*
X103811505Y-122671723D02*
X103763886Y-122481247D01*
X103763886Y-122481247D02*
X103763886Y-122338390D01*
X103763886Y-122338390D02*
X103811505Y-122147914D01*
X103811505Y-122147914D02*
X103859124Y-122052676D01*
X103859124Y-122052676D02*
X103954362Y-121957438D01*
X103954362Y-121957438D02*
X104097219Y-121909819D01*
X104097219Y-121909819D02*
X104192457Y-121909819D01*
X104192457Y-121909819D02*
X104335314Y-121957438D01*
X104335314Y-121957438D02*
X104382933Y-122005057D01*
X105335314Y-122909819D02*
X104763886Y-122909819D01*
X105049600Y-122909819D02*
X105049600Y-121909819D01*
X105049600Y-121909819D02*
X104954362Y-122052676D01*
X104954362Y-122052676D02*
X104859124Y-122147914D01*
X104859124Y-122147914D02*
X104763886Y-122195533D01*
X97063095Y-49979819D02*
X97063095Y-48979819D01*
X97063095Y-49456009D02*
X97634523Y-49456009D01*
X97634523Y-49979819D02*
X97634523Y-48979819D01*
X98634523Y-49979819D02*
X98063095Y-49979819D01*
X98348809Y-49979819D02*
X98348809Y-48979819D01*
X98348809Y-48979819D02*
X98253571Y-49122676D01*
X98253571Y-49122676D02*
X98158333Y-49217914D01*
X98158333Y-49217914D02*
X98063095Y-49265533D01*
X108058333Y-132099819D02*
X107725000Y-131623628D01*
X107486905Y-132099819D02*
X107486905Y-131099819D01*
X107486905Y-131099819D02*
X107867857Y-131099819D01*
X107867857Y-131099819D02*
X107963095Y-131147438D01*
X107963095Y-131147438D02*
X108010714Y-131195057D01*
X108010714Y-131195057D02*
X108058333Y-131290295D01*
X108058333Y-131290295D02*
X108058333Y-131433152D01*
X108058333Y-131433152D02*
X108010714Y-131528390D01*
X108010714Y-131528390D02*
X107963095Y-131576009D01*
X107963095Y-131576009D02*
X107867857Y-131623628D01*
X107867857Y-131623628D02*
X107486905Y-131623628D01*
X108391667Y-131099819D02*
X109058333Y-131099819D01*
X109058333Y-131099819D02*
X108629762Y-132099819D01*
X142993647Y-121884819D02*
X142660314Y-121408628D01*
X142422219Y-121884819D02*
X142422219Y-120884819D01*
X142422219Y-120884819D02*
X142803171Y-120884819D01*
X142803171Y-120884819D02*
X142898409Y-120932438D01*
X142898409Y-120932438D02*
X142946028Y-120980057D01*
X142946028Y-120980057D02*
X142993647Y-121075295D01*
X142993647Y-121075295D02*
X142993647Y-121218152D01*
X142993647Y-121218152D02*
X142946028Y-121313390D01*
X142946028Y-121313390D02*
X142898409Y-121361009D01*
X142898409Y-121361009D02*
X142803171Y-121408628D01*
X142803171Y-121408628D02*
X142422219Y-121408628D01*
X143898409Y-120884819D02*
X143422219Y-120884819D01*
X143422219Y-120884819D02*
X143374600Y-121361009D01*
X143374600Y-121361009D02*
X143422219Y-121313390D01*
X143422219Y-121313390D02*
X143517457Y-121265771D01*
X143517457Y-121265771D02*
X143755552Y-121265771D01*
X143755552Y-121265771D02*
X143850790Y-121313390D01*
X143850790Y-121313390D02*
X143898409Y-121361009D01*
X143898409Y-121361009D02*
X143946028Y-121456247D01*
X143946028Y-121456247D02*
X143946028Y-121694342D01*
X143946028Y-121694342D02*
X143898409Y-121789580D01*
X143898409Y-121789580D02*
X143850790Y-121837200D01*
X143850790Y-121837200D02*
X143755552Y-121884819D01*
X143755552Y-121884819D02*
X143517457Y-121884819D01*
X143517457Y-121884819D02*
X143422219Y-121837200D01*
X143422219Y-121837200D02*
X143374600Y-121789580D01*
X144803171Y-121218152D02*
X144803171Y-121884819D01*
X144565076Y-120837200D02*
X144326981Y-121551485D01*
X144326981Y-121551485D02*
X144946028Y-121551485D01*
X145755552Y-120884819D02*
X145565076Y-120884819D01*
X145565076Y-120884819D02*
X145469838Y-120932438D01*
X145469838Y-120932438D02*
X145422219Y-120980057D01*
X145422219Y-120980057D02*
X145326981Y-121122914D01*
X145326981Y-121122914D02*
X145279362Y-121313390D01*
X145279362Y-121313390D02*
X145279362Y-121694342D01*
X145279362Y-121694342D02*
X145326981Y-121789580D01*
X145326981Y-121789580D02*
X145374600Y-121837200D01*
X145374600Y-121837200D02*
X145469838Y-121884819D01*
X145469838Y-121884819D02*
X145660314Y-121884819D01*
X145660314Y-121884819D02*
X145755552Y-121837200D01*
X145755552Y-121837200D02*
X145803171Y-121789580D01*
X145803171Y-121789580D02*
X145850790Y-121694342D01*
X145850790Y-121694342D02*
X145850790Y-121456247D01*
X145850790Y-121456247D02*
X145803171Y-121361009D01*
X145803171Y-121361009D02*
X145755552Y-121313390D01*
X145755552Y-121313390D02*
X145660314Y-121265771D01*
X145660314Y-121265771D02*
X145469838Y-121265771D01*
X145469838Y-121265771D02*
X145374600Y-121313390D01*
X145374600Y-121313390D02*
X145326981Y-121361009D01*
X145326981Y-121361009D02*
X145279362Y-121456247D01*
X146469838Y-120884819D02*
X146565076Y-120884819D01*
X146565076Y-120884819D02*
X146660314Y-120932438D01*
X146660314Y-120932438D02*
X146707933Y-120980057D01*
X146707933Y-120980057D02*
X146755552Y-121075295D01*
X146755552Y-121075295D02*
X146803171Y-121265771D01*
X146803171Y-121265771D02*
X146803171Y-121503866D01*
X146803171Y-121503866D02*
X146755552Y-121694342D01*
X146755552Y-121694342D02*
X146707933Y-121789580D01*
X146707933Y-121789580D02*
X146660314Y-121837200D01*
X146660314Y-121837200D02*
X146565076Y-121884819D01*
X146565076Y-121884819D02*
X146469838Y-121884819D01*
X146469838Y-121884819D02*
X146374600Y-121837200D01*
X146374600Y-121837200D02*
X146326981Y-121789580D01*
X146326981Y-121789580D02*
X146279362Y-121694342D01*
X146279362Y-121694342D02*
X146231743Y-121503866D01*
X146231743Y-121503866D02*
X146231743Y-121265771D01*
X146231743Y-121265771D02*
X146279362Y-121075295D01*
X146279362Y-121075295D02*
X146326981Y-120980057D01*
X146326981Y-120980057D02*
X146374600Y-120932438D01*
X146374600Y-120932438D02*
X146469838Y-120884819D01*
X147231743Y-121884819D02*
X147231743Y-120884819D01*
X147231743Y-120884819D02*
X147803171Y-121884819D01*
X147803171Y-121884819D02*
X147803171Y-120884819D01*
X148231743Y-120980057D02*
X148279362Y-120932438D01*
X148279362Y-120932438D02*
X148374600Y-120884819D01*
X148374600Y-120884819D02*
X148612695Y-120884819D01*
X148612695Y-120884819D02*
X148707933Y-120932438D01*
X148707933Y-120932438D02*
X148755552Y-120980057D01*
X148755552Y-120980057D02*
X148803171Y-121075295D01*
X148803171Y-121075295D02*
X148803171Y-121170533D01*
X148803171Y-121170533D02*
X148755552Y-121313390D01*
X148755552Y-121313390D02*
X148184124Y-121884819D01*
X148184124Y-121884819D02*
X148803171Y-121884819D01*
X149136505Y-120884819D02*
X149755552Y-120884819D01*
X149755552Y-120884819D02*
X149422219Y-121265771D01*
X149422219Y-121265771D02*
X149565076Y-121265771D01*
X149565076Y-121265771D02*
X149660314Y-121313390D01*
X149660314Y-121313390D02*
X149707933Y-121361009D01*
X149707933Y-121361009D02*
X149755552Y-121456247D01*
X149755552Y-121456247D02*
X149755552Y-121694342D01*
X149755552Y-121694342D02*
X149707933Y-121789580D01*
X149707933Y-121789580D02*
X149660314Y-121837200D01*
X149660314Y-121837200D02*
X149565076Y-121884819D01*
X149565076Y-121884819D02*
X149279362Y-121884819D01*
X149279362Y-121884819D02*
X149184124Y-121837200D01*
X149184124Y-121837200D02*
X149136505Y-121789580D01*
X150088886Y-120884819D02*
X150707933Y-120884819D01*
X150707933Y-120884819D02*
X150374600Y-121265771D01*
X150374600Y-121265771D02*
X150517457Y-121265771D01*
X150517457Y-121265771D02*
X150612695Y-121313390D01*
X150612695Y-121313390D02*
X150660314Y-121361009D01*
X150660314Y-121361009D02*
X150707933Y-121456247D01*
X150707933Y-121456247D02*
X150707933Y-121694342D01*
X150707933Y-121694342D02*
X150660314Y-121789580D01*
X150660314Y-121789580D02*
X150612695Y-121837200D01*
X150612695Y-121837200D02*
X150517457Y-121884819D01*
X150517457Y-121884819D02*
X150231743Y-121884819D01*
X150231743Y-121884819D02*
X150136505Y-121837200D01*
X150136505Y-121837200D02*
X150088886Y-121789580D01*
X151088886Y-121599104D02*
X151565076Y-121599104D01*
X150993648Y-121884819D02*
X151326981Y-120884819D01*
X151326981Y-120884819D02*
X151660314Y-121884819D01*
X152326981Y-121361009D02*
X151993648Y-121361009D01*
X151993648Y-121884819D02*
X151993648Y-120884819D01*
X151993648Y-120884819D02*
X152469838Y-120884819D01*
X153374600Y-121884819D02*
X152803172Y-121884819D01*
X153088886Y-121884819D02*
X153088886Y-120884819D01*
X153088886Y-120884819D02*
X152993648Y-121027676D01*
X152993648Y-121027676D02*
X152898410Y-121122914D01*
X152898410Y-121122914D02*
X152803172Y-121170533D01*
X178666266Y-119144819D02*
X178666266Y-119859104D01*
X178666266Y-119859104D02*
X178618647Y-120001961D01*
X178618647Y-120001961D02*
X178523409Y-120097200D01*
X178523409Y-120097200D02*
X178380552Y-120144819D01*
X178380552Y-120144819D02*
X178285314Y-120144819D01*
X179666266Y-120144819D02*
X179094838Y-120144819D01*
X179380552Y-120144819D02*
X179380552Y-119144819D01*
X179380552Y-119144819D02*
X179285314Y-119287676D01*
X179285314Y-119287676D02*
X179190076Y-119382914D01*
X179190076Y-119382914D02*
X179094838Y-119430533D01*
X101664286Y-127394819D02*
X102235714Y-127394819D01*
X101950000Y-128394819D02*
X101950000Y-127394819D01*
X102569048Y-127871009D02*
X102902381Y-127871009D01*
X103045238Y-128394819D02*
X102569048Y-128394819D01*
X102569048Y-128394819D02*
X102569048Y-127394819D01*
X102569048Y-127394819D02*
X103045238Y-127394819D01*
X103473810Y-128394819D02*
X103473810Y-127394819D01*
X103473810Y-127394819D02*
X103807143Y-128109104D01*
X103807143Y-128109104D02*
X104140476Y-127394819D01*
X104140476Y-127394819D02*
X104140476Y-128394819D01*
X104616667Y-128394819D02*
X104616667Y-127394819D01*
X104616667Y-127394819D02*
X104997619Y-127394819D01*
X104997619Y-127394819D02*
X105092857Y-127442438D01*
X105092857Y-127442438D02*
X105140476Y-127490057D01*
X105140476Y-127490057D02*
X105188095Y-127585295D01*
X105188095Y-127585295D02*
X105188095Y-127728152D01*
X105188095Y-127728152D02*
X105140476Y-127823390D01*
X105140476Y-127823390D02*
X105092857Y-127871009D01*
X105092857Y-127871009D02*
X104997619Y-127918628D01*
X104997619Y-127918628D02*
X104616667Y-127918628D01*
X106140476Y-128394819D02*
X105569048Y-128394819D01*
X105854762Y-128394819D02*
X105854762Y-127394819D01*
X105854762Y-127394819D02*
X105759524Y-127537676D01*
X105759524Y-127537676D02*
X105664286Y-127632914D01*
X105664286Y-127632914D02*
X105569048Y-127680533D01*
X136784362Y-95779819D02*
X136784362Y-94779819D01*
X137355790Y-95779819D02*
X136927219Y-95208390D01*
X137355790Y-94779819D02*
X136784362Y-95351247D01*
X137784362Y-95256009D02*
X138117695Y-95256009D01*
X138260552Y-95779819D02*
X137784362Y-95779819D01*
X137784362Y-95779819D02*
X137784362Y-94779819D01*
X137784362Y-94779819D02*
X138260552Y-94779819D01*
X138879600Y-95303628D02*
X138879600Y-95779819D01*
X138546267Y-94779819D02*
X138879600Y-95303628D01*
X138879600Y-95303628D02*
X139212933Y-94779819D01*
X139498648Y-95732200D02*
X139641505Y-95779819D01*
X139641505Y-95779819D02*
X139879600Y-95779819D01*
X139879600Y-95779819D02*
X139974838Y-95732200D01*
X139974838Y-95732200D02*
X140022457Y-95684580D01*
X140022457Y-95684580D02*
X140070076Y-95589342D01*
X140070076Y-95589342D02*
X140070076Y-95494104D01*
X140070076Y-95494104D02*
X140022457Y-95398866D01*
X140022457Y-95398866D02*
X139974838Y-95351247D01*
X139974838Y-95351247D02*
X139879600Y-95303628D01*
X139879600Y-95303628D02*
X139689124Y-95256009D01*
X139689124Y-95256009D02*
X139593886Y-95208390D01*
X139593886Y-95208390D02*
X139546267Y-95160771D01*
X139546267Y-95160771D02*
X139498648Y-95065533D01*
X139498648Y-95065533D02*
X139498648Y-94970295D01*
X139498648Y-94970295D02*
X139546267Y-94875057D01*
X139546267Y-94875057D02*
X139593886Y-94827438D01*
X139593886Y-94827438D02*
X139689124Y-94779819D01*
X139689124Y-94779819D02*
X139927219Y-94779819D01*
X139927219Y-94779819D02*
X140070076Y-94827438D01*
X140355791Y-94779819D02*
X140927219Y-94779819D01*
X140641505Y-95779819D02*
X140641505Y-94779819D01*
X141451029Y-94779819D02*
X141641505Y-94779819D01*
X141641505Y-94779819D02*
X141736743Y-94827438D01*
X141736743Y-94827438D02*
X141831981Y-94922676D01*
X141831981Y-94922676D02*
X141879600Y-95113152D01*
X141879600Y-95113152D02*
X141879600Y-95446485D01*
X141879600Y-95446485D02*
X141831981Y-95636961D01*
X141831981Y-95636961D02*
X141736743Y-95732200D01*
X141736743Y-95732200D02*
X141641505Y-95779819D01*
X141641505Y-95779819D02*
X141451029Y-95779819D01*
X141451029Y-95779819D02*
X141355791Y-95732200D01*
X141355791Y-95732200D02*
X141260553Y-95636961D01*
X141260553Y-95636961D02*
X141212934Y-95446485D01*
X141212934Y-95446485D02*
X141212934Y-95113152D01*
X141212934Y-95113152D02*
X141260553Y-94922676D01*
X141260553Y-94922676D02*
X141355791Y-94827438D01*
X141355791Y-94827438D02*
X141451029Y-94779819D01*
X142308172Y-95779819D02*
X142308172Y-94779819D01*
X142308172Y-94779819D02*
X142879600Y-95779819D01*
X142879600Y-95779819D02*
X142879600Y-94779819D01*
X143355791Y-95256009D02*
X143689124Y-95256009D01*
X143831981Y-95779819D02*
X143355791Y-95779819D01*
X143355791Y-95779819D02*
X143355791Y-94779819D01*
X143355791Y-94779819D02*
X143831981Y-94779819D01*
X144260553Y-95398866D02*
X145022458Y-95398866D01*
X145403410Y-94779819D02*
X146022457Y-94779819D01*
X146022457Y-94779819D02*
X145689124Y-95160771D01*
X145689124Y-95160771D02*
X145831981Y-95160771D01*
X145831981Y-95160771D02*
X145927219Y-95208390D01*
X145927219Y-95208390D02*
X145974838Y-95256009D01*
X145974838Y-95256009D02*
X146022457Y-95351247D01*
X146022457Y-95351247D02*
X146022457Y-95589342D01*
X146022457Y-95589342D02*
X145974838Y-95684580D01*
X145974838Y-95684580D02*
X145927219Y-95732200D01*
X145927219Y-95732200D02*
X145831981Y-95779819D01*
X145831981Y-95779819D02*
X145546267Y-95779819D01*
X145546267Y-95779819D02*
X145451029Y-95732200D01*
X145451029Y-95732200D02*
X145403410Y-95684580D01*
X115132933Y-122784819D02*
X114799600Y-122308628D01*
X114561505Y-122784819D02*
X114561505Y-121784819D01*
X114561505Y-121784819D02*
X114942457Y-121784819D01*
X114942457Y-121784819D02*
X115037695Y-121832438D01*
X115037695Y-121832438D02*
X115085314Y-121880057D01*
X115085314Y-121880057D02*
X115132933Y-121975295D01*
X115132933Y-121975295D02*
X115132933Y-122118152D01*
X115132933Y-122118152D02*
X115085314Y-122213390D01*
X115085314Y-122213390D02*
X115037695Y-122261009D01*
X115037695Y-122261009D02*
X114942457Y-122308628D01*
X114942457Y-122308628D02*
X114561505Y-122308628D01*
X115513886Y-121880057D02*
X115561505Y-121832438D01*
X115561505Y-121832438D02*
X115656743Y-121784819D01*
X115656743Y-121784819D02*
X115894838Y-121784819D01*
X115894838Y-121784819D02*
X115990076Y-121832438D01*
X115990076Y-121832438D02*
X116037695Y-121880057D01*
X116037695Y-121880057D02*
X116085314Y-121975295D01*
X116085314Y-121975295D02*
X116085314Y-122070533D01*
X116085314Y-122070533D02*
X116037695Y-122213390D01*
X116037695Y-122213390D02*
X115466267Y-122784819D01*
X115466267Y-122784819D02*
X116085314Y-122784819D01*
X109207933Y-127264580D02*
X109160314Y-127312200D01*
X109160314Y-127312200D02*
X109017457Y-127359819D01*
X109017457Y-127359819D02*
X108922219Y-127359819D01*
X108922219Y-127359819D02*
X108779362Y-127312200D01*
X108779362Y-127312200D02*
X108684124Y-127216961D01*
X108684124Y-127216961D02*
X108636505Y-127121723D01*
X108636505Y-127121723D02*
X108588886Y-126931247D01*
X108588886Y-126931247D02*
X108588886Y-126788390D01*
X108588886Y-126788390D02*
X108636505Y-126597914D01*
X108636505Y-126597914D02*
X108684124Y-126502676D01*
X108684124Y-126502676D02*
X108779362Y-126407438D01*
X108779362Y-126407438D02*
X108922219Y-126359819D01*
X108922219Y-126359819D02*
X109017457Y-126359819D01*
X109017457Y-126359819D02*
X109160314Y-126407438D01*
X109160314Y-126407438D02*
X109207933Y-126455057D01*
X110065076Y-126693152D02*
X110065076Y-127359819D01*
X109826981Y-126312200D02*
X109588886Y-127026485D01*
X109588886Y-127026485D02*
X110207933Y-127026485D01*
X112658333Y-132174819D02*
X112325000Y-131698628D01*
X112086905Y-132174819D02*
X112086905Y-131174819D01*
X112086905Y-131174819D02*
X112467857Y-131174819D01*
X112467857Y-131174819D02*
X112563095Y-131222438D01*
X112563095Y-131222438D02*
X112610714Y-131270057D01*
X112610714Y-131270057D02*
X112658333Y-131365295D01*
X112658333Y-131365295D02*
X112658333Y-131508152D01*
X112658333Y-131508152D02*
X112610714Y-131603390D01*
X112610714Y-131603390D02*
X112563095Y-131651009D01*
X112563095Y-131651009D02*
X112467857Y-131698628D01*
X112467857Y-131698628D02*
X112086905Y-131698628D01*
X113515476Y-131174819D02*
X113325000Y-131174819D01*
X113325000Y-131174819D02*
X113229762Y-131222438D01*
X113229762Y-131222438D02*
X113182143Y-131270057D01*
X113182143Y-131270057D02*
X113086905Y-131412914D01*
X113086905Y-131412914D02*
X113039286Y-131603390D01*
X113039286Y-131603390D02*
X113039286Y-131984342D01*
X113039286Y-131984342D02*
X113086905Y-132079580D01*
X113086905Y-132079580D02*
X113134524Y-132127200D01*
X113134524Y-132127200D02*
X113229762Y-132174819D01*
X113229762Y-132174819D02*
X113420238Y-132174819D01*
X113420238Y-132174819D02*
X113515476Y-132127200D01*
X113515476Y-132127200D02*
X113563095Y-132079580D01*
X113563095Y-132079580D02*
X113610714Y-131984342D01*
X113610714Y-131984342D02*
X113610714Y-131746247D01*
X113610714Y-131746247D02*
X113563095Y-131651009D01*
X113563095Y-131651009D02*
X113515476Y-131603390D01*
X113515476Y-131603390D02*
X113420238Y-131555771D01*
X113420238Y-131555771D02*
X113229762Y-131555771D01*
X113229762Y-131555771D02*
X113134524Y-131603390D01*
X113134524Y-131603390D02*
X113086905Y-131651009D01*
X113086905Y-131651009D02*
X113039286Y-131746247D01*
X115304819Y-128236904D02*
X115304819Y-127665476D01*
X116304819Y-127951190D02*
X115304819Y-127951190D01*
X116304819Y-127332142D02*
X115304819Y-127332142D01*
X115304819Y-127332142D02*
X115304819Y-126951190D01*
X115304819Y-126951190D02*
X115352438Y-126855952D01*
X115352438Y-126855952D02*
X115400057Y-126808333D01*
X115400057Y-126808333D02*
X115495295Y-126760714D01*
X115495295Y-126760714D02*
X115638152Y-126760714D01*
X115638152Y-126760714D02*
X115733390Y-126808333D01*
X115733390Y-126808333D02*
X115781009Y-126855952D01*
X115781009Y-126855952D02*
X115828628Y-126951190D01*
X115828628Y-126951190D02*
X115828628Y-127332142D01*
X116304819Y-125808333D02*
X116304819Y-126379761D01*
X116304819Y-126094047D02*
X115304819Y-126094047D01*
X115304819Y-126094047D02*
X115447676Y-126189285D01*
X115447676Y-126189285D02*
X115542914Y-126284523D01*
X115542914Y-126284523D02*
X115590533Y-126379761D01*
X119807933Y-122734819D02*
X119474600Y-122258628D01*
X119236505Y-122734819D02*
X119236505Y-121734819D01*
X119236505Y-121734819D02*
X119617457Y-121734819D01*
X119617457Y-121734819D02*
X119712695Y-121782438D01*
X119712695Y-121782438D02*
X119760314Y-121830057D01*
X119760314Y-121830057D02*
X119807933Y-121925295D01*
X119807933Y-121925295D02*
X119807933Y-122068152D01*
X119807933Y-122068152D02*
X119760314Y-122163390D01*
X119760314Y-122163390D02*
X119712695Y-122211009D01*
X119712695Y-122211009D02*
X119617457Y-122258628D01*
X119617457Y-122258628D02*
X119236505Y-122258628D01*
X120141267Y-121734819D02*
X120760314Y-121734819D01*
X120760314Y-121734819D02*
X120426981Y-122115771D01*
X120426981Y-122115771D02*
X120569838Y-122115771D01*
X120569838Y-122115771D02*
X120665076Y-122163390D01*
X120665076Y-122163390D02*
X120712695Y-122211009D01*
X120712695Y-122211009D02*
X120760314Y-122306247D01*
X120760314Y-122306247D02*
X120760314Y-122544342D01*
X120760314Y-122544342D02*
X120712695Y-122639580D01*
X120712695Y-122639580D02*
X120665076Y-122687200D01*
X120665076Y-122687200D02*
X120569838Y-122734819D01*
X120569838Y-122734819D02*
X120284124Y-122734819D01*
X120284124Y-122734819D02*
X120188886Y-122687200D01*
X120188886Y-122687200D02*
X120141267Y-122639580D01*
X104307933Y-127314580D02*
X104260314Y-127362200D01*
X104260314Y-127362200D02*
X104117457Y-127409819D01*
X104117457Y-127409819D02*
X104022219Y-127409819D01*
X104022219Y-127409819D02*
X103879362Y-127362200D01*
X103879362Y-127362200D02*
X103784124Y-127266961D01*
X103784124Y-127266961D02*
X103736505Y-127171723D01*
X103736505Y-127171723D02*
X103688886Y-126981247D01*
X103688886Y-126981247D02*
X103688886Y-126838390D01*
X103688886Y-126838390D02*
X103736505Y-126647914D01*
X103736505Y-126647914D02*
X103784124Y-126552676D01*
X103784124Y-126552676D02*
X103879362Y-126457438D01*
X103879362Y-126457438D02*
X104022219Y-126409819D01*
X104022219Y-126409819D02*
X104117457Y-126409819D01*
X104117457Y-126409819D02*
X104260314Y-126457438D01*
X104260314Y-126457438D02*
X104307933Y-126505057D01*
X104641267Y-126409819D02*
X105260314Y-126409819D01*
X105260314Y-126409819D02*
X104926981Y-126790771D01*
X104926981Y-126790771D02*
X105069838Y-126790771D01*
X105069838Y-126790771D02*
X105165076Y-126838390D01*
X105165076Y-126838390D02*
X105212695Y-126886009D01*
X105212695Y-126886009D02*
X105260314Y-126981247D01*
X105260314Y-126981247D02*
X105260314Y-127219342D01*
X105260314Y-127219342D02*
X105212695Y-127314580D01*
X105212695Y-127314580D02*
X105165076Y-127362200D01*
X105165076Y-127362200D02*
X105069838Y-127409819D01*
X105069838Y-127409819D02*
X104784124Y-127409819D01*
X104784124Y-127409819D02*
X104688886Y-127362200D01*
X104688886Y-127362200D02*
X104641267Y-127314580D01*
X136134362Y-72754819D02*
X136134362Y-71754819D01*
X136705790Y-72754819D02*
X136277219Y-72183390D01*
X136705790Y-71754819D02*
X136134362Y-72326247D01*
X137134362Y-72231009D02*
X137467695Y-72231009D01*
X137610552Y-72754819D02*
X137134362Y-72754819D01*
X137134362Y-72754819D02*
X137134362Y-71754819D01*
X137134362Y-71754819D02*
X137610552Y-71754819D01*
X138229600Y-72278628D02*
X138229600Y-72754819D01*
X137896267Y-71754819D02*
X138229600Y-72278628D01*
X138229600Y-72278628D02*
X138562933Y-71754819D01*
X138848648Y-72707200D02*
X138991505Y-72754819D01*
X138991505Y-72754819D02*
X139229600Y-72754819D01*
X139229600Y-72754819D02*
X139324838Y-72707200D01*
X139324838Y-72707200D02*
X139372457Y-72659580D01*
X139372457Y-72659580D02*
X139420076Y-72564342D01*
X139420076Y-72564342D02*
X139420076Y-72469104D01*
X139420076Y-72469104D02*
X139372457Y-72373866D01*
X139372457Y-72373866D02*
X139324838Y-72326247D01*
X139324838Y-72326247D02*
X139229600Y-72278628D01*
X139229600Y-72278628D02*
X139039124Y-72231009D01*
X139039124Y-72231009D02*
X138943886Y-72183390D01*
X138943886Y-72183390D02*
X138896267Y-72135771D01*
X138896267Y-72135771D02*
X138848648Y-72040533D01*
X138848648Y-72040533D02*
X138848648Y-71945295D01*
X138848648Y-71945295D02*
X138896267Y-71850057D01*
X138896267Y-71850057D02*
X138943886Y-71802438D01*
X138943886Y-71802438D02*
X139039124Y-71754819D01*
X139039124Y-71754819D02*
X139277219Y-71754819D01*
X139277219Y-71754819D02*
X139420076Y-71802438D01*
X139705791Y-71754819D02*
X140277219Y-71754819D01*
X139991505Y-72754819D02*
X139991505Y-71754819D01*
X140801029Y-71754819D02*
X140991505Y-71754819D01*
X140991505Y-71754819D02*
X141086743Y-71802438D01*
X141086743Y-71802438D02*
X141181981Y-71897676D01*
X141181981Y-71897676D02*
X141229600Y-72088152D01*
X141229600Y-72088152D02*
X141229600Y-72421485D01*
X141229600Y-72421485D02*
X141181981Y-72611961D01*
X141181981Y-72611961D02*
X141086743Y-72707200D01*
X141086743Y-72707200D02*
X140991505Y-72754819D01*
X140991505Y-72754819D02*
X140801029Y-72754819D01*
X140801029Y-72754819D02*
X140705791Y-72707200D01*
X140705791Y-72707200D02*
X140610553Y-72611961D01*
X140610553Y-72611961D02*
X140562934Y-72421485D01*
X140562934Y-72421485D02*
X140562934Y-72088152D01*
X140562934Y-72088152D02*
X140610553Y-71897676D01*
X140610553Y-71897676D02*
X140705791Y-71802438D01*
X140705791Y-71802438D02*
X140801029Y-71754819D01*
X141658172Y-72754819D02*
X141658172Y-71754819D01*
X141658172Y-71754819D02*
X142229600Y-72754819D01*
X142229600Y-72754819D02*
X142229600Y-71754819D01*
X142705791Y-72231009D02*
X143039124Y-72231009D01*
X143181981Y-72754819D02*
X142705791Y-72754819D01*
X142705791Y-72754819D02*
X142705791Y-71754819D01*
X142705791Y-71754819D02*
X143181981Y-71754819D01*
X143610553Y-72373866D02*
X144372458Y-72373866D01*
X144801029Y-71850057D02*
X144848648Y-71802438D01*
X144848648Y-71802438D02*
X144943886Y-71754819D01*
X144943886Y-71754819D02*
X145181981Y-71754819D01*
X145181981Y-71754819D02*
X145277219Y-71802438D01*
X145277219Y-71802438D02*
X145324838Y-71850057D01*
X145324838Y-71850057D02*
X145372457Y-71945295D01*
X145372457Y-71945295D02*
X145372457Y-72040533D01*
X145372457Y-72040533D02*
X145324838Y-72183390D01*
X145324838Y-72183390D02*
X144753410Y-72754819D01*
X144753410Y-72754819D02*
X145372457Y-72754819D01*
X109132933Y-122864580D02*
X109085314Y-122912200D01*
X109085314Y-122912200D02*
X108942457Y-122959819D01*
X108942457Y-122959819D02*
X108847219Y-122959819D01*
X108847219Y-122959819D02*
X108704362Y-122912200D01*
X108704362Y-122912200D02*
X108609124Y-122816961D01*
X108609124Y-122816961D02*
X108561505Y-122721723D01*
X108561505Y-122721723D02*
X108513886Y-122531247D01*
X108513886Y-122531247D02*
X108513886Y-122388390D01*
X108513886Y-122388390D02*
X108561505Y-122197914D01*
X108561505Y-122197914D02*
X108609124Y-122102676D01*
X108609124Y-122102676D02*
X108704362Y-122007438D01*
X108704362Y-122007438D02*
X108847219Y-121959819D01*
X108847219Y-121959819D02*
X108942457Y-121959819D01*
X108942457Y-121959819D02*
X109085314Y-122007438D01*
X109085314Y-122007438D02*
X109132933Y-122055057D01*
X109513886Y-122055057D02*
X109561505Y-122007438D01*
X109561505Y-122007438D02*
X109656743Y-121959819D01*
X109656743Y-121959819D02*
X109894838Y-121959819D01*
X109894838Y-121959819D02*
X109990076Y-122007438D01*
X109990076Y-122007438D02*
X110037695Y-122055057D01*
X110037695Y-122055057D02*
X110085314Y-122150295D01*
X110085314Y-122150295D02*
X110085314Y-122245533D01*
X110085314Y-122245533D02*
X110037695Y-122388390D01*
X110037695Y-122388390D02*
X109466267Y-122959819D01*
X109466267Y-122959819D02*
X110085314Y-122959819D01*
X124557933Y-122709819D02*
X124224600Y-122233628D01*
X123986505Y-122709819D02*
X123986505Y-121709819D01*
X123986505Y-121709819D02*
X124367457Y-121709819D01*
X124367457Y-121709819D02*
X124462695Y-121757438D01*
X124462695Y-121757438D02*
X124510314Y-121805057D01*
X124510314Y-121805057D02*
X124557933Y-121900295D01*
X124557933Y-121900295D02*
X124557933Y-122043152D01*
X124557933Y-122043152D02*
X124510314Y-122138390D01*
X124510314Y-122138390D02*
X124462695Y-122186009D01*
X124462695Y-122186009D02*
X124367457Y-122233628D01*
X124367457Y-122233628D02*
X123986505Y-122233628D01*
X125415076Y-122043152D02*
X125415076Y-122709819D01*
X125176981Y-121662200D02*
X124938886Y-122376485D01*
X124938886Y-122376485D02*
X125557933Y-122376485D01*
X182713095Y-127354819D02*
X182713095Y-126354819D01*
X182713095Y-126831009D02*
X183284523Y-126831009D01*
X183284523Y-127354819D02*
X183284523Y-126354819D01*
X184189285Y-126688152D02*
X184189285Y-127354819D01*
X183951190Y-126307200D02*
X183713095Y-127021485D01*
X183713095Y-127021485D02*
X184332142Y-127021485D01*
X97013095Y-123604819D02*
X97013095Y-122604819D01*
X97013095Y-123081009D02*
X97584523Y-123081009D01*
X97584523Y-123604819D02*
X97584523Y-122604819D01*
X97965476Y-122604819D02*
X98584523Y-122604819D01*
X98584523Y-122604819D02*
X98251190Y-122985771D01*
X98251190Y-122985771D02*
X98394047Y-122985771D01*
X98394047Y-122985771D02*
X98489285Y-123033390D01*
X98489285Y-123033390D02*
X98536904Y-123081009D01*
X98536904Y-123081009D02*
X98584523Y-123176247D01*
X98584523Y-123176247D02*
X98584523Y-123414342D01*
X98584523Y-123414342D02*
X98536904Y-123509580D01*
X98536904Y-123509580D02*
X98489285Y-123557200D01*
X98489285Y-123557200D02*
X98394047Y-123604819D01*
X98394047Y-123604819D02*
X98108333Y-123604819D01*
X98108333Y-123604819D02*
X98013095Y-123557200D01*
X98013095Y-123557200D02*
X97965476Y-123509580D01*
X171104361Y-125725057D02*
X171009123Y-125677438D01*
X171009123Y-125677438D02*
X170913885Y-125582200D01*
X170913885Y-125582200D02*
X170771028Y-125439342D01*
X170771028Y-125439342D02*
X170675790Y-125391723D01*
X170675790Y-125391723D02*
X170580552Y-125391723D01*
X170628171Y-125629819D02*
X170532933Y-125582200D01*
X170532933Y-125582200D02*
X170437695Y-125486961D01*
X170437695Y-125486961D02*
X170390076Y-125296485D01*
X170390076Y-125296485D02*
X170390076Y-124963152D01*
X170390076Y-124963152D02*
X170437695Y-124772676D01*
X170437695Y-124772676D02*
X170532933Y-124677438D01*
X170532933Y-124677438D02*
X170628171Y-124629819D01*
X170628171Y-124629819D02*
X170818647Y-124629819D01*
X170818647Y-124629819D02*
X170913885Y-124677438D01*
X170913885Y-124677438D02*
X171009123Y-124772676D01*
X171009123Y-124772676D02*
X171056742Y-124963152D01*
X171056742Y-124963152D02*
X171056742Y-125296485D01*
X171056742Y-125296485D02*
X171009123Y-125486961D01*
X171009123Y-125486961D02*
X170913885Y-125582200D01*
X170913885Y-125582200D02*
X170818647Y-125629819D01*
X170818647Y-125629819D02*
X170628171Y-125629819D01*
X171437695Y-124725057D02*
X171485314Y-124677438D01*
X171485314Y-124677438D02*
X171580552Y-124629819D01*
X171580552Y-124629819D02*
X171818647Y-124629819D01*
X171818647Y-124629819D02*
X171913885Y-124677438D01*
X171913885Y-124677438D02*
X171961504Y-124725057D01*
X171961504Y-124725057D02*
X172009123Y-124820295D01*
X172009123Y-124820295D02*
X172009123Y-124915533D01*
X172009123Y-124915533D02*
X171961504Y-125058390D01*
X171961504Y-125058390D02*
X171390076Y-125629819D01*
X171390076Y-125629819D02*
X172009123Y-125629819D01*
X136179362Y-49454819D02*
X136179362Y-48454819D01*
X136750790Y-49454819D02*
X136322219Y-48883390D01*
X136750790Y-48454819D02*
X136179362Y-49026247D01*
X137179362Y-48931009D02*
X137512695Y-48931009D01*
X137655552Y-49454819D02*
X137179362Y-49454819D01*
X137179362Y-49454819D02*
X137179362Y-48454819D01*
X137179362Y-48454819D02*
X137655552Y-48454819D01*
X138274600Y-48978628D02*
X138274600Y-49454819D01*
X137941267Y-48454819D02*
X138274600Y-48978628D01*
X138274600Y-48978628D02*
X138607933Y-48454819D01*
X138893648Y-49407200D02*
X139036505Y-49454819D01*
X139036505Y-49454819D02*
X139274600Y-49454819D01*
X139274600Y-49454819D02*
X139369838Y-49407200D01*
X139369838Y-49407200D02*
X139417457Y-49359580D01*
X139417457Y-49359580D02*
X139465076Y-49264342D01*
X139465076Y-49264342D02*
X139465076Y-49169104D01*
X139465076Y-49169104D02*
X139417457Y-49073866D01*
X139417457Y-49073866D02*
X139369838Y-49026247D01*
X139369838Y-49026247D02*
X139274600Y-48978628D01*
X139274600Y-48978628D02*
X139084124Y-48931009D01*
X139084124Y-48931009D02*
X138988886Y-48883390D01*
X138988886Y-48883390D02*
X138941267Y-48835771D01*
X138941267Y-48835771D02*
X138893648Y-48740533D01*
X138893648Y-48740533D02*
X138893648Y-48645295D01*
X138893648Y-48645295D02*
X138941267Y-48550057D01*
X138941267Y-48550057D02*
X138988886Y-48502438D01*
X138988886Y-48502438D02*
X139084124Y-48454819D01*
X139084124Y-48454819D02*
X139322219Y-48454819D01*
X139322219Y-48454819D02*
X139465076Y-48502438D01*
X139750791Y-48454819D02*
X140322219Y-48454819D01*
X140036505Y-49454819D02*
X140036505Y-48454819D01*
X140846029Y-48454819D02*
X141036505Y-48454819D01*
X141036505Y-48454819D02*
X141131743Y-48502438D01*
X141131743Y-48502438D02*
X141226981Y-48597676D01*
X141226981Y-48597676D02*
X141274600Y-48788152D01*
X141274600Y-48788152D02*
X141274600Y-49121485D01*
X141274600Y-49121485D02*
X141226981Y-49311961D01*
X141226981Y-49311961D02*
X141131743Y-49407200D01*
X141131743Y-49407200D02*
X141036505Y-49454819D01*
X141036505Y-49454819D02*
X140846029Y-49454819D01*
X140846029Y-49454819D02*
X140750791Y-49407200D01*
X140750791Y-49407200D02*
X140655553Y-49311961D01*
X140655553Y-49311961D02*
X140607934Y-49121485D01*
X140607934Y-49121485D02*
X140607934Y-48788152D01*
X140607934Y-48788152D02*
X140655553Y-48597676D01*
X140655553Y-48597676D02*
X140750791Y-48502438D01*
X140750791Y-48502438D02*
X140846029Y-48454819D01*
X141703172Y-49454819D02*
X141703172Y-48454819D01*
X141703172Y-48454819D02*
X142274600Y-49454819D01*
X142274600Y-49454819D02*
X142274600Y-48454819D01*
X142750791Y-48931009D02*
X143084124Y-48931009D01*
X143226981Y-49454819D02*
X142750791Y-49454819D01*
X142750791Y-49454819D02*
X142750791Y-48454819D01*
X142750791Y-48454819D02*
X143226981Y-48454819D01*
X143655553Y-49073866D02*
X144417458Y-49073866D01*
X145417457Y-49454819D02*
X144846029Y-49454819D01*
X145131743Y-49454819D02*
X145131743Y-48454819D01*
X145131743Y-48454819D02*
X145036505Y-48597676D01*
X145036505Y-48597676D02*
X144941267Y-48692914D01*
X144941267Y-48692914D02*
X144846029Y-48740533D01*
X171582933Y-120009819D02*
X171249600Y-119533628D01*
X171011505Y-120009819D02*
X171011505Y-119009819D01*
X171011505Y-119009819D02*
X171392457Y-119009819D01*
X171392457Y-119009819D02*
X171487695Y-119057438D01*
X171487695Y-119057438D02*
X171535314Y-119105057D01*
X171535314Y-119105057D02*
X171582933Y-119200295D01*
X171582933Y-119200295D02*
X171582933Y-119343152D01*
X171582933Y-119343152D02*
X171535314Y-119438390D01*
X171535314Y-119438390D02*
X171487695Y-119486009D01*
X171487695Y-119486009D02*
X171392457Y-119533628D01*
X171392457Y-119533628D02*
X171011505Y-119533628D01*
X172535314Y-120009819D02*
X171963886Y-120009819D01*
X172249600Y-120009819D02*
X172249600Y-119009819D01*
X172249600Y-119009819D02*
X172154362Y-119152676D01*
X172154362Y-119152676D02*
X172059124Y-119247914D01*
X172059124Y-119247914D02*
X171963886Y-119295533D01*
X174634419Y-128935713D02*
X174634419Y-128364285D01*
X175634419Y-128649999D02*
X174634419Y-128649999D01*
X175634419Y-128030951D02*
X174634419Y-128030951D01*
X175110609Y-128030951D02*
X175110609Y-127459523D01*
X175634419Y-127459523D02*
X174634419Y-127459523D01*
X175634419Y-126459523D02*
X175634419Y-127030951D01*
X175634419Y-126745237D02*
X174634419Y-126745237D01*
X174634419Y-126745237D02*
X174777276Y-126840475D01*
X174777276Y-126840475D02*
X174872514Y-126935713D01*
X174872514Y-126935713D02*
X174920133Y-127030951D01*
X161216266Y-119904819D02*
X161216266Y-120619104D01*
X161216266Y-120619104D02*
X161168647Y-120761961D01*
X161168647Y-120761961D02*
X161073409Y-120857200D01*
X161073409Y-120857200D02*
X160930552Y-120904819D01*
X160930552Y-120904819D02*
X160835314Y-120904819D01*
X161644838Y-120000057D02*
X161692457Y-119952438D01*
X161692457Y-119952438D02*
X161787695Y-119904819D01*
X161787695Y-119904819D02*
X162025790Y-119904819D01*
X162025790Y-119904819D02*
X162121028Y-119952438D01*
X162121028Y-119952438D02*
X162168647Y-120000057D01*
X162168647Y-120000057D02*
X162216266Y-120095295D01*
X162216266Y-120095295D02*
X162216266Y-120190533D01*
X162216266Y-120190533D02*
X162168647Y-120333390D01*
X162168647Y-120333390D02*
X161597219Y-120904819D01*
X161597219Y-120904819D02*
X162216266Y-120904819D01*
X128904819Y-127811904D02*
X128904819Y-127240476D01*
X129904819Y-127526190D02*
X128904819Y-127526190D01*
X129904819Y-126907142D02*
X128904819Y-126907142D01*
X128904819Y-126907142D02*
X128904819Y-126526190D01*
X128904819Y-126526190D02*
X128952438Y-126430952D01*
X128952438Y-126430952D02*
X129000057Y-126383333D01*
X129000057Y-126383333D02*
X129095295Y-126335714D01*
X129095295Y-126335714D02*
X129238152Y-126335714D01*
X129238152Y-126335714D02*
X129333390Y-126383333D01*
X129333390Y-126383333D02*
X129381009Y-126430952D01*
X129381009Y-126430952D02*
X129428628Y-126526190D01*
X129428628Y-126526190D02*
X129428628Y-126907142D01*
X129238152Y-125478571D02*
X129904819Y-125478571D01*
X128857200Y-125716666D02*
X129571485Y-125954761D01*
X129571485Y-125954761D02*
X129571485Y-125335714D01*
X182788095Y-47454819D02*
X182788095Y-46454819D01*
X182788095Y-46931009D02*
X183359523Y-46931009D01*
X183359523Y-47454819D02*
X183359523Y-46454819D01*
X183788095Y-46550057D02*
X183835714Y-46502438D01*
X183835714Y-46502438D02*
X183930952Y-46454819D01*
X183930952Y-46454819D02*
X184169047Y-46454819D01*
X184169047Y-46454819D02*
X184264285Y-46502438D01*
X184264285Y-46502438D02*
X184311904Y-46550057D01*
X184311904Y-46550057D02*
X184359523Y-46645295D01*
X184359523Y-46645295D02*
X184359523Y-46740533D01*
X184359523Y-46740533D02*
X184311904Y-46883390D01*
X184311904Y-46883390D02*
X183740476Y-47454819D01*
X183740476Y-47454819D02*
X184359523Y-47454819D01*
X183589657Y-191945238D02*
X183542038Y-192040476D01*
X183542038Y-192040476D02*
X183446800Y-192135714D01*
X183446800Y-192135714D02*
X183303942Y-192278571D01*
X183303942Y-192278571D02*
X183256323Y-192373809D01*
X183256323Y-192373809D02*
X183256323Y-192469047D01*
X183494419Y-192421428D02*
X183446800Y-192516666D01*
X183446800Y-192516666D02*
X183351561Y-192611904D01*
X183351561Y-192611904D02*
X183161085Y-192659523D01*
X183161085Y-192659523D02*
X182827752Y-192659523D01*
X182827752Y-192659523D02*
X182637276Y-192611904D01*
X182637276Y-192611904D02*
X182542038Y-192516666D01*
X182542038Y-192516666D02*
X182494419Y-192421428D01*
X182494419Y-192421428D02*
X182494419Y-192230952D01*
X182494419Y-192230952D02*
X182542038Y-192135714D01*
X182542038Y-192135714D02*
X182637276Y-192040476D01*
X182637276Y-192040476D02*
X182827752Y-191992857D01*
X182827752Y-191992857D02*
X183161085Y-191992857D01*
X183161085Y-191992857D02*
X183351561Y-192040476D01*
X183351561Y-192040476D02*
X183446800Y-192135714D01*
X183446800Y-192135714D02*
X183494419Y-192230952D01*
X183494419Y-192230952D02*
X183494419Y-192421428D01*
X183494419Y-191040476D02*
X183494419Y-191611904D01*
X183494419Y-191326190D02*
X182494419Y-191326190D01*
X182494419Y-191326190D02*
X182637276Y-191421428D01*
X182637276Y-191421428D02*
X182732514Y-191516666D01*
X182732514Y-191516666D02*
X182780133Y-191611904D01*
X120179819Y-128061904D02*
X120179819Y-127490476D01*
X121179819Y-127776190D02*
X120179819Y-127776190D01*
X121179819Y-127157142D02*
X120179819Y-127157142D01*
X120179819Y-127157142D02*
X120179819Y-126776190D01*
X120179819Y-126776190D02*
X120227438Y-126680952D01*
X120227438Y-126680952D02*
X120275057Y-126633333D01*
X120275057Y-126633333D02*
X120370295Y-126585714D01*
X120370295Y-126585714D02*
X120513152Y-126585714D01*
X120513152Y-126585714D02*
X120608390Y-126633333D01*
X120608390Y-126633333D02*
X120656009Y-126680952D01*
X120656009Y-126680952D02*
X120703628Y-126776190D01*
X120703628Y-126776190D02*
X120703628Y-127157142D01*
X120275057Y-126204761D02*
X120227438Y-126157142D01*
X120227438Y-126157142D02*
X120179819Y-126061904D01*
X120179819Y-126061904D02*
X120179819Y-125823809D01*
X120179819Y-125823809D02*
X120227438Y-125728571D01*
X120227438Y-125728571D02*
X120275057Y-125680952D01*
X120275057Y-125680952D02*
X120370295Y-125633333D01*
X120370295Y-125633333D02*
X120465533Y-125633333D01*
X120465533Y-125633333D02*
X120608390Y-125680952D01*
X120608390Y-125680952D02*
X121179819Y-126252380D01*
X121179819Y-126252380D02*
X121179819Y-125633333D01*
D11*
%TO.C,TP3*%
X124200000Y-127425000D02*
G75*
G02*
X121200000Y-127425000I-1500000J0D01*
G01*
X121200000Y-127425000D02*
G75*
G02*
X124200000Y-127425000I1500000J0D01*
G01*
%TO.C,C5*%
X108059420Y-129005000D02*
X108340580Y-129005000D01*
X108059420Y-130025000D02*
X108340580Y-130025000D01*
%TO.C,C1*%
X104690180Y-120515000D02*
X104409020Y-120515000D01*
X104690180Y-121535000D02*
X104409020Y-121535000D01*
%TO.C,R7*%
X107987742Y-132552500D02*
X108462258Y-132552500D01*
X107987742Y-133597500D02*
X108462258Y-133597500D01*
%TO.C,R5460N233AF1*%
X143834600Y-123000000D02*
X145274600Y-123000000D01*
X145274600Y-122430000D02*
X145274600Y-123000000D01*
X145274600Y-122430000D02*
X150474600Y-122430000D01*
X145274600Y-124520000D02*
X145274600Y-125540000D01*
X145274600Y-127060000D02*
X145274600Y-128080000D01*
X145274600Y-129600000D02*
X145274600Y-130170000D01*
X145274600Y-130170000D02*
X150474600Y-130170000D01*
X150474600Y-122430000D02*
X150474600Y-123000000D01*
X150474600Y-124520000D02*
X150474600Y-125540000D01*
X150474600Y-127060000D02*
X150474600Y-128080000D01*
X150474600Y-129600000D02*
X150474600Y-130170000D01*
%TO.C,J1*%
X178304600Y-120565000D02*
X178999600Y-120565000D01*
X178304600Y-121250000D02*
X178304600Y-120565000D01*
X178304600Y-121935000D02*
X178304600Y-121810000D01*
X178304600Y-121935000D02*
X178391324Y-121935000D01*
X178304600Y-121935000D02*
X179694600Y-121935000D01*
X179607876Y-121935000D02*
X179694600Y-121935000D01*
X179694600Y-121935000D02*
X179694600Y-121810000D01*
%TO.C,TEMP1*%
X102770000Y-128765000D02*
X105130000Y-128765000D01*
X102770000Y-132915000D02*
X105130000Y-132915000D01*
X102550000Y-129390000D02*
X102220000Y-129630000D01*
X102220000Y-129150000D01*
X102550000Y-129390000D01*
G36*
X102550000Y-129390000D02*
G01*
X102220000Y-129630000D01*
X102220000Y-129150000D01*
X102550000Y-129390000D01*
G37*
%TO.C,KEYSTONE-3*%
X97629600Y-100825000D02*
X100129600Y-100825000D01*
X98879600Y-102075000D02*
X98879600Y-99575000D01*
X102739600Y-96385000D02*
X102739600Y-103385000D01*
X102739600Y-103385000D02*
X98379600Y-103385000D01*
X102739600Y-117265000D02*
X102739600Y-110265000D01*
X180019600Y-96385000D02*
X102739600Y-96385000D01*
X180019600Y-103385000D02*
X180019600Y-96405000D01*
X180019600Y-110265000D02*
X180019600Y-117265000D01*
X180019600Y-117265000D02*
X102739600Y-117265000D01*
X185129600Y-100825000D02*
X182629600Y-100825000D01*
%TO.C,R2*%
X115536858Y-120377500D02*
X115062342Y-120377500D01*
X115536858Y-121422500D02*
X115062342Y-121422500D01*
%TO.C,C4*%
X109515180Y-124965000D02*
X109234020Y-124965000D01*
X109515180Y-125985000D02*
X109234020Y-125985000D01*
%TO.C,R6*%
X112587742Y-132627500D02*
X113062258Y-132627500D01*
X112587742Y-133672500D02*
X113062258Y-133672500D01*
%TO.C,TP1*%
X114850000Y-127675000D02*
G75*
G02*
X111850000Y-127675000I-1500000J0D01*
G01*
X111850000Y-127675000D02*
G75*
G02*
X114850000Y-127675000I1500000J0D01*
G01*
%TO.C,R3*%
X120211858Y-120327500D02*
X119737342Y-120327500D01*
X120211858Y-121372500D02*
X119737342Y-121372500D01*
%TO.C,C3*%
X104615180Y-125015000D02*
X104334020Y-125015000D01*
X104615180Y-126035000D02*
X104334020Y-126035000D01*
%TO.C,KEYSTONE-2*%
X96979600Y-77800000D02*
X99479600Y-77800000D01*
X98229600Y-79050000D02*
X98229600Y-76550000D01*
X102089600Y-73360000D02*
X102089600Y-80360000D01*
X102089600Y-80360000D02*
X97729600Y-80360000D01*
X102089600Y-94240000D02*
X102089600Y-87240000D01*
X179369600Y-73360000D02*
X102089600Y-73360000D01*
X179369600Y-80360000D02*
X179369600Y-73380000D01*
X179369600Y-87240000D02*
X179369600Y-94240000D01*
X179369600Y-94240000D02*
X102089600Y-94240000D01*
X184479600Y-77800000D02*
X181979600Y-77800000D01*
%TO.C,C2*%
X109440180Y-120565000D02*
X109159020Y-120565000D01*
X109440180Y-121585000D02*
X109159020Y-121585000D01*
%TO.C,R4*%
X124961858Y-120302500D02*
X124487342Y-120302500D01*
X124961858Y-121347500D02*
X124487342Y-121347500D01*
%TO.C,Q2*%
X171199600Y-126015000D02*
X169249600Y-126015000D01*
X171199600Y-126015000D02*
X173149600Y-126015000D01*
X171199600Y-131135000D02*
X169249600Y-131135000D01*
X171199600Y-131135000D02*
X173149600Y-131135000D01*
X168499600Y-126110000D02*
X168259600Y-125780000D01*
X168739600Y-125780000D01*
X168499600Y-126110000D01*
G36*
X168499600Y-126110000D02*
G01*
X168259600Y-125780000D01*
X168739600Y-125780000D01*
X168499600Y-126110000D01*
G37*
%TO.C,KEYSTONE-1*%
X97024600Y-54500000D02*
X99524600Y-54500000D01*
X98274600Y-55750000D02*
X98274600Y-53250000D01*
X102134600Y-50060000D02*
X102134600Y-57060000D01*
X102134600Y-57060000D02*
X97774600Y-57060000D01*
X102134600Y-70940000D02*
X102134600Y-63940000D01*
X179414600Y-50060000D02*
X102134600Y-50060000D01*
X179414600Y-57060000D02*
X179414600Y-50080000D01*
X179414600Y-63940000D02*
X179414600Y-70940000D01*
X179414600Y-70940000D02*
X102134600Y-70940000D01*
X184524600Y-54500000D02*
X182024600Y-54500000D01*
%TO.C,R1*%
X169572536Y-120465000D02*
X173926664Y-120465000D01*
X169572536Y-123885000D02*
X173926664Y-123885000D01*
%TO.C,TH1*%
X177099600Y-129270000D02*
X177099600Y-126110000D01*
X178019600Y-130190000D02*
G75*
G02*
X176179600Y-130190000I-920000J0D01*
G01*
X176179600Y-130190000D02*
G75*
G02*
X178019600Y-130190000I920000J0D01*
G01*
%TO.C,J2*%
X157489600Y-122940000D02*
X158509600Y-122940000D01*
X157489600Y-127190000D02*
X157489600Y-122940000D01*
X158509600Y-122940000D02*
X158509600Y-124540000D01*
X158509600Y-124540000D02*
X159789600Y-124540000D01*
X159209600Y-130760000D02*
X163889600Y-130760000D01*
X159789600Y-124540000D02*
X159789600Y-121650000D01*
X164589600Y-122940000D02*
X164589600Y-124540000D01*
X164589600Y-124540000D02*
X163309600Y-124540000D01*
X165609600Y-122940000D02*
X164589600Y-122940000D01*
X165609600Y-127190000D02*
X165609600Y-122940000D01*
%TO.C,TP4*%
X128450000Y-127250000D02*
G75*
G02*
X125450000Y-127250000I-1500000J0D01*
G01*
X125450000Y-127250000D02*
G75*
G02*
X128450000Y-127250000I1500000J0D01*
G01*
%TO.C,Q1*%
X136549600Y-119840000D02*
X134599600Y-119840000D01*
X136549600Y-119840000D02*
X138499600Y-119840000D01*
X136549600Y-124960000D02*
X134599600Y-124960000D01*
X136549600Y-124960000D02*
X138499600Y-124960000D01*
X133849600Y-119935000D02*
X133609600Y-119605000D01*
X134089600Y-119605000D01*
X133849600Y-119935000D01*
G36*
X133849600Y-119935000D02*
G01*
X133609600Y-119605000D01*
X134089600Y-119605000D01*
X133849600Y-119935000D01*
G37*
%TO.C,TP2*%
X119725000Y-127500000D02*
G75*
G02*
X116725000Y-127500000I-1500000J0D01*
G01*
X116725000Y-127500000D02*
G75*
G02*
X119725000Y-127500000I1500000J0D01*
G01*
%TD*%
M02*
