%TF.GenerationSoftware,KiCad,Pcbnew,8.0.3*%
%TF.CreationDate,2024-09-23T14:32:18+01:00*%
%TF.ProjectId,Untitled,556e7469-746c-4656-942e-6b696361645f,rev?*%
%TF.SameCoordinates,Original*%
%TF.FileFunction,Paste,Bot*%
%TF.FilePolarity,Positive*%
%FSLAX46Y46*%
G04 Gerber Fmt 4.6, Leading zero omitted, Abs format (unit mm)*
G04 Created by KiCad (PCBNEW 8.0.3) date 2024-09-23 14:32:18*
%MOMM*%
%LPD*%
G01*
G04 APERTURE LIST*
G04 Aperture macros list*
%AMRoundRect*
0 Rectangle with rounded corners*
0 $1 Rounding radius*
0 $2 $3 $4 $5 $6 $7 $8 $9 X,Y pos of 4 corners*
0 Add a 4 corners polygon primitive as box body*
4,1,4,$2,$3,$4,$5,$6,$7,$8,$9,$2,$3,0*
0 Add four circle primitives for the rounded corners*
1,1,$1+$1,$2,$3*
1,1,$1+$1,$4,$5*
1,1,$1+$1,$6,$7*
1,1,$1+$1,$8,$9*
0 Add four rect primitives between the rounded corners*
20,1,$1+$1,$2,$3,$4,$5,0*
20,1,$1+$1,$4,$5,$6,$7,0*
20,1,$1+$1,$6,$7,$8,$9,0*
20,1,$1+$1,$8,$9,$2,$3,0*%
G04 Aperture macros list end*
%ADD10RoundRect,0.250000X0.255000X0.255000X-0.255000X0.255000X-0.255000X-0.255000X0.255000X-0.255000X0*%
%ADD11RoundRect,0.062500X0.350000X0.062500X-0.350000X0.062500X-0.350000X-0.062500X0.350000X-0.062500X0*%
%ADD12RoundRect,0.062500X0.062500X0.350000X-0.062500X0.350000X-0.062500X-0.350000X0.062500X-0.350000X0*%
%ADD13RoundRect,0.150000X0.512500X0.150000X-0.512500X0.150000X-0.512500X-0.150000X0.512500X-0.150000X0*%
%ADD14RoundRect,0.250000X0.262500X0.450000X-0.262500X0.450000X-0.262500X-0.450000X0.262500X-0.450000X0*%
%ADD15R,0.700000X0.510000*%
%ADD16RoundRect,0.250000X-0.450000X0.262500X-0.450000X-0.262500X0.450000X-0.262500X0.450000X0.262500X0*%
%ADD17RoundRect,0.250000X0.250000X0.475000X-0.250000X0.475000X-0.250000X-0.475000X0.250000X-0.475000X0*%
%ADD18RoundRect,0.250000X-0.250000X-0.475000X0.250000X-0.475000X0.250000X0.475000X-0.250000X0.475000X0*%
%ADD19RoundRect,0.250000X-0.262500X-0.450000X0.262500X-0.450000X0.262500X0.450000X-0.262500X0.450000X0*%
%ADD20RoundRect,0.250000X0.475000X-0.250000X0.475000X0.250000X-0.475000X0.250000X-0.475000X-0.250000X0*%
%ADD21RoundRect,0.150000X0.700000X-0.150000X0.700000X0.150000X-0.700000X0.150000X-0.700000X-0.150000X0*%
%ADD22RoundRect,0.250000X1.150000X-0.250000X1.150000X0.250000X-1.150000X0.250000X-1.150000X-0.250000X0*%
%ADD23RoundRect,0.250000X-0.300000X0.300000X-0.300000X-0.300000X0.300000X-0.300000X0.300000X0.300000X0*%
%ADD24RoundRect,0.150000X-0.150000X-0.700000X0.150000X-0.700000X0.150000X0.700000X-0.150000X0.700000X0*%
%ADD25RoundRect,0.250000X-0.250000X-1.150000X0.250000X-1.150000X0.250000X1.150000X-0.250000X1.150000X0*%
%ADD26RoundRect,0.150000X-0.825000X-0.150000X0.825000X-0.150000X0.825000X0.150000X-0.825000X0.150000X0*%
%ADD27RoundRect,0.230000X0.375000X-0.230000X0.375000X0.230000X-0.375000X0.230000X-0.375000X-0.230000X0*%
%ADD28RoundRect,0.150000X0.150000X-0.825000X0.150000X0.825000X-0.150000X0.825000X-0.150000X-0.825000X0*%
%ADD29RoundRect,0.150000X-0.700000X0.150000X-0.700000X-0.150000X0.700000X-0.150000X0.700000X0.150000X0*%
%ADD30RoundRect,0.250000X-1.150000X0.250000X-1.150000X-0.250000X1.150000X-0.250000X1.150000X0.250000X0*%
%ADD31RoundRect,0.250000X0.450000X-0.262500X0.450000X0.262500X-0.450000X0.262500X-0.450000X-0.262500X0*%
%ADD32RoundRect,0.250000X-0.300000X-0.300000X0.300000X-0.300000X0.300000X0.300000X-0.300000X0.300000X0*%
%ADD33RoundRect,0.125000X0.125000X0.125000X-0.125000X0.125000X-0.125000X-0.125000X0.125000X-0.125000X0*%
%ADD34RoundRect,0.218750X0.218750X0.381250X-0.218750X0.381250X-0.218750X-0.381250X0.218750X-0.381250X0*%
%ADD35RoundRect,0.218750X-0.218750X-0.256250X0.218750X-0.256250X0.218750X0.256250X-0.218750X0.256250X0*%
G04 APERTURE END LIST*
D10*
%TO.C,U12*%
X102687500Y-102135000D03*
X102687500Y-100885000D03*
X101437500Y-102135000D03*
X101437500Y-100885000D03*
D11*
X104000000Y-100510000D03*
X104000000Y-101010000D03*
X104000000Y-101510000D03*
X104000000Y-102010000D03*
X104000000Y-102510000D03*
D12*
X103062500Y-103447500D03*
X102562500Y-103447500D03*
X102062500Y-103447500D03*
X101562500Y-103447500D03*
X101062500Y-103447500D03*
D11*
X100125000Y-102510000D03*
X100125000Y-102010000D03*
X100125000Y-101510000D03*
X100125000Y-101010000D03*
X100125000Y-100510000D03*
D12*
X101062500Y-99572500D03*
X101562500Y-99572500D03*
X102062500Y-99572500D03*
X102562500Y-99572500D03*
X103062500Y-99572500D03*
%TD*%
D13*
%TO.C,Q1*%
X123920307Y-108050000D03*
X123920307Y-109950000D03*
X121645307Y-109000000D03*
%TD*%
D14*
%TO.C,R37*%
X107500000Y-114500000D03*
X105675000Y-114500000D03*
%TD*%
D15*
%TO.C,U7*%
X149571733Y-112554018D03*
X149571733Y-113504018D03*
X149571733Y-114454018D03*
X147251733Y-114454018D03*
X147251733Y-113504018D03*
X147251733Y-112554018D03*
%TD*%
D16*
%TO.C,R23*%
X139500000Y-102587500D03*
X139500000Y-104412500D03*
%TD*%
D17*
%TO.C,C39*%
X100061213Y-114530000D03*
X98161213Y-114530000D03*
%TD*%
D14*
%TO.C,R35*%
X96208091Y-91996654D03*
X94383091Y-91996654D03*
%TD*%
D18*
%TO.C,C31*%
X109550000Y-111010000D03*
X111450000Y-111010000D03*
%TD*%
%TO.C,C32*%
X97050000Y-108500000D03*
X98950000Y-108500000D03*
%TD*%
D19*
%TO.C,R34*%
X106500000Y-94010000D03*
X108325000Y-94010000D03*
%TD*%
%TO.C,R39*%
X84587500Y-104510000D03*
X86412500Y-104510000D03*
%TD*%
D20*
%TO.C,C37*%
X91010000Y-87410000D03*
X91010000Y-85510000D03*
%TD*%
D21*
%TO.C,J14*%
X152050000Y-88375000D03*
X152050000Y-87125000D03*
X152050000Y-85875000D03*
X152050000Y-84625000D03*
D22*
X155400000Y-90225000D03*
X155400000Y-82775000D03*
%TD*%
D14*
%TO.C,R24*%
X143891678Y-100736708D03*
X142066678Y-100736708D03*
%TD*%
D17*
%TO.C,C35*%
X118625000Y-94000000D03*
X116725000Y-94000000D03*
%TD*%
D18*
%TO.C,C33*%
X91082987Y-109270563D03*
X92982987Y-109270563D03*
%TD*%
D13*
%TO.C,Q2*%
X144137500Y-112550000D03*
X144137500Y-114450000D03*
X141862500Y-113500000D03*
%TD*%
D19*
%TO.C,R41*%
X112175000Y-94000000D03*
X114000000Y-94000000D03*
%TD*%
D23*
%TO.C,D17*%
X109000000Y-86010000D03*
X109000000Y-88810000D03*
%TD*%
D16*
%TO.C,R22*%
X139500000Y-111000000D03*
X139500000Y-112825000D03*
%TD*%
D19*
%TO.C,R32*%
X91140668Y-112652704D03*
X92965668Y-112652704D03*
%TD*%
D20*
%TO.C,C38*%
X87500000Y-87410000D03*
X87500000Y-85510000D03*
%TD*%
D21*
%TO.C,J13*%
X152050000Y-78375000D03*
X152050000Y-77125000D03*
X152050000Y-75875000D03*
X152050000Y-74625000D03*
D22*
X155400000Y-80225000D03*
X155400000Y-72775000D03*
%TD*%
D24*
%TO.C,J12*%
X107125000Y-138050000D03*
X108375000Y-138050000D03*
X109625000Y-138050000D03*
X110875000Y-138050000D03*
D25*
X105275000Y-141400000D03*
X112725000Y-141400000D03*
%TD*%
D21*
%TO.C,J15*%
X152050000Y-98375000D03*
X152050000Y-97125000D03*
X152050000Y-95875000D03*
X152050000Y-94625000D03*
D22*
X155400000Y-100225000D03*
X155400000Y-92775000D03*
%TD*%
D17*
%TO.C,C36*%
X97539548Y-96679218D03*
X95639548Y-96679218D03*
%TD*%
D13*
%TO.C,Q3*%
X144137500Y-104050000D03*
X144137500Y-105950000D03*
X141862500Y-105000000D03*
%TD*%
D26*
%TO.C,U13*%
X113025000Y-102915000D03*
X113025000Y-101645000D03*
X113025000Y-100375000D03*
X113025000Y-99105000D03*
X117975000Y-99105000D03*
X117975000Y-100375000D03*
X117975000Y-101645000D03*
X117975000Y-102915000D03*
%TD*%
D19*
%TO.C,R36*%
X101946856Y-114500000D03*
X103771856Y-114500000D03*
%TD*%
D14*
%TO.C,R31*%
X111442500Y-107130000D03*
X109617500Y-107130000D03*
%TD*%
%TO.C,R19*%
X123684124Y-113167818D03*
X121859124Y-113167818D03*
%TD*%
D27*
%TO.C,U15*%
X102845000Y-87105000D03*
X104345000Y-87105000D03*
X102845000Y-85965000D03*
X104345000Y-85965000D03*
D28*
X105500000Y-89010000D03*
X104230000Y-89010000D03*
X102960000Y-89010000D03*
X101690000Y-89010000D03*
X101690000Y-84060000D03*
X102960000Y-84060000D03*
X104230000Y-84060000D03*
X105500000Y-84060000D03*
%TD*%
D15*
%TO.C,U8*%
X149557222Y-104088394D03*
X149557222Y-105038394D03*
X149557222Y-105988394D03*
X147237222Y-105988394D03*
X147237222Y-105038394D03*
X147237222Y-104088394D03*
%TD*%
D29*
%TO.C,J11*%
X77950000Y-124125000D03*
X77950000Y-125375000D03*
X77950000Y-126625000D03*
X77950000Y-127875000D03*
D30*
X74600000Y-122275000D03*
X74600000Y-129725000D03*
%TD*%
D26*
%TO.C,U5*%
X130050000Y-112040000D03*
X130050000Y-110770000D03*
X130050000Y-109500000D03*
X130050000Y-108230000D03*
X135000000Y-108230000D03*
X135000000Y-109500000D03*
X135000000Y-110770000D03*
X135000000Y-112040000D03*
%TD*%
D31*
%TO.C,R20*%
X126013852Y-109908312D03*
X126013852Y-108083312D03*
%TD*%
D32*
%TO.C,D16*%
X85100000Y-109010000D03*
X87900000Y-109010000D03*
%TD*%
D19*
%TO.C,R33*%
X91087500Y-116000000D03*
X92912500Y-116000000D03*
%TD*%
D33*
%TO.C,D15*%
X97308091Y-86446654D03*
X95108091Y-86446654D03*
%TD*%
D14*
%TO.C,R38*%
X94237500Y-104510000D03*
X92412500Y-104510000D03*
%TD*%
%TO.C,R40*%
X90325000Y-104510000D03*
X88500000Y-104510000D03*
%TD*%
D34*
%TO.C,L4*%
X96562500Y-100510000D03*
X94437500Y-100510000D03*
%TD*%
D14*
%TO.C,R25*%
X149311813Y-117725241D03*
X147486813Y-117725241D03*
%TD*%
%TO.C,R21*%
X143861853Y-109326365D03*
X142036853Y-109326365D03*
%TD*%
D17*
%TO.C,C34*%
X108378151Y-97564613D03*
X106478151Y-97564613D03*
%TD*%
D35*
%TO.C,D14*%
X105500000Y-107130585D03*
X107075000Y-107130585D03*
%TD*%
D14*
%TO.C,R26*%
X149329068Y-109282187D03*
X147504068Y-109282187D03*
%TD*%
M02*
