M48
; DRILL file {KiCad 8.0.3} date 2024-09-23T14:32:25+0100
; FORMAT={-:-/ absolute / inch / decimal}
; #@! TF.CreationDate,2024-09-23T14:32:25+01:00
; #@! TF.GenerationSoftware,Kicad,Pcbnew,8.0.3
; #@! TF.FileFunction,Plated,1,4,PTH
FMAT,2
INCH
; #@! TA.AperFunction,Plated,PTH,ComponentDrill
T1C0.0098
; #@! TA.AperFunction,Plated,PTH,ViaDrill
T2C0.0118
; #@! TA.AperFunction,Plated,PTH,ViaDrill
T3C0.0197
; #@! TA.AperFunction,Plated,PTH,ComponentDrill
T4C0.0236
; #@! TA.AperFunction,Plated,PTH,ComponentDrill
T5C0.0394
; #@! TA.AperFunction,Plated,PTH,ComponentDrill
T6C0.0472
; #@! TA.AperFunction,Plated,PTH,ComponentDrill
T7C0.1260
%
G90
G05
T1
X3.7226Y-3.0166
X3.7226Y-3.0618
X3.7226Y-3.107
X3.766Y-3.0166
X3.766Y-3.0618
X3.766Y-3.107
X4.7086Y-3.0218
X4.7086Y-3.0669
X4.7086Y-3.1121
X4.752Y-3.0218
X4.752Y-3.0669
X4.752Y-3.1121
X5.6647Y-3.0217
X5.6647Y-3.0668
X5.6647Y-3.112
X5.7081Y-3.0217
X5.7081Y-3.0668
X5.7081Y-3.112
T2
X2.9937Y-5.0344
X3.1496Y-4.7441
X3.1496Y-4.8031
X3.1834Y-5.0015
X3.3858Y-4.3504
X3.4843Y-3.9567
X3.4843Y-4.6457
X3.5172Y-3.4411
X3.5408Y-3.7318
X3.5412Y-3.6024
X3.5761Y-3.3101
X3.5827Y-4.1732
X3.5852Y-4.5001
X3.5946Y-5.633
X3.6031Y-3.1094
X3.6282Y-3.8644
X3.6417Y-3.937
X3.6417Y-4.1732
X3.6518Y-3.2293
X3.6607Y-4.496
X3.6622Y-2.8732
X3.7043Y-4.7618
X3.728Y-3.4646
X3.7402Y-4.0157
X3.7402Y-4.1732
X3.7402Y-4.311
X3.7402Y-4.4291
X3.7402Y-4.626
X3.7402Y-4.7441
X3.7544Y-5.2344
X3.7598Y-2.7559
X3.7795Y-3.7402
X3.7795Y-4.4291
X3.8319Y-3.6217
X3.8349Y-3.6652
X3.8394Y-4.8016
X3.8477Y-5.4967
X3.8583Y-5.0197
X3.8976Y-2.5394
X3.8976Y-4.6457
X3.9173Y-2.7362
X3.9173Y-2.8937
X3.9173Y-4.3701
X3.937Y-3.3858
X3.9394Y-4.5091
X3.9401Y-5.1864
X3.9567Y-3.5827
X3.9764Y-3.8386
X3.9926Y-3.6811
X4.0284Y-2.9009
X4.0354Y-3.9764
X4.0354Y-4.0157
X4.0354Y-4.1929
X4.0438Y-3.8386
X4.0551Y-2.874
X4.0748Y-3.878
X4.1142Y-3.8031
X4.1201Y-3.1815
X4.1348Y-4.2913
X4.1535Y-3.5571
X4.1535Y-3.8386
X4.1535Y-4.3307
X4.161Y-4.4487
X4.1732Y-4.1282
X4.1732Y-5.2559
X4.2126Y-3.3268
X4.2913Y-5.0984
X4.311Y-3.7559
X4.3476Y-3.1815
X4.3504Y-2.815
X4.3504Y-5.1575
X4.3664Y-5.5601
X4.3701Y-4.4291
X4.3701Y-4.5866
X4.4488Y-4.2913
X4.5147Y-4.451
X4.5276Y-4.4882
X4.5365Y-4.1462
X4.5525Y-3.3441
X4.5892Y-3.1128
X4.6456Y-3.2345
X4.6654Y-2.8201
X4.7244Y-2.8543
X4.7244Y-3.7008
X4.736Y-4.4435
X4.8332Y-4.3649
X4.8425Y-3.7205
X4.8425Y-4.0748
X4.9016Y-3.7795
X4.9198Y-2.8725
X4.9409Y-3.563
X4.9606Y-4.5079
X5.1124Y-3.203
X5.1575Y-3.7992
X5.1589Y-4.1007
X5.1664Y-4.0051
X5.172Y-4.0535
X5.1967Y-3.6257
X5.218Y-4.2778
X5.2756Y-3.6811
X5.2825Y-3.1565
X5.2825Y-3.0169
X5.3346Y-4.9409
X5.3828Y-5.1299
X5.3878Y-4.0525
X5.4292Y-4.0847
X5.4528Y-4.2913
X5.4528Y-5.0984
X5.5118Y-4.5079
X5.5301Y-3.9438
X5.5443Y-3.1261
X5.5512Y-3.9173
X5.5906Y-2.8543
X5.6347Y-2.8077
X5.7283Y-4.1929
X5.7677Y-4.5669
X5.8009Y-3.4482
X5.8465Y-4.1929
X5.8465Y-4.5669
X5.8587Y-5.1303
X5.8724Y-5.0302
X5.9449Y-2.874
X6.0508Y-2.9406
X6.0618Y-3.7275
X6.0637Y-3.3326
T3
X3.2677Y-4.0354
X3.3661Y-3.3465
X4.2176Y-5.3664
X4.3504Y-3.6417
X4.6654Y-4.8622
X5.3543Y-3.8189
X5.3543Y-3.9961
X5.3937Y-3.7196
X5.8071Y-3.8061
X5.8465Y-3.3465
T5
X3.3059Y-2.1685
X3.3059Y-2.2685
X3.3059Y-2.3764
X3.3059Y-2.4764
X3.4059Y-2.1685
X3.4059Y-2.2685
X3.4059Y-2.3764
X3.4059Y-2.4764
X3.5059Y-2.1685
X3.5059Y-2.2685
X3.5059Y-2.3764
X3.5059Y-2.4764
X3.6059Y-2.1685
X3.6059Y-2.2685
X3.6059Y-2.3764
X3.6059Y-2.4764
X3.7004Y-2.6224
X3.7059Y-2.1685
X3.7059Y-2.2685
X3.7059Y-2.3764
X3.7059Y-2.4764
X3.7598Y-4.9016
X3.8059Y-2.1685
X3.8059Y-2.2685
X3.8059Y-2.3764
X3.8059Y-2.4764
X3.9059Y-2.1685
X3.9059Y-2.2685
X3.9059Y-2.3764
X3.9059Y-2.4764
X4.0059Y-2.1685
X4.0059Y-2.2685
X4.0059Y-2.3764
X4.0059Y-2.4764
X4.0169Y-2.6235
X4.1059Y-2.1685
X4.1059Y-2.2685
X4.1059Y-2.3764
X4.1059Y-2.4764
X4.2059Y-2.1685
X4.2059Y-2.2685
X4.2059Y-2.3764
X4.2059Y-2.4764
X4.2123Y-2.6213
X4.3059Y-2.1685
X4.3059Y-2.2685
X4.3059Y-2.3764
X4.3059Y-2.4764
X4.3891Y-2.6224
X4.4059Y-2.1685
X4.4059Y-2.2685
X4.4059Y-2.3764
X4.4059Y-2.4764
X4.5059Y-2.1685
X4.5059Y-2.2685
X4.5059Y-2.3764
X4.5059Y-2.4764
X4.6059Y-2.1685
X4.6059Y-2.2685
X4.6059Y-2.3764
X4.6059Y-2.4764
X4.7059Y-2.1685
X4.7059Y-2.2685
X4.7059Y-2.3764
X4.7059Y-2.4764
X4.8059Y-2.1685
X4.8059Y-2.2685
X4.8059Y-2.3764
X4.8059Y-2.4764
X4.9059Y-2.1685
X4.9059Y-2.2685
X4.9059Y-2.3764
X4.9059Y-2.4764
X5.0Y-3.8583
X5.0059Y-2.1685
X5.0059Y-2.2685
X5.0059Y-2.3764
X5.0059Y-2.4764
X5.1059Y-2.1685
X5.1059Y-2.2685
X5.1059Y-2.3764
X5.1059Y-2.4764
X5.2059Y-2.1685
X5.2059Y-2.2685
X5.2059Y-2.3764
X5.2059Y-2.4764
X5.3059Y-2.1685
X5.3059Y-2.2685
X5.3059Y-2.3764
X5.3059Y-2.4764
X5.4059Y-2.1685
X5.4059Y-2.2685
X5.4059Y-2.3764
X5.4059Y-2.4764
X5.4331Y-4.8622
X5.5059Y-2.1685
X5.5059Y-2.2685
X5.5059Y-2.3764
X5.5059Y-2.4764
X5.6059Y-2.1685
X5.6059Y-2.2685
X5.6059Y-2.3764
X5.6059Y-2.4764
X5.6098Y-2.6239
X5.7059Y-2.1685
X5.7059Y-2.2685
X5.7059Y-2.3764
X5.7059Y-2.4764
X5.8059Y-2.1685
X5.8059Y-2.2685
X5.8059Y-2.3764
X5.8059Y-2.4764
T6
X2.9327Y-3.2283
X2.9327Y-3.3283
X2.9331Y-2.6772
X2.9331Y-2.7772
X2.9331Y-2.9511
X2.9331Y-3.0511
X2.9331Y-3.6024
X2.9331Y-3.7024
X2.9331Y-3.8764
X2.9331Y-3.9764
X6.1358Y-4.1717
X6.1358Y-4.2717
X6.1358Y-4.4384
X6.1358Y-4.5384
X6.1417Y-4.9016
X6.1417Y-5.0016
T7
X2.9559Y-5.5437
X3.1059Y-2.1685
X6.0059Y-2.1685
X6.1059Y-5.5437
T4
G00X2.8727Y-4.2271
M15
G01X2.8412Y-4.2271
M16
G05
G00X2.8727Y-4.5672
M15
G01X2.8412Y-4.5672
M16
G05
G00X3.0432Y-4.2271
M15
G01X2.9999Y-4.2271
M16
G05
G00X3.0432Y-4.5672
M15
G01X2.9999Y-4.5672
M16
G05
M30
