%TF.GenerationSoftware,KiCad,Pcbnew,8.0.3*%
%TF.CreationDate,2024-09-23T14:32:18+01:00*%
%TF.ProjectId,Untitled,556e7469-746c-4656-942e-6b696361645f,rev?*%
%TF.SameCoordinates,Original*%
%TF.FileFunction,Copper,L1,Top*%
%TF.FilePolarity,Positive*%
%FSLAX46Y46*%
G04 Gerber Fmt 4.6, Leading zero omitted, Abs format (unit mm)*
G04 Created by KiCad (PCBNEW 8.0.3) date 2024-09-23 14:32:18*
%MOMM*%
%LPD*%
G01*
G04 APERTURE LIST*
G04 Aperture macros list*
%AMRoundRect*
0 Rectangle with rounded corners*
0 $1 Rounding radius*
0 $2 $3 $4 $5 $6 $7 $8 $9 X,Y pos of 4 corners*
0 Add a 4 corners polygon primitive as box body*
4,1,4,$2,$3,$4,$5,$6,$7,$8,$9,$2,$3,0*
0 Add four circle primitives for the rounded corners*
1,1,$1+$1,$2,$3*
1,1,$1+$1,$4,$5*
1,1,$1+$1,$6,$7*
1,1,$1+$1,$8,$9*
0 Add four rect primitives between the rounded corners*
20,1,$1+$1,$2,$3,$4,$5,0*
20,1,$1+$1,$4,$5,$6,$7,0*
20,1,$1+$1,$6,$7,$8,$9,0*
20,1,$1+$1,$8,$9,$2,$3,0*%
G04 Aperture macros list end*
%TA.AperFunction,SMDPad,CuDef*%
%ADD10RoundRect,0.250000X-0.262500X-0.450000X0.262500X-0.450000X0.262500X0.450000X-0.262500X0.450000X0*%
%TD*%
%TA.AperFunction,SMDPad,CuDef*%
%ADD11RoundRect,0.250000X-0.250000X-0.475000X0.250000X-0.475000X0.250000X0.475000X-0.250000X0.475000X0*%
%TD*%
%TA.AperFunction,SMDPad,CuDef*%
%ADD12RoundRect,0.218750X-0.218750X-0.256250X0.218750X-0.256250X0.218750X0.256250X-0.218750X0.256250X0*%
%TD*%
%TA.AperFunction,SMDPad,CuDef*%
%ADD13RoundRect,0.250000X0.475000X-0.250000X0.475000X0.250000X-0.475000X0.250000X-0.475000X-0.250000X0*%
%TD*%
%TA.AperFunction,SMDPad,CuDef*%
%ADD14RoundRect,0.250000X-0.475000X0.250000X-0.475000X-0.250000X0.475000X-0.250000X0.475000X0.250000X0*%
%TD*%
%TA.AperFunction,SMDPad,CuDef*%
%ADD15RoundRect,0.075000X-0.650000X-0.075000X0.650000X-0.075000X0.650000X0.075000X-0.650000X0.075000X0*%
%TD*%
%TA.AperFunction,HeatsinkPad*%
%ADD16C,0.550000*%
%TD*%
%TA.AperFunction,HeatsinkPad*%
%ADD17R,1.651000X2.845000*%
%TD*%
%TA.AperFunction,SMDPad,CuDef*%
%ADD18RoundRect,0.250000X0.262500X0.450000X-0.262500X0.450000X-0.262500X-0.450000X0.262500X-0.450000X0*%
%TD*%
%TA.AperFunction,ComponentPad*%
%ADD19C,6.400000*%
%TD*%
%TA.AperFunction,SMDPad,CuDef*%
%ADD20RoundRect,0.250000X0.450000X-0.262500X0.450000X0.262500X-0.450000X0.262500X-0.450000X-0.262500X0*%
%TD*%
%TA.AperFunction,ComponentPad*%
%ADD21R,2.000000X2.000000*%
%TD*%
%TA.AperFunction,ComponentPad*%
%ADD22C,2.000000*%
%TD*%
%TA.AperFunction,SMDPad,CuDef*%
%ADD23R,1.200000X1.200000*%
%TD*%
%TA.AperFunction,SMDPad,CuDef*%
%ADD24RoundRect,0.218750X0.218750X0.256250X-0.218750X0.256250X-0.218750X-0.256250X0.218750X-0.256250X0*%
%TD*%
%TA.AperFunction,SMDPad,CuDef*%
%ADD25RoundRect,0.250000X0.250000X0.475000X-0.250000X0.475000X-0.250000X-0.475000X0.250000X-0.475000X0*%
%TD*%
%TA.AperFunction,SMDPad,CuDef*%
%ADD26RoundRect,0.150000X-0.825000X-0.150000X0.825000X-0.150000X0.825000X0.150000X-0.825000X0.150000X0*%
%TD*%
%TA.AperFunction,SMDPad,CuDef*%
%ADD27RoundRect,0.250000X-0.450000X0.262500X-0.450000X-0.262500X0.450000X-0.262500X0.450000X0.262500X0*%
%TD*%
%TA.AperFunction,SMDPad,CuDef*%
%ADD28RoundRect,0.150000X-0.425000X0.150000X-0.425000X-0.150000X0.425000X-0.150000X0.425000X0.150000X0*%
%TD*%
%TA.AperFunction,SMDPad,CuDef*%
%ADD29RoundRect,0.075000X-0.500000X0.075000X-0.500000X-0.075000X0.500000X-0.075000X0.500000X0.075000X0*%
%TD*%
%TA.AperFunction,ComponentPad*%
%ADD30O,2.100000X1.000000*%
%TD*%
%TA.AperFunction,ComponentPad*%
%ADD31O,1.800000X1.000000*%
%TD*%
%TA.AperFunction,HeatsinkPad*%
%ADD32R,2.410000X3.300000*%
%TD*%
%TA.AperFunction,SMDPad,CuDef*%
%ADD33R,3.400000X0.980000*%
%TD*%
%TA.AperFunction,SMDPad,CuDef*%
%ADD34RoundRect,0.150000X0.825000X0.150000X-0.825000X0.150000X-0.825000X-0.150000X0.825000X-0.150000X0*%
%TD*%
%TA.AperFunction,ComponentPad*%
%ADD35R,1.700000X1.700000*%
%TD*%
%TA.AperFunction,ComponentPad*%
%ADD36O,1.700000X1.700000*%
%TD*%
%TA.AperFunction,ViaPad*%
%ADD37C,0.600000*%
%TD*%
%TA.AperFunction,ViaPad*%
%ADD38C,1.000000*%
%TD*%
%TA.AperFunction,Conductor*%
%ADD39C,0.300000*%
%TD*%
%TA.AperFunction,Conductor*%
%ADD40C,0.200000*%
%TD*%
%TA.AperFunction,Conductor*%
%ADD41C,1.000000*%
%TD*%
%TA.AperFunction,Conductor*%
%ADD42C,0.500000*%
%TD*%
%TA.AperFunction,Conductor*%
%ADD43C,0.700000*%
%TD*%
G04 APERTURE END LIST*
D10*
%TO.P,R28,1*%
%TO.N,GND*%
X99718462Y-112693548D03*
%TO.P,R28,2*%
%TO.N,Net-(D6-K)*%
X101543462Y-112693548D03*
%TD*%
D11*
%TO.P,C21,1*%
%TO.N,Net-(U6-FB)*%
X153186396Y-78206622D03*
%TO.P,C21,2*%
%TO.N,/5V_BUS*%
X155086396Y-78206622D03*
%TD*%
D12*
%TO.P,D1,1,K*%
%TO.N,Net-(D1-K)*%
X145779565Y-86215805D03*
%TO.P,D1,2,A*%
%TO.N,/5V_BUS*%
X147354565Y-86215805D03*
%TD*%
D13*
%TO.P,C15,1*%
%TO.N,GND*%
X95670926Y-141298371D03*
%TO.P,C15,2*%
%TO.N,/3V3_BUS*%
X95670926Y-139398371D03*
%TD*%
D14*
%TO.P,C28,1*%
%TO.N,/5V_SW_2*%
X103697807Y-102822181D03*
%TO.P,C28,2*%
%TO.N,GND*%
X103697807Y-104722181D03*
%TD*%
D11*
%TO.P,C9,1*%
%TO.N,Net-(U2-FB)*%
X129050000Y-78130000D03*
%TO.P,C9,2*%
%TO.N,/3V3_BUS*%
X130950000Y-78130000D03*
%TD*%
D15*
%TO.P,U6,1,SYNC*%
%TO.N,unconnected-(U6-SYNC-Pad1)*%
X142284104Y-76147685D03*
%TO.P,U6,2,TR/SS*%
%TO.N,Net-(U6-TR{slash}SS)*%
X142284104Y-76647685D03*
%TO.P,U6,3,RT*%
%TO.N,Net-(U6-RT)*%
X142284104Y-77147685D03*
%TO.P,U6,4,EN/UV*%
%TO.N,V_BATT*%
X142284104Y-77647685D03*
%TO.P,U6,5,VIN*%
X142284104Y-78147685D03*
%TO.P,U6,6,VIN*%
X142284104Y-78647685D03*
%TO.P,U6,7,GND*%
%TO.N,GND*%
X142284104Y-79147685D03*
%TO.P,U6,8,GND*%
X142284104Y-79647685D03*
%TO.P,U6,9,SW*%
%TO.N,Net-(C22-Pad2)*%
X146584104Y-79647685D03*
%TO.P,U6,10,SW*%
X146584104Y-79147685D03*
%TO.P,U6,11,SW*%
X146584104Y-78647685D03*
%TO.P,U6,12,BST*%
%TO.N,Net-(U6-BST)*%
X146584104Y-78147685D03*
%TO.P,U6,13,INTVcc*%
%TO.N,Net-(U6-INTVcc)*%
X146584104Y-77647685D03*
%TO.P,U6,14,BIAS*%
%TO.N,/5V_BUS*%
X146584104Y-77147685D03*
%TO.P,U6,15,PG*%
%TO.N,/5V_BUS_STAT*%
X146584104Y-76647685D03*
%TO.P,U6,16,FB*%
%TO.N,Net-(U6-FB)*%
X146584104Y-76147685D03*
D16*
%TO.P,U6,17,GND*%
%TO.N,GND*%
X143883604Y-76750185D03*
X143883604Y-77897685D03*
X143883604Y-79045185D03*
D17*
X144434104Y-77897685D03*
D16*
X144984604Y-76750185D03*
X144984604Y-77897685D03*
X144984604Y-79045185D03*
%TD*%
D18*
%TO.P,R5,1*%
%TO.N,Net-(U2-RT)*%
X115412500Y-77630000D03*
%TO.P,R5,2*%
%TO.N,GND*%
X113587500Y-77630000D03*
%TD*%
%TO.P,R7,1*%
%TO.N,Net-(U6-RT)*%
X139812263Y-78000000D03*
%TO.P,R7,2*%
%TO.N,GND*%
X137987263Y-78000000D03*
%TD*%
D14*
%TO.P,C30,1*%
%TO.N,/PERIPH_PWR*%
X104025000Y-118100000D03*
%TO.P,C30,2*%
%TO.N,GND*%
X104025000Y-120000000D03*
%TD*%
D11*
%TO.P,C19,1*%
%TO.N,GND*%
X137965699Y-73500000D03*
%TO.P,C19,2*%
%TO.N,Net-(U6-TR{slash}SS)*%
X139865699Y-73500000D03*
%TD*%
D19*
%TO.P,H3,1*%
%TO.N,N/C*%
X75080000Y-140810000D03*
%TD*%
D20*
%TO.P,R55,1*%
%TO.N,Net-(D9-A)*%
X89500000Y-126412500D03*
%TO.P,R55,2*%
%TO.N,/SOLAR_IN_1*%
X89500000Y-124587500D03*
%TD*%
D21*
%TO.P,J16,1,Pin_1*%
%TO.N,/BATT_PRE_INH*%
X74500000Y-91500000D03*
D22*
%TO.P,J16,2,Pin_2*%
%TO.N,GND_REF*%
X74500000Y-94040000D03*
%TD*%
D10*
%TO.P,R29,1*%
%TO.N,GND*%
X99785307Y-104722181D03*
%TO.P,R29,2*%
%TO.N,Net-(D7-K)*%
X101610307Y-104722181D03*
%TD*%
D13*
%TO.P,C20,1*%
%TO.N,GND*%
X139803037Y-82167989D03*
%TO.P,C20,2*%
%TO.N,V_BATT*%
X139803037Y-80267989D03*
%TD*%
D21*
%TO.P,J4,1,Pin_1*%
%TO.N,/BATT_PRE_INH*%
X74491311Y-82000000D03*
D22*
%TO.P,J4,2,Pin_2*%
%TO.N,/BATT_CS*%
X74491311Y-84540000D03*
%TD*%
D20*
%TO.P,R43,1*%
%TO.N,Net-(D10-A)*%
X148979039Y-99656108D03*
%TO.P,R43,2*%
%TO.N,/SOLAR_IN_3*%
X148979039Y-97831108D03*
%TD*%
D22*
%TO.P,TP3,1,1*%
%TO.N,/EDFA_5V*%
X111483354Y-66609914D03*
%TD*%
D11*
%TO.P,C18,1*%
%TO.N,/KAPTON_PWR*%
X146500000Y-124000000D03*
%TO.P,C18,2*%
%TO.N,GND*%
X148400000Y-124000000D03*
%TD*%
D21*
%TO.P,J9,1,Pin_1*%
%TO.N,Net-(J9-Pin_1)*%
X155850000Y-108500000D03*
D22*
%TO.P,J9,2,Pin_2*%
%TO.N,GND*%
X155850000Y-105960000D03*
%TD*%
%TO.P,TP8,1,1*%
%TO.N,/5V_SW_2*%
X102029681Y-66637637D03*
%TD*%
D11*
%TO.P,C4,1*%
%TO.N,GND*%
X88029819Y-73942612D03*
%TO.P,C4,2*%
%TO.N,Net-(U1-TR{slash}SS)*%
X89929819Y-73942612D03*
%TD*%
D23*
%TO.P,D8,1,K*%
%TO.N,/SOLAR_PRE_INH*%
X123000000Y-121900000D03*
%TO.P,D8,2,A*%
%TO.N,Net-(D8-A)*%
X123000000Y-119100000D03*
%TD*%
D10*
%TO.P,R30,1*%
%TO.N,GND*%
X100112500Y-120500000D03*
%TO.P,R30,2*%
%TO.N,Net-(D13-K)*%
X101937500Y-120500000D03*
%TD*%
D14*
%TO.P,C48,1*%
%TO.N,GND*%
X120307948Y-114189442D03*
%TO.P,C48,2*%
%TO.N,/PERIPH_PWR*%
X120307948Y-116089442D03*
%TD*%
D21*
%TO.P,J6,1,Pin_1*%
%TO.N,GND_REF*%
X74500000Y-74957894D03*
D22*
%TO.P,J6,2,Pin_2*%
%TO.N,GND*%
X74500000Y-77497894D03*
%TD*%
D14*
%TO.P,C14,1*%
%TO.N,/EDFA_5V_SWITCHED*%
X124263582Y-102550000D03*
%TO.P,C14,2*%
%TO.N,GND*%
X124263582Y-104450000D03*
%TD*%
D10*
%TO.P,R18,1*%
%TO.N,Net-(J7-CC1)*%
X83087500Y-108496898D03*
%TO.P,R18,2*%
%TO.N,GND_REF*%
X84912500Y-108496898D03*
%TD*%
D18*
%TO.P,R46,1*%
%TO.N,Net-(D12-A)*%
X137311163Y-92322218D03*
%TO.P,R46,2*%
%TO.N,/CS_SOL5_VIN-*%
X135486163Y-92322218D03*
%TD*%
D22*
%TO.P,TP4,1,1*%
%TO.N,/EDFA_5V_SWITCHED*%
X127000000Y-98000000D03*
%TD*%
D18*
%TO.P,R48,1*%
%TO.N,Net-(D10-A)*%
X145434037Y-100246316D03*
%TO.P,R48,2*%
%TO.N,/CS_SOL3_VIN-*%
X143609037Y-100246316D03*
%TD*%
D20*
%TO.P,R45,1*%
%TO.N,Net-(D12-A)*%
X140503873Y-91844379D03*
%TO.P,R45,2*%
%TO.N,/SOLAR_IN_5*%
X140503873Y-90019379D03*
%TD*%
D24*
%TO.P,D5,1,K*%
%TO.N,Net-(D5-K)*%
X154500000Y-131500000D03*
%TO.P,D5,2,A*%
%TO.N,/KAPTON_PWR*%
X152925000Y-131500000D03*
%TD*%
D11*
%TO.P,C23,1*%
%TO.N,Net-(U6-INTVcc)*%
X149473325Y-74677534D03*
%TO.P,C23,2*%
%TO.N,GND*%
X151373325Y-74677534D03*
%TD*%
D14*
%TO.P,C46,1*%
%TO.N,GND*%
X80920322Y-128418431D03*
%TO.P,C46,2*%
%TO.N,/PERIPH_PWR*%
X80920322Y-130318431D03*
%TD*%
D18*
%TO.P,R47,1*%
%TO.N,/SOLAR_IN_3*%
X145435742Y-97061808D03*
%TO.P,R47,2*%
%TO.N,/CS_SOL3_VIN+*%
X143610742Y-97061808D03*
%TD*%
D21*
%TO.P,J10,1,Pin_1*%
%TO.N,/KAPTON_PWR*%
X156000000Y-127040000D03*
D22*
%TO.P,J10,2,Pin_2*%
%TO.N,GND*%
X156000000Y-124500000D03*
%TD*%
%TO.P,TP5,1,1*%
%TO.N,/PERIPH_PWR*%
X142489567Y-66646870D03*
%TD*%
D11*
%TO.P,C11,1*%
%TO.N,Net-(U2-INTVcc)*%
X125444145Y-74486059D03*
%TO.P,C11,2*%
%TO.N,GND*%
X127344145Y-74486059D03*
%TD*%
D13*
%TO.P,C51,1*%
%TO.N,Net-(U21-IN+)*%
X89933489Y-98447240D03*
%TO.P,C51,2*%
%TO.N,Net-(U21-IN-)*%
X89933489Y-96547240D03*
%TD*%
D18*
%TO.P,R51,1*%
%TO.N,/SOLAR_IN_2*%
X105574982Y-128499976D03*
%TO.P,R51,2*%
%TO.N,/CS_SOL2_VIN+*%
X103749982Y-128499976D03*
%TD*%
D11*
%TO.P,C24,1*%
%TO.N,GND*%
X145459447Y-82997460D03*
%TO.P,C24,2*%
%TO.N,/5V_BUS*%
X147359447Y-82997460D03*
%TD*%
D18*
%TO.P,R50,1*%
%TO.N,Net-(D11-A)*%
X125380384Y-112739251D03*
%TO.P,R50,2*%
%TO.N,/CS_SOL4_VIN-*%
X123555384Y-112739251D03*
%TD*%
D25*
%TO.P,C5,1*%
%TO.N,Net-(U1-FB)*%
X105887438Y-78742070D03*
%TO.P,C5,2*%
%TO.N,/EDFA_5V*%
X103987438Y-78742070D03*
%TD*%
D18*
%TO.P,R1,1*%
%TO.N,/EDFA_5V*%
X102260851Y-71862454D03*
%TO.P,R1,2*%
%TO.N,/EDFA_5V_STAT*%
X100435851Y-71862454D03*
%TD*%
D10*
%TO.P,R52,1*%
%TO.N,Net-(D8-A)*%
X109000000Y-132500000D03*
%TO.P,R52,2*%
%TO.N,/SOLAR_IN_2*%
X110825000Y-132500000D03*
%TD*%
D13*
%TO.P,C50,1*%
%TO.N,GND*%
X89945889Y-93400316D03*
%TO.P,C50,2*%
%TO.N,/PERIPH_PWR*%
X89945889Y-91500316D03*
%TD*%
D23*
%TO.P,D9,1,K*%
%TO.N,/SOLAR_PRE_INH*%
X120500000Y-121900000D03*
%TO.P,D9,2,A*%
%TO.N,Net-(D9-A)*%
X120500000Y-119100000D03*
%TD*%
D13*
%TO.P,C40,1*%
%TO.N,/CS_SOL3_VIN-*%
X140481617Y-98450000D03*
%TO.P,C40,2*%
%TO.N,/CS_SOL3_VIN+*%
X140481617Y-96550000D03*
%TD*%
D23*
%TO.P,D10,1,K*%
%TO.N,/SOLAR_PRE_INH*%
X130500000Y-121900000D03*
%TO.P,D10,2,A*%
%TO.N,Net-(D10-A)*%
X130500000Y-119100000D03*
%TD*%
%TO.P,D11,1,K*%
%TO.N,/SOLAR_PRE_INH*%
X125500000Y-121900000D03*
%TO.P,D11,2,A*%
%TO.N,Net-(D11-A)*%
X125500000Y-119100000D03*
%TD*%
D22*
%TO.P,TP1,1,1*%
%TO.N,/5V_BUS*%
X106992166Y-66582190D03*
%TD*%
D21*
%TO.P,J5,1,Pin_1*%
%TO.N,/VBATT_CHARGE*%
X74500000Y-98460000D03*
D22*
%TO.P,J5,2,Pin_2*%
%TO.N,GND_REF*%
X74500000Y-101000000D03*
%TD*%
D18*
%TO.P,R2,1*%
%TO.N,Net-(U1-RT)*%
X89923443Y-77349811D03*
%TO.P,R2,2*%
%TO.N,GND*%
X88098443Y-77349811D03*
%TD*%
D15*
%TO.P,U2,1,SYNC*%
%TO.N,unconnected-(U2-SYNC-Pad1)*%
X118000000Y-76150000D03*
%TO.P,U2,2,TR/SS*%
%TO.N,Net-(U2-TR{slash}SS)*%
X118000000Y-76650000D03*
%TO.P,U2,3,RT*%
%TO.N,Net-(U2-RT)*%
X118000000Y-77150000D03*
%TO.P,U2,4,EN/UV*%
%TO.N,V_BATT*%
X118000000Y-77650000D03*
%TO.P,U2,5,VIN*%
X118000000Y-78150000D03*
%TO.P,U2,6,VIN*%
X118000000Y-78650000D03*
%TO.P,U2,7,GND*%
%TO.N,GND*%
X118000000Y-79150000D03*
%TO.P,U2,8,GND*%
X118000000Y-79650000D03*
%TO.P,U2,9,SW*%
%TO.N,Net-(C10-Pad2)*%
X122300000Y-79650000D03*
%TO.P,U2,10,SW*%
X122300000Y-79150000D03*
%TO.P,U2,11,SW*%
X122300000Y-78650000D03*
%TO.P,U2,12,BST*%
%TO.N,Net-(U2-BST)*%
X122300000Y-78150000D03*
%TO.P,U2,13,INTVcc*%
%TO.N,Net-(U2-INTVcc)*%
X122300000Y-77650000D03*
%TO.P,U2,14,BIAS*%
%TO.N,/3V3_BUS*%
X122300000Y-77150000D03*
%TO.P,U2,15,PG*%
%TO.N,/3V3_BUS_STAT*%
X122300000Y-76650000D03*
%TO.P,U2,16,FB*%
%TO.N,Net-(U2-FB)*%
X122300000Y-76150000D03*
D16*
%TO.P,U2,17,GND*%
%TO.N,GND*%
X119599500Y-76752500D03*
X119599500Y-77900000D03*
X119599500Y-79047500D03*
D17*
X120150000Y-77900000D03*
D16*
X120700500Y-76752500D03*
X120700500Y-77900000D03*
X120700500Y-79047500D03*
%TD*%
D13*
%TO.P,C25,1*%
%TO.N,/5V_BUS*%
X90049398Y-112390551D03*
%TO.P,C25,2*%
%TO.N,GND*%
X90049398Y-110490551D03*
%TD*%
D26*
%TO.P,U17,1,A1*%
%TO.N,GND*%
X73525000Y-126095000D03*
%TO.P,U17,2,A0*%
%TO.N,/SDA*%
X73525000Y-127365000D03*
%TO.P,U17,3,SDA*%
X73525000Y-128635000D03*
%TO.P,U17,4,SCL*%
%TO.N,/SCL*%
X73525000Y-129905000D03*
%TO.P,U17,5,VS*%
%TO.N,/PERIPH_PWR*%
X78475000Y-129905000D03*
%TO.P,U17,6,GND*%
%TO.N,GND*%
X78475000Y-128635000D03*
%TO.P,U17,7,IN-*%
%TO.N,/CS_SOL1_VIN-*%
X78475000Y-127365000D03*
%TO.P,U17,8,IN+*%
%TO.N,/CS_SOL1_VIN+*%
X78475000Y-126095000D03*
%TD*%
D27*
%TO.P,R9,1*%
%TO.N,GND*%
X146630716Y-71344598D03*
%TO.P,R9,2*%
%TO.N,Net-(U6-FB)*%
X146630716Y-73169598D03*
%TD*%
D28*
%TO.P,J7,A1,GND*%
%TO.N,GND_REF*%
X77321508Y-108487513D03*
%TO.P,J7,A4,VBUS*%
%TO.N,/V_USB*%
X77321508Y-109287513D03*
D29*
%TO.P,J7,A5,CC1*%
%TO.N,Net-(J7-CC1)*%
X77321508Y-110437513D03*
%TO.P,J7,A6,D+*%
%TO.N,/D+*%
X77321508Y-111437513D03*
%TO.P,J7,A7,D-*%
%TO.N,/D-*%
X77321508Y-111937513D03*
%TO.P,J7,A8*%
%TO.N,N/C*%
X77321508Y-112937513D03*
D28*
%TO.P,J7,A9,VBUS*%
%TO.N,/V_USB*%
X77321508Y-114087513D03*
%TO.P,J7,A12,GND*%
%TO.N,GND_REF*%
X77321508Y-114887513D03*
%TO.P,J7,B1,GND*%
X77321508Y-114887513D03*
%TO.P,J7,B4,VBUS*%
%TO.N,/V_USB*%
X77321508Y-114087513D03*
D29*
%TO.P,J7,B5,CC2*%
%TO.N,Net-(J7-CC2)*%
X77321508Y-113437513D03*
%TO.P,J7,B6,D+*%
%TO.N,/D+*%
X77321508Y-112437513D03*
%TO.P,J7,B7,D-*%
%TO.N,/D-*%
X77321508Y-110937513D03*
%TO.P,J7,B8*%
%TO.N,N/C*%
X77321508Y-109937513D03*
D28*
%TO.P,J7,B9,VBUS*%
%TO.N,/V_USB*%
X77321508Y-109287513D03*
%TO.P,J7,B12,GND*%
%TO.N,GND_REF*%
X77321508Y-108487513D03*
D30*
%TO.P,J7,S1,SHIELD*%
X76746508Y-107367513D03*
D31*
X72566508Y-107367513D03*
D30*
X76746508Y-116007513D03*
D31*
X72566508Y-116007513D03*
%TD*%
D22*
%TO.P,TP2,1,1*%
%TO.N,/3V3_BUS*%
X95500000Y-124500000D03*
%TD*%
D24*
%TO.P,D4,1,K*%
%TO.N,Net-(D4-K)*%
X122075000Y-101711209D03*
%TO.P,D4,2,A*%
%TO.N,/EDFA_5V_SWITCHED*%
X120500000Y-101711209D03*
%TD*%
D27*
%TO.P,R6,1*%
%TO.N,GND*%
X122500000Y-71630000D03*
%TO.P,R6,2*%
%TO.N,Net-(U2-FB)*%
X122500000Y-73455000D03*
%TD*%
D26*
%TO.P,U4,1,V_OUT*%
%TO.N,Net-(U4-V_OUT)*%
X87425000Y-138270000D03*
%TO.P,U4,2,NC_2*%
%TO.N,unconnected-(U4-NC_2-Pad2)*%
X87425000Y-139540000D03*
%TO.P,U4,3,NC_3*%
%TO.N,unconnected-(U4-NC_3-Pad3)*%
X87425000Y-140810000D03*
%TO.P,U4,4,GND*%
%TO.N,GND*%
X87425000Y-142080000D03*
%TO.P,U4,5,SHUTDOWN*%
%TO.N,/3V3_BUS*%
X92375000Y-142080000D03*
%TO.P,U4,6,NC_4*%
%TO.N,unconnected-(U4-NC_4-Pad6)*%
X92375000Y-140810000D03*
%TO.P,U4,7,NC*%
%TO.N,unconnected-(U4-NC-Pad7)*%
X92375000Y-139540000D03*
%TO.P,U4,8,V_IN*%
%TO.N,/3V3_BUS*%
X92375000Y-138270000D03*
D32*
%TO.P,U4,9*%
%TO.N,N/C*%
X89900000Y-140175000D03*
%TD*%
D26*
%TO.P,U16,1,A1*%
%TO.N,GND*%
X92563109Y-130564194D03*
%TO.P,U16,2,A0*%
%TO.N,/SDA*%
X92563109Y-131834194D03*
%TO.P,U16,3,SDA*%
X92563109Y-133104194D03*
%TO.P,U16,4,SCL*%
%TO.N,/SCL*%
X92563109Y-134374194D03*
%TO.P,U16,5,VS*%
%TO.N,/PERIPH_PWR*%
X97513109Y-134374194D03*
%TO.P,U16,6,GND*%
%TO.N,GND*%
X97513109Y-133104194D03*
%TO.P,U16,7,IN-*%
%TO.N,/CS_SOL2_VIN-*%
X97513109Y-131834194D03*
%TO.P,U16,8,IN+*%
%TO.N,/CS_SOL2_VIN+*%
X97513109Y-130564194D03*
%TD*%
D19*
%TO.P,H4,1*%
%TO.N,N/C*%
X155090000Y-140810000D03*
%TD*%
D10*
%TO.P,R57,1*%
%TO.N,V_BATT*%
X84799477Y-95857924D03*
%TO.P,R57,2*%
%TO.N,Net-(U21-IN-)*%
X86624477Y-95857924D03*
%TD*%
D11*
%TO.P,C12,1*%
%TO.N,GND*%
X121050000Y-82630000D03*
%TO.P,C12,2*%
%TO.N,/3V3_BUS*%
X122950000Y-82630000D03*
%TD*%
D13*
%TO.P,C27,1*%
%TO.N,/5V_BUS*%
X90009295Y-104417327D03*
%TO.P,C27,2*%
%TO.N,GND*%
X90009295Y-102517327D03*
%TD*%
D12*
%TO.P,D3,1,K*%
%TO.N,Net-(D3-K)*%
X121400410Y-85799902D03*
%TO.P,D3,2,A*%
%TO.N,/3V3_BUS*%
X122975410Y-85799902D03*
%TD*%
D10*
%TO.P,R10,1*%
%TO.N,Net-(U6-FB)*%
X153087500Y-71500000D03*
%TO.P,R10,2*%
%TO.N,/5V_BUS*%
X154912500Y-71500000D03*
%TD*%
D26*
%TO.P,U10,1,V_OUT1*%
%TO.N,/5V_SW_1*%
X92541797Y-109187400D03*
%TO.P,U10,2,V_IN1*%
%TO.N,/5V_BUS*%
X92541797Y-110457400D03*
%TO.P,U10,3,V_INS*%
X92541797Y-111727400D03*
%TO.P,U10,4,EN*%
%TO.N,/5V_SW_1_EN*%
X92541797Y-112997400D03*
%TO.P,U10,5,GND*%
%TO.N,GND*%
X97491797Y-112997400D03*
%TO.P,U10,6,V_IN3*%
%TO.N,/5V_BUS*%
X97491797Y-111727400D03*
%TO.P,U10,7,V_IN2*%
X97491797Y-110457400D03*
%TO.P,U10,8,V_OUT2*%
%TO.N,/5V_SW_1*%
X97491797Y-109187400D03*
%TD*%
%TO.P,U11,1,V_OUT1*%
%TO.N,/5V_SW_2*%
X92463879Y-101307181D03*
%TO.P,U11,2,V_IN1*%
%TO.N,/5V_BUS*%
X92463879Y-102577181D03*
%TO.P,U11,3,V_INS*%
X92463879Y-103847181D03*
%TO.P,U11,4,EN*%
%TO.N,/5V_SW_2_EN*%
X92463879Y-105117181D03*
%TO.P,U11,5,GND*%
%TO.N,GND*%
X97413879Y-105117181D03*
%TO.P,U11,6,V_IN3*%
%TO.N,/5V_BUS*%
X97413879Y-103847181D03*
%TO.P,U11,7,V_IN2*%
X97413879Y-102577181D03*
%TO.P,U11,8,V_OUT2*%
%TO.N,/5V_SW_2*%
X97413879Y-101307181D03*
%TD*%
D22*
%TO.P,TP6,1,1*%
%TO.N,/KAPTON_PWR*%
X138000000Y-123500000D03*
%TD*%
D11*
%TO.P,C22,1*%
%TO.N,Net-(U6-BST)*%
X149449763Y-78222969D03*
%TO.P,C22,2*%
%TO.N,Net-(C22-Pad2)*%
X151349763Y-78222969D03*
%TD*%
D10*
%TO.P,R58,1*%
%TO.N,/BATT_CS*%
X82087500Y-87500000D03*
%TO.P,R58,2*%
%TO.N,V_BATT*%
X83912500Y-87500000D03*
%TD*%
D26*
%TO.P,U18,1,A1*%
%TO.N,GND*%
X133025000Y-99095000D03*
%TO.P,U18,2,A0*%
%TO.N,/SDA*%
X133025000Y-100365000D03*
%TO.P,U18,3,SDA*%
X133025000Y-101635000D03*
%TO.P,U18,4,SCL*%
%TO.N,/SCL*%
X133025000Y-102905000D03*
%TO.P,U18,5,VS*%
%TO.N,/PERIPH_PWR*%
X137975000Y-102905000D03*
%TO.P,U18,6,GND*%
%TO.N,GND*%
X137975000Y-101635000D03*
%TO.P,U18,7,IN-*%
%TO.N,/CS_SOL3_VIN-*%
X137975000Y-100365000D03*
%TO.P,U18,8,IN+*%
%TO.N,/CS_SOL3_VIN+*%
X137975000Y-99095000D03*
%TD*%
%TO.P,U9,1,V_OUT1*%
%TO.N,/KAPTON_PWR*%
X142000000Y-126500000D03*
%TO.P,U9,2,V_IN1*%
%TO.N,/5V_BUS*%
X142000000Y-127770000D03*
%TO.P,U9,3,V_INS*%
X142000000Y-129040000D03*
%TO.P,U9,4,EN*%
%TO.N,/KAPTON_ENABLE*%
X142000000Y-130310000D03*
%TO.P,U9,5,GND*%
%TO.N,GND*%
X146950000Y-130310000D03*
%TO.P,U9,6,V_IN3*%
%TO.N,/5V_BUS*%
X146950000Y-129040000D03*
%TO.P,U9,7,V_IN2*%
X146950000Y-127770000D03*
%TO.P,U9,8,V_OUT2*%
%TO.N,/KAPTON_PWR*%
X146950000Y-126500000D03*
%TD*%
D33*
%TO.P,L3,1,1*%
%TO.N,Net-(C22-Pad2)*%
X150774585Y-81640211D03*
%TO.P,L3,2,2*%
%TO.N,/5V_BUS*%
X150774585Y-84010211D03*
%TD*%
D21*
%TO.P,J3,1,Pin_1*%
%TO.N,/SOLAR_PRE_INH*%
X74500000Y-68000000D03*
D22*
%TO.P,J3,2,Pin_2*%
%TO.N,/SOLAR_PRE_MPPT*%
X74500000Y-70540000D03*
%TD*%
D11*
%TO.P,C7,1*%
%TO.N,GND*%
X113550000Y-73630000D03*
%TO.P,C7,2*%
%TO.N,Net-(U2-TR{slash}SS)*%
X115450000Y-73630000D03*
%TD*%
D14*
%TO.P,C47,1*%
%TO.N,GND*%
X140487995Y-101487158D03*
%TO.P,C47,2*%
%TO.N,/PERIPH_PWR*%
X140487995Y-103387158D03*
%TD*%
D33*
%TO.P,L2,1,1*%
%TO.N,Net-(C10-Pad2)*%
X126500000Y-81130000D03*
%TO.P,L2,2,2*%
%TO.N,/3V3_BUS*%
X126500000Y-83500000D03*
%TD*%
D23*
%TO.P,D12,1,K*%
%TO.N,/SOLAR_PRE_INH*%
X128000000Y-121900000D03*
%TO.P,D12,2,A*%
%TO.N,Net-(D12-A)*%
X128000000Y-119100000D03*
%TD*%
D19*
%TO.P,H1,1*%
%TO.N,N/C*%
X78890000Y-55080000D03*
%TD*%
%TO.P,H2,1*%
%TO.N,N/C*%
X152550000Y-55080000D03*
%TD*%
D20*
%TO.P,R49,1*%
%TO.N,Net-(D11-A)*%
X128800740Y-111865718D03*
%TO.P,R49,2*%
%TO.N,/SOLAR_IN_4*%
X128800740Y-110040718D03*
%TD*%
D10*
%TO.P,R17,1*%
%TO.N,Net-(J7-CC2)*%
X83087500Y-111989798D03*
%TO.P,R17,2*%
%TO.N,GND_REF*%
X84912500Y-111989798D03*
%TD*%
D11*
%TO.P,C2,1*%
%TO.N,Net-(U1-BST)*%
X100462845Y-78736780D03*
%TO.P,C2,2*%
%TO.N,Net-(C2-Pad2)*%
X102362845Y-78736780D03*
%TD*%
D13*
%TO.P,C13,1*%
%TO.N,/EDFA_5V*%
X110287500Y-104450000D03*
%TO.P,C13,2*%
%TO.N,GND*%
X110287500Y-102550000D03*
%TD*%
D18*
%TO.P,R54,1*%
%TO.N,/SOLAR_IN_1*%
X86407285Y-123734857D03*
%TO.P,R54,2*%
%TO.N,/CS_SOL1_VIN+*%
X84582285Y-123734857D03*
%TD*%
D10*
%TO.P,R16,1*%
%TO.N,/PDU_TEMP*%
X82491084Y-141942362D03*
%TO.P,R16,2*%
%TO.N,GND*%
X84316084Y-141942362D03*
%TD*%
D12*
%TO.P,D2,1,K*%
%TO.N,Net-(D2-K)*%
X95923651Y-85736961D03*
%TO.P,D2,2,A*%
%TO.N,/EDFA_5V*%
X97498651Y-85736961D03*
%TD*%
D10*
%TO.P,R8,1*%
%TO.N,Net-(U2-FB)*%
X129175000Y-71630000D03*
%TO.P,R8,2*%
%TO.N,/3V3_BUS*%
X131000000Y-71630000D03*
%TD*%
D13*
%TO.P,C29,1*%
%TO.N,/3V3_BUS*%
X90025000Y-119950000D03*
%TO.P,C29,2*%
%TO.N,GND*%
X90025000Y-118050000D03*
%TD*%
D11*
%TO.P,C6,1*%
%TO.N,Net-(U1-INTVcc)*%
X100417021Y-75293669D03*
%TO.P,C6,2*%
%TO.N,GND*%
X102317021Y-75293669D03*
%TD*%
D13*
%TO.P,C8,1*%
%TO.N,GND*%
X115500000Y-82030000D03*
%TO.P,C8,2*%
%TO.N,V_BATT*%
X115500000Y-80130000D03*
%TD*%
D10*
%TO.P,R13,1*%
%TO.N,GND*%
X117759069Y-85622791D03*
%TO.P,R13,2*%
%TO.N,Net-(D3-K)*%
X119584069Y-85622791D03*
%TD*%
D18*
%TO.P,R3,1*%
%TO.N,Net-(U1-FB)*%
X105786534Y-71854042D03*
%TO.P,R3,2*%
%TO.N,/EDFA_5V*%
X103961534Y-71854042D03*
%TD*%
D13*
%TO.P,C42,1*%
%TO.N,/CS_SOL5_VIN-*%
X132003873Y-90294379D03*
%TO.P,C42,2*%
%TO.N,/CS_SOL5_VIN+*%
X132003873Y-88394379D03*
%TD*%
D26*
%TO.P,U3,1,V_OUT1*%
%TO.N,/EDFA_5V_SWITCHED*%
X112787500Y-101500000D03*
%TO.P,U3,2,V_IN1*%
%TO.N,/EDFA_5V*%
X112787500Y-102770000D03*
%TO.P,U3,3,V_INS*%
X112787500Y-104040000D03*
%TO.P,U3,4,EN*%
%TO.N,/EDFA_ENABLE*%
X112787500Y-105310000D03*
%TO.P,U3,5,GND*%
%TO.N,GND*%
X117737500Y-105310000D03*
%TO.P,U3,6,V_IN3*%
%TO.N,/EDFA_5V*%
X117737500Y-104040000D03*
%TO.P,U3,7,V_IN2*%
X117737500Y-102770000D03*
%TO.P,U3,8,V_OUT2*%
%TO.N,/EDFA_5V_SWITCHED*%
X117737500Y-101500000D03*
%TD*%
D15*
%TO.P,U1,1,SYNC*%
%TO.N,unconnected-(U1-SYNC-Pad1)*%
X92955000Y-76020000D03*
%TO.P,U1,2,TR/SS*%
%TO.N,Net-(U1-TR{slash}SS)*%
X92955000Y-76520000D03*
%TO.P,U1,3,RT*%
%TO.N,Net-(U1-RT)*%
X92955000Y-77020000D03*
%TO.P,U1,4,EN/UV*%
%TO.N,V_BATT*%
X92955000Y-77520000D03*
%TO.P,U1,5,VIN*%
X92955000Y-78020000D03*
%TO.P,U1,6,VIN*%
X92955000Y-78520000D03*
%TO.P,U1,7,GND*%
%TO.N,GND*%
X92955000Y-79020000D03*
%TO.P,U1,8,GND*%
X92955000Y-79520000D03*
%TO.P,U1,9,SW*%
%TO.N,Net-(C2-Pad2)*%
X97255000Y-79520000D03*
%TO.P,U1,10,SW*%
X97255000Y-79020000D03*
%TO.P,U1,11,SW*%
X97255000Y-78520000D03*
%TO.P,U1,12,BST*%
%TO.N,Net-(U1-BST)*%
X97255000Y-78020000D03*
%TO.P,U1,13,INTVcc*%
%TO.N,Net-(U1-INTVcc)*%
X97255000Y-77520000D03*
%TO.P,U1,14,BIAS*%
%TO.N,/EDFA_5V*%
X97255000Y-77020000D03*
%TO.P,U1,15,PG*%
%TO.N,/EDFA_5V_STAT*%
X97255000Y-76520000D03*
%TO.P,U1,16,FB*%
%TO.N,Net-(U1-FB)*%
X97255000Y-76020000D03*
D16*
%TO.P,U1,17,GND*%
%TO.N,GND*%
X94554500Y-76622500D03*
X94554500Y-77770000D03*
X94554500Y-78917500D03*
D17*
X95105000Y-77770000D03*
D16*
X95655500Y-76622500D03*
X95655500Y-77770000D03*
X95655500Y-78917500D03*
%TD*%
D26*
%TO.P,U20,1,A1*%
%TO.N,GND*%
X124528873Y-91439379D03*
%TO.P,U20,2,A0*%
%TO.N,/SDA*%
X124528873Y-92709379D03*
%TO.P,U20,3,SDA*%
X124528873Y-93979379D03*
%TO.P,U20,4,SCL*%
%TO.N,/SCL*%
X124528873Y-95249379D03*
%TO.P,U20,5,VS*%
%TO.N,/PERIPH_PWR*%
X129478873Y-95249379D03*
%TO.P,U20,6,GND*%
%TO.N,GND*%
X129478873Y-93979379D03*
%TO.P,U20,7,IN-*%
%TO.N,/CS_SOL5_VIN-*%
X129478873Y-92709379D03*
%TO.P,U20,8,IN+*%
%TO.N,/CS_SOL5_VIN+*%
X129478873Y-91439379D03*
%TD*%
D34*
%TO.P,U21,1,A1*%
%TO.N,GND*%
X97406237Y-96905000D03*
%TO.P,U21,2,A0*%
%TO.N,/SDA*%
X97406237Y-95635000D03*
%TO.P,U21,3,SDA*%
X97406237Y-94365000D03*
%TO.P,U21,4,SCL*%
%TO.N,/SCL*%
X97406237Y-93095000D03*
%TO.P,U21,5,VS*%
%TO.N,/PERIPH_PWR*%
X92456237Y-93095000D03*
%TO.P,U21,6,GND*%
%TO.N,GND*%
X92456237Y-94365000D03*
%TO.P,U21,7,IN-*%
%TO.N,Net-(U21-IN-)*%
X92456237Y-95635000D03*
%TO.P,U21,8,IN+*%
%TO.N,Net-(U21-IN+)*%
X92456237Y-96905000D03*
%TD*%
D18*
%TO.P,R53,1*%
%TO.N,Net-(D8-A)*%
X105574983Y-131717748D03*
%TO.P,R53,2*%
%TO.N,/CS_SOL2_VIN-*%
X103749983Y-131717748D03*
%TD*%
D13*
%TO.P,C43,1*%
%TO.N,/CS_SOL2_VIN-*%
X100029276Y-130018926D03*
%TO.P,C43,2*%
%TO.N,/CS_SOL2_VIN+*%
X100029276Y-128118926D03*
%TD*%
D25*
%TO.P,C16,1*%
%TO.N,GND_REF*%
X84950000Y-115500000D03*
%TO.P,C16,2*%
%TO.N,/V_USB*%
X83050000Y-115500000D03*
%TD*%
D24*
%TO.P,D7,1,K*%
%TO.N,Net-(D7-K)*%
X101203724Y-101421548D03*
%TO.P,D7,2,A*%
%TO.N,/5V_SW_2*%
X99628724Y-101421548D03*
%TD*%
D26*
%TO.P,U14,1,V_OUT1*%
%TO.N,/PERIPH_PWR*%
X92525000Y-117095000D03*
%TO.P,U14,2,V_IN1*%
%TO.N,/3V3_BUS*%
X92525000Y-118365000D03*
%TO.P,U14,3,V_INS*%
X92525000Y-119635000D03*
%TO.P,U14,4,EN*%
%TO.N,/PERIPH_EN*%
X92525000Y-120905000D03*
%TO.P,U14,5,GND*%
%TO.N,GND*%
X97475000Y-120905000D03*
%TO.P,U14,6,V_IN3*%
%TO.N,/3V3_BUS*%
X97475000Y-119635000D03*
%TO.P,U14,7,V_IN2*%
X97475000Y-118365000D03*
%TO.P,U14,8,V_OUT2*%
%TO.N,/PERIPH_PWR*%
X97475000Y-117095000D03*
%TD*%
D35*
%TO.P,J2,1,Pin_1*%
%TO.N,/PDU_TEMP*%
X83970000Y-57620000D03*
D36*
%TO.P,J2,2,Pin_2*%
%TO.N,unconnected-(J2-Pin_2-Pad2)*%
X83970000Y-55080000D03*
%TO.P,J2,3,Pin_3*%
%TO.N,/SOLAR_TMP_1*%
X86510000Y-57620000D03*
%TO.P,J2,4,Pin_4*%
%TO.N,unconnected-(J2-Pin_4-Pad4)*%
X86510000Y-55080000D03*
%TO.P,J2,5,Pin_5*%
%TO.N,/SOLAR_TMP_2*%
X89050000Y-57620000D03*
%TO.P,J2,6,Pin_6*%
%TO.N,unconnected-(J2-Pin_6-Pad6)*%
X89050000Y-55080000D03*
%TO.P,J2,7,Pin_7*%
%TO.N,/SOLAR_TMP_5*%
X91590000Y-57620000D03*
%TO.P,J2,8,Pin_8*%
%TO.N,unconnected-(J2-Pin_8-Pad8)*%
X91590000Y-55080000D03*
%TO.P,J2,9,Pin_9*%
%TO.N,/SOLAR_TMP_4*%
X94130000Y-57620000D03*
%TO.P,J2,10,Pin_10*%
%TO.N,unconnected-(J2-Pin_10-Pad10)*%
X94130000Y-55080000D03*
%TO.P,J2,11,Pin_11*%
%TO.N,/SOLAR_TMP_3*%
X96670000Y-57620000D03*
%TO.P,J2,12,Pin_12*%
%TO.N,unconnected-(J2-Pin_12-Pad12)*%
X96670000Y-55080000D03*
%TO.P,J2,13,Pin_13*%
%TO.N,unconnected-(J2-Pin_13-Pad13)*%
X99210000Y-57620000D03*
%TO.P,J2,14,Pin_14*%
%TO.N,unconnected-(J2-Pin_14-Pad14)*%
X99210000Y-55080000D03*
%TO.P,J2,15,Pin_15*%
%TO.N,unconnected-(J2-Pin_15-Pad15)*%
X101750000Y-57620000D03*
%TO.P,J2,16,Pin_16*%
%TO.N,unconnected-(J2-Pin_16-Pad16)*%
X101750000Y-55080000D03*
%TO.P,J2,17,Pin_17*%
%TO.N,unconnected-(J2-Pin_17-Pad17)*%
X104290000Y-57620000D03*
%TO.P,J2,18,Pin_18*%
%TO.N,unconnected-(J2-Pin_18-Pad18)*%
X104290000Y-55080000D03*
%TO.P,J2,19,Pin_19*%
%TO.N,/EDFA_5V_STAT*%
X106830000Y-57620000D03*
%TO.P,J2,20,Pin_20*%
%TO.N,unconnected-(J2-Pin_20-Pad20)*%
X106830000Y-55080000D03*
%TO.P,J2,21,Pin_21*%
%TO.N,/EDFA_5V_SW*%
X109370000Y-57620000D03*
%TO.P,J2,22,Pin_22*%
X109370000Y-55080000D03*
%TO.P,J2,23,Pin_23*%
%TO.N,/5V_BUS_STAT*%
X111910000Y-57620000D03*
%TO.P,J2,24,Pin_24*%
%TO.N,/3V3_BUS_STAT*%
X111910000Y-55080000D03*
%TO.P,J2,25,Pin_25*%
%TO.N,/5V_BUS*%
X114450000Y-57620000D03*
%TO.P,J2,26,Pin_26*%
X114450000Y-55080000D03*
%TO.P,J2,27,Pin_27*%
%TO.N,/3V3_BUS*%
X116990000Y-57620000D03*
%TO.P,J2,28,Pin_28*%
X116990000Y-55080000D03*
%TO.P,J2,29,Pin_29*%
%TO.N,GND*%
X119530000Y-57620000D03*
%TO.P,J2,30,Pin_30*%
X119530000Y-55080000D03*
%TO.P,J2,31,Pin_31*%
X122070000Y-57620000D03*
%TO.P,J2,32,Pin_32*%
X122070000Y-55080000D03*
%TO.P,J2,33,Pin_33*%
%TO.N,unconnected-(J2-Pin_33-Pad33)*%
X124610000Y-57620000D03*
%TO.P,J2,34,Pin_34*%
%TO.N,unconnected-(J2-Pin_34-Pad34)*%
X124610000Y-55080000D03*
%TO.P,J2,35,Pin_35*%
%TO.N,unconnected-(J2-Pin_35-Pad35)*%
X127150000Y-57620000D03*
%TO.P,J2,36,Pin_36*%
%TO.N,unconnected-(J2-Pin_36-Pad36)*%
X127150000Y-55080000D03*
%TO.P,J2,37,Pin_37*%
%TO.N,unconnected-(J2-Pin_37-Pad37)*%
X129690000Y-57620000D03*
%TO.P,J2,38,Pin_38*%
%TO.N,unconnected-(J2-Pin_38-Pad38)*%
X129690000Y-55080000D03*
%TO.P,J2,39,Pin_39*%
%TO.N,unconnected-(J2-Pin_39-Pad39)*%
X132230000Y-57620000D03*
%TO.P,J2,40,Pin_40*%
%TO.N,unconnected-(J2-Pin_40-Pad40)*%
X132230000Y-55080000D03*
%TO.P,J2,41,Pin_41*%
%TO.N,unconnected-(J2-Pin_41-Pad41)*%
X134770000Y-57620000D03*
%TO.P,J2,42,Pin_42*%
%TO.N,unconnected-(J2-Pin_42-Pad42)*%
X134770000Y-55080000D03*
%TO.P,J2,43,Pin_43*%
%TO.N,unconnected-(J2-Pin_43-Pad43)*%
X137310000Y-57620000D03*
%TO.P,J2,44,Pin_44*%
%TO.N,unconnected-(J2-Pin_44-Pad44)*%
X137310000Y-55080000D03*
%TO.P,J2,45,Pin_45*%
%TO.N,unconnected-(J2-Pin_45-Pad45)*%
X139850000Y-57620000D03*
%TO.P,J2,46,Pin_46*%
%TO.N,V_BATT*%
X139850000Y-55080000D03*
%TO.P,J2,47,Pin_47*%
%TO.N,unconnected-(J2-Pin_47-Pad47)*%
X142390000Y-57620000D03*
%TO.P,J2,48,Pin_48*%
%TO.N,V_BATT*%
X142390000Y-55080000D03*
%TO.P,J2,49,Pin_49*%
%TO.N,unconnected-(J2-Pin_49-Pad49)*%
X144930000Y-57620000D03*
%TO.P,J2,50,Pin_50*%
%TO.N,unconnected-(J2-Pin_50-Pad50)*%
X144930000Y-55080000D03*
%TO.P,J2,51,Pin_51*%
%TO.N,unconnected-(J2-Pin_51-Pad51)*%
X147470000Y-57620000D03*
%TO.P,J2,52,Pin_52*%
%TO.N,unconnected-(J2-Pin_52-Pad52)*%
X147470000Y-55080000D03*
%TD*%
D35*
%TO.P,J1,1,Pin_1*%
%TO.N,unconnected-(J1-Pin_1-Pad1)*%
X83970000Y-62900000D03*
D36*
%TO.P,J1,2,Pin_2*%
%TO.N,unconnected-(J1-Pin_2-Pad2)*%
X83970000Y-60360000D03*
%TO.P,J1,3,Pin_3*%
%TO.N,unconnected-(J1-Pin_3-Pad3)*%
X86510000Y-62900000D03*
%TO.P,J1,4,Pin_4*%
%TO.N,unconnected-(J1-Pin_4-Pad4)*%
X86510000Y-60360000D03*
%TO.P,J1,5,Pin_5*%
%TO.N,unconnected-(J1-Pin_5-Pad5)*%
X89050000Y-62900000D03*
%TO.P,J1,6,Pin_6*%
%TO.N,unconnected-(J1-Pin_6-Pad6)*%
X89050000Y-60360000D03*
%TO.P,J1,7,Pin_7*%
%TO.N,unconnected-(J1-Pin_7-Pad7)*%
X91590000Y-62900000D03*
%TO.P,J1,8,Pin_8*%
%TO.N,unconnected-(J1-Pin_8-Pad8)*%
X91590000Y-60360000D03*
%TO.P,J1,9,Pin_9*%
%TO.N,unconnected-(J1-Pin_9-Pad9)*%
X94130000Y-62900000D03*
%TO.P,J1,10,Pin_10*%
%TO.N,unconnected-(J1-Pin_10-Pad10)*%
X94130000Y-60360000D03*
%TO.P,J1,11,Pin_11*%
%TO.N,/EDFA_ENABLE*%
X96670000Y-62900000D03*
%TO.P,J1,12,Pin_12*%
%TO.N,unconnected-(J1-Pin_12-Pad12)*%
X96670000Y-60360000D03*
%TO.P,J1,13,Pin_13*%
%TO.N,/KAPTON_ENABLE*%
X99210000Y-62900000D03*
%TO.P,J1,14,Pin_14*%
%TO.N,unconnected-(J1-Pin_14-Pad14)*%
X99210000Y-60360000D03*
%TO.P,J1,15,Pin_15*%
%TO.N,/5V_SW_1_EN*%
X101750000Y-62900000D03*
%TO.P,J1,16,Pin_16*%
%TO.N,unconnected-(J1-Pin_16-Pad16)*%
X101750000Y-60360000D03*
%TO.P,J1,17,Pin_17*%
%TO.N,/5V_SW_2_EN*%
X104290000Y-62900000D03*
%TO.P,J1,18,Pin_18*%
%TO.N,unconnected-(J1-Pin_18-Pad18)*%
X104290000Y-60360000D03*
%TO.P,J1,19,Pin_19*%
%TO.N,unconnected-(J1-Pin_19-Pad19)*%
X106830000Y-62900000D03*
%TO.P,J1,20,Pin_20*%
%TO.N,unconnected-(J1-Pin_20-Pad20)*%
X106830000Y-60360000D03*
%TO.P,J1,21,Pin_21*%
%TO.N,/5V_SW_1*%
X109370000Y-62900000D03*
%TO.P,J1,22,Pin_22*%
%TO.N,/ICL*%
X109370000Y-60360000D03*
%TO.P,J1,23,Pin_23*%
%TO.N,/5V_SW_2*%
X111910000Y-62900000D03*
%TO.P,J1,24,Pin_24*%
%TO.N,/SHDN*%
X111910000Y-60360000D03*
%TO.P,J1,25,Pin_25*%
%TO.N,unconnected-(J1-Pin_25-Pad25)*%
X114450000Y-62900000D03*
%TO.P,J1,26,Pin_26*%
%TO.N,unconnected-(J1-Pin_26-Pad26)*%
X114450000Y-60360000D03*
%TO.P,J1,27,Pin_27*%
%TO.N,/PERIPH_EN*%
X116990000Y-62900000D03*
%TO.P,J1,28,Pin_28*%
%TO.N,/ENAB_BURN_1*%
X116990000Y-60360000D03*
%TO.P,J1,29,Pin_29*%
%TO.N,/BURN_FET*%
X119530000Y-62900000D03*
%TO.P,J1,30,Pin_30*%
%TO.N,/ENAB_BURN_2*%
X119530000Y-60360000D03*
%TO.P,J1,31,Pin_31*%
%TO.N,unconnected-(J1-Pin_31-Pad31)*%
X122070000Y-62900000D03*
%TO.P,J1,32,Pin_32*%
%TO.N,unconnected-(J1-Pin_32-Pad32)*%
X122070000Y-60360000D03*
%TO.P,J1,33,Pin_33*%
%TO.N,unconnected-(J1-Pin_33-Pad33)*%
X124610000Y-62900000D03*
%TO.P,J1,34,Pin_34*%
%TO.N,unconnected-(J1-Pin_34-Pad34)*%
X124610000Y-60360000D03*
%TO.P,J1,35,Pin_35*%
%TO.N,unconnected-(J1-Pin_35-Pad35)*%
X127150000Y-62900000D03*
%TO.P,J1,36,Pin_36*%
%TO.N,unconnected-(J1-Pin_36-Pad36)*%
X127150000Y-60360000D03*
%TO.P,J1,37,Pin_37*%
%TO.N,unconnected-(J1-Pin_37-Pad37)*%
X129690000Y-62900000D03*
%TO.P,J1,38,Pin_38*%
%TO.N,unconnected-(J1-Pin_38-Pad38)*%
X129690000Y-60360000D03*
%TO.P,J1,39,Pin_39*%
%TO.N,unconnected-(J1-Pin_39-Pad39)*%
X132230000Y-62900000D03*
%TO.P,J1,40,Pin_40*%
%TO.N,unconnected-(J1-Pin_40-Pad40)*%
X132230000Y-60360000D03*
%TO.P,J1,41,Pin_41*%
%TO.N,/SDA*%
X134770000Y-62900000D03*
%TO.P,J1,42,Pin_42*%
%TO.N,unconnected-(J1-Pin_42-Pad42)*%
X134770000Y-60360000D03*
%TO.P,J1,43,Pin_43*%
%TO.N,/SCL*%
X137310000Y-62900000D03*
%TO.P,J1,44,Pin_44*%
%TO.N,unconnected-(J1-Pin_44-Pad44)*%
X137310000Y-60360000D03*
%TO.P,J1,45,Pin_45*%
%TO.N,unconnected-(J1-Pin_45-Pad45)*%
X139850000Y-62900000D03*
%TO.P,J1,46,Pin_46*%
%TO.N,unconnected-(J1-Pin_46-Pad46)*%
X139850000Y-60360000D03*
%TO.P,J1,47,Pin_47*%
%TO.N,/PERIPH_PWR*%
X142390000Y-62900000D03*
%TO.P,J1,48,Pin_48*%
%TO.N,unconnected-(J1-Pin_48-Pad48)*%
X142390000Y-60360000D03*
%TO.P,J1,49,Pin_49*%
%TO.N,unconnected-(J1-Pin_49-Pad49)*%
X144930000Y-62900000D03*
%TO.P,J1,50,Pin_50*%
%TO.N,unconnected-(J1-Pin_50-Pad50)*%
X144930000Y-60360000D03*
%TO.P,J1,51,Pin_51*%
%TO.N,unconnected-(J1-Pin_51-Pad51)*%
X147470000Y-62900000D03*
%TO.P,J1,52,Pin_52*%
%TO.N,unconnected-(J1-Pin_52-Pad52)*%
X147470000Y-60360000D03*
%TD*%
D13*
%TO.P,C41,1*%
%TO.N,/CS_SOL4_VIN-*%
X120283465Y-110604025D03*
%TO.P,C41,2*%
%TO.N,/CS_SOL4_VIN+*%
X120283465Y-108704025D03*
%TD*%
D10*
%TO.P,R11,1*%
%TO.N,GND*%
X142018744Y-85978020D03*
%TO.P,R11,2*%
%TO.N,Net-(D1-K)*%
X143843744Y-85978020D03*
%TD*%
D11*
%TO.P,C3,1*%
%TO.N,GND*%
X95550801Y-82521602D03*
%TO.P,C3,2*%
%TO.N,/EDFA_5V*%
X97450801Y-82521602D03*
%TD*%
D10*
%TO.P,R59,1*%
%TO.N,/BATT_CS*%
X84764963Y-98987523D03*
%TO.P,R59,2*%
%TO.N,Net-(U21-IN+)*%
X86589963Y-98987523D03*
%TD*%
D18*
%TO.P,R27,1*%
%TO.N,GND*%
X158109332Y-131692221D03*
%TO.P,R27,2*%
%TO.N,Net-(D5-K)*%
X156284332Y-131692221D03*
%TD*%
D13*
%TO.P,C1,1*%
%TO.N,GND*%
X90020000Y-81510000D03*
%TO.P,C1,2*%
%TO.N,V_BATT*%
X90020000Y-79610000D03*
%TD*%
D18*
%TO.P,R42,1*%
%TO.N,/SOLAR_IN_5*%
X137274114Y-89004874D03*
%TO.P,R42,2*%
%TO.N,/CS_SOL5_VIN+*%
X135449114Y-89004874D03*
%TD*%
D22*
%TO.P,TP7,1,1*%
%TO.N,/5V_SW_1*%
X93989901Y-66609914D03*
%TD*%
D26*
%TO.P,U19,1,A1*%
%TO.N,GND*%
X112815854Y-111844025D03*
%TO.P,U19,2,A0*%
%TO.N,/SDA*%
X112815854Y-113114025D03*
%TO.P,U19,3,SDA*%
X112815854Y-114384025D03*
%TO.P,U19,4,SCL*%
%TO.N,/SCL*%
X112815854Y-115654025D03*
%TO.P,U19,5,VS*%
%TO.N,/PERIPH_PWR*%
X117765854Y-115654025D03*
%TO.P,U19,6,GND*%
%TO.N,GND*%
X117765854Y-114384025D03*
%TO.P,U19,7,IN-*%
%TO.N,/CS_SOL4_VIN-*%
X117765854Y-113114025D03*
%TO.P,U19,8,IN+*%
%TO.N,/CS_SOL4_VIN+*%
X117765854Y-111844025D03*
%TD*%
D24*
%TO.P,D6,1,K*%
%TO.N,Net-(D6-K)*%
X101283958Y-109280812D03*
%TO.P,D6,2,A*%
%TO.N,/5V_SW_1*%
X99708958Y-109280812D03*
%TD*%
D33*
%TO.P,L1,1,1*%
%TO.N,Net-(C2-Pad2)*%
X100845013Y-81375000D03*
%TO.P,L1,2,2*%
%TO.N,/EDFA_5V*%
X100845013Y-83745000D03*
%TD*%
D18*
%TO.P,R15,1*%
%TO.N,Net-(U4-V_OUT)*%
X84321347Y-138619609D03*
%TO.P,R15,2*%
%TO.N,/PDU_TEMP*%
X82496347Y-138619609D03*
%TD*%
D27*
%TO.P,R4,1*%
%TO.N,GND*%
X96995857Y-71178417D03*
%TO.P,R4,2*%
%TO.N,Net-(U1-FB)*%
X96995857Y-73003417D03*
%TD*%
D11*
%TO.P,C10,1*%
%TO.N,Net-(U2-BST)*%
X125447442Y-78124993D03*
%TO.P,C10,2*%
%TO.N,Net-(C10-Pad2)*%
X127347442Y-78124993D03*
%TD*%
D14*
%TO.P,C49,1*%
%TO.N,GND*%
X132000000Y-93500000D03*
%TO.P,C49,2*%
%TO.N,/PERIPH_PWR*%
X132000000Y-95400000D03*
%TD*%
D21*
%TO.P,J8,1,Pin_1*%
%TO.N,Net-(J8-Pin_1)*%
X155850000Y-115275000D03*
D22*
%TO.P,J8,2,Pin_2*%
%TO.N,GND*%
X155850000Y-112735000D03*
%TD*%
D18*
%TO.P,R56,1*%
%TO.N,Net-(D9-A)*%
X86412500Y-127000000D03*
%TO.P,R56,2*%
%TO.N,/CS_SOL1_VIN-*%
X84587500Y-127000000D03*
%TD*%
D10*
%TO.P,R12,1*%
%TO.N,GND*%
X92342892Y-85556661D03*
%TO.P,R12,2*%
%TO.N,Net-(D2-K)*%
X94167892Y-85556661D03*
%TD*%
D14*
%TO.P,C26,1*%
%TO.N,/5V_SW_1*%
X103681249Y-110690957D03*
%TO.P,C26,2*%
%TO.N,GND*%
X103681249Y-112590957D03*
%TD*%
D13*
%TO.P,C44,1*%
%TO.N,/CS_SOL1_VIN-*%
X80851126Y-125328812D03*
%TO.P,C44,2*%
%TO.N,/CS_SOL1_VIN+*%
X80851126Y-123428812D03*
%TD*%
D18*
%TO.P,R44,1*%
%TO.N,/SOLAR_IN_4*%
X125342696Y-109318575D03*
%TO.P,R44,2*%
%TO.N,/CS_SOL4_VIN+*%
X123517696Y-109318575D03*
%TD*%
D25*
%TO.P,C17,1*%
%TO.N,/5V_BUS*%
X139543404Y-127774303D03*
%TO.P,C17,2*%
%TO.N,GND*%
X137643404Y-127774303D03*
%TD*%
D14*
%TO.P,C45,1*%
%TO.N,GND*%
X100058855Y-133034893D03*
%TO.P,C45,2*%
%TO.N,/PERIPH_PWR*%
X100058855Y-134934893D03*
%TD*%
D24*
%TO.P,D13,1,K*%
%TO.N,Net-(D13-K)*%
X101812500Y-117000000D03*
%TO.P,D13,2,A*%
%TO.N,/PERIPH_PWR*%
X100237500Y-117000000D03*
%TD*%
D10*
%TO.P,R14,1*%
%TO.N,GND*%
X120375000Y-105017258D03*
%TO.P,R14,2*%
%TO.N,Net-(D4-K)*%
X122200000Y-105017258D03*
%TD*%
D37*
%TO.N,V_BATT*%
X107000000Y-84500000D03*
X105025000Y-109000000D03*
X86000000Y-110500000D03*
X100000000Y-86000000D03*
X91520000Y-78980000D03*
X116565000Y-79065000D03*
D38*
X110500000Y-92500000D03*
D37*
X132536658Y-108657217D03*
D38*
X85500000Y-85000000D03*
D37*
X140824540Y-79402637D03*
%TO.N,GND*%
X95000000Y-109500000D03*
X102320194Y-73683383D03*
X95000000Y-102000000D03*
X76040119Y-127874999D03*
X143120175Y-71315397D03*
X120000000Y-94000000D03*
X100061213Y-114530000D03*
X115227666Y-105313760D03*
X89936178Y-94787157D03*
X91064779Y-114303287D03*
X148810000Y-130310000D03*
X117998397Y-82156038D03*
X88500000Y-118000000D03*
X125500000Y-90500000D03*
X100078804Y-131734665D03*
X95000000Y-120500000D03*
X92756439Y-82025185D03*
X91302872Y-143078051D03*
X131036658Y-104157217D03*
X95000000Y-106000000D03*
X131994951Y-92092950D03*
X138500000Y-129500000D03*
X140000000Y-114500000D03*
X90833142Y-84076702D03*
X97521660Y-121959517D03*
X110907677Y-141227782D03*
X105688661Y-112996623D03*
X89336233Y-87403933D03*
X95000000Y-112500000D03*
X120294947Y-112865058D03*
X115633772Y-84941041D03*
X93020000Y-72980000D03*
X111000000Y-112500000D03*
X153970248Y-94678507D03*
X118500000Y-71630000D03*
X80857482Y-127039146D03*
X140464676Y-100172526D03*
X95000000Y-117500000D03*
X102500000Y-102000000D03*
X153691268Y-74690650D03*
X102500000Y-101000000D03*
X154016776Y-84648971D03*
%TO.N,/EDFA_5V*%
X104651446Y-80810077D03*
X110428058Y-80810077D03*
X103000000Y-73000000D03*
%TO.N,/EDFA_5V_STAT*%
X99500000Y-73500000D03*
X99500000Y-69500000D03*
%TO.N,/3V3_BUS_STAT*%
X120000000Y-72500000D03*
%TO.N,/3V3_BUS*%
X97731762Y-139615539D03*
X124962437Y-72962437D03*
X129855000Y-81355000D03*
X80000000Y-120500000D03*
%TO.N,/5V_BUS_STAT*%
X142000000Y-72500000D03*
%TO.N,/5V_BUS*%
X147342528Y-87585360D03*
X151000000Y-73000000D03*
X149159170Y-127765822D03*
X135500000Y-125500000D03*
X99500000Y-111000000D03*
%TO.N,Net-(U12-CLN)*%
X109500000Y-95400000D03*
X105500000Y-97500000D03*
%TO.N,/PERIPH_PWR*%
X89945889Y-91500316D03*
X136850000Y-102933370D03*
X95362981Y-132953679D03*
X126000000Y-114500000D03*
X99000000Y-118000000D03*
X131000000Y-96500000D03*
X137902676Y-103752266D03*
X134000000Y-93500000D03*
X88500000Y-100500000D03*
%TO.N,Net-(C32-Pad1)*%
X92980972Y-114197233D03*
X96000000Y-112500000D03*
%TO.N,Net-(D15-A)*%
X101412500Y-93500000D03*
X94690432Y-88000000D03*
%TO.N,/ENAB_BURN_1*%
X138500000Y-109000000D03*
%TO.N,/ENAB_BURN_2*%
X141000000Y-99500000D03*
%TO.N,/SOLAR_PRE_MPPT*%
X113000000Y-109000000D03*
%TO.N,/5V_SW_1*%
X95500000Y-70000000D03*
X92500000Y-106000000D03*
%TO.N,/BURN_FET*%
X122764395Y-110869021D03*
%TO.N,Net-(Q2-D)*%
X146500000Y-116000000D03*
X148500000Y-116000000D03*
%TO.N,Net-(Q3-D)*%
X148500000Y-106500000D03*
X145500000Y-106500000D03*
%TO.N,Net-(U12-BOOST)*%
X103500000Y-98500000D03*
X97329214Y-91991674D03*
%TO.N,/KAPTON_ENABLE*%
X136723709Y-130299521D03*
%TO.N,/5V_SW_2*%
X92500000Y-100000000D03*
%TO.N,/SOLAR_IN_2*%
X109000000Y-129500000D03*
X110500000Y-131000000D03*
D38*
X107127193Y-136306419D03*
D37*
%TO.N,/SOLAR_IN_1*%
X80000000Y-122000000D03*
D38*
%TO.N,/SOLAR_IN_3*%
X148500000Y-85000000D03*
%TO.N,/SOLAR_IN_4*%
X137000000Y-94478543D03*
%TO.N,/SOLAR_IN_5*%
X147500000Y-96675000D03*
%TO.N,/VBATT_CHARGE*%
X83000000Y-102500000D03*
D37*
%TO.N,/5V_SW_1_EN*%
X92156439Y-98156439D03*
%TO.N,/5V_SW_2_EN*%
X99000000Y-64500000D03*
X91000000Y-106000000D03*
%TO.N,/TGATE*%
X102712500Y-97500000D03*
X105500000Y-90350000D03*
%TO.N,/BGATE*%
X100500000Y-91000000D03*
X101000000Y-97500000D03*
%TO.N,/ICL*%
X102500000Y-106500000D03*
X110500000Y-71500000D03*
%TO.N,/SHDN*%
X104500000Y-96600000D03*
X106000000Y-104855673D03*
%TO.N,/PERIPH_EN*%
X94090432Y-120949924D03*
D38*
%TO.N,Net-(D12-A)*%
X136000000Y-101500000D03*
X136000000Y-97000000D03*
D37*
%TO.N,/SCL*%
X111000000Y-116500000D03*
X131368768Y-102958016D03*
X97406237Y-93095000D03*
X106000000Y-133500000D03*
X115000000Y-114000000D03*
X124500000Y-96000000D03*
%TO.N,/SDA*%
X96000000Y-95000000D03*
X123000000Y-103500000D03*
X134175917Y-76629362D03*
X105500000Y-110000000D03*
X123000000Y-94500000D03*
X114672561Y-113056270D03*
X134174265Y-80174265D03*
X131226803Y-101728489D03*
X98000000Y-127500000D03*
D38*
%TO.N,/SOLAR_PRE_INH*%
X118500000Y-123500000D03*
%TD*%
D39*
%TO.N,/5V_BUS*%
X154497398Y-81497398D02*
X152272766Y-79272766D01*
X152272766Y-79272766D02*
X152272766Y-73996519D01*
X151276247Y-73000000D02*
X151000000Y-73000000D01*
X152272766Y-73996519D02*
X151276247Y-73000000D01*
D40*
%TO.N,V_BATT*%
X90020000Y-79610000D02*
X90890000Y-79610000D01*
X90890000Y-79610000D02*
X91520000Y-78980000D01*
D39*
X141455984Y-78647685D02*
X142284104Y-78647685D01*
X140824540Y-79279129D02*
X141455984Y-78647685D01*
D40*
X91980000Y-78520000D02*
X91520000Y-78980000D01*
X92955000Y-77520000D02*
X92955000Y-78020000D01*
D41*
X83912500Y-87500000D02*
X85000000Y-87500000D01*
D39*
X142284104Y-78647685D02*
X142284104Y-77647685D01*
D41*
X85000000Y-87500000D02*
X85500000Y-87000000D01*
D39*
X140824540Y-79402637D02*
X140824540Y-79279129D01*
D40*
X92480000Y-78020000D02*
X91520000Y-78980000D01*
D39*
X116980000Y-78650000D02*
X118000000Y-78650000D01*
X139803037Y-80267989D02*
X139959188Y-80267989D01*
D41*
X85500000Y-87000000D02*
X85500000Y-85000000D01*
D39*
X139959188Y-80267989D02*
X140824540Y-79402637D01*
D40*
X84799477Y-95299477D02*
X84799477Y-95857924D01*
X92955000Y-78020000D02*
X92480000Y-78020000D01*
X83912500Y-94412500D02*
X84799477Y-95299477D01*
X83912500Y-87500000D02*
X83912500Y-94412500D01*
X92955000Y-78520000D02*
X91980000Y-78520000D01*
X92955000Y-78520000D02*
X92955000Y-78020000D01*
D39*
X115500000Y-80130000D02*
X116980000Y-78650000D01*
X118000000Y-78650000D02*
X118000000Y-77650000D01*
%TO.N,GND*%
X89821583Y-71178417D02*
X93020000Y-71178417D01*
X143120175Y-71315397D02*
X143815397Y-71315397D01*
D40*
X135089448Y-99095000D02*
X137629448Y-101635000D01*
D39*
X113587500Y-80117500D02*
X115500000Y-82030000D01*
D40*
X140340153Y-101635000D02*
X140487995Y-101487158D01*
D39*
X93020000Y-71178417D02*
X93020000Y-72980000D01*
D40*
X78691569Y-128418431D02*
X78475000Y-128635000D01*
X137643404Y-127774303D02*
X137643404Y-128643404D01*
X95905000Y-96905000D02*
X97406237Y-96905000D01*
X117115975Y-114384025D02*
X114575975Y-111844025D01*
X94064194Y-130564194D02*
X92563109Y-130564194D01*
X131020621Y-93979379D02*
X129478873Y-93979379D01*
D39*
X99718462Y-112693548D02*
X99718462Y-114187249D01*
D40*
X100058855Y-131754614D02*
X100078804Y-131734665D01*
D39*
X115550000Y-71630000D02*
X118500000Y-71630000D01*
D40*
X88550000Y-118050000D02*
X88500000Y-118000000D01*
X131500000Y-93500000D02*
X131020621Y-93979379D01*
X89936178Y-94787157D02*
X90358335Y-94365000D01*
D39*
X137965699Y-73500000D02*
X140150302Y-71315397D01*
D40*
X84316084Y-141942362D02*
X87287362Y-141942362D01*
X97513109Y-133104194D02*
X96604194Y-133104194D01*
X117765854Y-114384025D02*
X117115975Y-114384025D01*
D39*
X113550000Y-77592500D02*
X113587500Y-77630000D01*
D40*
X129133321Y-93979379D02*
X129478873Y-93979379D01*
X158109332Y-126609332D02*
X156000000Y-124500000D01*
X80920322Y-127101986D02*
X80857482Y-127039146D01*
X114575975Y-111844025D02*
X112815854Y-111844025D01*
X117765854Y-114384025D02*
X120113365Y-114384025D01*
X124528873Y-91439379D02*
X126593321Y-91439379D01*
D39*
X140150302Y-71315397D02*
X143120175Y-71315397D01*
D40*
X137975000Y-101635000D02*
X140340153Y-101635000D01*
X137629448Y-101635000D02*
X137975000Y-101635000D01*
X112815854Y-111844025D02*
X111655975Y-111844025D01*
X137643404Y-128643404D02*
X138500000Y-129500000D01*
D39*
X88029819Y-73942612D02*
X88029819Y-72970181D01*
X143844598Y-71344598D02*
X146630716Y-71344598D01*
X88029819Y-77281187D02*
X88098443Y-77349811D01*
X148900000Y-124500000D02*
X156000000Y-124500000D01*
X97475000Y-121912857D02*
X97521660Y-121959517D01*
D40*
X89945889Y-94777446D02*
X89936178Y-94787157D01*
X90358335Y-94365000D02*
X92456237Y-94365000D01*
D39*
X148400000Y-124000000D02*
X148900000Y-124500000D01*
X88098443Y-77349811D02*
X88098443Y-79588443D01*
X88029819Y-73942612D02*
X88029819Y-77281187D01*
D40*
X90025000Y-118050000D02*
X88550000Y-118050000D01*
X80920322Y-128418431D02*
X78691569Y-128418431D01*
D39*
X88029819Y-72970181D02*
X89821583Y-71178417D01*
D40*
X102317021Y-73686556D02*
X102320194Y-73683383D01*
X132000000Y-93500000D02*
X131500000Y-93500000D01*
D39*
X143815397Y-71315397D02*
X143844598Y-71344598D01*
X97475000Y-120905000D02*
X97475000Y-121912857D01*
D40*
X102317021Y-75293669D02*
X102317021Y-73686556D01*
X78475000Y-128635000D02*
X76800120Y-128635000D01*
X88423051Y-143078051D02*
X87425000Y-142080000D01*
X91302872Y-143078051D02*
X88423051Y-143078051D01*
X133025000Y-99095000D02*
X135089448Y-99095000D01*
X87287362Y-141942362D02*
X87425000Y-142080000D01*
X93891246Y-143078051D02*
X95670926Y-141298371D01*
X97513109Y-133104194D02*
X99989554Y-133104194D01*
X74260120Y-126095000D02*
X76040119Y-127874999D01*
D39*
X93020000Y-71178417D02*
X96995857Y-71178417D01*
D40*
X91302872Y-143078051D02*
X93891246Y-143078051D01*
D39*
X137987263Y-78000000D02*
X137987263Y-80352215D01*
X113587500Y-77630000D02*
X113587500Y-80117500D01*
D40*
X132000000Y-93500000D02*
X132000000Y-92097999D01*
X158109332Y-131692221D02*
X158109332Y-126609332D01*
X76800120Y-128635000D02*
X76040119Y-127874999D01*
D39*
X88098443Y-79588443D02*
X90020000Y-81510000D01*
X104086915Y-112996623D02*
X103681249Y-112590957D01*
X137987263Y-80352215D02*
X139803037Y-82167989D01*
D40*
X92456237Y-94365000D02*
X93365000Y-94365000D01*
X146950000Y-130310000D02*
X148810000Y-130310000D01*
D39*
X137965699Y-73500000D02*
X137965699Y-77978436D01*
X120307948Y-114189442D02*
X120307948Y-112878059D01*
D40*
X96604194Y-133104194D02*
X94064194Y-130564194D01*
X89945889Y-93400316D02*
X89945889Y-94777446D01*
X132000000Y-92097999D02*
X131994951Y-92092950D01*
X99989554Y-133104194D02*
X100058855Y-133034893D01*
X73525000Y-126095000D02*
X74260120Y-126095000D01*
D39*
X118500000Y-71630000D02*
X122500000Y-71630000D01*
X113550000Y-73630000D02*
X115550000Y-71630000D01*
D40*
X120113365Y-114384025D02*
X120307948Y-114189442D01*
D39*
X105688661Y-112996623D02*
X104086915Y-112996623D01*
D40*
X124560621Y-91439379D02*
X125500000Y-90500000D01*
X100058855Y-133034893D02*
X100058855Y-131754614D01*
D39*
X120307948Y-112878059D02*
X120294947Y-112865058D01*
D40*
X126593321Y-91439379D02*
X129133321Y-93979379D01*
D39*
X113550000Y-73630000D02*
X113550000Y-77592500D01*
D40*
X140487995Y-100195845D02*
X140464676Y-100172526D01*
D39*
X99718462Y-114187249D02*
X100061213Y-114530000D01*
X137965699Y-77978436D02*
X137987263Y-78000000D01*
D40*
X140487995Y-101487158D02*
X140487995Y-100195845D01*
X80920322Y-128418431D02*
X80920322Y-127101986D01*
X93365000Y-94365000D02*
X95905000Y-96905000D01*
X124528873Y-91439379D02*
X124560621Y-91439379D01*
X111655975Y-111844025D02*
X111000000Y-112500000D01*
D39*
%TO.N,Net-(C2-Pad2)*%
X102362845Y-79857168D02*
X100845013Y-81375000D01*
X102362845Y-78736780D02*
X102362845Y-79857168D01*
X98990013Y-79520000D02*
X100845013Y-81375000D01*
X97255000Y-78520000D02*
X97255000Y-79520000D01*
X97255000Y-79520000D02*
X98990013Y-79520000D01*
D40*
%TO.N,Net-(U1-BST)*%
X97255000Y-78020000D02*
X99746065Y-78020000D01*
X99746065Y-78020000D02*
X100462845Y-78736780D01*
D39*
%TO.N,/EDFA_5V*%
X112787500Y-102770000D02*
X112787500Y-104040000D01*
D40*
X97498651Y-85736961D02*
X98853052Y-85736961D01*
X97255000Y-77020000D02*
X98112410Y-77020000D01*
X102137546Y-71862454D02*
X102260851Y-71862454D01*
X99000000Y-75123305D02*
X102260851Y-71862454D01*
D39*
X109212500Y-96606739D02*
X111500000Y-94319239D01*
X110287500Y-104450000D02*
X109212500Y-103375000D01*
D40*
X100845013Y-83745000D02*
X98674199Y-83745000D01*
D39*
X110287500Y-104450000D02*
X112377500Y-104450000D01*
D40*
X103987438Y-81012562D02*
X103987438Y-81000000D01*
X101255000Y-83745000D02*
X103987438Y-81012562D01*
X98674199Y-83745000D02*
X97450801Y-82521602D01*
X103000000Y-72815576D02*
X103961534Y-71854042D01*
X103987438Y-81000000D02*
X103987438Y-78742070D01*
X98853052Y-85736961D02*
X100845013Y-83745000D01*
D39*
X112787500Y-102770000D02*
X117737500Y-102770000D01*
X111500000Y-82000000D02*
X110428058Y-80928058D01*
X110428058Y-80928058D02*
X110428058Y-80810077D01*
D40*
X102260851Y-71862454D02*
X103953122Y-71862454D01*
D39*
X104651446Y-80810077D02*
X104177361Y-80810077D01*
X112377500Y-104450000D02*
X112787500Y-104040000D01*
D40*
X103953122Y-71862454D02*
X103961534Y-71854042D01*
D39*
X112787500Y-104040000D02*
X117737500Y-104040000D01*
D40*
X103961534Y-78716166D02*
X103987438Y-78742070D01*
X103961534Y-71854042D02*
X103961534Y-78716166D01*
D39*
X117737500Y-104040000D02*
X117737500Y-102770000D01*
D40*
X98112410Y-77020000D02*
X99000000Y-76132410D01*
X99000000Y-76132410D02*
X99000000Y-75123305D01*
X100845013Y-83745000D02*
X101255000Y-83745000D01*
D39*
X111500000Y-94319239D02*
X111500000Y-82000000D01*
X104177361Y-80810077D02*
X103987438Y-81000000D01*
X109212500Y-103375000D02*
X109212500Y-96606739D01*
D40*
X103000000Y-73000000D02*
X103000000Y-72815576D01*
%TO.N,Net-(U1-FB)*%
X96995857Y-73003417D02*
X96995857Y-75760857D01*
X104412492Y-70480000D02*
X105786534Y-71854042D01*
X105786534Y-71854042D02*
X105786534Y-78641166D01*
X96995857Y-75760857D02*
X97255000Y-76020000D01*
X96995857Y-73003417D02*
X99519274Y-70480000D01*
X105786534Y-78641166D02*
X105887438Y-78742070D01*
X99519274Y-70480000D02*
X104412492Y-70480000D01*
%TO.N,Net-(U1-TR{slash}SS)*%
X89929819Y-73942612D02*
X89929819Y-74667612D01*
X91782207Y-76520000D02*
X92955000Y-76520000D01*
X89929819Y-74667612D02*
X91782207Y-76520000D01*
%TO.N,Net-(U1-INTVcc)*%
X98190690Y-77520000D02*
X100417021Y-75293669D01*
X97255000Y-77520000D02*
X98190690Y-77520000D01*
%TO.N,Net-(U1-RT)*%
X90253254Y-77020000D02*
X92955000Y-77020000D01*
X89923443Y-77349811D02*
X90253254Y-77020000D01*
%TO.N,/EDFA_5V_STAT*%
X98899152Y-73399152D02*
X98280000Y-74018305D01*
X100435851Y-71862454D02*
X98899152Y-73399152D01*
X98012410Y-76520000D02*
X97255000Y-76520000D01*
X98280000Y-74018305D02*
X98280000Y-76252410D01*
X99000000Y-73500000D02*
X99500000Y-73500000D01*
X98899152Y-73399152D02*
X99000000Y-73500000D01*
X98280000Y-76252410D02*
X98012410Y-76520000D01*
%TO.N,Net-(U2-TR{slash}SS)*%
X117242590Y-76650000D02*
X118000000Y-76650000D01*
X115450000Y-74857410D02*
X117242590Y-76650000D01*
X115450000Y-73630000D02*
X115450000Y-74857410D01*
D39*
%TO.N,Net-(C10-Pad2)*%
X127500000Y-80130000D02*
X127500000Y-78277551D01*
X122300000Y-79650000D02*
X125020000Y-79650000D01*
X126500000Y-81130000D02*
X127500000Y-80130000D01*
X122300000Y-78650000D02*
X122300000Y-79650000D01*
X125020000Y-79650000D02*
X126500000Y-81130000D01*
X127500000Y-78277551D02*
X127347442Y-78124993D01*
%TO.N,Net-(U2-BST)*%
X125447442Y-78124993D02*
X125422435Y-78150000D01*
X125422435Y-78150000D02*
X122300000Y-78150000D01*
%TO.N,Net-(U2-FB)*%
X129175000Y-71630000D02*
X129175000Y-78005000D01*
X124325000Y-71630000D02*
X129175000Y-71630000D01*
X122300000Y-76150000D02*
X122300000Y-73655000D01*
X129175000Y-78005000D02*
X129050000Y-78130000D01*
X122300000Y-73655000D02*
X122500000Y-73455000D01*
X122500000Y-73455000D02*
X124325000Y-71630000D01*
D40*
%TO.N,/3V3_BUS_STAT*%
X121542590Y-76650000D02*
X121275000Y-76382410D01*
X121275000Y-76382410D02*
X121275000Y-73775000D01*
X121275000Y-73775000D02*
X120000000Y-72500000D01*
X122300000Y-76650000D02*
X121542590Y-76650000D01*
D39*
%TO.N,Net-(U2-INTVcc)*%
X124500000Y-76278120D02*
X125444145Y-75333975D01*
X123850000Y-77650000D02*
X124500000Y-77000000D01*
X124500000Y-77000000D02*
X124500000Y-76278120D01*
X125444145Y-75333975D02*
X125444145Y-74486059D01*
X122300000Y-77650000D02*
X123850000Y-77650000D01*
%TO.N,Net-(U2-RT)*%
X115892500Y-77150000D02*
X118000000Y-77150000D01*
X115412500Y-77630000D02*
X115892500Y-77150000D01*
D40*
%TO.N,/3V3_BUS*%
X94542555Y-138270000D02*
X95670926Y-139398371D01*
X95600000Y-119735000D02*
X95500000Y-119635000D01*
D39*
X123128120Y-77150000D02*
X124000000Y-76278120D01*
X128200000Y-79700000D02*
X129855000Y-81355000D01*
X130950000Y-78130000D02*
X130950000Y-80260000D01*
X122950000Y-82630000D02*
X123820000Y-83500000D01*
X80000000Y-120500000D02*
X80550000Y-119950000D01*
X124000000Y-76278120D02*
X124000000Y-73924874D01*
X92525000Y-119635000D02*
X95500000Y-119635000D01*
X95500000Y-119635000D02*
X97475000Y-119635000D01*
D40*
X92375000Y-138270000D02*
X94542555Y-138270000D01*
D39*
X122950000Y-82630000D02*
X122950000Y-85774492D01*
X90025000Y-119950000D02*
X92210000Y-119950000D01*
X130950000Y-80260000D02*
X129855000Y-81355000D01*
X122300000Y-77150000D02*
X123128120Y-77150000D01*
D40*
X92375000Y-142080000D02*
X92989297Y-142080000D01*
D39*
X129855000Y-81355000D02*
X127710000Y-83500000D01*
X80550000Y-119950000D02*
X90025000Y-119950000D01*
X124962437Y-72962437D02*
X125424874Y-72500000D01*
X92210000Y-119950000D02*
X92525000Y-119635000D01*
X95888094Y-139615539D02*
X95670926Y-139398371D01*
X123820000Y-83500000D02*
X126500000Y-83500000D01*
X131000000Y-71630000D02*
X131000000Y-78080000D01*
X92525000Y-118365000D02*
X97475000Y-118365000D01*
X127710000Y-83500000D02*
X126500000Y-83500000D01*
X131000000Y-78080000D02*
X130950000Y-78130000D01*
D40*
X95500000Y-124500000D02*
X95600000Y-124400000D01*
D39*
X92525000Y-118365000D02*
X92525000Y-119635000D01*
X124000000Y-73924874D02*
X124962437Y-72962437D01*
D40*
X92989297Y-142080000D02*
X95670926Y-139398371D01*
D39*
X127500000Y-72500000D02*
X128200000Y-73200000D01*
X97475000Y-119635000D02*
X97475000Y-118365000D01*
X125424874Y-72500000D02*
X127500000Y-72500000D01*
X128200000Y-73200000D02*
X128200000Y-79700000D01*
X97731762Y-139615539D02*
X95888094Y-139615539D01*
D40*
X95600000Y-124400000D02*
X95600000Y-119735000D01*
D39*
X122950000Y-85774492D02*
X122975410Y-85799902D01*
%TO.N,Net-(C22-Pad2)*%
X148782059Y-79647685D02*
X150774585Y-81640211D01*
X151349763Y-81065033D02*
X150774585Y-81640211D01*
X151349763Y-78222969D02*
X151349763Y-81065033D01*
X146584104Y-78647685D02*
X146584104Y-79647685D01*
X146584104Y-79647685D02*
X148782059Y-79647685D01*
D40*
%TO.N,Net-(U6-RT)*%
X140664578Y-77147685D02*
X139812263Y-78000000D01*
X142284104Y-77147685D02*
X140664578Y-77147685D01*
%TO.N,/5V_BUS_STAT*%
X145559604Y-75059604D02*
X143500000Y-73000000D01*
X145826694Y-76647685D02*
X145559604Y-76380595D01*
X143500000Y-73000000D02*
X142500000Y-73000000D01*
X146584104Y-76647685D02*
X145826694Y-76647685D01*
X145559604Y-76380595D02*
X145559604Y-75059604D01*
X142500000Y-73000000D02*
X142000000Y-72500000D01*
%TO.N,Net-(U6-INTVcc)*%
X149473325Y-76026675D02*
X147852315Y-77647685D01*
X147852315Y-77647685D02*
X146584104Y-77647685D01*
X149473325Y-74677534D02*
X149473325Y-76026675D01*
%TO.N,Net-(U6-BST)*%
X149374479Y-78147685D02*
X149449763Y-78222969D01*
X146584104Y-78147685D02*
X149374479Y-78147685D01*
D39*
%TO.N,/5V_BUS*%
X155086396Y-80908400D02*
X155086396Y-78206622D01*
X147342528Y-86227842D02*
X147354565Y-86215805D01*
X150774585Y-84010211D02*
X151984585Y-84010211D01*
X98034397Y-111000000D02*
X97491797Y-110457400D01*
X92541797Y-111727400D02*
X97491797Y-111727400D01*
D40*
X146584104Y-77147685D02*
X147341514Y-77147685D01*
X151000000Y-73000000D02*
X151205535Y-73000000D01*
X148500000Y-73500000D02*
X149000000Y-73000000D01*
D39*
X147359447Y-86210923D02*
X147354565Y-86215805D01*
X99500000Y-111000000D02*
X98034397Y-111000000D01*
D40*
X149000000Y-73000000D02*
X151000000Y-73000000D01*
D39*
X92541797Y-110457400D02*
X92541797Y-111727400D01*
X92463879Y-103847181D02*
X90579441Y-103847181D01*
X93922819Y-102577181D02*
X94222819Y-102877181D01*
X142000000Y-129040000D02*
X142000000Y-127770000D01*
X90009295Y-104417327D02*
X90009295Y-108341160D01*
X113250000Y-58820000D02*
X113250000Y-63750000D01*
X114450000Y-57620000D02*
X113250000Y-58820000D01*
X154912500Y-74500000D02*
X154912500Y-62912500D01*
X146950000Y-129040000D02*
X142000000Y-129040000D01*
D40*
X148500000Y-75989199D02*
X148500000Y-73500000D01*
D39*
X147359447Y-82997460D02*
X147359447Y-86210923D01*
X94222819Y-102877181D02*
X97113879Y-102877181D01*
X90712549Y-111727400D02*
X92541797Y-111727400D01*
X139543404Y-127774303D02*
X137269101Y-125500000D01*
X92125535Y-110457400D02*
X92541797Y-110457400D01*
X154912500Y-78032726D02*
X155086396Y-78206622D01*
X150774585Y-84010211D02*
X148372198Y-84010211D01*
X111740086Y-65259914D02*
X108314442Y-65259914D01*
X137269101Y-125500000D02*
X135500000Y-125500000D01*
X90579441Y-103847181D02*
X90009295Y-104417327D01*
X115650000Y-56280000D02*
X114450000Y-55080000D01*
X147342528Y-87585360D02*
X147342528Y-86227842D01*
X92463879Y-102577181D02*
X93922819Y-102577181D01*
X113250000Y-63750000D02*
X111740086Y-65259914D01*
X92463879Y-103847181D02*
X92463879Y-102577181D01*
X97113879Y-102877181D02*
X97413879Y-102577181D01*
X139543404Y-127774303D02*
X141995697Y-127774303D01*
X154912500Y-62912500D02*
X148420000Y-56420000D01*
D40*
X147341514Y-77147685D02*
X148500000Y-75989199D01*
D39*
X92541797Y-110457400D02*
X97491797Y-110457400D01*
X151984585Y-84010211D02*
X154497398Y-81497398D01*
X141995697Y-127774303D02*
X142000000Y-127770000D01*
X97413879Y-103847181D02*
X92463879Y-103847181D01*
X154912500Y-74500000D02*
X154912500Y-78032726D01*
X142000000Y-127770000D02*
X146950000Y-127770000D01*
X149154992Y-127770000D02*
X149159170Y-127765822D01*
X154497398Y-81497398D02*
X155086396Y-80908400D01*
X115650000Y-56420000D02*
X115650000Y-56280000D01*
X154912500Y-71500000D02*
X154912500Y-74500000D01*
X108314442Y-65259914D02*
X106992166Y-66582190D01*
X90009295Y-108341160D02*
X92125535Y-110457400D01*
X90049398Y-112390551D02*
X90712549Y-111727400D01*
X115650000Y-56420000D02*
X114450000Y-57620000D01*
X97413879Y-102577181D02*
X97413879Y-103847181D01*
X148420000Y-56420000D02*
X115650000Y-56420000D01*
X97491797Y-111727400D02*
X97491797Y-110457400D01*
X146950000Y-127770000D02*
X149154992Y-127770000D01*
X148372198Y-84010211D02*
X147359447Y-82997460D01*
X146950000Y-127770000D02*
X146950000Y-129040000D01*
D40*
%TO.N,Net-(U6-TR{slash}SS)*%
X141526694Y-76647685D02*
X142284104Y-76647685D01*
X139865699Y-74986690D02*
X141526694Y-76647685D01*
X139865699Y-73500000D02*
X139865699Y-74986690D01*
%TO.N,Net-(U6-FB)*%
X146584104Y-76147685D02*
X146584104Y-73216210D01*
D39*
X153000750Y-78020976D02*
X153000750Y-71586750D01*
X153000750Y-71586750D02*
X153087500Y-71500000D01*
X153186396Y-78206622D02*
X153000750Y-78020976D01*
X146630716Y-73169598D02*
X147830402Y-73169598D01*
X149500000Y-71500000D02*
X153087500Y-71500000D01*
D40*
X146584104Y-73216210D02*
X146630716Y-73169598D01*
D39*
X147830402Y-73169598D02*
X149500000Y-71500000D01*
D40*
%TO.N,Net-(D1-K)*%
X145779565Y-86215805D02*
X144081529Y-86215805D01*
X144081529Y-86215805D02*
X143843744Y-85978020D01*
%TO.N,Net-(D2-K)*%
X95923651Y-85736961D02*
X94348192Y-85736961D01*
X94348192Y-85736961D02*
X94167892Y-85556661D01*
%TO.N,Net-(D3-K)*%
X119761180Y-85799902D02*
X119584069Y-85622791D01*
X121400410Y-85799902D02*
X119761180Y-85799902D01*
D39*
%TO.N,Net-(D4-K)*%
X122200000Y-101836209D02*
X122075000Y-101711209D01*
X122200000Y-105017258D02*
X122200000Y-101836209D01*
%TO.N,Net-(U12-CLN)*%
X109500000Y-95400000D02*
X107400000Y-97500000D01*
X107400000Y-97500000D02*
X105500000Y-97500000D01*
D40*
%TO.N,/PERIPH_PWR*%
X131000000Y-96400000D02*
X132000000Y-95400000D01*
D39*
X101062500Y-116175000D02*
X102600000Y-116175000D01*
D40*
X97125806Y-134374194D02*
X96525806Y-133774194D01*
X90861553Y-91500316D02*
X92456237Y-93095000D01*
X95500000Y-133774194D02*
X95500000Y-133090698D01*
D39*
X115319879Y-118100000D02*
X104025000Y-118100000D01*
D40*
X140487995Y-103387158D02*
X138457158Y-103387158D01*
D39*
X120307948Y-116089442D02*
X123410558Y-116089442D01*
X125000000Y-114500000D02*
X126000000Y-114500000D01*
D40*
X99237500Y-118000000D02*
X100237500Y-117000000D01*
D39*
X119872531Y-115654025D02*
X120307948Y-116089442D01*
D40*
X78475000Y-129905000D02*
X80506891Y-129905000D01*
D39*
X92825000Y-116795000D02*
X97175000Y-116795000D01*
X117765854Y-115654025D02*
X115319879Y-118100000D01*
X88500000Y-113070000D02*
X88500000Y-100500000D01*
D40*
X131000000Y-96500000D02*
X131000000Y-96400000D01*
D39*
X92525000Y-117095000D02*
X92825000Y-116795000D01*
D40*
X97513109Y-134374194D02*
X97125806Y-134374194D01*
X99000000Y-118000000D02*
X99237500Y-118000000D01*
X136878370Y-102905000D02*
X136850000Y-102933370D01*
X98073808Y-134934893D02*
X97513109Y-134374194D01*
D39*
X117765854Y-115654025D02*
X119872531Y-115654025D01*
D40*
X131849379Y-95249379D02*
X132000000Y-95400000D01*
X138457158Y-103387158D02*
X137975000Y-102905000D01*
X89945889Y-91500316D02*
X90861553Y-91500316D01*
D39*
X100237500Y-117000000D02*
X97570000Y-117000000D01*
D40*
X100058855Y-134934893D02*
X98073808Y-134934893D01*
D39*
X137902676Y-102977324D02*
X137975000Y-102905000D01*
D40*
X95500000Y-133774194D02*
X84376085Y-133774194D01*
D39*
X104025000Y-117600000D02*
X104025000Y-118100000D01*
X102600000Y-116175000D02*
X104025000Y-117600000D01*
X137902676Y-103752266D02*
X137902676Y-102977324D01*
D40*
X137975000Y-102905000D02*
X136878370Y-102905000D01*
X80506891Y-129905000D02*
X80920322Y-130318431D01*
X96525806Y-133774194D02*
X95500000Y-133774194D01*
X129478873Y-95249379D02*
X131849379Y-95249379D01*
X84376085Y-133774194D02*
X80920322Y-130318431D01*
D39*
X100237500Y-117000000D02*
X101062500Y-116175000D01*
D40*
X95500000Y-133090698D02*
X95362981Y-132953679D01*
D42*
X132100000Y-95400000D02*
X134000000Y-93500000D01*
D39*
X97175000Y-116795000D02*
X97475000Y-117095000D01*
X92525000Y-117095000D02*
X88500000Y-113070000D01*
D42*
X132000000Y-95400000D02*
X132100000Y-95400000D01*
D39*
X123410558Y-116089442D02*
X125000000Y-114500000D01*
X97570000Y-117000000D02*
X97475000Y-117095000D01*
%TO.N,Net-(C32-Pad1)*%
X92980972Y-114197233D02*
X94335702Y-114197233D01*
X96000000Y-112532935D02*
X96000000Y-112500000D01*
X94335702Y-114197233D02*
X96000000Y-112532935D01*
D40*
%TO.N,Net-(D15-A)*%
X101412500Y-91063971D02*
X98348529Y-88000000D01*
X98348529Y-88000000D02*
X94690432Y-88000000D01*
X101412500Y-93500000D02*
X101412500Y-91063971D01*
D39*
%TO.N,Net-(D13-K)*%
X101812500Y-117000000D02*
X101812500Y-120375000D01*
X101812500Y-120375000D02*
X101937500Y-120500000D01*
D40*
%TO.N,/PDU_TEMP*%
X82496347Y-141937099D02*
X82491084Y-141942362D01*
X71366508Y-68633492D02*
X82380000Y-57620000D01*
X82380000Y-57620000D02*
X83970000Y-57620000D01*
X82496347Y-138619609D02*
X82496347Y-141937099D01*
X71366508Y-130817786D02*
X71366508Y-68633492D01*
X82491084Y-141942362D02*
X71366508Y-130817786D01*
D41*
%TO.N,/BATT_CS*%
X76000000Y-87500000D02*
X82087500Y-87500000D01*
D40*
X82087500Y-87500000D02*
X82087500Y-96310060D01*
D41*
X74491311Y-84540000D02*
X74491311Y-85991311D01*
X74491311Y-85991311D02*
X76000000Y-87500000D01*
D40*
X82087500Y-96310060D02*
X84764963Y-98987523D01*
D39*
%TO.N,GND_REF*%
X74500000Y-105121005D02*
X76746508Y-107367513D01*
D40*
X85000000Y-108496898D02*
X83503102Y-107000000D01*
X72566508Y-107367513D02*
X72566508Y-116007513D01*
D42*
X74140000Y-101000000D02*
X74500000Y-101000000D01*
D40*
X76201508Y-116007513D02*
X77321508Y-114887513D01*
X72566508Y-107367513D02*
X76201508Y-107367513D01*
X72566508Y-116007513D02*
X76201508Y-116007513D01*
D42*
X72500000Y-92400000D02*
X74140000Y-94040000D01*
D40*
X80512487Y-108487513D02*
X77321508Y-108487513D01*
D42*
X72500000Y-76000000D02*
X72500000Y-92400000D01*
X74500000Y-74957894D02*
X73542106Y-74957894D01*
X72500000Y-96040000D02*
X72500000Y-99360000D01*
D40*
X85000000Y-115489718D02*
X85010282Y-115500000D01*
X83503102Y-107000000D02*
X82000000Y-107000000D01*
X85000000Y-108496898D02*
X85000000Y-115489718D01*
X82000000Y-107000000D02*
X80512487Y-108487513D01*
D42*
X74140000Y-94040000D02*
X74500000Y-94040000D01*
X73542106Y-74957894D02*
X72500000Y-76000000D01*
X74500000Y-94040000D02*
X72500000Y-96040000D01*
D39*
X74500000Y-101000000D02*
X74500000Y-105121005D01*
D42*
X72500000Y-99360000D02*
X74140000Y-101000000D01*
D40*
X76201508Y-107367513D02*
X77321508Y-108487513D01*
%TO.N,/V_USB*%
X81697795Y-114087513D02*
X83110282Y-115500000D01*
X76746509Y-114087513D02*
X77321508Y-114087513D01*
X77321508Y-114087513D02*
X81697795Y-114087513D01*
X75500000Y-112841004D02*
X76746509Y-114087513D01*
X76864098Y-109287513D02*
X75500000Y-110651611D01*
X77321508Y-109287513D02*
X76864098Y-109287513D01*
X75500000Y-110651611D02*
X75500000Y-112841004D01*
D39*
%TO.N,/5V_SW_1*%
X99708958Y-109280812D02*
X100533958Y-108455812D01*
X92541797Y-109187400D02*
X92541797Y-106041797D01*
X92541797Y-106041797D02*
X92500000Y-106000000D01*
X95500000Y-70000000D02*
X95500000Y-68120013D01*
X92879197Y-108850000D02*
X97154397Y-108850000D01*
X102455812Y-108455812D02*
X103681249Y-109681249D01*
X95500000Y-68120013D02*
X93989901Y-66609914D01*
X103681249Y-109681249D02*
X103681249Y-110690957D01*
X97154397Y-108850000D02*
X97491797Y-109187400D01*
X92541797Y-109187400D02*
X92879197Y-108850000D01*
X100533958Y-108455812D02*
X102455812Y-108455812D01*
D40*
%TO.N,Net-(U4-V_OUT)*%
X84670956Y-138270000D02*
X87425000Y-138270000D01*
X84321347Y-138619609D02*
X84670956Y-138270000D01*
%TO.N,Net-(J7-CC2)*%
X81727285Y-113437513D02*
X77321508Y-113437513D01*
X83175000Y-111989798D02*
X81727285Y-113437513D01*
%TO.N,Net-(J7-CC1)*%
X83175000Y-108496898D02*
X81234385Y-110437513D01*
X81234385Y-110437513D02*
X77321508Y-110437513D01*
D39*
%TO.N,/EDFA_5V_SWITCHED*%
X112787500Y-101500000D02*
X117737500Y-101500000D01*
X123287500Y-100500000D02*
X123893750Y-101106250D01*
X124263582Y-101476082D02*
X124263582Y-102550000D01*
X120288791Y-101500000D02*
X120500000Y-101711209D01*
X120500000Y-101711209D02*
X121711209Y-100500000D01*
X121711209Y-100500000D02*
X123287500Y-100500000D01*
X123893750Y-101106250D02*
X124263582Y-101476082D01*
X117737500Y-101500000D02*
X120288791Y-101500000D01*
D40*
X127000000Y-98000000D02*
X123893750Y-101106250D01*
%TO.N,/D-*%
X77321508Y-110937513D02*
X77928918Y-110937513D01*
X77928918Y-110937513D02*
X78196508Y-111205103D01*
X78196508Y-111205103D02*
X78196508Y-111669923D01*
X78196508Y-111669923D02*
X77928918Y-111937513D01*
X77928918Y-111937513D02*
X77321508Y-111937513D01*
D39*
%TO.N,/D+*%
X76396508Y-112190633D02*
X76643388Y-112437513D01*
X76396508Y-111684393D02*
X76396508Y-112190633D01*
X76643388Y-111437513D02*
X76396508Y-111684393D01*
X76643388Y-112437513D02*
X77321508Y-112437513D01*
X77321508Y-111437513D02*
X76643388Y-111437513D01*
%TO.N,Net-(Q2-D)*%
X146500000Y-116000000D02*
X148500000Y-116000000D01*
%TO.N,Net-(Q3-D)*%
X145500000Y-106500000D02*
X146500000Y-107500000D01*
X146500000Y-107500000D02*
X147500000Y-107500000D01*
X147500000Y-107500000D02*
X148500000Y-106500000D01*
%TO.N,Net-(U12-BOOST)*%
X98731237Y-96543738D02*
X98731237Y-92731237D01*
X100687499Y-98500000D02*
X98731237Y-96543738D01*
X98731237Y-92731237D02*
X97991674Y-91991674D01*
X103500000Y-98500000D02*
X100687499Y-98500000D01*
X97991674Y-91991674D02*
X97329214Y-91991674D01*
D40*
%TO.N,/EDFA_ENABLE*%
X112787500Y-105310000D02*
X109637756Y-105310000D01*
X96670000Y-63170000D02*
X96670000Y-62900000D01*
X109637756Y-105310000D02*
X104900000Y-100572244D01*
X103367373Y-67937637D02*
X101437637Y-67937637D01*
X101437637Y-67937637D02*
X96670000Y-63170000D01*
X104900000Y-100572244D02*
X104900000Y-97251471D01*
X108500000Y-93651471D02*
X108500000Y-73070264D01*
X104900000Y-97251471D02*
X108500000Y-93651471D01*
X108500000Y-73070264D02*
X103367373Y-67937637D01*
D39*
%TO.N,/KAPTON_PWR*%
X152000000Y-127000000D02*
X152040000Y-127040000D01*
X142000000Y-126500000D02*
X146950000Y-126500000D01*
X141000000Y-126500000D02*
X138000000Y-123500000D01*
X146950000Y-126500000D02*
X146950000Y-124450000D01*
X151500000Y-126500000D02*
X146950000Y-126500000D01*
X146950000Y-124450000D02*
X146500000Y-124000000D01*
X152925000Y-127925000D02*
X152925000Y-131500000D01*
X142000000Y-126500000D02*
X141000000Y-126500000D01*
X152000000Y-127000000D02*
X151500000Y-126500000D01*
X152000000Y-127000000D02*
X152925000Y-127925000D01*
X152040000Y-127040000D02*
X156000000Y-127040000D01*
D40*
%TO.N,Net-(D5-K)*%
X156092111Y-131500000D02*
X156284332Y-131692221D01*
X154500000Y-131500000D02*
X156092111Y-131500000D01*
%TO.N,/KAPTON_ENABLE*%
X136734188Y-130310000D02*
X136723709Y-130299521D01*
X142000000Y-130310000D02*
X136734188Y-130310000D01*
D39*
%TO.N,/5V_SW_2*%
X100700272Y-100350000D02*
X99628724Y-101421548D01*
X97413879Y-101307181D02*
X92463879Y-101307181D01*
X103697807Y-101278568D02*
X102769239Y-100350000D01*
X102769239Y-100350000D02*
X100700272Y-100350000D01*
X92463879Y-101307181D02*
X92463879Y-100036121D01*
X99514357Y-101307181D02*
X99628724Y-101421548D01*
X92463879Y-100036121D02*
X92500000Y-100000000D01*
X103697807Y-102822181D02*
X103697807Y-101278568D01*
X97413879Y-101307181D02*
X99514357Y-101307181D01*
%TO.N,Net-(D6-K)*%
X101283958Y-109280812D02*
X101283958Y-112434044D01*
X101283958Y-112434044D02*
X101543462Y-112693548D01*
%TO.N,Net-(D7-K)*%
X101610307Y-101828131D02*
X101203724Y-101421548D01*
X101610307Y-104722181D02*
X101610307Y-101828131D01*
D40*
%TO.N,/SOLAR_IN_2*%
X110825000Y-132500000D02*
X110825000Y-131325000D01*
D43*
X110825000Y-132608612D02*
X110825000Y-132500000D01*
D40*
X109000000Y-129500000D02*
X109000000Y-128986085D01*
X110825000Y-131325000D02*
X110500000Y-131000000D01*
D43*
X107127193Y-136306419D02*
X110825000Y-132608612D01*
D40*
X108513891Y-128499976D02*
X105574982Y-128499976D01*
X109000000Y-128986085D02*
X108513891Y-128499976D01*
D43*
%TO.N,/SOLAR_IN_1*%
X80000000Y-122000000D02*
X88500000Y-122000000D01*
D40*
X89087500Y-125000000D02*
X89500000Y-124587500D01*
X86407285Y-123734857D02*
X87672428Y-125000000D01*
X87672428Y-125000000D02*
X89087500Y-125000000D01*
D43*
X89500000Y-123000000D02*
X89500000Y-124587500D01*
X88500000Y-122000000D02*
X89500000Y-123000000D01*
%TO.N,/SOLAR_IN_3*%
X148500000Y-85000000D02*
X148500000Y-95862196D01*
D40*
X146368362Y-97061808D02*
X147137662Y-97831108D01*
D41*
X148979039Y-97831108D02*
X148979039Y-96341235D01*
D43*
X148500000Y-95862196D02*
X148979039Y-96341235D01*
D40*
X145435742Y-97061808D02*
X146368362Y-97061808D01*
X147137662Y-97831108D02*
X148979039Y-97831108D01*
D39*
%TO.N,/SOLAR_IN_4*%
X125342696Y-109318575D02*
X126318575Y-109318575D01*
D41*
X128800740Y-110040718D02*
X128800740Y-108643423D01*
X128800740Y-108643423D02*
X128764024Y-108606707D01*
D43*
X135021457Y-94478543D02*
X128764024Y-100735976D01*
D39*
X127040718Y-110040718D02*
X128800740Y-110040718D01*
D43*
X128764024Y-100735976D02*
X128764024Y-108606707D01*
X137000000Y-94478543D02*
X135021457Y-94478543D01*
D39*
X126318575Y-109318575D02*
X127040718Y-110040718D01*
D40*
%TO.N,/SOLAR_IN_5*%
X137995932Y-89004874D02*
X139010437Y-90019379D01*
X139010437Y-90019379D02*
X140503873Y-90019379D01*
D43*
X143500000Y-92675000D02*
X143500000Y-88500000D01*
X143500000Y-88500000D02*
X140601606Y-88500000D01*
D40*
X137274114Y-89004874D02*
X137995932Y-89004874D01*
D43*
X140601606Y-88500000D02*
X140460792Y-88640814D01*
D41*
X140503873Y-88683895D02*
X140460792Y-88640814D01*
D43*
X147500000Y-96675000D02*
X143500000Y-92675000D01*
D41*
X140503873Y-90019379D02*
X140503873Y-88683895D01*
D43*
%TO.N,/VBATT_CHARGE*%
X83000000Y-102500000D02*
X82500000Y-102500000D01*
X78460000Y-98460000D02*
X74500000Y-98460000D01*
X82500000Y-102500000D02*
X78460000Y-98460000D01*
D40*
%TO.N,/5V_SW_1_EN*%
X92156439Y-98156439D02*
X92156439Y-98843561D01*
X89446503Y-113297400D02*
X92241797Y-113297400D01*
X88950000Y-102050000D02*
X88950000Y-112800897D01*
X92156439Y-98843561D02*
X88950000Y-102050000D01*
X92241797Y-113297400D02*
X92541797Y-112997400D01*
X88950000Y-112800897D02*
X89446503Y-113297400D01*
%TO.N,/5V_SW_2_EN*%
X92463879Y-105117181D02*
X91882819Y-105117181D01*
X102690000Y-64500000D02*
X104290000Y-62900000D01*
X91882819Y-105117181D02*
X91000000Y-106000000D01*
X99000000Y-64500000D02*
X102690000Y-64500000D01*
D39*
%TO.N,/TGATE*%
X102712500Y-93137500D02*
X102712500Y-97500000D01*
X105500000Y-90350000D02*
X102712500Y-93137500D01*
%TO.N,/BGATE*%
X100500000Y-97000000D02*
X101000000Y-97500000D01*
X100500000Y-91000000D02*
X100500000Y-97000000D01*
D40*
%TO.N,/PERIPH_EN*%
X94045508Y-120905000D02*
X94090432Y-120949924D01*
X92525000Y-120905000D02*
X94045508Y-120905000D01*
%TO.N,/CS_SOL3_VIN+*%
X143098934Y-96550000D02*
X143610742Y-97061808D01*
X137975000Y-99095000D02*
X140481617Y-96588383D01*
X140481617Y-96588383D02*
X140481617Y-96550000D01*
X140481617Y-96550000D02*
X143098934Y-96550000D01*
%TO.N,/CS_SOL3_VIN-*%
X137975000Y-100365000D02*
X138566617Y-100365000D01*
X140481617Y-98450000D02*
X140950000Y-98450000D01*
X138566617Y-100365000D02*
X140481617Y-98450000D01*
X140950000Y-98450000D02*
X142746316Y-100246316D01*
X142746316Y-100246316D02*
X143609037Y-100246316D01*
%TO.N,/CS_SOL4_VIN+*%
X117765854Y-111844025D02*
X117765854Y-111221636D01*
X117765854Y-111221636D02*
X120283465Y-108704025D01*
X122903146Y-108704025D02*
X123517696Y-109318575D01*
X120283465Y-108704025D02*
X122903146Y-108704025D01*
%TO.N,/CS_SOL4_VIN-*%
X117765854Y-113114025D02*
X118740853Y-113114025D01*
X121420158Y-110604025D02*
X123555384Y-112739251D01*
X120283465Y-111571413D02*
X120283465Y-110604025D01*
X120283465Y-110604025D02*
X121420158Y-110604025D01*
X118740853Y-113114025D02*
X120283465Y-111571413D01*
D43*
%TO.N,Net-(D8-A)*%
X109000000Y-132500000D02*
X109000000Y-131000000D01*
X121850000Y-120250000D02*
X123000000Y-119100000D01*
X109000000Y-131000000D02*
X119750000Y-120250000D01*
D40*
X109000000Y-132500000D02*
X106357235Y-132500000D01*
X106357235Y-132500000D02*
X105574983Y-131717748D01*
D43*
X119750000Y-120250000D02*
X121850000Y-120250000D01*
%TO.N,Net-(D9-A)*%
X120500000Y-119100000D02*
X119400000Y-119100000D01*
X94192032Y-128000000D02*
X90000000Y-128000000D01*
X89500000Y-127500000D02*
X89500000Y-126412500D01*
D40*
X86412500Y-127000000D02*
X86412500Y-126587500D01*
X86412500Y-127000000D02*
X87000000Y-127000000D01*
X87000000Y-127000000D02*
X87587500Y-126412500D01*
D43*
X97050000Y-125142032D02*
X94192032Y-128000000D01*
X90000000Y-128000000D02*
X89500000Y-127500000D01*
X119400000Y-119100000D02*
X113357968Y-125142032D01*
D40*
X87587500Y-126412500D02*
X89500000Y-126412500D01*
D43*
X113357968Y-125142032D02*
X97050000Y-125142032D01*
D40*
%TO.N,Net-(D10-A)*%
X146757661Y-100246316D02*
X147347869Y-99656108D01*
D43*
X148979039Y-101161411D02*
X148438589Y-101161411D01*
D40*
X147347869Y-99656108D02*
X148979039Y-99656108D01*
X145434037Y-100246316D02*
X146757661Y-100246316D01*
D41*
X148979039Y-99656108D02*
X148979039Y-101161411D01*
D43*
X148438589Y-101161411D02*
X130500000Y-119100000D01*
D41*
%TO.N,Net-(D11-A)*%
X128800740Y-111865718D02*
X128800740Y-113284277D01*
D40*
X126255275Y-112739251D02*
X127128808Y-111865718D01*
D41*
X125500000Y-116668901D02*
X125500000Y-119100000D01*
X128800740Y-113284277D02*
X128842682Y-113326219D01*
X128842682Y-113326219D02*
X127834451Y-114334451D01*
X127834451Y-114334451D02*
X125500000Y-116668901D01*
D40*
X125380384Y-112739251D02*
X126255275Y-112739251D01*
X127128808Y-111865718D02*
X128800740Y-111865718D01*
D41*
%TO.N,Net-(D12-A)*%
X140503873Y-91844379D02*
X140503873Y-93207307D01*
D43*
X130050740Y-117049260D02*
X136000000Y-111100000D01*
X128000000Y-119100000D02*
X130050740Y-117049260D01*
X136711180Y-97000000D02*
X140503872Y-93207308D01*
D40*
X138570384Y-92322218D02*
X139048223Y-91844379D01*
D43*
X136000000Y-111100000D02*
X136000000Y-101500000D01*
D40*
X137311163Y-92322218D02*
X138570384Y-92322218D01*
D43*
X136000000Y-97000000D02*
X136711180Y-97000000D01*
D41*
X140503873Y-93207307D02*
X140503872Y-93207308D01*
D40*
X139048223Y-91844379D02*
X140503873Y-91844379D01*
%TO.N,/SCL*%
X92563109Y-134374194D02*
X93923808Y-135734893D01*
X122400000Y-91100000D02*
X137000000Y-76500000D01*
X137000000Y-63210000D02*
X137310000Y-62900000D01*
X111845975Y-115654025D02*
X112815854Y-115654025D01*
X122900850Y-95249379D02*
X122400000Y-94748529D01*
X93923808Y-135734893D02*
X103765107Y-135734893D01*
X103765107Y-135734893D02*
X106000000Y-133500000D01*
X124528873Y-95249379D02*
X122900850Y-95249379D01*
X131368768Y-102958016D02*
X132971984Y-102958016D01*
X113345975Y-115654025D02*
X115000000Y-114000000D01*
X132971984Y-102958016D02*
X133025000Y-102905000D01*
X77994194Y-134374194D02*
X73525000Y-129905000D01*
X124500000Y-95278252D02*
X124528873Y-95249379D01*
X124500000Y-96000000D02*
X124500000Y-95278252D01*
X122400000Y-94748529D02*
X122400000Y-91100000D01*
X137000000Y-76500000D02*
X137000000Y-63210000D01*
X112815854Y-115654025D02*
X113345975Y-115654025D01*
X111000000Y-116500000D02*
X111845975Y-115654025D01*
X92563109Y-134374194D02*
X77994194Y-134374194D01*
%TO.N,/SDA*%
X124528873Y-93979379D02*
X123520621Y-93979379D01*
X96000000Y-95000000D02*
X96771237Y-95000000D01*
X123253873Y-91094657D02*
X134174265Y-80174265D01*
X96850000Y-128650000D02*
X98000000Y-127500000D01*
X123253873Y-92409378D02*
X123253873Y-91094657D01*
X73525000Y-127365000D02*
X73525000Y-128635000D01*
X108614025Y-113114025D02*
X105500000Y-110000000D01*
X133025000Y-101635000D02*
X133025000Y-100365000D01*
X134175917Y-76629362D02*
X134770000Y-76035279D01*
X132931511Y-101728489D02*
X133025000Y-101635000D01*
X112815854Y-113114025D02*
X114614806Y-113114025D01*
X123553874Y-92709379D02*
X123253873Y-92409378D01*
X92563109Y-133104194D02*
X92563109Y-131834194D01*
X90229457Y-130770543D02*
X92350000Y-128650000D01*
X112815854Y-113114025D02*
X108614025Y-113114025D01*
X90229457Y-130770543D02*
X88763915Y-129305000D01*
X134770000Y-76035279D02*
X134770000Y-62900000D01*
X114614806Y-113114025D02*
X114672561Y-113056270D01*
X131226803Y-101728489D02*
X132931511Y-101728489D01*
X75465000Y-129305000D02*
X73525000Y-127365000D01*
X96771237Y-95000000D02*
X97406237Y-95635000D01*
X123520621Y-93979379D02*
X123000000Y-94500000D01*
X124528873Y-92709379D02*
X124528873Y-93979379D01*
X88763915Y-129305000D02*
X75465000Y-129305000D01*
X92350000Y-128650000D02*
X96850000Y-128650000D01*
X124528873Y-92709379D02*
X123553874Y-92709379D01*
X97406237Y-95635000D02*
X97406237Y-94365000D01*
X92563109Y-133104194D02*
X90229457Y-130770543D01*
X112815854Y-113114025D02*
X112815854Y-114384025D01*
%TO.N,/CS_SOL2_VIN+*%
X100029276Y-128118926D02*
X97584008Y-130564194D01*
X97584008Y-130564194D02*
X97513109Y-130564194D01*
X100410326Y-128499976D02*
X100029276Y-128118926D01*
X103749982Y-128499976D02*
X100410326Y-128499976D01*
%TO.N,/CS_SOL2_VIN-*%
X101728098Y-131717748D02*
X100029276Y-130018926D01*
X103749983Y-131717748D02*
X101728098Y-131717748D01*
X100029276Y-130018926D02*
X98214008Y-131834194D01*
X98214008Y-131834194D02*
X97513109Y-131834194D01*
%TO.N,/CS_SOL1_VIN+*%
X84276240Y-123428812D02*
X84582285Y-123734857D01*
X80851126Y-123428812D02*
X84276240Y-123428812D01*
X78475000Y-125804938D02*
X78475000Y-126095000D01*
X80851126Y-123428812D02*
X78475000Y-125804938D01*
%TO.N,/CS_SOL1_VIN-*%
X80851126Y-125828812D02*
X79314938Y-127365000D01*
X82916312Y-125328812D02*
X84587500Y-127000000D01*
X80851126Y-125328812D02*
X82916312Y-125328812D01*
X80851126Y-125328812D02*
X80851126Y-125828812D01*
X79314938Y-127365000D02*
X78475000Y-127365000D01*
%TO.N,/CS_SOL5_VIN-*%
X134031712Y-92322218D02*
X132003873Y-90294379D01*
X132003873Y-90294379D02*
X132003873Y-90794379D01*
X132003873Y-90794379D02*
X130088873Y-92709379D01*
X130088873Y-92709379D02*
X129478873Y-92709379D01*
X135486163Y-92322218D02*
X134031712Y-92322218D01*
%TO.N,/CS_SOL5_VIN+*%
X132003873Y-88394379D02*
X134838619Y-88394379D01*
X132003873Y-88394379D02*
X129478873Y-90919379D01*
X134838619Y-88394379D02*
X135449114Y-89004874D01*
X129478873Y-90919379D02*
X129478873Y-91439379D01*
%TO.N,Net-(U21-IN+)*%
X89393206Y-98987523D02*
X89933489Y-98447240D01*
X86589963Y-98987523D02*
X89393206Y-98987523D01*
X90913997Y-98447240D02*
X92456237Y-96905000D01*
X89933489Y-98447240D02*
X90913997Y-98447240D01*
%TO.N,Net-(U21-IN-)*%
X86624477Y-95857924D02*
X89244173Y-95857924D01*
X89933489Y-96547240D02*
X90845729Y-95635000D01*
X89244173Y-95857924D02*
X89933489Y-96547240D01*
X90845729Y-95635000D02*
X92456237Y-95635000D01*
D43*
%TO.N,/SOLAR_PRE_INH*%
X130500000Y-121900000D02*
X120500000Y-121900000D01*
X120500000Y-121900000D02*
X120100000Y-121900000D01*
X120100000Y-121900000D02*
X118500000Y-123500000D01*
%TD*%
%TA.AperFunction,Conductor*%
%TO.N,GND*%
G36*
X121000000Y-77293774D02*
G01*
X120932853Y-77303429D01*
X120869297Y-77274404D01*
X120862819Y-77268372D01*
X120700500Y-77106053D01*
X120480303Y-77326250D01*
X120700499Y-77546446D01*
X120871513Y-77375433D01*
X120932836Y-77341948D01*
X121000000Y-77346751D01*
X121000000Y-78449005D01*
X120957718Y-78460876D01*
X120890918Y-78440395D01*
X120871513Y-78424566D01*
X120700500Y-78253553D01*
X120480303Y-78473750D01*
X120700500Y-78693947D01*
X120862819Y-78531628D01*
X120924142Y-78498143D01*
X120993834Y-78503127D01*
X121000000Y-78507742D01*
X121000000Y-79101551D01*
X120700500Y-79401053D01*
X120355522Y-79746028D01*
X120362113Y-79750169D01*
X120362116Y-79750170D01*
X120526960Y-79807851D01*
X120700496Y-79827404D01*
X120700502Y-79827404D01*
X120862116Y-79809194D01*
X120930938Y-79821248D01*
X120982317Y-79868597D01*
X121000000Y-79932414D01*
X121000000Y-81000000D01*
X121876000Y-81000000D01*
X121943039Y-81019685D01*
X121988794Y-81072489D01*
X122000000Y-81124000D01*
X122000000Y-81494977D01*
X121980315Y-81562016D01*
X121927511Y-81607771D01*
X121858353Y-81617715D01*
X121794797Y-81588690D01*
X121788319Y-81582658D01*
X121768345Y-81562684D01*
X121619124Y-81470643D01*
X121619119Y-81470641D01*
X121452697Y-81415494D01*
X121452690Y-81415493D01*
X121349986Y-81405000D01*
X121300000Y-81405000D01*
X121300000Y-82756000D01*
X121280315Y-82823039D01*
X121227511Y-82868794D01*
X121176000Y-82880000D01*
X120050001Y-82880000D01*
X120050001Y-83154986D01*
X120060494Y-83257697D01*
X120115641Y-83424119D01*
X120115643Y-83424124D01*
X120207684Y-83573345D01*
X120331654Y-83697315D01*
X120450242Y-83770461D01*
X120496966Y-83822409D01*
X120508189Y-83891372D01*
X120480345Y-83955454D01*
X120422276Y-83994310D01*
X120385145Y-84000000D01*
X118500000Y-84000000D01*
X118500000Y-84369503D01*
X118480315Y-84436542D01*
X118427511Y-84482297D01*
X118358353Y-84492241D01*
X118336996Y-84487209D01*
X118174266Y-84433285D01*
X118174259Y-84433284D01*
X118071555Y-84422791D01*
X118009069Y-84422791D01*
X118009069Y-86822790D01*
X118071541Y-86822790D01*
X118071555Y-86822789D01*
X118174264Y-86812297D01*
X118336995Y-86758372D01*
X118406823Y-86755970D01*
X118466866Y-86791701D01*
X118498059Y-86854221D01*
X118500000Y-86876078D01*
X118500000Y-87376000D01*
X118480315Y-87443039D01*
X118427511Y-87488794D01*
X118376000Y-87500000D01*
X113624000Y-87500000D01*
X113556961Y-87480315D01*
X113511206Y-87427511D01*
X113500000Y-87376000D01*
X113500000Y-86122777D01*
X116746570Y-86122777D01*
X116757063Y-86225488D01*
X116812210Y-86391910D01*
X116812212Y-86391915D01*
X116904253Y-86541136D01*
X117028223Y-86665106D01*
X117177444Y-86757147D01*
X117177449Y-86757149D01*
X117343871Y-86812296D01*
X117343878Y-86812297D01*
X117446588Y-86822790D01*
X117509068Y-86822789D01*
X117509069Y-86822789D01*
X117509069Y-85872791D01*
X116746570Y-85872791D01*
X116746570Y-86122777D01*
X113500000Y-86122777D01*
X113500000Y-85122804D01*
X116746569Y-85122804D01*
X116746569Y-85372791D01*
X117509069Y-85372791D01*
X117509069Y-84422791D01*
X117509068Y-84422790D01*
X117446597Y-84422791D01*
X117446580Y-84422792D01*
X117343871Y-84433285D01*
X117177449Y-84488432D01*
X117177444Y-84488434D01*
X117028223Y-84580475D01*
X116904253Y-84704445D01*
X116812212Y-84853666D01*
X116812210Y-84853671D01*
X116757063Y-85020093D01*
X116757062Y-85020100D01*
X116746569Y-85122804D01*
X113500000Y-85122804D01*
X113500000Y-82329986D01*
X114275001Y-82329986D01*
X114285494Y-82432697D01*
X114340641Y-82599119D01*
X114340643Y-82599124D01*
X114432684Y-82748345D01*
X114556654Y-82872315D01*
X114705875Y-82964356D01*
X114705880Y-82964358D01*
X114872302Y-83019505D01*
X114872309Y-83019506D01*
X114975019Y-83029999D01*
X115249999Y-83029999D01*
X115750000Y-83029999D01*
X116024972Y-83029999D01*
X116024986Y-83029998D01*
X116127697Y-83019505D01*
X116294119Y-82964358D01*
X116294124Y-82964356D01*
X116443345Y-82872315D01*
X116567315Y-82748345D01*
X116659356Y-82599124D01*
X116659358Y-82599119D01*
X116714505Y-82432697D01*
X116714506Y-82432690D01*
X116724999Y-82329986D01*
X116725000Y-82329973D01*
X116725000Y-82280000D01*
X115750000Y-82280000D01*
X115750000Y-83029999D01*
X115249999Y-83029999D01*
X115250000Y-83029998D01*
X115250000Y-82280000D01*
X114275001Y-82280000D01*
X114275001Y-82329986D01*
X113500000Y-82329986D01*
X113500000Y-82105013D01*
X120050000Y-82105013D01*
X120050000Y-82380000D01*
X120800000Y-82380000D01*
X120800000Y-81405000D01*
X120799999Y-81404999D01*
X120750029Y-81405000D01*
X120750011Y-81405001D01*
X120647302Y-81415494D01*
X120480880Y-81470641D01*
X120480875Y-81470643D01*
X120331654Y-81562684D01*
X120207684Y-81686654D01*
X120115643Y-81835875D01*
X120115641Y-81835880D01*
X120060494Y-82002302D01*
X120060493Y-82002309D01*
X120050000Y-82105013D01*
X113500000Y-82105013D01*
X113500000Y-81124000D01*
X113519685Y-81056961D01*
X113572489Y-81011206D01*
X113624000Y-81000000D01*
X114444977Y-81000000D01*
X114512016Y-81019685D01*
X114557771Y-81072489D01*
X114567715Y-81141647D01*
X114538690Y-81205203D01*
X114532658Y-81211681D01*
X114432684Y-81311654D01*
X114340643Y-81460875D01*
X114340641Y-81460880D01*
X114285494Y-81627302D01*
X114285493Y-81627309D01*
X114275000Y-81730013D01*
X114275000Y-81780000D01*
X116724999Y-81780000D01*
X116724999Y-81730028D01*
X116724998Y-81730013D01*
X116714505Y-81627302D01*
X116659358Y-81460880D01*
X116659356Y-81460875D01*
X116567315Y-81311654D01*
X116467342Y-81211681D01*
X116433857Y-81150358D01*
X116438841Y-81080666D01*
X116480713Y-81024733D01*
X116546177Y-81000316D01*
X116555023Y-81000000D01*
X117000000Y-81000000D01*
X117000000Y-80387979D01*
X117019685Y-80320940D01*
X117072489Y-80275185D01*
X117141647Y-80265241D01*
X117171454Y-80273419D01*
X117199891Y-80285198D01*
X117199895Y-80285199D01*
X117312302Y-80299999D01*
X117312317Y-80300000D01*
X117850000Y-80300000D01*
X117850000Y-79800000D01*
X118150000Y-79800000D01*
X118150000Y-80300000D01*
X118687683Y-80300000D01*
X118687697Y-80299999D01*
X118800104Y-80285199D01*
X118800108Y-80285198D01*
X118939978Y-80227263D01*
X119060094Y-80135094D01*
X119152263Y-80014978D01*
X119210197Y-79875111D01*
X119210581Y-79873680D01*
X119211234Y-79872607D01*
X119213310Y-79867597D01*
X119214091Y-79867920D01*
X119246944Y-79814019D01*
X119309790Y-79783487D01*
X119371313Y-79788729D01*
X119425961Y-79807851D01*
X119425958Y-79807851D01*
X119599496Y-79827404D01*
X119599504Y-79827404D01*
X119773038Y-79807851D01*
X119937885Y-79750169D01*
X119937889Y-79750167D01*
X119944475Y-79746028D01*
X119944475Y-79746027D01*
X119599500Y-79401053D01*
X119250559Y-79749994D01*
X119250460Y-79749895D01*
X119227931Y-79777855D01*
X119161637Y-79799921D01*
X119157209Y-79800000D01*
X118150000Y-79800000D01*
X117850000Y-79800000D01*
X117850000Y-79624000D01*
X117869685Y-79556961D01*
X117922489Y-79511206D01*
X117974000Y-79500000D01*
X118895173Y-79500000D01*
X118902382Y-79482593D01*
X118898506Y-79475494D01*
X118903490Y-79405802D01*
X118931991Y-79361455D01*
X119245946Y-79047499D01*
X119229146Y-79030699D01*
X119224743Y-79022636D01*
X119474500Y-79022636D01*
X119474500Y-79072364D01*
X119493530Y-79118307D01*
X119528693Y-79153470D01*
X119574636Y-79172500D01*
X119624364Y-79172500D01*
X119670307Y-79153470D01*
X119705470Y-79118307D01*
X119724500Y-79072364D01*
X119724500Y-79047500D01*
X119953053Y-79047500D01*
X120150000Y-79244447D01*
X120346947Y-79047500D01*
X120322083Y-79022636D01*
X120575500Y-79022636D01*
X120575500Y-79072364D01*
X120594530Y-79118307D01*
X120629693Y-79153470D01*
X120675636Y-79172500D01*
X120725364Y-79172500D01*
X120771307Y-79153470D01*
X120806470Y-79118307D01*
X120825500Y-79072364D01*
X120825500Y-79022636D01*
X120806470Y-78976693D01*
X120771307Y-78941530D01*
X120725364Y-78922500D01*
X120675636Y-78922500D01*
X120629693Y-78941530D01*
X120594530Y-78976693D01*
X120575500Y-79022636D01*
X120322083Y-79022636D01*
X120150000Y-78850553D01*
X119953053Y-79047500D01*
X119724500Y-79047500D01*
X119724500Y-79022636D01*
X119705470Y-78976693D01*
X119670307Y-78941530D01*
X119624364Y-78922500D01*
X119574636Y-78922500D01*
X119528693Y-78941530D01*
X119493530Y-78976693D01*
X119474500Y-79022636D01*
X119224743Y-79022636D01*
X119195661Y-78969376D01*
X119200645Y-78899684D01*
X119202267Y-78895563D01*
X119206334Y-78885745D01*
X119210687Y-78875236D01*
X119225500Y-78762720D01*
X119225500Y-78619309D01*
X119245185Y-78552270D01*
X119297989Y-78506515D01*
X119367147Y-78496571D01*
X119430703Y-78525596D01*
X119437181Y-78531628D01*
X119599500Y-78693947D01*
X119819697Y-78473750D01*
X119599500Y-78253553D01*
X119428486Y-78424566D01*
X119367163Y-78458051D01*
X119297471Y-78453067D01*
X119241538Y-78411195D01*
X119217121Y-78345731D01*
X119217865Y-78320708D01*
X119225500Y-78262720D01*
X119225500Y-78037280D01*
X119219889Y-77994664D01*
X119230653Y-77925633D01*
X119245947Y-77903884D01*
X119245947Y-77892351D01*
X119236547Y-77875136D01*
X119474500Y-77875136D01*
X119474500Y-77924864D01*
X119493530Y-77970807D01*
X119528693Y-78005970D01*
X119574636Y-78025000D01*
X119624364Y-78025000D01*
X119670307Y-78005970D01*
X119705470Y-77970807D01*
X119724500Y-77924864D01*
X119724500Y-77900000D01*
X119953053Y-77900000D01*
X120150000Y-78096947D01*
X120346947Y-77900000D01*
X120322083Y-77875136D01*
X120575500Y-77875136D01*
X120575500Y-77924864D01*
X120594530Y-77970807D01*
X120629693Y-78005970D01*
X120675636Y-78025000D01*
X120725364Y-78025000D01*
X120771307Y-78005970D01*
X120806470Y-77970807D01*
X120825500Y-77924864D01*
X120825500Y-77875136D01*
X120806470Y-77829193D01*
X120771307Y-77794030D01*
X120725364Y-77775000D01*
X120675636Y-77775000D01*
X120629693Y-77794030D01*
X120594530Y-77829193D01*
X120575500Y-77875136D01*
X120322083Y-77875136D01*
X120150000Y-77703053D01*
X119953053Y-77900000D01*
X119724500Y-77900000D01*
X119724500Y-77875136D01*
X119705470Y-77829193D01*
X119670307Y-77794030D01*
X119624364Y-77775000D01*
X119574636Y-77775000D01*
X119528693Y-77794030D01*
X119493530Y-77829193D01*
X119474500Y-77875136D01*
X119236547Y-77875136D01*
X119221662Y-77847877D01*
X119219889Y-77805337D01*
X119225500Y-77762720D01*
X119225500Y-77537280D01*
X119217866Y-77479297D01*
X119228631Y-77410266D01*
X119275010Y-77358009D01*
X119342279Y-77339123D01*
X119409080Y-77359603D01*
X119428486Y-77375433D01*
X119599500Y-77546447D01*
X119819697Y-77326250D01*
X119599500Y-77106053D01*
X119437181Y-77268372D01*
X119375858Y-77301857D01*
X119306166Y-77296873D01*
X119250233Y-77255001D01*
X119225816Y-77189537D01*
X119225500Y-77180691D01*
X119225500Y-77037286D01*
X119225500Y-77037280D01*
X119220592Y-77000000D01*
X121000000Y-77000000D01*
X121000000Y-77293774D01*
G37*
%TD.AperFunction*%
%TD*%
%TA.AperFunction,Conductor*%
%TO.N,GND*%
G36*
X103874288Y-112360642D02*
G01*
X103920043Y-112413446D01*
X103931249Y-112464957D01*
X103931249Y-113590956D01*
X104206221Y-113590956D01*
X104206235Y-113590955D01*
X104308946Y-113580462D01*
X104475368Y-113525315D01*
X104475373Y-113525313D01*
X104624594Y-113433272D01*
X104748566Y-113309300D01*
X104770461Y-113273803D01*
X104822408Y-113227078D01*
X104891371Y-113215855D01*
X104955453Y-113243698D01*
X104994310Y-113301767D01*
X105000000Y-113338899D01*
X105000000Y-113876000D01*
X104980315Y-113943039D01*
X104927511Y-113988794D01*
X104876000Y-114000000D01*
X102284265Y-114000000D01*
X102217226Y-113980315D01*
X102171471Y-113927511D01*
X102161527Y-113858353D01*
X102190552Y-113794797D01*
X102219169Y-113770461D01*
X102274618Y-113736260D01*
X102398674Y-113612204D01*
X102490776Y-113462882D01*
X102496418Y-113445853D01*
X102536187Y-113388409D01*
X102600702Y-113361584D01*
X102669478Y-113373896D01*
X102701805Y-113397174D01*
X102737903Y-113433272D01*
X102887124Y-113525313D01*
X102887129Y-113525315D01*
X103053551Y-113580462D01*
X103053558Y-113580463D01*
X103156268Y-113590956D01*
X103431248Y-113590956D01*
X103431249Y-113590955D01*
X103431249Y-112464957D01*
X103450934Y-112397918D01*
X103503738Y-112352163D01*
X103555249Y-112340957D01*
X103807249Y-112340957D01*
X103874288Y-112360642D01*
G37*
%TD.AperFunction*%
%TA.AperFunction,Conductor*%
G36*
X95002765Y-112397585D02*
G01*
X95048520Y-112450389D01*
X95058464Y-112519547D01*
X95029439Y-112583103D01*
X95023407Y-112589581D01*
X94213129Y-113399859D01*
X94151806Y-113433344D01*
X94082114Y-113428360D01*
X94026181Y-113386488D01*
X94001764Y-113321024D01*
X94006371Y-113277586D01*
X94014395Y-113249969D01*
X94017297Y-113213094D01*
X94017297Y-112781706D01*
X94014395Y-112744831D01*
X94014394Y-112744826D01*
X93968543Y-112587007D01*
X93968541Y-112587005D01*
X93968541Y-112587002D01*
X93955540Y-112565018D01*
X93938358Y-112497298D01*
X93960517Y-112431035D01*
X94014983Y-112387272D01*
X94062273Y-112377900D01*
X94935726Y-112377900D01*
X95002765Y-112397585D01*
G37*
%TD.AperFunction*%
%TA.AperFunction,Conductor*%
G36*
X96010722Y-109520185D02*
G01*
X96056477Y-109572989D01*
X96062759Y-109589903D01*
X96065051Y-109597794D01*
X96065052Y-109597796D01*
X96065053Y-109597798D01*
X96078053Y-109619781D01*
X96095236Y-109687502D01*
X96073077Y-109753765D01*
X96018611Y-109797528D01*
X95971321Y-109806900D01*
X94062273Y-109806900D01*
X93995234Y-109787215D01*
X93949479Y-109734411D01*
X93939535Y-109665253D01*
X93955539Y-109619782D01*
X93968541Y-109597798D01*
X93970835Y-109589903D01*
X94008442Y-109531018D01*
X94071915Y-109501813D01*
X94089911Y-109500500D01*
X95943683Y-109500500D01*
X96010722Y-109520185D01*
G37*
%TD.AperFunction*%
%TD*%
%TA.AperFunction,Conductor*%
%TO.N,GND*%
G36*
X100459558Y-102185400D02*
G01*
X100503905Y-102213901D01*
X100535832Y-102245828D01*
X100535836Y-102245831D01*
X100678928Y-102334092D01*
X100678931Y-102334093D01*
X100678937Y-102334097D01*
X100838539Y-102386984D01*
X100848407Y-102387992D01*
X100913099Y-102414386D01*
X100953252Y-102471566D01*
X100959807Y-102511350D01*
X100959807Y-103560512D01*
X100940122Y-103627551D01*
X100900907Y-103666049D01*
X100879153Y-103679467D01*
X100785134Y-103773486D01*
X100723810Y-103806970D01*
X100654119Y-103801986D01*
X100609772Y-103773485D01*
X100516152Y-103679865D01*
X100366931Y-103587824D01*
X100366926Y-103587822D01*
X100200504Y-103532675D01*
X100200497Y-103532674D01*
X100097793Y-103522181D01*
X100035307Y-103522181D01*
X100035307Y-105922180D01*
X100097779Y-105922180D01*
X100097793Y-105922179D01*
X100200504Y-105911686D01*
X100366926Y-105856539D01*
X100366931Y-105856537D01*
X100516149Y-105764498D01*
X100609771Y-105670876D01*
X100671094Y-105637391D01*
X100740786Y-105642375D01*
X100785134Y-105670876D01*
X100879151Y-105764893D01*
X101028473Y-105856995D01*
X101195010Y-105912180D01*
X101297798Y-105922681D01*
X101692985Y-105922680D01*
X101760023Y-105942364D01*
X101805778Y-105995168D01*
X101815722Y-106064327D01*
X101797978Y-106112651D01*
X101774212Y-106150474D01*
X101714631Y-106320745D01*
X101714630Y-106320749D01*
X101706842Y-106389883D01*
X101679776Y-106454297D01*
X101622182Y-106493852D01*
X101583622Y-106500000D01*
X93347897Y-106500000D01*
X93280858Y-106480315D01*
X93235103Y-106427511D01*
X93225159Y-106358353D01*
X93230855Y-106335046D01*
X93285367Y-106179257D01*
X93285369Y-106179250D01*
X93303331Y-106019824D01*
X93330397Y-105955410D01*
X93387992Y-105915855D01*
X93391896Y-105914648D01*
X93549277Y-105868925D01*
X93690744Y-105785262D01*
X93806960Y-105669046D01*
X93890623Y-105527579D01*
X93927175Y-105401767D01*
X93936476Y-105369754D01*
X93936477Y-105369748D01*
X93936679Y-105367182D01*
X95941583Y-105367182D01*
X95941778Y-105369667D01*
X95987597Y-105527379D01*
X96071193Y-105668733D01*
X96071200Y-105668742D01*
X96187317Y-105784859D01*
X96187326Y-105784866D01*
X96328682Y-105868463D01*
X96328685Y-105868464D01*
X96486383Y-105914280D01*
X96486389Y-105914281D01*
X96523229Y-105917180D01*
X96523245Y-105917181D01*
X97163879Y-105917181D01*
X97163879Y-105367181D01*
X95941584Y-105367181D01*
X95941583Y-105367182D01*
X93936679Y-105367182D01*
X93939379Y-105332875D01*
X93939379Y-104901487D01*
X93936477Y-104864612D01*
X93890681Y-104706982D01*
X93890625Y-104706788D01*
X93890623Y-104706786D01*
X93890623Y-104706783D01*
X93877622Y-104684799D01*
X93860440Y-104617079D01*
X93882599Y-104550816D01*
X93937065Y-104507053D01*
X93984355Y-104497681D01*
X95893983Y-104497681D01*
X95961022Y-104517366D01*
X96006777Y-104570170D01*
X96016721Y-104639328D01*
X96000715Y-104684802D01*
X95987597Y-104706982D01*
X95941778Y-104864694D01*
X95941583Y-104867179D01*
X95941584Y-104867181D01*
X97539879Y-104867181D01*
X97606918Y-104886866D01*
X97652673Y-104939670D01*
X97663879Y-104991181D01*
X97663879Y-105917181D01*
X98304513Y-105917181D01*
X98304528Y-105917180D01*
X98341368Y-105914281D01*
X98341374Y-105914280D01*
X98499072Y-105868464D01*
X98499075Y-105868463D01*
X98640431Y-105784866D01*
X98640440Y-105784859D01*
X98756555Y-105668744D01*
X98758649Y-105666045D01*
X98760831Y-105664468D01*
X98762079Y-105663221D01*
X98762280Y-105663422D01*
X98815286Y-105625132D01*
X98885053Y-105621334D01*
X98944318Y-105654353D01*
X99054461Y-105764496D01*
X99203682Y-105856537D01*
X99203687Y-105856539D01*
X99370109Y-105911686D01*
X99370116Y-105911687D01*
X99472826Y-105922180D01*
X99535306Y-105922179D01*
X99535307Y-105922179D01*
X99535307Y-103522181D01*
X99535306Y-103522180D01*
X99472835Y-103522181D01*
X99472818Y-103522182D01*
X99370109Y-103532675D01*
X99203687Y-103587822D01*
X99203678Y-103587826D01*
X99071714Y-103669222D01*
X99004322Y-103687662D01*
X98937658Y-103666739D01*
X98892889Y-103613097D01*
X98887542Y-103598278D01*
X98840624Y-103436787D01*
X98840623Y-103436784D01*
X98840623Y-103436783D01*
X98756960Y-103295316D01*
X98756957Y-103295313D01*
X98752177Y-103289150D01*
X98754629Y-103287247D01*
X98728034Y-103238602D01*
X98732983Y-103168907D01*
X98753819Y-103136485D01*
X98752177Y-103135212D01*
X98756954Y-103129051D01*
X98756960Y-103129046D01*
X98840623Y-102987579D01*
X98886477Y-102829750D01*
X98889379Y-102792875D01*
X98889379Y-102423930D01*
X98909064Y-102356891D01*
X98961868Y-102311136D01*
X99031026Y-102301192D01*
X99078475Y-102318392D01*
X99103937Y-102334097D01*
X99263539Y-102386984D01*
X99362050Y-102397048D01*
X99362055Y-102397048D01*
X99895393Y-102397048D01*
X99895398Y-102397048D01*
X99993909Y-102386984D01*
X100153511Y-102334097D01*
X100296615Y-102245829D01*
X100328543Y-102213901D01*
X100389866Y-102180416D01*
X100459558Y-102185400D01*
G37*
%TD.AperFunction*%
%TA.AperFunction,Conductor*%
G36*
X103890846Y-104491866D02*
G01*
X103936601Y-104544670D01*
X103947807Y-104596181D01*
X103947807Y-105722180D01*
X104222779Y-105722180D01*
X104222793Y-105722179D01*
X104325504Y-105711686D01*
X104491926Y-105656539D01*
X104491931Y-105656537D01*
X104641152Y-105564496D01*
X104765122Y-105440526D01*
X104770460Y-105431873D01*
X104822407Y-105385147D01*
X104891370Y-105373924D01*
X104955452Y-105401767D01*
X104994309Y-105459835D01*
X105000000Y-105496968D01*
X105000000Y-106376000D01*
X104980315Y-106443039D01*
X104927511Y-106488794D01*
X104876000Y-106500000D01*
X103416378Y-106500000D01*
X103349339Y-106480315D01*
X103303584Y-106427511D01*
X103293158Y-106389883D01*
X103285369Y-106320749D01*
X103285368Y-106320745D01*
X103235859Y-106179257D01*
X103225789Y-106150478D01*
X103225786Y-106150474D01*
X103171657Y-106064327D01*
X103129816Y-105997738D01*
X103064473Y-105932395D01*
X103030988Y-105871072D01*
X103035972Y-105801380D01*
X103077844Y-105745447D01*
X103143308Y-105721030D01*
X103164763Y-105721357D01*
X103172824Y-105722180D01*
X103447806Y-105722180D01*
X103447807Y-105722179D01*
X103447807Y-104596181D01*
X103467492Y-104529142D01*
X103520296Y-104483387D01*
X103571807Y-104472181D01*
X103823807Y-104472181D01*
X103890846Y-104491866D01*
G37*
%TD.AperFunction*%
%TA.AperFunction,Conductor*%
G36*
X102515470Y-101020185D02*
G01*
X102536112Y-101036819D01*
X103010988Y-101511695D01*
X103044473Y-101573018D01*
X103047307Y-101599376D01*
X103047307Y-101750164D01*
X103027622Y-101817203D01*
X102974818Y-101862958D01*
X102962317Y-101867867D01*
X102903473Y-101887367D01*
X102903470Y-101887368D01*
X102754149Y-101979470D01*
X102630096Y-102103523D01*
X102537994Y-102252844D01*
X102537992Y-102252849D01*
X102502513Y-102359919D01*
X102462740Y-102417364D01*
X102398224Y-102444187D01*
X102329449Y-102431872D01*
X102278249Y-102384329D01*
X102260807Y-102320915D01*
X102260807Y-101764059D01*
X102235809Y-101638392D01*
X102235808Y-101638391D01*
X102235808Y-101638387D01*
X102186772Y-101520004D01*
X102162620Y-101483858D01*
X102141744Y-101417181D01*
X102141724Y-101414969D01*
X102141724Y-101124500D01*
X102161409Y-101057461D01*
X102214213Y-101011706D01*
X102265724Y-101000500D01*
X102448431Y-101000500D01*
X102515470Y-101020185D01*
G37*
%TD.AperFunction*%
%TA.AperFunction,Conductor*%
G36*
X95960442Y-101977366D02*
G01*
X96006197Y-102030170D01*
X96016141Y-102099328D01*
X96000135Y-102144799D01*
X95987712Y-102165806D01*
X95936643Y-102213487D01*
X95880983Y-102226681D01*
X94543627Y-102226681D01*
X94476588Y-102206996D01*
X94455946Y-102190362D01*
X94434946Y-102169362D01*
X94401461Y-102108039D01*
X94406445Y-102038347D01*
X94448317Y-101982414D01*
X94513781Y-101957997D01*
X94522627Y-101957681D01*
X95893403Y-101957681D01*
X95960442Y-101977366D01*
G37*
%TD.AperFunction*%
%TD*%
%TA.AperFunction,Conductor*%
%TO.N,GND*%
G36*
X101068331Y-117763852D02*
G01*
X101112680Y-117792353D01*
X101125681Y-117805354D01*
X101159166Y-117866677D01*
X101162000Y-117893035D01*
X101162000Y-119450270D01*
X101142315Y-119517309D01*
X101125682Y-119537949D01*
X101112328Y-119551304D01*
X101112324Y-119551308D01*
X101051000Y-119584790D01*
X100981308Y-119579803D01*
X100936965Y-119551304D01*
X100843345Y-119457684D01*
X100694124Y-119365643D01*
X100694119Y-119365641D01*
X100527697Y-119310494D01*
X100527690Y-119310493D01*
X100424986Y-119300000D01*
X100362500Y-119300000D01*
X100362500Y-121699999D01*
X100424972Y-121699999D01*
X100424986Y-121699998D01*
X100527697Y-121689505D01*
X100694119Y-121634358D01*
X100694124Y-121634356D01*
X100843342Y-121542317D01*
X100936964Y-121448695D01*
X100998287Y-121415210D01*
X101067979Y-121420194D01*
X101112327Y-121448695D01*
X101206344Y-121542712D01*
X101355666Y-121634814D01*
X101522203Y-121689999D01*
X101624991Y-121700500D01*
X102250008Y-121700499D01*
X102250016Y-121700498D01*
X102250019Y-121700498D01*
X102306934Y-121694684D01*
X102352797Y-121689999D01*
X102519334Y-121634814D01*
X102668656Y-121542712D01*
X102792712Y-121418656D01*
X102884814Y-121269334D01*
X102939999Y-121102797D01*
X102950500Y-121000009D01*
X102950499Y-120983595D01*
X102970180Y-120916559D01*
X103022982Y-120870801D01*
X103092140Y-120860854D01*
X103139596Y-120878054D01*
X103230875Y-120934356D01*
X103230880Y-120934358D01*
X103397302Y-120989505D01*
X103397309Y-120989506D01*
X103500019Y-120999999D01*
X103774999Y-120999999D01*
X104275000Y-120999999D01*
X104549972Y-120999999D01*
X104549986Y-120999998D01*
X104652697Y-120989505D01*
X104819119Y-120934358D01*
X104819124Y-120934356D01*
X104968345Y-120842315D01*
X105092315Y-120718345D01*
X105184356Y-120569124D01*
X105184358Y-120569119D01*
X105239505Y-120402697D01*
X105239506Y-120402690D01*
X105249999Y-120299986D01*
X105250000Y-120299973D01*
X105250000Y-120250000D01*
X104275000Y-120250000D01*
X104275000Y-120999999D01*
X103774999Y-120999999D01*
X103775000Y-120999998D01*
X103775000Y-119874000D01*
X103794685Y-119806961D01*
X103847489Y-119761206D01*
X103899000Y-119750000D01*
X105249999Y-119750000D01*
X105249999Y-119700028D01*
X105249998Y-119700013D01*
X105239505Y-119597302D01*
X105184358Y-119430880D01*
X105184356Y-119430875D01*
X105092315Y-119281654D01*
X104968344Y-119157683D01*
X104968341Y-119157681D01*
X104965339Y-119155829D01*
X104963713Y-119154021D01*
X104962677Y-119153202D01*
X104962817Y-119153024D01*
X104918617Y-119103880D01*
X104907397Y-119034917D01*
X104935243Y-118970836D01*
X104965344Y-118944754D01*
X104968656Y-118942712D01*
X105092712Y-118818656D01*
X105098420Y-118809402D01*
X105150368Y-118762678D01*
X105203958Y-118750500D01*
X105376000Y-118750500D01*
X105443039Y-118770185D01*
X105488794Y-118822989D01*
X105500000Y-118874500D01*
X105500000Y-121876000D01*
X105480315Y-121943039D01*
X105427511Y-121988794D01*
X105376000Y-122000000D01*
X96324500Y-122000000D01*
X96257461Y-121980315D01*
X96211706Y-121927511D01*
X96200500Y-121876000D01*
X96200500Y-121761723D01*
X96220185Y-121694684D01*
X96272989Y-121648929D01*
X96342147Y-121638985D01*
X96382624Y-121653234D01*
X96382646Y-121653185D01*
X96383349Y-121653489D01*
X96387629Y-121654996D01*
X96389806Y-121656283D01*
X96547504Y-121702099D01*
X96547510Y-121702100D01*
X96584350Y-121704999D01*
X96584366Y-121705000D01*
X97225000Y-121705000D01*
X97225000Y-120779000D01*
X97244685Y-120711961D01*
X97297489Y-120666206D01*
X97349000Y-120655000D01*
X97601000Y-120655000D01*
X97668039Y-120674685D01*
X97713794Y-120727489D01*
X97725000Y-120779000D01*
X97725000Y-121705000D01*
X98365634Y-121705000D01*
X98365649Y-121704999D01*
X98402489Y-121702100D01*
X98402495Y-121702099D01*
X98560193Y-121656283D01*
X98560196Y-121656282D01*
X98701552Y-121572685D01*
X98701561Y-121572678D01*
X98817678Y-121456561D01*
X98817685Y-121456552D01*
X98901281Y-121315197D01*
X98920615Y-121248652D01*
X98958222Y-121189766D01*
X99021694Y-121160559D01*
X99090881Y-121170305D01*
X99143815Y-121215908D01*
X99157398Y-121244242D01*
X99165641Y-121269119D01*
X99165643Y-121269124D01*
X99257684Y-121418345D01*
X99381654Y-121542315D01*
X99530875Y-121634356D01*
X99530880Y-121634358D01*
X99697302Y-121689505D01*
X99697309Y-121689506D01*
X99800019Y-121699999D01*
X99862499Y-121699998D01*
X99862500Y-121699998D01*
X99862500Y-119300000D01*
X99862499Y-119299999D01*
X99800028Y-119300000D01*
X99800011Y-119300001D01*
X99697302Y-119310494D01*
X99530880Y-119365641D01*
X99530875Y-119365643D01*
X99381654Y-119457684D01*
X99257683Y-119581655D01*
X99257680Y-119581659D01*
X99180038Y-119707537D01*
X99128091Y-119754262D01*
X99059128Y-119765483D01*
X98995046Y-119737640D01*
X98956190Y-119679571D01*
X98950500Y-119642440D01*
X98950500Y-119419313D01*
X98950499Y-119419298D01*
X98947598Y-119382432D01*
X98947597Y-119382426D01*
X98901745Y-119224606D01*
X98901744Y-119224603D01*
X98901744Y-119224602D01*
X98818081Y-119083135D01*
X98818078Y-119083132D01*
X98813298Y-119076969D01*
X98815750Y-119075066D01*
X98789155Y-119026421D01*
X98794104Y-118956726D01*
X98814940Y-118924304D01*
X98813298Y-118923031D01*
X98818075Y-118916870D01*
X98818081Y-118916865D01*
X98850299Y-118862387D01*
X98901368Y-118814704D01*
X98970109Y-118802200D01*
X98970915Y-118802288D01*
X98999998Y-118805565D01*
X99000000Y-118805565D01*
X99000004Y-118805565D01*
X99179249Y-118785369D01*
X99179252Y-118785368D01*
X99179255Y-118785368D01*
X99349522Y-118725789D01*
X99502262Y-118629816D01*
X99629816Y-118502262D01*
X99699039Y-118392092D01*
X99716351Y-118370384D01*
X99718020Y-118368716D01*
X99718021Y-118368713D01*
X99728223Y-118358512D01*
X99728226Y-118358507D01*
X100074916Y-118011819D01*
X100136239Y-117978334D01*
X100162597Y-117975500D01*
X100504169Y-117975500D01*
X100504174Y-117975500D01*
X100602685Y-117965436D01*
X100762287Y-117912549D01*
X100905391Y-117824281D01*
X100937319Y-117792352D01*
X100998639Y-117758868D01*
X101068331Y-117763852D01*
G37*
%TD.AperFunction*%
%TA.AperFunction,Conductor*%
G36*
X90525731Y-116019685D02*
G01*
X90546373Y-116036319D01*
X91068102Y-116558048D01*
X91101587Y-116619371D01*
X91099498Y-116680323D01*
X91052401Y-116842432D01*
X91049500Y-116879298D01*
X91049500Y-117035565D01*
X91029815Y-117102604D01*
X90977011Y-117148359D01*
X90907853Y-117158303D01*
X90860405Y-117141104D01*
X90819133Y-117115648D01*
X90819119Y-117115641D01*
X90652697Y-117060494D01*
X90652690Y-117060493D01*
X90549986Y-117050000D01*
X90275000Y-117050000D01*
X90275000Y-118176000D01*
X90255315Y-118243039D01*
X90202511Y-118288794D01*
X90151000Y-118300000D01*
X89899000Y-118300000D01*
X89831961Y-118280315D01*
X89786206Y-118227511D01*
X89775000Y-118176000D01*
X89775000Y-117050000D01*
X89500029Y-117050000D01*
X89500012Y-117050001D01*
X89397302Y-117060494D01*
X89230880Y-117115641D01*
X89230871Y-117115645D01*
X89189096Y-117141413D01*
X89121704Y-117159853D01*
X89055040Y-117138930D01*
X89010271Y-117085288D01*
X89000000Y-117035874D01*
X89000000Y-116124000D01*
X89019685Y-116056961D01*
X89072489Y-116011206D01*
X89124000Y-116000000D01*
X90458692Y-116000000D01*
X90525731Y-116019685D01*
G37*
%TD.AperFunction*%
%TA.AperFunction,Conductor*%
G36*
X96009143Y-117465185D02*
G01*
X96048833Y-117506374D01*
X96061255Y-117527379D01*
X96078439Y-117595100D01*
X96056281Y-117661363D01*
X96001816Y-117705128D01*
X95954524Y-117714500D01*
X94045476Y-117714500D01*
X93978437Y-117694815D01*
X93932682Y-117642011D01*
X93922738Y-117572853D01*
X93938743Y-117527381D01*
X93951166Y-117506374D01*
X94002236Y-117458694D01*
X94057896Y-117445500D01*
X95942104Y-117445500D01*
X96009143Y-117465185D01*
G37*
%TD.AperFunction*%
%TD*%
%TA.AperFunction,Conductor*%
%TO.N,GND*%
G36*
X95963039Y-75499685D02*
G01*
X96008794Y-75552489D01*
X96020000Y-75604000D01*
X96020000Y-75754206D01*
X96000315Y-75821245D01*
X95947511Y-75867000D01*
X95878353Y-75876944D01*
X95855048Y-75871248D01*
X95829043Y-75862149D01*
X95829041Y-75862148D01*
X95655504Y-75842596D01*
X95655496Y-75842596D01*
X95481960Y-75862148D01*
X95317113Y-75919830D01*
X95310522Y-75923970D01*
X95655500Y-76268947D01*
X96001286Y-76614733D01*
X96020000Y-76649005D01*
X96020000Y-77083044D01*
X96009815Y-77117730D01*
X95957011Y-77163485D01*
X95887853Y-77173429D01*
X95824297Y-77144404D01*
X95817819Y-77138372D01*
X95655500Y-76976053D01*
X95435303Y-77196250D01*
X95655499Y-77416446D01*
X95826513Y-77245433D01*
X95887836Y-77211948D01*
X95957527Y-77216932D01*
X96013461Y-77258803D01*
X96020000Y-77276334D01*
X96020000Y-77750546D01*
X96009053Y-77766115D01*
X96009053Y-77777651D01*
X96020000Y-77797698D01*
X96020000Y-78266908D01*
X95979987Y-78311991D01*
X95912718Y-78330876D01*
X95845918Y-78310395D01*
X95826513Y-78294566D01*
X95655500Y-78123553D01*
X95435303Y-78343750D01*
X95655500Y-78563947D01*
X95817819Y-78401628D01*
X95879142Y-78368143D01*
X95948834Y-78373127D01*
X96004767Y-78414999D01*
X96020000Y-78455839D01*
X96020000Y-78891166D01*
X96008276Y-78917667D01*
X96001286Y-78925265D01*
X95655500Y-79271053D01*
X95310522Y-79616028D01*
X95317113Y-79620169D01*
X95317116Y-79620170D01*
X95481960Y-79677851D01*
X95655496Y-79697404D01*
X95655504Y-79697404D01*
X95829041Y-79677851D01*
X95855045Y-79668752D01*
X95924824Y-79665189D01*
X95985451Y-79699918D01*
X96017679Y-79761911D01*
X96020000Y-79785793D01*
X96020000Y-80980000D01*
X98396000Y-80980000D01*
X98463039Y-80999685D01*
X98508794Y-81052489D01*
X98520000Y-81104000D01*
X98520000Y-81507901D01*
X98500315Y-81574940D01*
X98447511Y-81620695D01*
X98378353Y-81630639D01*
X98314797Y-81601614D01*
X98298884Y-81582908D01*
X98297994Y-81583613D01*
X98293512Y-81577945D01*
X98169458Y-81453891D01*
X98169457Y-81453890D01*
X98020135Y-81361788D01*
X97853598Y-81306603D01*
X97853596Y-81306602D01*
X97750811Y-81296102D01*
X97150799Y-81296102D01*
X97150781Y-81296103D01*
X97048004Y-81306602D01*
X97048001Y-81306603D01*
X96881469Y-81361787D01*
X96881464Y-81361789D01*
X96732143Y-81453891D01*
X96608089Y-81577945D01*
X96608084Y-81577951D01*
X96606042Y-81581263D01*
X96604048Y-81583055D01*
X96603608Y-81583613D01*
X96603512Y-81583537D01*
X96554092Y-81627985D01*
X96485129Y-81639204D01*
X96421048Y-81611357D01*
X96394969Y-81581258D01*
X96393120Y-81578261D01*
X96393117Y-81578257D01*
X96269146Y-81454286D01*
X96119925Y-81362245D01*
X96119920Y-81362243D01*
X95953498Y-81307096D01*
X95953491Y-81307095D01*
X95850787Y-81296602D01*
X95800801Y-81296602D01*
X95800801Y-82647602D01*
X95781116Y-82714641D01*
X95728312Y-82760396D01*
X95676801Y-82771602D01*
X94550802Y-82771602D01*
X94550802Y-83046588D01*
X94561295Y-83149299D01*
X94616442Y-83315721D01*
X94616444Y-83315726D01*
X94708485Y-83464947D01*
X94832455Y-83588917D01*
X94981676Y-83680958D01*
X94981681Y-83680960D01*
X95154531Y-83738237D01*
X95153501Y-83741344D01*
X95202369Y-83767386D01*
X95236477Y-83828365D01*
X95232202Y-83898103D01*
X95190902Y-83954460D01*
X95125690Y-83979543D01*
X95115583Y-83979955D01*
X93291058Y-83979931D01*
X93291058Y-84432304D01*
X93271373Y-84499343D01*
X93218569Y-84545098D01*
X93149411Y-84555042D01*
X93085855Y-84526017D01*
X93079377Y-84519985D01*
X93073737Y-84514345D01*
X92924516Y-84422304D01*
X92924511Y-84422302D01*
X92758089Y-84367155D01*
X92758082Y-84367154D01*
X92655378Y-84356661D01*
X92592892Y-84356661D01*
X92592892Y-86756660D01*
X92655364Y-86756660D01*
X92655378Y-86756659D01*
X92758089Y-86746166D01*
X92924511Y-86691019D01*
X92924516Y-86691017D01*
X93073737Y-86598976D01*
X93079377Y-86593337D01*
X93140700Y-86559852D01*
X93210392Y-86564836D01*
X93266325Y-86606708D01*
X93290742Y-86672172D01*
X93291058Y-86681018D01*
X93291058Y-87355934D01*
X93271373Y-87422973D01*
X93218569Y-87468728D01*
X93167060Y-87479934D01*
X89644002Y-87479997D01*
X89576962Y-87460314D01*
X89531207Y-87407510D01*
X89520000Y-87355997D01*
X89520000Y-86056647D01*
X91330393Y-86056647D01*
X91340886Y-86159358D01*
X91396033Y-86325780D01*
X91396035Y-86325785D01*
X91488076Y-86475006D01*
X91612046Y-86598976D01*
X91761267Y-86691017D01*
X91761272Y-86691019D01*
X91927694Y-86746166D01*
X91927701Y-86746167D01*
X92030411Y-86756660D01*
X92092891Y-86756659D01*
X92092892Y-86756659D01*
X92092892Y-85806661D01*
X91330393Y-85806661D01*
X91330393Y-86056647D01*
X89520000Y-86056647D01*
X89520000Y-85056674D01*
X91330392Y-85056674D01*
X91330392Y-85306661D01*
X92092892Y-85306661D01*
X92092892Y-84356661D01*
X92092891Y-84356660D01*
X92030420Y-84356661D01*
X92030403Y-84356662D01*
X91927694Y-84367155D01*
X91761272Y-84422302D01*
X91761267Y-84422304D01*
X91612046Y-84514345D01*
X91488076Y-84638315D01*
X91396035Y-84787536D01*
X91396033Y-84787541D01*
X91340886Y-84953963D01*
X91340885Y-84953970D01*
X91330392Y-85056674D01*
X89520000Y-85056674D01*
X89520000Y-84479999D01*
X88388773Y-84429467D01*
X88322679Y-84406811D01*
X88279326Y-84352018D01*
X88270307Y-84305591D01*
X88270307Y-81809986D01*
X88795001Y-81809986D01*
X88805494Y-81912697D01*
X88860641Y-82079119D01*
X88860643Y-82079124D01*
X88952684Y-82228345D01*
X89076654Y-82352315D01*
X89225875Y-82444356D01*
X89225880Y-82444358D01*
X89392302Y-82499505D01*
X89392309Y-82499506D01*
X89495019Y-82509999D01*
X89769999Y-82509999D01*
X90270000Y-82509999D01*
X90544972Y-82509999D01*
X90544986Y-82509998D01*
X90647697Y-82499505D01*
X90814119Y-82444358D01*
X90814124Y-82444356D01*
X90963345Y-82352315D01*
X91087315Y-82228345D01*
X91179356Y-82079124D01*
X91179358Y-82079119D01*
X91206697Y-81996615D01*
X94550801Y-81996615D01*
X94550801Y-82271602D01*
X95300801Y-82271602D01*
X95300801Y-81296602D01*
X95300800Y-81296601D01*
X95250830Y-81296602D01*
X95250812Y-81296603D01*
X95148103Y-81307096D01*
X94981681Y-81362243D01*
X94981676Y-81362245D01*
X94832455Y-81454286D01*
X94708485Y-81578256D01*
X94616444Y-81727477D01*
X94616442Y-81727482D01*
X94561295Y-81893904D01*
X94561294Y-81893911D01*
X94550801Y-81996615D01*
X91206697Y-81996615D01*
X91234505Y-81912697D01*
X91234506Y-81912690D01*
X91244999Y-81809986D01*
X91245000Y-81809973D01*
X91245000Y-81760000D01*
X90270000Y-81760000D01*
X90270000Y-82509999D01*
X89769999Y-82509999D01*
X89770000Y-82509998D01*
X89770000Y-81760000D01*
X88795001Y-81760000D01*
X88795001Y-81809986D01*
X88270307Y-81809986D01*
X88270307Y-80687255D01*
X88289992Y-80620216D01*
X88342796Y-80574461D01*
X88394307Y-80563255D01*
X88881722Y-80563255D01*
X88948761Y-80582940D01*
X88994516Y-80635744D01*
X89004460Y-80704902D01*
X88975435Y-80768458D01*
X88969403Y-80774936D01*
X88952684Y-80791654D01*
X88860643Y-80940875D01*
X88860641Y-80940880D01*
X88805494Y-81107302D01*
X88805493Y-81107309D01*
X88795000Y-81210013D01*
X88795000Y-81260000D01*
X91244999Y-81260000D01*
X91244999Y-81210028D01*
X91244998Y-81210013D01*
X91234505Y-81107302D01*
X91179358Y-80940880D01*
X91179356Y-80940875D01*
X91087315Y-80791654D01*
X91070597Y-80774936D01*
X91037112Y-80713613D01*
X91042096Y-80643921D01*
X91083968Y-80587988D01*
X91149432Y-80563571D01*
X91158278Y-80563255D01*
X91686805Y-80563255D01*
X91686806Y-80563255D01*
X91681831Y-80092681D01*
X91700805Y-80025442D01*
X91753122Y-79979132D01*
X91822171Y-79968457D01*
X91886030Y-79996809D01*
X91893504Y-80003694D01*
X91894900Y-80005090D01*
X92015021Y-80097263D01*
X92154891Y-80155198D01*
X92154895Y-80155199D01*
X92267302Y-80169999D01*
X92267317Y-80170000D01*
X92805000Y-80170000D01*
X92805000Y-79670000D01*
X93105000Y-79670000D01*
X93105000Y-80170000D01*
X93642683Y-80170000D01*
X93642697Y-80169999D01*
X93755104Y-80155199D01*
X93755108Y-80155198D01*
X93894978Y-80097263D01*
X94015094Y-80005094D01*
X94107263Y-79884978D01*
X94165197Y-79745111D01*
X94165581Y-79743680D01*
X94166234Y-79742607D01*
X94168310Y-79737597D01*
X94169091Y-79737920D01*
X94201944Y-79684019D01*
X94264790Y-79653487D01*
X94326313Y-79658729D01*
X94380961Y-79677851D01*
X94380958Y-79677851D01*
X94554496Y-79697404D01*
X94554504Y-79697404D01*
X94728038Y-79677851D01*
X94892885Y-79620169D01*
X94892889Y-79620167D01*
X94899475Y-79616028D01*
X94899475Y-79616027D01*
X94554500Y-79271053D01*
X94205559Y-79619994D01*
X94205460Y-79619895D01*
X94182931Y-79647855D01*
X94116637Y-79669921D01*
X94112209Y-79670000D01*
X93105000Y-79670000D01*
X92805000Y-79670000D01*
X92805000Y-79494000D01*
X92824685Y-79426961D01*
X92877489Y-79381206D01*
X92929000Y-79370000D01*
X93850173Y-79370000D01*
X93857382Y-79352593D01*
X93853506Y-79345494D01*
X93858490Y-79275802D01*
X93886991Y-79231455D01*
X94200946Y-78917499D01*
X94184146Y-78900699D01*
X94179743Y-78892636D01*
X94429500Y-78892636D01*
X94429500Y-78942364D01*
X94448530Y-78988307D01*
X94483693Y-79023470D01*
X94529636Y-79042500D01*
X94579364Y-79042500D01*
X94625307Y-79023470D01*
X94660470Y-78988307D01*
X94679500Y-78942364D01*
X94679500Y-78917500D01*
X94908053Y-78917500D01*
X95105000Y-79114447D01*
X95301947Y-78917500D01*
X95277083Y-78892636D01*
X95530500Y-78892636D01*
X95530500Y-78942364D01*
X95549530Y-78988307D01*
X95584693Y-79023470D01*
X95630636Y-79042500D01*
X95680364Y-79042500D01*
X95726307Y-79023470D01*
X95761470Y-78988307D01*
X95780500Y-78942364D01*
X95780500Y-78892636D01*
X95761470Y-78846693D01*
X95726307Y-78811530D01*
X95680364Y-78792500D01*
X95630636Y-78792500D01*
X95584693Y-78811530D01*
X95549530Y-78846693D01*
X95530500Y-78892636D01*
X95277083Y-78892636D01*
X95105000Y-78720553D01*
X94908053Y-78917500D01*
X94679500Y-78917500D01*
X94679500Y-78892636D01*
X94660470Y-78846693D01*
X94625307Y-78811530D01*
X94579364Y-78792500D01*
X94529636Y-78792500D01*
X94483693Y-78811530D01*
X94448530Y-78846693D01*
X94429500Y-78892636D01*
X94179743Y-78892636D01*
X94150661Y-78839376D01*
X94155645Y-78769684D01*
X94157267Y-78765563D01*
X94165687Y-78745236D01*
X94180500Y-78632720D01*
X94180500Y-78489309D01*
X94200185Y-78422270D01*
X94252989Y-78376515D01*
X94322147Y-78366571D01*
X94385703Y-78395596D01*
X94392181Y-78401628D01*
X94554500Y-78563947D01*
X94774697Y-78343750D01*
X94554500Y-78123553D01*
X94383486Y-78294566D01*
X94322163Y-78328051D01*
X94252471Y-78323067D01*
X94196538Y-78281195D01*
X94172121Y-78215731D01*
X94172865Y-78190708D01*
X94180500Y-78132720D01*
X94180500Y-77907280D01*
X94174889Y-77864664D01*
X94185653Y-77795633D01*
X94200947Y-77773884D01*
X94200947Y-77762351D01*
X94191547Y-77745136D01*
X94429500Y-77745136D01*
X94429500Y-77794864D01*
X94448530Y-77840807D01*
X94483693Y-77875970D01*
X94529636Y-77895000D01*
X94579364Y-77895000D01*
X94625307Y-77875970D01*
X94660470Y-77840807D01*
X94679500Y-77794864D01*
X94679500Y-77770000D01*
X94908053Y-77770000D01*
X95105000Y-77966947D01*
X95301947Y-77770000D01*
X95277083Y-77745136D01*
X95530500Y-77745136D01*
X95530500Y-77794864D01*
X95549530Y-77840807D01*
X95584693Y-77875970D01*
X95630636Y-77895000D01*
X95680364Y-77895000D01*
X95726307Y-77875970D01*
X95761470Y-77840807D01*
X95780500Y-77794864D01*
X95780500Y-77745136D01*
X95761470Y-77699193D01*
X95726307Y-77664030D01*
X95680364Y-77645000D01*
X95630636Y-77645000D01*
X95584693Y-77664030D01*
X95549530Y-77699193D01*
X95530500Y-77745136D01*
X95277083Y-77745136D01*
X95105000Y-77573053D01*
X94908053Y-77770000D01*
X94679500Y-77770000D01*
X94679500Y-77745136D01*
X94660470Y-77699193D01*
X94625307Y-77664030D01*
X94579364Y-77645000D01*
X94529636Y-77645000D01*
X94483693Y-77664030D01*
X94448530Y-77699193D01*
X94429500Y-77745136D01*
X94191547Y-77745136D01*
X94176662Y-77717877D01*
X94174889Y-77675337D01*
X94180500Y-77632720D01*
X94180500Y-77407280D01*
X94172866Y-77349297D01*
X94183631Y-77280266D01*
X94230010Y-77228009D01*
X94297279Y-77209123D01*
X94364080Y-77229603D01*
X94383486Y-77245433D01*
X94554500Y-77416447D01*
X94774697Y-77196250D01*
X94554500Y-76976053D01*
X94392181Y-77138372D01*
X94330858Y-77171857D01*
X94261166Y-77166873D01*
X94205233Y-77125001D01*
X94180816Y-77059537D01*
X94180500Y-77050691D01*
X94180500Y-76907286D01*
X94180500Y-76907280D01*
X94165687Y-76794764D01*
X94165686Y-76794763D01*
X94164626Y-76786705D01*
X94167676Y-76786303D01*
X94167685Y-76753696D01*
X94164626Y-76753294D01*
X94167894Y-76728470D01*
X94173455Y-76686227D01*
X94201721Y-76622333D01*
X94208713Y-76614733D01*
X94225810Y-76597636D01*
X94429500Y-76597636D01*
X94429500Y-76647364D01*
X94448530Y-76693307D01*
X94483693Y-76728470D01*
X94529636Y-76747500D01*
X94579364Y-76747500D01*
X94625307Y-76728470D01*
X94660470Y-76693307D01*
X94679500Y-76647364D01*
X94679500Y-76622500D01*
X94908053Y-76622500D01*
X95105000Y-76819447D01*
X95301947Y-76622500D01*
X95277083Y-76597636D01*
X95530500Y-76597636D01*
X95530500Y-76647364D01*
X95549530Y-76693307D01*
X95584693Y-76728470D01*
X95630636Y-76747500D01*
X95680364Y-76747500D01*
X95726307Y-76728470D01*
X95761470Y-76693307D01*
X95780500Y-76647364D01*
X95780500Y-76597636D01*
X95761470Y-76551693D01*
X95726307Y-76516530D01*
X95680364Y-76497500D01*
X95630636Y-76497500D01*
X95584693Y-76516530D01*
X95549530Y-76551693D01*
X95530500Y-76597636D01*
X95277083Y-76597636D01*
X95105000Y-76425553D01*
X94908053Y-76622500D01*
X94679500Y-76622500D01*
X94679500Y-76597636D01*
X94660470Y-76551693D01*
X94625307Y-76516530D01*
X94579364Y-76497500D01*
X94529636Y-76497500D01*
X94483693Y-76516530D01*
X94448530Y-76551693D01*
X94429500Y-76597636D01*
X94225810Y-76597636D01*
X94554500Y-76268947D01*
X94899476Y-75923970D01*
X94892887Y-75919831D01*
X94728038Y-75862148D01*
X94554504Y-75842596D01*
X94554496Y-75842596D01*
X94380960Y-75862148D01*
X94326788Y-75881104D01*
X94257009Y-75884665D01*
X94196382Y-75849936D01*
X94169374Y-75802032D01*
X94168797Y-75802272D01*
X94166825Y-75797512D01*
X94166058Y-75796151D01*
X94165687Y-75794768D01*
X94165687Y-75794764D01*
X94165685Y-75794759D01*
X94106326Y-75651452D01*
X94098857Y-75581983D01*
X94130132Y-75519504D01*
X94190221Y-75483852D01*
X94220887Y-75480000D01*
X95896000Y-75480000D01*
X95963039Y-75499685D01*
G37*
%TD.AperFunction*%
%TD*%
%TA.AperFunction,Conductor*%
%TO.N,GND*%
G36*
X144531624Y-75994282D02*
G01*
X144598543Y-76014362D01*
X144618570Y-76030599D01*
X144922784Y-76334812D01*
X144956269Y-76396135D01*
X144959103Y-76422493D01*
X144959103Y-76459649D01*
X144959102Y-76459649D01*
X145000027Y-76612380D01*
X145007420Y-76625185D01*
X144959740Y-76625185D01*
X144913797Y-76644215D01*
X144878634Y-76679378D01*
X144859604Y-76725321D01*
X144859604Y-76775049D01*
X144878634Y-76820992D01*
X144913797Y-76856155D01*
X144959740Y-76875185D01*
X145009468Y-76875185D01*
X145055411Y-76856155D01*
X145090574Y-76820992D01*
X145108203Y-76778430D01*
X145197953Y-76868180D01*
X145197959Y-76868185D01*
X145322285Y-76992511D01*
X145355770Y-77053834D01*
X145358604Y-77080192D01*
X145358604Y-77178376D01*
X145338919Y-77245415D01*
X145286115Y-77291170D01*
X145216957Y-77301114D01*
X145153401Y-77272089D01*
X145146923Y-77266057D01*
X144984604Y-77103738D01*
X144764407Y-77323935D01*
X144984603Y-77544131D01*
X145155617Y-77373118D01*
X145216940Y-77339633D01*
X145286631Y-77344617D01*
X145342565Y-77386488D01*
X145366982Y-77451953D01*
X145366237Y-77476984D01*
X145358604Y-77534965D01*
X145358604Y-77760405D01*
X145360221Y-77772685D01*
X145364214Y-77803022D01*
X145353446Y-77872057D01*
X145338157Y-77893800D01*
X145338157Y-77905336D01*
X145362440Y-77949807D01*
X145364214Y-77992347D01*
X145362726Y-78003655D01*
X145358605Y-78034962D01*
X145358604Y-78034968D01*
X145358604Y-78260398D01*
X145358605Y-78260415D01*
X145366237Y-78318385D01*
X145355471Y-78387420D01*
X145309091Y-78439676D01*
X145241822Y-78458561D01*
X145175022Y-78438080D01*
X145155617Y-78422251D01*
X144984604Y-78251238D01*
X144764407Y-78471435D01*
X144984604Y-78691632D01*
X145146923Y-78529313D01*
X145208246Y-78495828D01*
X145277938Y-78500812D01*
X145333871Y-78542684D01*
X145358288Y-78608148D01*
X145358604Y-78616994D01*
X145358604Y-78760412D01*
X145374478Y-78880977D01*
X145371490Y-78881370D01*
X145371499Y-78914000D01*
X145374478Y-78914393D01*
X145365648Y-78981456D01*
X145337380Y-79045352D01*
X145330390Y-79052950D01*
X144984604Y-79398738D01*
X144639626Y-79743713D01*
X144646217Y-79747854D01*
X144646220Y-79747855D01*
X144811064Y-79805536D01*
X144984600Y-79825089D01*
X144984608Y-79825089D01*
X145158143Y-79805536D01*
X145212313Y-79786581D01*
X145282092Y-79783018D01*
X145342719Y-79817746D01*
X145369731Y-79865651D01*
X145370307Y-79865413D01*
X145372271Y-79870155D01*
X145373043Y-79871524D01*
X145373418Y-79872924D01*
X145400947Y-79939385D01*
X145410355Y-79989622D01*
X145386090Y-81069618D01*
X145386090Y-81069619D01*
X146368266Y-81008233D01*
X146436402Y-81023698D01*
X146485362Y-81073545D01*
X146500000Y-81131992D01*
X146500000Y-81952990D01*
X146480315Y-82020029D01*
X146427511Y-82065784D01*
X146358353Y-82075728D01*
X146294797Y-82046703D01*
X146288319Y-82040671D01*
X146177792Y-81930144D01*
X146028571Y-81838103D01*
X146028566Y-81838101D01*
X145862144Y-81782954D01*
X145862137Y-81782953D01*
X145759433Y-81772460D01*
X145709447Y-81772460D01*
X145709447Y-84222459D01*
X145759419Y-84222459D01*
X145759433Y-84222458D01*
X145862144Y-84211965D01*
X146028566Y-84156818D01*
X146028571Y-84156816D01*
X146177792Y-84064775D01*
X146288319Y-83954249D01*
X146349642Y-83920764D01*
X146419334Y-83925748D01*
X146475267Y-83967620D01*
X146499684Y-84033084D01*
X146500000Y-84041930D01*
X146500000Y-84377731D01*
X146480315Y-84444770D01*
X146427511Y-84490525D01*
X146377744Y-84501719D01*
X143008741Y-84549110D01*
X143007508Y-84894705D01*
X142987584Y-84961673D01*
X142934617Y-85007240D01*
X142865424Y-85016936D01*
X142801972Y-84987684D01*
X142795828Y-84981943D01*
X142749589Y-84935704D01*
X142600368Y-84843663D01*
X142600363Y-84843661D01*
X142433941Y-84788514D01*
X142433934Y-84788513D01*
X142331230Y-84778020D01*
X142268744Y-84778020D01*
X142268744Y-86104020D01*
X142249059Y-86171059D01*
X142196255Y-86216814D01*
X142144744Y-86228020D01*
X141006245Y-86228020D01*
X141006245Y-86478006D01*
X141016738Y-86580717D01*
X141071885Y-86747139D01*
X141071890Y-86747150D01*
X141111214Y-86810903D01*
X141129655Y-86878295D01*
X141108733Y-86944959D01*
X141055091Y-86989728D01*
X141005676Y-87000000D01*
X137624000Y-87000000D01*
X137556961Y-86980315D01*
X137511206Y-86927511D01*
X137500000Y-86876000D01*
X137500000Y-85478033D01*
X141006244Y-85478033D01*
X141006244Y-85728020D01*
X141768744Y-85728020D01*
X141768744Y-84778020D01*
X141768743Y-84778019D01*
X141706272Y-84778020D01*
X141706255Y-84778021D01*
X141603546Y-84788514D01*
X141437124Y-84843661D01*
X141437119Y-84843663D01*
X141287898Y-84935704D01*
X141163928Y-85059674D01*
X141071887Y-85208895D01*
X141071885Y-85208900D01*
X141016738Y-85375322D01*
X141016737Y-85375329D01*
X141006244Y-85478033D01*
X137500000Y-85478033D01*
X137500000Y-83522446D01*
X144459448Y-83522446D01*
X144469941Y-83625157D01*
X144525088Y-83791579D01*
X144525090Y-83791584D01*
X144617131Y-83940805D01*
X144741101Y-84064775D01*
X144890322Y-84156816D01*
X144890327Y-84156818D01*
X145056749Y-84211965D01*
X145056756Y-84211966D01*
X145159466Y-84222459D01*
X145209446Y-84222458D01*
X145209447Y-84222458D01*
X145209447Y-83247460D01*
X144459448Y-83247460D01*
X144459448Y-83522446D01*
X137500000Y-83522446D01*
X137500000Y-82467975D01*
X138578038Y-82467975D01*
X138588531Y-82570686D01*
X138643678Y-82737108D01*
X138643680Y-82737113D01*
X138735721Y-82886334D01*
X138859691Y-83010304D01*
X139008912Y-83102345D01*
X139008917Y-83102347D01*
X139175339Y-83157494D01*
X139175346Y-83157495D01*
X139278056Y-83167988D01*
X139553036Y-83167988D01*
X140053037Y-83167988D01*
X140328009Y-83167988D01*
X140328023Y-83167987D01*
X140430734Y-83157494D01*
X140597156Y-83102347D01*
X140597161Y-83102345D01*
X140746382Y-83010304D01*
X140870352Y-82886334D01*
X140962393Y-82737113D01*
X140962395Y-82737108D01*
X141017542Y-82570686D01*
X141017543Y-82570679D01*
X141027576Y-82472473D01*
X144459447Y-82472473D01*
X144459447Y-82747460D01*
X145209447Y-82747460D01*
X145209447Y-81772460D01*
X145209446Y-81772459D01*
X145159476Y-81772460D01*
X145159458Y-81772461D01*
X145056749Y-81782954D01*
X144890327Y-81838101D01*
X144890322Y-81838103D01*
X144741101Y-81930144D01*
X144617131Y-82054114D01*
X144525090Y-82203335D01*
X144525088Y-82203340D01*
X144469941Y-82369762D01*
X144469940Y-82369769D01*
X144459447Y-82472473D01*
X141027576Y-82472473D01*
X141028036Y-82467975D01*
X141028037Y-82467962D01*
X141028037Y-82417989D01*
X140053037Y-82417989D01*
X140053037Y-83167988D01*
X139553036Y-83167988D01*
X139553037Y-83167987D01*
X139553037Y-82417989D01*
X138578038Y-82417989D01*
X138578038Y-82467975D01*
X137500000Y-82467975D01*
X137500000Y-80635016D01*
X137519685Y-80567977D01*
X137572489Y-80522222D01*
X137634526Y-80511464D01*
X138479959Y-80583512D01*
X138545084Y-80608818D01*
X138586190Y-80665316D01*
X138587135Y-80668060D01*
X138588037Y-80670784D01*
X138588038Y-80670786D01*
X138643223Y-80837323D01*
X138735325Y-80986645D01*
X138859381Y-81110701D01*
X138862665Y-81112726D01*
X138862690Y-81112742D01*
X138864482Y-81114735D01*
X138865048Y-81115182D01*
X138864971Y-81115278D01*
X138909416Y-81164688D01*
X138920640Y-81233650D01*
X138892798Y-81297733D01*
X138862702Y-81323815D01*
X138859697Y-81325668D01*
X138859692Y-81325672D01*
X138735721Y-81449643D01*
X138643680Y-81598864D01*
X138643678Y-81598869D01*
X138588531Y-81765291D01*
X138588530Y-81765298D01*
X138578037Y-81868002D01*
X138578037Y-81917989D01*
X141028036Y-81917989D01*
X141028036Y-81868017D01*
X141028035Y-81868002D01*
X141017542Y-81765291D01*
X140962395Y-81598869D01*
X140962393Y-81598864D01*
X140870352Y-81449643D01*
X140746381Y-81325672D01*
X140746378Y-81325670D01*
X140743376Y-81323818D01*
X140741750Y-81322010D01*
X140740714Y-81321191D01*
X140740854Y-81321013D01*
X140696654Y-81271869D01*
X140685434Y-81202906D01*
X140713280Y-81138825D01*
X140743381Y-81112743D01*
X140746693Y-81110701D01*
X140870749Y-80986645D01*
X140947540Y-80862145D01*
X140999487Y-80815422D01*
X141063603Y-80803691D01*
X143170568Y-80983247D01*
X143367129Y-80999999D01*
X143367130Y-80999999D01*
X143367130Y-80144987D01*
X143386815Y-80077948D01*
X143392755Y-80069500D01*
X143436365Y-80012666D01*
X143436367Y-80012664D01*
X143494301Y-79872796D01*
X143494685Y-79871365D01*
X143495338Y-79870292D01*
X143497414Y-79865282D01*
X143498195Y-79865605D01*
X143531048Y-79811704D01*
X143593894Y-79781172D01*
X143655417Y-79786414D01*
X143710065Y-79805536D01*
X143710062Y-79805536D01*
X143883600Y-79825089D01*
X143883608Y-79825089D01*
X144057142Y-79805536D01*
X144221989Y-79747854D01*
X144221993Y-79747852D01*
X144228579Y-79743713D01*
X144228579Y-79743712D01*
X143883604Y-79398738D01*
X143534663Y-79747679D01*
X143534564Y-79747580D01*
X143512035Y-79775540D01*
X143445741Y-79797606D01*
X143441313Y-79797685D01*
X143367130Y-79797685D01*
X143367130Y-79208104D01*
X143530050Y-79045184D01*
X143513250Y-79028384D01*
X143508847Y-79020321D01*
X143758604Y-79020321D01*
X143758604Y-79070049D01*
X143777634Y-79115992D01*
X143812797Y-79151155D01*
X143858740Y-79170185D01*
X143908468Y-79170185D01*
X143954411Y-79151155D01*
X143989574Y-79115992D01*
X144008604Y-79070049D01*
X144008604Y-79045185D01*
X144237157Y-79045185D01*
X144434104Y-79242132D01*
X144631051Y-79045185D01*
X144606187Y-79020321D01*
X144859604Y-79020321D01*
X144859604Y-79070049D01*
X144878634Y-79115992D01*
X144913797Y-79151155D01*
X144959740Y-79170185D01*
X145009468Y-79170185D01*
X145055411Y-79151155D01*
X145090574Y-79115992D01*
X145109604Y-79070049D01*
X145109604Y-79020321D01*
X145090574Y-78974378D01*
X145055411Y-78939215D01*
X145009468Y-78920185D01*
X144959740Y-78920185D01*
X144913797Y-78939215D01*
X144878634Y-78974378D01*
X144859604Y-79020321D01*
X144606187Y-79020321D01*
X144434104Y-78848238D01*
X144237157Y-79045185D01*
X144008604Y-79045185D01*
X144008604Y-79020321D01*
X143989574Y-78974378D01*
X143954411Y-78939215D01*
X143908468Y-78920185D01*
X143858740Y-78920185D01*
X143812797Y-78939215D01*
X143777634Y-78974378D01*
X143758604Y-79020321D01*
X143508847Y-79020321D01*
X143479765Y-78967061D01*
X143484749Y-78897369D01*
X143486371Y-78893248D01*
X143491454Y-78880977D01*
X143494791Y-78872921D01*
X143509604Y-78760405D01*
X143509604Y-78616994D01*
X143529289Y-78549955D01*
X143582093Y-78504200D01*
X143651251Y-78494256D01*
X143714807Y-78523281D01*
X143721285Y-78529313D01*
X143883604Y-78691632D01*
X144103801Y-78471435D01*
X143883604Y-78251238D01*
X143712590Y-78422251D01*
X143651267Y-78455736D01*
X143581575Y-78450752D01*
X143525642Y-78408880D01*
X143501225Y-78343416D01*
X143501969Y-78318393D01*
X143509604Y-78260405D01*
X143509604Y-78034965D01*
X143503993Y-77992349D01*
X143514757Y-77923318D01*
X143530051Y-77901569D01*
X143530051Y-77890036D01*
X143520651Y-77872821D01*
X143758604Y-77872821D01*
X143758604Y-77922549D01*
X143777634Y-77968492D01*
X143812797Y-78003655D01*
X143858740Y-78022685D01*
X143908468Y-78022685D01*
X143954411Y-78003655D01*
X143989574Y-77968492D01*
X144008604Y-77922549D01*
X144008604Y-77897685D01*
X144237157Y-77897685D01*
X144434104Y-78094632D01*
X144631051Y-77897685D01*
X144606187Y-77872821D01*
X144859604Y-77872821D01*
X144859604Y-77922549D01*
X144878634Y-77968492D01*
X144913797Y-78003655D01*
X144959740Y-78022685D01*
X145009468Y-78022685D01*
X145055411Y-78003655D01*
X145090574Y-77968492D01*
X145109604Y-77922549D01*
X145109604Y-77872821D01*
X145090574Y-77826878D01*
X145055411Y-77791715D01*
X145009468Y-77772685D01*
X144959740Y-77772685D01*
X144913797Y-77791715D01*
X144878634Y-77826878D01*
X144859604Y-77872821D01*
X144606187Y-77872821D01*
X144434104Y-77700738D01*
X144237157Y-77897685D01*
X144008604Y-77897685D01*
X144008604Y-77872821D01*
X143989574Y-77826878D01*
X143954411Y-77791715D01*
X143908468Y-77772685D01*
X143858740Y-77772685D01*
X143812797Y-77791715D01*
X143777634Y-77826878D01*
X143758604Y-77872821D01*
X143520651Y-77872821D01*
X143505766Y-77845562D01*
X143503993Y-77803022D01*
X143509604Y-77760405D01*
X143509604Y-77534965D01*
X143501970Y-77476982D01*
X143512735Y-77407951D01*
X143559114Y-77355694D01*
X143626383Y-77336808D01*
X143693184Y-77357288D01*
X143712590Y-77373118D01*
X143883604Y-77544132D01*
X144103801Y-77323935D01*
X143883604Y-77103738D01*
X143721285Y-77266057D01*
X143659962Y-77299542D01*
X143590270Y-77294558D01*
X143534337Y-77252686D01*
X143509920Y-77187222D01*
X143509604Y-77178376D01*
X143509604Y-77034971D01*
X143509604Y-77034965D01*
X143494791Y-76922449D01*
X143494790Y-76922448D01*
X143493730Y-76914390D01*
X143496780Y-76913988D01*
X143496789Y-76881381D01*
X143493730Y-76880979D01*
X143494791Y-76872921D01*
X143502559Y-76813912D01*
X143530825Y-76750018D01*
X143537817Y-76742418D01*
X143554914Y-76725321D01*
X143758604Y-76725321D01*
X143758604Y-76775049D01*
X143777634Y-76820992D01*
X143812797Y-76856155D01*
X143858740Y-76875185D01*
X143908468Y-76875185D01*
X143954411Y-76856155D01*
X143989574Y-76820992D01*
X144008604Y-76775049D01*
X144008604Y-76750185D01*
X144237157Y-76750185D01*
X144434104Y-76947132D01*
X144631051Y-76750185D01*
X144434104Y-76553238D01*
X144237157Y-76750185D01*
X144008604Y-76750185D01*
X144008604Y-76725321D01*
X143989574Y-76679378D01*
X143954411Y-76644215D01*
X143908468Y-76625185D01*
X143858740Y-76625185D01*
X143812797Y-76644215D01*
X143777634Y-76679378D01*
X143758604Y-76725321D01*
X143554914Y-76725321D01*
X143883604Y-76396632D01*
X144250772Y-76029463D01*
X144312095Y-75995978D01*
X144339177Y-75993146D01*
X144531624Y-75994282D01*
G37*
%TD.AperFunction*%
%TD*%
%TA.AperFunction,Conductor*%
%TO.N,GND*%
G36*
X125730539Y-100308476D02*
G01*
X125776294Y-100361280D01*
X125787500Y-100412791D01*
X125787500Y-107164791D01*
X125767815Y-107231830D01*
X125715011Y-107277585D01*
X125663500Y-107288791D01*
X108911500Y-107288791D01*
X108844461Y-107269106D01*
X108798706Y-107216302D01*
X108787500Y-107164791D01*
X108787500Y-105608341D01*
X108807185Y-105541302D01*
X108859989Y-105495547D01*
X108929147Y-105485603D01*
X108992703Y-105514628D01*
X108999167Y-105520647D01*
X109269040Y-105790520D01*
X109405971Y-105869577D01*
X109558699Y-105910501D01*
X109558702Y-105910501D01*
X109724410Y-105910501D01*
X109724426Y-105910500D01*
X111441692Y-105910500D01*
X111508731Y-105930185D01*
X111529374Y-105946820D01*
X111560629Y-105978076D01*
X111560633Y-105978079D01*
X111560635Y-105978081D01*
X111702102Y-106061744D01*
X111743724Y-106073836D01*
X111859926Y-106107597D01*
X111859929Y-106107597D01*
X111859931Y-106107598D01*
X111896806Y-106110500D01*
X111896814Y-106110500D01*
X113678186Y-106110500D01*
X113678194Y-106110500D01*
X113715069Y-106107598D01*
X113715071Y-106107597D01*
X113715073Y-106107597D01*
X113756691Y-106095505D01*
X113872898Y-106061744D01*
X114014365Y-105978081D01*
X114130581Y-105861865D01*
X114214244Y-105720398D01*
X114260098Y-105562569D01*
X114260300Y-105560001D01*
X116265204Y-105560001D01*
X116265399Y-105562486D01*
X116311218Y-105720198D01*
X116394814Y-105861552D01*
X116394821Y-105861561D01*
X116510938Y-105977678D01*
X116510947Y-105977685D01*
X116652303Y-106061282D01*
X116652306Y-106061283D01*
X116810004Y-106107099D01*
X116810010Y-106107100D01*
X116846850Y-106109999D01*
X116846866Y-106110000D01*
X117487500Y-106110000D01*
X117487500Y-105560000D01*
X116265205Y-105560000D01*
X116265204Y-105560001D01*
X114260300Y-105560001D01*
X114263000Y-105525694D01*
X114263000Y-105094306D01*
X114260098Y-105057431D01*
X114248969Y-105019124D01*
X114214246Y-104899607D01*
X114214244Y-104899605D01*
X114214244Y-104899602D01*
X114201243Y-104877618D01*
X114184061Y-104809898D01*
X114206220Y-104743635D01*
X114260686Y-104699872D01*
X114307976Y-104690500D01*
X116217604Y-104690500D01*
X116284643Y-104710185D01*
X116330398Y-104762989D01*
X116340342Y-104832147D01*
X116324336Y-104877621D01*
X116311218Y-104899801D01*
X116265399Y-105057513D01*
X116265204Y-105059998D01*
X116265205Y-105060000D01*
X117863500Y-105060000D01*
X117930539Y-105079685D01*
X117976294Y-105132489D01*
X117987500Y-105184000D01*
X117987500Y-106110000D01*
X118628134Y-106110000D01*
X118628149Y-106109999D01*
X118664989Y-106107100D01*
X118664995Y-106107099D01*
X118822693Y-106061283D01*
X118822696Y-106061282D01*
X118964052Y-105977685D01*
X118964061Y-105977678D01*
X119080178Y-105861561D01*
X119080185Y-105861552D01*
X119163782Y-105720196D01*
X119163783Y-105720194D01*
X119165737Y-105713470D01*
X119203341Y-105654583D01*
X119266813Y-105625375D01*
X119336000Y-105635118D01*
X119388936Y-105680721D01*
X119402520Y-105709057D01*
X119428141Y-105786377D01*
X119428143Y-105786382D01*
X119520184Y-105935603D01*
X119644154Y-106059573D01*
X119793375Y-106151614D01*
X119793380Y-106151616D01*
X119959802Y-106206763D01*
X119959809Y-106206764D01*
X120062519Y-106217257D01*
X120124999Y-106217256D01*
X120125000Y-106217256D01*
X120125000Y-103817258D01*
X120124999Y-103817257D01*
X120062528Y-103817258D01*
X120062511Y-103817259D01*
X119959802Y-103827752D01*
X119793380Y-103882899D01*
X119793375Y-103882901D01*
X119644154Y-103974942D01*
X119520183Y-104098913D01*
X119520180Y-104098917D01*
X119442538Y-104224795D01*
X119390591Y-104271520D01*
X119321628Y-104282741D01*
X119257546Y-104254898D01*
X119218690Y-104196829D01*
X119213000Y-104159698D01*
X119213000Y-103824313D01*
X119212999Y-103824298D01*
X119210098Y-103787432D01*
X119210097Y-103787426D01*
X119164245Y-103629606D01*
X119164244Y-103629603D01*
X119164244Y-103629602D01*
X119080581Y-103488135D01*
X119080578Y-103488132D01*
X119075798Y-103481969D01*
X119078250Y-103480066D01*
X119051655Y-103431421D01*
X119056604Y-103361726D01*
X119077440Y-103329304D01*
X119075798Y-103328031D01*
X119080575Y-103321870D01*
X119080581Y-103321865D01*
X119164244Y-103180398D01*
X119210098Y-103022569D01*
X119213000Y-102985694D01*
X119213000Y-102554306D01*
X119210098Y-102517431D01*
X119206069Y-102503562D01*
X119164246Y-102359607D01*
X119164244Y-102359605D01*
X119164244Y-102359602D01*
X119151243Y-102337618D01*
X119134061Y-102269898D01*
X119156220Y-102203635D01*
X119210686Y-102159872D01*
X119257976Y-102150500D01*
X119494653Y-102150500D01*
X119561692Y-102170185D01*
X119607447Y-102222989D01*
X119612359Y-102235496D01*
X119624951Y-102273496D01*
X119624952Y-102273499D01*
X119713216Y-102416596D01*
X119713219Y-102416600D01*
X119832108Y-102535489D01*
X119832112Y-102535492D01*
X119975204Y-102623753D01*
X119975207Y-102623754D01*
X119975213Y-102623758D01*
X120134815Y-102676645D01*
X120233326Y-102686709D01*
X120233331Y-102686709D01*
X120766669Y-102686709D01*
X120766674Y-102686709D01*
X120865185Y-102676645D01*
X121024787Y-102623758D01*
X121167891Y-102535490D01*
X121199819Y-102503562D01*
X121261142Y-102470077D01*
X121330834Y-102475061D01*
X121375181Y-102503562D01*
X121407109Y-102535490D01*
X121490599Y-102586987D01*
X121537321Y-102638933D01*
X121549500Y-102692524D01*
X121549500Y-103855589D01*
X121529815Y-103922628D01*
X121490600Y-103961126D01*
X121468846Y-103974544D01*
X121374827Y-104068563D01*
X121313503Y-104102047D01*
X121243812Y-104097063D01*
X121199465Y-104068562D01*
X121105845Y-103974942D01*
X120956624Y-103882901D01*
X120956619Y-103882899D01*
X120790197Y-103827752D01*
X120790190Y-103827751D01*
X120687486Y-103817258D01*
X120625000Y-103817258D01*
X120625000Y-106217257D01*
X120687472Y-106217257D01*
X120687486Y-106217256D01*
X120790197Y-106206763D01*
X120956619Y-106151616D01*
X120956624Y-106151614D01*
X121105842Y-106059575D01*
X121199464Y-105965953D01*
X121260787Y-105932468D01*
X121330479Y-105937452D01*
X121374827Y-105965953D01*
X121468844Y-106059970D01*
X121618166Y-106152072D01*
X121784703Y-106207257D01*
X121887491Y-106217758D01*
X122512508Y-106217757D01*
X122512516Y-106217756D01*
X122512519Y-106217756D01*
X122568802Y-106212006D01*
X122615297Y-106207257D01*
X122781834Y-106152072D01*
X122931156Y-106059970D01*
X123055212Y-105935914D01*
X123147314Y-105786592D01*
X123202499Y-105620055D01*
X123213000Y-105517267D01*
X123212999Y-105448344D01*
X123232683Y-105381308D01*
X123285486Y-105335552D01*
X123354644Y-105325608D01*
X123402096Y-105342807D01*
X123469457Y-105384356D01*
X123469462Y-105384358D01*
X123635884Y-105439505D01*
X123635891Y-105439506D01*
X123738601Y-105449999D01*
X124013581Y-105449999D01*
X124513582Y-105449999D01*
X124788554Y-105449999D01*
X124788568Y-105449998D01*
X124891279Y-105439505D01*
X125057701Y-105384358D01*
X125057706Y-105384356D01*
X125206927Y-105292315D01*
X125330897Y-105168345D01*
X125422938Y-105019124D01*
X125422940Y-105019119D01*
X125478087Y-104852697D01*
X125478088Y-104852690D01*
X125488581Y-104749986D01*
X125488582Y-104749973D01*
X125488582Y-104700000D01*
X124513582Y-104700000D01*
X124513582Y-105449999D01*
X124013581Y-105449999D01*
X124013582Y-105449998D01*
X124013582Y-104324000D01*
X124033267Y-104256961D01*
X124086071Y-104211206D01*
X124137582Y-104200000D01*
X125488581Y-104200000D01*
X125488581Y-104150028D01*
X125488580Y-104150013D01*
X125478087Y-104047302D01*
X125422940Y-103880880D01*
X125422938Y-103880875D01*
X125330897Y-103731654D01*
X125206926Y-103607683D01*
X125206923Y-103607681D01*
X125203921Y-103605829D01*
X125202295Y-103604021D01*
X125201259Y-103603202D01*
X125201399Y-103603024D01*
X125157199Y-103553880D01*
X125145979Y-103484917D01*
X125173825Y-103420836D01*
X125203926Y-103394754D01*
X125207238Y-103392712D01*
X125331294Y-103268656D01*
X125423396Y-103119334D01*
X125478581Y-102952797D01*
X125489082Y-102850009D01*
X125489081Y-102249992D01*
X125478581Y-102147203D01*
X125423396Y-101980666D01*
X125331294Y-101831344D01*
X125207238Y-101707288D01*
X125057916Y-101615186D01*
X124999075Y-101595688D01*
X124941633Y-101555916D01*
X124914810Y-101491400D01*
X124914082Y-101477983D01*
X124914082Y-101412010D01*
X124889084Y-101286343D01*
X124889083Y-101286342D01*
X124889083Y-101286338D01*
X124840047Y-101167955D01*
X124832989Y-101157393D01*
X124812112Y-101090717D01*
X124830596Y-101023336D01*
X124848407Y-101000826D01*
X125524124Y-100325109D01*
X125585447Y-100291625D01*
X125611805Y-100288791D01*
X125663500Y-100288791D01*
X125730539Y-100308476D01*
G37*
%TD.AperFunction*%
%TA.AperFunction,Conductor*%
G36*
X120770150Y-100308476D02*
G01*
X120815905Y-100361280D01*
X120825849Y-100430438D01*
X120796824Y-100493994D01*
X120790801Y-100500462D01*
X120639962Y-100651301D01*
X120591873Y-100699390D01*
X120530550Y-100732875D01*
X120504192Y-100735709D01*
X120233318Y-100735709D01*
X120134816Y-100745772D01*
X120134815Y-100745773D01*
X120055719Y-100771982D01*
X119975215Y-100798659D01*
X119975204Y-100798664D01*
X119922720Y-100831038D01*
X119857623Y-100849500D01*
X119028016Y-100849500D01*
X118964895Y-100832232D01*
X118822896Y-100748255D01*
X118822893Y-100748254D01*
X118665073Y-100702402D01*
X118665067Y-100702401D01*
X118628201Y-100699500D01*
X118628194Y-100699500D01*
X116846806Y-100699500D01*
X116846798Y-100699500D01*
X116809932Y-100702401D01*
X116809926Y-100702402D01*
X116652106Y-100748254D01*
X116652103Y-100748255D01*
X116510105Y-100832232D01*
X116446984Y-100849500D01*
X114078016Y-100849500D01*
X114014895Y-100832232D01*
X113872896Y-100748255D01*
X113872893Y-100748254D01*
X113715073Y-100702402D01*
X113715067Y-100702401D01*
X113678201Y-100699500D01*
X113678194Y-100699500D01*
X111896806Y-100699500D01*
X111896798Y-100699500D01*
X111859932Y-100702401D01*
X111859926Y-100702402D01*
X111702106Y-100748254D01*
X111702103Y-100748255D01*
X111560637Y-100831917D01*
X111560629Y-100831923D01*
X111444423Y-100948129D01*
X111444417Y-100948137D01*
X111360755Y-101089603D01*
X111360754Y-101089606D01*
X111314902Y-101247426D01*
X111314901Y-101247432D01*
X111312000Y-101284298D01*
X111312000Y-101535565D01*
X111292315Y-101602604D01*
X111239511Y-101648359D01*
X111170353Y-101658303D01*
X111122905Y-101641104D01*
X111081633Y-101615648D01*
X111081619Y-101615641D01*
X110915197Y-101560494D01*
X110915190Y-101560493D01*
X110812486Y-101550000D01*
X110537500Y-101550000D01*
X110537500Y-102676000D01*
X110517815Y-102743039D01*
X110465011Y-102788794D01*
X110413500Y-102800000D01*
X110161500Y-102800000D01*
X110094461Y-102780315D01*
X110048706Y-102727511D01*
X110037500Y-102676000D01*
X110037500Y-101550000D01*
X109987000Y-101550000D01*
X109919961Y-101530315D01*
X109874206Y-101477511D01*
X109863000Y-101426000D01*
X109863000Y-100412791D01*
X109882685Y-100345752D01*
X109935489Y-100299997D01*
X109987000Y-100288791D01*
X120703111Y-100288791D01*
X120770150Y-100308476D01*
G37*
%TD.AperFunction*%
%TD*%
M02*
